%TF.GenerationSoftware,KiCad,Pcbnew,10.0.6-1.fc44*%
%TF.CreationDate,2026-09-11T09:22:29+07:00*%
%TF.ProjectId,LuckFox RAP Shield,4c75636b-466f-4782-9052-415020536869,rev?*%
%TF.SameCoordinates,Original*%
%TF.FileFunction,Copper,L1,Top*%
%TF.FilePolarity,Positive*%
%FSLAX46Y46*%
G04 Gerber Fmt 4.6, Leading zero omitted, Abs format (unit mm)*
G04 Created by KiCad (PCBNEW 10.0.6-1.fc44) date 2026-09-11 09:22:29*
%MOMM*%
%LPD*%
G01*
G04 APERTURE LIST*
%TA.AperFunction,ComponentPad*%
%ADD10R,1.270000X1.270000*%
%TD*%
%TA.AperFunction,ComponentPad*%
%ADD11C,1.270000*%
%TD*%
%TA.AperFunction,SMDPad,CuDef*%
%ADD12R,1.400000X1.800000*%
%TD*%
%TA.AperFunction,Conductor*%
%ADD13C,0.300000*%
%TD*%
G04 APERTURE END LIST*
D10*
%TO.P,B2,1,5V_1*%
%TO.N,+5V_RAIL*%
X122800000Y-133630000D03*
%TO.P,B2,2,3V3_2*%
%TO.N,+3V3_RAIL*%
X122800000Y-82830000D03*
%TO.P,B2,3,GND_3*%
%TO.N,GND*%
X122800000Y-136170000D03*
%TO.P,B2,4,EN_4*%
%TO.N,unconnected-(B2-EN-Pad4)*%
X122800000Y-87910000D03*
%TO.P,B2,5,GPIO4_MOSI_ETH_5*%
%TO.N,Net-(B2-GPIO4_MOSI_ETH)*%
X122800000Y-90450000D03*
%TO.P,B2,6,GPIO5_MISO_ETH_6*%
%TO.N,Net-(B2-GPIO5_MISO_ETH)*%
X122800000Y-92990000D03*
%TO.P,B2,7,GPIO6_SCK_ETH_7*%
%TO.N,Net-(B2-GPIO6_SCK_ETH)*%
X122800000Y-95530000D03*
%TO.P,B2,8,GPIO7_CS_ETH_8*%
%TO.N,Net-(B2-GPIO7_CS_ETH)*%
X122800000Y-98070000D03*
%TO.P,B2,9,GPIO9_INT_ETH_9*%
%TO.N,Net-(B2-GPIO9_INT_ETH)*%
X122800000Y-118390000D03*
%TO.P,B2,10,GPIO10_CS_LF_10*%
%TO.N,Net-(B2-GPIO10_CS_LF)*%
X122800000Y-120930000D03*
%TO.P,B2,11,GPIO11_MOSI_LF_11*%
%TO.N,Net-(B2-GPIO11_MOSI_LF)*%
X122800000Y-123470000D03*
%TO.P,B2,12,GPIO12_SCK_LF_12*%
%TO.N,Net-(B2-GPIO12_SCK_LF)*%
X122800000Y-126010000D03*
%TO.P,B2,13,GPIO13_MISO_LF_13*%
%TO.N,Net-(B2-GPIO13_MISO_LF)*%
X122800000Y-128550000D03*
%TO.P,B2,14,GPIO15_DATA_RDY_IN_14*%
%TO.N,Net-(B2-GPIO15_DATA_RDY_IN)*%
X122800000Y-100610000D03*
%TO.P,B2,15,GPIO16_SLAVE_RDY_OUT_15*%
%TO.N,Net-(B2-GPIO16_SLAVE_RDY_OUT)*%
X122800000Y-103150000D03*
%TO.P,B2,16,GND_16*%
%TO.N,GND*%
X148200000Y-82830000D03*
D11*
%TO.P,B2,17,3V3_17*%
%TO.N,unconnected-(B2-3V3-Pad17)*%
X122800000Y-85370000D03*
%TO.P,B2,18,GPIO17_18*%
%TO.N,Net-(B2-GPIO17)*%
X122800000Y-105690000D03*
%TO.P,B2,19,GPIO18_19*%
%TO.N,unconnected-(B2-GPIO18-Pad19)*%
X122800000Y-108230000D03*
%TO.P,B2,20,GPIO8_20*%
%TO.N,unconnected-(B2-GPIO8-Pad20)*%
X122800000Y-110770000D03*
%TO.P,B2,21,GPIO3_21*%
%TO.N,unconnected-(B2-GPIO3-Pad21)*%
X122800000Y-113310000D03*
%TO.P,B2,22,GPIO46_22*%
%TO.N,unconnected-(B2-GPIO46-Pad22)*%
X122800000Y-115850000D03*
%TO.P,B2,23,GPIO14_23*%
%TO.N,unconnected-(B2-GPIO14-Pad23)*%
X122800000Y-131090000D03*
%TO.P,B2,24,GPIO43_24*%
%TO.N,unconnected-(B2-GPIO43-Pad24)*%
X148200000Y-85370000D03*
%TO.P,B2,25,GPIO44_25*%
%TO.N,unconnected-(B2-GPIO44-Pad25)*%
X148200000Y-87910000D03*
%TO.P,B2,26,GPIO1_26*%
%TO.N,unconnected-(B2-GPIO1-Pad26)*%
X148200000Y-90450000D03*
%TO.P,B2,27,GPIO2_27*%
%TO.N,unconnected-(B2-GPIO2-Pad27)*%
X148200000Y-92990000D03*
%TO.P,B2,28,GPIO42_28*%
%TO.N,unconnected-(B2-GPIO42-Pad28)*%
X148200000Y-95530000D03*
%TO.P,B2,29,GPIO41_29*%
%TO.N,unconnected-(B2-GPIO41-Pad29)*%
X148200000Y-98070000D03*
%TO.P,B2,30,GPIO40_30*%
%TO.N,unconnected-(B2-GPIO40-Pad30)*%
X148200000Y-100610000D03*
%TO.P,B2,31,GPIO39_31*%
%TO.N,unconnected-(B2-GPIO39-Pad31)*%
X148200000Y-103150000D03*
%TO.P,B2,32,GPIO38_32*%
%TO.N,unconnected-(B2-GPIO38-Pad32)*%
X148200000Y-105690000D03*
%TO.P,B2,33,GPIO37_33*%
%TO.N,unconnected-(B2-GPIO37-Pad33)*%
X148200000Y-108230000D03*
%TO.P,B2,34,GPIO36_34*%
%TO.N,unconnected-(B2-GPIO36-Pad34)*%
X148200000Y-110770000D03*
%TO.P,B2,35,GPIO35_35*%
%TO.N,unconnected-(B2-GPIO35-Pad35)*%
X148200000Y-113310000D03*
%TO.P,B2,36,GPIO0_36*%
%TO.N,unconnected-(B2-GPIO0-Pad36)*%
X148200000Y-115850000D03*
%TO.P,B2,37,GPIO45_37*%
%TO.N,unconnected-(B2-GPIO45-Pad37)*%
X148200000Y-118390000D03*
%TO.P,B2,38,GPIO48_38*%
%TO.N,unconnected-(B2-GPIO48-Pad38)*%
X148200000Y-120930000D03*
%TO.P,B2,39,GPIO47_39*%
%TO.N,unconnected-(B2-GPIO47-Pad39)*%
X148200000Y-123470000D03*
%TO.P,B2,40,GPIO21_40*%
%TO.N,unconnected-(B2-GPIO21-Pad40)*%
X148200000Y-126010000D03*
%TO.P,B2,41,GPIO20_41*%
%TO.N,unconnected-(B2-GPIO20-Pad41)*%
X148200000Y-128550000D03*
%TO.P,B2,42,GPIO19_42*%
%TO.N,unconnected-(B2-GPIO19-Pad42)*%
X148200000Y-131090000D03*
%TO.P,B2,43,GND_43*%
%TO.N,GND*%
X148200000Y-133630000D03*
%TO.P,B2,44,GND_44*%
X148200000Y-136170000D03*
%TD*%
D10*
%TO.P,U2,1,VCC_3V3_1*%
%TO.N,+3V3_RAIL*%
X117094000Y-105714800D03*
D11*
%TO.P,U2,2,GND_2*%
%TO.N,GND*%
X117094000Y-103174800D03*
%TO.P,U2,3,RST_3*%
%TO.N,Net-(B2-GPIO17)*%
X117094000Y-100634800D03*
%TO.P,U2,4,CS_4*%
%TO.N,Net-(B2-GPIO7_CS_ETH)*%
X117094000Y-98094800D03*
%TO.P,U2,5,SCK_5*%
%TO.N,Net-(B2-GPIO6_SCK_ETH)*%
X117094000Y-95554800D03*
%TO.P,U2,6,MOSI_6*%
%TO.N,Net-(B2-GPIO4_MOSI_ETH)*%
X117094000Y-93014800D03*
%TO.P,U2,7,MISO_7*%
%TO.N,Net-(B2-GPIO5_MISO_ETH)*%
X117094000Y-90474800D03*
%TO.P,U2,8,INT_8*%
%TO.N,Net-(B2-GPIO9_INT_ETH)*%
X117094000Y-87934800D03*
%TD*%
D10*
%TO.P,J2,1,5V_IN_1*%
%TO.N,+5V_RAIL*%
X117094000Y-119075200D03*
D11*
%TO.P,J2,2,GND_IN_2*%
%TO.N,GND*%
X117094000Y-116535200D03*
%TD*%
D12*
%TO.P,J1,1,VBUS_1*%
%TO.N,+5V_RAIL*%
X125000000Y-136240000D03*
%TO.P,J1,3,3V3_OUT_3*%
%TO.N,unconnected-(J1-3V3_OUT-Pad3)*%
X125000000Y-131160000D03*
%TO.P,J1,4,GPIO1_B2_d_4*%
%TO.N,unconnected-(J1-GPIO1_B2_d-Pad4)*%
X125000000Y-128620000D03*
%TO.P,J1,5,GPIO1_B3_u_5*%
%TO.N,unconnected-(J1-GPIO1_B3_u-Pad5)*%
X125000000Y-126080000D03*
%TO.P,J1,6,GPIO1_C0_d_SPI0_CS0_6*%
%TO.N,Net-(B2-GPIO10_CS_LF)*%
X125000000Y-123540000D03*
%TO.P,J1,8,GPIO1_C2_d_SPI0_MOSI_8*%
%TO.N,Net-(B2-GPIO11_MOSI_LF)*%
X125000000Y-118460000D03*
%TO.P,J1,9,GPIO1_C3_d_SPI0_MISO_9*%
%TO.N,Net-(B2-GPIO13_MISO_LF)*%
X125000000Y-115920000D03*
%TO.P,J1,10,GPIO1_C4_d_DATA_RDY_10*%
%TO.N,Net-(B2-GPIO15_DATA_RDY_IN)*%
X125000000Y-113380000D03*
%TO.P,J1,11,GPIO1_C5_d_11*%
%TO.N,unconnected-(J1-GPIO1_C5_d-Pad11)*%
X125000000Y-110840000D03*
%TO.P,J1,12,GPIO1_D0_d_12*%
%TO.N,unconnected-(J1-GPIO1_D0_d-Pad12)*%
X146000000Y-110840000D03*
%TO.P,J1,13,GPIO1_D1_d_13*%
%TO.N,unconnected-(J1-GPIO1_D1_d-Pad13)*%
X146000000Y-113380000D03*
%TO.P,J1,14,GPIO1_D2_d_14*%
%TO.N,unconnected-(J1-GPIO1_D2_d-Pad14)*%
X146000000Y-115920000D03*
%TO.P,J1,15,GPIO1_D3_d_15*%
%TO.N,unconnected-(J1-GPIO1_D3_d-Pad15)*%
X146000000Y-118460000D03*
%TO.P,J1,16,GPIO1_C6_d_16*%
%TO.N,unconnected-(J1-GPIO1_C6_d-Pad16)*%
X146000000Y-121000000D03*
%TO.P,J1,17,GPIO1_C7_d_17*%
%TO.N,unconnected-(J1-GPIO1_C7_d-Pad17)*%
X146000000Y-123540000D03*
%TO.P,J1,18,GPIO0_A4_d_SLAVE_RDY_18*%
%TO.N,Net-(B2-GPIO16_SLAVE_RDY_OUT)*%
X146000000Y-126080000D03*
%TO.P,J1,19,GPIO4_C0_z_19*%
%TO.N,unconnected-(J1-GPIO4_C0_z-Pad19)*%
X146000000Y-128620000D03*
%TO.P,J1,20,GPIO4_C1_z_20*%
%TO.N,unconnected-(J1-GPIO4_C1_z-Pad20)*%
X146000000Y-131160000D03*
%TO.P,J1,22,1V8_OUT_22*%
%TO.N,unconnected-(J1-1V8_OUT-Pad22)*%
X146000000Y-136240000D03*
%TD*%
%TO.N,+5V_RAIL*%
D13*
X122800000Y-133630000D02*
X117094000Y-127924000D01*
X122800000Y-133630000D02*
X122911200Y-133630000D01*
X124723000Y-135441800D02*
X124723000Y-136239645D01*
X117094000Y-127924000D02*
X117094000Y-119075200D01*
X122911200Y-133630000D02*
X124723000Y-135441800D01*
%TO.N,+3V3_RAIL*%
X122800000Y-82830000D02*
X118033200Y-82830000D01*
X118033200Y-82830000D02*
X115062000Y-85801200D01*
X115062000Y-85801200D02*
X115062000Y-103682800D01*
X115062000Y-103682800D02*
X117094000Y-105714800D01*
%TO.N,Net-(B2-GPIO4_MOSI_ETH)*%
X119658800Y-90450000D02*
X117094000Y-93014800D01*
X122800000Y-90450000D02*
X119658800Y-90450000D01*
%TO.N,Net-(B2-GPIO6_SCK_ETH)*%
X122800000Y-95530000D02*
X117118800Y-95530000D01*
X117118800Y-95530000D02*
X117094000Y-95554800D01*
%TO.N,Net-(B2-GPIO7_CS_ETH)*%
X117118800Y-98070000D02*
X117094000Y-98094800D01*
X122800000Y-98070000D02*
X117118800Y-98070000D01*
%TO.N,Net-(B2-GPIO10_CS_LF)*%
X122800000Y-121162000D02*
X124723000Y-123085000D01*
X122800000Y-120930000D02*
X122800000Y-121162000D01*
X124723000Y-123085000D02*
X124723000Y-123540000D01*
%TO.N,Net-(B2-GPIO11_MOSI_LF)*%
X122800000Y-123470000D02*
X121431600Y-123470000D01*
X120796000Y-120394000D02*
X121505200Y-119684800D01*
X123901200Y-119684800D02*
X124723000Y-118863000D01*
X121505200Y-119684800D02*
X123901200Y-119684800D01*
X124723000Y-118863000D02*
X124723000Y-118460000D01*
X120796000Y-122834400D02*
X120796000Y-120394000D01*
X121431600Y-123470000D02*
X120796000Y-122834400D01*
%TO.N,Net-(B2-GPIO13_MISO_LF)*%
X121184000Y-128550000D02*
X122800000Y-128550000D01*
X124723000Y-116197000D02*
X124723000Y-115920000D01*
X120040400Y-118465600D02*
X120040400Y-127406400D01*
X121412000Y-117094000D02*
X123826000Y-117094000D01*
X121412000Y-117094000D02*
X120040400Y-118465600D01*
X120040400Y-127406400D02*
X121184000Y-128550000D01*
X123826000Y-117094000D02*
X124723000Y-116197000D01*
%TO.N,Net-(B2-GPIO15_DATA_RDY_IN)*%
X120751600Y-101193600D02*
X120751600Y-111455200D01*
X124723000Y-113103000D02*
X124723000Y-113380000D01*
X121361200Y-112064800D02*
X123684800Y-112064800D01*
X123684800Y-112064800D02*
X124723000Y-113103000D01*
X121361200Y-112064800D02*
X120751600Y-111455200D01*
X122800000Y-100610000D02*
X121335200Y-100610000D01*
X121335200Y-100610000D02*
X120751600Y-101193600D01*
%TO.N,Net-(B2-GPIO16_SLAVE_RDY_OUT)*%
X147224800Y-127304800D02*
X146277000Y-126357000D01*
X149902816Y-108081115D02*
X148806501Y-106984800D01*
X148806501Y-106984800D02*
X126634800Y-106984800D01*
X126634800Y-106984800D02*
X122800000Y-103150000D01*
X148777232Y-127304800D02*
X147224800Y-127304800D01*
X146277000Y-126357000D02*
X146277000Y-126080000D01*
X149902816Y-126179216D02*
X149902816Y-108081115D01*
X148777232Y-127304800D02*
X149902816Y-126179216D01*
%TD*%
%TA.AperFunction,Conductor*%
%TO.N,GND*%
G36*
X157942121Y-75020002D02*
G01*
X157988614Y-75073658D01*
X158000000Y-75126000D01*
X158000000Y-138050000D01*
X157979998Y-138118121D01*
X157926342Y-138164614D01*
X157874000Y-138176000D01*
X146276000Y-138176000D01*
X146207879Y-138155998D01*
X146161386Y-138102342D01*
X146150000Y-138050000D01*
X146150000Y-137774500D01*
X146170002Y-137706379D01*
X146223658Y-137659886D01*
X146276000Y-137648500D01*
X146748632Y-137648500D01*
X146748638Y-137648500D01*
X146748645Y-137648499D01*
X146748649Y-137648499D01*
X146809196Y-137641990D01*
X146809199Y-137641989D01*
X146809201Y-137641989D01*
X146946204Y-137590889D01*
X147063261Y-137503261D01*
X147150889Y-137386204D01*
X147201989Y-137249201D01*
X147202081Y-137248352D01*
X147208499Y-137188649D01*
X147208500Y-137188632D01*
X147208500Y-136860137D01*
X147228502Y-136792016D01*
X147245405Y-136771042D01*
X147717037Y-136299409D01*
X147734075Y-136362993D01*
X147799901Y-136477007D01*
X147892993Y-136570099D01*
X148007007Y-136635925D01*
X148070590Y-136652962D01*
X147592204Y-137131347D01*
X147592204Y-137131348D01*
X147605124Y-137140735D01*
X147764314Y-137221847D01*
X147934215Y-137277051D01*
X148110676Y-137305000D01*
X148289324Y-137305000D01*
X148465784Y-137277051D01*
X148635685Y-137221847D01*
X148794873Y-137140736D01*
X148807794Y-137131348D01*
X148329409Y-136652962D01*
X148392993Y-136635925D01*
X148507007Y-136570099D01*
X148600099Y-136477007D01*
X148665925Y-136362993D01*
X148682962Y-136299408D01*
X149161348Y-136777794D01*
X149170736Y-136764873D01*
X149251847Y-136605685D01*
X149307051Y-136435784D01*
X149335000Y-136259323D01*
X149335000Y-136080676D01*
X149307051Y-135904215D01*
X149251847Y-135734314D01*
X149170735Y-135575124D01*
X149161348Y-135562204D01*
X149161347Y-135562204D01*
X148682962Y-136040589D01*
X148665925Y-135977007D01*
X148600099Y-135862993D01*
X148507007Y-135769901D01*
X148392993Y-135704075D01*
X148329409Y-135687037D01*
X148807795Y-135208651D01*
X148794872Y-135199263D01*
X148794867Y-135199259D01*
X148635685Y-135118152D01*
X148465784Y-135062948D01*
X148289324Y-135035000D01*
X148110676Y-135035000D01*
X147934215Y-135062948D01*
X147764314Y-135118152D01*
X147605127Y-135199262D01*
X147592203Y-135208650D01*
X148070591Y-135687037D01*
X148007007Y-135704075D01*
X147892993Y-135769901D01*
X147799901Y-135862993D01*
X147734075Y-135977007D01*
X147717037Y-136040590D01*
X147245404Y-135568957D01*
X147230852Y-135542307D01*
X147214092Y-135516984D01*
X147212974Y-135509567D01*
X147211379Y-135506645D01*
X147208511Y-135481557D01*
X147208500Y-135480739D01*
X147208500Y-135291362D01*
X147205587Y-135264263D01*
X147201990Y-135230803D01*
X147201988Y-135230795D01*
X147150889Y-135093797D01*
X147150887Y-135093792D01*
X147063261Y-134976738D01*
X146946207Y-134889112D01*
X146946202Y-134889110D01*
X146809204Y-134838011D01*
X146809196Y-134838009D01*
X146748649Y-134831500D01*
X146748638Y-134831500D01*
X146276000Y-134831500D01*
X146207879Y-134811498D01*
X146161386Y-134757842D01*
X146150000Y-134705500D01*
X146150000Y-133540676D01*
X147065000Y-133540676D01*
X147065000Y-133719323D01*
X147092948Y-133895784D01*
X147148152Y-134065685D01*
X147229259Y-134224867D01*
X147229263Y-134224872D01*
X147238651Y-134237795D01*
X147717037Y-133759409D01*
X147734075Y-133822993D01*
X147799901Y-133937007D01*
X147892993Y-134030099D01*
X148007007Y-134095925D01*
X148070590Y-134112962D01*
X147592204Y-134591347D01*
X147592204Y-134591348D01*
X147605124Y-134600735D01*
X147764314Y-134681847D01*
X147934215Y-134737051D01*
X148110676Y-134765000D01*
X148289324Y-134765000D01*
X148465784Y-134737051D01*
X148635685Y-134681847D01*
X148794873Y-134600736D01*
X148807794Y-134591348D01*
X148329409Y-134112962D01*
X148392993Y-134095925D01*
X148507007Y-134030099D01*
X148600099Y-133937007D01*
X148665925Y-133822993D01*
X148682962Y-133759408D01*
X149161348Y-134237794D01*
X149170736Y-134224873D01*
X149194258Y-134178709D01*
X152149500Y-134178709D01*
X152149500Y-134421290D01*
X152181160Y-134661782D01*
X152243944Y-134896095D01*
X152243945Y-134896097D01*
X152243946Y-134896100D01*
X152336776Y-135120212D01*
X152336777Y-135120213D01*
X152336782Y-135120224D01*
X152458061Y-135330285D01*
X152458063Y-135330288D01*
X152458064Y-135330289D01*
X152605735Y-135522738D01*
X152605739Y-135522742D01*
X152605744Y-135522748D01*
X152777251Y-135694255D01*
X152777256Y-135694259D01*
X152777262Y-135694265D01*
X152936492Y-135816446D01*
X152969714Y-135841938D01*
X153179775Y-135963217D01*
X153179779Y-135963218D01*
X153179788Y-135963224D01*
X153403900Y-136056054D01*
X153638211Y-136118838D01*
X153638215Y-136118838D01*
X153638217Y-136118839D01*
X153700202Y-136126999D01*
X153878712Y-136150500D01*
X153878719Y-136150500D01*
X154121281Y-136150500D01*
X154121288Y-136150500D01*
X154338637Y-136121885D01*
X154361782Y-136118839D01*
X154361782Y-136118838D01*
X154361789Y-136118838D01*
X154596100Y-136056054D01*
X154820212Y-135963224D01*
X155030289Y-135841936D01*
X155222738Y-135694265D01*
X155394265Y-135522738D01*
X155541936Y-135330289D01*
X155663224Y-135120212D01*
X155756054Y-134896100D01*
X155818838Y-134661789D01*
X155850500Y-134421288D01*
X155850500Y-134178712D01*
X155818838Y-133938211D01*
X155756054Y-133703900D01*
X155663224Y-133479788D01*
X155663218Y-133479779D01*
X155663217Y-133479775D01*
X155541938Y-133269714D01*
X155541936Y-133269711D01*
X155394265Y-133077262D01*
X155394259Y-133077256D01*
X155394255Y-133077251D01*
X155222748Y-132905744D01*
X155222742Y-132905739D01*
X155222738Y-132905735D01*
X155030289Y-132758064D01*
X155030288Y-132758063D01*
X155030285Y-132758061D01*
X154820224Y-132636782D01*
X154820216Y-132636778D01*
X154820212Y-132636776D01*
X154596100Y-132543946D01*
X154596097Y-132543945D01*
X154596095Y-132543944D01*
X154361782Y-132481160D01*
X154121290Y-132449500D01*
X154121288Y-132449500D01*
X153878712Y-132449500D01*
X153878709Y-132449500D01*
X153638217Y-132481160D01*
X153403904Y-132543944D01*
X153403900Y-132543946D01*
X153181259Y-132636167D01*
X153179786Y-132636777D01*
X153179775Y-132636782D01*
X152969714Y-132758061D01*
X152777262Y-132905735D01*
X152777251Y-132905744D01*
X152605744Y-133077251D01*
X152605735Y-133077262D01*
X152458061Y-133269714D01*
X152336782Y-133479775D01*
X152336777Y-133479786D01*
X152336776Y-133479788D01*
X152301822Y-133564174D01*
X152243946Y-133703900D01*
X152243944Y-133703904D01*
X152181160Y-133938217D01*
X152149500Y-134178709D01*
X149194258Y-134178709D01*
X149225505Y-134117384D01*
X149225506Y-134117382D01*
X149251845Y-134065689D01*
X149251846Y-134065686D01*
X149307051Y-133895784D01*
X149335000Y-133719323D01*
X149335000Y-133540676D01*
X149307051Y-133364215D01*
X149251847Y-133194314D01*
X149170735Y-133035124D01*
X149161348Y-133022204D01*
X149161347Y-133022204D01*
X148682962Y-133500589D01*
X148665925Y-133437007D01*
X148600099Y-133322993D01*
X148507007Y-133229901D01*
X148392993Y-133164075D01*
X148329409Y-133147037D01*
X148807795Y-132668651D01*
X148794872Y-132659263D01*
X148794867Y-132659259D01*
X148635685Y-132578152D01*
X148465784Y-132522948D01*
X148289324Y-132495000D01*
X148110676Y-132495000D01*
X147934215Y-132522948D01*
X147764314Y-132578152D01*
X147605127Y-132659262D01*
X147592203Y-132668650D01*
X148070591Y-133147037D01*
X148007007Y-133164075D01*
X147892993Y-133229901D01*
X147799901Y-133322993D01*
X147734075Y-133437007D01*
X147717037Y-133500590D01*
X147238650Y-133022203D01*
X147229262Y-133035127D01*
X147148152Y-133194314D01*
X147092948Y-133364215D01*
X147065000Y-133540676D01*
X146150000Y-133540676D01*
X146150000Y-132694500D01*
X146170002Y-132626379D01*
X146223658Y-132579886D01*
X146276000Y-132568500D01*
X146748632Y-132568500D01*
X146748638Y-132568500D01*
X146748645Y-132568499D01*
X146748649Y-132568499D01*
X146809196Y-132561990D01*
X146809199Y-132561989D01*
X146809201Y-132561989D01*
X146946204Y-132510889D01*
X147063261Y-132423261D01*
X147150889Y-132306204D01*
X147201989Y-132169201D01*
X147204084Y-132149721D01*
X147208499Y-132108649D01*
X147208500Y-132108632D01*
X147208500Y-132019844D01*
X147228502Y-131951723D01*
X147282158Y-131905230D01*
X147352432Y-131895126D01*
X147417012Y-131924620D01*
X147423595Y-131930749D01*
X147455057Y-131962211D01*
X147455060Y-131962213D01*
X147600675Y-132068009D01*
X147761048Y-132149723D01*
X147932224Y-132205341D01*
X147932225Y-132205341D01*
X147932230Y-132205343D01*
X148110005Y-132233500D01*
X148110008Y-132233500D01*
X148289992Y-132233500D01*
X148289995Y-132233500D01*
X148467770Y-132205343D01*
X148638952Y-132149723D01*
X148799325Y-132068009D01*
X148944940Y-131962213D01*
X149072213Y-131834940D01*
X149178009Y-131689325D01*
X149259723Y-131528952D01*
X149315343Y-131357770D01*
X149343500Y-131179995D01*
X149343500Y-131000005D01*
X149315343Y-130822230D01*
X149259723Y-130651048D01*
X149178009Y-130490675D01*
X149072213Y-130345060D01*
X149072211Y-130345057D01*
X148944942Y-130217788D01*
X148799328Y-130111993D01*
X148799327Y-130111992D01*
X148799325Y-130111991D01*
X148638952Y-130030277D01*
X148638949Y-130030276D01*
X148638947Y-130030275D01*
X148467773Y-129974658D01*
X148467777Y-129974658D01*
X148434677Y-129969415D01*
X148289995Y-129946500D01*
X148110005Y-129946500D01*
X147932230Y-129974657D01*
X147932224Y-129974658D01*
X147761052Y-130030275D01*
X147761046Y-130030278D01*
X147600671Y-130111993D01*
X147455059Y-130217787D01*
X147419279Y-130253567D01*
X147356967Y-130287591D01*
X147286151Y-130282525D01*
X147229316Y-130239978D01*
X147204907Y-130177937D01*
X147201990Y-130150803D01*
X147201988Y-130150795D01*
X147172924Y-130072875D01*
X147150889Y-130013796D01*
X147114741Y-129965508D01*
X147089931Y-129898989D01*
X147105022Y-129829615D01*
X147114742Y-129814490D01*
X147150889Y-129766204D01*
X147197641Y-129640858D01*
X147201988Y-129629204D01*
X147201990Y-129629196D01*
X147208499Y-129568649D01*
X147208500Y-129568632D01*
X147208500Y-129479844D01*
X147228502Y-129411723D01*
X147282158Y-129365230D01*
X147352432Y-129355126D01*
X147417012Y-129384620D01*
X147423595Y-129390749D01*
X147455057Y-129422211D01*
X147467435Y-129431204D01*
X147600675Y-129528009D01*
X147761048Y-129609723D01*
X147932224Y-129665341D01*
X147932225Y-129665341D01*
X147932230Y-129665343D01*
X148110005Y-129693500D01*
X148110008Y-129693500D01*
X148289992Y-129693500D01*
X148289995Y-129693500D01*
X148467770Y-129665343D01*
X148638952Y-129609723D01*
X148799325Y-129528009D01*
X148944940Y-129422213D01*
X149072213Y-129294940D01*
X149178009Y-129149325D01*
X149259723Y-128988952D01*
X149315343Y-128817770D01*
X149343500Y-128639995D01*
X149343500Y-128460005D01*
X149315343Y-128282230D01*
X149259723Y-128111048D01*
X149180618Y-127955796D01*
X149167515Y-127886022D01*
X149194215Y-127820237D01*
X149203791Y-127809501D01*
X149787088Y-127226204D01*
X150414307Y-126598985D01*
X150486371Y-126491133D01*
X150536010Y-126371293D01*
X150561316Y-126244073D01*
X150561316Y-108016258D01*
X150545318Y-107935831D01*
X150536011Y-107889038D01*
X150500910Y-107804298D01*
X150500910Y-107804297D01*
X150500910Y-107804296D01*
X150486372Y-107769200D01*
X150457505Y-107725997D01*
X150457505Y-107725996D01*
X150443106Y-107704447D01*
X150414307Y-107661346D01*
X149226270Y-106473309D01*
X149212754Y-106464278D01*
X149167227Y-106409802D01*
X149158380Y-106339359D01*
X149177178Y-106294625D01*
X149175421Y-106293549D01*
X149178004Y-106289332D01*
X149178004Y-106289331D01*
X149178009Y-106289325D01*
X149259723Y-106128952D01*
X149315343Y-105957770D01*
X149343500Y-105779995D01*
X149343500Y-105600005D01*
X149315343Y-105422230D01*
X149259723Y-105251048D01*
X149178009Y-105090675D01*
X149072213Y-104945060D01*
X149072211Y-104945057D01*
X148944942Y-104817788D01*
X148799328Y-104711993D01*
X148799327Y-104711992D01*
X148799325Y-104711991D01*
X148638952Y-104630277D01*
X148638949Y-104630276D01*
X148638947Y-104630275D01*
X148467773Y-104574658D01*
X148467777Y-104574658D01*
X148434677Y-104569415D01*
X148289995Y-104546500D01*
X148110005Y-104546500D01*
X147932230Y-104574657D01*
X147932224Y-104574658D01*
X147761052Y-104630275D01*
X147761046Y-104630278D01*
X147600671Y-104711993D01*
X147455057Y-104817788D01*
X147327788Y-104945057D01*
X147221993Y-105090671D01*
X147140278Y-105251046D01*
X147140275Y-105251052D01*
X147084658Y-105422224D01*
X147084657Y-105422229D01*
X147084657Y-105422230D01*
X147056500Y-105600005D01*
X147056500Y-105779995D01*
X147084657Y-105957770D01*
X147084658Y-105957775D01*
X147140275Y-106128947D01*
X147140280Y-106128958D01*
X147147484Y-106143096D01*
X147160589Y-106212873D01*
X147133890Y-106278658D01*
X147075863Y-106319564D01*
X147035218Y-106326300D01*
X126959750Y-106326300D01*
X126891629Y-106306298D01*
X126870655Y-106289395D01*
X123980405Y-103399145D01*
X123946379Y-103336833D01*
X123943500Y-103310050D01*
X123943500Y-103060005D01*
X147056500Y-103060005D01*
X147056500Y-103239995D01*
X147081707Y-103399145D01*
X147084658Y-103417775D01*
X147135711Y-103574899D01*
X147140277Y-103588952D01*
X147221143Y-103747660D01*
X147221993Y-103749328D01*
X147327788Y-103894942D01*
X147455057Y-104022211D01*
X147455060Y-104022213D01*
X147600675Y-104128009D01*
X147761048Y-104209723D01*
X147932224Y-104265341D01*
X147932225Y-104265341D01*
X147932230Y-104265343D01*
X148110005Y-104293500D01*
X148110008Y-104293500D01*
X148289992Y-104293500D01*
X148289995Y-104293500D01*
X148467770Y-104265343D01*
X148638952Y-104209723D01*
X148799325Y-104128009D01*
X148944940Y-104022213D01*
X149072213Y-103894940D01*
X149178009Y-103749325D01*
X149259723Y-103588952D01*
X149315343Y-103417770D01*
X149343500Y-103239995D01*
X149343500Y-103060005D01*
X149315343Y-102882230D01*
X149259723Y-102711048D01*
X149178009Y-102550675D01*
X149072213Y-102405060D01*
X149072211Y-102405057D01*
X148944942Y-102277788D01*
X148799328Y-102171993D01*
X148799327Y-102171992D01*
X148799325Y-102171991D01*
X148638952Y-102090277D01*
X148638949Y-102090276D01*
X148638947Y-102090275D01*
X148467773Y-102034658D01*
X148467777Y-102034658D01*
X148434677Y-102029415D01*
X148289995Y-102006500D01*
X148110005Y-102006500D01*
X147932230Y-102034657D01*
X147932224Y-102034658D01*
X147761052Y-102090275D01*
X147761046Y-102090278D01*
X147600671Y-102171993D01*
X147455057Y-102277788D01*
X147327788Y-102405057D01*
X147221993Y-102550671D01*
X147140278Y-102711046D01*
X147140275Y-102711052D01*
X147084658Y-102882224D01*
X147084657Y-102882229D01*
X147084657Y-102882230D01*
X147056500Y-103060005D01*
X123943500Y-103060005D01*
X123943500Y-102466367D01*
X123943499Y-102466350D01*
X123936990Y-102405803D01*
X123936988Y-102405795D01*
X123889243Y-102277788D01*
X123885889Y-102268796D01*
X123885888Y-102268794D01*
X123885887Y-102268792D01*
X123798261Y-102151738D01*
X123681207Y-102064112D01*
X123681202Y-102064110D01*
X123544204Y-102013011D01*
X123544196Y-102013009D01*
X123483649Y-102006500D01*
X123483638Y-102006500D01*
X122116362Y-102006500D01*
X122116350Y-102006500D01*
X122055803Y-102013009D01*
X122055795Y-102013011D01*
X121918797Y-102064110D01*
X121918792Y-102064112D01*
X121801738Y-102151738D01*
X121714112Y-102268792D01*
X121714110Y-102268797D01*
X121663011Y-102405795D01*
X121663009Y-102405803D01*
X121661378Y-102420983D01*
X121634209Y-102486576D01*
X121575891Y-102527067D01*
X121504940Y-102529601D01*
X121443882Y-102493374D01*
X121412102Y-102429887D01*
X121410100Y-102407515D01*
X121410100Y-101518550D01*
X121430102Y-101450429D01*
X121446998Y-101429461D01*
X121486141Y-101390318D01*
X121548449Y-101356295D01*
X121619265Y-101361359D01*
X121676101Y-101403905D01*
X121693289Y-101435380D01*
X121707201Y-101472678D01*
X121714110Y-101491202D01*
X121714112Y-101491206D01*
X121714112Y-101491207D01*
X121801738Y-101608261D01*
X121918792Y-101695887D01*
X121918794Y-101695888D01*
X121918796Y-101695889D01*
X121977875Y-101717924D01*
X122055795Y-101746988D01*
X122055803Y-101746990D01*
X122116350Y-101753499D01*
X122116355Y-101753499D01*
X122116362Y-101753500D01*
X122116368Y-101753500D01*
X123483632Y-101753500D01*
X123483638Y-101753500D01*
X123483645Y-101753499D01*
X123483649Y-101753499D01*
X123544196Y-101746990D01*
X123544199Y-101746989D01*
X123544201Y-101746989D01*
X123681204Y-101695889D01*
X123683028Y-101694524D01*
X123798261Y-101608261D01*
X123885887Y-101491207D01*
X123885887Y-101491206D01*
X123885889Y-101491204D01*
X123936989Y-101354201D01*
X123943500Y-101293638D01*
X123943500Y-100520005D01*
X147056500Y-100520005D01*
X147056500Y-100699995D01*
X147083998Y-100873611D01*
X147084658Y-100877775D01*
X147124865Y-101001519D01*
X147140277Y-101048952D01*
X147221991Y-101209325D01*
X147221993Y-101209328D01*
X147327788Y-101354942D01*
X147455057Y-101482211D01*
X147455060Y-101482213D01*
X147600675Y-101588009D01*
X147761048Y-101669723D01*
X147932224Y-101725341D01*
X147932225Y-101725341D01*
X147932230Y-101725343D01*
X148110005Y-101753500D01*
X148110008Y-101753500D01*
X148289992Y-101753500D01*
X148289995Y-101753500D01*
X148467770Y-101725343D01*
X148638952Y-101669723D01*
X148799325Y-101588009D01*
X148944940Y-101482213D01*
X149072213Y-101354940D01*
X149178009Y-101209325D01*
X149259723Y-101048952D01*
X149315343Y-100877770D01*
X149343500Y-100699995D01*
X149343500Y-100520005D01*
X149315343Y-100342230D01*
X149259723Y-100171048D01*
X149178009Y-100010675D01*
X149072213Y-99865060D01*
X149072211Y-99865057D01*
X148944942Y-99737788D01*
X148799328Y-99631993D01*
X148799327Y-99631992D01*
X148799325Y-99631991D01*
X148638952Y-99550277D01*
X148638949Y-99550276D01*
X148638947Y-99550275D01*
X148467773Y-99494658D01*
X148467777Y-99494658D01*
X148434677Y-99489415D01*
X148289995Y-99466500D01*
X148110005Y-99466500D01*
X147932230Y-99494657D01*
X147932224Y-99494658D01*
X147761052Y-99550275D01*
X147761046Y-99550278D01*
X147600671Y-99631993D01*
X147455057Y-99737788D01*
X147327788Y-99865057D01*
X147221993Y-100010671D01*
X147140278Y-100171046D01*
X147140275Y-100171052D01*
X147084658Y-100342224D01*
X147084657Y-100342229D01*
X147084657Y-100342230D01*
X147056500Y-100520005D01*
X123943500Y-100520005D01*
X123943500Y-99926362D01*
X123939576Y-99889860D01*
X123936990Y-99865803D01*
X123936988Y-99865795D01*
X123898493Y-99762588D01*
X123885889Y-99728796D01*
X123885888Y-99728794D01*
X123885887Y-99728792D01*
X123798261Y-99611738D01*
X123681207Y-99524112D01*
X123681202Y-99524110D01*
X123544204Y-99473011D01*
X123544196Y-99473009D01*
X123483649Y-99466500D01*
X123483638Y-99466500D01*
X122116362Y-99466500D01*
X122116350Y-99466500D01*
X122055803Y-99473009D01*
X122055795Y-99473011D01*
X121918797Y-99524110D01*
X121918792Y-99524112D01*
X121801738Y-99611738D01*
X121714112Y-99728792D01*
X121714110Y-99728796D01*
X121661618Y-99869533D01*
X121619072Y-99926369D01*
X121552551Y-99951179D01*
X121543563Y-99951500D01*
X121270339Y-99951500D01*
X121143122Y-99976806D01*
X121143119Y-99976807D01*
X121023282Y-100026445D01*
X120915432Y-100098508D01*
X120915431Y-100098509D01*
X120240107Y-100773832D01*
X120240106Y-100773834D01*
X120221237Y-100802075D01*
X120221236Y-100802077D01*
X120168045Y-100881682D01*
X120118407Y-101001519D01*
X120118406Y-101001522D01*
X120093100Y-101128739D01*
X120093100Y-111520060D01*
X120104054Y-111575126D01*
X120118406Y-111647277D01*
X120168045Y-111767117D01*
X120240109Y-111874969D01*
X120941431Y-112576291D01*
X121049283Y-112648355D01*
X121169123Y-112697995D01*
X121169127Y-112697995D01*
X121169128Y-112697996D01*
X121169129Y-112697997D01*
X121275235Y-112719101D01*
X121275241Y-112719102D01*
X121296343Y-112723300D01*
X121296344Y-112723300D01*
X121426057Y-112723300D01*
X121614860Y-112723300D01*
X121682981Y-112743302D01*
X121729474Y-112796958D01*
X121739578Y-112867232D01*
X121734695Y-112888226D01*
X121684657Y-113042230D01*
X121656500Y-113220005D01*
X121656500Y-113399995D01*
X121684657Y-113577770D01*
X121684658Y-113577775D01*
X121740275Y-113748947D01*
X121740277Y-113748952D01*
X121808500Y-113882847D01*
X121821993Y-113909328D01*
X121927788Y-114054942D01*
X122055057Y-114182211D01*
X122055060Y-114182213D01*
X122200675Y-114288009D01*
X122361048Y-114369723D01*
X122532224Y-114425341D01*
X122532225Y-114425341D01*
X122532230Y-114425343D01*
X122710005Y-114453500D01*
X122710008Y-114453500D01*
X122889992Y-114453500D01*
X122889995Y-114453500D01*
X123067770Y-114425343D01*
X123238952Y-114369723D01*
X123399325Y-114288009D01*
X123544940Y-114182213D01*
X123555430Y-114171723D01*
X123576405Y-114150749D01*
X123638717Y-114116723D01*
X123709532Y-114121788D01*
X123766368Y-114164335D01*
X123791179Y-114230855D01*
X123791500Y-114239844D01*
X123791500Y-114328649D01*
X123798009Y-114389196D01*
X123798011Y-114389204D01*
X123849110Y-114526202D01*
X123849112Y-114526206D01*
X123885258Y-114574492D01*
X123910068Y-114641012D01*
X123894976Y-114710386D01*
X123885258Y-114725508D01*
X123849112Y-114773793D01*
X123849110Y-114773797D01*
X123798011Y-114910795D01*
X123798010Y-114910802D01*
X123795092Y-114937941D01*
X123767922Y-115003533D01*
X123709603Y-115044023D01*
X123638651Y-115046556D01*
X123580719Y-115013565D01*
X123544942Y-114977788D01*
X123399328Y-114871993D01*
X123399327Y-114871992D01*
X123399325Y-114871991D01*
X123238952Y-114790277D01*
X123238949Y-114790276D01*
X123238947Y-114790275D01*
X123067773Y-114734658D01*
X123067777Y-114734658D01*
X123034677Y-114729415D01*
X122889995Y-114706500D01*
X122710005Y-114706500D01*
X122532230Y-114734657D01*
X122532224Y-114734658D01*
X122361052Y-114790275D01*
X122361046Y-114790278D01*
X122200671Y-114871993D01*
X122055057Y-114977788D01*
X121927788Y-115105057D01*
X121821993Y-115250671D01*
X121740278Y-115411046D01*
X121740275Y-115411052D01*
X121684658Y-115582224D01*
X121684657Y-115582229D01*
X121684657Y-115582230D01*
X121656500Y-115760005D01*
X121656500Y-115939995D01*
X121676976Y-116069275D01*
X121684658Y-116117775D01*
X121690288Y-116135101D01*
X121734303Y-116270565D01*
X121736331Y-116341531D01*
X121699668Y-116402329D01*
X121635956Y-116433655D01*
X121614470Y-116435500D01*
X121347139Y-116435500D01*
X121219922Y-116460806D01*
X121219919Y-116460807D01*
X121100083Y-116510445D01*
X120992231Y-116582509D01*
X120992225Y-116582514D01*
X119528911Y-118045828D01*
X119528906Y-118045835D01*
X119477861Y-118122228D01*
X119477862Y-118122229D01*
X119456844Y-118153684D01*
X119407207Y-118273519D01*
X119407206Y-118273522D01*
X119381900Y-118400739D01*
X119381900Y-127471260D01*
X119397909Y-127551738D01*
X119407206Y-127598477D01*
X119456845Y-127718317D01*
X119528909Y-127826169D01*
X120764231Y-129061491D01*
X120872083Y-129133555D01*
X120991923Y-129183195D01*
X120991927Y-129183195D01*
X120991928Y-129183196D01*
X120991929Y-129183197D01*
X121098035Y-129204301D01*
X121098041Y-129204302D01*
X121119143Y-129208500D01*
X121119144Y-129208500D01*
X121248857Y-129208500D01*
X121543563Y-129208500D01*
X121611684Y-129228502D01*
X121658177Y-129282158D01*
X121661618Y-129290467D01*
X121714110Y-129431203D01*
X121714112Y-129431207D01*
X121801738Y-129548261D01*
X121918792Y-129635887D01*
X121918794Y-129635888D01*
X121918796Y-129635889D01*
X121977875Y-129657924D01*
X122055795Y-129686988D01*
X122055803Y-129686990D01*
X122116350Y-129693499D01*
X122116355Y-129693499D01*
X122116362Y-129693500D01*
X122116368Y-129693500D01*
X123483632Y-129693500D01*
X123483638Y-129693500D01*
X123483645Y-129693499D01*
X123483649Y-129693499D01*
X123544196Y-129686990D01*
X123544199Y-129686989D01*
X123544201Y-129686989D01*
X123667882Y-129640857D01*
X123738694Y-129635792D01*
X123801006Y-129669816D01*
X123829967Y-129714879D01*
X123849111Y-129766204D01*
X123849112Y-129766206D01*
X123885258Y-129814492D01*
X123910068Y-129881012D01*
X123894976Y-129950386D01*
X123885258Y-129965508D01*
X123849112Y-130013793D01*
X123849110Y-130013797D01*
X123798011Y-130150795D01*
X123798010Y-130150802D01*
X123795092Y-130177941D01*
X123767922Y-130243533D01*
X123709603Y-130284023D01*
X123638651Y-130286556D01*
X123580719Y-130253565D01*
X123544942Y-130217788D01*
X123399328Y-130111993D01*
X123399327Y-130111992D01*
X123399325Y-130111991D01*
X123238952Y-130030277D01*
X123238949Y-130030276D01*
X123238947Y-130030275D01*
X123067773Y-129974658D01*
X123067777Y-129974658D01*
X123034677Y-129969415D01*
X122889995Y-129946500D01*
X122710005Y-129946500D01*
X122532230Y-129974657D01*
X122532224Y-129974658D01*
X122361052Y-130030275D01*
X122361046Y-130030278D01*
X122200671Y-130111993D01*
X122055057Y-130217788D01*
X121927788Y-130345057D01*
X121821993Y-130490671D01*
X121740278Y-130651046D01*
X121740275Y-130651052D01*
X121684658Y-130822224D01*
X121684657Y-130822229D01*
X121684657Y-130822230D01*
X121656500Y-131000005D01*
X121656500Y-131179995D01*
X121666455Y-131242845D01*
X121657355Y-131313256D01*
X121611633Y-131367570D01*
X121543805Y-131388543D01*
X121475406Y-131369516D01*
X121452911Y-131351651D01*
X117789405Y-127688145D01*
X117755379Y-127625833D01*
X117752500Y-127599050D01*
X117752500Y-120331637D01*
X117772502Y-120263516D01*
X117826158Y-120217023D01*
X117834467Y-120213582D01*
X117930695Y-120177690D01*
X117975204Y-120161089D01*
X118000615Y-120142067D01*
X118092261Y-120073461D01*
X118179887Y-119956407D01*
X118179887Y-119956406D01*
X118179889Y-119956404D01*
X118230989Y-119819401D01*
X118231905Y-119810889D01*
X118237499Y-119758849D01*
X118237500Y-119758832D01*
X118237500Y-118391567D01*
X118237499Y-118391550D01*
X118230990Y-118331003D01*
X118230988Y-118330995D01*
X118179889Y-118193997D01*
X118179887Y-118193992D01*
X118092261Y-118076938D01*
X117975207Y-117989312D01*
X117975202Y-117989310D01*
X117838204Y-117938211D01*
X117838196Y-117938209D01*
X117777649Y-117931700D01*
X117777638Y-117931700D01*
X116410362Y-117931700D01*
X116410350Y-117931700D01*
X116349803Y-117938209D01*
X116349795Y-117938211D01*
X116212797Y-117989310D01*
X116212792Y-117989312D01*
X116095738Y-118076938D01*
X116008112Y-118193992D01*
X116008110Y-118193997D01*
X115957011Y-118330995D01*
X115957009Y-118331003D01*
X115950500Y-118391550D01*
X115950500Y-119758849D01*
X115957009Y-119819396D01*
X115957011Y-119819404D01*
X116008110Y-119956402D01*
X116008112Y-119956407D01*
X116095738Y-120073461D01*
X116212792Y-120161087D01*
X116212796Y-120161089D01*
X116353533Y-120213582D01*
X116410369Y-120256128D01*
X116435179Y-120322649D01*
X116435500Y-120331637D01*
X116435500Y-127988860D01*
X116459805Y-128111046D01*
X116460806Y-128116077D01*
X116510445Y-128235917D01*
X116582509Y-128343769D01*
X116582513Y-128343773D01*
X121619595Y-133380855D01*
X121653621Y-133443167D01*
X121656500Y-133469950D01*
X121656500Y-134313649D01*
X121663009Y-134374196D01*
X121663011Y-134374204D01*
X121714110Y-134511202D01*
X121714112Y-134511207D01*
X121801738Y-134628261D01*
X121918792Y-134715887D01*
X121918794Y-134715888D01*
X121918796Y-134715889D01*
X121975533Y-134737051D01*
X122055795Y-134766988D01*
X122055803Y-134766990D01*
X122116350Y-134773499D01*
X122116355Y-134773499D01*
X122116362Y-134773500D01*
X123071250Y-134773500D01*
X123139371Y-134793502D01*
X123160345Y-134810405D01*
X123169845Y-134819905D01*
X123203871Y-134882217D01*
X123198806Y-134953032D01*
X123156259Y-135009868D01*
X123089739Y-135034679D01*
X123080750Y-135035000D01*
X123050000Y-135035000D01*
X123050000Y-135736988D01*
X122992993Y-135704075D01*
X122865826Y-135670000D01*
X122734174Y-135670000D01*
X122607007Y-135704075D01*
X122550000Y-135736988D01*
X122550000Y-135035000D01*
X122117159Y-135035000D01*
X122057628Y-135041400D01*
X121922910Y-135091647D01*
X121807810Y-135177810D01*
X121721647Y-135292910D01*
X121671400Y-135427628D01*
X121665000Y-135487159D01*
X121665000Y-135920000D01*
X122366988Y-135920000D01*
X122334075Y-135977007D01*
X122300000Y-136104174D01*
X122300000Y-136235826D01*
X122334075Y-136362993D01*
X122366988Y-136420000D01*
X121665000Y-136420000D01*
X121665000Y-136852840D01*
X121671400Y-136912371D01*
X121721647Y-137047089D01*
X121807810Y-137162189D01*
X121922910Y-137248352D01*
X122057628Y-137298599D01*
X122117159Y-137304999D01*
X122117176Y-137305000D01*
X122550000Y-137305000D01*
X122550000Y-136603012D01*
X122607007Y-136635925D01*
X122734174Y-136670000D01*
X122865826Y-136670000D01*
X122992993Y-136635925D01*
X123050000Y-136603012D01*
X123050000Y-137305000D01*
X123482824Y-137305000D01*
X123482840Y-137304999D01*
X123542374Y-137298598D01*
X123664909Y-137252895D01*
X123735725Y-137247829D01*
X123798037Y-137281854D01*
X123826997Y-137326916D01*
X123849111Y-137386204D01*
X123849112Y-137386207D01*
X123936738Y-137503261D01*
X124053792Y-137590887D01*
X124053794Y-137590888D01*
X124053796Y-137590889D01*
X124112875Y-137612924D01*
X124190795Y-137641988D01*
X124190803Y-137641990D01*
X124251350Y-137648499D01*
X124251355Y-137648499D01*
X124251362Y-137648500D01*
X124251368Y-137648500D01*
X124722300Y-137648500D01*
X124790421Y-137668502D01*
X124836914Y-137722158D01*
X124848300Y-137774639D01*
X124847939Y-138100939D01*
X124827862Y-138169038D01*
X124774154Y-138215471D01*
X124721939Y-138226800D01*
X113123804Y-138226800D01*
X113055683Y-138206798D01*
X113009190Y-138153142D01*
X112997804Y-138100796D01*
X112997806Y-138050000D01*
X112997941Y-134178709D01*
X115149500Y-134178709D01*
X115149500Y-134421290D01*
X115181160Y-134661782D01*
X115243944Y-134896095D01*
X115243945Y-134896097D01*
X115243946Y-134896100D01*
X115336776Y-135120212D01*
X115336777Y-135120213D01*
X115336782Y-135120224D01*
X115458061Y-135330285D01*
X115458063Y-135330288D01*
X115458064Y-135330289D01*
X115605735Y-135522738D01*
X115605739Y-135522742D01*
X115605744Y-135522748D01*
X115777251Y-135694255D01*
X115777256Y-135694259D01*
X115777262Y-135694265D01*
X115936492Y-135816446D01*
X115969714Y-135841938D01*
X116179775Y-135963217D01*
X116179779Y-135963218D01*
X116179788Y-135963224D01*
X116403900Y-136056054D01*
X116638211Y-136118838D01*
X116638215Y-136118838D01*
X116638217Y-136118839D01*
X116700202Y-136126999D01*
X116878712Y-136150500D01*
X116878719Y-136150500D01*
X117121281Y-136150500D01*
X117121288Y-136150500D01*
X117338637Y-136121885D01*
X117361782Y-136118839D01*
X117361782Y-136118838D01*
X117361789Y-136118838D01*
X117596100Y-136056054D01*
X117820212Y-135963224D01*
X118030289Y-135841936D01*
X118222738Y-135694265D01*
X118394265Y-135522738D01*
X118541936Y-135330289D01*
X118663224Y-135120212D01*
X118756054Y-134896100D01*
X118818838Y-134661789D01*
X118850500Y-134421288D01*
X118850500Y-134178712D01*
X118818838Y-133938211D01*
X118756054Y-133703900D01*
X118663224Y-133479788D01*
X118663218Y-133479779D01*
X118663217Y-133479775D01*
X118541938Y-133269714D01*
X118541936Y-133269711D01*
X118394265Y-133077262D01*
X118394259Y-133077256D01*
X118394255Y-133077251D01*
X118222748Y-132905744D01*
X118222742Y-132905739D01*
X118222738Y-132905735D01*
X118030289Y-132758064D01*
X118030288Y-132758063D01*
X118030285Y-132758061D01*
X117820224Y-132636782D01*
X117820216Y-132636778D01*
X117820212Y-132636776D01*
X117596100Y-132543946D01*
X117596097Y-132543945D01*
X117596095Y-132543944D01*
X117361782Y-132481160D01*
X117121290Y-132449500D01*
X117121288Y-132449500D01*
X116878712Y-132449500D01*
X116878709Y-132449500D01*
X116638217Y-132481160D01*
X116403904Y-132543944D01*
X116403900Y-132543946D01*
X116181259Y-132636167D01*
X116179786Y-132636777D01*
X116179775Y-132636782D01*
X115969714Y-132758061D01*
X115777262Y-132905735D01*
X115777251Y-132905744D01*
X115605744Y-133077251D01*
X115605735Y-133077262D01*
X115458061Y-133269714D01*
X115336782Y-133479775D01*
X115336777Y-133479786D01*
X115336776Y-133479788D01*
X115301822Y-133564174D01*
X115243946Y-133703900D01*
X115243944Y-133703904D01*
X115181160Y-133938217D01*
X115149500Y-134178709D01*
X112997941Y-134178709D01*
X112997991Y-132748792D01*
X112998523Y-117448522D01*
X112998545Y-116828006D01*
X112998558Y-116445876D01*
X115959000Y-116445876D01*
X115959000Y-116624523D01*
X115986948Y-116800984D01*
X116042152Y-116970885D01*
X116123259Y-117130067D01*
X116123263Y-117130072D01*
X116132651Y-117142995D01*
X116611037Y-116664609D01*
X116628075Y-116728193D01*
X116693901Y-116842207D01*
X116786993Y-116935299D01*
X116901007Y-117001125D01*
X116964590Y-117018162D01*
X116486204Y-117496547D01*
X116486204Y-117496548D01*
X116499124Y-117505935D01*
X116658314Y-117587047D01*
X116828215Y-117642251D01*
X117004676Y-117670200D01*
X117183324Y-117670200D01*
X117359784Y-117642251D01*
X117529685Y-117587047D01*
X117688873Y-117505936D01*
X117701794Y-117496548D01*
X117223409Y-117018162D01*
X117286993Y-117001125D01*
X117401007Y-116935299D01*
X117494099Y-116842207D01*
X117559925Y-116728193D01*
X117576962Y-116664608D01*
X118055348Y-117142994D01*
X118064736Y-117130073D01*
X118145847Y-116970885D01*
X118201051Y-116800984D01*
X118229000Y-116624523D01*
X118229000Y-116445876D01*
X118201051Y-116269415D01*
X118145847Y-116099514D01*
X118064735Y-115940324D01*
X118055348Y-115927404D01*
X118055347Y-115927404D01*
X117576962Y-116405789D01*
X117559925Y-116342207D01*
X117494099Y-116228193D01*
X117401007Y-116135101D01*
X117286993Y-116069275D01*
X117223409Y-116052237D01*
X117701795Y-115573851D01*
X117688872Y-115564463D01*
X117688867Y-115564459D01*
X117529685Y-115483352D01*
X117359784Y-115428148D01*
X117183324Y-115400200D01*
X117004676Y-115400200D01*
X116828215Y-115428148D01*
X116658314Y-115483352D01*
X116499127Y-115564462D01*
X116486203Y-115573850D01*
X116964591Y-116052237D01*
X116901007Y-116069275D01*
X116786993Y-116135101D01*
X116693901Y-116228193D01*
X116628075Y-116342207D01*
X116611037Y-116405790D01*
X116132650Y-115927403D01*
X116123262Y-115940327D01*
X116042152Y-116099514D01*
X115986948Y-116269415D01*
X115959000Y-116445876D01*
X112998558Y-116445876D01*
X112998570Y-116099514D01*
X112998587Y-115621867D01*
X112999627Y-85736339D01*
X114403500Y-85736339D01*
X114403500Y-103747660D01*
X114418758Y-103824363D01*
X114428806Y-103874877D01*
X114478445Y-103994717D01*
X114550509Y-104102569D01*
X114550513Y-104102573D01*
X115913595Y-105465655D01*
X115947621Y-105527967D01*
X115950500Y-105554750D01*
X115950500Y-106398449D01*
X115957009Y-106458996D01*
X115957011Y-106459004D01*
X116008110Y-106596002D01*
X116008112Y-106596007D01*
X116095738Y-106713061D01*
X116212792Y-106800687D01*
X116212794Y-106800688D01*
X116212796Y-106800689D01*
X116271875Y-106822724D01*
X116349795Y-106851788D01*
X116349803Y-106851790D01*
X116410350Y-106858299D01*
X116410355Y-106858299D01*
X116410362Y-106858300D01*
X116410368Y-106858300D01*
X117777632Y-106858300D01*
X117777638Y-106858300D01*
X117777645Y-106858299D01*
X117777649Y-106858299D01*
X117838196Y-106851790D01*
X117838199Y-106851789D01*
X117838201Y-106851789D01*
X117975204Y-106800689D01*
X118043287Y-106749723D01*
X118092261Y-106713061D01*
X118179887Y-106596007D01*
X118179887Y-106596006D01*
X118179889Y-106596004D01*
X118230989Y-106459001D01*
X118236279Y-106409802D01*
X118237499Y-106398449D01*
X118237500Y-106398432D01*
X118237500Y-105031167D01*
X118237499Y-105031150D01*
X118230990Y-104970603D01*
X118230988Y-104970595D01*
X118179889Y-104833597D01*
X118179887Y-104833592D01*
X118092261Y-104716538D01*
X117975207Y-104628912D01*
X117975202Y-104628910D01*
X117838204Y-104577811D01*
X117838196Y-104577809D01*
X117777649Y-104571300D01*
X117777638Y-104571300D01*
X116933950Y-104571300D01*
X116865829Y-104551298D01*
X116844855Y-104534395D01*
X116822123Y-104511663D01*
X116788097Y-104449351D01*
X116793162Y-104378536D01*
X116835709Y-104321700D01*
X116902229Y-104296889D01*
X116930929Y-104298119D01*
X117004677Y-104309800D01*
X117183324Y-104309800D01*
X117359784Y-104281851D01*
X117529685Y-104226647D01*
X117688873Y-104145536D01*
X117701794Y-104136148D01*
X117701794Y-104136147D01*
X117223409Y-103657762D01*
X117286993Y-103640725D01*
X117401007Y-103574899D01*
X117494099Y-103481807D01*
X117559925Y-103367793D01*
X117576962Y-103304208D01*
X118055348Y-103782594D01*
X118064736Y-103769673D01*
X118145847Y-103610485D01*
X118201051Y-103440584D01*
X118229000Y-103264123D01*
X118229000Y-103085476D01*
X118201051Y-102909015D01*
X118145847Y-102739114D01*
X118064735Y-102579924D01*
X118055348Y-102567004D01*
X118055347Y-102567004D01*
X117576962Y-103045389D01*
X117559925Y-102981807D01*
X117494099Y-102867793D01*
X117401007Y-102774701D01*
X117286993Y-102708875D01*
X117223409Y-102691837D01*
X117701795Y-102213451D01*
X117688872Y-102204063D01*
X117688867Y-102204059D01*
X117529685Y-102122952D01*
X117359784Y-102067748D01*
X117183324Y-102039800D01*
X117004676Y-102039800D01*
X116828215Y-102067748D01*
X116658314Y-102122952D01*
X116499127Y-102204062D01*
X116486203Y-102213450D01*
X116964591Y-102691837D01*
X116901007Y-102708875D01*
X116786993Y-102774701D01*
X116693901Y-102867793D01*
X116628075Y-102981807D01*
X116611037Y-103045391D01*
X116132650Y-102567003D01*
X116123262Y-102579927D01*
X116042152Y-102739114D01*
X115986948Y-102909015D01*
X115970949Y-103010032D01*
X115940537Y-103074186D01*
X115880269Y-103111713D01*
X115809279Y-103110699D01*
X115750107Y-103071466D01*
X115721539Y-103006471D01*
X115720500Y-102990322D01*
X115720500Y-100873611D01*
X115740502Y-100805490D01*
X115794158Y-100758997D01*
X115864432Y-100748893D01*
X115929012Y-100778387D01*
X115967396Y-100838113D01*
X115970946Y-100853890D01*
X115974729Y-100877770D01*
X115978658Y-100902575D01*
X116026217Y-101048947D01*
X116034277Y-101073752D01*
X116115991Y-101234125D01*
X116115993Y-101234128D01*
X116221788Y-101379742D01*
X116349057Y-101507011D01*
X116349060Y-101507013D01*
X116494675Y-101612809D01*
X116655048Y-101694523D01*
X116826224Y-101750141D01*
X116826225Y-101750141D01*
X116826230Y-101750143D01*
X117004005Y-101778300D01*
X117004008Y-101778300D01*
X117183992Y-101778300D01*
X117183995Y-101778300D01*
X117361770Y-101750143D01*
X117532952Y-101694523D01*
X117693325Y-101612809D01*
X117838940Y-101507013D01*
X117966213Y-101379740D01*
X118072009Y-101234125D01*
X118153723Y-101073752D01*
X118209343Y-100902570D01*
X118237500Y-100724795D01*
X118237500Y-100544805D01*
X118209343Y-100367030D01*
X118153723Y-100195848D01*
X118072009Y-100035475D01*
X118010764Y-99951179D01*
X117966211Y-99889857D01*
X117838942Y-99762588D01*
X117693328Y-99656793D01*
X117693327Y-99656792D01*
X117693325Y-99656791D01*
X117532952Y-99575077D01*
X117532949Y-99575076D01*
X117532947Y-99575075D01*
X117361773Y-99519458D01*
X117361777Y-99519458D01*
X117328677Y-99514215D01*
X117183995Y-99491300D01*
X117004005Y-99491300D01*
X116826230Y-99519457D01*
X116826224Y-99519458D01*
X116655052Y-99575075D01*
X116655046Y-99575078D01*
X116494671Y-99656793D01*
X116349057Y-99762588D01*
X116221788Y-99889857D01*
X116115993Y-100035471D01*
X116034278Y-100195846D01*
X116034275Y-100195852D01*
X115978658Y-100367024D01*
X115978657Y-100367029D01*
X115978657Y-100367030D01*
X115974071Y-100395988D01*
X115970949Y-100415699D01*
X115940536Y-100479852D01*
X115880268Y-100517379D01*
X115809278Y-100516365D01*
X115750107Y-100477132D01*
X115721539Y-100412136D01*
X115720500Y-100395988D01*
X115720500Y-98333611D01*
X115740502Y-98265490D01*
X115794158Y-98218997D01*
X115864432Y-98208893D01*
X115929012Y-98238387D01*
X115967396Y-98298113D01*
X115970946Y-98313890D01*
X115974729Y-98337770D01*
X115978658Y-98362575D01*
X116026217Y-98508947D01*
X116034277Y-98533752D01*
X116115991Y-98694125D01*
X116115993Y-98694128D01*
X116221788Y-98839742D01*
X116349057Y-98967011D01*
X116349060Y-98967013D01*
X116494675Y-99072809D01*
X116655048Y-99154523D01*
X116826224Y-99210141D01*
X116826225Y-99210141D01*
X116826230Y-99210143D01*
X117004005Y-99238300D01*
X117004008Y-99238300D01*
X117183992Y-99238300D01*
X117183995Y-99238300D01*
X117361770Y-99210143D01*
X117532952Y-99154523D01*
X117693325Y-99072809D01*
X117838940Y-98967013D01*
X117966213Y-98839740D01*
X118009298Y-98780439D01*
X118065521Y-98737085D01*
X118111234Y-98728500D01*
X121543563Y-98728500D01*
X121611684Y-98748502D01*
X121658177Y-98802158D01*
X121661618Y-98810467D01*
X121714110Y-98951203D01*
X121714112Y-98951207D01*
X121801738Y-99068261D01*
X121918792Y-99155887D01*
X121918794Y-99155888D01*
X121918796Y-99155889D01*
X121977875Y-99177924D01*
X122055795Y-99206988D01*
X122055803Y-99206990D01*
X122116350Y-99213499D01*
X122116355Y-99213499D01*
X122116362Y-99213500D01*
X122116368Y-99213500D01*
X123483632Y-99213500D01*
X123483638Y-99213500D01*
X123483645Y-99213499D01*
X123483649Y-99213499D01*
X123544196Y-99206990D01*
X123544199Y-99206989D01*
X123544201Y-99206989D01*
X123681204Y-99155889D01*
X123683028Y-99154524D01*
X123798261Y-99068261D01*
X123885887Y-98951207D01*
X123885887Y-98951206D01*
X123885889Y-98951204D01*
X123936989Y-98814201D01*
X123937391Y-98810467D01*
X123943499Y-98753649D01*
X123943500Y-98753632D01*
X123943500Y-97980005D01*
X147056500Y-97980005D01*
X147056500Y-98159995D01*
X147083998Y-98333611D01*
X147084658Y-98337775D01*
X147140275Y-98508947D01*
X147140277Y-98508952D01*
X147152914Y-98533753D01*
X147221993Y-98669328D01*
X147327788Y-98814942D01*
X147455057Y-98942211D01*
X147467435Y-98951204D01*
X147600675Y-99048009D01*
X147761048Y-99129723D01*
X147932224Y-99185341D01*
X147932225Y-99185341D01*
X147932230Y-99185343D01*
X148110005Y-99213500D01*
X148110008Y-99213500D01*
X148289992Y-99213500D01*
X148289995Y-99213500D01*
X148467770Y-99185343D01*
X148638952Y-99129723D01*
X148799325Y-99048009D01*
X148944940Y-98942213D01*
X149072213Y-98814940D01*
X149178009Y-98669325D01*
X149259723Y-98508952D01*
X149315343Y-98337770D01*
X149343500Y-98159995D01*
X149343500Y-97980005D01*
X149315343Y-97802230D01*
X149259723Y-97631048D01*
X149178009Y-97470675D01*
X149072213Y-97325060D01*
X149072211Y-97325057D01*
X148944942Y-97197788D01*
X148799328Y-97091993D01*
X148799327Y-97091992D01*
X148799325Y-97091991D01*
X148638952Y-97010277D01*
X148638949Y-97010276D01*
X148638947Y-97010275D01*
X148467773Y-96954658D01*
X148467777Y-96954658D01*
X148434677Y-96949415D01*
X148289995Y-96926500D01*
X148110005Y-96926500D01*
X147932230Y-96954657D01*
X147932224Y-96954658D01*
X147761052Y-97010275D01*
X147761046Y-97010278D01*
X147600671Y-97091993D01*
X147455057Y-97197788D01*
X147327788Y-97325057D01*
X147221993Y-97470671D01*
X147140278Y-97631046D01*
X147140275Y-97631052D01*
X147084658Y-97802224D01*
X147084657Y-97802229D01*
X147084657Y-97802230D01*
X147056500Y-97980005D01*
X123943500Y-97980005D01*
X123943500Y-97386367D01*
X123943499Y-97386350D01*
X123936990Y-97325803D01*
X123936988Y-97325795D01*
X123898493Y-97222588D01*
X123885889Y-97188796D01*
X123885888Y-97188794D01*
X123885887Y-97188792D01*
X123798261Y-97071738D01*
X123681207Y-96984112D01*
X123681202Y-96984110D01*
X123544204Y-96933011D01*
X123544196Y-96933009D01*
X123483649Y-96926500D01*
X123483638Y-96926500D01*
X122116362Y-96926500D01*
X122116350Y-96926500D01*
X122055803Y-96933009D01*
X122055795Y-96933011D01*
X121918797Y-96984110D01*
X121918792Y-96984112D01*
X121801738Y-97071738D01*
X121714112Y-97188792D01*
X121714110Y-97188796D01*
X121661618Y-97329533D01*
X121619072Y-97386369D01*
X121552551Y-97411179D01*
X121543563Y-97411500D01*
X118075197Y-97411500D01*
X118007076Y-97391498D01*
X117973261Y-97359561D01*
X117966213Y-97349860D01*
X117966210Y-97349857D01*
X117966208Y-97349854D01*
X117838942Y-97222588D01*
X117693328Y-97116793D01*
X117693327Y-97116792D01*
X117693325Y-97116791D01*
X117532952Y-97035077D01*
X117532949Y-97035076D01*
X117532947Y-97035075D01*
X117361773Y-96979458D01*
X117361777Y-96979458D01*
X117328677Y-96974215D01*
X117183995Y-96951300D01*
X117004005Y-96951300D01*
X116826230Y-96979457D01*
X116826224Y-96979458D01*
X116655052Y-97035075D01*
X116655046Y-97035078D01*
X116494671Y-97116793D01*
X116349057Y-97222588D01*
X116221788Y-97349857D01*
X116115993Y-97495471D01*
X116034278Y-97655846D01*
X116034275Y-97655852D01*
X115978658Y-97827024D01*
X115978657Y-97827029D01*
X115978657Y-97827030D01*
X115974071Y-97855988D01*
X115970949Y-97875699D01*
X115940536Y-97939852D01*
X115880268Y-97977379D01*
X115809278Y-97976365D01*
X115750107Y-97937132D01*
X115721539Y-97872136D01*
X115720500Y-97855988D01*
X115720500Y-95793611D01*
X115740502Y-95725490D01*
X115794158Y-95678997D01*
X115864432Y-95668893D01*
X115929012Y-95698387D01*
X115967396Y-95758113D01*
X115970946Y-95773890D01*
X115974729Y-95797770D01*
X115978658Y-95822575D01*
X116026217Y-95968947D01*
X116034277Y-95993752D01*
X116115991Y-96154125D01*
X116115993Y-96154128D01*
X116221788Y-96299742D01*
X116349057Y-96427011D01*
X116349060Y-96427013D01*
X116494675Y-96532809D01*
X116655048Y-96614523D01*
X116826224Y-96670141D01*
X116826225Y-96670141D01*
X116826230Y-96670143D01*
X117004005Y-96698300D01*
X117004008Y-96698300D01*
X117183992Y-96698300D01*
X117183995Y-96698300D01*
X117361770Y-96670143D01*
X117532952Y-96614523D01*
X117693325Y-96532809D01*
X117838940Y-96427013D01*
X117966213Y-96299740D01*
X118009298Y-96240439D01*
X118065521Y-96197085D01*
X118111234Y-96188500D01*
X121543563Y-96188500D01*
X121611684Y-96208502D01*
X121658177Y-96262158D01*
X121661618Y-96270467D01*
X121714110Y-96411203D01*
X121714112Y-96411207D01*
X121801738Y-96528261D01*
X121918792Y-96615887D01*
X121918794Y-96615888D01*
X121918796Y-96615889D01*
X121977875Y-96637924D01*
X122055795Y-96666988D01*
X122055803Y-96666990D01*
X122116350Y-96673499D01*
X122116355Y-96673499D01*
X122116362Y-96673500D01*
X122116368Y-96673500D01*
X123483632Y-96673500D01*
X123483638Y-96673500D01*
X123483645Y-96673499D01*
X123483649Y-96673499D01*
X123544196Y-96666990D01*
X123544199Y-96666989D01*
X123544201Y-96666989D01*
X123681204Y-96615889D01*
X123683028Y-96614524D01*
X123798261Y-96528261D01*
X123885887Y-96411207D01*
X123885887Y-96411206D01*
X123885889Y-96411204D01*
X123936989Y-96274201D01*
X123937391Y-96270467D01*
X123943499Y-96213649D01*
X123943500Y-96213632D01*
X123943500Y-95440005D01*
X147056500Y-95440005D01*
X147056500Y-95619995D01*
X147083998Y-95793611D01*
X147084658Y-95797775D01*
X147140275Y-95968947D01*
X147140277Y-95968952D01*
X147152914Y-95993753D01*
X147221993Y-96129328D01*
X147327788Y-96274942D01*
X147455057Y-96402211D01*
X147467435Y-96411204D01*
X147600675Y-96508009D01*
X147761048Y-96589723D01*
X147932224Y-96645341D01*
X147932225Y-96645341D01*
X147932230Y-96645343D01*
X148110005Y-96673500D01*
X148110008Y-96673500D01*
X148289992Y-96673500D01*
X148289995Y-96673500D01*
X148467770Y-96645343D01*
X148638952Y-96589723D01*
X148799325Y-96508009D01*
X148944940Y-96402213D01*
X149072213Y-96274940D01*
X149178009Y-96129325D01*
X149259723Y-95968952D01*
X149315343Y-95797770D01*
X149343500Y-95619995D01*
X149343500Y-95440005D01*
X149315343Y-95262230D01*
X149259723Y-95091048D01*
X149178009Y-94930675D01*
X149072213Y-94785060D01*
X149072211Y-94785057D01*
X148944942Y-94657788D01*
X148799328Y-94551993D01*
X148799327Y-94551992D01*
X148799325Y-94551991D01*
X148638952Y-94470277D01*
X148638949Y-94470276D01*
X148638947Y-94470275D01*
X148467773Y-94414658D01*
X148467777Y-94414658D01*
X148434677Y-94409415D01*
X148289995Y-94386500D01*
X148110005Y-94386500D01*
X147932230Y-94414657D01*
X147932224Y-94414658D01*
X147761052Y-94470275D01*
X147761046Y-94470278D01*
X147600671Y-94551993D01*
X147455057Y-94657788D01*
X147327788Y-94785057D01*
X147221993Y-94930671D01*
X147140278Y-95091046D01*
X147140275Y-95091052D01*
X147084658Y-95262224D01*
X147084657Y-95262229D01*
X147084657Y-95262230D01*
X147056500Y-95440005D01*
X123943500Y-95440005D01*
X123943500Y-94846367D01*
X123943499Y-94846350D01*
X123936990Y-94785803D01*
X123936988Y-94785795D01*
X123898493Y-94682588D01*
X123885889Y-94648796D01*
X123885888Y-94648794D01*
X123885887Y-94648792D01*
X123798261Y-94531738D01*
X123681207Y-94444112D01*
X123681202Y-94444110D01*
X123544204Y-94393011D01*
X123544196Y-94393009D01*
X123483649Y-94386500D01*
X123483638Y-94386500D01*
X122116362Y-94386500D01*
X122116350Y-94386500D01*
X122055803Y-94393009D01*
X122055795Y-94393011D01*
X121918797Y-94444110D01*
X121918792Y-94444112D01*
X121801738Y-94531738D01*
X121714112Y-94648792D01*
X121714110Y-94648796D01*
X121661618Y-94789533D01*
X121619072Y-94846369D01*
X121552551Y-94871179D01*
X121543563Y-94871500D01*
X118075197Y-94871500D01*
X118007076Y-94851498D01*
X117973261Y-94819561D01*
X117966213Y-94809860D01*
X117966210Y-94809857D01*
X117966208Y-94809854D01*
X117838942Y-94682588D01*
X117693328Y-94576793D01*
X117693327Y-94576792D01*
X117693325Y-94576791D01*
X117532952Y-94495077D01*
X117532949Y-94495076D01*
X117532947Y-94495075D01*
X117361773Y-94439458D01*
X117361777Y-94439458D01*
X117328677Y-94434215D01*
X117183995Y-94411300D01*
X117004005Y-94411300D01*
X116826230Y-94439457D01*
X116826224Y-94439458D01*
X116655052Y-94495075D01*
X116655046Y-94495078D01*
X116494671Y-94576793D01*
X116349057Y-94682588D01*
X116221788Y-94809857D01*
X116115993Y-94955471D01*
X116034278Y-95115846D01*
X116034275Y-95115852D01*
X115978658Y-95287024D01*
X115978657Y-95287029D01*
X115978657Y-95287030D01*
X115974071Y-95315988D01*
X115970949Y-95335699D01*
X115940536Y-95399852D01*
X115880268Y-95437379D01*
X115809278Y-95436365D01*
X115750107Y-95397132D01*
X115721539Y-95332136D01*
X115720500Y-95315988D01*
X115720500Y-93253611D01*
X115740502Y-93185490D01*
X115794158Y-93138997D01*
X115864432Y-93128893D01*
X115929012Y-93158387D01*
X115967396Y-93218113D01*
X115970946Y-93233890D01*
X115974729Y-93257770D01*
X115978658Y-93282575D01*
X116026217Y-93428947D01*
X116034277Y-93453752D01*
X116115991Y-93614125D01*
X116115993Y-93614128D01*
X116221788Y-93759742D01*
X116349057Y-93887011D01*
X116349060Y-93887013D01*
X116494675Y-93992809D01*
X116655048Y-94074523D01*
X116826224Y-94130141D01*
X116826225Y-94130141D01*
X116826230Y-94130143D01*
X117004005Y-94158300D01*
X117004008Y-94158300D01*
X117183992Y-94158300D01*
X117183995Y-94158300D01*
X117361770Y-94130143D01*
X117532952Y-94074523D01*
X117693325Y-93992809D01*
X117838940Y-93887013D01*
X117966213Y-93759740D01*
X118072009Y-93614125D01*
X118153723Y-93453752D01*
X118209343Y-93282570D01*
X118237500Y-93104795D01*
X118237500Y-92924805D01*
X118230828Y-92882681D01*
X118239928Y-92812271D01*
X118266177Y-92773881D01*
X118733709Y-92306350D01*
X121656500Y-92306350D01*
X121656500Y-93673649D01*
X121663009Y-93734196D01*
X121663011Y-93734204D01*
X121714110Y-93871202D01*
X121714112Y-93871207D01*
X121801738Y-93988261D01*
X121918792Y-94075887D01*
X121918794Y-94075888D01*
X121918796Y-94075889D01*
X121977875Y-94097924D01*
X122055795Y-94126988D01*
X122055803Y-94126990D01*
X122116350Y-94133499D01*
X122116355Y-94133499D01*
X122116362Y-94133500D01*
X122116368Y-94133500D01*
X123483632Y-94133500D01*
X123483638Y-94133500D01*
X123483645Y-94133499D01*
X123483649Y-94133499D01*
X123544196Y-94126990D01*
X123544199Y-94126989D01*
X123544201Y-94126989D01*
X123681204Y-94075889D01*
X123683028Y-94074524D01*
X123798261Y-93988261D01*
X123885887Y-93871207D01*
X123885887Y-93871206D01*
X123885889Y-93871204D01*
X123936989Y-93734201D01*
X123943500Y-93673638D01*
X123943500Y-92900005D01*
X147056500Y-92900005D01*
X147056500Y-93079995D01*
X147083998Y-93253611D01*
X147084658Y-93257775D01*
X147140275Y-93428947D01*
X147140277Y-93428952D01*
X147152914Y-93453753D01*
X147221993Y-93589328D01*
X147327788Y-93734942D01*
X147455057Y-93862211D01*
X147455060Y-93862213D01*
X147600675Y-93968009D01*
X147761048Y-94049723D01*
X147932224Y-94105341D01*
X147932225Y-94105341D01*
X147932230Y-94105343D01*
X148110005Y-94133500D01*
X148110008Y-94133500D01*
X148289992Y-94133500D01*
X148289995Y-94133500D01*
X148467770Y-94105343D01*
X148638952Y-94049723D01*
X148799325Y-93968009D01*
X148944940Y-93862213D01*
X149072213Y-93734940D01*
X149178009Y-93589325D01*
X149259723Y-93428952D01*
X149315343Y-93257770D01*
X149343500Y-93079995D01*
X149343500Y-92900005D01*
X149315343Y-92722230D01*
X149259723Y-92551048D01*
X149178009Y-92390675D01*
X149072213Y-92245060D01*
X149072211Y-92245057D01*
X148944942Y-92117788D01*
X148799328Y-92011993D01*
X148799327Y-92011992D01*
X148799325Y-92011991D01*
X148638952Y-91930277D01*
X148638949Y-91930276D01*
X148638947Y-91930275D01*
X148467773Y-91874658D01*
X148467777Y-91874658D01*
X148434677Y-91869415D01*
X148289995Y-91846500D01*
X148110005Y-91846500D01*
X147932230Y-91874657D01*
X147932224Y-91874658D01*
X147761052Y-91930275D01*
X147761046Y-91930278D01*
X147600671Y-92011993D01*
X147455057Y-92117788D01*
X147327788Y-92245057D01*
X147221993Y-92390671D01*
X147140278Y-92551046D01*
X147140275Y-92551052D01*
X147084658Y-92722224D01*
X147084657Y-92722229D01*
X147084657Y-92722230D01*
X147056500Y-92900005D01*
X123943500Y-92900005D01*
X123943500Y-92306362D01*
X123939576Y-92269860D01*
X123936990Y-92245803D01*
X123936988Y-92245795D01*
X123898493Y-92142588D01*
X123885889Y-92108796D01*
X123885888Y-92108794D01*
X123885887Y-92108792D01*
X123798261Y-91991738D01*
X123681207Y-91904112D01*
X123681202Y-91904110D01*
X123544204Y-91853011D01*
X123544196Y-91853009D01*
X123483649Y-91846500D01*
X123483638Y-91846500D01*
X122116362Y-91846500D01*
X122116350Y-91846500D01*
X122055803Y-91853009D01*
X122055795Y-91853011D01*
X121918797Y-91904110D01*
X121918792Y-91904112D01*
X121801738Y-91991738D01*
X121714112Y-92108792D01*
X121714110Y-92108797D01*
X121663011Y-92245795D01*
X121663009Y-92245803D01*
X121656500Y-92306350D01*
X118733709Y-92306350D01*
X119894655Y-91145405D01*
X119956967Y-91111379D01*
X119983750Y-91108500D01*
X121543563Y-91108500D01*
X121611684Y-91128502D01*
X121658177Y-91182158D01*
X121661618Y-91190467D01*
X121714110Y-91331203D01*
X121714112Y-91331207D01*
X121801738Y-91448261D01*
X121918792Y-91535887D01*
X121918794Y-91535888D01*
X121918796Y-91535889D01*
X121977875Y-91557924D01*
X122055795Y-91586988D01*
X122055803Y-91586990D01*
X122116350Y-91593499D01*
X122116355Y-91593499D01*
X122116362Y-91593500D01*
X122116368Y-91593500D01*
X123483632Y-91593500D01*
X123483638Y-91593500D01*
X123483645Y-91593499D01*
X123483649Y-91593499D01*
X123544196Y-91586990D01*
X123544199Y-91586989D01*
X123544201Y-91586989D01*
X123681204Y-91535889D01*
X123683028Y-91534524D01*
X123798261Y-91448261D01*
X123885887Y-91331207D01*
X123885887Y-91331206D01*
X123885889Y-91331204D01*
X123936989Y-91194201D01*
X123937391Y-91190467D01*
X123943499Y-91133649D01*
X123943500Y-91133632D01*
X123943500Y-90360005D01*
X147056500Y-90360005D01*
X147056500Y-90539995D01*
X147083998Y-90713611D01*
X147084658Y-90717775D01*
X147140275Y-90888947D01*
X147140277Y-90888952D01*
X147152914Y-90913753D01*
X147221993Y-91049328D01*
X147327788Y-91194942D01*
X147455057Y-91322211D01*
X147467435Y-91331204D01*
X147600675Y-91428009D01*
X147761048Y-91509723D01*
X147932224Y-91565341D01*
X147932225Y-91565341D01*
X147932230Y-91565343D01*
X148110005Y-91593500D01*
X148110008Y-91593500D01*
X148289992Y-91593500D01*
X148289995Y-91593500D01*
X148467770Y-91565343D01*
X148638952Y-91509723D01*
X148799325Y-91428009D01*
X148944940Y-91322213D01*
X149072213Y-91194940D01*
X149178009Y-91049325D01*
X149259723Y-90888952D01*
X149315343Y-90717770D01*
X149343500Y-90539995D01*
X149343500Y-90360005D01*
X149315343Y-90182230D01*
X149259723Y-90011048D01*
X149178009Y-89850675D01*
X149072213Y-89705060D01*
X149072211Y-89705057D01*
X148944942Y-89577788D01*
X148799328Y-89471993D01*
X148799327Y-89471992D01*
X148799325Y-89471991D01*
X148638952Y-89390277D01*
X148638949Y-89390276D01*
X148638947Y-89390275D01*
X148467773Y-89334658D01*
X148467777Y-89334658D01*
X148434677Y-89329415D01*
X148289995Y-89306500D01*
X148110005Y-89306500D01*
X147932230Y-89334657D01*
X147932224Y-89334658D01*
X147761052Y-89390275D01*
X147761046Y-89390278D01*
X147600671Y-89471993D01*
X147455057Y-89577788D01*
X147327788Y-89705057D01*
X147221993Y-89850671D01*
X147140278Y-90011046D01*
X147140275Y-90011052D01*
X147084658Y-90182224D01*
X147084657Y-90182229D01*
X147084657Y-90182230D01*
X147056500Y-90360005D01*
X123943500Y-90360005D01*
X123943500Y-89766367D01*
X123943499Y-89766350D01*
X123936990Y-89705803D01*
X123936988Y-89705795D01*
X123898493Y-89602588D01*
X123885889Y-89568796D01*
X123885888Y-89568794D01*
X123885887Y-89568792D01*
X123798261Y-89451738D01*
X123681207Y-89364112D01*
X123681202Y-89364110D01*
X123544204Y-89313011D01*
X123544196Y-89313009D01*
X123483649Y-89306500D01*
X123483638Y-89306500D01*
X122116362Y-89306500D01*
X122116350Y-89306500D01*
X122055803Y-89313009D01*
X122055795Y-89313011D01*
X121918797Y-89364110D01*
X121918792Y-89364112D01*
X121801738Y-89451738D01*
X121714112Y-89568792D01*
X121714110Y-89568796D01*
X121661618Y-89709533D01*
X121619072Y-89766369D01*
X121552551Y-89791179D01*
X121543563Y-89791500D01*
X119593939Y-89791500D01*
X119466722Y-89816806D01*
X119466719Y-89816807D01*
X119346882Y-89866445D01*
X119239029Y-89938510D01*
X118441089Y-90736450D01*
X118378777Y-90770475D01*
X118307961Y-90765410D01*
X118251126Y-90722863D01*
X118226315Y-90656343D01*
X118227544Y-90627649D01*
X118237500Y-90564795D01*
X118237500Y-90384805D01*
X118209343Y-90207030D01*
X118153723Y-90035848D01*
X118072009Y-89875475D01*
X118010764Y-89791179D01*
X117966211Y-89729857D01*
X117838942Y-89602588D01*
X117693328Y-89496793D01*
X117693327Y-89496792D01*
X117693325Y-89496791D01*
X117532952Y-89415077D01*
X117532949Y-89415076D01*
X117532947Y-89415075D01*
X117361773Y-89359458D01*
X117361777Y-89359458D01*
X117328677Y-89354215D01*
X117183995Y-89331300D01*
X117004005Y-89331300D01*
X116826230Y-89359457D01*
X116826224Y-89359458D01*
X116655052Y-89415075D01*
X116655046Y-89415078D01*
X116494671Y-89496793D01*
X116349057Y-89602588D01*
X116221788Y-89729857D01*
X116115993Y-89875471D01*
X116034278Y-90035846D01*
X116034275Y-90035852D01*
X115978658Y-90207024D01*
X115978657Y-90207029D01*
X115978657Y-90207030D01*
X115974071Y-90235988D01*
X115970949Y-90255699D01*
X115940536Y-90319852D01*
X115880268Y-90357379D01*
X115809278Y-90356365D01*
X115750107Y-90317132D01*
X115721539Y-90252136D01*
X115720500Y-90235988D01*
X115720500Y-88173611D01*
X115740502Y-88105490D01*
X115794158Y-88058997D01*
X115864432Y-88048893D01*
X115929012Y-88078387D01*
X115967396Y-88138113D01*
X115970946Y-88153890D01*
X115974729Y-88177770D01*
X115978658Y-88202575D01*
X116026217Y-88348947D01*
X116034277Y-88373752D01*
X116115991Y-88534125D01*
X116115993Y-88534128D01*
X116221788Y-88679742D01*
X116349057Y-88807011D01*
X116349060Y-88807013D01*
X116494675Y-88912809D01*
X116655048Y-88994523D01*
X116826224Y-89050141D01*
X116826225Y-89050141D01*
X116826230Y-89050143D01*
X117004005Y-89078300D01*
X117004008Y-89078300D01*
X117183992Y-89078300D01*
X117183995Y-89078300D01*
X117361770Y-89050143D01*
X117532952Y-88994523D01*
X117693325Y-88912809D01*
X117838940Y-88807013D01*
X117966213Y-88679740D01*
X118072009Y-88534125D01*
X118153723Y-88373752D01*
X118209343Y-88202570D01*
X118237500Y-88024795D01*
X118237500Y-87844805D01*
X118209343Y-87667030D01*
X118153723Y-87495848D01*
X118072009Y-87335475D01*
X117992733Y-87226362D01*
X117992724Y-87226350D01*
X121656500Y-87226350D01*
X121656500Y-88593649D01*
X121663009Y-88654196D01*
X121663011Y-88654204D01*
X121714110Y-88791202D01*
X121714112Y-88791207D01*
X121801738Y-88908261D01*
X121918792Y-88995887D01*
X121918794Y-88995888D01*
X121918796Y-88995889D01*
X121977875Y-89017924D01*
X122055795Y-89046988D01*
X122055803Y-89046990D01*
X122116350Y-89053499D01*
X122116355Y-89053499D01*
X122116362Y-89053500D01*
X122116368Y-89053500D01*
X123483632Y-89053500D01*
X123483638Y-89053500D01*
X123483645Y-89053499D01*
X123483649Y-89053499D01*
X123544196Y-89046990D01*
X123544199Y-89046989D01*
X123544201Y-89046989D01*
X123681204Y-88995889D01*
X123683028Y-88994524D01*
X123798261Y-88908261D01*
X123885887Y-88791207D01*
X123885887Y-88791206D01*
X123885889Y-88791204D01*
X123936989Y-88654201D01*
X123943500Y-88593638D01*
X123943500Y-87820005D01*
X147056500Y-87820005D01*
X147056500Y-87999995D01*
X147083998Y-88173611D01*
X147084658Y-88177775D01*
X147140275Y-88348947D01*
X147140277Y-88348952D01*
X147152914Y-88373753D01*
X147221993Y-88509328D01*
X147327788Y-88654942D01*
X147455057Y-88782211D01*
X147455060Y-88782213D01*
X147600675Y-88888009D01*
X147761048Y-88969723D01*
X147932224Y-89025341D01*
X147932225Y-89025341D01*
X147932230Y-89025343D01*
X148110005Y-89053500D01*
X148110008Y-89053500D01*
X148289992Y-89053500D01*
X148289995Y-89053500D01*
X148467770Y-89025343D01*
X148638952Y-88969723D01*
X148799325Y-88888009D01*
X148944940Y-88782213D01*
X149072213Y-88654940D01*
X149178009Y-88509325D01*
X149259723Y-88348952D01*
X149315343Y-88177770D01*
X149343500Y-87999995D01*
X149343500Y-87820005D01*
X149315343Y-87642230D01*
X149259723Y-87471048D01*
X149178009Y-87310675D01*
X149072213Y-87165060D01*
X149072211Y-87165057D01*
X148944942Y-87037788D01*
X148799328Y-86931993D01*
X148799327Y-86931992D01*
X148799325Y-86931991D01*
X148638952Y-86850277D01*
X148638949Y-86850276D01*
X148638947Y-86850275D01*
X148467773Y-86794658D01*
X148467777Y-86794658D01*
X148434677Y-86789415D01*
X148289995Y-86766500D01*
X148110005Y-86766500D01*
X147932230Y-86794657D01*
X147932224Y-86794658D01*
X147761052Y-86850275D01*
X147761046Y-86850278D01*
X147600671Y-86931993D01*
X147455057Y-87037788D01*
X147327788Y-87165057D01*
X147221993Y-87310671D01*
X147140278Y-87471046D01*
X147140275Y-87471052D01*
X147084658Y-87642224D01*
X147084657Y-87642229D01*
X147084657Y-87642230D01*
X147056500Y-87820005D01*
X123943500Y-87820005D01*
X123943500Y-87226362D01*
X123939576Y-87189860D01*
X123936990Y-87165803D01*
X123936988Y-87165795D01*
X123898493Y-87062588D01*
X123885889Y-87028796D01*
X123885888Y-87028794D01*
X123885887Y-87028792D01*
X123798261Y-86911738D01*
X123681207Y-86824112D01*
X123681202Y-86824110D01*
X123544204Y-86773011D01*
X123544196Y-86773009D01*
X123483649Y-86766500D01*
X123483638Y-86766500D01*
X122116362Y-86766500D01*
X122116350Y-86766500D01*
X122055803Y-86773009D01*
X122055795Y-86773011D01*
X121918797Y-86824110D01*
X121918792Y-86824112D01*
X121801738Y-86911738D01*
X121714112Y-87028792D01*
X121714110Y-87028797D01*
X121663011Y-87165795D01*
X121663009Y-87165803D01*
X121656500Y-87226350D01*
X117992724Y-87226350D01*
X117966211Y-87189857D01*
X117838942Y-87062588D01*
X117693328Y-86956793D01*
X117693327Y-86956792D01*
X117693325Y-86956791D01*
X117532952Y-86875077D01*
X117532949Y-86875076D01*
X117532947Y-86875075D01*
X117361773Y-86819458D01*
X117361777Y-86819458D01*
X117328677Y-86814215D01*
X117183995Y-86791300D01*
X117004005Y-86791300D01*
X116826230Y-86819457D01*
X116826224Y-86819458D01*
X116655052Y-86875075D01*
X116655046Y-86875078D01*
X116494671Y-86956793D01*
X116349057Y-87062588D01*
X116221788Y-87189857D01*
X116115993Y-87335471D01*
X116034278Y-87495846D01*
X116034275Y-87495852D01*
X115978658Y-87667024D01*
X115978657Y-87667029D01*
X115978657Y-87667030D01*
X115974071Y-87695988D01*
X115970949Y-87715699D01*
X115940536Y-87779852D01*
X115880268Y-87817379D01*
X115809278Y-87816365D01*
X115750107Y-87777132D01*
X115721539Y-87712136D01*
X115720500Y-87695988D01*
X115720500Y-86126149D01*
X115740502Y-86058028D01*
X115757405Y-86037054D01*
X116514454Y-85280005D01*
X121656500Y-85280005D01*
X121656500Y-85459995D01*
X121661139Y-85489283D01*
X121684658Y-85637775D01*
X121716685Y-85736343D01*
X121740277Y-85808952D01*
X121740278Y-85808953D01*
X121821993Y-85969328D01*
X121927788Y-86114942D01*
X122055057Y-86242211D01*
X122055060Y-86242213D01*
X122200675Y-86348009D01*
X122361048Y-86429723D01*
X122532224Y-86485341D01*
X122532225Y-86485341D01*
X122532230Y-86485343D01*
X122710005Y-86513500D01*
X122710008Y-86513500D01*
X122889992Y-86513500D01*
X122889995Y-86513500D01*
X123067770Y-86485343D01*
X123238952Y-86429723D01*
X123399325Y-86348009D01*
X123544940Y-86242213D01*
X123672213Y-86114940D01*
X123778009Y-85969325D01*
X123859723Y-85808952D01*
X123915343Y-85637770D01*
X123943500Y-85459995D01*
X123943500Y-85280005D01*
X147056500Y-85280005D01*
X147056500Y-85459995D01*
X147061139Y-85489283D01*
X147084658Y-85637775D01*
X147116685Y-85736343D01*
X147140277Y-85808952D01*
X147140278Y-85808953D01*
X147221993Y-85969328D01*
X147327788Y-86114942D01*
X147455057Y-86242211D01*
X147455060Y-86242213D01*
X147600675Y-86348009D01*
X147761048Y-86429723D01*
X147932224Y-86485341D01*
X147932225Y-86485341D01*
X147932230Y-86485343D01*
X148110005Y-86513500D01*
X148110008Y-86513500D01*
X148289992Y-86513500D01*
X148289995Y-86513500D01*
X148467770Y-86485343D01*
X148638952Y-86429723D01*
X148799325Y-86348009D01*
X148944940Y-86242213D01*
X149072213Y-86114940D01*
X149178009Y-85969325D01*
X149259723Y-85808952D01*
X149315343Y-85637770D01*
X149343500Y-85459995D01*
X149343500Y-85280005D01*
X149315343Y-85102230D01*
X149259723Y-84931048D01*
X149178009Y-84770675D01*
X149072213Y-84625060D01*
X149072211Y-84625057D01*
X148944942Y-84497788D01*
X148799328Y-84391993D01*
X148799327Y-84391992D01*
X148799325Y-84391991D01*
X148638952Y-84310277D01*
X148638949Y-84310276D01*
X148638947Y-84310275D01*
X148467773Y-84254658D01*
X148467777Y-84254658D01*
X148434677Y-84249415D01*
X148289995Y-84226500D01*
X148110005Y-84226500D01*
X147932230Y-84254657D01*
X147932224Y-84254658D01*
X147761052Y-84310275D01*
X147761046Y-84310278D01*
X147600671Y-84391993D01*
X147455057Y-84497788D01*
X147327788Y-84625057D01*
X147221993Y-84770671D01*
X147140278Y-84931046D01*
X147140275Y-84931052D01*
X147084658Y-85102224D01*
X147084657Y-85102229D01*
X147084657Y-85102230D01*
X147056500Y-85280005D01*
X123943500Y-85280005D01*
X123915343Y-85102230D01*
X123859723Y-84931048D01*
X123778009Y-84770675D01*
X123672213Y-84625060D01*
X123672211Y-84625057D01*
X123544942Y-84497788D01*
X123399328Y-84391993D01*
X123399327Y-84391992D01*
X123399325Y-84391991D01*
X123238952Y-84310277D01*
X123238949Y-84310276D01*
X123238947Y-84310275D01*
X123067773Y-84254658D01*
X123067777Y-84254658D01*
X123034677Y-84249415D01*
X122889995Y-84226500D01*
X122710005Y-84226500D01*
X122532230Y-84254657D01*
X122532224Y-84254658D01*
X122361052Y-84310275D01*
X122361046Y-84310278D01*
X122200671Y-84391993D01*
X122055057Y-84497788D01*
X121927788Y-84625057D01*
X121821993Y-84770671D01*
X121740278Y-84931046D01*
X121740275Y-84931052D01*
X121684658Y-85102224D01*
X121684657Y-85102229D01*
X121684657Y-85102230D01*
X121656500Y-85280005D01*
X116514454Y-85280005D01*
X118269054Y-83525405D01*
X118331366Y-83491379D01*
X118358149Y-83488500D01*
X121543563Y-83488500D01*
X121611684Y-83508502D01*
X121658177Y-83562158D01*
X121661618Y-83570467D01*
X121714110Y-83711203D01*
X121714112Y-83711207D01*
X121801738Y-83828261D01*
X121918792Y-83915887D01*
X121918794Y-83915888D01*
X121918796Y-83915889D01*
X121977875Y-83937924D01*
X122055795Y-83966988D01*
X122055803Y-83966990D01*
X122116350Y-83973499D01*
X122116355Y-83973499D01*
X122116362Y-83973500D01*
X122116368Y-83973500D01*
X123483632Y-83973500D01*
X123483638Y-83973500D01*
X123483645Y-83973499D01*
X123483649Y-83973499D01*
X123544196Y-83966990D01*
X123544199Y-83966989D01*
X123544201Y-83966989D01*
X123549537Y-83964999D01*
X123566695Y-83958599D01*
X123681204Y-83915889D01*
X123691273Y-83908352D01*
X123798261Y-83828261D01*
X123885887Y-83711207D01*
X123885887Y-83711206D01*
X123885889Y-83711204D01*
X123936989Y-83574201D01*
X123937391Y-83570467D01*
X123943499Y-83513649D01*
X123943500Y-83513632D01*
X123943500Y-82147159D01*
X147065000Y-82147159D01*
X147065000Y-82580000D01*
X147766988Y-82580000D01*
X147734075Y-82637007D01*
X147700000Y-82764174D01*
X147700000Y-82895826D01*
X147734075Y-83022993D01*
X147766988Y-83080000D01*
X147065000Y-83080000D01*
X147065000Y-83512840D01*
X147071400Y-83572371D01*
X147121647Y-83707089D01*
X147207810Y-83822189D01*
X147322910Y-83908352D01*
X147457628Y-83958599D01*
X147517159Y-83964999D01*
X147517176Y-83965000D01*
X147950000Y-83965000D01*
X147950000Y-83263012D01*
X148007007Y-83295925D01*
X148134174Y-83330000D01*
X148265826Y-83330000D01*
X148392993Y-83295925D01*
X148450000Y-83263012D01*
X148450000Y-83965000D01*
X148882824Y-83965000D01*
X148882840Y-83964999D01*
X148942371Y-83958599D01*
X149077089Y-83908352D01*
X149192189Y-83822189D01*
X149278352Y-83707089D01*
X149328599Y-83572371D01*
X149334999Y-83512840D01*
X149335000Y-83512823D01*
X149335000Y-83080000D01*
X148633012Y-83080000D01*
X148665925Y-83022993D01*
X148700000Y-82895826D01*
X148700000Y-82764174D01*
X148665925Y-82637007D01*
X148633012Y-82580000D01*
X149335000Y-82580000D01*
X149335000Y-82147176D01*
X149334999Y-82147159D01*
X149328599Y-82087628D01*
X149278352Y-81952910D01*
X149192189Y-81837810D01*
X149077089Y-81751647D01*
X148942371Y-81701400D01*
X148882840Y-81695000D01*
X148450000Y-81695000D01*
X148450000Y-82396988D01*
X148392993Y-82364075D01*
X148265826Y-82330000D01*
X148134174Y-82330000D01*
X148007007Y-82364075D01*
X147950000Y-82396988D01*
X147950000Y-81695000D01*
X147517159Y-81695000D01*
X147457628Y-81701400D01*
X147322910Y-81751647D01*
X147207810Y-81837810D01*
X147121647Y-81952910D01*
X147071400Y-82087628D01*
X147065000Y-82147159D01*
X123943500Y-82147159D01*
X123943500Y-82146367D01*
X123943499Y-82146350D01*
X123936990Y-82085803D01*
X123936988Y-82085795D01*
X123885889Y-81948797D01*
X123885887Y-81948792D01*
X123798261Y-81831738D01*
X123681207Y-81744112D01*
X123681202Y-81744110D01*
X123544204Y-81693011D01*
X123544196Y-81693009D01*
X123483649Y-81686500D01*
X123483638Y-81686500D01*
X122116362Y-81686500D01*
X122116350Y-81686500D01*
X122055803Y-81693009D01*
X122055795Y-81693011D01*
X121918797Y-81744110D01*
X121918792Y-81744112D01*
X121801738Y-81831738D01*
X121714112Y-81948792D01*
X121714110Y-81948796D01*
X121661618Y-82089533D01*
X121619072Y-82146369D01*
X121552551Y-82171179D01*
X121543563Y-82171500D01*
X117968339Y-82171500D01*
X117841122Y-82196806D01*
X117841119Y-82196807D01*
X117721283Y-82246445D01*
X117613431Y-82318509D01*
X117613425Y-82318514D01*
X114550512Y-85381426D01*
X114550503Y-85381436D01*
X114498015Y-85459993D01*
X114498015Y-85459994D01*
X114478446Y-85489280D01*
X114428807Y-85609119D01*
X114428806Y-85609122D01*
X114403500Y-85736339D01*
X112999627Y-85736339D01*
X112999627Y-85730149D01*
X112999869Y-78778709D01*
X115149500Y-78778709D01*
X115149500Y-79021290D01*
X115181160Y-79261782D01*
X115243944Y-79496095D01*
X115243945Y-79496097D01*
X115243946Y-79496100D01*
X115336776Y-79720212D01*
X115336777Y-79720213D01*
X115336782Y-79720224D01*
X115458061Y-79930285D01*
X115458063Y-79930288D01*
X115458064Y-79930289D01*
X115605735Y-80122738D01*
X115605739Y-80122742D01*
X115605744Y-80122748D01*
X115777251Y-80294255D01*
X115777256Y-80294259D01*
X115777262Y-80294265D01*
X115969711Y-80441936D01*
X115969714Y-80441938D01*
X116179775Y-80563217D01*
X116179779Y-80563218D01*
X116179788Y-80563224D01*
X116403900Y-80656054D01*
X116638211Y-80718838D01*
X116638215Y-80718838D01*
X116638217Y-80718839D01*
X116700202Y-80726999D01*
X116878712Y-80750500D01*
X116878719Y-80750500D01*
X117121281Y-80750500D01*
X117121288Y-80750500D01*
X117338637Y-80721885D01*
X117361782Y-80718839D01*
X117361782Y-80718838D01*
X117361789Y-80718838D01*
X117596100Y-80656054D01*
X117820212Y-80563224D01*
X118030289Y-80441936D01*
X118222738Y-80294265D01*
X118394265Y-80122738D01*
X118541936Y-79930289D01*
X118663224Y-79720212D01*
X118756054Y-79496100D01*
X118818838Y-79261789D01*
X118850500Y-79021288D01*
X118850500Y-78778712D01*
X118850500Y-78778709D01*
X152149500Y-78778709D01*
X152149500Y-79021290D01*
X152181160Y-79261782D01*
X152243944Y-79496095D01*
X152243945Y-79496097D01*
X152243946Y-79496100D01*
X152336776Y-79720212D01*
X152336777Y-79720213D01*
X152336782Y-79720224D01*
X152458061Y-79930285D01*
X152458063Y-79930288D01*
X152458064Y-79930289D01*
X152605735Y-80122738D01*
X152605739Y-80122742D01*
X152605744Y-80122748D01*
X152777251Y-80294255D01*
X152777256Y-80294259D01*
X152777262Y-80294265D01*
X152969711Y-80441936D01*
X152969714Y-80441938D01*
X153179775Y-80563217D01*
X153179779Y-80563218D01*
X153179788Y-80563224D01*
X153403900Y-80656054D01*
X153638211Y-80718838D01*
X153638215Y-80718838D01*
X153638217Y-80718839D01*
X153700202Y-80726999D01*
X153878712Y-80750500D01*
X153878719Y-80750500D01*
X154121281Y-80750500D01*
X154121288Y-80750500D01*
X154338637Y-80721885D01*
X154361782Y-80718839D01*
X154361782Y-80718838D01*
X154361789Y-80718838D01*
X154596100Y-80656054D01*
X154820212Y-80563224D01*
X155030289Y-80441936D01*
X155222738Y-80294265D01*
X155394265Y-80122738D01*
X155541936Y-79930289D01*
X155663224Y-79720212D01*
X155756054Y-79496100D01*
X155818838Y-79261789D01*
X155850500Y-79021288D01*
X155850500Y-78778712D01*
X155818838Y-78538211D01*
X155756054Y-78303900D01*
X155663224Y-78079788D01*
X155663218Y-78079779D01*
X155663217Y-78079775D01*
X155541938Y-77869714D01*
X155541936Y-77869711D01*
X155394265Y-77677262D01*
X155394259Y-77677256D01*
X155394255Y-77677251D01*
X155222748Y-77505744D01*
X155222742Y-77505739D01*
X155222738Y-77505735D01*
X155030289Y-77358064D01*
X155030288Y-77358063D01*
X155030285Y-77358061D01*
X154820224Y-77236782D01*
X154820216Y-77236778D01*
X154820212Y-77236776D01*
X154596100Y-77143946D01*
X154596097Y-77143945D01*
X154596095Y-77143944D01*
X154361782Y-77081160D01*
X154121290Y-77049500D01*
X154121288Y-77049500D01*
X153878712Y-77049500D01*
X153878709Y-77049500D01*
X153638217Y-77081160D01*
X153403904Y-77143944D01*
X153403900Y-77143946D01*
X153179786Y-77236777D01*
X153179775Y-77236782D01*
X152969714Y-77358061D01*
X152777262Y-77505735D01*
X152777251Y-77505744D01*
X152605744Y-77677251D01*
X152605735Y-77677262D01*
X152458061Y-77869714D01*
X152336782Y-78079775D01*
X152336777Y-78079786D01*
X152243946Y-78303900D01*
X152243944Y-78303904D01*
X152181160Y-78538217D01*
X152149500Y-78778709D01*
X118850500Y-78778709D01*
X118818838Y-78538211D01*
X118756054Y-78303900D01*
X118663224Y-78079788D01*
X118663218Y-78079779D01*
X118663217Y-78079775D01*
X118541938Y-77869714D01*
X118541936Y-77869711D01*
X118394265Y-77677262D01*
X118394259Y-77677256D01*
X118394255Y-77677251D01*
X118222748Y-77505744D01*
X118222742Y-77505739D01*
X118222738Y-77505735D01*
X118030289Y-77358064D01*
X118030288Y-77358063D01*
X118030285Y-77358061D01*
X117820224Y-77236782D01*
X117820216Y-77236778D01*
X117820212Y-77236776D01*
X117596100Y-77143946D01*
X117596097Y-77143945D01*
X117596095Y-77143944D01*
X117361782Y-77081160D01*
X117121290Y-77049500D01*
X117121288Y-77049500D01*
X116878712Y-77049500D01*
X116878709Y-77049500D01*
X116638217Y-77081160D01*
X116403904Y-77143944D01*
X116403900Y-77143946D01*
X116179786Y-77236777D01*
X116179775Y-77236782D01*
X115969714Y-77358061D01*
X115777262Y-77505735D01*
X115777251Y-77505744D01*
X115605744Y-77677251D01*
X115605735Y-77677262D01*
X115458061Y-77869714D01*
X115336782Y-78079775D01*
X115336777Y-78079786D01*
X115243946Y-78303900D01*
X115243944Y-78303904D01*
X115181160Y-78538217D01*
X115149500Y-78778709D01*
X112999869Y-78778709D01*
X112999869Y-78774583D01*
X112999996Y-75125996D01*
X113020000Y-75057876D01*
X113073658Y-75011385D01*
X113125996Y-75000000D01*
X157874000Y-75000000D01*
X157942121Y-75020002D01*
G37*
%TD.AperFunction*%
%TD*%
M02*
