%TF.GenerationSoftware,KiCad,Pcbnew,10.0.6-1.fc44*%
%TF.CreationDate,2026-09-11T11:05:05+07:00*%
%TF.ProjectId,LuckFox RAP Shield,4c75636b-466f-4782-9052-415020536869,rev?*%
%TF.SameCoordinates,Original*%
%TF.FileFunction,Copper,L2,Bot*%
%TF.FilePolarity,Positive*%
%FSLAX46Y46*%
G04 Gerber Fmt 4.6, Leading zero omitted, Abs format (unit mm)*
G04 Created by KiCad (PCBNEW 10.0.6-1.fc44) date 2026-09-11 11:05:05*
%MOMM*%
%LPD*%
G01*
G04 APERTURE LIST*
%TA.AperFunction,ComponentPad*%
%ADD10R,1.800000X1.800000*%
%TD*%
%TA.AperFunction,ComponentPad*%
%ADD11R,1.639000X1.639000*%
%TD*%
%TA.AperFunction,ComponentPad*%
%ADD12C,1.800000*%
%TD*%
%TA.AperFunction,ComponentPad*%
%ADD13C,1.500000*%
%TD*%
%TA.AperFunction,ComponentPad*%
%ADD14C,1.310000*%
%TD*%
%TA.AperFunction,ComponentPad*%
%ADD15C,1.640000*%
%TD*%
%TA.AperFunction,SMDPad,CuDef*%
%ADD16R,0.550000X1.800000*%
%TD*%
%TA.AperFunction,Conductor*%
%ADD17C,0.300000*%
%TD*%
G04 APERTURE END LIST*
D10*
%TO.P,B2,1,5V_1*%
%TO.N,+5V_RAIL*%
X122800000Y-133630000D03*
%TO.P,B2,2,3V3_2*%
%TO.N,+3V3_RAIL*%
X122800000Y-82830000D03*
%TO.P,B2,3,GND_3*%
%TO.N,GND*%
X122800000Y-136170000D03*
%TO.P,B2,4,EN_4*%
%TO.N,unconnected-(B2-EN-Pad4)*%
X122800000Y-87910000D03*
%TO.P,B2,5,GPIO4_MOSI_ETH_5*%
%TO.N,Net-(B2-GPIO4_MOSI_ETH)*%
X122800000Y-90450000D03*
%TO.P,B2,6,GPIO5_MISO_ETH_6*%
%TO.N,Net-(B2-GPIO5_MISO_ETH)*%
X122800000Y-92990000D03*
%TO.P,B2,7,GPIO6_SCK_ETH_7*%
%TO.N,Net-(B2-GPIO6_SCK_ETH)*%
X122800000Y-95530000D03*
%TO.P,B2,8,GPIO7_CS_ETH_8*%
%TO.N,Net-(B2-GPIO7_CS_ETH)*%
X122800000Y-98070000D03*
D11*
%TO.P,B2,9,GPIO9_INT_ETH_9*%
%TO.N,Net-(B2-GPIO9_INT_ETH)*%
X122800000Y-118390000D03*
D10*
%TO.P,B2,10,GPIO10_CS_LF_10*%
%TO.N,Net-(B2-GPIO10_CS_LF)*%
X122800000Y-120930000D03*
%TO.P,B2,11,GPIO11_MOSI_LF_11*%
%TO.N,Net-(B2-GPIO11_MOSI_LF)*%
X122800000Y-123470000D03*
%TO.P,B2,12,GPIO12_SCK_LF_12*%
%TO.N,Net-(B2-GPIO12_SCK_LF)*%
X122800000Y-126010000D03*
%TO.P,B2,13,GPIO13_MISO_LF_13*%
%TO.N,Net-(B2-GPIO13_MISO_LF)*%
X122800000Y-128550000D03*
%TO.P,B2,14,GPIO15_DATA_RDY_IN_14*%
%TO.N,Net-(B2-GPIO15_DATA_RDY_IN)*%
X122800000Y-100610000D03*
%TO.P,B2,15,GPIO16_SLAVE_RDY_OUT_15*%
%TO.N,Net-(B2-GPIO16_SLAVE_RDY_OUT)*%
X122800000Y-103150000D03*
%TO.P,B2,16,GND_16*%
%TO.N,GND*%
X148200000Y-82830000D03*
D12*
%TO.P,B2,17,3V3_17*%
%TO.N,unconnected-(B2-3V3-Pad17)*%
X122800000Y-85370000D03*
%TO.P,B2,18,GPIO17_18*%
%TO.N,Net-(B2-GPIO17)*%
X122800000Y-105690000D03*
%TO.P,B2,19,GPIO18_19*%
%TO.N,unconnected-(B2-GPIO18-Pad19)*%
X122800000Y-108230000D03*
D13*
%TO.P,B2,20,GPIO8_20*%
%TO.N,unconnected-(B2-GPIO8-Pad20)*%
X122800000Y-110770000D03*
%TO.P,B2,21,GPIO3_21*%
%TO.N,unconnected-(B2-GPIO3-Pad21)*%
X122800000Y-113310000D03*
D14*
%TO.P,B2,22,GPIO46_22*%
%TO.N,unconnected-(B2-GPIO46-Pad22)*%
X122800000Y-115850000D03*
D12*
%TO.P,B2,23,GPIO14_23*%
%TO.N,unconnected-(B2-GPIO14-Pad23)*%
X122800000Y-131090000D03*
%TO.P,B2,24,GPIO43_24*%
%TO.N,unconnected-(B2-GPIO43-Pad24)*%
X148200000Y-85370000D03*
%TO.P,B2,25,GPIO44_25*%
%TO.N,unconnected-(B2-GPIO44-Pad25)*%
X148200000Y-87910000D03*
%TO.P,B2,26,GPIO1_26*%
%TO.N,unconnected-(B2-GPIO1-Pad26)*%
X148200000Y-90450000D03*
%TO.P,B2,27,GPIO2_27*%
%TO.N,unconnected-(B2-GPIO2-Pad27)*%
X148200000Y-92990000D03*
%TO.P,B2,28,GPIO42_28*%
%TO.N,unconnected-(B2-GPIO42-Pad28)*%
X148200000Y-95530000D03*
%TO.P,B2,29,GPIO41_29*%
%TO.N,unconnected-(B2-GPIO41-Pad29)*%
X148200000Y-98070000D03*
%TO.P,B2,30,GPIO40_30*%
%TO.N,unconnected-(B2-GPIO40-Pad30)*%
X148200000Y-100610000D03*
%TO.P,B2,31,GPIO39_31*%
%TO.N,unconnected-(B2-GPIO39-Pad31)*%
X148200000Y-103150000D03*
D15*
%TO.P,B2,32,GPIO38_32*%
%TO.N,unconnected-(B2-GPIO38-Pad32)*%
X148200000Y-105690000D03*
D13*
%TO.P,B2,33,GPIO37_33*%
%TO.N,unconnected-(B2-GPIO37-Pad33)*%
X148200000Y-108230000D03*
D12*
%TO.P,B2,34,GPIO36_34*%
%TO.N,unconnected-(B2-GPIO36-Pad34)*%
X148200000Y-110770000D03*
%TO.P,B2,35,GPIO35_35*%
%TO.N,unconnected-(B2-GPIO35-Pad35)*%
X148200000Y-113310000D03*
%TO.P,B2,36,GPIO0_36*%
%TO.N,unconnected-(B2-GPIO0-Pad36)*%
X148200000Y-115850000D03*
%TO.P,B2,37,GPIO45_37*%
%TO.N,unconnected-(B2-GPIO45-Pad37)*%
X148200000Y-118390000D03*
%TO.P,B2,38,GPIO48_38*%
%TO.N,unconnected-(B2-GPIO48-Pad38)*%
X148200000Y-120930000D03*
%TO.P,B2,39,GPIO47_39*%
%TO.N,unconnected-(B2-GPIO47-Pad39)*%
X148200000Y-123470000D03*
D15*
%TO.P,B2,40,GPIO21_40*%
%TO.N,unconnected-(B2-GPIO21-Pad40)*%
X148200000Y-126010000D03*
D13*
%TO.P,B2,41,GPIO20_41*%
%TO.N,unconnected-(B2-GPIO20-Pad41)*%
X148200000Y-128550000D03*
D12*
%TO.P,B2,42,GPIO19_42*%
%TO.N,unconnected-(B2-GPIO19-Pad42)*%
X148200000Y-131090000D03*
%TO.P,B2,43,GND_43*%
%TO.N,GND*%
X148200000Y-133630000D03*
%TO.P,B2,44,GND_44*%
X148200000Y-136170000D03*
%TD*%
D10*
%TO.P,U2,1,VCC_3V3_1*%
%TO.N,+3V3_RAIL*%
X117094000Y-105714800D03*
D12*
%TO.P,U2,2,GND_2*%
%TO.N,GND*%
X117094000Y-103174800D03*
%TO.P,U2,3,RST_3*%
%TO.N,Net-(B2-GPIO17)*%
X117094000Y-100634800D03*
%TO.P,U2,4,CS_4*%
%TO.N,Net-(B2-GPIO7_CS_ETH)*%
X117094000Y-98094800D03*
%TO.P,U2,5,SCK_5*%
%TO.N,Net-(B2-GPIO6_SCK_ETH)*%
X117094000Y-95554800D03*
%TO.P,U2,6,MOSI_6*%
%TO.N,Net-(B2-GPIO4_MOSI_ETH)*%
X117094000Y-93014800D03*
%TO.P,U2,7,MISO_7*%
%TO.N,Net-(B2-GPIO5_MISO_ETH)*%
X117094000Y-90474800D03*
%TO.P,U2,8,INT_8*%
%TO.N,Net-(B2-GPIO9_INT_ETH)*%
X117094000Y-87934800D03*
%TD*%
D10*
%TO.P,J2,1,5V_IN_1*%
%TO.N,+5V_RAIL*%
X117094000Y-119075200D03*
D12*
%TO.P,J2,2,GND_IN_2*%
%TO.N,GND*%
X117094000Y-116535200D03*
%TD*%
D16*
%TO.P,J1,2,GND_2*%
%TO.N,GND*%
X124575000Y-133604000D03*
%TO.P,J1,7,GPIO1_C1_d_SPI0_CLK_7*%
%TO.N,Net-(B2-GPIO12_SCK_LF)*%
X124575000Y-120904000D03*
%TO.P,J1,21,GND_21*%
%TO.N,GND*%
X146425000Y-133604000D03*
%TD*%
%TO.N,GND*%
D17*
X146425000Y-134395000D02*
X146425000Y-133604000D01*
X122800000Y-136170000D02*
X124000000Y-136170000D01*
X148200000Y-133630000D02*
X146451000Y-133630000D01*
X146451000Y-133630000D02*
X146425000Y-133604000D01*
X124000000Y-136170000D02*
X124575000Y-135595000D01*
X124575000Y-135595000D02*
X124575000Y-133604000D01*
X148200000Y-136170000D02*
X146425000Y-134395000D01*
%TO.N,Net-(B2-GPIO5_MISO_ETH)*%
X117094000Y-90474800D02*
X119609200Y-92990000D01*
X119609200Y-92990000D02*
X122800000Y-92990000D01*
%TO.N,Net-(B2-GPIO9_INT_ETH)*%
X122800000Y-118390000D02*
X121488800Y-118390000D01*
X114604800Y-90424000D02*
X117094000Y-87934800D01*
X121488800Y-118390000D02*
X114604800Y-111506000D01*
X114604800Y-111506000D02*
X114604800Y-90424000D01*
%TO.N,Net-(B2-GPIO12_SCK_LF)*%
X124575000Y-125615000D02*
X124575000Y-120904000D01*
X122800000Y-126010000D02*
X124180000Y-126010000D01*
X124180000Y-126010000D02*
X124575000Y-125615000D01*
%TO.N,Net-(B2-GPIO17)*%
X117094000Y-100634800D02*
X122149200Y-105690000D01*
X122149200Y-105690000D02*
X122800000Y-105690000D01*
%TD*%
%TA.AperFunction,Conductor*%
%TO.N,GND*%
G36*
X157942121Y-75020002D02*
G01*
X157988614Y-75073658D01*
X158000000Y-75126000D01*
X158000000Y-138050000D01*
X157979998Y-138118121D01*
X157926342Y-138164614D01*
X157874000Y-138176000D01*
X146276000Y-138176000D01*
X146207879Y-138155998D01*
X146161386Y-138102342D01*
X146150000Y-138050000D01*
X146150000Y-135081191D01*
X146170002Y-135013070D01*
X146175000Y-135006868D01*
X146175000Y-132204000D01*
X146675000Y-132204000D01*
X146675000Y-135004000D01*
X146747824Y-135004000D01*
X146747840Y-135003999D01*
X146807371Y-134997599D01*
X146942089Y-134947352D01*
X147057188Y-134861189D01*
X147143242Y-134746236D01*
X147200078Y-134703689D01*
X147270893Y-134698625D01*
X147318171Y-134719809D01*
X147425879Y-134798063D01*
X147469233Y-134854285D01*
X147475308Y-134925021D01*
X147442177Y-134987813D01*
X147425878Y-135001936D01*
X147402485Y-135018931D01*
X147402485Y-135018932D01*
X148070590Y-135687037D01*
X148007007Y-135704075D01*
X147892993Y-135769901D01*
X147799901Y-135862993D01*
X147734075Y-135977007D01*
X147717037Y-136040590D01*
X147048932Y-135372485D01*
X147002611Y-135436243D01*
X146902570Y-135632585D01*
X146902567Y-135632591D01*
X146834474Y-135842160D01*
X146800000Y-136059821D01*
X146800000Y-136280178D01*
X146834474Y-136497839D01*
X146902567Y-136707408D01*
X146902570Y-136707414D01*
X147002615Y-136903763D01*
X147048931Y-136967513D01*
X147048933Y-136967513D01*
X147717037Y-136299409D01*
X147734075Y-136362993D01*
X147799901Y-136477007D01*
X147892993Y-136570099D01*
X148007007Y-136635925D01*
X148070590Y-136652962D01*
X147402485Y-137321066D01*
X147466240Y-137367386D01*
X147466241Y-137367387D01*
X147662585Y-137467429D01*
X147662591Y-137467432D01*
X147872162Y-137535525D01*
X147872158Y-137535525D01*
X148089821Y-137570000D01*
X148310179Y-137570000D01*
X148527839Y-137535525D01*
X148737408Y-137467432D01*
X148737414Y-137467429D01*
X148933763Y-137367384D01*
X148997513Y-137321067D01*
X148997513Y-137321065D01*
X148329410Y-136652962D01*
X148392993Y-136635925D01*
X148507007Y-136570099D01*
X148600099Y-136477007D01*
X148665925Y-136362993D01*
X148682962Y-136299410D01*
X149351065Y-136967513D01*
X149351067Y-136967513D01*
X149397384Y-136903763D01*
X149497429Y-136707414D01*
X149497432Y-136707408D01*
X149565525Y-136497839D01*
X149600000Y-136280178D01*
X149600000Y-136059821D01*
X149565525Y-135842160D01*
X149497432Y-135632591D01*
X149497429Y-135632585D01*
X149397387Y-135436241D01*
X149397386Y-135436240D01*
X149351066Y-135372485D01*
X148682962Y-136040589D01*
X148665925Y-135977007D01*
X148600099Y-135862993D01*
X148507007Y-135769901D01*
X148392993Y-135704075D01*
X148329409Y-135687037D01*
X148997513Y-135018933D01*
X148997513Y-135018931D01*
X148974121Y-135001936D01*
X148930767Y-134945714D01*
X148924690Y-134874978D01*
X148957821Y-134812186D01*
X148974121Y-134798062D01*
X148997513Y-134781066D01*
X148329408Y-134112962D01*
X148392993Y-134095925D01*
X148507007Y-134030099D01*
X148600099Y-133937007D01*
X148665925Y-133822993D01*
X148682962Y-133759410D01*
X149351065Y-134427513D01*
X149351067Y-134427513D01*
X149397384Y-134363763D01*
X149491674Y-134178709D01*
X152149500Y-134178709D01*
X152149500Y-134421290D01*
X152181160Y-134661782D01*
X152243944Y-134896095D01*
X152243945Y-134896097D01*
X152243946Y-134896100D01*
X152336776Y-135120212D01*
X152336777Y-135120213D01*
X152336782Y-135120224D01*
X152458061Y-135330285D01*
X152458063Y-135330288D01*
X152458064Y-135330289D01*
X152605735Y-135522738D01*
X152605739Y-135522742D01*
X152605744Y-135522748D01*
X152777251Y-135694255D01*
X152777256Y-135694259D01*
X152777262Y-135694265D01*
X152936492Y-135816446D01*
X152969714Y-135841938D01*
X153179775Y-135963217D01*
X153179779Y-135963218D01*
X153179788Y-135963224D01*
X153403900Y-136056054D01*
X153638211Y-136118838D01*
X153638215Y-136118838D01*
X153638217Y-136118839D01*
X153700202Y-136126999D01*
X153878712Y-136150500D01*
X153878719Y-136150500D01*
X154121281Y-136150500D01*
X154121288Y-136150500D01*
X154338637Y-136121885D01*
X154361782Y-136118839D01*
X154361782Y-136118838D01*
X154361789Y-136118838D01*
X154596100Y-136056054D01*
X154820212Y-135963224D01*
X155030289Y-135841936D01*
X155222738Y-135694265D01*
X155394265Y-135522738D01*
X155541936Y-135330289D01*
X155663224Y-135120212D01*
X155756054Y-134896100D01*
X155818838Y-134661789D01*
X155850500Y-134421288D01*
X155850500Y-134178712D01*
X155818838Y-133938211D01*
X155756054Y-133703900D01*
X155663224Y-133479788D01*
X155663218Y-133479779D01*
X155663217Y-133479775D01*
X155541938Y-133269714D01*
X155541936Y-133269711D01*
X155394265Y-133077262D01*
X155394259Y-133077256D01*
X155394255Y-133077251D01*
X155222748Y-132905744D01*
X155222742Y-132905739D01*
X155222738Y-132905735D01*
X155030289Y-132758064D01*
X155030288Y-132758063D01*
X155030285Y-132758061D01*
X154820224Y-132636782D01*
X154820216Y-132636778D01*
X154820212Y-132636776D01*
X154596100Y-132543946D01*
X154596097Y-132543945D01*
X154596095Y-132543944D01*
X154361782Y-132481160D01*
X154121290Y-132449500D01*
X154121288Y-132449500D01*
X153878712Y-132449500D01*
X153878709Y-132449500D01*
X153638217Y-132481160D01*
X153403904Y-132543944D01*
X153403900Y-132543946D01*
X153218351Y-132620803D01*
X153179786Y-132636777D01*
X153179775Y-132636782D01*
X152969714Y-132758061D01*
X152777262Y-132905735D01*
X152777251Y-132905744D01*
X152605744Y-133077251D01*
X152605735Y-133077262D01*
X152458061Y-133269714D01*
X152336782Y-133479775D01*
X152336777Y-133479786D01*
X152243946Y-133703900D01*
X152243944Y-133703904D01*
X152181160Y-133938217D01*
X152149500Y-134178709D01*
X149491674Y-134178709D01*
X149497429Y-134167414D01*
X149497430Y-134167411D01*
X149507751Y-134135650D01*
X149507751Y-134135649D01*
X149565525Y-133957839D01*
X149600000Y-133740178D01*
X149600000Y-133519821D01*
X149565525Y-133302160D01*
X149497432Y-133092591D01*
X149497429Y-133092585D01*
X149397387Y-132896241D01*
X149397386Y-132896240D01*
X149351066Y-132832485D01*
X148682962Y-133500589D01*
X148665925Y-133437007D01*
X148600099Y-133322993D01*
X148507007Y-133229901D01*
X148392993Y-133164075D01*
X148329407Y-133147036D01*
X148997513Y-132478932D01*
X148997513Y-132478931D01*
X148981351Y-132467189D01*
X148937997Y-132410967D01*
X148931920Y-132340231D01*
X148965051Y-132277439D01*
X148981339Y-132263324D01*
X149117576Y-132164343D01*
X149274343Y-132007576D01*
X149404657Y-131828215D01*
X149505308Y-131630676D01*
X149573818Y-131419824D01*
X149608500Y-131200851D01*
X149608500Y-130979149D01*
X149573818Y-130760176D01*
X149505308Y-130549324D01*
X149404657Y-130351785D01*
X149274343Y-130172424D01*
X149274341Y-130172421D01*
X149117578Y-130015658D01*
X148938218Y-129885345D01*
X148938217Y-129885344D01*
X148938215Y-129885343D01*
X148865004Y-129848040D01*
X148813390Y-129799293D01*
X148796324Y-129730378D01*
X148819225Y-129663176D01*
X148856383Y-129628335D01*
X148859587Y-129626371D01*
X148859598Y-129626366D01*
X149019858Y-129509930D01*
X149159930Y-129369858D01*
X149276366Y-129209598D01*
X149366298Y-129033097D01*
X149427512Y-128844700D01*
X149458500Y-128649046D01*
X149458500Y-128450954D01*
X149427512Y-128255300D01*
X149366298Y-128066903D01*
X149276366Y-127890402D01*
X149159930Y-127730142D01*
X149159928Y-127730139D01*
X149019860Y-127590071D01*
X148859598Y-127473634D01*
X148776998Y-127431547D01*
X148725383Y-127382800D01*
X148708317Y-127313885D01*
X148731217Y-127246684D01*
X148776997Y-127207015D01*
X148896286Y-127146235D01*
X149065460Y-127023323D01*
X149213323Y-126875460D01*
X149336235Y-126706286D01*
X149431169Y-126519967D01*
X149495788Y-126321091D01*
X149528500Y-126114555D01*
X149528500Y-125905445D01*
X149495788Y-125698909D01*
X149431169Y-125500033D01*
X149336235Y-125313714D01*
X149213323Y-125144540D01*
X149213320Y-125144537D01*
X149213318Y-125144534D01*
X149065462Y-124996678D01*
X148918832Y-124890145D01*
X148875478Y-124833922D01*
X148869403Y-124763186D01*
X148902535Y-124700395D01*
X148935697Y-124675939D01*
X148938215Y-124674657D01*
X149117576Y-124544343D01*
X149274343Y-124387576D01*
X149404657Y-124208215D01*
X149505308Y-124010676D01*
X149573818Y-123799824D01*
X149608500Y-123580851D01*
X149608500Y-123359149D01*
X149573818Y-123140176D01*
X149505308Y-122929324D01*
X149404657Y-122731785D01*
X149274343Y-122552424D01*
X149274341Y-122552421D01*
X149117581Y-122395661D01*
X149117578Y-122395659D01*
X149117577Y-122395658D01*
X149117576Y-122395657D01*
X148988579Y-122301934D01*
X148945226Y-122245714D01*
X148939151Y-122174978D01*
X148972282Y-122112186D01*
X148988576Y-122098067D01*
X149117576Y-122004343D01*
X149274343Y-121847576D01*
X149404657Y-121668215D01*
X149505308Y-121470676D01*
X149573818Y-121259824D01*
X149608500Y-121040851D01*
X149608500Y-120819149D01*
X149573818Y-120600176D01*
X149505308Y-120389324D01*
X149404657Y-120191785D01*
X149282636Y-120023838D01*
X149274341Y-120012421D01*
X149117581Y-119855661D01*
X149117578Y-119855659D01*
X149117577Y-119855658D01*
X149117576Y-119855657D01*
X148988579Y-119761934D01*
X148945226Y-119705714D01*
X148939151Y-119634978D01*
X148972282Y-119572186D01*
X148988576Y-119558067D01*
X149117576Y-119464343D01*
X149274343Y-119307576D01*
X149404657Y-119128215D01*
X149505308Y-118930676D01*
X149573818Y-118719824D01*
X149608500Y-118500851D01*
X149608500Y-118279149D01*
X149573818Y-118060176D01*
X149505308Y-117849324D01*
X149404657Y-117651785D01*
X149274343Y-117472424D01*
X149274341Y-117472421D01*
X149117581Y-117315661D01*
X149117578Y-117315659D01*
X149117577Y-117315658D01*
X149117576Y-117315657D01*
X148988579Y-117221934D01*
X148945226Y-117165714D01*
X148939151Y-117094978D01*
X148972282Y-117032186D01*
X148988576Y-117018067D01*
X149117576Y-116924343D01*
X149274343Y-116767576D01*
X149404657Y-116588215D01*
X149505308Y-116390676D01*
X149573818Y-116179824D01*
X149608500Y-115960851D01*
X149608500Y-115739149D01*
X149573818Y-115520176D01*
X149505308Y-115309324D01*
X149404657Y-115111785D01*
X149274343Y-114932424D01*
X149274341Y-114932421D01*
X149117581Y-114775661D01*
X149117578Y-114775659D01*
X149117577Y-114775658D01*
X149117576Y-114775657D01*
X148988579Y-114681934D01*
X148945226Y-114625714D01*
X148939151Y-114554978D01*
X148972282Y-114492186D01*
X148988576Y-114478067D01*
X149117576Y-114384343D01*
X149274343Y-114227576D01*
X149404657Y-114048215D01*
X149505308Y-113850676D01*
X149573818Y-113639824D01*
X149608500Y-113420851D01*
X149608500Y-113199149D01*
X149573818Y-112980176D01*
X149505308Y-112769324D01*
X149404657Y-112571785D01*
X149274343Y-112392424D01*
X149274341Y-112392421D01*
X149117581Y-112235661D01*
X149117578Y-112235659D01*
X149117577Y-112235658D01*
X149117576Y-112235657D01*
X148988579Y-112141934D01*
X148945226Y-112085714D01*
X148939151Y-112014978D01*
X148972282Y-111952186D01*
X148988576Y-111938067D01*
X149117576Y-111844343D01*
X149274343Y-111687576D01*
X149404657Y-111508215D01*
X149505308Y-111310676D01*
X149573818Y-111099824D01*
X149608500Y-110880851D01*
X149608500Y-110659149D01*
X149573818Y-110440176D01*
X149505308Y-110229324D01*
X149404657Y-110031785D01*
X149274343Y-109852424D01*
X149274341Y-109852421D01*
X149117578Y-109695658D01*
X148938218Y-109565345D01*
X148938217Y-109565344D01*
X148938215Y-109565343D01*
X148865004Y-109528040D01*
X148813390Y-109479293D01*
X148796324Y-109410378D01*
X148819225Y-109343176D01*
X148856383Y-109308335D01*
X148859587Y-109306371D01*
X148859598Y-109306366D01*
X149019858Y-109189930D01*
X149159930Y-109049858D01*
X149276366Y-108889598D01*
X149366298Y-108713097D01*
X149427512Y-108524700D01*
X149458500Y-108329046D01*
X149458500Y-108130954D01*
X149427512Y-107935300D01*
X149366298Y-107746903D01*
X149276366Y-107570402D01*
X149159930Y-107410142D01*
X149159928Y-107410139D01*
X149019860Y-107270071D01*
X148859598Y-107153634D01*
X148800062Y-107123299D01*
X148776998Y-107111547D01*
X148725383Y-107062800D01*
X148708317Y-106993885D01*
X148731217Y-106926684D01*
X148776997Y-106887015D01*
X148896286Y-106826235D01*
X149065460Y-106703323D01*
X149213323Y-106555460D01*
X149336235Y-106386286D01*
X149431169Y-106199967D01*
X149495788Y-106001091D01*
X149528500Y-105794555D01*
X149528500Y-105585445D01*
X149495788Y-105378909D01*
X149431169Y-105180033D01*
X149336235Y-104993714D01*
X149213323Y-104824540D01*
X149213320Y-104824537D01*
X149213318Y-104824534D01*
X149065462Y-104676678D01*
X148918832Y-104570145D01*
X148875478Y-104513922D01*
X148869403Y-104443186D01*
X148902535Y-104380395D01*
X148935697Y-104355939D01*
X148938215Y-104354657D01*
X149117576Y-104224343D01*
X149274343Y-104067576D01*
X149404657Y-103888215D01*
X149505308Y-103690676D01*
X149573818Y-103479824D01*
X149608500Y-103260851D01*
X149608500Y-103039149D01*
X149573818Y-102820176D01*
X149505308Y-102609324D01*
X149404657Y-102411785D01*
X149274343Y-102232424D01*
X149274341Y-102232421D01*
X149117581Y-102075661D01*
X149117578Y-102075659D01*
X149117577Y-102075658D01*
X149117576Y-102075657D01*
X148988579Y-101981934D01*
X148945226Y-101925714D01*
X148939151Y-101854978D01*
X148972282Y-101792186D01*
X148988576Y-101778067D01*
X149117576Y-101684343D01*
X149274343Y-101527576D01*
X149404657Y-101348215D01*
X149505308Y-101150676D01*
X149573818Y-100939824D01*
X149608500Y-100720851D01*
X149608500Y-100499149D01*
X149573818Y-100280176D01*
X149505308Y-100069324D01*
X149404657Y-99871785D01*
X149274343Y-99692424D01*
X149274341Y-99692421D01*
X149117581Y-99535661D01*
X149117578Y-99535659D01*
X149117577Y-99535658D01*
X149117576Y-99535657D01*
X148988579Y-99441934D01*
X148945226Y-99385714D01*
X148939151Y-99314978D01*
X148972282Y-99252186D01*
X148988576Y-99238067D01*
X149117576Y-99144343D01*
X149274343Y-98987576D01*
X149404657Y-98808215D01*
X149505308Y-98610676D01*
X149573818Y-98399824D01*
X149608500Y-98180851D01*
X149608500Y-97959149D01*
X149573818Y-97740176D01*
X149505308Y-97529324D01*
X149404657Y-97331785D01*
X149274343Y-97152424D01*
X149274341Y-97152421D01*
X149117581Y-96995661D01*
X149117578Y-96995659D01*
X149117577Y-96995658D01*
X149117576Y-96995657D01*
X148988579Y-96901934D01*
X148945226Y-96845714D01*
X148939151Y-96774978D01*
X148972282Y-96712186D01*
X148988576Y-96698067D01*
X149117576Y-96604343D01*
X149274343Y-96447576D01*
X149404657Y-96268215D01*
X149505308Y-96070676D01*
X149573818Y-95859824D01*
X149608500Y-95640851D01*
X149608500Y-95419149D01*
X149573818Y-95200176D01*
X149505308Y-94989324D01*
X149404657Y-94791785D01*
X149274343Y-94612424D01*
X149274341Y-94612421D01*
X149117581Y-94455661D01*
X149117578Y-94455659D01*
X149117577Y-94455658D01*
X149117576Y-94455657D01*
X148988579Y-94361934D01*
X148945226Y-94305714D01*
X148939151Y-94234978D01*
X148972282Y-94172186D01*
X148988576Y-94158067D01*
X149117576Y-94064343D01*
X149274343Y-93907576D01*
X149404657Y-93728215D01*
X149505308Y-93530676D01*
X149573818Y-93319824D01*
X149608500Y-93100851D01*
X149608500Y-92879149D01*
X149573818Y-92660176D01*
X149505308Y-92449324D01*
X149404657Y-92251785D01*
X149274343Y-92072424D01*
X149274341Y-92072421D01*
X149117581Y-91915661D01*
X149117578Y-91915659D01*
X149117577Y-91915658D01*
X149117576Y-91915657D01*
X148988579Y-91821934D01*
X148945226Y-91765714D01*
X148939151Y-91694978D01*
X148972282Y-91632186D01*
X148988576Y-91618067D01*
X149117576Y-91524343D01*
X149274343Y-91367576D01*
X149404657Y-91188215D01*
X149505308Y-90990676D01*
X149573818Y-90779824D01*
X149608500Y-90560851D01*
X149608500Y-90339149D01*
X149573818Y-90120176D01*
X149505308Y-89909324D01*
X149404657Y-89711785D01*
X149274343Y-89532424D01*
X149274341Y-89532421D01*
X149117581Y-89375661D01*
X149117578Y-89375659D01*
X149117577Y-89375658D01*
X149117576Y-89375657D01*
X148988579Y-89281934D01*
X148945226Y-89225714D01*
X148939151Y-89154978D01*
X148972282Y-89092186D01*
X148988576Y-89078067D01*
X149117576Y-88984343D01*
X149274343Y-88827576D01*
X149404657Y-88648215D01*
X149505308Y-88450676D01*
X149573818Y-88239824D01*
X149608500Y-88020851D01*
X149608500Y-87799149D01*
X149573818Y-87580176D01*
X149505308Y-87369324D01*
X149404657Y-87171785D01*
X149274343Y-86992424D01*
X149274341Y-86992421D01*
X149117581Y-86835661D01*
X149117578Y-86835659D01*
X149117577Y-86835658D01*
X149117576Y-86835657D01*
X148988579Y-86741934D01*
X148945226Y-86685714D01*
X148939151Y-86614978D01*
X148972282Y-86552186D01*
X148988576Y-86538067D01*
X149117576Y-86444343D01*
X149274343Y-86287576D01*
X149404657Y-86108215D01*
X149505308Y-85910676D01*
X149573818Y-85699824D01*
X149608500Y-85480851D01*
X149608500Y-85259149D01*
X149573818Y-85040176D01*
X149505308Y-84829324D01*
X149404657Y-84631785D01*
X149274343Y-84452424D01*
X149274342Y-84452423D01*
X149274341Y-84452421D01*
X149228122Y-84406202D01*
X149194096Y-84343890D01*
X149199161Y-84273075D01*
X149241708Y-84216239D01*
X149273186Y-84199051D01*
X149342088Y-84173352D01*
X149457189Y-84087189D01*
X149543352Y-83972089D01*
X149593599Y-83837371D01*
X149599999Y-83777840D01*
X149600000Y-83777823D01*
X149600000Y-83080000D01*
X148633012Y-83080000D01*
X148665925Y-83022993D01*
X148700000Y-82895826D01*
X148700000Y-82764174D01*
X148665925Y-82637007D01*
X148633012Y-82580000D01*
X149600000Y-82580000D01*
X149600000Y-81882176D01*
X149599999Y-81882159D01*
X149593599Y-81822628D01*
X149543352Y-81687910D01*
X149457189Y-81572810D01*
X149342089Y-81486647D01*
X149207371Y-81436400D01*
X149147840Y-81430000D01*
X148450000Y-81430000D01*
X148450000Y-82396988D01*
X148392993Y-82364075D01*
X148265826Y-82330000D01*
X148134174Y-82330000D01*
X148007007Y-82364075D01*
X147950000Y-82396988D01*
X147950000Y-81430000D01*
X147252159Y-81430000D01*
X147192628Y-81436400D01*
X147057910Y-81486647D01*
X146942810Y-81572810D01*
X146856647Y-81687910D01*
X146806400Y-81822628D01*
X146800000Y-81882159D01*
X146800000Y-82580000D01*
X147766988Y-82580000D01*
X147734075Y-82637007D01*
X147700000Y-82764174D01*
X147700000Y-82895826D01*
X147734075Y-83022993D01*
X147766988Y-83080000D01*
X146800000Y-83080000D01*
X146800000Y-83777840D01*
X146806400Y-83837371D01*
X146856647Y-83972089D01*
X146942810Y-84087189D01*
X147057911Y-84173352D01*
X147126813Y-84199051D01*
X147183649Y-84241597D01*
X147208461Y-84308117D01*
X147193370Y-84377491D01*
X147171878Y-84406202D01*
X147125657Y-84452423D01*
X146995345Y-84631781D01*
X146894693Y-84829322D01*
X146894690Y-84829328D01*
X146826183Y-85040170D01*
X146826182Y-85040175D01*
X146826182Y-85040176D01*
X146791500Y-85259149D01*
X146791500Y-85480851D01*
X146826182Y-85699824D01*
X146826183Y-85699829D01*
X146894690Y-85910671D01*
X146894692Y-85910676D01*
X146894693Y-85910677D01*
X146995345Y-86108218D01*
X147125658Y-86287578D01*
X147282421Y-86444341D01*
X147411419Y-86538064D01*
X147454773Y-86594287D01*
X147460848Y-86665023D01*
X147427716Y-86727815D01*
X147411419Y-86741936D01*
X147282421Y-86835658D01*
X147125658Y-86992421D01*
X146995345Y-87171781D01*
X146894693Y-87369322D01*
X146894690Y-87369328D01*
X146826183Y-87580170D01*
X146826182Y-87580175D01*
X146826182Y-87580176D01*
X146791500Y-87799149D01*
X146791500Y-88020851D01*
X146826182Y-88239824D01*
X146826183Y-88239829D01*
X146861886Y-88349711D01*
X146894692Y-88450676D01*
X146907329Y-88475477D01*
X146995345Y-88648218D01*
X147125658Y-88827578D01*
X147282421Y-88984341D01*
X147411419Y-89078064D01*
X147454773Y-89134287D01*
X147460848Y-89205023D01*
X147427716Y-89267815D01*
X147411419Y-89281936D01*
X147282421Y-89375658D01*
X147125658Y-89532421D01*
X146995345Y-89711781D01*
X146894693Y-89909322D01*
X146894690Y-89909328D01*
X146826183Y-90120170D01*
X146826182Y-90120175D01*
X146826182Y-90120176D01*
X146791500Y-90339149D01*
X146791500Y-90560851D01*
X146807181Y-90659854D01*
X146826183Y-90779829D01*
X146859380Y-90881997D01*
X146894692Y-90990676D01*
X146907329Y-91015477D01*
X146995345Y-91188218D01*
X147125658Y-91367578D01*
X147282421Y-91524341D01*
X147411419Y-91618064D01*
X147454773Y-91674287D01*
X147460848Y-91745023D01*
X147427716Y-91807815D01*
X147411419Y-91821936D01*
X147282421Y-91915658D01*
X147125658Y-92072421D01*
X146995345Y-92251781D01*
X146894693Y-92449322D01*
X146894690Y-92449328D01*
X146826183Y-92660170D01*
X146826182Y-92660175D01*
X146826182Y-92660176D01*
X146791500Y-92879149D01*
X146791500Y-93100851D01*
X146826182Y-93319824D01*
X146826183Y-93319829D01*
X146885208Y-93501488D01*
X146894692Y-93530676D01*
X146964918Y-93668502D01*
X146995345Y-93728218D01*
X147125658Y-93907578D01*
X147282421Y-94064341D01*
X147411419Y-94158064D01*
X147454773Y-94214287D01*
X147460848Y-94285023D01*
X147427716Y-94347815D01*
X147411419Y-94361936D01*
X147282421Y-94455658D01*
X147125658Y-94612421D01*
X146995345Y-94791781D01*
X146894693Y-94989322D01*
X146894690Y-94989328D01*
X146826183Y-95200170D01*
X146826182Y-95200175D01*
X146826182Y-95200176D01*
X146791500Y-95419149D01*
X146791500Y-95640851D01*
X146826182Y-95859824D01*
X146826183Y-95859829D01*
X146894690Y-96070671D01*
X146894692Y-96070676D01*
X146907329Y-96095477D01*
X146995345Y-96268218D01*
X147125658Y-96447578D01*
X147282421Y-96604341D01*
X147411419Y-96698064D01*
X147454773Y-96754287D01*
X147460848Y-96825023D01*
X147427716Y-96887815D01*
X147411419Y-96901936D01*
X147282421Y-96995658D01*
X147125658Y-97152421D01*
X146995345Y-97331781D01*
X146894693Y-97529322D01*
X146894690Y-97529328D01*
X146826183Y-97740170D01*
X146826182Y-97740175D01*
X146826182Y-97740176D01*
X146791500Y-97959149D01*
X146791500Y-98180851D01*
X146826182Y-98399824D01*
X146826183Y-98399829D01*
X146894690Y-98610671D01*
X146894692Y-98610676D01*
X146907329Y-98635477D01*
X146995345Y-98808218D01*
X147125658Y-98987578D01*
X147282421Y-99144341D01*
X147411419Y-99238064D01*
X147454773Y-99294287D01*
X147460848Y-99365023D01*
X147427716Y-99427815D01*
X147411419Y-99441936D01*
X147282421Y-99535658D01*
X147125658Y-99692421D01*
X146995345Y-99871781D01*
X146894693Y-100069322D01*
X146894690Y-100069328D01*
X146826183Y-100280170D01*
X146826182Y-100280175D01*
X146826182Y-100280176D01*
X146791500Y-100499149D01*
X146791500Y-100720851D01*
X146826182Y-100939824D01*
X146826183Y-100939829D01*
X146859380Y-101041997D01*
X146894692Y-101150676D01*
X146907329Y-101175477D01*
X146995345Y-101348218D01*
X147125658Y-101527578D01*
X147282421Y-101684341D01*
X147411419Y-101778064D01*
X147454773Y-101834287D01*
X147460848Y-101905023D01*
X147427716Y-101967815D01*
X147411419Y-101981936D01*
X147282421Y-102075658D01*
X147125658Y-102232421D01*
X146995345Y-102411781D01*
X146894693Y-102609322D01*
X146894690Y-102609328D01*
X146826183Y-102820170D01*
X146826182Y-102820175D01*
X146826182Y-102820176D01*
X146791500Y-103039149D01*
X146791500Y-103260851D01*
X146808438Y-103367793D01*
X146826183Y-103479829D01*
X146894690Y-103690671D01*
X146894692Y-103690676D01*
X146961385Y-103821568D01*
X146995345Y-103888218D01*
X147125658Y-104067578D01*
X147282421Y-104224341D01*
X147395228Y-104306300D01*
X147461785Y-104354657D01*
X147464303Y-104355940D01*
X147465088Y-104356681D01*
X147466003Y-104357242D01*
X147465885Y-104357434D01*
X147515920Y-104404683D01*
X147532991Y-104473597D01*
X147510094Y-104540800D01*
X147481168Y-104570145D01*
X147334533Y-104676682D01*
X147186681Y-104824534D01*
X147186679Y-104824537D01*
X147063767Y-104993710D01*
X146968832Y-105180031D01*
X146968831Y-105180033D01*
X146910299Y-105360176D01*
X146904212Y-105378909D01*
X146871500Y-105585445D01*
X146871500Y-105794555D01*
X146904212Y-106001091D01*
X146968831Y-106199967D01*
X147063765Y-106386286D01*
X147186677Y-106555460D01*
X147186679Y-106555462D01*
X147186681Y-106555465D01*
X147334534Y-106703318D01*
X147334537Y-106703320D01*
X147334540Y-106703323D01*
X147503714Y-106826235D01*
X147623002Y-106887015D01*
X147674616Y-106935762D01*
X147691682Y-107004677D01*
X147668781Y-107071879D01*
X147623002Y-107111547D01*
X147599938Y-107123299D01*
X147540398Y-107153636D01*
X147380139Y-107270071D01*
X147240071Y-107410139D01*
X147123636Y-107570398D01*
X147123634Y-107570402D01*
X147033702Y-107746903D01*
X146972488Y-107935300D01*
X146941500Y-108130954D01*
X146941500Y-108329046D01*
X146972488Y-108524700D01*
X147033702Y-108713097D01*
X147063041Y-108770677D01*
X147123636Y-108889601D01*
X147240071Y-109049860D01*
X147380139Y-109189928D01*
X147380142Y-109189930D01*
X147540402Y-109306366D01*
X147540412Y-109306371D01*
X147543623Y-109308339D01*
X147591256Y-109360986D01*
X147602864Y-109431027D01*
X147574763Y-109496225D01*
X147534995Y-109528040D01*
X147461784Y-109565343D01*
X147282421Y-109695658D01*
X147125658Y-109852421D01*
X146995345Y-110031781D01*
X146894693Y-110229322D01*
X146894690Y-110229328D01*
X146826183Y-110440170D01*
X146826182Y-110440175D01*
X146826182Y-110440176D01*
X146791500Y-110659149D01*
X146791500Y-110880851D01*
X146826182Y-111099824D01*
X146826183Y-111099829D01*
X146894690Y-111310671D01*
X146894692Y-111310676D01*
X146995343Y-111508215D01*
X146995345Y-111508218D01*
X147125658Y-111687578D01*
X147282421Y-111844341D01*
X147411419Y-111938064D01*
X147454773Y-111994287D01*
X147460848Y-112065023D01*
X147427716Y-112127815D01*
X147411419Y-112141936D01*
X147282421Y-112235658D01*
X147125658Y-112392421D01*
X146995345Y-112571781D01*
X146894693Y-112769322D01*
X146894690Y-112769328D01*
X146826183Y-112980170D01*
X146826182Y-112980175D01*
X146826182Y-112980176D01*
X146791500Y-113199149D01*
X146791500Y-113420851D01*
X146826182Y-113639824D01*
X146826183Y-113639829D01*
X146894690Y-113850671D01*
X146894692Y-113850676D01*
X146995343Y-114048215D01*
X146995345Y-114048218D01*
X147125658Y-114227578D01*
X147282421Y-114384341D01*
X147411419Y-114478064D01*
X147454773Y-114534287D01*
X147460848Y-114605023D01*
X147427716Y-114667815D01*
X147411419Y-114681936D01*
X147282421Y-114775658D01*
X147125658Y-114932421D01*
X146995345Y-115111781D01*
X146894693Y-115309322D01*
X146894690Y-115309328D01*
X146826183Y-115520170D01*
X146826182Y-115520175D01*
X146826182Y-115520176D01*
X146791500Y-115739149D01*
X146791500Y-115960851D01*
X146817096Y-116122457D01*
X146826183Y-116179829D01*
X146894690Y-116390671D01*
X146894692Y-116390676D01*
X146995343Y-116588215D01*
X146995345Y-116588218D01*
X147125658Y-116767578D01*
X147282421Y-116924341D01*
X147411419Y-117018064D01*
X147454773Y-117074287D01*
X147460848Y-117145023D01*
X147427716Y-117207815D01*
X147411419Y-117221936D01*
X147282421Y-117315658D01*
X147125658Y-117472421D01*
X146995345Y-117651781D01*
X146894693Y-117849322D01*
X146894690Y-117849328D01*
X146826183Y-118060170D01*
X146826182Y-118060175D01*
X146826182Y-118060176D01*
X146791500Y-118279149D01*
X146791500Y-118500851D01*
X146826182Y-118719824D01*
X146826183Y-118719829D01*
X146885209Y-118901491D01*
X146894692Y-118930676D01*
X146966085Y-119070792D01*
X146995345Y-119128218D01*
X147125658Y-119307578D01*
X147282421Y-119464341D01*
X147411419Y-119558064D01*
X147454773Y-119614287D01*
X147460848Y-119685023D01*
X147427716Y-119747815D01*
X147411419Y-119761936D01*
X147282421Y-119855658D01*
X147125658Y-120012421D01*
X146995345Y-120191781D01*
X146894693Y-120389322D01*
X146894690Y-120389328D01*
X146826183Y-120600170D01*
X146826182Y-120600175D01*
X146826182Y-120600176D01*
X146791500Y-120819149D01*
X146791500Y-121040851D01*
X146826182Y-121259824D01*
X146826183Y-121259829D01*
X146894690Y-121470671D01*
X146894692Y-121470676D01*
X146894693Y-121470677D01*
X146995345Y-121668218D01*
X147125658Y-121847578D01*
X147282421Y-122004341D01*
X147411419Y-122098064D01*
X147454773Y-122154287D01*
X147460848Y-122225023D01*
X147427716Y-122287815D01*
X147411419Y-122301936D01*
X147282421Y-122395658D01*
X147125658Y-122552421D01*
X146995345Y-122731781D01*
X146894693Y-122929322D01*
X146894690Y-122929328D01*
X146826183Y-123140170D01*
X146826182Y-123140175D01*
X146826182Y-123140176D01*
X146791500Y-123359149D01*
X146791500Y-123580851D01*
X146826182Y-123799824D01*
X146826183Y-123799829D01*
X146894690Y-124010671D01*
X146894692Y-124010676D01*
X146894693Y-124010677D01*
X146995345Y-124208218D01*
X147125658Y-124387578D01*
X147282421Y-124544341D01*
X147381332Y-124616204D01*
X147461785Y-124674657D01*
X147464303Y-124675940D01*
X147465088Y-124676681D01*
X147466003Y-124677242D01*
X147465885Y-124677434D01*
X147515920Y-124724683D01*
X147532991Y-124793597D01*
X147510094Y-124860800D01*
X147481168Y-124890145D01*
X147334533Y-124996682D01*
X147186681Y-125144534D01*
X147186679Y-125144537D01*
X147063767Y-125313710D01*
X147063765Y-125313714D01*
X146968831Y-125500033D01*
X146904212Y-125698909D01*
X146871500Y-125905445D01*
X146871500Y-126114555D01*
X146904212Y-126321091D01*
X146968831Y-126519967D01*
X147063765Y-126706286D01*
X147063767Y-126706289D01*
X147094155Y-126748114D01*
X147186677Y-126875460D01*
X147186679Y-126875462D01*
X147186681Y-126875465D01*
X147334534Y-127023318D01*
X147334537Y-127023320D01*
X147334540Y-127023323D01*
X147503714Y-127146235D01*
X147623002Y-127207015D01*
X147674616Y-127255762D01*
X147691682Y-127324677D01*
X147668781Y-127391879D01*
X147623002Y-127431547D01*
X147547438Y-127470048D01*
X147540398Y-127473636D01*
X147380139Y-127590071D01*
X147240071Y-127730139D01*
X147123636Y-127890398D01*
X147123634Y-127890402D01*
X147033702Y-128066903D01*
X146972488Y-128255300D01*
X146941500Y-128450954D01*
X146941500Y-128649046D01*
X146972488Y-128844700D01*
X147033702Y-129033097D01*
X147033703Y-129033098D01*
X147123636Y-129209601D01*
X147240071Y-129369860D01*
X147380139Y-129509928D01*
X147380142Y-129509930D01*
X147540402Y-129626366D01*
X147540412Y-129626371D01*
X147543623Y-129628339D01*
X147591256Y-129680986D01*
X147602864Y-129751027D01*
X147574763Y-129816225D01*
X147534995Y-129848040D01*
X147461784Y-129885343D01*
X147282421Y-130015658D01*
X147125658Y-130172421D01*
X146995345Y-130351781D01*
X146894693Y-130549322D01*
X146894690Y-130549328D01*
X146826183Y-130760170D01*
X146826182Y-130760175D01*
X146826182Y-130760176D01*
X146791500Y-130979149D01*
X146791500Y-131200851D01*
X146826182Y-131419824D01*
X146826183Y-131419829D01*
X146894690Y-131630671D01*
X146894692Y-131630676D01*
X146894693Y-131630677D01*
X146995345Y-131828218D01*
X147125658Y-132007578D01*
X147282421Y-132164341D01*
X147418649Y-132263317D01*
X147462003Y-132319540D01*
X147468078Y-132390276D01*
X147434946Y-132453068D01*
X147418649Y-132467189D01*
X147337760Y-132525958D01*
X147270892Y-132549817D01*
X147201740Y-132533736D01*
X147152260Y-132482822D01*
X147145642Y-132468050D01*
X147143352Y-132461910D01*
X147057189Y-132346810D01*
X146942089Y-132260647D01*
X146807371Y-132210400D01*
X146747840Y-132204000D01*
X146675000Y-132204000D01*
X146175000Y-132204000D01*
X146175000Y-132194102D01*
X146152879Y-132153592D01*
X146150000Y-132126809D01*
X146150000Y-109894000D01*
X124850000Y-109894000D01*
X124850000Y-119369500D01*
X124829998Y-119437621D01*
X124776342Y-119484114D01*
X124724000Y-119495500D01*
X124251362Y-119495500D01*
X124251359Y-119495500D01*
X124251337Y-119495501D01*
X124250151Y-119495629D01*
X124249878Y-119495579D01*
X124247989Y-119495681D01*
X124247965Y-119495234D01*
X124180285Y-119483012D01*
X124128331Y-119434625D01*
X124110784Y-119365831D01*
X124118650Y-119326312D01*
X124121489Y-119318701D01*
X124128000Y-119258138D01*
X124128000Y-117521862D01*
X124127999Y-117521850D01*
X124121490Y-117461303D01*
X124121488Y-117461295D01*
X124092424Y-117383375D01*
X124070389Y-117324296D01*
X124070388Y-117324294D01*
X124070387Y-117324292D01*
X123982761Y-117207238D01*
X123865707Y-117119612D01*
X123865702Y-117119610D01*
X123728704Y-117068511D01*
X123728696Y-117068509D01*
X123668149Y-117062000D01*
X123668138Y-117062000D01*
X123499079Y-117062000D01*
X123430958Y-117041998D01*
X123384465Y-116988342D01*
X123374361Y-116918068D01*
X123403855Y-116853488D01*
X123425018Y-116834064D01*
X123516530Y-116767576D01*
X123557970Y-116737468D01*
X123687468Y-116607970D01*
X123795115Y-116459807D01*
X123878258Y-116296629D01*
X123934851Y-116122454D01*
X123963500Y-115941569D01*
X123963500Y-115758431D01*
X123934851Y-115577546D01*
X123878258Y-115403371D01*
X123795115Y-115240193D01*
X123701818Y-115111781D01*
X123687466Y-115092027D01*
X123557972Y-114962533D01*
X123409810Y-114854887D01*
X123409809Y-114854886D01*
X123409807Y-114854885D01*
X123246629Y-114771742D01*
X123179028Y-114749777D01*
X123120422Y-114709703D01*
X123092786Y-114644306D01*
X123104893Y-114574349D01*
X123152900Y-114522043D01*
X123179022Y-114510113D01*
X123283097Y-114476298D01*
X123459598Y-114386366D01*
X123619858Y-114269930D01*
X123759930Y-114129858D01*
X123876366Y-113969598D01*
X123966298Y-113793097D01*
X124027512Y-113604700D01*
X124058500Y-113409046D01*
X124058500Y-113210954D01*
X124027512Y-113015300D01*
X123966298Y-112826903D01*
X123876366Y-112650402D01*
X123759930Y-112490142D01*
X123759928Y-112490139D01*
X123619860Y-112350071D01*
X123459601Y-112233636D01*
X123459600Y-112233635D01*
X123459598Y-112233634D01*
X123299902Y-112152265D01*
X123248290Y-112103519D01*
X123231224Y-112034604D01*
X123254125Y-111967402D01*
X123299902Y-111927735D01*
X123459598Y-111846366D01*
X123619858Y-111729930D01*
X123759930Y-111589858D01*
X123876366Y-111429598D01*
X123966298Y-111253097D01*
X124027512Y-111064700D01*
X124058500Y-110869046D01*
X124058500Y-110670954D01*
X124027512Y-110475300D01*
X123966298Y-110286903D01*
X123876366Y-110110402D01*
X123759930Y-109950142D01*
X123759928Y-109950139D01*
X123619860Y-109810071D01*
X123459598Y-109693634D01*
X123456372Y-109691657D01*
X123408741Y-109639009D01*
X123397135Y-109568968D01*
X123425239Y-109503770D01*
X123465003Y-109471960D01*
X123538215Y-109434657D01*
X123717576Y-109304343D01*
X123874343Y-109147576D01*
X124004657Y-108968215D01*
X124105308Y-108770676D01*
X124173818Y-108559824D01*
X124208500Y-108340851D01*
X124208500Y-108119149D01*
X124173818Y-107900176D01*
X124105308Y-107689324D01*
X124004657Y-107491785D01*
X123874343Y-107312424D01*
X123874341Y-107312421D01*
X123717581Y-107155661D01*
X123717578Y-107155659D01*
X123717577Y-107155658D01*
X123717576Y-107155657D01*
X123588579Y-107061934D01*
X123545226Y-107005714D01*
X123539151Y-106934978D01*
X123572282Y-106872186D01*
X123588576Y-106858067D01*
X123717576Y-106764343D01*
X123874343Y-106607576D01*
X124004657Y-106428215D01*
X124105308Y-106230676D01*
X124173818Y-106019824D01*
X124208500Y-105800851D01*
X124208500Y-105579149D01*
X124173818Y-105360176D01*
X124105308Y-105149324D01*
X124004657Y-104951785D01*
X123912208Y-104824540D01*
X123874341Y-104772421D01*
X123834729Y-104732809D01*
X123800703Y-104670497D01*
X123805768Y-104599682D01*
X123848315Y-104542846D01*
X123879785Y-104525662D01*
X123946204Y-104500889D01*
X124063261Y-104413261D01*
X124105053Y-104357434D01*
X124150887Y-104296207D01*
X124150887Y-104296206D01*
X124150889Y-104296204D01*
X124201989Y-104159201D01*
X124208500Y-104098638D01*
X124208500Y-102201362D01*
X124208499Y-102201350D01*
X124201990Y-102140803D01*
X124201988Y-102140795D01*
X124153945Y-102011989D01*
X124150889Y-102003796D01*
X124114741Y-101955508D01*
X124089931Y-101888989D01*
X124105022Y-101819615D01*
X124114742Y-101804490D01*
X124123953Y-101792186D01*
X124150889Y-101756204D01*
X124201989Y-101619201D01*
X124208500Y-101558638D01*
X124208500Y-99661362D01*
X124208499Y-99661350D01*
X124201990Y-99600803D01*
X124201988Y-99600795D01*
X124172924Y-99522875D01*
X124150889Y-99463796D01*
X124114741Y-99415508D01*
X124089931Y-99348989D01*
X124105022Y-99279615D01*
X124114742Y-99264490D01*
X124150889Y-99216204D01*
X124201989Y-99079201D01*
X124208500Y-99018638D01*
X124208500Y-97121362D01*
X124208499Y-97121350D01*
X124201990Y-97060803D01*
X124201988Y-97060795D01*
X124172924Y-96982875D01*
X124150889Y-96923796D01*
X124114741Y-96875508D01*
X124089931Y-96808989D01*
X124105022Y-96739615D01*
X124114742Y-96724490D01*
X124150889Y-96676204D01*
X124201989Y-96539201D01*
X124208500Y-96478638D01*
X124208500Y-94581362D01*
X124208499Y-94581350D01*
X124201990Y-94520803D01*
X124201988Y-94520795D01*
X124172924Y-94442875D01*
X124150889Y-94383796D01*
X124114741Y-94335508D01*
X124089931Y-94268989D01*
X124105022Y-94199615D01*
X124114742Y-94184490D01*
X124150889Y-94136204D01*
X124201989Y-93999201D01*
X124208500Y-93938638D01*
X124208500Y-92041362D01*
X124208499Y-92041350D01*
X124201990Y-91980803D01*
X124201988Y-91980795D01*
X124172924Y-91902875D01*
X124150889Y-91843796D01*
X124114741Y-91795508D01*
X124089931Y-91728989D01*
X124105022Y-91659615D01*
X124114742Y-91644490D01*
X124150889Y-91596204D01*
X124201989Y-91459201D01*
X124208500Y-91398638D01*
X124208500Y-89501362D01*
X124208499Y-89501350D01*
X124201990Y-89440803D01*
X124201988Y-89440795D01*
X124172924Y-89362875D01*
X124150889Y-89303796D01*
X124114741Y-89255508D01*
X124089931Y-89188989D01*
X124105022Y-89119615D01*
X124114742Y-89104490D01*
X124150889Y-89056204D01*
X124201989Y-88919201D01*
X124208500Y-88858638D01*
X124208500Y-86961362D01*
X124208499Y-86961350D01*
X124201990Y-86900803D01*
X124201988Y-86900795D01*
X124150889Y-86763797D01*
X124150887Y-86763792D01*
X124063261Y-86646738D01*
X123946208Y-86559113D01*
X123946205Y-86559112D01*
X123946204Y-86559111D01*
X123879788Y-86534338D01*
X123822956Y-86491794D01*
X123798145Y-86425274D01*
X123813237Y-86355899D01*
X123834730Y-86327189D01*
X123874341Y-86287578D01*
X123874343Y-86287576D01*
X124004657Y-86108215D01*
X124105308Y-85910676D01*
X124173818Y-85699824D01*
X124208500Y-85480851D01*
X124208500Y-85259149D01*
X124173818Y-85040176D01*
X124105308Y-84829324D01*
X124004657Y-84631785D01*
X123874343Y-84452424D01*
X123874342Y-84452423D01*
X123874341Y-84452421D01*
X123834729Y-84412809D01*
X123800703Y-84350497D01*
X123805768Y-84279682D01*
X123848315Y-84222846D01*
X123879785Y-84205662D01*
X123946204Y-84180889D01*
X123956273Y-84173352D01*
X124063261Y-84093261D01*
X124150887Y-83976207D01*
X124150887Y-83976206D01*
X124150889Y-83976204D01*
X124201989Y-83839201D01*
X124208500Y-83778638D01*
X124208500Y-81881362D01*
X124202186Y-81822628D01*
X124201990Y-81820803D01*
X124201988Y-81820795D01*
X124150889Y-81683797D01*
X124150887Y-81683792D01*
X124063261Y-81566738D01*
X123946207Y-81479112D01*
X123946202Y-81479110D01*
X123809204Y-81428011D01*
X123809196Y-81428009D01*
X123748649Y-81421500D01*
X123748638Y-81421500D01*
X121851362Y-81421500D01*
X121851350Y-81421500D01*
X121790803Y-81428009D01*
X121790795Y-81428011D01*
X121653797Y-81479110D01*
X121653792Y-81479112D01*
X121536738Y-81566738D01*
X121449112Y-81683792D01*
X121449110Y-81683797D01*
X121398011Y-81820795D01*
X121398009Y-81820803D01*
X121391500Y-81881350D01*
X121391500Y-83778649D01*
X121398009Y-83839196D01*
X121398011Y-83839204D01*
X121449110Y-83976202D01*
X121449112Y-83976207D01*
X121536738Y-84093261D01*
X121653792Y-84180887D01*
X121653794Y-84180887D01*
X121653796Y-84180889D01*
X121720210Y-84205660D01*
X121777043Y-84248204D01*
X121801854Y-84314725D01*
X121786763Y-84384099D01*
X121765271Y-84412808D01*
X121725658Y-84452421D01*
X121595345Y-84631781D01*
X121494693Y-84829322D01*
X121494690Y-84829328D01*
X121426183Y-85040170D01*
X121426182Y-85040175D01*
X121426182Y-85040176D01*
X121391500Y-85259149D01*
X121391500Y-85480851D01*
X121426182Y-85699824D01*
X121426183Y-85699829D01*
X121494690Y-85910671D01*
X121494692Y-85910676D01*
X121494693Y-85910677D01*
X121595345Y-86108218D01*
X121725658Y-86287578D01*
X121765270Y-86327190D01*
X121799296Y-86389502D01*
X121794231Y-86460317D01*
X121751684Y-86517153D01*
X121720208Y-86534340D01*
X121653797Y-86559110D01*
X121653792Y-86559112D01*
X121536738Y-86646738D01*
X121449112Y-86763792D01*
X121449110Y-86763797D01*
X121398011Y-86900795D01*
X121398009Y-86900803D01*
X121391500Y-86961350D01*
X121391500Y-88858649D01*
X121398009Y-88919196D01*
X121398011Y-88919204D01*
X121449110Y-89056202D01*
X121449112Y-89056206D01*
X121485258Y-89104492D01*
X121510068Y-89171012D01*
X121494976Y-89240386D01*
X121485258Y-89255508D01*
X121449112Y-89303793D01*
X121449110Y-89303797D01*
X121398011Y-89440795D01*
X121398009Y-89440803D01*
X121391500Y-89501350D01*
X121391500Y-91398649D01*
X121398009Y-91459196D01*
X121398011Y-91459204D01*
X121449110Y-91596202D01*
X121449112Y-91596206D01*
X121485258Y-91644492D01*
X121510068Y-91711012D01*
X121494976Y-91780386D01*
X121485258Y-91795508D01*
X121449112Y-91843793D01*
X121449110Y-91843797D01*
X121398011Y-91980795D01*
X121398009Y-91980803D01*
X121391500Y-92041350D01*
X121391500Y-92205500D01*
X121371498Y-92273621D01*
X121317842Y-92320114D01*
X121265500Y-92331500D01*
X119934150Y-92331500D01*
X119866029Y-92311498D01*
X119845055Y-92294595D01*
X118494769Y-90944309D01*
X118460743Y-90881997D01*
X118464031Y-90816276D01*
X118467818Y-90804624D01*
X118502500Y-90585651D01*
X118502500Y-90363949D01*
X118467818Y-90144976D01*
X118399308Y-89934124D01*
X118298657Y-89736585D01*
X118168343Y-89557224D01*
X118168341Y-89557221D01*
X118011581Y-89400461D01*
X118011578Y-89400459D01*
X118011576Y-89400457D01*
X117882579Y-89306734D01*
X117839226Y-89250514D01*
X117833151Y-89179778D01*
X117866282Y-89116986D01*
X117882576Y-89102867D01*
X118011576Y-89009143D01*
X118168343Y-88852376D01*
X118298657Y-88673015D01*
X118399308Y-88475476D01*
X118467818Y-88264624D01*
X118502500Y-88045651D01*
X118502500Y-87823949D01*
X118467818Y-87604976D01*
X118399308Y-87394124D01*
X118298657Y-87196585D01*
X118168343Y-87017224D01*
X118168341Y-87017221D01*
X118011578Y-86860458D01*
X117832218Y-86730145D01*
X117832217Y-86730144D01*
X117832215Y-86730143D01*
X117634676Y-86629492D01*
X117634673Y-86629491D01*
X117634671Y-86629490D01*
X117423829Y-86560983D01*
X117423825Y-86560982D01*
X117423824Y-86560982D01*
X117204851Y-86526300D01*
X116983149Y-86526300D01*
X116764176Y-86560982D01*
X116764170Y-86560983D01*
X116553328Y-86629490D01*
X116553322Y-86629493D01*
X116355781Y-86730145D01*
X116176421Y-86860458D01*
X116019658Y-87017221D01*
X115889345Y-87196581D01*
X115788693Y-87394122D01*
X115788690Y-87394128D01*
X115720183Y-87604970D01*
X115720182Y-87604975D01*
X115720182Y-87604976D01*
X115685500Y-87823949D01*
X115685500Y-88045651D01*
X115708621Y-88191633D01*
X115720182Y-88264626D01*
X115723969Y-88276279D01*
X115725995Y-88347247D01*
X115693230Y-88404308D01*
X114093312Y-90004226D01*
X114093309Y-90004230D01*
X114059367Y-90055030D01*
X114059366Y-90055031D01*
X114021245Y-90112082D01*
X113971607Y-90231919D01*
X113971606Y-90231922D01*
X113946300Y-90359139D01*
X113946300Y-111570860D01*
X113969517Y-111687576D01*
X113971606Y-111698077D01*
X114021245Y-111817917D01*
X114093309Y-111925769D01*
X114093313Y-111925773D01*
X117087645Y-114920105D01*
X117121671Y-114982417D01*
X117116606Y-115053232D01*
X117074059Y-115110068D01*
X117007539Y-115134879D01*
X116998550Y-115135200D01*
X116983821Y-115135200D01*
X116766160Y-115169674D01*
X116556591Y-115237767D01*
X116556585Y-115237770D01*
X116360243Y-115337811D01*
X116296485Y-115384132D01*
X116964590Y-116052237D01*
X116901007Y-116069275D01*
X116786993Y-116135101D01*
X116693901Y-116228193D01*
X116628075Y-116342207D01*
X116611037Y-116405790D01*
X115942932Y-115737685D01*
X115896611Y-115801443D01*
X115796570Y-115997785D01*
X115796567Y-115997791D01*
X115728474Y-116207360D01*
X115694000Y-116425021D01*
X115694000Y-116645378D01*
X115728474Y-116863039D01*
X115796567Y-117072608D01*
X115796570Y-117072614D01*
X115896615Y-117268963D01*
X115942931Y-117332713D01*
X115942933Y-117332713D01*
X116611037Y-116664609D01*
X116628075Y-116728193D01*
X116693901Y-116842207D01*
X116786993Y-116935299D01*
X116901007Y-117001125D01*
X116964590Y-117018162D01*
X116352959Y-117629795D01*
X116290646Y-117663820D01*
X116263863Y-117666700D01*
X116145350Y-117666700D01*
X116084803Y-117673209D01*
X116084795Y-117673211D01*
X115947797Y-117724310D01*
X115947792Y-117724312D01*
X115830738Y-117811938D01*
X115743112Y-117928992D01*
X115743110Y-117928997D01*
X115692011Y-118065995D01*
X115692009Y-118066003D01*
X115685500Y-118126550D01*
X115685500Y-120023849D01*
X115692009Y-120084396D01*
X115692011Y-120084404D01*
X115743110Y-120221402D01*
X115743112Y-120221407D01*
X115830738Y-120338461D01*
X115947792Y-120426087D01*
X115947794Y-120426088D01*
X115947796Y-120426089D01*
X116006875Y-120448124D01*
X116084795Y-120477188D01*
X116084803Y-120477190D01*
X116145350Y-120483699D01*
X116145355Y-120483699D01*
X116145362Y-120483700D01*
X116145368Y-120483700D01*
X118042632Y-120483700D01*
X118042638Y-120483700D01*
X118042645Y-120483699D01*
X118042649Y-120483699D01*
X118103196Y-120477190D01*
X118103199Y-120477189D01*
X118103201Y-120477189D01*
X118240204Y-120426089D01*
X118357261Y-120338461D01*
X118444889Y-120221404D01*
X118495989Y-120084401D01*
X118502500Y-120023838D01*
X118502500Y-118126562D01*
X118502137Y-118123184D01*
X118495990Y-118066003D01*
X118495988Y-118065995D01*
X118444889Y-117928997D01*
X118444887Y-117928992D01*
X118357261Y-117811938D01*
X118240207Y-117724312D01*
X118240202Y-117724310D01*
X118103204Y-117673211D01*
X118103196Y-117673209D01*
X118042649Y-117666700D01*
X118042638Y-117666700D01*
X117924137Y-117666700D01*
X117856016Y-117646698D01*
X117835041Y-117629795D01*
X117223409Y-117018162D01*
X117286993Y-117001125D01*
X117401007Y-116935299D01*
X117494099Y-116842207D01*
X117559925Y-116728193D01*
X117576962Y-116664609D01*
X118245065Y-117332713D01*
X118245067Y-117332713D01*
X118291384Y-117268963D01*
X118391429Y-117072614D01*
X118391432Y-117072608D01*
X118459525Y-116863039D01*
X118494000Y-116645378D01*
X118494000Y-116630650D01*
X118514002Y-116562529D01*
X118567658Y-116516036D01*
X118637932Y-116505932D01*
X118702512Y-116535426D01*
X118709095Y-116541555D01*
X121069031Y-118901491D01*
X121176883Y-118973555D01*
X121296723Y-119023194D01*
X121370582Y-119037885D01*
X121433491Y-119070792D01*
X121468623Y-119132487D01*
X121472000Y-119161464D01*
X121472000Y-119258149D01*
X121478509Y-119318696D01*
X121478511Y-119318704D01*
X121529610Y-119455702D01*
X121529612Y-119455707D01*
X121557904Y-119493500D01*
X121582715Y-119560020D01*
X121567623Y-119629394D01*
X121541868Y-119659125D01*
X121543110Y-119660367D01*
X121536740Y-119666736D01*
X121449112Y-119783792D01*
X121449110Y-119783797D01*
X121398011Y-119920795D01*
X121398009Y-119920803D01*
X121391500Y-119981350D01*
X121391500Y-121878649D01*
X121398009Y-121939196D01*
X121398011Y-121939204D01*
X121449110Y-122076202D01*
X121449112Y-122076206D01*
X121485258Y-122124492D01*
X121510068Y-122191012D01*
X121494976Y-122260386D01*
X121485258Y-122275508D01*
X121449112Y-122323793D01*
X121449110Y-122323797D01*
X121398011Y-122460795D01*
X121398009Y-122460803D01*
X121391500Y-122521350D01*
X121391500Y-124418649D01*
X121398009Y-124479196D01*
X121398011Y-124479204D01*
X121449110Y-124616202D01*
X121449112Y-124616206D01*
X121485258Y-124664492D01*
X121510068Y-124731012D01*
X121494976Y-124800386D01*
X121485258Y-124815508D01*
X121449112Y-124863793D01*
X121449110Y-124863797D01*
X121398011Y-125000795D01*
X121398009Y-125000803D01*
X121391500Y-125061350D01*
X121391500Y-126958649D01*
X121398009Y-127019196D01*
X121398011Y-127019204D01*
X121449110Y-127156202D01*
X121449112Y-127156206D01*
X121485258Y-127204492D01*
X121510068Y-127271012D01*
X121494976Y-127340386D01*
X121485258Y-127355508D01*
X121449112Y-127403793D01*
X121449110Y-127403797D01*
X121398011Y-127540795D01*
X121398009Y-127540803D01*
X121391500Y-127601350D01*
X121391500Y-129498649D01*
X121398009Y-129559196D01*
X121398011Y-129559204D01*
X121449110Y-129696202D01*
X121449112Y-129696207D01*
X121536738Y-129813261D01*
X121653792Y-129900887D01*
X121653794Y-129900887D01*
X121653796Y-129900889D01*
X121720210Y-129925660D01*
X121777043Y-129968204D01*
X121801854Y-130034725D01*
X121786763Y-130104099D01*
X121765271Y-130132808D01*
X121725658Y-130172421D01*
X121595345Y-130351781D01*
X121494693Y-130549322D01*
X121494690Y-130549328D01*
X121426183Y-130760170D01*
X121426182Y-130760175D01*
X121426182Y-130760176D01*
X121391500Y-130979149D01*
X121391500Y-131200851D01*
X121426182Y-131419824D01*
X121426183Y-131419829D01*
X121494690Y-131630671D01*
X121494692Y-131630676D01*
X121494693Y-131630677D01*
X121595345Y-131828218D01*
X121725658Y-132007578D01*
X121765270Y-132047190D01*
X121799296Y-132109502D01*
X121794231Y-132180317D01*
X121751684Y-132237153D01*
X121720208Y-132254340D01*
X121653797Y-132279110D01*
X121653792Y-132279112D01*
X121536738Y-132366738D01*
X121449112Y-132483792D01*
X121449110Y-132483797D01*
X121398011Y-132620795D01*
X121398009Y-132620803D01*
X121391500Y-132681350D01*
X121391500Y-134578649D01*
X121398009Y-134639196D01*
X121398011Y-134639204D01*
X121449110Y-134776202D01*
X121449112Y-134776207D01*
X121490566Y-134831582D01*
X121515377Y-134898102D01*
X121500286Y-134967476D01*
X121490567Y-134982599D01*
X121456647Y-135027910D01*
X121406400Y-135162628D01*
X121400000Y-135222159D01*
X121400000Y-135920000D01*
X122366988Y-135920000D01*
X122334075Y-135977007D01*
X122300000Y-136104174D01*
X122300000Y-136235826D01*
X122334075Y-136362993D01*
X122366988Y-136420000D01*
X121400000Y-136420000D01*
X121400000Y-137117840D01*
X121406400Y-137177371D01*
X121456647Y-137312089D01*
X121542810Y-137427189D01*
X121657910Y-137513352D01*
X121792628Y-137563599D01*
X121852159Y-137569999D01*
X121852176Y-137570000D01*
X122550000Y-137570000D01*
X122550000Y-136603012D01*
X122607007Y-136635925D01*
X122734174Y-136670000D01*
X122865826Y-136670000D01*
X122992993Y-136635925D01*
X123050000Y-136603012D01*
X123050000Y-137570000D01*
X123747824Y-137570000D01*
X123747840Y-137569999D01*
X123807371Y-137563599D01*
X123942089Y-137513352D01*
X124057189Y-137427189D01*
X124143352Y-137312089D01*
X124193599Y-137177371D01*
X124199999Y-137117840D01*
X124200000Y-137117823D01*
X124200000Y-136420000D01*
X123233012Y-136420000D01*
X123265925Y-136362993D01*
X123300000Y-136235826D01*
X123300000Y-136104174D01*
X123265925Y-135977007D01*
X123233012Y-135920000D01*
X124200000Y-135920000D01*
X124200000Y-135222176D01*
X124199999Y-135222159D01*
X124193599Y-135162630D01*
X124192737Y-135158982D01*
X124192893Y-135156063D01*
X124192756Y-135154786D01*
X124192962Y-135154763D01*
X124196534Y-135088087D01*
X124238058Y-135030499D01*
X124304123Y-135004502D01*
X124315359Y-135004000D01*
X124325000Y-135004000D01*
X124325000Y-132204000D01*
X124252159Y-132204000D01*
X124192627Y-132210400D01*
X124057908Y-132260647D01*
X124050006Y-132264963D01*
X124049136Y-132263370D01*
X123992845Y-132284360D01*
X123939838Y-132276736D01*
X123896701Y-132260647D01*
X123879792Y-132254340D01*
X123822956Y-132211795D01*
X123798145Y-132145275D01*
X123813236Y-132075901D01*
X123834730Y-132047189D01*
X123874341Y-132007578D01*
X123874343Y-132007576D01*
X124004657Y-131828215D01*
X124105308Y-131630676D01*
X124173818Y-131419824D01*
X124208500Y-131200851D01*
X124208500Y-130979149D01*
X124173818Y-130760176D01*
X124105308Y-130549324D01*
X124004657Y-130351785D01*
X123874343Y-130172424D01*
X123874341Y-130172421D01*
X123834729Y-130132809D01*
X123800703Y-130070497D01*
X123805768Y-129999682D01*
X123848315Y-129942846D01*
X123879785Y-129925662D01*
X123946204Y-129900889D01*
X123966969Y-129885345D01*
X124063261Y-129813261D01*
X124150887Y-129696207D01*
X124150887Y-129696206D01*
X124150889Y-129696204D01*
X124201989Y-129559201D01*
X124208500Y-129498638D01*
X124208500Y-127601362D01*
X124207286Y-127590070D01*
X124201990Y-127540803D01*
X124201988Y-127540795D01*
X124150889Y-127403797D01*
X124150889Y-127403796D01*
X124135847Y-127383702D01*
X124114741Y-127355508D01*
X124089931Y-127288989D01*
X124105022Y-127219615D01*
X124114742Y-127204490D01*
X124150889Y-127156204D01*
X124200453Y-127023320D01*
X124201988Y-127019204D01*
X124201990Y-127019196D01*
X124208499Y-126958649D01*
X124208500Y-126958632D01*
X124208500Y-126779137D01*
X124228502Y-126711016D01*
X124282158Y-126664523D01*
X124309914Y-126655558D01*
X124372077Y-126643194D01*
X124491917Y-126593555D01*
X124599769Y-126521491D01*
X124634905Y-126486354D01*
X124697215Y-126452330D01*
X124768031Y-126457394D01*
X124824867Y-126499940D01*
X124849679Y-126566460D01*
X124850000Y-126575450D01*
X124850000Y-132126809D01*
X124829998Y-132194930D01*
X124825000Y-132201131D01*
X124825000Y-135013897D01*
X124847121Y-135054408D01*
X124850000Y-135081191D01*
X124850000Y-136144000D01*
X124848766Y-137312089D01*
X124847933Y-138100933D01*
X124827859Y-138169033D01*
X124774154Y-138215469D01*
X124721933Y-138226800D01*
X113123804Y-138226800D01*
X113055683Y-138206798D01*
X113009190Y-138153142D01*
X112997804Y-138100796D01*
X112997806Y-138050000D01*
X112997941Y-134178709D01*
X115149500Y-134178709D01*
X115149500Y-134421290D01*
X115181160Y-134661782D01*
X115243944Y-134896095D01*
X115243945Y-134896097D01*
X115243946Y-134896100D01*
X115336776Y-135120212D01*
X115336777Y-135120213D01*
X115336782Y-135120224D01*
X115458061Y-135330285D01*
X115458063Y-135330288D01*
X115458064Y-135330289D01*
X115605735Y-135522738D01*
X115605739Y-135522742D01*
X115605744Y-135522748D01*
X115777251Y-135694255D01*
X115777256Y-135694259D01*
X115777262Y-135694265D01*
X115936492Y-135816446D01*
X115969714Y-135841938D01*
X116179775Y-135963217D01*
X116179779Y-135963218D01*
X116179788Y-135963224D01*
X116403900Y-136056054D01*
X116638211Y-136118838D01*
X116638215Y-136118838D01*
X116638217Y-136118839D01*
X116700202Y-136126999D01*
X116878712Y-136150500D01*
X116878719Y-136150500D01*
X117121281Y-136150500D01*
X117121288Y-136150500D01*
X117338637Y-136121885D01*
X117361782Y-136118839D01*
X117361782Y-136118838D01*
X117361789Y-136118838D01*
X117596100Y-136056054D01*
X117820212Y-135963224D01*
X118030289Y-135841936D01*
X118222738Y-135694265D01*
X118394265Y-135522738D01*
X118541936Y-135330289D01*
X118663224Y-135120212D01*
X118756054Y-134896100D01*
X118818838Y-134661789D01*
X118850500Y-134421288D01*
X118850500Y-134178712D01*
X118818838Y-133938211D01*
X118756054Y-133703900D01*
X118663224Y-133479788D01*
X118663218Y-133479779D01*
X118663217Y-133479775D01*
X118541938Y-133269714D01*
X118541936Y-133269711D01*
X118394265Y-133077262D01*
X118394259Y-133077256D01*
X118394255Y-133077251D01*
X118222748Y-132905744D01*
X118222742Y-132905739D01*
X118222738Y-132905735D01*
X118030289Y-132758064D01*
X118030288Y-132758063D01*
X118030285Y-132758061D01*
X117820224Y-132636782D01*
X117820216Y-132636778D01*
X117820212Y-132636776D01*
X117596100Y-132543946D01*
X117596097Y-132543945D01*
X117596095Y-132543944D01*
X117361782Y-132481160D01*
X117121290Y-132449500D01*
X117121288Y-132449500D01*
X116878712Y-132449500D01*
X116878709Y-132449500D01*
X116638217Y-132481160D01*
X116403904Y-132543944D01*
X116403900Y-132543946D01*
X116218351Y-132620803D01*
X116179786Y-132636777D01*
X116179775Y-132636782D01*
X115969714Y-132758061D01*
X115777262Y-132905735D01*
X115777251Y-132905744D01*
X115605744Y-133077251D01*
X115605735Y-133077262D01*
X115458061Y-133269714D01*
X115336782Y-133479775D01*
X115336777Y-133479786D01*
X115243946Y-133703900D01*
X115243944Y-133703904D01*
X115181160Y-133938217D01*
X115149500Y-134178709D01*
X112997941Y-134178709D01*
X112997971Y-133302160D01*
X112998500Y-118123184D01*
X112998559Y-116420063D01*
X112999869Y-78778709D01*
X115149500Y-78778709D01*
X115149500Y-79021290D01*
X115181160Y-79261782D01*
X115243944Y-79496095D01*
X115243945Y-79496097D01*
X115243946Y-79496100D01*
X115336776Y-79720212D01*
X115336777Y-79720213D01*
X115336782Y-79720224D01*
X115458061Y-79930285D01*
X115458063Y-79930288D01*
X115458064Y-79930289D01*
X115605735Y-80122738D01*
X115605739Y-80122742D01*
X115605744Y-80122748D01*
X115777251Y-80294255D01*
X115777256Y-80294259D01*
X115777262Y-80294265D01*
X115969711Y-80441936D01*
X115969714Y-80441938D01*
X116179775Y-80563217D01*
X116179779Y-80563218D01*
X116179788Y-80563224D01*
X116403900Y-80656054D01*
X116638211Y-80718838D01*
X116638215Y-80718838D01*
X116638217Y-80718839D01*
X116700202Y-80726999D01*
X116878712Y-80750500D01*
X116878719Y-80750500D01*
X117121281Y-80750500D01*
X117121288Y-80750500D01*
X117338637Y-80721885D01*
X117361782Y-80718839D01*
X117361782Y-80718838D01*
X117361789Y-80718838D01*
X117596100Y-80656054D01*
X117820212Y-80563224D01*
X118030289Y-80441936D01*
X118222738Y-80294265D01*
X118394265Y-80122738D01*
X118541936Y-79930289D01*
X118663224Y-79720212D01*
X118756054Y-79496100D01*
X118818838Y-79261789D01*
X118850500Y-79021288D01*
X118850500Y-78778712D01*
X118850500Y-78778709D01*
X152149500Y-78778709D01*
X152149500Y-79021290D01*
X152181160Y-79261782D01*
X152243944Y-79496095D01*
X152243945Y-79496097D01*
X152243946Y-79496100D01*
X152336776Y-79720212D01*
X152336777Y-79720213D01*
X152336782Y-79720224D01*
X152458061Y-79930285D01*
X152458063Y-79930288D01*
X152458064Y-79930289D01*
X152605735Y-80122738D01*
X152605739Y-80122742D01*
X152605744Y-80122748D01*
X152777251Y-80294255D01*
X152777256Y-80294259D01*
X152777262Y-80294265D01*
X152969711Y-80441936D01*
X152969714Y-80441938D01*
X153179775Y-80563217D01*
X153179779Y-80563218D01*
X153179788Y-80563224D01*
X153403900Y-80656054D01*
X153638211Y-80718838D01*
X153638215Y-80718838D01*
X153638217Y-80718839D01*
X153700202Y-80726999D01*
X153878712Y-80750500D01*
X153878719Y-80750500D01*
X154121281Y-80750500D01*
X154121288Y-80750500D01*
X154338637Y-80721885D01*
X154361782Y-80718839D01*
X154361782Y-80718838D01*
X154361789Y-80718838D01*
X154596100Y-80656054D01*
X154820212Y-80563224D01*
X155030289Y-80441936D01*
X155222738Y-80294265D01*
X155394265Y-80122738D01*
X155541936Y-79930289D01*
X155663224Y-79720212D01*
X155756054Y-79496100D01*
X155818838Y-79261789D01*
X155850500Y-79021288D01*
X155850500Y-78778712D01*
X155818838Y-78538211D01*
X155756054Y-78303900D01*
X155663224Y-78079788D01*
X155663218Y-78079779D01*
X155663217Y-78079775D01*
X155541938Y-77869714D01*
X155541936Y-77869711D01*
X155394265Y-77677262D01*
X155394259Y-77677256D01*
X155394255Y-77677251D01*
X155222748Y-77505744D01*
X155222742Y-77505739D01*
X155222738Y-77505735D01*
X155030289Y-77358064D01*
X155030288Y-77358063D01*
X155030285Y-77358061D01*
X154820224Y-77236782D01*
X154820216Y-77236778D01*
X154820212Y-77236776D01*
X154596100Y-77143946D01*
X154596097Y-77143945D01*
X154596095Y-77143944D01*
X154361782Y-77081160D01*
X154121290Y-77049500D01*
X154121288Y-77049500D01*
X153878712Y-77049500D01*
X153878709Y-77049500D01*
X153638217Y-77081160D01*
X153403904Y-77143944D01*
X153403900Y-77143946D01*
X153179786Y-77236777D01*
X153179775Y-77236782D01*
X152969714Y-77358061D01*
X152777262Y-77505735D01*
X152777251Y-77505744D01*
X152605744Y-77677251D01*
X152605735Y-77677262D01*
X152458061Y-77869714D01*
X152336782Y-78079775D01*
X152336777Y-78079786D01*
X152243946Y-78303900D01*
X152243944Y-78303904D01*
X152181160Y-78538217D01*
X152149500Y-78778709D01*
X118850500Y-78778709D01*
X118818838Y-78538211D01*
X118756054Y-78303900D01*
X118663224Y-78079788D01*
X118663218Y-78079779D01*
X118663217Y-78079775D01*
X118541938Y-77869714D01*
X118541936Y-77869711D01*
X118394265Y-77677262D01*
X118394259Y-77677256D01*
X118394255Y-77677251D01*
X118222748Y-77505744D01*
X118222742Y-77505739D01*
X118222738Y-77505735D01*
X118030289Y-77358064D01*
X118030288Y-77358063D01*
X118030285Y-77358061D01*
X117820224Y-77236782D01*
X117820216Y-77236778D01*
X117820212Y-77236776D01*
X117596100Y-77143946D01*
X117596097Y-77143945D01*
X117596095Y-77143944D01*
X117361782Y-77081160D01*
X117121290Y-77049500D01*
X117121288Y-77049500D01*
X116878712Y-77049500D01*
X116878709Y-77049500D01*
X116638217Y-77081160D01*
X116403904Y-77143944D01*
X116403900Y-77143946D01*
X116179786Y-77236777D01*
X116179775Y-77236782D01*
X115969714Y-77358061D01*
X115777262Y-77505735D01*
X115777251Y-77505744D01*
X115605744Y-77677251D01*
X115605735Y-77677262D01*
X115458061Y-77869714D01*
X115336782Y-78079775D01*
X115336777Y-78079786D01*
X115243946Y-78303900D01*
X115243944Y-78303904D01*
X115181160Y-78538217D01*
X115149500Y-78778709D01*
X112999869Y-78778709D01*
X112999869Y-78774583D01*
X112999996Y-75125996D01*
X113020000Y-75057876D01*
X113073658Y-75011385D01*
X113125996Y-75000000D01*
X157874000Y-75000000D01*
X157942121Y-75020002D01*
G37*
%TD.AperFunction*%
%TA.AperFunction,Conductor*%
G36*
X115603532Y-90460693D02*
G01*
X115660368Y-90503240D01*
X115685179Y-90569760D01*
X115685500Y-90578749D01*
X115685500Y-90585651D01*
X115697253Y-90659854D01*
X115720183Y-90804629D01*
X115747828Y-90889711D01*
X115788692Y-91015476D01*
X115889343Y-91213015D01*
X115889345Y-91213018D01*
X116019658Y-91392378D01*
X116176421Y-91549141D01*
X116305419Y-91642864D01*
X116348773Y-91699087D01*
X116354848Y-91769823D01*
X116321716Y-91832615D01*
X116305419Y-91846736D01*
X116176421Y-91940458D01*
X116019658Y-92097221D01*
X115889345Y-92276581D01*
X115788693Y-92474122D01*
X115788690Y-92474128D01*
X115720183Y-92684970D01*
X115720182Y-92684975D01*
X115720182Y-92684976D01*
X115685500Y-92903949D01*
X115685500Y-93125651D01*
X115716254Y-93319824D01*
X115720183Y-93344629D01*
X115771150Y-93501488D01*
X115788692Y-93555476D01*
X115889343Y-93753015D01*
X115889345Y-93753018D01*
X116019658Y-93932378D01*
X116176421Y-94089141D01*
X116305419Y-94182864D01*
X116348773Y-94239087D01*
X116354848Y-94309823D01*
X116321716Y-94372615D01*
X116305419Y-94386736D01*
X116176421Y-94480458D01*
X116019658Y-94637221D01*
X115889345Y-94816581D01*
X115788693Y-95014122D01*
X115788690Y-95014128D01*
X115720183Y-95224970D01*
X115720182Y-95224975D01*
X115720182Y-95224976D01*
X115685500Y-95443949D01*
X115685500Y-95665651D01*
X115716254Y-95859824D01*
X115720183Y-95884629D01*
X115780632Y-96070671D01*
X115788692Y-96095476D01*
X115889343Y-96293015D01*
X115889345Y-96293018D01*
X116019658Y-96472378D01*
X116176421Y-96629141D01*
X116305419Y-96722864D01*
X116348773Y-96779087D01*
X116354848Y-96849823D01*
X116321716Y-96912615D01*
X116305419Y-96926736D01*
X116176421Y-97020458D01*
X116019658Y-97177221D01*
X115889345Y-97356581D01*
X115788693Y-97554122D01*
X115788690Y-97554128D01*
X115720183Y-97764970D01*
X115720182Y-97764975D01*
X115720182Y-97764976D01*
X115685500Y-97983949D01*
X115685500Y-98205651D01*
X115716254Y-98399824D01*
X115720183Y-98424629D01*
X115780632Y-98610671D01*
X115788692Y-98635476D01*
X115889343Y-98833015D01*
X115889345Y-98833018D01*
X116019658Y-99012378D01*
X116176421Y-99169141D01*
X116305419Y-99262864D01*
X116348773Y-99319087D01*
X116354848Y-99389823D01*
X116321716Y-99452615D01*
X116305419Y-99466736D01*
X116176421Y-99560458D01*
X116019658Y-99717221D01*
X115889345Y-99896581D01*
X115788693Y-100094122D01*
X115788690Y-100094128D01*
X115720183Y-100304970D01*
X115720182Y-100304975D01*
X115720182Y-100304976D01*
X115685500Y-100523949D01*
X115685500Y-100745651D01*
X115716254Y-100939824D01*
X115720183Y-100964629D01*
X115747828Y-101049711D01*
X115788692Y-101175476D01*
X115889343Y-101373015D01*
X115889345Y-101373018D01*
X116019658Y-101552378D01*
X116176421Y-101709141D01*
X116312648Y-101808116D01*
X116356002Y-101864339D01*
X116362077Y-101935075D01*
X116328945Y-101997866D01*
X116312647Y-102011989D01*
X116296485Y-102023730D01*
X116296485Y-102023732D01*
X116964590Y-102691837D01*
X116901007Y-102708875D01*
X116786993Y-102774701D01*
X116693901Y-102867793D01*
X116628075Y-102981807D01*
X116611037Y-103045390D01*
X115942932Y-102377285D01*
X115896611Y-102441043D01*
X115796570Y-102637385D01*
X115796567Y-102637391D01*
X115728474Y-102846960D01*
X115694000Y-103064621D01*
X115694000Y-103284978D01*
X115728474Y-103502639D01*
X115796567Y-103712208D01*
X115796570Y-103712214D01*
X115896615Y-103908563D01*
X115942931Y-103972313D01*
X115942933Y-103972313D01*
X116611037Y-103304209D01*
X116628075Y-103367793D01*
X116693901Y-103481807D01*
X116786993Y-103574899D01*
X116901007Y-103640725D01*
X116964590Y-103657762D01*
X116352959Y-104269395D01*
X116290646Y-104303420D01*
X116263863Y-104306300D01*
X116145350Y-104306300D01*
X116084803Y-104312809D01*
X116084795Y-104312811D01*
X115947797Y-104363910D01*
X115947792Y-104363912D01*
X115830738Y-104451538D01*
X115743112Y-104568592D01*
X115743110Y-104568597D01*
X115692011Y-104705595D01*
X115692009Y-104705603D01*
X115685500Y-104766150D01*
X115685500Y-106663449D01*
X115692009Y-106723996D01*
X115692011Y-106724004D01*
X115743110Y-106861002D01*
X115743112Y-106861007D01*
X115830738Y-106978061D01*
X115947792Y-107065687D01*
X115947794Y-107065688D01*
X115947796Y-107065689D01*
X116006875Y-107087724D01*
X116084795Y-107116788D01*
X116084803Y-107116790D01*
X116145350Y-107123299D01*
X116145355Y-107123299D01*
X116145362Y-107123300D01*
X116145368Y-107123300D01*
X118042632Y-107123300D01*
X118042638Y-107123300D01*
X118042645Y-107123299D01*
X118042649Y-107123299D01*
X118103196Y-107116790D01*
X118103199Y-107116789D01*
X118103201Y-107116789D01*
X118240204Y-107065689D01*
X118242859Y-107063702D01*
X118357261Y-106978061D01*
X118444887Y-106861007D01*
X118444887Y-106861006D01*
X118444889Y-106861004D01*
X118495989Y-106724001D01*
X118498213Y-106703320D01*
X118502499Y-106663449D01*
X118502500Y-106663432D01*
X118502500Y-104766167D01*
X118502499Y-104766150D01*
X118495990Y-104705603D01*
X118495988Y-104705595D01*
X118462442Y-104615657D01*
X118444889Y-104568596D01*
X118444888Y-104568594D01*
X118444887Y-104568592D01*
X118357261Y-104451538D01*
X118240207Y-104363912D01*
X118240202Y-104363910D01*
X118103204Y-104312811D01*
X118103196Y-104312809D01*
X118042649Y-104306300D01*
X118042638Y-104306300D01*
X117924137Y-104306300D01*
X117856016Y-104286298D01*
X117835041Y-104269395D01*
X117223409Y-103657762D01*
X117286993Y-103640725D01*
X117401007Y-103574899D01*
X117494099Y-103481807D01*
X117559925Y-103367793D01*
X117576962Y-103304209D01*
X118245065Y-103972313D01*
X118245067Y-103972313D01*
X118291384Y-103908563D01*
X118391429Y-103712214D01*
X118391432Y-103712208D01*
X118459525Y-103502639D01*
X118494000Y-103284978D01*
X118494000Y-103270249D01*
X118514002Y-103202128D01*
X118567658Y-103155635D01*
X118637932Y-103145531D01*
X118702512Y-103175025D01*
X118709084Y-103181144D01*
X119500254Y-103972313D01*
X121374351Y-105846410D01*
X121408377Y-105908722D01*
X121409705Y-105915793D01*
X121426183Y-106019830D01*
X121484714Y-106199967D01*
X121494692Y-106230676D01*
X121573981Y-106386289D01*
X121595345Y-106428218D01*
X121725658Y-106607578D01*
X121882421Y-106764341D01*
X122011419Y-106858064D01*
X122054773Y-106914287D01*
X122060848Y-106985023D01*
X122027716Y-107047815D01*
X122011419Y-107061936D01*
X121882421Y-107155658D01*
X121725658Y-107312421D01*
X121595345Y-107491781D01*
X121494693Y-107689322D01*
X121494690Y-107689328D01*
X121426183Y-107900170D01*
X121426182Y-107900175D01*
X121426182Y-107900176D01*
X121391500Y-108119149D01*
X121391500Y-108340851D01*
X121426182Y-108559824D01*
X121426183Y-108559829D01*
X121494690Y-108770671D01*
X121494692Y-108770676D01*
X121595343Y-108968215D01*
X121595345Y-108968218D01*
X121725658Y-109147578D01*
X121882421Y-109304341D01*
X121882424Y-109304343D01*
X122061785Y-109434657D01*
X122134993Y-109471958D01*
X122186609Y-109520706D01*
X122203675Y-109589621D01*
X122180775Y-109656822D01*
X122143633Y-109691653D01*
X122140406Y-109693630D01*
X121980139Y-109810071D01*
X121840071Y-109950139D01*
X121723636Y-110110398D01*
X121723634Y-110110402D01*
X121633702Y-110286903D01*
X121572488Y-110475300D01*
X121541500Y-110670954D01*
X121541500Y-110869046D01*
X121572488Y-111064700D01*
X121633702Y-111253097D01*
X121663041Y-111310677D01*
X121723636Y-111429601D01*
X121840071Y-111589860D01*
X121980139Y-111729928D01*
X121980142Y-111729930D01*
X122140402Y-111846366D01*
X122300094Y-111927733D01*
X122351709Y-111976481D01*
X122368775Y-112045396D01*
X122345874Y-112112598D01*
X122300095Y-112152266D01*
X122155568Y-112225906D01*
X122140398Y-112233636D01*
X121980139Y-112350071D01*
X121840071Y-112490139D01*
X121723636Y-112650398D01*
X121723634Y-112650402D01*
X121633702Y-112826903D01*
X121572488Y-113015300D01*
X121541500Y-113210954D01*
X121541500Y-113409046D01*
X121572488Y-113604700D01*
X121633702Y-113793097D01*
X121663041Y-113850677D01*
X121723636Y-113969601D01*
X121840071Y-114129860D01*
X121980139Y-114269928D01*
X121980142Y-114269930D01*
X122140402Y-114386366D01*
X122316903Y-114476298D01*
X122420971Y-114510111D01*
X122479576Y-114550184D01*
X122507213Y-114615581D01*
X122495106Y-114685538D01*
X122447100Y-114737844D01*
X122420971Y-114749777D01*
X122353371Y-114771742D01*
X122353369Y-114771742D01*
X122353369Y-114771743D01*
X122190189Y-114854887D01*
X122042027Y-114962533D01*
X121912533Y-115092027D01*
X121804887Y-115240189D01*
X121721743Y-115403369D01*
X121721742Y-115403371D01*
X121683790Y-115520176D01*
X121665149Y-115577546D01*
X121636500Y-115758431D01*
X121636500Y-115941569D01*
X121665149Y-116122454D01*
X121721742Y-116296629D01*
X121769662Y-116390677D01*
X121804887Y-116459810D01*
X121912533Y-116607972D01*
X122042027Y-116737466D01*
X122174982Y-116834064D01*
X122218336Y-116890287D01*
X122224411Y-116961023D01*
X122191279Y-117023815D01*
X122129459Y-117058726D01*
X122100921Y-117062000D01*
X121931850Y-117062000D01*
X121871303Y-117068509D01*
X121871295Y-117068511D01*
X121734297Y-117119610D01*
X121734292Y-117119612D01*
X121617238Y-117207239D01*
X121541722Y-117308115D01*
X121484886Y-117350661D01*
X121414071Y-117355725D01*
X121351760Y-117321700D01*
X115300205Y-111270145D01*
X115266179Y-111207833D01*
X115263300Y-111181050D01*
X115263300Y-90748949D01*
X115283302Y-90680828D01*
X115300205Y-90659854D01*
X115470405Y-90489654D01*
X115532717Y-90455628D01*
X115603532Y-90460693D01*
G37*
%TD.AperFunction*%
%TD*%
M02*
