%TF.GenerationSoftware,KiCad,Pcbnew,10.0.6-1.fc44*%
%TF.CreationDate,2026-09-14T14:41:21+07:00*%
%TF.ProjectId,LuckFox RAP Shield,4c75636b-466f-4782-9052-415020536869,rev?*%
%TF.SameCoordinates,Original*%
%TF.FileFunction,Copper,L1,Top*%
%TF.FilePolarity,Positive*%
%FSLAX46Y46*%
G04 Gerber Fmt 4.6, Leading zero omitted, Abs format (unit mm)*
G04 Created by KiCad (PCBNEW 10.0.6-1.fc44) date 2026-09-14 14:41:21*
%MOMM*%
%LPD*%
G01*
G04 APERTURE LIST*
%TA.AperFunction,ComponentPad*%
%ADD10R,1.800000X1.800000*%
%TD*%
%TA.AperFunction,ComponentPad*%
%ADD11R,1.639000X1.639000*%
%TD*%
%TA.AperFunction,ComponentPad*%
%ADD12C,1.800000*%
%TD*%
%TA.AperFunction,ComponentPad*%
%ADD13C,1.640000*%
%TD*%
%TA.AperFunction,ComponentPad*%
%ADD14C,1.580000*%
%TD*%
%TA.AperFunction,ComponentPad*%
%ADD15C,1.310000*%
%TD*%
%TA.AperFunction,SMDPad,CuDef*%
%ADD16R,1.250000X1.800000*%
%TD*%
%TA.AperFunction,Conductor*%
%ADD17C,0.300000*%
%TD*%
G04 APERTURE END LIST*
D10*
%TO.P,B2,1,5V_1*%
%TO.N,+5V_RAIL*%
X122800000Y-133630000D03*
%TO.P,B2,2,3V3_2*%
%TO.N,+3V3_RAIL*%
X122800000Y-82830000D03*
%TO.P,B2,3,GND_3*%
%TO.N,GND*%
X122800000Y-136170000D03*
%TO.P,B2,4,EN_4*%
%TO.N,unconnected-(B2-EN-Pad4)*%
X122800000Y-87910000D03*
%TO.P,B2,5,GPIO4_MOSI_ETH_5*%
%TO.N,Net-(B2-GPIO4_MOSI_ETH)*%
X122800000Y-90450000D03*
%TO.P,B2,6,GPIO5_MISO_ETH_6*%
%TO.N,Net-(B2-GPIO5_MISO_ETH)*%
X122800000Y-92990000D03*
%TO.P,B2,7,GPIO6_SCK_ETH_7*%
%TO.N,Net-(B2-GPIO6_SCK_ETH)*%
X122800000Y-95530000D03*
%TO.P,B2,8,GPIO7_CS_ETH_8*%
%TO.N,Net-(B2-GPIO7_CS_ETH)*%
X122800000Y-98070000D03*
D11*
%TO.P,B2,9,GPIO9_INT_ETH_9*%
%TO.N,Net-(B2-GPIO9_INT_ETH)*%
X122800000Y-118390000D03*
D10*
%TO.P,B2,10,GPIO10_CS_LF_10*%
%TO.N,Net-(B2-GPIO10_CS_LF)*%
X122800000Y-120930000D03*
%TO.P,B2,11,GPIO11_MOSI_LF_11*%
%TO.N,Net-(B2-GPIO11_MOSI_LF)*%
X122800000Y-123470000D03*
%TO.P,B2,12,GPIO12_SCK_LF_12*%
%TO.N,Net-(B2-GPIO12_SCK_LF)*%
X122800000Y-126010000D03*
%TO.P,B2,13,GPIO13_MISO_LF_13*%
%TO.N,Net-(B2-GPIO13_MISO_LF)*%
X122800000Y-128550000D03*
%TO.P,B2,14,GPIO15_DATA_RDY_IN_14*%
%TO.N,Net-(B2-GPIO15_DATA_RDY_IN)*%
X122800000Y-100610000D03*
%TO.P,B2,15,GPIO16_SLAVE_RDY_OUT_15*%
%TO.N,Net-(B2-GPIO16_SLAVE_RDY_OUT)*%
X122800000Y-103150000D03*
%TO.P,B2,16,GND_16*%
%TO.N,GND*%
X148200000Y-82830000D03*
D12*
%TO.P,B2,17,3V3_17*%
%TO.N,unconnected-(B2-3V3-Pad17)*%
X122800000Y-85370000D03*
%TO.P,B2,18,GPIO17_18*%
%TO.N,Net-(B2-GPIO17)*%
X122800000Y-105690000D03*
%TO.P,B2,19,GPIO18_19*%
%TO.N,unconnected-(B2-GPIO18-Pad19)*%
X122800000Y-108230000D03*
D13*
%TO.P,B2,20,GPIO8_20*%
%TO.N,unconnected-(B2-GPIO8-Pad20)*%
X122800000Y-110770000D03*
D14*
%TO.P,B2,21,GPIO3_21*%
%TO.N,unconnected-(B2-GPIO3-Pad21)*%
X122800000Y-113310000D03*
D15*
%TO.P,B2,22,GPIO46_22*%
%TO.N,unconnected-(B2-GPIO46-Pad22)*%
X122800000Y-115850000D03*
D12*
%TO.P,B2,23,GPIO14_23*%
%TO.N,unconnected-(B2-GPIO14-Pad23)*%
X122800000Y-131090000D03*
%TO.P,B2,24,GPIO43_24*%
%TO.N,unconnected-(B2-GPIO43-Pad24)*%
X148200000Y-85370000D03*
%TO.P,B2,25,GPIO44_25*%
%TO.N,unconnected-(B2-GPIO44-Pad25)*%
X148200000Y-87910000D03*
%TO.P,B2,26,GPIO1_26*%
%TO.N,unconnected-(B2-GPIO1-Pad26)*%
X148200000Y-90450000D03*
%TO.P,B2,27,GPIO2_27*%
%TO.N,unconnected-(B2-GPIO2-Pad27)*%
X148200000Y-92990000D03*
%TO.P,B2,28,GPIO42_28*%
%TO.N,unconnected-(B2-GPIO42-Pad28)*%
X148200000Y-95530000D03*
%TO.P,B2,29,GPIO41_29*%
%TO.N,unconnected-(B2-GPIO41-Pad29)*%
X148200000Y-98070000D03*
%TO.P,B2,30,GPIO40_30*%
%TO.N,unconnected-(B2-GPIO40-Pad30)*%
X148200000Y-100610000D03*
%TO.P,B2,31,GPIO39_31*%
%TO.N,unconnected-(B2-GPIO39-Pad31)*%
X148200000Y-103150000D03*
D13*
%TO.P,B2,32,GPIO38_32*%
%TO.N,unconnected-(B2-GPIO38-Pad32)*%
X148200000Y-105690000D03*
D14*
%TO.P,B2,33,GPIO37_33*%
%TO.N,unconnected-(B2-GPIO37-Pad33)*%
X148200000Y-108230000D03*
D12*
%TO.P,B2,34,GPIO36_34*%
%TO.N,unconnected-(B2-GPIO36-Pad34)*%
X148200000Y-110770000D03*
%TO.P,B2,35,GPIO35_35*%
%TO.N,unconnected-(B2-GPIO35-Pad35)*%
X148200000Y-113310000D03*
%TO.P,B2,36,GPIO0_36*%
%TO.N,unconnected-(B2-GPIO0-Pad36)*%
X148200000Y-115850000D03*
%TO.P,B2,37,GPIO45_37*%
%TO.N,unconnected-(B2-GPIO45-Pad37)*%
X148200000Y-118390000D03*
%TO.P,B2,38,GPIO48_38*%
%TO.N,unconnected-(B2-GPIO48-Pad38)*%
X148200000Y-120930000D03*
%TO.P,B2,39,GPIO47_39*%
%TO.N,unconnected-(B2-GPIO47-Pad39)*%
X148200000Y-123470000D03*
D13*
%TO.P,B2,40,GPIO21_40*%
%TO.N,unconnected-(B2-GPIO21-Pad40)*%
X148200000Y-126010000D03*
D14*
%TO.P,B2,41,GPIO20_41*%
%TO.N,unconnected-(B2-GPIO20-Pad41)*%
X148200000Y-128550000D03*
D12*
%TO.P,B2,42,GPIO19_42*%
%TO.N,unconnected-(B2-GPIO19-Pad42)*%
X148200000Y-131090000D03*
%TO.P,B2,43,GND_43*%
%TO.N,GND*%
X148200000Y-133630000D03*
%TO.P,B2,44,GND_44*%
X148200000Y-136170000D03*
%TD*%
D10*
%TO.P,U2,1,VCC_3V3_1*%
%TO.N,+3V3_RAIL*%
X117094000Y-105714800D03*
D12*
%TO.P,U2,2,GND_2*%
%TO.N,GND*%
X117094000Y-103174800D03*
%TO.P,U2,3,RST_3*%
%TO.N,Net-(B2-GPIO17)*%
X117094000Y-100634800D03*
%TO.P,U2,4,CS_4*%
%TO.N,Net-(B2-GPIO7_CS_ETH)*%
X117094000Y-98094800D03*
%TO.P,U2,5,SCK_5*%
%TO.N,Net-(B2-GPIO6_SCK_ETH)*%
X117094000Y-95554800D03*
%TO.P,U2,6,MOSI_6*%
%TO.N,Net-(B2-GPIO4_MOSI_ETH)*%
X117094000Y-93014800D03*
%TO.P,U2,7,MISO_7*%
%TO.N,Net-(B2-GPIO5_MISO_ETH)*%
X117094000Y-90474800D03*
%TO.P,U2,8,INT_8*%
%TO.N,Net-(B2-GPIO9_INT_ETH)*%
X117094000Y-87934800D03*
%TD*%
D10*
%TO.P,J2,1,5V_IN_1*%
%TO.N,+5V_RAIL*%
X117094000Y-119075200D03*
D12*
%TO.P,J2,2,GND_IN_2*%
%TO.N,GND*%
X117094000Y-116535200D03*
%TD*%
D16*
%TO.P,J1,1,VBUS_1*%
%TO.N,+5V_RAIL*%
X124875000Y-136144000D03*
%TO.P,J1,3,3V3_OUT_3*%
%TO.N,unconnected-(J1-3V3_OUT-Pad3)*%
X124875000Y-131064000D03*
%TO.P,J1,4,GPIO1_B2_d_4*%
%TO.N,unconnected-(J1-GPIO1_B2_d-Pad4)*%
X124875000Y-128524000D03*
%TO.P,J1,5,GPIO1_B3_u_5*%
%TO.N,unconnected-(J1-GPIO1_B3_u-Pad5)*%
X124875000Y-125984000D03*
%TO.P,J1,6,GPIO1_C0_d_SPI0_CS0_6*%
%TO.N,Net-(B2-GPIO10_CS_LF)*%
X124875000Y-123444000D03*
%TO.P,J1,8,GPIO1_C2_d_SPI0_MOSI_8*%
%TO.N,Net-(B2-GPIO11_MOSI_LF)*%
X124875000Y-118364000D03*
%TO.P,J1,9,GPIO1_C3_d_SPI0_MISO_9*%
%TO.N,Net-(B2-GPIO13_MISO_LF)*%
X124875000Y-115824000D03*
%TO.P,J1,10,GPIO1_C4_d_DATA_RDY_10*%
%TO.N,Net-(B2-GPIO15_DATA_RDY_IN)*%
X124875000Y-113284000D03*
%TO.P,J1,11,GPIO1_C5_d_11*%
%TO.N,unconnected-(J1-GPIO1_C5_d-Pad11)*%
X124875000Y-110744000D03*
%TO.P,J1,12,GPIO1_D0_d_12*%
%TO.N,unconnected-(J1-GPIO1_D0_d-Pad12)*%
X146125000Y-110744000D03*
%TO.P,J1,13,GPIO1_D1_d_13*%
%TO.N,unconnected-(J1-GPIO1_D1_d-Pad13)*%
X146125000Y-113284000D03*
%TO.P,J1,14,GPIO1_D2_d_14*%
%TO.N,unconnected-(J1-GPIO1_D2_d-Pad14)*%
X146125000Y-115824000D03*
%TO.P,J1,15,GPIO1_D3_d_15*%
%TO.N,unconnected-(J1-GPIO1_D3_d-Pad15)*%
X146125000Y-118364000D03*
%TO.P,J1,16,GPIO1_C6_d_16*%
%TO.N,unconnected-(J1-GPIO1_C6_d-Pad16)*%
X146125000Y-120904000D03*
%TO.P,J1,17,GPIO1_C7_d_17*%
%TO.N,unconnected-(J1-GPIO1_C7_d-Pad17)*%
X146125000Y-123444000D03*
%TO.P,J1,18,GPIO0_A4_d_SLAVE_RDY_18*%
%TO.N,Net-(B2-GPIO16_SLAVE_RDY_OUT)*%
X146125000Y-125984000D03*
%TO.P,J1,19,GPIO4_C0_z_19*%
%TO.N,unconnected-(J1-GPIO4_C0_z-Pad19)*%
X146125000Y-128524000D03*
%TO.P,J1,20,GPIO4_C1_z_20*%
%TO.N,unconnected-(J1-GPIO4_C1_z-Pad20)*%
X146125000Y-131064000D03*
%TO.P,J1,22,1V8_OUT_22*%
%TO.N,unconnected-(J1-1V8_OUT-Pad22)*%
X146125000Y-136144000D03*
%TD*%
%TO.N,+5V_RAIL*%
D17*
X122800000Y-133630000D02*
X117094000Y-127924000D01*
X124875000Y-134019000D02*
X124875000Y-136144000D01*
X122800000Y-133630000D02*
X124486000Y-133630000D01*
X124486000Y-133630000D02*
X124875000Y-134019000D01*
X117094000Y-127924000D02*
X117094000Y-119075200D01*
%TO.N,+3V3_RAIL*%
X122800000Y-82830000D02*
X118033200Y-82830000D01*
X118033200Y-82830000D02*
X115062000Y-85801200D01*
X115062000Y-85801200D02*
X115062000Y-103682800D01*
X115062000Y-103682800D02*
X117094000Y-105714800D01*
%TO.N,Net-(B2-GPIO4_MOSI_ETH)*%
X119658800Y-90450000D02*
X117094000Y-93014800D01*
X122800000Y-90450000D02*
X119658800Y-90450000D01*
%TO.N,Net-(B2-GPIO6_SCK_ETH)*%
X122800000Y-95530000D02*
X117118800Y-95530000D01*
X117118800Y-95530000D02*
X117094000Y-95554800D01*
%TO.N,Net-(B2-GPIO7_CS_ETH)*%
X117118800Y-98070000D02*
X117094000Y-98094800D01*
X122800000Y-98070000D02*
X117118800Y-98070000D01*
%TO.N,Net-(B2-GPIO10_CS_LF)*%
X124875000Y-121400000D02*
X124405000Y-120930000D01*
X124405000Y-120930000D02*
X122800000Y-120930000D01*
X124875000Y-123444000D02*
X124875000Y-121400000D01*
%TO.N,Net-(B2-GPIO11_MOSI_LF)*%
X120796000Y-117913200D02*
X120796000Y-123082000D01*
X121184000Y-123470000D02*
X122800000Y-123470000D01*
X124875000Y-118364000D02*
X124875000Y-118169400D01*
X121754200Y-116955000D02*
X120796000Y-117913200D01*
X124875000Y-118169400D02*
X123660600Y-116955000D01*
X120796000Y-123082000D02*
X121184000Y-123470000D01*
X123660600Y-116955000D02*
X121754200Y-116955000D01*
%TO.N,Net-(B2-GPIO13_MISO_LF)*%
X124774000Y-115824000D02*
X123550000Y-114600000D01*
X121184000Y-128550000D02*
X120040400Y-127406400D01*
X120040400Y-116433600D02*
X121874000Y-114600000D01*
X122800000Y-128550000D02*
X121184000Y-128550000D01*
X124875000Y-115824000D02*
X124774000Y-115824000D01*
X121874000Y-114600000D02*
X123550000Y-114600000D01*
X124575000Y-115824000D02*
X124575000Y-115634200D01*
X120040400Y-127406400D02*
X120040400Y-116433600D01*
X124575000Y-115634200D02*
X124575000Y-115920000D01*
%TO.N,Net-(B2-GPIO15_DATA_RDY_IN)*%
X120751600Y-101193600D02*
X120751600Y-111455200D01*
X124875000Y-113284000D02*
X124875000Y-113255000D01*
X124875000Y-113255000D02*
X123684800Y-112064800D01*
X121361200Y-112064800D02*
X123684800Y-112064800D01*
X121361200Y-112064800D02*
X120751600Y-111455200D01*
X122800000Y-100610000D02*
X121335200Y-100610000D01*
X121335200Y-100610000D02*
X120751600Y-101193600D01*
%TO.N,Net-(B2-GPIO16_SLAVE_RDY_OUT)*%
X149902816Y-108081115D02*
X149902816Y-126179216D01*
X146125000Y-126109800D02*
X147320000Y-127304800D01*
X148777232Y-127304800D02*
X147320000Y-127304800D01*
X148806501Y-106984800D02*
X149902816Y-108081115D01*
X146125000Y-125984000D02*
X146125000Y-126109800D01*
X122800000Y-103150000D02*
X126634800Y-106984800D01*
X149902816Y-126179216D02*
X148777232Y-127304800D01*
X126634800Y-106984800D02*
X148806501Y-106984800D01*
%TD*%
%TA.AperFunction,Conductor*%
%TO.N,GND*%
G36*
X157942121Y-75020002D02*
G01*
X157988614Y-75073658D01*
X158000000Y-75126000D01*
X158000000Y-138049990D01*
X157979998Y-138118111D01*
X157926342Y-138164604D01*
X157873990Y-138175990D01*
X145301098Y-138175009D01*
X145232979Y-138155002D01*
X145186490Y-138101342D01*
X145175108Y-138048901D01*
X145175453Y-137647031D01*
X145195514Y-137578931D01*
X145249209Y-137532484D01*
X145319492Y-137522441D01*
X145345484Y-137529087D01*
X145362744Y-137535525D01*
X145390798Y-137545989D01*
X145390803Y-137545990D01*
X145451350Y-137552499D01*
X145451355Y-137552499D01*
X145451362Y-137552500D01*
X145451368Y-137552500D01*
X146798632Y-137552500D01*
X146798638Y-137552500D01*
X146798645Y-137552499D01*
X146798649Y-137552499D01*
X146859196Y-137545990D01*
X146859199Y-137545989D01*
X146859201Y-137545989D01*
X146859585Y-137545846D01*
X146895409Y-137532484D01*
X146996204Y-137494889D01*
X147113261Y-137407261D01*
X147182505Y-137314761D01*
X147239340Y-137272215D01*
X147310156Y-137267150D01*
X147357434Y-137288335D01*
X147466236Y-137367384D01*
X147662585Y-137467429D01*
X147662591Y-137467432D01*
X147872162Y-137535525D01*
X147872158Y-137535525D01*
X148089821Y-137570000D01*
X148310179Y-137570000D01*
X148527839Y-137535525D01*
X148737408Y-137467432D01*
X148737414Y-137467429D01*
X148933763Y-137367384D01*
X148997513Y-137321067D01*
X148997513Y-137321066D01*
X148264089Y-136587643D01*
X148362114Y-136561378D01*
X148457886Y-136506084D01*
X148536084Y-136427886D01*
X148591378Y-136332114D01*
X148617642Y-136234090D01*
X149351065Y-136967513D01*
X149351067Y-136967513D01*
X149397384Y-136903763D01*
X149497429Y-136707414D01*
X149497432Y-136707408D01*
X149565525Y-136497839D01*
X149600000Y-136280178D01*
X149600000Y-136059821D01*
X149565525Y-135842160D01*
X149497432Y-135632591D01*
X149497429Y-135632585D01*
X149397387Y-135436241D01*
X149397386Y-135436240D01*
X149351066Y-135372485D01*
X148617642Y-136105909D01*
X148591378Y-136007886D01*
X148536084Y-135912114D01*
X148457886Y-135833916D01*
X148362114Y-135778622D01*
X148264087Y-135752356D01*
X148997513Y-135018932D01*
X148997513Y-135018931D01*
X148974121Y-135001936D01*
X148930767Y-134945714D01*
X148924690Y-134874978D01*
X148957821Y-134812186D01*
X148974121Y-134798062D01*
X148997513Y-134781066D01*
X148997513Y-134781065D01*
X148264090Y-134047642D01*
X148362114Y-134021378D01*
X148457886Y-133966084D01*
X148536084Y-133887886D01*
X148591378Y-133792114D01*
X148617642Y-133694090D01*
X149351065Y-134427513D01*
X149351067Y-134427513D01*
X149397384Y-134363763D01*
X149491674Y-134178709D01*
X152149500Y-134178709D01*
X152149500Y-134421290D01*
X152181160Y-134661782D01*
X152243944Y-134896095D01*
X152243945Y-134896097D01*
X152243946Y-134896100D01*
X152336776Y-135120212D01*
X152336777Y-135120213D01*
X152336782Y-135120224D01*
X152458061Y-135330285D01*
X152458063Y-135330288D01*
X152458064Y-135330289D01*
X152605735Y-135522738D01*
X152605739Y-135522742D01*
X152605744Y-135522748D01*
X152777251Y-135694255D01*
X152777256Y-135694259D01*
X152777262Y-135694265D01*
X152969711Y-135841936D01*
X152969714Y-135841938D01*
X153179775Y-135963217D01*
X153179779Y-135963218D01*
X153179788Y-135963224D01*
X153403900Y-136056054D01*
X153638211Y-136118838D01*
X153638215Y-136118838D01*
X153638217Y-136118839D01*
X153700202Y-136126999D01*
X153878712Y-136150500D01*
X153878719Y-136150500D01*
X154121281Y-136150500D01*
X154121288Y-136150500D01*
X154338637Y-136121885D01*
X154361782Y-136118839D01*
X154361782Y-136118838D01*
X154361789Y-136118838D01*
X154596100Y-136056054D01*
X154820212Y-135963224D01*
X155030289Y-135841936D01*
X155222738Y-135694265D01*
X155394265Y-135522738D01*
X155541936Y-135330289D01*
X155663224Y-135120212D01*
X155756054Y-134896100D01*
X155818838Y-134661789D01*
X155850500Y-134421288D01*
X155850500Y-134178712D01*
X155824807Y-133983553D01*
X155818839Y-133938217D01*
X155818838Y-133938215D01*
X155818838Y-133938211D01*
X155756054Y-133703900D01*
X155663224Y-133479788D01*
X155663218Y-133479779D01*
X155663217Y-133479775D01*
X155541938Y-133269714D01*
X155541936Y-133269711D01*
X155394265Y-133077262D01*
X155394259Y-133077256D01*
X155394255Y-133077251D01*
X155222748Y-132905744D01*
X155222742Y-132905739D01*
X155222738Y-132905735D01*
X155030289Y-132758064D01*
X155030288Y-132758063D01*
X155030285Y-132758061D01*
X154820224Y-132636782D01*
X154820216Y-132636778D01*
X154820212Y-132636776D01*
X154596100Y-132543946D01*
X154596097Y-132543945D01*
X154596095Y-132543944D01*
X154361782Y-132481160D01*
X154121290Y-132449500D01*
X154121288Y-132449500D01*
X153878712Y-132449500D01*
X153878709Y-132449500D01*
X153638217Y-132481160D01*
X153403904Y-132543944D01*
X153403900Y-132543946D01*
X153238121Y-132612614D01*
X153179786Y-132636777D01*
X153179775Y-132636782D01*
X152969714Y-132758061D01*
X152777262Y-132905735D01*
X152777251Y-132905744D01*
X152605744Y-133077251D01*
X152605735Y-133077262D01*
X152458061Y-133269714D01*
X152336782Y-133479775D01*
X152336777Y-133479786D01*
X152243946Y-133703900D01*
X152243944Y-133703904D01*
X152181160Y-133938217D01*
X152149500Y-134178709D01*
X149491674Y-134178709D01*
X149497429Y-134167414D01*
X149497430Y-134167411D01*
X149507751Y-134135650D01*
X149507751Y-134135649D01*
X149565525Y-133957839D01*
X149600000Y-133740178D01*
X149600000Y-133519821D01*
X149565525Y-133302160D01*
X149497432Y-133092591D01*
X149497429Y-133092585D01*
X149397387Y-132896241D01*
X149397386Y-132896240D01*
X149351066Y-132832485D01*
X148617642Y-133565909D01*
X148591378Y-133467886D01*
X148536084Y-133372114D01*
X148457886Y-133293916D01*
X148362114Y-133238622D01*
X148264090Y-133212356D01*
X148997513Y-132478933D01*
X148997513Y-132478931D01*
X148981351Y-132467189D01*
X148937997Y-132410967D01*
X148931920Y-132340231D01*
X148965051Y-132277439D01*
X148981339Y-132263324D01*
X149117576Y-132164343D01*
X149274343Y-132007576D01*
X149404657Y-131828215D01*
X149505308Y-131630676D01*
X149573818Y-131419824D01*
X149608500Y-131200851D01*
X149608500Y-130979149D01*
X149573818Y-130760176D01*
X149505308Y-130549324D01*
X149404657Y-130351785D01*
X149274343Y-130172424D01*
X149274341Y-130172421D01*
X149117578Y-130015658D01*
X148938217Y-129885344D01*
X148936217Y-129884325D01*
X148905689Y-129868770D01*
X148854075Y-129820022D01*
X148837009Y-129751107D01*
X148859910Y-129683906D01*
X148888830Y-129654569D01*
X149045916Y-129540440D01*
X149190440Y-129395916D01*
X149310577Y-129230562D01*
X149403367Y-129048451D01*
X149466526Y-128854066D01*
X149498500Y-128652194D01*
X149498500Y-128447806D01*
X149466526Y-128245934D01*
X149403367Y-128051549D01*
X149310577Y-127869438D01*
X149303671Y-127859933D01*
X149279814Y-127793067D01*
X149295894Y-127723915D01*
X149316513Y-127696778D01*
X149808799Y-127204492D01*
X150414307Y-126598985D01*
X150486371Y-126491133D01*
X150536010Y-126371293D01*
X150545996Y-126321091D01*
X150561316Y-126244073D01*
X150561316Y-108016258D01*
X150549960Y-107959166D01*
X150536011Y-107889038D01*
X150488739Y-107774916D01*
X150487064Y-107770236D01*
X150486371Y-107769198D01*
X150457506Y-107725998D01*
X150414307Y-107661346D01*
X149329435Y-106576474D01*
X149295409Y-106514162D01*
X149300474Y-106443347D01*
X149316595Y-106413317D01*
X149327203Y-106398716D01*
X149336229Y-106386295D01*
X149336230Y-106386292D01*
X149336235Y-106386286D01*
X149431169Y-106199967D01*
X149495788Y-106001091D01*
X149528500Y-105794555D01*
X149528500Y-105585445D01*
X149495788Y-105378909D01*
X149431169Y-105180033D01*
X149336235Y-104993714D01*
X149213323Y-104824540D01*
X149213320Y-104824537D01*
X149213318Y-104824534D01*
X149065462Y-104676678D01*
X148918832Y-104570145D01*
X148875478Y-104513922D01*
X148869403Y-104443186D01*
X148902535Y-104380395D01*
X148935697Y-104355939D01*
X148938215Y-104354657D01*
X149117576Y-104224343D01*
X149274343Y-104067576D01*
X149404657Y-103888215D01*
X149505308Y-103690676D01*
X149573818Y-103479824D01*
X149608500Y-103260851D01*
X149608500Y-103039149D01*
X149573818Y-102820176D01*
X149505308Y-102609324D01*
X149404657Y-102411785D01*
X149359946Y-102350246D01*
X149274341Y-102232421D01*
X149117581Y-102075661D01*
X149117578Y-102075659D01*
X149117577Y-102075658D01*
X149117576Y-102075657D01*
X148988579Y-101981934D01*
X148945226Y-101925714D01*
X148939151Y-101854978D01*
X148972282Y-101792186D01*
X148988576Y-101778067D01*
X149117576Y-101684343D01*
X149274343Y-101527576D01*
X149404657Y-101348215D01*
X149505308Y-101150676D01*
X149573818Y-100939824D01*
X149608500Y-100720851D01*
X149608500Y-100499149D01*
X149573818Y-100280176D01*
X149505308Y-100069324D01*
X149404657Y-99871785D01*
X149274343Y-99692424D01*
X149274341Y-99692421D01*
X149117581Y-99535661D01*
X149117578Y-99535659D01*
X149117577Y-99535658D01*
X149117576Y-99535657D01*
X148988579Y-99441934D01*
X148945226Y-99385714D01*
X148939151Y-99314978D01*
X148972282Y-99252186D01*
X148988576Y-99238067D01*
X149117576Y-99144343D01*
X149274343Y-98987576D01*
X149404657Y-98808215D01*
X149505308Y-98610676D01*
X149573818Y-98399824D01*
X149608500Y-98180851D01*
X149608500Y-97959149D01*
X149573818Y-97740176D01*
X149505308Y-97529324D01*
X149404657Y-97331785D01*
X149274343Y-97152424D01*
X149274341Y-97152421D01*
X149117581Y-96995661D01*
X149117578Y-96995659D01*
X149117577Y-96995658D01*
X149117576Y-96995657D01*
X148988579Y-96901934D01*
X148945226Y-96845714D01*
X148939151Y-96774978D01*
X148972282Y-96712186D01*
X148988576Y-96698067D01*
X149117576Y-96604343D01*
X149274343Y-96447576D01*
X149404657Y-96268215D01*
X149505308Y-96070676D01*
X149573818Y-95859824D01*
X149608500Y-95640851D01*
X149608500Y-95419149D01*
X149573818Y-95200176D01*
X149505308Y-94989324D01*
X149404657Y-94791785D01*
X149274343Y-94612424D01*
X149274341Y-94612421D01*
X149117581Y-94455661D01*
X149117578Y-94455659D01*
X149117577Y-94455658D01*
X149117576Y-94455657D01*
X148988579Y-94361934D01*
X148945226Y-94305714D01*
X148939151Y-94234978D01*
X148972282Y-94172186D01*
X148988576Y-94158067D01*
X149117576Y-94064343D01*
X149274343Y-93907576D01*
X149404657Y-93728215D01*
X149505308Y-93530676D01*
X149573818Y-93319824D01*
X149608500Y-93100851D01*
X149608500Y-92879149D01*
X149573818Y-92660176D01*
X149505308Y-92449324D01*
X149404657Y-92251785D01*
X149274343Y-92072424D01*
X149274341Y-92072421D01*
X149117581Y-91915661D01*
X149117578Y-91915659D01*
X149117577Y-91915658D01*
X149117576Y-91915657D01*
X148988579Y-91821934D01*
X148945226Y-91765714D01*
X148939151Y-91694978D01*
X148972282Y-91632186D01*
X148988576Y-91618067D01*
X149117576Y-91524343D01*
X149274343Y-91367576D01*
X149404657Y-91188215D01*
X149505308Y-90990676D01*
X149573818Y-90779824D01*
X149608500Y-90560851D01*
X149608500Y-90339149D01*
X149573818Y-90120176D01*
X149505308Y-89909324D01*
X149404657Y-89711785D01*
X149274343Y-89532424D01*
X149274341Y-89532421D01*
X149117581Y-89375661D01*
X149117578Y-89375659D01*
X149117577Y-89375658D01*
X149117576Y-89375657D01*
X148988579Y-89281934D01*
X148945226Y-89225714D01*
X148939151Y-89154978D01*
X148972282Y-89092186D01*
X148988576Y-89078067D01*
X149117576Y-88984343D01*
X149274343Y-88827576D01*
X149404657Y-88648215D01*
X149505308Y-88450676D01*
X149573818Y-88239824D01*
X149608500Y-88020851D01*
X149608500Y-87799149D01*
X149573818Y-87580176D01*
X149505308Y-87369324D01*
X149404657Y-87171785D01*
X149274343Y-86992424D01*
X149274341Y-86992421D01*
X149117581Y-86835661D01*
X149117578Y-86835659D01*
X149117577Y-86835658D01*
X149117576Y-86835657D01*
X148988579Y-86741934D01*
X148945226Y-86685714D01*
X148939151Y-86614978D01*
X148972282Y-86552186D01*
X148988576Y-86538067D01*
X149117576Y-86444343D01*
X149274343Y-86287576D01*
X149404657Y-86108215D01*
X149505308Y-85910676D01*
X149573818Y-85699824D01*
X149608500Y-85480851D01*
X149608500Y-85259149D01*
X149573818Y-85040176D01*
X149505308Y-84829324D01*
X149404657Y-84631785D01*
X149274343Y-84452424D01*
X149274342Y-84452423D01*
X149274341Y-84452421D01*
X149228122Y-84406202D01*
X149194096Y-84343890D01*
X149199161Y-84273075D01*
X149241708Y-84216239D01*
X149273186Y-84199051D01*
X149342088Y-84173352D01*
X149457189Y-84087189D01*
X149543352Y-83972089D01*
X149593599Y-83837371D01*
X149599999Y-83777840D01*
X149600000Y-83777823D01*
X149600000Y-83080000D01*
X148540637Y-83080000D01*
X148591378Y-82992114D01*
X148620000Y-82885294D01*
X148620000Y-82774706D01*
X148591378Y-82667886D01*
X148540637Y-82580000D01*
X149600000Y-82580000D01*
X149600000Y-81882176D01*
X149599999Y-81882159D01*
X149593599Y-81822628D01*
X149543352Y-81687910D01*
X149457189Y-81572810D01*
X149342089Y-81486647D01*
X149207371Y-81436400D01*
X149147840Y-81430000D01*
X148450000Y-81430000D01*
X148450000Y-82489363D01*
X148362114Y-82438622D01*
X148255294Y-82410000D01*
X148144706Y-82410000D01*
X148037886Y-82438622D01*
X147950000Y-82489363D01*
X147950000Y-81430000D01*
X147252159Y-81430000D01*
X147192628Y-81436400D01*
X147057910Y-81486647D01*
X146942810Y-81572810D01*
X146856647Y-81687910D01*
X146806400Y-81822628D01*
X146800000Y-81882159D01*
X146800000Y-82580000D01*
X147859363Y-82580000D01*
X147808622Y-82667886D01*
X147780000Y-82774706D01*
X147780000Y-82885294D01*
X147808622Y-82992114D01*
X147859363Y-83080000D01*
X146800000Y-83080000D01*
X146800000Y-83777840D01*
X146806400Y-83837371D01*
X146856647Y-83972089D01*
X146942810Y-84087189D01*
X147057911Y-84173352D01*
X147126813Y-84199051D01*
X147183649Y-84241597D01*
X147208461Y-84308117D01*
X147193370Y-84377491D01*
X147171878Y-84406202D01*
X147125657Y-84452423D01*
X146995345Y-84631781D01*
X146894693Y-84829322D01*
X146894690Y-84829328D01*
X146826183Y-85040170D01*
X146826182Y-85040175D01*
X146826182Y-85040176D01*
X146791500Y-85259149D01*
X146791500Y-85480851D01*
X146826182Y-85699824D01*
X146826183Y-85699829D01*
X146894690Y-85910671D01*
X146894692Y-85910676D01*
X146977889Y-86073959D01*
X146995345Y-86108218D01*
X147125658Y-86287578D01*
X147282421Y-86444341D01*
X147411419Y-86538064D01*
X147454773Y-86594287D01*
X147460848Y-86665023D01*
X147427716Y-86727815D01*
X147411419Y-86741936D01*
X147282421Y-86835658D01*
X147125658Y-86992421D01*
X146995345Y-87171781D01*
X146894693Y-87369322D01*
X146894690Y-87369328D01*
X146826183Y-87580170D01*
X146826182Y-87580175D01*
X146826182Y-87580176D01*
X146791500Y-87799149D01*
X146791500Y-88020851D01*
X146826182Y-88239824D01*
X146826183Y-88239829D01*
X146894690Y-88450671D01*
X146894692Y-88450676D01*
X146907329Y-88475477D01*
X146995345Y-88648218D01*
X147125658Y-88827578D01*
X147282421Y-88984341D01*
X147411419Y-89078064D01*
X147454773Y-89134287D01*
X147460848Y-89205023D01*
X147427716Y-89267815D01*
X147411419Y-89281936D01*
X147282421Y-89375658D01*
X147125658Y-89532421D01*
X146995345Y-89711781D01*
X146894693Y-89909322D01*
X146894690Y-89909328D01*
X146826183Y-90120170D01*
X146826182Y-90120175D01*
X146826182Y-90120176D01*
X146791500Y-90339149D01*
X146791500Y-90560851D01*
X146826182Y-90779824D01*
X146826183Y-90779829D01*
X146894690Y-90990671D01*
X146894692Y-90990676D01*
X146964918Y-91128502D01*
X146995345Y-91188218D01*
X147125658Y-91367578D01*
X147282421Y-91524341D01*
X147411419Y-91618064D01*
X147454773Y-91674287D01*
X147460848Y-91745023D01*
X147427716Y-91807815D01*
X147411419Y-91821936D01*
X147282421Y-91915658D01*
X147125658Y-92072421D01*
X146995345Y-92251781D01*
X146894693Y-92449322D01*
X146894690Y-92449328D01*
X146826183Y-92660170D01*
X146826182Y-92660175D01*
X146826182Y-92660176D01*
X146791500Y-92879149D01*
X146791500Y-93100851D01*
X146826182Y-93319824D01*
X146826183Y-93319829D01*
X146894690Y-93530671D01*
X146894692Y-93530676D01*
X146907329Y-93555477D01*
X146995345Y-93728218D01*
X147125658Y-93907578D01*
X147282421Y-94064341D01*
X147411419Y-94158064D01*
X147454773Y-94214287D01*
X147460848Y-94285023D01*
X147427716Y-94347815D01*
X147411419Y-94361936D01*
X147282421Y-94455658D01*
X147125658Y-94612421D01*
X146995345Y-94791781D01*
X146894693Y-94989322D01*
X146894690Y-94989328D01*
X146826183Y-95200170D01*
X146826182Y-95200175D01*
X146826182Y-95200176D01*
X146791500Y-95419149D01*
X146791500Y-95640851D01*
X146826182Y-95859824D01*
X146826183Y-95859829D01*
X146894690Y-96070671D01*
X146894692Y-96070676D01*
X146963481Y-96205682D01*
X146995345Y-96268218D01*
X147125658Y-96447578D01*
X147282421Y-96604341D01*
X147411419Y-96698064D01*
X147454773Y-96754287D01*
X147460848Y-96825023D01*
X147427716Y-96887815D01*
X147411419Y-96901936D01*
X147282421Y-96995658D01*
X147125658Y-97152421D01*
X146995345Y-97331781D01*
X146894693Y-97529322D01*
X146894690Y-97529328D01*
X146826183Y-97740170D01*
X146826182Y-97740175D01*
X146826182Y-97740176D01*
X146791500Y-97959149D01*
X146791500Y-98180851D01*
X146826182Y-98399824D01*
X146826183Y-98399829D01*
X146894690Y-98610671D01*
X146894692Y-98610676D01*
X146963481Y-98745682D01*
X146995345Y-98808218D01*
X147125658Y-98987578D01*
X147282421Y-99144341D01*
X147411419Y-99238064D01*
X147454773Y-99294287D01*
X147460848Y-99365023D01*
X147427716Y-99427815D01*
X147411419Y-99441936D01*
X147282421Y-99535658D01*
X147125658Y-99692421D01*
X146995345Y-99871781D01*
X146894693Y-100069322D01*
X146894690Y-100069328D01*
X146826183Y-100280170D01*
X146826182Y-100280175D01*
X146826182Y-100280176D01*
X146791500Y-100499149D01*
X146791500Y-100720851D01*
X146826182Y-100939824D01*
X146826183Y-100939829D01*
X146894690Y-101150671D01*
X146894692Y-101150676D01*
X146907329Y-101175477D01*
X146995345Y-101348218D01*
X147125658Y-101527578D01*
X147282421Y-101684341D01*
X147411419Y-101778064D01*
X147454773Y-101834287D01*
X147460848Y-101905023D01*
X147427716Y-101967815D01*
X147411419Y-101981936D01*
X147282421Y-102075658D01*
X147125658Y-102232421D01*
X146995345Y-102411781D01*
X146894693Y-102609322D01*
X146894690Y-102609328D01*
X146826183Y-102820170D01*
X146826182Y-102820175D01*
X146826182Y-102820176D01*
X146791500Y-103039149D01*
X146791500Y-103260851D01*
X146826182Y-103479824D01*
X146826183Y-103479829D01*
X146894690Y-103690671D01*
X146894692Y-103690676D01*
X146995343Y-103888215D01*
X146995345Y-103888218D01*
X147125658Y-104067578D01*
X147282421Y-104224341D01*
X147395228Y-104306300D01*
X147461785Y-104354657D01*
X147464303Y-104355940D01*
X147465088Y-104356681D01*
X147466003Y-104357242D01*
X147465885Y-104357434D01*
X147515920Y-104404683D01*
X147532991Y-104473597D01*
X147510094Y-104540800D01*
X147481168Y-104570145D01*
X147334533Y-104676682D01*
X147186681Y-104824534D01*
X147186679Y-104824537D01*
X147063767Y-104993710D01*
X146968832Y-105180031D01*
X146968831Y-105180033D01*
X146910299Y-105360176D01*
X146904212Y-105378909D01*
X146871500Y-105585445D01*
X146871500Y-105794555D01*
X146891097Y-105918286D01*
X146904213Y-106001096D01*
X146956288Y-106161364D01*
X146958316Y-106232331D01*
X146921653Y-106293129D01*
X146857941Y-106324455D01*
X146836455Y-106326300D01*
X126959750Y-106326300D01*
X126891629Y-106306298D01*
X126870655Y-106289395D01*
X124245405Y-103664145D01*
X124211379Y-103601833D01*
X124208500Y-103575050D01*
X124208500Y-102201367D01*
X124208499Y-102201350D01*
X124201990Y-102140803D01*
X124201988Y-102140795D01*
X124153945Y-102011989D01*
X124150889Y-102003796D01*
X124114741Y-101955508D01*
X124089931Y-101888989D01*
X124105022Y-101819615D01*
X124114742Y-101804490D01*
X124123953Y-101792186D01*
X124150889Y-101756204D01*
X124201989Y-101619201D01*
X124208500Y-101558638D01*
X124208500Y-99661362D01*
X124208499Y-99661350D01*
X124201990Y-99600803D01*
X124201988Y-99600795D01*
X124172924Y-99522875D01*
X124150889Y-99463796D01*
X124114741Y-99415508D01*
X124089931Y-99348989D01*
X124105022Y-99279615D01*
X124114742Y-99264490D01*
X124150889Y-99216204D01*
X124201989Y-99079201D01*
X124208500Y-99018638D01*
X124208500Y-97121362D01*
X124208499Y-97121350D01*
X124201990Y-97060803D01*
X124201988Y-97060795D01*
X124172924Y-96982875D01*
X124150889Y-96923796D01*
X124114741Y-96875508D01*
X124089931Y-96808989D01*
X124105022Y-96739615D01*
X124114742Y-96724490D01*
X124150889Y-96676204D01*
X124201989Y-96539201D01*
X124208500Y-96478638D01*
X124208500Y-94581362D01*
X124208499Y-94581350D01*
X124201990Y-94520803D01*
X124201988Y-94520795D01*
X124172924Y-94442875D01*
X124150889Y-94383796D01*
X124114741Y-94335508D01*
X124089931Y-94268989D01*
X124105022Y-94199615D01*
X124114742Y-94184490D01*
X124150889Y-94136204D01*
X124201989Y-93999201D01*
X124208500Y-93938638D01*
X124208500Y-92041362D01*
X124208499Y-92041350D01*
X124201990Y-91980803D01*
X124201988Y-91980795D01*
X124172924Y-91902875D01*
X124150889Y-91843796D01*
X124114741Y-91795508D01*
X124089931Y-91728989D01*
X124105022Y-91659615D01*
X124114742Y-91644490D01*
X124150889Y-91596204D01*
X124201989Y-91459201D01*
X124208500Y-91398638D01*
X124208500Y-89501362D01*
X124208499Y-89501350D01*
X124201990Y-89440803D01*
X124201988Y-89440795D01*
X124172924Y-89362875D01*
X124150889Y-89303796D01*
X124114741Y-89255508D01*
X124089931Y-89188989D01*
X124105022Y-89119615D01*
X124114742Y-89104490D01*
X124150889Y-89056204D01*
X124201989Y-88919201D01*
X124208500Y-88858638D01*
X124208500Y-86961362D01*
X124208499Y-86961350D01*
X124201990Y-86900803D01*
X124201988Y-86900795D01*
X124150889Y-86763797D01*
X124150887Y-86763792D01*
X124063261Y-86646738D01*
X123946208Y-86559113D01*
X123946205Y-86559112D01*
X123946204Y-86559111D01*
X123879788Y-86534338D01*
X123822956Y-86491794D01*
X123798145Y-86425274D01*
X123813237Y-86355899D01*
X123834730Y-86327189D01*
X123874341Y-86287578D01*
X123874343Y-86287576D01*
X124004657Y-86108215D01*
X124105308Y-85910676D01*
X124173818Y-85699824D01*
X124208500Y-85480851D01*
X124208500Y-85259149D01*
X124173818Y-85040176D01*
X124105308Y-84829324D01*
X124004657Y-84631785D01*
X123874343Y-84452424D01*
X123874342Y-84452423D01*
X123874341Y-84452421D01*
X123834729Y-84412809D01*
X123800703Y-84350497D01*
X123805768Y-84279682D01*
X123848315Y-84222846D01*
X123879785Y-84205662D01*
X123946204Y-84180889D01*
X123956273Y-84173352D01*
X124063261Y-84093261D01*
X124150887Y-83976207D01*
X124150887Y-83976206D01*
X124150889Y-83976204D01*
X124201989Y-83839201D01*
X124208500Y-83778638D01*
X124208500Y-81881362D01*
X124202186Y-81822628D01*
X124201990Y-81820803D01*
X124201988Y-81820795D01*
X124150889Y-81683797D01*
X124150887Y-81683792D01*
X124063261Y-81566738D01*
X123946207Y-81479112D01*
X123946202Y-81479110D01*
X123809204Y-81428011D01*
X123809196Y-81428009D01*
X123748649Y-81421500D01*
X123748638Y-81421500D01*
X121851362Y-81421500D01*
X121851350Y-81421500D01*
X121790803Y-81428009D01*
X121790795Y-81428011D01*
X121653797Y-81479110D01*
X121653792Y-81479112D01*
X121536738Y-81566738D01*
X121449112Y-81683792D01*
X121449110Y-81683797D01*
X121398011Y-81820795D01*
X121398009Y-81820803D01*
X121391500Y-81881350D01*
X121391500Y-82045500D01*
X121371498Y-82113621D01*
X121317842Y-82160114D01*
X121265500Y-82171500D01*
X117968339Y-82171500D01*
X117841122Y-82196806D01*
X117841119Y-82196807D01*
X117721283Y-82246445D01*
X117613431Y-82318509D01*
X117613425Y-82318514D01*
X114550513Y-85381426D01*
X114550508Y-85381432D01*
X114497043Y-85461449D01*
X114497042Y-85461448D01*
X114478447Y-85489278D01*
X114478445Y-85489282D01*
X114428807Y-85609119D01*
X114428806Y-85609122D01*
X114403500Y-85736339D01*
X114403500Y-103747660D01*
X114428806Y-103874877D01*
X114478445Y-103994717D01*
X114550509Y-104102569D01*
X114550513Y-104102573D01*
X115648595Y-105200655D01*
X115682621Y-105262967D01*
X115685500Y-105289750D01*
X115685500Y-106663449D01*
X115692009Y-106723996D01*
X115692011Y-106724004D01*
X115743110Y-106861002D01*
X115743112Y-106861007D01*
X115830738Y-106978061D01*
X115947792Y-107065687D01*
X115947794Y-107065688D01*
X115947796Y-107065689D01*
X116006875Y-107087724D01*
X116084795Y-107116788D01*
X116084803Y-107116790D01*
X116145350Y-107123299D01*
X116145355Y-107123299D01*
X116145362Y-107123300D01*
X116145368Y-107123300D01*
X118042632Y-107123300D01*
X118042638Y-107123300D01*
X118042645Y-107123299D01*
X118042649Y-107123299D01*
X118103196Y-107116790D01*
X118103199Y-107116789D01*
X118103201Y-107116789D01*
X118240204Y-107065689D01*
X118245218Y-107061936D01*
X118357261Y-106978061D01*
X118444887Y-106861007D01*
X118444887Y-106861006D01*
X118444889Y-106861004D01*
X118495989Y-106724001D01*
X118502500Y-106663438D01*
X118502500Y-104766162D01*
X118502499Y-104766150D01*
X118495990Y-104705603D01*
X118495988Y-104705595D01*
X118462442Y-104615657D01*
X118444889Y-104568596D01*
X118444888Y-104568594D01*
X118444887Y-104568592D01*
X118357261Y-104451538D01*
X118240207Y-104363912D01*
X118240202Y-104363910D01*
X118103204Y-104312811D01*
X118103196Y-104312809D01*
X118042649Y-104306300D01*
X118042638Y-104306300D01*
X117924138Y-104306300D01*
X117856017Y-104286298D01*
X117835043Y-104269396D01*
X117223408Y-103657762D01*
X117286993Y-103640725D01*
X117401007Y-103574899D01*
X117494099Y-103481807D01*
X117559925Y-103367793D01*
X117576962Y-103304210D01*
X118245065Y-103972313D01*
X118245067Y-103972313D01*
X118291384Y-103908563D01*
X118391429Y-103712214D01*
X118391432Y-103712208D01*
X118459525Y-103502639D01*
X118494000Y-103284978D01*
X118494000Y-103064621D01*
X118459525Y-102846960D01*
X118391432Y-102637391D01*
X118391429Y-102637385D01*
X118291387Y-102441041D01*
X118291386Y-102441040D01*
X118245066Y-102377285D01*
X117576962Y-103045389D01*
X117559925Y-102981807D01*
X117494099Y-102867793D01*
X117401007Y-102774701D01*
X117286993Y-102708875D01*
X117223409Y-102691837D01*
X117891513Y-102023733D01*
X117891513Y-102023731D01*
X117875351Y-102011989D01*
X117831997Y-101955767D01*
X117825920Y-101885031D01*
X117859051Y-101822239D01*
X117875339Y-101808124D01*
X118011576Y-101709143D01*
X118168343Y-101552376D01*
X118298657Y-101373015D01*
X118399308Y-101175476D01*
X118467818Y-100964624D01*
X118502500Y-100745651D01*
X118502500Y-100523949D01*
X118467818Y-100304976D01*
X118399308Y-100094124D01*
X118298657Y-99896585D01*
X118168343Y-99717224D01*
X118168341Y-99717221D01*
X118011581Y-99560461D01*
X118011578Y-99560459D01*
X118011577Y-99560458D01*
X118011576Y-99560457D01*
X117882579Y-99466734D01*
X117839226Y-99410514D01*
X117833151Y-99339778D01*
X117866282Y-99276986D01*
X117882576Y-99262867D01*
X118011576Y-99169143D01*
X118168343Y-99012376D01*
X118298657Y-98833015D01*
X118316856Y-98797296D01*
X118365605Y-98745682D01*
X118429123Y-98728500D01*
X121265500Y-98728500D01*
X121333621Y-98748502D01*
X121380114Y-98802158D01*
X121391500Y-98854500D01*
X121391500Y-99018649D01*
X121398009Y-99079196D01*
X121398011Y-99079204D01*
X121449110Y-99216202D01*
X121449112Y-99216206D01*
X121485258Y-99264492D01*
X121510068Y-99331012D01*
X121494976Y-99400386D01*
X121485258Y-99415508D01*
X121449112Y-99463793D01*
X121449110Y-99463797D01*
X121398011Y-99600795D01*
X121398009Y-99600803D01*
X121391500Y-99661350D01*
X121391500Y-99825500D01*
X121371498Y-99893621D01*
X121317842Y-99940114D01*
X121276325Y-99949145D01*
X121276498Y-99950894D01*
X121270339Y-99951500D01*
X121143122Y-99976806D01*
X121143119Y-99976807D01*
X121023282Y-100026445D01*
X120915432Y-100098508D01*
X120915431Y-100098509D01*
X120240107Y-100773832D01*
X120240106Y-100773834D01*
X120221237Y-100802075D01*
X120221236Y-100802077D01*
X120168045Y-100881682D01*
X120118407Y-101001519D01*
X120118406Y-101001522D01*
X120093100Y-101128739D01*
X120093100Y-111520060D01*
X120118406Y-111647277D01*
X120168045Y-111767117D01*
X120240109Y-111874969D01*
X120941431Y-112576291D01*
X121049283Y-112648355D01*
X121169123Y-112697995D01*
X121169127Y-112697995D01*
X121169128Y-112697996D01*
X121169129Y-112697997D01*
X121275235Y-112719101D01*
X121275241Y-112719102D01*
X121296343Y-112723300D01*
X121296344Y-112723300D01*
X121426057Y-112723300D01*
X121451883Y-112723300D01*
X121520004Y-112743302D01*
X121566497Y-112796958D01*
X121576601Y-112867232D01*
X121571716Y-112888236D01*
X121533475Y-113005929D01*
X121533474Y-113005932D01*
X121533474Y-113005934D01*
X121501500Y-113207806D01*
X121501500Y-113412194D01*
X121533474Y-113614066D01*
X121533475Y-113614070D01*
X121596631Y-113808446D01*
X121596634Y-113808453D01*
X121616441Y-113847327D01*
X121629544Y-113917104D01*
X121602843Y-113982888D01*
X121567055Y-114012744D01*
X121567230Y-114013006D01*
X121564779Y-114014643D01*
X121563579Y-114015645D01*
X121562085Y-114016443D01*
X121454232Y-114088508D01*
X121454226Y-114088513D01*
X119528911Y-116013828D01*
X119528906Y-116013835D01*
X119457420Y-116120820D01*
X119457421Y-116120821D01*
X119456844Y-116121684D01*
X119407207Y-116241519D01*
X119407206Y-116241522D01*
X119381900Y-116368739D01*
X119381900Y-127471260D01*
X119402608Y-127575362D01*
X119407206Y-127598477D01*
X119456845Y-127718317D01*
X119528909Y-127826169D01*
X120764231Y-129061491D01*
X120872083Y-129133555D01*
X120991923Y-129183195D01*
X120991927Y-129183195D01*
X120991928Y-129183196D01*
X120991929Y-129183197D01*
X121098035Y-129204301D01*
X121098041Y-129204302D01*
X121119143Y-129208500D01*
X121119144Y-129208500D01*
X121248857Y-129208500D01*
X121265500Y-129208500D01*
X121333621Y-129228502D01*
X121380114Y-129282158D01*
X121391500Y-129334500D01*
X121391500Y-129498649D01*
X121398009Y-129559196D01*
X121398011Y-129559204D01*
X121449110Y-129696202D01*
X121449112Y-129696207D01*
X121536738Y-129813261D01*
X121653792Y-129900887D01*
X121653794Y-129900887D01*
X121653796Y-129900889D01*
X121720210Y-129925660D01*
X121777043Y-129968204D01*
X121801854Y-130034725D01*
X121786763Y-130104099D01*
X121765271Y-130132808D01*
X121725658Y-130172421D01*
X121595345Y-130351781D01*
X121494693Y-130549322D01*
X121494690Y-130549328D01*
X121426183Y-130760170D01*
X121391500Y-130979152D01*
X121391500Y-130986050D01*
X121371498Y-131054171D01*
X121317842Y-131100664D01*
X121247568Y-131110768D01*
X121182988Y-131081274D01*
X121176405Y-131075145D01*
X117789405Y-127688145D01*
X117755379Y-127625833D01*
X117752500Y-127599050D01*
X117752500Y-120609700D01*
X117772502Y-120541579D01*
X117826158Y-120495086D01*
X117878500Y-120483700D01*
X118042632Y-120483700D01*
X118042638Y-120483700D01*
X118042645Y-120483699D01*
X118042649Y-120483699D01*
X118103196Y-120477190D01*
X118103199Y-120477189D01*
X118103201Y-120477189D01*
X118240204Y-120426089D01*
X118250325Y-120418513D01*
X118357261Y-120338461D01*
X118444887Y-120221407D01*
X118444887Y-120221406D01*
X118444889Y-120221404D01*
X118495989Y-120084401D01*
X118502500Y-120023838D01*
X118502500Y-118126562D01*
X118502499Y-118126550D01*
X118495990Y-118066003D01*
X118495988Y-118065995D01*
X118444889Y-117928997D01*
X118444887Y-117928992D01*
X118357261Y-117811938D01*
X118240207Y-117724312D01*
X118240202Y-117724310D01*
X118103204Y-117673211D01*
X118103196Y-117673209D01*
X118042649Y-117666700D01*
X118042638Y-117666700D01*
X117924137Y-117666700D01*
X117856016Y-117646698D01*
X117835041Y-117629795D01*
X117223409Y-117018162D01*
X117286993Y-117001125D01*
X117401007Y-116935299D01*
X117494099Y-116842207D01*
X117559925Y-116728193D01*
X117576962Y-116664610D01*
X118245065Y-117332713D01*
X118245067Y-117332713D01*
X118291384Y-117268963D01*
X118391429Y-117072614D01*
X118391432Y-117072608D01*
X118459525Y-116863039D01*
X118494000Y-116645378D01*
X118494000Y-116425021D01*
X118459525Y-116207360D01*
X118391432Y-115997791D01*
X118391429Y-115997785D01*
X118291387Y-115801441D01*
X118291386Y-115801440D01*
X118245066Y-115737685D01*
X117576962Y-116405789D01*
X117559925Y-116342207D01*
X117494099Y-116228193D01*
X117401007Y-116135101D01*
X117286993Y-116069275D01*
X117223409Y-116052237D01*
X117891513Y-115384133D01*
X117891513Y-115384131D01*
X117827763Y-115337815D01*
X117631414Y-115237770D01*
X117631408Y-115237767D01*
X117421837Y-115169674D01*
X117421841Y-115169674D01*
X117204179Y-115135200D01*
X116983821Y-115135200D01*
X116766160Y-115169674D01*
X116556591Y-115237767D01*
X116556585Y-115237770D01*
X116360243Y-115337811D01*
X116296485Y-115384132D01*
X116964590Y-116052237D01*
X116901007Y-116069275D01*
X116786993Y-116135101D01*
X116693901Y-116228193D01*
X116628075Y-116342207D01*
X116611037Y-116405790D01*
X115942932Y-115737685D01*
X115896611Y-115801443D01*
X115796570Y-115997785D01*
X115796567Y-115997791D01*
X115728474Y-116207360D01*
X115694000Y-116425021D01*
X115694000Y-116645378D01*
X115728474Y-116863039D01*
X115796567Y-117072608D01*
X115796570Y-117072614D01*
X115896615Y-117268963D01*
X115942931Y-117332713D01*
X115942933Y-117332713D01*
X116611037Y-116664609D01*
X116628075Y-116728193D01*
X116693901Y-116842207D01*
X116786993Y-116935299D01*
X116901007Y-117001125D01*
X116964590Y-117018162D01*
X116352959Y-117629795D01*
X116290646Y-117663820D01*
X116263863Y-117666700D01*
X116145350Y-117666700D01*
X116084803Y-117673209D01*
X116084795Y-117673211D01*
X115947797Y-117724310D01*
X115947792Y-117724312D01*
X115830738Y-117811938D01*
X115743112Y-117928992D01*
X115743110Y-117928997D01*
X115692011Y-118065995D01*
X115692009Y-118066003D01*
X115685500Y-118126550D01*
X115685500Y-120023849D01*
X115692009Y-120084396D01*
X115692011Y-120084404D01*
X115743110Y-120221402D01*
X115743112Y-120221407D01*
X115830738Y-120338461D01*
X115947792Y-120426087D01*
X115947794Y-120426088D01*
X115947796Y-120426089D01*
X116006875Y-120448124D01*
X116084795Y-120477188D01*
X116084803Y-120477190D01*
X116145350Y-120483699D01*
X116145355Y-120483699D01*
X116145362Y-120483700D01*
X116309500Y-120483700D01*
X116377621Y-120503702D01*
X116424114Y-120557358D01*
X116435500Y-120609700D01*
X116435500Y-127988860D01*
X116447970Y-128051547D01*
X116460806Y-128116077D01*
X116510445Y-128235917D01*
X116582509Y-128343769D01*
X116582513Y-128343773D01*
X121354595Y-133115855D01*
X121388621Y-133178167D01*
X121391500Y-133204950D01*
X121391500Y-134578649D01*
X121398009Y-134639196D01*
X121398011Y-134639204D01*
X121449110Y-134776202D01*
X121449112Y-134776207D01*
X121490566Y-134831582D01*
X121515377Y-134898102D01*
X121500286Y-134967476D01*
X121490567Y-134982599D01*
X121456647Y-135027910D01*
X121406400Y-135162628D01*
X121400000Y-135222159D01*
X121400000Y-135920000D01*
X122459363Y-135920000D01*
X122408622Y-136007886D01*
X122380000Y-136114706D01*
X122380000Y-136225294D01*
X122408622Y-136332114D01*
X122459363Y-136420000D01*
X121400000Y-136420000D01*
X121400000Y-137117840D01*
X121406400Y-137177371D01*
X121456647Y-137312089D01*
X121542810Y-137427189D01*
X121657910Y-137513352D01*
X121792628Y-137563599D01*
X121852159Y-137569999D01*
X121852176Y-137570000D01*
X122550000Y-137570000D01*
X122550000Y-136510636D01*
X122637886Y-136561378D01*
X122744706Y-136590000D01*
X122855294Y-136590000D01*
X122962114Y-136561378D01*
X123050000Y-136510636D01*
X123050000Y-137570000D01*
X123747824Y-137570000D01*
X123747840Y-137569999D01*
X123807371Y-137563599D01*
X123950533Y-137510203D01*
X123951595Y-137513051D01*
X124006070Y-137501191D01*
X124041137Y-137508817D01*
X124140795Y-137545988D01*
X124140803Y-137545990D01*
X124201350Y-137552499D01*
X124201355Y-137552499D01*
X124201362Y-137552500D01*
X124201368Y-137552500D01*
X125548632Y-137552500D01*
X125548638Y-137552500D01*
X125609201Y-137545989D01*
X125609201Y-137545988D01*
X125610531Y-137545846D01*
X125680400Y-137558452D01*
X125732362Y-137606830D01*
X125750000Y-137671124D01*
X125750000Y-138099017D01*
X125729998Y-138167138D01*
X125676342Y-138213631D01*
X125624018Y-138225017D01*
X113123822Y-138226782D01*
X113055698Y-138206790D01*
X113009198Y-138153140D01*
X112997804Y-138100778D01*
X112997820Y-137647035D01*
X112997941Y-134178709D01*
X115149500Y-134178709D01*
X115149500Y-134421290D01*
X115181160Y-134661782D01*
X115243944Y-134896095D01*
X115243945Y-134896097D01*
X115243946Y-134896100D01*
X115336776Y-135120212D01*
X115336777Y-135120213D01*
X115336782Y-135120224D01*
X115458061Y-135330285D01*
X115458063Y-135330288D01*
X115458064Y-135330289D01*
X115605735Y-135522738D01*
X115605739Y-135522742D01*
X115605744Y-135522748D01*
X115777251Y-135694255D01*
X115777256Y-135694259D01*
X115777262Y-135694265D01*
X115969711Y-135841936D01*
X115969714Y-135841938D01*
X116179775Y-135963217D01*
X116179779Y-135963218D01*
X116179788Y-135963224D01*
X116403900Y-136056054D01*
X116638211Y-136118838D01*
X116638215Y-136118838D01*
X116638217Y-136118839D01*
X116700202Y-136126999D01*
X116878712Y-136150500D01*
X116878719Y-136150500D01*
X117121281Y-136150500D01*
X117121288Y-136150500D01*
X117338637Y-136121885D01*
X117361782Y-136118839D01*
X117361782Y-136118838D01*
X117361789Y-136118838D01*
X117596100Y-136056054D01*
X117820212Y-135963224D01*
X118030289Y-135841936D01*
X118222738Y-135694265D01*
X118394265Y-135522738D01*
X118541936Y-135330289D01*
X118663224Y-135120212D01*
X118756054Y-134896100D01*
X118818838Y-134661789D01*
X118850500Y-134421288D01*
X118850500Y-134178712D01*
X118824807Y-133983553D01*
X118818839Y-133938217D01*
X118818838Y-133938215D01*
X118818838Y-133938211D01*
X118756054Y-133703900D01*
X118663224Y-133479788D01*
X118663218Y-133479779D01*
X118663217Y-133479775D01*
X118541938Y-133269714D01*
X118541936Y-133269711D01*
X118394265Y-133077262D01*
X118394259Y-133077256D01*
X118394255Y-133077251D01*
X118222748Y-132905744D01*
X118222742Y-132905739D01*
X118222738Y-132905735D01*
X118030289Y-132758064D01*
X118030288Y-132758063D01*
X118030285Y-132758061D01*
X117820224Y-132636782D01*
X117820216Y-132636778D01*
X117820212Y-132636776D01*
X117596100Y-132543946D01*
X117596097Y-132543945D01*
X117596095Y-132543944D01*
X117361782Y-132481160D01*
X117121290Y-132449500D01*
X117121288Y-132449500D01*
X116878712Y-132449500D01*
X116878709Y-132449500D01*
X116638217Y-132481160D01*
X116403904Y-132543944D01*
X116403900Y-132543946D01*
X116238121Y-132612614D01*
X116179786Y-132636777D01*
X116179775Y-132636782D01*
X115969714Y-132758061D01*
X115777262Y-132905735D01*
X115777251Y-132905744D01*
X115605744Y-133077251D01*
X115605735Y-133077262D01*
X115458061Y-133269714D01*
X115336782Y-133479775D01*
X115336777Y-133479786D01*
X115243946Y-133703900D01*
X115243944Y-133703904D01*
X115181160Y-133938217D01*
X115149500Y-134178709D01*
X112997941Y-134178709D01*
X112998037Y-131419829D01*
X112998559Y-116420063D01*
X112998580Y-115801440D01*
X112999009Y-103479829D01*
X112999869Y-78778709D01*
X115149500Y-78778709D01*
X115149500Y-79021290D01*
X115181160Y-79261782D01*
X115243944Y-79496095D01*
X115243945Y-79496097D01*
X115243946Y-79496100D01*
X115336776Y-79720212D01*
X115336777Y-79720213D01*
X115336782Y-79720224D01*
X115458061Y-79930285D01*
X115458063Y-79930288D01*
X115458064Y-79930289D01*
X115605735Y-80122738D01*
X115605739Y-80122742D01*
X115605744Y-80122748D01*
X115777251Y-80294255D01*
X115777256Y-80294259D01*
X115777262Y-80294265D01*
X115969711Y-80441936D01*
X115969714Y-80441938D01*
X116179775Y-80563217D01*
X116179779Y-80563218D01*
X116179788Y-80563224D01*
X116403900Y-80656054D01*
X116638211Y-80718838D01*
X116638215Y-80718838D01*
X116638217Y-80718839D01*
X116700202Y-80726999D01*
X116878712Y-80750500D01*
X116878719Y-80750500D01*
X117121281Y-80750500D01*
X117121288Y-80750500D01*
X117338637Y-80721885D01*
X117361782Y-80718839D01*
X117361782Y-80718838D01*
X117361789Y-80718838D01*
X117596100Y-80656054D01*
X117820212Y-80563224D01*
X118030289Y-80441936D01*
X118222738Y-80294265D01*
X118394265Y-80122738D01*
X118541936Y-79930289D01*
X118663224Y-79720212D01*
X118756054Y-79496100D01*
X118818838Y-79261789D01*
X118850500Y-79021288D01*
X118850500Y-78778712D01*
X118850500Y-78778709D01*
X152149500Y-78778709D01*
X152149500Y-79021290D01*
X152181160Y-79261782D01*
X152243944Y-79496095D01*
X152243945Y-79496097D01*
X152243946Y-79496100D01*
X152336776Y-79720212D01*
X152336777Y-79720213D01*
X152336782Y-79720224D01*
X152458061Y-79930285D01*
X152458063Y-79930288D01*
X152458064Y-79930289D01*
X152605735Y-80122738D01*
X152605739Y-80122742D01*
X152605744Y-80122748D01*
X152777251Y-80294255D01*
X152777256Y-80294259D01*
X152777262Y-80294265D01*
X152969711Y-80441936D01*
X152969714Y-80441938D01*
X153179775Y-80563217D01*
X153179779Y-80563218D01*
X153179788Y-80563224D01*
X153403900Y-80656054D01*
X153638211Y-80718838D01*
X153638215Y-80718838D01*
X153638217Y-80718839D01*
X153700202Y-80726999D01*
X153878712Y-80750500D01*
X153878719Y-80750500D01*
X154121281Y-80750500D01*
X154121288Y-80750500D01*
X154338637Y-80721885D01*
X154361782Y-80718839D01*
X154361782Y-80718838D01*
X154361789Y-80718838D01*
X154596100Y-80656054D01*
X154820212Y-80563224D01*
X155030289Y-80441936D01*
X155222738Y-80294265D01*
X155394265Y-80122738D01*
X155541936Y-79930289D01*
X155663224Y-79720212D01*
X155756054Y-79496100D01*
X155818838Y-79261789D01*
X155850500Y-79021288D01*
X155850500Y-78778712D01*
X155818838Y-78538211D01*
X155756054Y-78303900D01*
X155663224Y-78079788D01*
X155663218Y-78079779D01*
X155663217Y-78079775D01*
X155541938Y-77869714D01*
X155541936Y-77869711D01*
X155394265Y-77677262D01*
X155394259Y-77677256D01*
X155394255Y-77677251D01*
X155222748Y-77505744D01*
X155222742Y-77505739D01*
X155222738Y-77505735D01*
X155030289Y-77358064D01*
X155030288Y-77358063D01*
X155030285Y-77358061D01*
X154820224Y-77236782D01*
X154820216Y-77236778D01*
X154820212Y-77236776D01*
X154596100Y-77143946D01*
X154596097Y-77143945D01*
X154596095Y-77143944D01*
X154361782Y-77081160D01*
X154121290Y-77049500D01*
X154121288Y-77049500D01*
X153878712Y-77049500D01*
X153878709Y-77049500D01*
X153638217Y-77081160D01*
X153403904Y-77143944D01*
X153403900Y-77143946D01*
X153179786Y-77236777D01*
X153179775Y-77236782D01*
X152969714Y-77358061D01*
X152777262Y-77505735D01*
X152777251Y-77505744D01*
X152605744Y-77677251D01*
X152605735Y-77677262D01*
X152458061Y-77869714D01*
X152336782Y-78079775D01*
X152336777Y-78079786D01*
X152243946Y-78303900D01*
X152243944Y-78303904D01*
X152181160Y-78538217D01*
X152149500Y-78778709D01*
X118850500Y-78778709D01*
X118818838Y-78538211D01*
X118756054Y-78303900D01*
X118663224Y-78079788D01*
X118663218Y-78079779D01*
X118663217Y-78079775D01*
X118541938Y-77869714D01*
X118541936Y-77869711D01*
X118394265Y-77677262D01*
X118394259Y-77677256D01*
X118394255Y-77677251D01*
X118222748Y-77505744D01*
X118222742Y-77505739D01*
X118222738Y-77505735D01*
X118030289Y-77358064D01*
X118030288Y-77358063D01*
X118030285Y-77358061D01*
X117820224Y-77236782D01*
X117820216Y-77236778D01*
X117820212Y-77236776D01*
X117596100Y-77143946D01*
X117596097Y-77143945D01*
X117596095Y-77143944D01*
X117361782Y-77081160D01*
X117121290Y-77049500D01*
X117121288Y-77049500D01*
X116878712Y-77049500D01*
X116878709Y-77049500D01*
X116638217Y-77081160D01*
X116403904Y-77143944D01*
X116403900Y-77143946D01*
X116179786Y-77236777D01*
X116179775Y-77236782D01*
X115969714Y-77358061D01*
X115777262Y-77505735D01*
X115777251Y-77505744D01*
X115605744Y-77677251D01*
X115605735Y-77677262D01*
X115458061Y-77869714D01*
X115336782Y-78079775D01*
X115336777Y-78079786D01*
X115243946Y-78303900D01*
X115243944Y-78303904D01*
X115181160Y-78538217D01*
X115149500Y-78778709D01*
X112999869Y-78778709D01*
X112999869Y-78774583D01*
X112999996Y-75125996D01*
X113020000Y-75057876D01*
X113073658Y-75011385D01*
X113125996Y-75000000D01*
X157874000Y-75000000D01*
X157942121Y-75020002D01*
G37*
%TD.AperFunction*%
%TA.AperFunction,Conductor*%
G36*
X147352339Y-132215139D02*
G01*
X147370055Y-132228011D01*
X147418648Y-132263316D01*
X147462002Y-132319539D01*
X147468077Y-132390275D01*
X147434945Y-132453067D01*
X147418647Y-132467189D01*
X147402485Y-132478930D01*
X147402485Y-132478932D01*
X148135909Y-133212356D01*
X148037886Y-133238622D01*
X147942114Y-133293916D01*
X147863916Y-133372114D01*
X147808622Y-133467886D01*
X147782356Y-133565909D01*
X147048932Y-132832485D01*
X147002611Y-132896243D01*
X146902570Y-133092585D01*
X146902567Y-133092591D01*
X146834474Y-133302160D01*
X146800000Y-133519821D01*
X146800000Y-133740178D01*
X146834474Y-133957839D01*
X146902567Y-134167408D01*
X146902570Y-134167414D01*
X147002615Y-134363763D01*
X147048931Y-134427513D01*
X147048933Y-134427513D01*
X147782356Y-133694090D01*
X147808622Y-133792114D01*
X147863916Y-133887886D01*
X147942114Y-133966084D01*
X148037886Y-134021378D01*
X148135909Y-134047643D01*
X147402485Y-134781066D01*
X147425878Y-134798062D01*
X147469232Y-134854284D01*
X147475309Y-134925020D01*
X147442178Y-134987812D01*
X147425879Y-135001935D01*
X147382370Y-135033546D01*
X147315502Y-135057405D01*
X147246350Y-135041324D01*
X147208746Y-135003170D01*
X147206290Y-135005010D01*
X147113261Y-134880738D01*
X146996207Y-134793112D01*
X146996202Y-134793110D01*
X146859204Y-134742011D01*
X146859196Y-134742009D01*
X146798649Y-134735500D01*
X146798638Y-134735500D01*
X145451362Y-134735500D01*
X145451350Y-134735500D01*
X145390803Y-134742009D01*
X145390796Y-134742011D01*
X145348070Y-134757947D01*
X145277254Y-134763011D01*
X145214942Y-134728985D01*
X145180918Y-134666672D01*
X145178039Y-134639789D01*
X145179820Y-132568662D01*
X145199881Y-132500560D01*
X145253576Y-132454113D01*
X145323859Y-132444070D01*
X145349853Y-132450717D01*
X145390795Y-132465988D01*
X145390803Y-132465990D01*
X145451350Y-132472499D01*
X145451355Y-132472499D01*
X145451362Y-132472500D01*
X145451368Y-132472500D01*
X146798632Y-132472500D01*
X146798638Y-132472500D01*
X146798645Y-132472499D01*
X146798649Y-132472499D01*
X146859196Y-132465990D01*
X146859199Y-132465989D01*
X146859201Y-132465989D01*
X146859585Y-132465846D01*
X146903409Y-132449500D01*
X146996204Y-132414889D01*
X147029085Y-132390275D01*
X147113261Y-132327261D01*
X147177411Y-132241567D01*
X147234246Y-132199020D01*
X147305062Y-132193955D01*
X147352339Y-132215139D01*
G37*
%TD.AperFunction*%
%TA.AperFunction,Conductor*%
G36*
X115929012Y-101433186D02*
G01*
X115948436Y-101454349D01*
X116019658Y-101552378D01*
X116176421Y-101709141D01*
X116312648Y-101808116D01*
X116356002Y-101864339D01*
X116362077Y-101935075D01*
X116328945Y-101997866D01*
X116312647Y-102011989D01*
X116296485Y-102023730D01*
X116296485Y-102023732D01*
X116964590Y-102691837D01*
X116901007Y-102708875D01*
X116786993Y-102774701D01*
X116693901Y-102867793D01*
X116628075Y-102981807D01*
X116611037Y-103045390D01*
X115942932Y-102377285D01*
X115938119Y-102377664D01*
X115892216Y-102413062D01*
X115821480Y-102419139D01*
X115758688Y-102386008D01*
X115723775Y-102324189D01*
X115720500Y-102295648D01*
X115720500Y-101528410D01*
X115740502Y-101460289D01*
X115794158Y-101413796D01*
X115864432Y-101403692D01*
X115929012Y-101433186D01*
G37*
%TD.AperFunction*%
%TD*%
M02*
