%TF.GenerationSoftware,KiCad,Pcbnew,10.0.6-1.fc44*%
%TF.CreationDate,2026-09-11T09:12:19+07:00*%
%TF.ProjectId,LuckFox RAP Shield,4c75636b-466f-4782-9052-415020536869,rev?*%
%TF.SameCoordinates,Original*%
%TF.FileFunction,Copper,L2,Bot*%
%TF.FilePolarity,Positive*%
%FSLAX46Y46*%
G04 Gerber Fmt 4.6, Leading zero omitted, Abs format (unit mm)*
G04 Created by KiCad (PCBNEW 10.0.6-1.fc44) date 2026-09-11 09:12:19*
%MOMM*%
%LPD*%
G01*
G04 APERTURE LIST*
%TA.AperFunction,ComponentPad*%
%ADD10R,1.270000X1.270000*%
%TD*%
%TA.AperFunction,ComponentPad*%
%ADD11C,1.270000*%
%TD*%
%TA.AperFunction,SMDPad,CuDef*%
%ADD12R,1.400000X1.800000*%
%TD*%
%TA.AperFunction,Conductor*%
%ADD13C,0.300000*%
%TD*%
G04 APERTURE END LIST*
D10*
%TO.P,B2,1,5V_1*%
%TO.N,+5V_RAIL*%
X122800000Y-133630000D03*
%TO.P,B2,2,3V3_2*%
%TO.N,+3V3_RAIL*%
X122800000Y-82830000D03*
%TO.P,B2,3,GND_3*%
%TO.N,GND*%
X122800000Y-136170000D03*
%TO.P,B2,4,EN_4*%
%TO.N,unconnected-(B2-EN-Pad4)*%
X122800000Y-87910000D03*
%TO.P,B2,5,GPIO4_MOSI_ETH_5*%
%TO.N,Net-(B2-GPIO4_MOSI_ETH)*%
X122800000Y-90450000D03*
%TO.P,B2,6,GPIO5_MISO_ETH_6*%
%TO.N,Net-(B2-GPIO5_MISO_ETH)*%
X122800000Y-92990000D03*
%TO.P,B2,7,GPIO6_SCK_ETH_7*%
%TO.N,Net-(B2-GPIO6_SCK_ETH)*%
X122800000Y-95530000D03*
%TO.P,B2,8,GPIO7_CS_ETH_8*%
%TO.N,Net-(B2-GPIO7_CS_ETH)*%
X122800000Y-98070000D03*
%TO.P,B2,9,GPIO9_INT_ETH_9*%
%TO.N,Net-(B2-GPIO9_INT_ETH)*%
X122800000Y-118390000D03*
%TO.P,B2,10,GPIO10_CS_LF_10*%
%TO.N,Net-(B2-GPIO10_CS_LF)*%
X122800000Y-120930000D03*
%TO.P,B2,11,GPIO11_MOSI_LF_11*%
%TO.N,Net-(B2-GPIO11_MOSI_LF)*%
X122800000Y-123470000D03*
%TO.P,B2,12,GPIO12_SCK_LF_12*%
%TO.N,Net-(B2-GPIO12_SCK_LF)*%
X122800000Y-126010000D03*
%TO.P,B2,13,GPIO13_MISO_LF_13*%
%TO.N,Net-(B2-GPIO13_MISO_LF)*%
X122800000Y-128550000D03*
%TO.P,B2,14,GPIO15_DATA_RDY_IN_14*%
%TO.N,Net-(B2-GPIO15_DATA_RDY_IN)*%
X122800000Y-100610000D03*
%TO.P,B2,15,GPIO16_SLAVE_RDY_OUT_15*%
%TO.N,Net-(B2-GPIO16_SLAVE_RDY_OUT)*%
X122800000Y-103150000D03*
%TO.P,B2,16,GND_16*%
%TO.N,GND*%
X148200000Y-82830000D03*
D11*
%TO.P,B2,17,3V3_17*%
%TO.N,unconnected-(B2-3V3-Pad17)*%
X122800000Y-85370000D03*
%TO.P,B2,18,GPIO17_18*%
%TO.N,Net-(B2-GPIO17)*%
X122800000Y-105690000D03*
%TO.P,B2,19,GPIO18_19*%
%TO.N,unconnected-(B2-GPIO18-Pad19)*%
X122800000Y-108230000D03*
%TO.P,B2,20,GPIO8_20*%
%TO.N,unconnected-(B2-GPIO8-Pad20)*%
X122800000Y-110770000D03*
%TO.P,B2,21,GPIO3_21*%
%TO.N,unconnected-(B2-GPIO3-Pad21)*%
X122800000Y-113310000D03*
%TO.P,B2,22,GPIO46_22*%
%TO.N,unconnected-(B2-GPIO46-Pad22)*%
X122800000Y-115850000D03*
%TO.P,B2,23,GPIO14_23*%
%TO.N,unconnected-(B2-GPIO14-Pad23)*%
X122800000Y-131090000D03*
%TO.P,B2,24,GPIO43_24*%
%TO.N,unconnected-(B2-GPIO43-Pad24)*%
X148200000Y-85370000D03*
%TO.P,B2,25,GPIO44_25*%
%TO.N,unconnected-(B2-GPIO44-Pad25)*%
X148200000Y-87910000D03*
%TO.P,B2,26,GPIO1_26*%
%TO.N,unconnected-(B2-GPIO1-Pad26)*%
X148200000Y-90450000D03*
%TO.P,B2,27,GPIO2_27*%
%TO.N,unconnected-(B2-GPIO2-Pad27)*%
X148200000Y-92990000D03*
%TO.P,B2,28,GPIO42_28*%
%TO.N,unconnected-(B2-GPIO42-Pad28)*%
X148200000Y-95530000D03*
%TO.P,B2,29,GPIO41_29*%
%TO.N,unconnected-(B2-GPIO41-Pad29)*%
X148200000Y-98070000D03*
%TO.P,B2,30,GPIO40_30*%
%TO.N,unconnected-(B2-GPIO40-Pad30)*%
X148200000Y-100610000D03*
%TO.P,B2,31,GPIO39_31*%
%TO.N,unconnected-(B2-GPIO39-Pad31)*%
X148200000Y-103150000D03*
%TO.P,B2,32,GPIO38_32*%
%TO.N,unconnected-(B2-GPIO38-Pad32)*%
X148200000Y-105690000D03*
%TO.P,B2,33,GPIO37_33*%
%TO.N,unconnected-(B2-GPIO37-Pad33)*%
X148200000Y-108230000D03*
%TO.P,B2,34,GPIO36_34*%
%TO.N,unconnected-(B2-GPIO36-Pad34)*%
X148200000Y-110770000D03*
%TO.P,B2,35,GPIO35_35*%
%TO.N,unconnected-(B2-GPIO35-Pad35)*%
X148200000Y-113310000D03*
%TO.P,B2,36,GPIO0_36*%
%TO.N,unconnected-(B2-GPIO0-Pad36)*%
X148200000Y-115850000D03*
%TO.P,B2,37,GPIO45_37*%
%TO.N,unconnected-(B2-GPIO45-Pad37)*%
X148200000Y-118390000D03*
%TO.P,B2,38,GPIO48_38*%
%TO.N,unconnected-(B2-GPIO48-Pad38)*%
X148200000Y-120930000D03*
%TO.P,B2,39,GPIO47_39*%
%TO.N,unconnected-(B2-GPIO47-Pad39)*%
X148200000Y-123470000D03*
%TO.P,B2,40,GPIO21_40*%
%TO.N,unconnected-(B2-GPIO21-Pad40)*%
X148200000Y-126010000D03*
%TO.P,B2,41,GPIO20_41*%
%TO.N,unconnected-(B2-GPIO20-Pad41)*%
X148200000Y-128550000D03*
%TO.P,B2,42,GPIO19_42*%
%TO.N,unconnected-(B2-GPIO19-Pad42)*%
X148200000Y-131090000D03*
%TO.P,B2,43,GND_43*%
%TO.N,GND*%
X148200000Y-133630000D03*
%TO.P,B2,44,GND_44*%
X148200000Y-136170000D03*
%TD*%
D10*
%TO.P,U2,1,VCC_3V3_1*%
%TO.N,+3V3_RAIL*%
X117094000Y-105714800D03*
D11*
%TO.P,U2,2,GND_2*%
%TO.N,GND*%
X117094000Y-103174800D03*
%TO.P,U2,3,RST_3*%
%TO.N,Net-(B2-GPIO17)*%
X117094000Y-100634800D03*
%TO.P,U2,4,CS_4*%
%TO.N,Net-(B2-GPIO7_CS_ETH)*%
X117094000Y-98094800D03*
%TO.P,U2,5,SCK_5*%
%TO.N,Net-(B2-GPIO6_SCK_ETH)*%
X117094000Y-95554800D03*
%TO.P,U2,6,MOSI_6*%
%TO.N,Net-(B2-GPIO4_MOSI_ETH)*%
X117094000Y-93014800D03*
%TO.P,U2,7,MISO_7*%
%TO.N,Net-(B2-GPIO5_MISO_ETH)*%
X117094000Y-90474800D03*
%TO.P,U2,8,INT_8*%
%TO.N,Net-(B2-GPIO9_INT_ETH)*%
X117094000Y-87934800D03*
%TD*%
D10*
%TO.P,J2,1,5V_IN_1*%
%TO.N,+5V_RAIL*%
X117094000Y-119075200D03*
D11*
%TO.P,J2,2,GND_IN_2*%
%TO.N,GND*%
X117094000Y-116535200D03*
%TD*%
D12*
%TO.P,J1,2,GND_2*%
%TO.N,GND*%
X125000000Y-133700000D03*
%TO.P,J1,7,GPIO1_C1_d_SPI0_CLK_7*%
%TO.N,Net-(B2-GPIO12_SCK_LF)*%
X125000000Y-121000000D03*
%TO.P,J1,21,GND_21*%
%TO.N,GND*%
X146000000Y-133700000D03*
%TD*%
%TO.N,GND*%
D13*
X124723000Y-135627000D02*
X124723000Y-133700000D01*
X148200000Y-136170000D02*
X146277000Y-134247000D01*
X124180000Y-136170000D02*
X124723000Y-135627000D01*
X146277000Y-134247000D02*
X146277000Y-133700000D01*
X146000000Y-133700000D02*
X148200000Y-133630000D01*
X122800000Y-136170000D02*
X124180000Y-136170000D01*
%TO.N,Net-(B2-GPIO5_MISO_ETH)*%
X117094000Y-90474800D02*
X119609200Y-92990000D01*
X119609200Y-92990000D02*
X122800000Y-92990000D01*
%TO.N,Net-(B2-GPIO9_INT_ETH)*%
X114604800Y-110194800D02*
X122800000Y-118390000D01*
X114604800Y-90424000D02*
X114604800Y-110194800D01*
X117094000Y-87934800D02*
X114604800Y-90424000D01*
%TO.N,Net-(B2-GPIO12_SCK_LF)*%
X121158000Y-122224800D02*
X123901200Y-122224800D01*
X123901200Y-122224800D02*
X124750000Y-121376000D01*
X121158000Y-122224800D02*
X121158000Y-125984000D01*
X121184000Y-126010000D02*
X122800000Y-126010000D01*
X121158000Y-125984000D02*
X121184000Y-126010000D01*
%TO.N,Net-(B2-GPIO17)*%
X117094000Y-100634800D02*
X122149200Y-105690000D01*
X122149200Y-105690000D02*
X122800000Y-105690000D01*
%TD*%
%TA.AperFunction,Conductor*%
%TO.N,GND*%
G36*
X157942121Y-75020002D02*
G01*
X157988614Y-75073658D01*
X158000000Y-75126000D01*
X158000000Y-138050000D01*
X157979998Y-138118121D01*
X157926342Y-138164614D01*
X157874000Y-138176000D01*
X146276000Y-138176000D01*
X146207879Y-138155998D01*
X146161386Y-138102342D01*
X146150000Y-138050000D01*
X146150000Y-136080676D01*
X147065000Y-136080676D01*
X147065000Y-136259323D01*
X147092948Y-136435784D01*
X147148152Y-136605685D01*
X147229259Y-136764867D01*
X147229263Y-136764872D01*
X147238651Y-136777795D01*
X147717037Y-136299409D01*
X147734075Y-136362993D01*
X147799901Y-136477007D01*
X147892993Y-136570099D01*
X148007007Y-136635925D01*
X148070590Y-136652962D01*
X147592204Y-137131347D01*
X147592204Y-137131348D01*
X147605124Y-137140735D01*
X147764314Y-137221847D01*
X147934215Y-137277051D01*
X148110676Y-137305000D01*
X148289324Y-137305000D01*
X148465784Y-137277051D01*
X148635685Y-137221847D01*
X148794873Y-137140736D01*
X148807794Y-137131348D01*
X148329409Y-136652962D01*
X148392993Y-136635925D01*
X148507007Y-136570099D01*
X148600099Y-136477007D01*
X148665925Y-136362993D01*
X148682962Y-136299408D01*
X149161348Y-136777794D01*
X149170736Y-136764873D01*
X149251847Y-136605685D01*
X149307051Y-136435784D01*
X149335000Y-136259323D01*
X149335000Y-136080676D01*
X149307051Y-135904215D01*
X149251847Y-135734314D01*
X149170735Y-135575124D01*
X149161348Y-135562204D01*
X149161347Y-135562204D01*
X148682962Y-136040589D01*
X148665925Y-135977007D01*
X148600099Y-135862993D01*
X148507007Y-135769901D01*
X148392993Y-135704075D01*
X148329409Y-135687037D01*
X148807795Y-135208651D01*
X148794872Y-135199263D01*
X148794867Y-135199259D01*
X148635685Y-135118152D01*
X148465784Y-135062948D01*
X148289324Y-135035000D01*
X148110676Y-135035000D01*
X147934215Y-135062948D01*
X147764314Y-135118152D01*
X147605127Y-135199262D01*
X147592203Y-135208650D01*
X148070591Y-135687037D01*
X148007007Y-135704075D01*
X147892993Y-135769901D01*
X147799901Y-135862993D01*
X147734075Y-135977007D01*
X147717037Y-136040590D01*
X147238650Y-135562203D01*
X147229262Y-135575127D01*
X147148152Y-135734314D01*
X147092948Y-135904215D01*
X147065000Y-136080676D01*
X146150000Y-136080676D01*
X146150000Y-135226000D01*
X146170002Y-135157879D01*
X146223658Y-135111386D01*
X146276000Y-135100000D01*
X146747824Y-135100000D01*
X146747840Y-135099999D01*
X146807371Y-135093599D01*
X146942089Y-135043352D01*
X147057189Y-134957189D01*
X147143352Y-134842089D01*
X147193599Y-134707371D01*
X147199999Y-134647840D01*
X147200000Y-134647823D01*
X147200000Y-134421809D01*
X147190408Y-134398653D01*
X147193991Y-134397168D01*
X147182399Y-134375957D01*
X147187437Y-134305140D01*
X147216414Y-134260031D01*
X147717037Y-133759407D01*
X147734075Y-133822993D01*
X147799901Y-133937007D01*
X147892993Y-134030099D01*
X148007007Y-134095925D01*
X148070590Y-134112962D01*
X147592204Y-134591347D01*
X147592204Y-134591348D01*
X147605124Y-134600735D01*
X147764314Y-134681847D01*
X147934215Y-134737051D01*
X148110676Y-134765000D01*
X148289324Y-134765000D01*
X148465784Y-134737051D01*
X148635685Y-134681847D01*
X148794873Y-134600736D01*
X148807794Y-134591348D01*
X148329409Y-134112962D01*
X148392993Y-134095925D01*
X148507007Y-134030099D01*
X148600099Y-133937007D01*
X148665925Y-133822993D01*
X148682962Y-133759408D01*
X149161348Y-134237794D01*
X149170736Y-134224873D01*
X149194258Y-134178709D01*
X152149500Y-134178709D01*
X152149500Y-134421290D01*
X152181160Y-134661782D01*
X152243944Y-134896095D01*
X152243945Y-134896097D01*
X152243946Y-134896100D01*
X152336776Y-135120212D01*
X152336777Y-135120213D01*
X152336782Y-135120224D01*
X152458061Y-135330285D01*
X152458063Y-135330288D01*
X152458064Y-135330289D01*
X152605735Y-135522738D01*
X152605739Y-135522742D01*
X152605744Y-135522748D01*
X152777251Y-135694255D01*
X152777256Y-135694259D01*
X152777262Y-135694265D01*
X152936492Y-135816446D01*
X152969714Y-135841938D01*
X153179775Y-135963217D01*
X153179779Y-135963218D01*
X153179788Y-135963224D01*
X153403900Y-136056054D01*
X153638211Y-136118838D01*
X153638215Y-136118838D01*
X153638217Y-136118839D01*
X153700202Y-136126999D01*
X153878712Y-136150500D01*
X153878719Y-136150500D01*
X154121281Y-136150500D01*
X154121288Y-136150500D01*
X154338637Y-136121885D01*
X154361782Y-136118839D01*
X154361782Y-136118838D01*
X154361789Y-136118838D01*
X154596100Y-136056054D01*
X154820212Y-135963224D01*
X155030289Y-135841936D01*
X155222738Y-135694265D01*
X155394265Y-135522738D01*
X155541936Y-135330289D01*
X155663224Y-135120212D01*
X155756054Y-134896100D01*
X155818838Y-134661789D01*
X155850500Y-134421288D01*
X155850500Y-134178712D01*
X155818838Y-133938211D01*
X155756054Y-133703900D01*
X155663224Y-133479788D01*
X155663218Y-133479779D01*
X155663217Y-133479775D01*
X155541938Y-133269714D01*
X155541936Y-133269711D01*
X155394265Y-133077262D01*
X155394259Y-133077256D01*
X155394255Y-133077251D01*
X155222748Y-132905744D01*
X155222742Y-132905739D01*
X155222738Y-132905735D01*
X155030289Y-132758064D01*
X155030288Y-132758063D01*
X155030285Y-132758061D01*
X154820224Y-132636782D01*
X154820216Y-132636778D01*
X154820212Y-132636776D01*
X154596100Y-132543946D01*
X154596097Y-132543945D01*
X154596095Y-132543944D01*
X154361782Y-132481160D01*
X154121290Y-132449500D01*
X154121288Y-132449500D01*
X153878712Y-132449500D01*
X153878709Y-132449500D01*
X153638217Y-132481160D01*
X153403904Y-132543944D01*
X153403900Y-132543946D01*
X153191949Y-132631739D01*
X153179786Y-132636777D01*
X153179775Y-132636782D01*
X152969714Y-132758061D01*
X152777262Y-132905735D01*
X152777251Y-132905744D01*
X152605744Y-133077251D01*
X152605735Y-133077262D01*
X152458061Y-133269714D01*
X152336782Y-133479775D01*
X152336777Y-133479786D01*
X152336776Y-133479788D01*
X152301822Y-133564174D01*
X152243946Y-133703900D01*
X152243944Y-133703904D01*
X152181160Y-133938217D01*
X152149500Y-134178709D01*
X149194258Y-134178709D01*
X149225505Y-134117384D01*
X149225506Y-134117382D01*
X149251845Y-134065689D01*
X149251846Y-134065686D01*
X149307051Y-133895784D01*
X149335000Y-133719323D01*
X149335000Y-133540676D01*
X149307051Y-133364215D01*
X149251847Y-133194314D01*
X149170735Y-133035124D01*
X149161348Y-133022204D01*
X149161347Y-133022204D01*
X148682962Y-133500589D01*
X148665925Y-133437007D01*
X148600099Y-133322993D01*
X148507007Y-133229901D01*
X148392993Y-133164075D01*
X148329409Y-133147037D01*
X148807795Y-132668651D01*
X148794872Y-132659263D01*
X148794867Y-132659259D01*
X148635685Y-132578152D01*
X148465784Y-132522948D01*
X148289324Y-132495000D01*
X148110676Y-132495000D01*
X147934215Y-132522948D01*
X147764314Y-132578152D01*
X147605127Y-132659262D01*
X147592203Y-132668650D01*
X148070591Y-133147037D01*
X148007007Y-133164075D01*
X147892993Y-133229901D01*
X147799901Y-133322993D01*
X147734075Y-133437007D01*
X147717037Y-133500590D01*
X147216414Y-132999967D01*
X147182388Y-132937655D01*
X147180012Y-132899627D01*
X147196304Y-132717794D01*
X147193598Y-132692627D01*
X147143352Y-132557910D01*
X147057189Y-132442810D01*
X146942089Y-132356647D01*
X146807371Y-132306400D01*
X146747840Y-132300000D01*
X146276000Y-132300000D01*
X146207879Y-132279998D01*
X146161386Y-132226342D01*
X146150000Y-132174000D01*
X146150000Y-131000005D01*
X147056500Y-131000005D01*
X147056500Y-131179995D01*
X147084657Y-131357770D01*
X147084658Y-131357775D01*
X147140275Y-131528947D01*
X147140277Y-131528952D01*
X147140278Y-131528953D01*
X147221993Y-131689328D01*
X147327788Y-131834942D01*
X147455057Y-131962211D01*
X147455060Y-131962213D01*
X147600675Y-132068009D01*
X147761048Y-132149723D01*
X147932224Y-132205341D01*
X147932225Y-132205341D01*
X147932230Y-132205343D01*
X148110005Y-132233500D01*
X148110008Y-132233500D01*
X148289992Y-132233500D01*
X148289995Y-132233500D01*
X148467770Y-132205343D01*
X148638952Y-132149723D01*
X148799325Y-132068009D01*
X148944940Y-131962213D01*
X149072213Y-131834940D01*
X149178009Y-131689325D01*
X149259723Y-131528952D01*
X149315343Y-131357770D01*
X149343500Y-131179995D01*
X149343500Y-131000005D01*
X149315343Y-130822230D01*
X149259723Y-130651048D01*
X149178009Y-130490675D01*
X149072213Y-130345060D01*
X149072211Y-130345057D01*
X148944942Y-130217788D01*
X148799328Y-130111993D01*
X148799327Y-130111992D01*
X148799325Y-130111991D01*
X148638952Y-130030277D01*
X148638949Y-130030276D01*
X148638947Y-130030275D01*
X148467773Y-129974658D01*
X148467777Y-129974658D01*
X148434677Y-129969415D01*
X148289995Y-129946500D01*
X148110005Y-129946500D01*
X147932230Y-129974657D01*
X147932224Y-129974658D01*
X147761052Y-130030275D01*
X147761046Y-130030278D01*
X147600671Y-130111993D01*
X147455057Y-130217788D01*
X147327788Y-130345057D01*
X147221993Y-130490671D01*
X147140278Y-130651046D01*
X147140275Y-130651052D01*
X147084658Y-130822224D01*
X147084657Y-130822229D01*
X147084657Y-130822230D01*
X147056500Y-131000005D01*
X146150000Y-131000005D01*
X146150000Y-128460005D01*
X147056500Y-128460005D01*
X147056500Y-128639995D01*
X147084657Y-128817770D01*
X147084658Y-128817775D01*
X147140275Y-128988947D01*
X147140277Y-128988952D01*
X147140278Y-128988953D01*
X147221993Y-129149328D01*
X147327788Y-129294942D01*
X147455057Y-129422211D01*
X147455060Y-129422213D01*
X147600675Y-129528009D01*
X147761048Y-129609723D01*
X147932224Y-129665341D01*
X147932225Y-129665341D01*
X147932230Y-129665343D01*
X148110005Y-129693500D01*
X148110008Y-129693500D01*
X148289992Y-129693500D01*
X148289995Y-129693500D01*
X148467770Y-129665343D01*
X148638952Y-129609723D01*
X148799325Y-129528009D01*
X148944940Y-129422213D01*
X149072213Y-129294940D01*
X149178009Y-129149325D01*
X149259723Y-128988952D01*
X149315343Y-128817770D01*
X149343500Y-128639995D01*
X149343500Y-128460005D01*
X149315343Y-128282230D01*
X149259723Y-128111048D01*
X149178009Y-127950675D01*
X149072213Y-127805060D01*
X149072211Y-127805057D01*
X148944942Y-127677788D01*
X148799328Y-127571993D01*
X148799327Y-127571992D01*
X148799325Y-127571991D01*
X148638952Y-127490277D01*
X148638949Y-127490276D01*
X148638947Y-127490275D01*
X148467773Y-127434658D01*
X148467777Y-127434658D01*
X148434677Y-127429415D01*
X148289995Y-127406500D01*
X148110005Y-127406500D01*
X147932230Y-127434657D01*
X147932224Y-127434658D01*
X147761052Y-127490275D01*
X147761046Y-127490278D01*
X147600671Y-127571993D01*
X147455057Y-127677788D01*
X147327788Y-127805057D01*
X147221993Y-127950671D01*
X147140278Y-128111046D01*
X147140275Y-128111052D01*
X147084658Y-128282224D01*
X147084657Y-128282229D01*
X147084657Y-128282230D01*
X147056500Y-128460005D01*
X146150000Y-128460005D01*
X146150000Y-125920005D01*
X147056500Y-125920005D01*
X147056500Y-126099995D01*
X147068551Y-126176080D01*
X147084658Y-126277775D01*
X147140275Y-126448947D01*
X147140277Y-126448952D01*
X147213955Y-126593553D01*
X147221993Y-126609328D01*
X147327788Y-126754942D01*
X147455057Y-126882211D01*
X147467435Y-126891204D01*
X147600675Y-126988009D01*
X147761048Y-127069723D01*
X147932224Y-127125341D01*
X147932225Y-127125341D01*
X147932230Y-127125343D01*
X148110005Y-127153500D01*
X148110008Y-127153500D01*
X148289992Y-127153500D01*
X148289995Y-127153500D01*
X148467770Y-127125343D01*
X148638952Y-127069723D01*
X148799325Y-126988009D01*
X148944940Y-126882213D01*
X149072213Y-126754940D01*
X149178009Y-126609325D01*
X149259723Y-126448952D01*
X149315343Y-126277770D01*
X149343500Y-126099995D01*
X149343500Y-125920005D01*
X149315343Y-125742230D01*
X149259723Y-125571048D01*
X149178009Y-125410675D01*
X149072213Y-125265060D01*
X149072211Y-125265057D01*
X148944942Y-125137788D01*
X148799328Y-125031993D01*
X148799327Y-125031992D01*
X148799325Y-125031991D01*
X148638952Y-124950277D01*
X148638949Y-124950276D01*
X148638947Y-124950275D01*
X148467773Y-124894658D01*
X148467777Y-124894658D01*
X148434677Y-124889415D01*
X148289995Y-124866500D01*
X148110005Y-124866500D01*
X147932230Y-124894657D01*
X147932224Y-124894658D01*
X147761052Y-124950275D01*
X147761046Y-124950278D01*
X147600671Y-125031993D01*
X147455057Y-125137788D01*
X147327788Y-125265057D01*
X147221993Y-125410671D01*
X147140278Y-125571046D01*
X147140275Y-125571052D01*
X147084658Y-125742224D01*
X147084657Y-125742229D01*
X147084657Y-125742230D01*
X147056500Y-125920005D01*
X146150000Y-125920005D01*
X146150000Y-123380005D01*
X147056500Y-123380005D01*
X147056500Y-123559995D01*
X147084657Y-123737770D01*
X147084658Y-123737775D01*
X147140275Y-123908947D01*
X147140277Y-123908952D01*
X147140278Y-123908953D01*
X147221993Y-124069328D01*
X147327788Y-124214942D01*
X147455057Y-124342211D01*
X147455060Y-124342213D01*
X147600675Y-124448009D01*
X147761048Y-124529723D01*
X147932224Y-124585341D01*
X147932225Y-124585341D01*
X147932230Y-124585343D01*
X148110005Y-124613500D01*
X148110008Y-124613500D01*
X148289992Y-124613500D01*
X148289995Y-124613500D01*
X148467770Y-124585343D01*
X148638952Y-124529723D01*
X148799325Y-124448009D01*
X148944940Y-124342213D01*
X149072213Y-124214940D01*
X149178009Y-124069325D01*
X149259723Y-123908952D01*
X149315343Y-123737770D01*
X149343500Y-123559995D01*
X149343500Y-123380005D01*
X149315343Y-123202230D01*
X149259723Y-123031048D01*
X149178009Y-122870675D01*
X149072213Y-122725060D01*
X149072211Y-122725057D01*
X148944942Y-122597788D01*
X148799328Y-122491993D01*
X148799327Y-122491992D01*
X148799325Y-122491991D01*
X148638952Y-122410277D01*
X148638949Y-122410276D01*
X148638947Y-122410275D01*
X148467773Y-122354658D01*
X148467777Y-122354658D01*
X148434677Y-122349415D01*
X148289995Y-122326500D01*
X148110005Y-122326500D01*
X147932230Y-122354657D01*
X147932224Y-122354658D01*
X147761052Y-122410275D01*
X147761046Y-122410278D01*
X147600671Y-122491993D01*
X147455057Y-122597788D01*
X147327788Y-122725057D01*
X147221993Y-122870671D01*
X147140278Y-123031046D01*
X147140275Y-123031052D01*
X147084658Y-123202224D01*
X147084657Y-123202229D01*
X147084657Y-123202230D01*
X147056500Y-123380005D01*
X146150000Y-123380005D01*
X146150000Y-120840005D01*
X147056500Y-120840005D01*
X147056500Y-121019995D01*
X147084657Y-121197770D01*
X147084658Y-121197775D01*
X147140275Y-121368947D01*
X147140277Y-121368952D01*
X147140278Y-121368953D01*
X147221993Y-121529328D01*
X147327788Y-121674942D01*
X147455057Y-121802211D01*
X147550714Y-121871710D01*
X147600675Y-121908009D01*
X147761048Y-121989723D01*
X147932224Y-122045341D01*
X147932225Y-122045341D01*
X147932230Y-122045343D01*
X148110005Y-122073500D01*
X148110008Y-122073500D01*
X148289992Y-122073500D01*
X148289995Y-122073500D01*
X148467770Y-122045343D01*
X148638952Y-121989723D01*
X148799325Y-121908009D01*
X148944940Y-121802213D01*
X149072213Y-121674940D01*
X149178009Y-121529325D01*
X149259723Y-121368952D01*
X149315343Y-121197770D01*
X149343500Y-121019995D01*
X149343500Y-120840005D01*
X149315343Y-120662230D01*
X149259723Y-120491048D01*
X149178009Y-120330675D01*
X149091924Y-120212190D01*
X149072211Y-120185057D01*
X148944942Y-120057788D01*
X148799328Y-119951993D01*
X148799327Y-119951992D01*
X148799325Y-119951991D01*
X148638952Y-119870277D01*
X148638949Y-119870276D01*
X148638947Y-119870275D01*
X148467773Y-119814658D01*
X148467777Y-119814658D01*
X148434677Y-119809415D01*
X148289995Y-119786500D01*
X148110005Y-119786500D01*
X147932230Y-119814657D01*
X147932224Y-119814658D01*
X147761052Y-119870275D01*
X147761046Y-119870278D01*
X147600671Y-119951993D01*
X147455057Y-120057788D01*
X147327788Y-120185057D01*
X147221993Y-120330671D01*
X147140278Y-120491046D01*
X147140275Y-120491052D01*
X147084658Y-120662224D01*
X147084657Y-120662229D01*
X147084657Y-120662230D01*
X147056500Y-120840005D01*
X146150000Y-120840005D01*
X146150000Y-118300005D01*
X147056500Y-118300005D01*
X147056500Y-118479995D01*
X147084657Y-118657770D01*
X147084658Y-118657775D01*
X147140275Y-118828947D01*
X147140277Y-118828952D01*
X147140278Y-118828953D01*
X147221993Y-118989328D01*
X147327788Y-119134942D01*
X147455057Y-119262211D01*
X147455060Y-119262213D01*
X147600675Y-119368009D01*
X147761048Y-119449723D01*
X147932224Y-119505341D01*
X147932225Y-119505341D01*
X147932230Y-119505343D01*
X148110005Y-119533500D01*
X148110008Y-119533500D01*
X148289992Y-119533500D01*
X148289995Y-119533500D01*
X148467770Y-119505343D01*
X148638952Y-119449723D01*
X148799325Y-119368009D01*
X148944940Y-119262213D01*
X149072213Y-119134940D01*
X149178009Y-118989325D01*
X149259723Y-118828952D01*
X149315343Y-118657770D01*
X149343500Y-118479995D01*
X149343500Y-118300005D01*
X149315343Y-118122230D01*
X149259723Y-117951048D01*
X149178009Y-117790675D01*
X149072213Y-117645060D01*
X149072211Y-117645057D01*
X148944942Y-117517788D01*
X148799328Y-117411993D01*
X148799327Y-117411992D01*
X148799325Y-117411991D01*
X148638952Y-117330277D01*
X148638949Y-117330276D01*
X148638947Y-117330275D01*
X148467773Y-117274658D01*
X148467777Y-117274658D01*
X148434677Y-117269415D01*
X148289995Y-117246500D01*
X148110005Y-117246500D01*
X147932230Y-117274657D01*
X147932224Y-117274658D01*
X147761052Y-117330275D01*
X147761046Y-117330278D01*
X147600671Y-117411993D01*
X147455057Y-117517788D01*
X147327788Y-117645057D01*
X147221993Y-117790671D01*
X147140278Y-117951046D01*
X147140275Y-117951052D01*
X147084658Y-118122224D01*
X147084657Y-118122229D01*
X147084657Y-118122230D01*
X147056500Y-118300005D01*
X146150000Y-118300005D01*
X146150000Y-115760005D01*
X147056500Y-115760005D01*
X147056500Y-115939995D01*
X147076976Y-116069275D01*
X147084658Y-116117775D01*
X147105411Y-116181646D01*
X147140277Y-116288952D01*
X147140278Y-116288953D01*
X147221993Y-116449328D01*
X147327788Y-116594942D01*
X147455057Y-116722211D01*
X147485825Y-116744565D01*
X147600675Y-116828009D01*
X147761048Y-116909723D01*
X147932224Y-116965341D01*
X147932225Y-116965341D01*
X147932230Y-116965343D01*
X148110005Y-116993500D01*
X148110008Y-116993500D01*
X148289992Y-116993500D01*
X148289995Y-116993500D01*
X148467770Y-116965343D01*
X148638952Y-116909723D01*
X148799325Y-116828009D01*
X148944940Y-116722213D01*
X149072213Y-116594940D01*
X149178009Y-116449325D01*
X149259723Y-116288952D01*
X149315343Y-116117770D01*
X149343500Y-115939995D01*
X149343500Y-115760005D01*
X149315343Y-115582230D01*
X149259723Y-115411048D01*
X149178009Y-115250675D01*
X149072213Y-115105060D01*
X149072211Y-115105057D01*
X148944942Y-114977788D01*
X148799328Y-114871993D01*
X148799327Y-114871992D01*
X148799325Y-114871991D01*
X148638952Y-114790277D01*
X148638949Y-114790276D01*
X148638947Y-114790275D01*
X148467773Y-114734658D01*
X148467777Y-114734658D01*
X148434677Y-114729415D01*
X148289995Y-114706500D01*
X148110005Y-114706500D01*
X147932230Y-114734657D01*
X147932224Y-114734658D01*
X147761052Y-114790275D01*
X147761046Y-114790278D01*
X147600671Y-114871993D01*
X147455057Y-114977788D01*
X147327788Y-115105057D01*
X147221993Y-115250671D01*
X147140278Y-115411046D01*
X147140275Y-115411052D01*
X147084658Y-115582224D01*
X147084657Y-115582229D01*
X147084657Y-115582230D01*
X147056500Y-115760005D01*
X146150000Y-115760005D01*
X146150000Y-113220005D01*
X147056500Y-113220005D01*
X147056500Y-113399995D01*
X147084657Y-113577770D01*
X147084658Y-113577775D01*
X147140275Y-113748947D01*
X147140277Y-113748952D01*
X147140278Y-113748953D01*
X147221993Y-113909328D01*
X147327788Y-114054942D01*
X147455057Y-114182211D01*
X147455060Y-114182213D01*
X147600675Y-114288009D01*
X147761048Y-114369723D01*
X147932224Y-114425341D01*
X147932225Y-114425341D01*
X147932230Y-114425343D01*
X148110005Y-114453500D01*
X148110008Y-114453500D01*
X148289992Y-114453500D01*
X148289995Y-114453500D01*
X148467770Y-114425343D01*
X148638952Y-114369723D01*
X148799325Y-114288009D01*
X148944940Y-114182213D01*
X149072213Y-114054940D01*
X149178009Y-113909325D01*
X149259723Y-113748952D01*
X149315343Y-113577770D01*
X149343500Y-113399995D01*
X149343500Y-113220005D01*
X149315343Y-113042230D01*
X149259723Y-112871048D01*
X149178009Y-112710675D01*
X149072213Y-112565060D01*
X149072211Y-112565057D01*
X148944942Y-112437788D01*
X148799328Y-112331993D01*
X148799327Y-112331992D01*
X148799325Y-112331991D01*
X148638952Y-112250277D01*
X148638949Y-112250276D01*
X148638947Y-112250275D01*
X148467773Y-112194658D01*
X148467777Y-112194658D01*
X148434677Y-112189415D01*
X148289995Y-112166500D01*
X148110005Y-112166500D01*
X147932230Y-112194657D01*
X147932224Y-112194658D01*
X147761052Y-112250275D01*
X147761046Y-112250278D01*
X147600671Y-112331993D01*
X147455057Y-112437788D01*
X147327788Y-112565057D01*
X147221993Y-112710671D01*
X147140278Y-112871046D01*
X147140275Y-112871052D01*
X147084658Y-113042224D01*
X147084657Y-113042229D01*
X147084657Y-113042230D01*
X147056500Y-113220005D01*
X146150000Y-113220005D01*
X146150000Y-110680005D01*
X147056500Y-110680005D01*
X147056500Y-110859995D01*
X147084657Y-111037770D01*
X147084658Y-111037775D01*
X147140275Y-111208947D01*
X147140277Y-111208952D01*
X147140278Y-111208953D01*
X147221993Y-111369328D01*
X147327788Y-111514942D01*
X147455057Y-111642211D01*
X147455060Y-111642213D01*
X147600675Y-111748009D01*
X147761048Y-111829723D01*
X147932224Y-111885341D01*
X147932225Y-111885341D01*
X147932230Y-111885343D01*
X148110005Y-111913500D01*
X148110008Y-111913500D01*
X148289992Y-111913500D01*
X148289995Y-111913500D01*
X148467770Y-111885343D01*
X148638952Y-111829723D01*
X148799325Y-111748009D01*
X148944940Y-111642213D01*
X149072213Y-111514940D01*
X149178009Y-111369325D01*
X149259723Y-111208952D01*
X149315343Y-111037770D01*
X149343500Y-110859995D01*
X149343500Y-110680005D01*
X149315343Y-110502230D01*
X149259723Y-110331048D01*
X149178009Y-110170675D01*
X149072213Y-110025060D01*
X149072211Y-110025057D01*
X148944942Y-109897788D01*
X148799328Y-109791993D01*
X148799327Y-109791992D01*
X148799325Y-109791991D01*
X148638952Y-109710277D01*
X148638949Y-109710276D01*
X148638947Y-109710275D01*
X148467773Y-109654658D01*
X148467777Y-109654658D01*
X148434677Y-109649415D01*
X148289995Y-109626500D01*
X148110005Y-109626500D01*
X147932230Y-109654657D01*
X147932224Y-109654658D01*
X147761052Y-109710275D01*
X147761046Y-109710278D01*
X147600671Y-109791993D01*
X147455057Y-109897788D01*
X147327788Y-110025057D01*
X147221993Y-110170671D01*
X147140278Y-110331046D01*
X147140275Y-110331052D01*
X147084658Y-110502224D01*
X147084657Y-110502229D01*
X147084657Y-110502230D01*
X147056500Y-110680005D01*
X146150000Y-110680005D01*
X146150000Y-109990000D01*
X124850000Y-109990000D01*
X124850000Y-119465500D01*
X124829998Y-119533621D01*
X124776342Y-119580114D01*
X124724000Y-119591500D01*
X124251350Y-119591500D01*
X124190803Y-119598009D01*
X124190795Y-119598011D01*
X124053797Y-119649110D01*
X124053792Y-119649112D01*
X123936738Y-119736738D01*
X123868965Y-119827273D01*
X123812129Y-119869820D01*
X123741313Y-119874884D01*
X123692589Y-119852633D01*
X123681206Y-119844112D01*
X123681202Y-119844110D01*
X123544204Y-119793011D01*
X123544196Y-119793009D01*
X123483649Y-119786500D01*
X123483638Y-119786500D01*
X122116362Y-119786500D01*
X122116350Y-119786500D01*
X122055803Y-119793009D01*
X122055795Y-119793011D01*
X121918797Y-119844110D01*
X121918792Y-119844112D01*
X121801738Y-119931738D01*
X121714112Y-120048792D01*
X121714110Y-120048797D01*
X121663011Y-120185795D01*
X121663009Y-120185803D01*
X121656500Y-120246350D01*
X121656500Y-121440300D01*
X121636498Y-121508421D01*
X121582842Y-121554914D01*
X121530500Y-121566300D01*
X121093139Y-121566300D01*
X120965922Y-121591606D01*
X120965919Y-121591607D01*
X120846083Y-121641245D01*
X120738231Y-121713309D01*
X120738225Y-121713314D01*
X120646514Y-121805025D01*
X120646509Y-121805031D01*
X120574445Y-121912883D01*
X120524807Y-122032719D01*
X120524806Y-122032722D01*
X120499500Y-122159939D01*
X120499500Y-126048860D01*
X120509671Y-126099991D01*
X120524806Y-126176077D01*
X120574445Y-126295917D01*
X120646509Y-126403769D01*
X120764231Y-126521491D01*
X120872083Y-126593555D01*
X120991923Y-126643195D01*
X120991927Y-126643195D01*
X120991928Y-126643196D01*
X120991929Y-126643197D01*
X121098035Y-126664301D01*
X121098041Y-126664302D01*
X121119143Y-126668500D01*
X121119144Y-126668500D01*
X121248857Y-126668500D01*
X121543563Y-126668500D01*
X121611684Y-126688502D01*
X121658177Y-126742158D01*
X121661618Y-126750467D01*
X121714110Y-126891203D01*
X121714112Y-126891207D01*
X121801738Y-127008261D01*
X121918792Y-127095887D01*
X121918794Y-127095888D01*
X121918796Y-127095889D01*
X121977875Y-127117924D01*
X122055795Y-127146988D01*
X122055803Y-127146990D01*
X122116350Y-127153499D01*
X122116355Y-127153499D01*
X122116362Y-127153500D01*
X122116368Y-127153500D01*
X123483632Y-127153500D01*
X123483638Y-127153500D01*
X123483645Y-127153499D01*
X123483649Y-127153499D01*
X123544196Y-127146990D01*
X123544199Y-127146989D01*
X123544201Y-127146989D01*
X123681204Y-127095889D01*
X123798261Y-127008261D01*
X123885887Y-126891207D01*
X123885887Y-126891206D01*
X123885889Y-126891204D01*
X123936989Y-126754201D01*
X123937391Y-126750467D01*
X123943499Y-126693649D01*
X123943500Y-126693632D01*
X123943500Y-125326367D01*
X123943499Y-125326350D01*
X123936990Y-125265803D01*
X123936988Y-125265795D01*
X123889243Y-125137788D01*
X123885889Y-125128796D01*
X123885888Y-125128794D01*
X123885887Y-125128792D01*
X123798261Y-125011738D01*
X123681207Y-124924112D01*
X123681202Y-124924110D01*
X123544204Y-124873011D01*
X123544196Y-124873009D01*
X123483649Y-124866500D01*
X123483638Y-124866500D01*
X122116362Y-124866500D01*
X122116350Y-124866500D01*
X122055803Y-124873009D01*
X122055799Y-124873010D01*
X121986532Y-124898846D01*
X121915716Y-124903910D01*
X121853404Y-124869885D01*
X121819379Y-124807573D01*
X121816500Y-124780790D01*
X121816500Y-124699209D01*
X121836502Y-124631088D01*
X121890158Y-124584595D01*
X121960432Y-124574491D01*
X121986533Y-124581154D01*
X122055795Y-124606988D01*
X122055803Y-124606990D01*
X122116350Y-124613499D01*
X122116355Y-124613499D01*
X122116362Y-124613500D01*
X122116368Y-124613500D01*
X123483632Y-124613500D01*
X123483638Y-124613500D01*
X123483645Y-124613499D01*
X123483649Y-124613499D01*
X123544196Y-124606990D01*
X123544199Y-124606989D01*
X123544201Y-124606989D01*
X123681204Y-124555889D01*
X123798261Y-124468261D01*
X123885887Y-124351207D01*
X123885887Y-124351206D01*
X123885889Y-124351204D01*
X123936989Y-124214201D01*
X123943500Y-124153638D01*
X123943500Y-122991192D01*
X123963502Y-122923071D01*
X124017158Y-122876578D01*
X124044915Y-122867613D01*
X124093277Y-122857994D01*
X124213117Y-122808355D01*
X124320969Y-122736291D01*
X124611855Y-122445405D01*
X124674167Y-122411379D01*
X124700950Y-122408500D01*
X124724000Y-122408500D01*
X124792121Y-122428502D01*
X124838614Y-122482158D01*
X124850000Y-122534500D01*
X124850000Y-132174000D01*
X124829998Y-132242121D01*
X124776342Y-132288614D01*
X124724000Y-132300000D01*
X124252159Y-132300000D01*
X124192628Y-132306400D01*
X124057910Y-132356647D01*
X123942812Y-132442809D01*
X123875769Y-132532368D01*
X123818933Y-132574914D01*
X123748117Y-132579978D01*
X123699391Y-132557726D01*
X123681203Y-132544110D01*
X123544204Y-132493011D01*
X123544196Y-132493009D01*
X123483649Y-132486500D01*
X123483638Y-132486500D01*
X122116362Y-132486500D01*
X122116350Y-132486500D01*
X122055803Y-132493009D01*
X122055795Y-132493011D01*
X121918797Y-132544110D01*
X121918792Y-132544112D01*
X121801738Y-132631738D01*
X121714112Y-132748792D01*
X121714110Y-132748797D01*
X121663011Y-132885795D01*
X121663009Y-132885803D01*
X121656500Y-132946350D01*
X121656500Y-134313649D01*
X121663009Y-134374196D01*
X121663011Y-134374204D01*
X121714110Y-134511202D01*
X121714112Y-134511207D01*
X121801738Y-134628261D01*
X121918792Y-134715887D01*
X121918794Y-134715888D01*
X121918796Y-134715889D01*
X121975533Y-134737051D01*
X122055795Y-134766988D01*
X122055803Y-134766990D01*
X122116350Y-134773499D01*
X122116355Y-134773499D01*
X122116362Y-134773500D01*
X122116368Y-134773500D01*
X123483632Y-134773500D01*
X123483638Y-134773500D01*
X123483645Y-134773499D01*
X123483649Y-134773499D01*
X123544196Y-134766990D01*
X123544201Y-134766989D01*
X123549534Y-134765000D01*
X123675845Y-134717887D01*
X123746658Y-134712822D01*
X123808971Y-134746847D01*
X123837932Y-134791910D01*
X123856648Y-134842090D01*
X123942810Y-134957189D01*
X124057910Y-135043352D01*
X124192628Y-135093599D01*
X124252159Y-135099999D01*
X124252176Y-135100000D01*
X124724000Y-135100000D01*
X124792121Y-135120002D01*
X124838614Y-135173658D01*
X124850000Y-135226000D01*
X124850000Y-136240000D01*
X124849404Y-136777795D01*
X124847939Y-138100940D01*
X124827861Y-138169038D01*
X124774154Y-138215472D01*
X124721939Y-138226800D01*
X113123804Y-138226800D01*
X113055683Y-138206798D01*
X113009190Y-138153142D01*
X112997804Y-138100796D01*
X112997834Y-137248352D01*
X112997941Y-134178709D01*
X115149500Y-134178709D01*
X115149500Y-134421290D01*
X115181160Y-134661782D01*
X115243944Y-134896095D01*
X115243945Y-134896097D01*
X115243946Y-134896100D01*
X115336776Y-135120212D01*
X115336777Y-135120213D01*
X115336782Y-135120224D01*
X115458061Y-135330285D01*
X115458063Y-135330288D01*
X115458064Y-135330289D01*
X115605735Y-135522738D01*
X115605739Y-135522742D01*
X115605744Y-135522748D01*
X115777251Y-135694255D01*
X115777256Y-135694259D01*
X115777262Y-135694265D01*
X115936492Y-135816446D01*
X115969714Y-135841938D01*
X116179775Y-135963217D01*
X116179779Y-135963218D01*
X116179788Y-135963224D01*
X116403900Y-136056054D01*
X116638211Y-136118838D01*
X116638215Y-136118838D01*
X116638217Y-136118839D01*
X116700202Y-136126999D01*
X116878712Y-136150500D01*
X116878719Y-136150500D01*
X117121281Y-136150500D01*
X117121288Y-136150500D01*
X117338637Y-136121885D01*
X117361782Y-136118839D01*
X117361782Y-136118838D01*
X117361789Y-136118838D01*
X117596100Y-136056054D01*
X117820212Y-135963224D01*
X118030289Y-135841936D01*
X118222738Y-135694265D01*
X118394265Y-135522738D01*
X118421566Y-135487159D01*
X121665000Y-135487159D01*
X121665000Y-135920000D01*
X122366988Y-135920000D01*
X122334075Y-135977007D01*
X122300000Y-136104174D01*
X122300000Y-136235826D01*
X122334075Y-136362993D01*
X122366988Y-136420000D01*
X121665000Y-136420000D01*
X121665000Y-136852840D01*
X121671400Y-136912371D01*
X121721647Y-137047089D01*
X121807810Y-137162189D01*
X121922910Y-137248352D01*
X122057628Y-137298599D01*
X122117159Y-137304999D01*
X122117176Y-137305000D01*
X122550000Y-137305000D01*
X122550000Y-136603012D01*
X122607007Y-136635925D01*
X122734174Y-136670000D01*
X122865826Y-136670000D01*
X122992993Y-136635925D01*
X123050000Y-136603012D01*
X123050000Y-137305000D01*
X123482824Y-137305000D01*
X123482840Y-137304999D01*
X123542371Y-137298599D01*
X123677089Y-137248352D01*
X123792189Y-137162189D01*
X123878352Y-137047089D01*
X123928599Y-136912371D01*
X123934999Y-136852840D01*
X123935000Y-136852823D01*
X123935000Y-136420000D01*
X123233012Y-136420000D01*
X123265925Y-136362993D01*
X123300000Y-136235826D01*
X123300000Y-136104174D01*
X123265925Y-135977007D01*
X123233012Y-135920000D01*
X123935000Y-135920000D01*
X123935000Y-135487176D01*
X123934999Y-135487159D01*
X123928599Y-135427628D01*
X123878352Y-135292910D01*
X123792189Y-135177810D01*
X123677089Y-135091647D01*
X123542371Y-135041400D01*
X123482840Y-135035000D01*
X123050000Y-135035000D01*
X123050000Y-135736988D01*
X122992993Y-135704075D01*
X122865826Y-135670000D01*
X122734174Y-135670000D01*
X122607007Y-135704075D01*
X122550000Y-135736988D01*
X122550000Y-135035000D01*
X122117159Y-135035000D01*
X122057628Y-135041400D01*
X121922910Y-135091647D01*
X121807810Y-135177810D01*
X121721647Y-135292910D01*
X121671400Y-135427628D01*
X121665000Y-135487159D01*
X118421566Y-135487159D01*
X118541936Y-135330289D01*
X118663224Y-135120212D01*
X118756054Y-134896100D01*
X118818838Y-134661789D01*
X118850500Y-134421288D01*
X118850500Y-134178712D01*
X118818838Y-133938211D01*
X118756054Y-133703900D01*
X118663224Y-133479788D01*
X118663218Y-133479779D01*
X118663217Y-133479775D01*
X118541938Y-133269714D01*
X118541936Y-133269711D01*
X118394265Y-133077262D01*
X118394259Y-133077256D01*
X118394255Y-133077251D01*
X118222748Y-132905744D01*
X118222742Y-132905739D01*
X118222738Y-132905735D01*
X118030289Y-132758064D01*
X118030288Y-132758063D01*
X118030285Y-132758061D01*
X117820224Y-132636782D01*
X117820216Y-132636778D01*
X117820212Y-132636776D01*
X117596100Y-132543946D01*
X117596097Y-132543945D01*
X117596095Y-132543944D01*
X117361782Y-132481160D01*
X117121290Y-132449500D01*
X117121288Y-132449500D01*
X116878712Y-132449500D01*
X116878709Y-132449500D01*
X116638217Y-132481160D01*
X116403904Y-132543944D01*
X116403900Y-132543946D01*
X116191949Y-132631739D01*
X116179786Y-132636777D01*
X116179775Y-132636782D01*
X115969714Y-132758061D01*
X115777262Y-132905735D01*
X115777251Y-132905744D01*
X115605744Y-133077251D01*
X115605735Y-133077262D01*
X115458061Y-133269714D01*
X115336782Y-133479775D01*
X115336777Y-133479786D01*
X115336776Y-133479788D01*
X115301822Y-133564174D01*
X115243946Y-133703900D01*
X115243944Y-133703904D01*
X115181160Y-133938217D01*
X115149500Y-134178709D01*
X112997941Y-134178709D01*
X112998052Y-131000005D01*
X121656500Y-131000005D01*
X121656500Y-131179995D01*
X121684657Y-131357770D01*
X121684658Y-131357775D01*
X121740275Y-131528947D01*
X121740277Y-131528952D01*
X121740278Y-131528953D01*
X121821993Y-131689328D01*
X121927788Y-131834942D01*
X122055057Y-131962211D01*
X122055060Y-131962213D01*
X122200675Y-132068009D01*
X122361048Y-132149723D01*
X122532224Y-132205341D01*
X122532225Y-132205341D01*
X122532230Y-132205343D01*
X122710005Y-132233500D01*
X122710008Y-132233500D01*
X122889992Y-132233500D01*
X122889995Y-132233500D01*
X123067770Y-132205343D01*
X123238952Y-132149723D01*
X123399325Y-132068009D01*
X123544940Y-131962213D01*
X123672213Y-131834940D01*
X123778009Y-131689325D01*
X123859723Y-131528952D01*
X123915343Y-131357770D01*
X123943500Y-131179995D01*
X123943500Y-131000005D01*
X123915343Y-130822230D01*
X123859723Y-130651048D01*
X123778009Y-130490675D01*
X123672213Y-130345060D01*
X123672211Y-130345057D01*
X123544942Y-130217788D01*
X123399328Y-130111993D01*
X123399327Y-130111992D01*
X123399325Y-130111991D01*
X123238952Y-130030277D01*
X123238949Y-130030276D01*
X123238947Y-130030275D01*
X123067773Y-129974658D01*
X123067777Y-129974658D01*
X123034677Y-129969415D01*
X122889995Y-129946500D01*
X122710005Y-129946500D01*
X122532230Y-129974657D01*
X122532224Y-129974658D01*
X122361052Y-130030275D01*
X122361046Y-130030278D01*
X122200671Y-130111993D01*
X122055057Y-130217788D01*
X121927788Y-130345057D01*
X121821993Y-130490671D01*
X121740278Y-130651046D01*
X121740275Y-130651052D01*
X121684658Y-130822224D01*
X121684657Y-130822229D01*
X121684657Y-130822230D01*
X121656500Y-131000005D01*
X112998052Y-131000005D01*
X112998161Y-127866350D01*
X121656500Y-127866350D01*
X121656500Y-129233649D01*
X121663009Y-129294196D01*
X121663011Y-129294204D01*
X121714110Y-129431202D01*
X121714112Y-129431207D01*
X121801738Y-129548261D01*
X121918792Y-129635887D01*
X121918794Y-129635888D01*
X121918796Y-129635889D01*
X121977875Y-129657924D01*
X122055795Y-129686988D01*
X122055803Y-129686990D01*
X122116350Y-129693499D01*
X122116355Y-129693499D01*
X122116362Y-129693500D01*
X122116368Y-129693500D01*
X123483632Y-129693500D01*
X123483638Y-129693500D01*
X123483645Y-129693499D01*
X123483649Y-129693499D01*
X123544196Y-129686990D01*
X123544199Y-129686989D01*
X123544201Y-129686989D01*
X123681204Y-129635889D01*
X123798261Y-129548261D01*
X123885887Y-129431207D01*
X123885887Y-129431206D01*
X123885889Y-129431204D01*
X123936989Y-129294201D01*
X123943500Y-129233638D01*
X123943500Y-127866362D01*
X123943499Y-127866350D01*
X123936990Y-127805803D01*
X123936988Y-127805795D01*
X123889243Y-127677788D01*
X123885889Y-127668796D01*
X123885888Y-127668794D01*
X123885887Y-127668792D01*
X123798261Y-127551738D01*
X123681207Y-127464112D01*
X123681202Y-127464110D01*
X123544204Y-127413011D01*
X123544196Y-127413009D01*
X123483649Y-127406500D01*
X123483638Y-127406500D01*
X122116362Y-127406500D01*
X122116350Y-127406500D01*
X122055803Y-127413009D01*
X122055795Y-127413011D01*
X121918797Y-127464110D01*
X121918792Y-127464112D01*
X121801738Y-127551738D01*
X121714112Y-127668792D01*
X121714110Y-127668797D01*
X121663011Y-127805795D01*
X121663009Y-127805803D01*
X121656500Y-127866350D01*
X112998161Y-127866350D01*
X112998490Y-118391550D01*
X115950500Y-118391550D01*
X115950500Y-119758849D01*
X115957009Y-119819396D01*
X115957011Y-119819404D01*
X116008110Y-119956402D01*
X116008112Y-119956407D01*
X116095738Y-120073461D01*
X116212792Y-120161087D01*
X116212794Y-120161088D01*
X116212796Y-120161089D01*
X116271875Y-120183124D01*
X116349795Y-120212188D01*
X116349803Y-120212190D01*
X116410350Y-120218699D01*
X116410355Y-120218699D01*
X116410362Y-120218700D01*
X116410368Y-120218700D01*
X117777632Y-120218700D01*
X117777638Y-120218700D01*
X117777645Y-120218699D01*
X117777649Y-120218699D01*
X117838196Y-120212190D01*
X117838199Y-120212189D01*
X117838201Y-120212189D01*
X117975204Y-120161089D01*
X118092261Y-120073461D01*
X118179889Y-119956404D01*
X118230989Y-119819401D01*
X118233827Y-119793009D01*
X118237499Y-119758849D01*
X118237500Y-119758832D01*
X118237500Y-118391567D01*
X118237499Y-118391550D01*
X118230990Y-118331003D01*
X118230988Y-118330995D01*
X118193299Y-118229950D01*
X118179889Y-118193996D01*
X118179888Y-118193994D01*
X118179887Y-118193992D01*
X118092261Y-118076938D01*
X117975207Y-117989312D01*
X117975202Y-117989310D01*
X117838204Y-117938211D01*
X117838196Y-117938209D01*
X117777649Y-117931700D01*
X117777638Y-117931700D01*
X116410362Y-117931700D01*
X116410350Y-117931700D01*
X116349803Y-117938209D01*
X116349795Y-117938211D01*
X116212797Y-117989310D01*
X116212792Y-117989312D01*
X116095738Y-118076938D01*
X116008112Y-118193992D01*
X116008110Y-118193997D01*
X115957011Y-118330995D01*
X115957009Y-118331003D01*
X115950500Y-118391550D01*
X112998490Y-118391550D01*
X112998558Y-116445876D01*
X115959000Y-116445876D01*
X115959000Y-116624523D01*
X115986948Y-116800984D01*
X116042152Y-116970885D01*
X116123259Y-117130067D01*
X116123263Y-117130072D01*
X116132651Y-117142995D01*
X116611037Y-116664609D01*
X116628075Y-116728193D01*
X116693901Y-116842207D01*
X116786993Y-116935299D01*
X116901007Y-117001125D01*
X116964590Y-117018162D01*
X116486204Y-117496547D01*
X116486204Y-117496548D01*
X116499124Y-117505935D01*
X116658314Y-117587047D01*
X116828215Y-117642251D01*
X117004676Y-117670200D01*
X117183324Y-117670200D01*
X117359784Y-117642251D01*
X117529685Y-117587047D01*
X117688873Y-117505936D01*
X117701794Y-117496548D01*
X117223409Y-117018162D01*
X117286993Y-117001125D01*
X117401007Y-116935299D01*
X117494099Y-116842207D01*
X117559925Y-116728193D01*
X117576962Y-116664608D01*
X118055348Y-117142994D01*
X118064736Y-117130073D01*
X118145847Y-116970885D01*
X118201051Y-116800984D01*
X118229000Y-116624523D01*
X118229000Y-116445876D01*
X118201051Y-116269415D01*
X118145847Y-116099514D01*
X118064735Y-115940324D01*
X118055348Y-115927404D01*
X118055347Y-115927404D01*
X117576962Y-116405789D01*
X117559925Y-116342207D01*
X117494099Y-116228193D01*
X117401007Y-116135101D01*
X117286993Y-116069275D01*
X117223409Y-116052237D01*
X117701795Y-115573851D01*
X117688872Y-115564463D01*
X117688867Y-115564459D01*
X117529685Y-115483352D01*
X117359784Y-115428148D01*
X117183324Y-115400200D01*
X117004676Y-115400200D01*
X116828215Y-115428148D01*
X116658314Y-115483352D01*
X116499127Y-115564462D01*
X116486203Y-115573850D01*
X116964591Y-116052237D01*
X116901007Y-116069275D01*
X116786993Y-116135101D01*
X116693901Y-116228193D01*
X116628075Y-116342207D01*
X116611037Y-116405790D01*
X116132650Y-115927403D01*
X116123262Y-115940327D01*
X116042152Y-116099514D01*
X115986948Y-116269415D01*
X115959000Y-116445876D01*
X112998558Y-116445876D01*
X112998571Y-116073256D01*
X112998587Y-115621867D01*
X112999466Y-90359139D01*
X113946300Y-90359139D01*
X113946300Y-110259660D01*
X113971606Y-110386877D01*
X114021245Y-110506717D01*
X114093309Y-110614569D01*
X114093313Y-110614573D01*
X121619595Y-118140855D01*
X121653621Y-118203167D01*
X121656500Y-118229950D01*
X121656500Y-119073649D01*
X121663009Y-119134196D01*
X121663011Y-119134204D01*
X121714110Y-119271202D01*
X121714112Y-119271207D01*
X121801738Y-119388261D01*
X121918792Y-119475887D01*
X121918794Y-119475888D01*
X121918796Y-119475889D01*
X121977875Y-119497924D01*
X122055795Y-119526988D01*
X122055803Y-119526990D01*
X122116350Y-119533499D01*
X122116355Y-119533499D01*
X122116362Y-119533500D01*
X122116368Y-119533500D01*
X123483632Y-119533500D01*
X123483638Y-119533500D01*
X123483645Y-119533499D01*
X123483649Y-119533499D01*
X123544196Y-119526990D01*
X123544199Y-119526989D01*
X123544201Y-119526989D01*
X123681204Y-119475889D01*
X123798261Y-119388261D01*
X123885887Y-119271207D01*
X123885887Y-119271206D01*
X123885889Y-119271204D01*
X123936989Y-119134201D01*
X123943500Y-119073638D01*
X123943500Y-117706362D01*
X123943499Y-117706350D01*
X123936990Y-117645803D01*
X123936988Y-117645795D01*
X123889243Y-117517788D01*
X123885889Y-117508796D01*
X123885888Y-117508794D01*
X123885887Y-117508792D01*
X123798261Y-117391738D01*
X123681207Y-117304112D01*
X123681202Y-117304110D01*
X123544204Y-117253011D01*
X123544196Y-117253009D01*
X123483649Y-117246500D01*
X123483638Y-117246500D01*
X122639950Y-117246500D01*
X122571829Y-117226498D01*
X122550855Y-117209595D01*
X122538348Y-117197088D01*
X122504322Y-117134776D01*
X122509387Y-117063961D01*
X122551934Y-117007125D01*
X122618454Y-116982314D01*
X122647150Y-116983544D01*
X122684538Y-116989466D01*
X122710003Y-116993500D01*
X122710005Y-116993500D01*
X122889992Y-116993500D01*
X122889995Y-116993500D01*
X123067770Y-116965343D01*
X123238952Y-116909723D01*
X123399325Y-116828009D01*
X123544940Y-116722213D01*
X123672213Y-116594940D01*
X123778009Y-116449325D01*
X123859723Y-116288952D01*
X123915343Y-116117770D01*
X123943500Y-115939995D01*
X123943500Y-115760005D01*
X123915343Y-115582230D01*
X123859723Y-115411048D01*
X123778009Y-115250675D01*
X123672213Y-115105060D01*
X123672211Y-115105057D01*
X123544942Y-114977788D01*
X123399328Y-114871993D01*
X123399327Y-114871992D01*
X123399325Y-114871991D01*
X123238952Y-114790277D01*
X123238949Y-114790276D01*
X123238947Y-114790275D01*
X123067773Y-114734658D01*
X123067777Y-114734658D01*
X123034677Y-114729415D01*
X122889995Y-114706500D01*
X122710005Y-114706500D01*
X122532230Y-114734657D01*
X122532224Y-114734658D01*
X122361052Y-114790275D01*
X122361046Y-114790278D01*
X122200671Y-114871993D01*
X122055057Y-114977788D01*
X121927788Y-115105057D01*
X121821993Y-115250671D01*
X121740278Y-115411046D01*
X121740275Y-115411052D01*
X121684658Y-115582224D01*
X121684657Y-115582229D01*
X121684657Y-115582230D01*
X121656500Y-115760005D01*
X121656500Y-115939995D01*
X121656553Y-115940327D01*
X121666455Y-116002845D01*
X121657355Y-116073256D01*
X121611633Y-116127570D01*
X121543805Y-116148543D01*
X121475406Y-116129516D01*
X121452911Y-116111651D01*
X118561265Y-113220005D01*
X121656500Y-113220005D01*
X121656500Y-113399995D01*
X121684657Y-113577770D01*
X121684658Y-113577775D01*
X121740275Y-113748947D01*
X121740277Y-113748952D01*
X121740278Y-113748953D01*
X121821993Y-113909328D01*
X121927788Y-114054942D01*
X122055057Y-114182211D01*
X122055060Y-114182213D01*
X122200675Y-114288009D01*
X122361048Y-114369723D01*
X122532224Y-114425341D01*
X122532225Y-114425341D01*
X122532230Y-114425343D01*
X122710005Y-114453500D01*
X122710008Y-114453500D01*
X122889992Y-114453500D01*
X122889995Y-114453500D01*
X123067770Y-114425343D01*
X123238952Y-114369723D01*
X123399325Y-114288009D01*
X123544940Y-114182213D01*
X123672213Y-114054940D01*
X123778009Y-113909325D01*
X123859723Y-113748952D01*
X123915343Y-113577770D01*
X123943500Y-113399995D01*
X123943500Y-113220005D01*
X123915343Y-113042230D01*
X123859723Y-112871048D01*
X123778009Y-112710675D01*
X123672213Y-112565060D01*
X123672211Y-112565057D01*
X123544942Y-112437788D01*
X123399328Y-112331993D01*
X123399327Y-112331992D01*
X123399325Y-112331991D01*
X123238952Y-112250277D01*
X123238949Y-112250276D01*
X123238947Y-112250275D01*
X123067773Y-112194658D01*
X123067777Y-112194658D01*
X123034677Y-112189415D01*
X122889995Y-112166500D01*
X122710005Y-112166500D01*
X122532230Y-112194657D01*
X122532224Y-112194658D01*
X122361052Y-112250275D01*
X122361046Y-112250278D01*
X122200671Y-112331993D01*
X122055057Y-112437788D01*
X121927788Y-112565057D01*
X121821993Y-112710671D01*
X121740278Y-112871046D01*
X121740275Y-112871052D01*
X121684658Y-113042224D01*
X121684657Y-113042229D01*
X121684657Y-113042230D01*
X121656500Y-113220005D01*
X118561265Y-113220005D01*
X116021265Y-110680005D01*
X121656500Y-110680005D01*
X121656500Y-110859995D01*
X121684657Y-111037770D01*
X121684658Y-111037775D01*
X121740275Y-111208947D01*
X121740277Y-111208952D01*
X121740278Y-111208953D01*
X121821993Y-111369328D01*
X121927788Y-111514942D01*
X122055057Y-111642211D01*
X122055060Y-111642213D01*
X122200675Y-111748009D01*
X122361048Y-111829723D01*
X122532224Y-111885341D01*
X122532225Y-111885341D01*
X122532230Y-111885343D01*
X122710005Y-111913500D01*
X122710008Y-111913500D01*
X122889992Y-111913500D01*
X122889995Y-111913500D01*
X123067770Y-111885343D01*
X123238952Y-111829723D01*
X123399325Y-111748009D01*
X123544940Y-111642213D01*
X123672213Y-111514940D01*
X123778009Y-111369325D01*
X123859723Y-111208952D01*
X123915343Y-111037770D01*
X123943500Y-110859995D01*
X123943500Y-110680005D01*
X123915343Y-110502230D01*
X123859723Y-110331048D01*
X123778009Y-110170675D01*
X123672213Y-110025060D01*
X123672211Y-110025057D01*
X123544942Y-109897788D01*
X123399328Y-109791993D01*
X123399327Y-109791992D01*
X123399325Y-109791991D01*
X123238952Y-109710277D01*
X123238949Y-109710276D01*
X123238947Y-109710275D01*
X123067773Y-109654658D01*
X123067777Y-109654658D01*
X123034677Y-109649415D01*
X122889995Y-109626500D01*
X122710005Y-109626500D01*
X122532230Y-109654657D01*
X122532224Y-109654658D01*
X122361052Y-109710275D01*
X122361046Y-109710278D01*
X122200671Y-109791993D01*
X122055057Y-109897788D01*
X121927788Y-110025057D01*
X121821993Y-110170671D01*
X121740278Y-110331046D01*
X121740275Y-110331052D01*
X121684658Y-110502224D01*
X121684657Y-110502229D01*
X121684657Y-110502230D01*
X121656500Y-110680005D01*
X116021265Y-110680005D01*
X115300205Y-109958945D01*
X115266179Y-109896633D01*
X115263300Y-109869850D01*
X115263300Y-108140005D01*
X121656500Y-108140005D01*
X121656500Y-108319995D01*
X121684657Y-108497770D01*
X121684658Y-108497775D01*
X121740275Y-108668947D01*
X121740277Y-108668952D01*
X121740278Y-108668953D01*
X121821993Y-108829328D01*
X121927788Y-108974942D01*
X122055057Y-109102211D01*
X122055060Y-109102213D01*
X122200675Y-109208009D01*
X122361048Y-109289723D01*
X122532224Y-109345341D01*
X122532225Y-109345341D01*
X122532230Y-109345343D01*
X122710005Y-109373500D01*
X122710008Y-109373500D01*
X122889992Y-109373500D01*
X122889995Y-109373500D01*
X123067770Y-109345343D01*
X123238952Y-109289723D01*
X123399325Y-109208009D01*
X123544940Y-109102213D01*
X123672213Y-108974940D01*
X123778009Y-108829325D01*
X123859723Y-108668952D01*
X123915343Y-108497770D01*
X123943500Y-108319995D01*
X123943500Y-108140005D01*
X147056500Y-108140005D01*
X147056500Y-108319995D01*
X147084657Y-108497770D01*
X147084658Y-108497775D01*
X147140275Y-108668947D01*
X147140277Y-108668952D01*
X147140278Y-108668953D01*
X147221993Y-108829328D01*
X147327788Y-108974942D01*
X147455057Y-109102211D01*
X147455060Y-109102213D01*
X147600675Y-109208009D01*
X147761048Y-109289723D01*
X147932224Y-109345341D01*
X147932225Y-109345341D01*
X147932230Y-109345343D01*
X148110005Y-109373500D01*
X148110008Y-109373500D01*
X148289992Y-109373500D01*
X148289995Y-109373500D01*
X148467770Y-109345343D01*
X148638952Y-109289723D01*
X148799325Y-109208009D01*
X148944940Y-109102213D01*
X149072213Y-108974940D01*
X149178009Y-108829325D01*
X149259723Y-108668952D01*
X149315343Y-108497770D01*
X149343500Y-108319995D01*
X149343500Y-108140005D01*
X149315343Y-107962230D01*
X149259723Y-107791048D01*
X149178009Y-107630675D01*
X149072213Y-107485060D01*
X149072211Y-107485057D01*
X148944942Y-107357788D01*
X148799328Y-107251993D01*
X148799327Y-107251992D01*
X148799325Y-107251991D01*
X148638952Y-107170277D01*
X148638949Y-107170276D01*
X148638947Y-107170275D01*
X148467773Y-107114658D01*
X148467777Y-107114658D01*
X148434677Y-107109415D01*
X148289995Y-107086500D01*
X148110005Y-107086500D01*
X147932230Y-107114657D01*
X147932224Y-107114658D01*
X147761052Y-107170275D01*
X147761046Y-107170278D01*
X147600671Y-107251993D01*
X147455057Y-107357788D01*
X147327788Y-107485057D01*
X147221993Y-107630671D01*
X147140278Y-107791046D01*
X147140275Y-107791052D01*
X147084658Y-107962224D01*
X147084657Y-107962229D01*
X147084657Y-107962230D01*
X147056500Y-108140005D01*
X123943500Y-108140005D01*
X123915343Y-107962230D01*
X123859723Y-107791048D01*
X123778009Y-107630675D01*
X123672213Y-107485060D01*
X123672211Y-107485057D01*
X123544942Y-107357788D01*
X123399328Y-107251993D01*
X123399327Y-107251992D01*
X123399325Y-107251991D01*
X123238952Y-107170277D01*
X123238949Y-107170276D01*
X123238947Y-107170275D01*
X123067773Y-107114658D01*
X123067777Y-107114658D01*
X123034677Y-107109415D01*
X122889995Y-107086500D01*
X122710005Y-107086500D01*
X122532230Y-107114657D01*
X122532224Y-107114658D01*
X122361052Y-107170275D01*
X122361046Y-107170278D01*
X122200671Y-107251993D01*
X122055057Y-107357788D01*
X121927788Y-107485057D01*
X121821993Y-107630671D01*
X121740278Y-107791046D01*
X121740275Y-107791052D01*
X121684658Y-107962224D01*
X121684657Y-107962229D01*
X121684657Y-107962230D01*
X121656500Y-108140005D01*
X115263300Y-108140005D01*
X115263300Y-105031150D01*
X115950500Y-105031150D01*
X115950500Y-106398449D01*
X115957009Y-106458996D01*
X115957011Y-106459004D01*
X116008110Y-106596002D01*
X116008112Y-106596007D01*
X116095738Y-106713061D01*
X116212792Y-106800687D01*
X116212794Y-106800688D01*
X116212796Y-106800689D01*
X116271875Y-106822724D01*
X116349795Y-106851788D01*
X116349803Y-106851790D01*
X116410350Y-106858299D01*
X116410355Y-106858299D01*
X116410362Y-106858300D01*
X116410368Y-106858300D01*
X117777632Y-106858300D01*
X117777638Y-106858300D01*
X117777645Y-106858299D01*
X117777649Y-106858299D01*
X117838196Y-106851790D01*
X117838199Y-106851789D01*
X117838201Y-106851789D01*
X117975204Y-106800689D01*
X118043287Y-106749723D01*
X118092261Y-106713061D01*
X118179887Y-106596007D01*
X118179887Y-106596006D01*
X118179889Y-106596004D01*
X118230989Y-106459001D01*
X118237500Y-106398438D01*
X118237500Y-105031162D01*
X118237499Y-105031150D01*
X118230990Y-104970603D01*
X118230988Y-104970595D01*
X118179889Y-104833597D01*
X118179887Y-104833592D01*
X118092261Y-104716538D01*
X117975207Y-104628912D01*
X117975202Y-104628910D01*
X117838204Y-104577811D01*
X117838196Y-104577809D01*
X117777649Y-104571300D01*
X117777638Y-104571300D01*
X116410362Y-104571300D01*
X116410350Y-104571300D01*
X116349803Y-104577809D01*
X116349795Y-104577811D01*
X116212797Y-104628910D01*
X116212792Y-104628912D01*
X116095738Y-104716538D01*
X116008112Y-104833592D01*
X116008110Y-104833597D01*
X115957011Y-104970595D01*
X115957009Y-104970603D01*
X115950500Y-105031150D01*
X115263300Y-105031150D01*
X115263300Y-100544805D01*
X115950500Y-100544805D01*
X115950500Y-100724795D01*
X115974405Y-100875722D01*
X115978658Y-100902575D01*
X116026217Y-101048947D01*
X116034277Y-101073752D01*
X116115991Y-101234125D01*
X116115993Y-101234128D01*
X116221788Y-101379742D01*
X116349057Y-101507011D01*
X116349060Y-101507013D01*
X116494675Y-101612809D01*
X116655048Y-101694523D01*
X116826224Y-101750141D01*
X116826225Y-101750141D01*
X116826230Y-101750143D01*
X117004005Y-101778300D01*
X117004008Y-101778300D01*
X117183992Y-101778300D01*
X117183995Y-101778300D01*
X117226116Y-101771628D01*
X117296527Y-101780727D01*
X117334922Y-101806982D01*
X117365876Y-101837936D01*
X117399902Y-101900248D01*
X117394837Y-101971063D01*
X117352290Y-102027899D01*
X117285770Y-102052710D01*
X117257071Y-102051480D01*
X117183324Y-102039800D01*
X117004676Y-102039800D01*
X116828215Y-102067748D01*
X116658314Y-102122952D01*
X116499127Y-102204062D01*
X116486203Y-102213450D01*
X116964590Y-102691837D01*
X116901007Y-102708875D01*
X116786993Y-102774701D01*
X116693901Y-102867793D01*
X116628075Y-102981807D01*
X116611037Y-103045390D01*
X116132650Y-102567003D01*
X116123262Y-102579927D01*
X116042152Y-102739114D01*
X115986948Y-102909015D01*
X115959000Y-103085476D01*
X115959000Y-103264123D01*
X115986948Y-103440584D01*
X116042152Y-103610485D01*
X116123259Y-103769667D01*
X116123263Y-103769672D01*
X116132651Y-103782595D01*
X116611037Y-103304209D01*
X116628075Y-103367793D01*
X116693901Y-103481807D01*
X116786993Y-103574899D01*
X116901007Y-103640725D01*
X116964590Y-103657762D01*
X116486204Y-104136147D01*
X116486204Y-104136148D01*
X116499124Y-104145535D01*
X116658314Y-104226647D01*
X116828215Y-104281851D01*
X117004676Y-104309800D01*
X117183324Y-104309800D01*
X117359784Y-104281851D01*
X117529685Y-104226647D01*
X117688873Y-104145536D01*
X117701794Y-104136148D01*
X117223409Y-103657762D01*
X117286993Y-103640725D01*
X117401007Y-103574899D01*
X117494099Y-103481807D01*
X117559925Y-103367793D01*
X117576962Y-103304209D01*
X118055347Y-103782594D01*
X118055348Y-103782594D01*
X118064736Y-103769673D01*
X118145847Y-103610485D01*
X118201051Y-103440584D01*
X118229000Y-103264123D01*
X118229000Y-103085477D01*
X118217319Y-103011729D01*
X118226418Y-102941318D01*
X118272140Y-102887004D01*
X118339968Y-102866031D01*
X118408368Y-102885058D01*
X118430863Y-102902923D01*
X120074441Y-104546500D01*
X121637710Y-106109769D01*
X121729431Y-106201490D01*
X121774576Y-106231655D01*
X121816840Y-106279216D01*
X121821991Y-106289325D01*
X121927788Y-106434942D01*
X122055057Y-106562211D01*
X122055060Y-106562213D01*
X122200675Y-106668009D01*
X122361048Y-106749723D01*
X122532224Y-106805341D01*
X122532225Y-106805341D01*
X122532230Y-106805343D01*
X122710005Y-106833500D01*
X122710008Y-106833500D01*
X122889992Y-106833500D01*
X122889995Y-106833500D01*
X123067770Y-106805343D01*
X123238952Y-106749723D01*
X123399325Y-106668009D01*
X123544940Y-106562213D01*
X123672213Y-106434940D01*
X123778009Y-106289325D01*
X123859723Y-106128952D01*
X123915343Y-105957770D01*
X123943500Y-105779995D01*
X123943500Y-105600005D01*
X147056500Y-105600005D01*
X147056500Y-105779995D01*
X147084657Y-105957770D01*
X147084658Y-105957775D01*
X147134044Y-106109769D01*
X147140277Y-106128952D01*
X147221991Y-106289325D01*
X147221993Y-106289328D01*
X147327788Y-106434942D01*
X147455057Y-106562211D01*
X147455060Y-106562213D01*
X147600675Y-106668009D01*
X147761048Y-106749723D01*
X147932224Y-106805341D01*
X147932225Y-106805341D01*
X147932230Y-106805343D01*
X148110005Y-106833500D01*
X148110008Y-106833500D01*
X148289992Y-106833500D01*
X148289995Y-106833500D01*
X148467770Y-106805343D01*
X148638952Y-106749723D01*
X148799325Y-106668009D01*
X148944940Y-106562213D01*
X149072213Y-106434940D01*
X149178009Y-106289325D01*
X149259723Y-106128952D01*
X149315343Y-105957770D01*
X149343500Y-105779995D01*
X149343500Y-105600005D01*
X149315343Y-105422230D01*
X149259723Y-105251048D01*
X149178009Y-105090675D01*
X149072213Y-104945060D01*
X149072211Y-104945057D01*
X148944942Y-104817788D01*
X148799328Y-104711993D01*
X148799327Y-104711992D01*
X148799325Y-104711991D01*
X148638952Y-104630277D01*
X148638949Y-104630276D01*
X148638947Y-104630275D01*
X148467773Y-104574658D01*
X148467777Y-104574658D01*
X148434677Y-104569415D01*
X148289995Y-104546500D01*
X148110005Y-104546500D01*
X147932230Y-104574657D01*
X147932224Y-104574658D01*
X147761052Y-104630275D01*
X147761046Y-104630278D01*
X147600671Y-104711993D01*
X147455057Y-104817788D01*
X147327788Y-104945057D01*
X147221993Y-105090671D01*
X147140278Y-105251046D01*
X147140275Y-105251052D01*
X147084658Y-105422224D01*
X147084657Y-105422229D01*
X147084657Y-105422230D01*
X147056500Y-105600005D01*
X123943500Y-105600005D01*
X123915343Y-105422230D01*
X123859723Y-105251048D01*
X123778009Y-105090675D01*
X123672213Y-104945060D01*
X123672211Y-104945057D01*
X123544942Y-104817788D01*
X123399328Y-104711993D01*
X123399327Y-104711992D01*
X123399325Y-104711991D01*
X123238952Y-104630277D01*
X123238949Y-104630276D01*
X123238947Y-104630275D01*
X123067773Y-104574658D01*
X123067777Y-104574658D01*
X123034677Y-104569415D01*
X122889995Y-104546500D01*
X122710005Y-104546500D01*
X122532230Y-104574657D01*
X122532224Y-104574658D01*
X122361052Y-104630275D01*
X122361048Y-104630277D01*
X122217170Y-104703586D01*
X122147395Y-104716690D01*
X122081610Y-104689990D01*
X122070874Y-104680414D01*
X121861952Y-104471492D01*
X121827926Y-104409180D01*
X121832991Y-104338365D01*
X121875538Y-104281529D01*
X121942058Y-104256718D01*
X121995080Y-104264342D01*
X122055795Y-104286988D01*
X122055803Y-104286990D01*
X122116350Y-104293499D01*
X122116355Y-104293499D01*
X122116362Y-104293500D01*
X122116368Y-104293500D01*
X123483632Y-104293500D01*
X123483638Y-104293500D01*
X123483645Y-104293499D01*
X123483649Y-104293499D01*
X123544196Y-104286990D01*
X123544199Y-104286989D01*
X123544201Y-104286989D01*
X123681204Y-104235889D01*
X123798261Y-104148261D01*
X123807329Y-104136147D01*
X123885887Y-104031207D01*
X123885887Y-104031206D01*
X123885889Y-104031204D01*
X123936989Y-103894201D01*
X123943500Y-103833638D01*
X123943500Y-103060005D01*
X147056500Y-103060005D01*
X147056500Y-103239995D01*
X147084657Y-103417770D01*
X147084658Y-103417775D01*
X147120587Y-103528353D01*
X147140277Y-103588952D01*
X147140278Y-103588953D01*
X147221993Y-103749328D01*
X147327788Y-103894942D01*
X147455057Y-104022211D01*
X147467432Y-104031202D01*
X147600675Y-104128009D01*
X147761048Y-104209723D01*
X147932224Y-104265341D01*
X147932225Y-104265341D01*
X147932230Y-104265343D01*
X148110005Y-104293500D01*
X148110008Y-104293500D01*
X148289992Y-104293500D01*
X148289995Y-104293500D01*
X148467770Y-104265343D01*
X148638952Y-104209723D01*
X148799325Y-104128009D01*
X148944940Y-104022213D01*
X149072213Y-103894940D01*
X149178009Y-103749325D01*
X149259723Y-103588952D01*
X149315343Y-103417770D01*
X149343500Y-103239995D01*
X149343500Y-103060005D01*
X149315343Y-102882230D01*
X149259723Y-102711048D01*
X149178009Y-102550675D01*
X149072213Y-102405060D01*
X149072211Y-102405057D01*
X148944942Y-102277788D01*
X148799328Y-102171993D01*
X148799327Y-102171992D01*
X148799325Y-102171991D01*
X148638952Y-102090277D01*
X148638949Y-102090276D01*
X148638947Y-102090275D01*
X148467773Y-102034658D01*
X148467777Y-102034658D01*
X148425102Y-102027899D01*
X148289995Y-102006500D01*
X148110005Y-102006500D01*
X147932230Y-102034657D01*
X147932224Y-102034658D01*
X147761052Y-102090275D01*
X147761046Y-102090278D01*
X147600671Y-102171993D01*
X147455057Y-102277788D01*
X147327788Y-102405057D01*
X147221993Y-102550671D01*
X147140278Y-102711046D01*
X147140275Y-102711052D01*
X147084658Y-102882224D01*
X147084657Y-102882229D01*
X147084657Y-102882230D01*
X147056500Y-103060005D01*
X123943500Y-103060005D01*
X123943500Y-102466362D01*
X123943499Y-102466350D01*
X123936990Y-102405803D01*
X123936988Y-102405795D01*
X123889243Y-102277788D01*
X123885889Y-102268796D01*
X123885888Y-102268794D01*
X123885887Y-102268792D01*
X123798261Y-102151738D01*
X123681207Y-102064112D01*
X123681202Y-102064110D01*
X123544204Y-102013011D01*
X123544196Y-102013009D01*
X123483649Y-102006500D01*
X123483638Y-102006500D01*
X122116362Y-102006500D01*
X122116350Y-102006500D01*
X122055803Y-102013009D01*
X122055795Y-102013011D01*
X121918797Y-102064110D01*
X121918792Y-102064112D01*
X121801738Y-102151738D01*
X121714112Y-102268792D01*
X121714110Y-102268797D01*
X121663011Y-102405795D01*
X121663009Y-102405803D01*
X121656500Y-102466350D01*
X121656500Y-103833649D01*
X121663009Y-103894196D01*
X121663010Y-103894200D01*
X121685658Y-103954920D01*
X121690722Y-104025735D01*
X121656697Y-104088048D01*
X121594385Y-104122073D01*
X121523569Y-104117008D01*
X121478507Y-104088047D01*
X118266182Y-100875722D01*
X118232156Y-100813410D01*
X118230828Y-100766918D01*
X118237500Y-100724795D01*
X118237500Y-100544805D01*
X118209343Y-100367030D01*
X118153723Y-100195848D01*
X118072009Y-100035475D01*
X117992733Y-99926362D01*
X117992724Y-99926350D01*
X121656500Y-99926350D01*
X121656500Y-101293649D01*
X121663009Y-101354196D01*
X121663011Y-101354204D01*
X121714110Y-101491202D01*
X121714112Y-101491207D01*
X121801738Y-101608261D01*
X121918792Y-101695887D01*
X121918794Y-101695888D01*
X121918796Y-101695889D01*
X121977875Y-101717924D01*
X122055795Y-101746988D01*
X122055803Y-101746990D01*
X122116350Y-101753499D01*
X122116355Y-101753499D01*
X122116362Y-101753500D01*
X122116368Y-101753500D01*
X123483632Y-101753500D01*
X123483638Y-101753500D01*
X123483645Y-101753499D01*
X123483649Y-101753499D01*
X123544196Y-101746990D01*
X123544199Y-101746989D01*
X123544201Y-101746989D01*
X123681204Y-101695889D01*
X123683028Y-101694524D01*
X123798261Y-101608261D01*
X123885887Y-101491207D01*
X123885887Y-101491206D01*
X123885889Y-101491204D01*
X123936989Y-101354201D01*
X123943500Y-101293638D01*
X123943500Y-100520005D01*
X147056500Y-100520005D01*
X147056500Y-100699995D01*
X147084333Y-100875722D01*
X147084658Y-100877775D01*
X147140275Y-101048947D01*
X147140277Y-101048952D01*
X147152914Y-101073753D01*
X147221993Y-101209328D01*
X147327788Y-101354942D01*
X147455057Y-101482211D01*
X147455060Y-101482213D01*
X147600675Y-101588009D01*
X147761048Y-101669723D01*
X147932224Y-101725341D01*
X147932225Y-101725341D01*
X147932230Y-101725343D01*
X148110005Y-101753500D01*
X148110008Y-101753500D01*
X148289992Y-101753500D01*
X148289995Y-101753500D01*
X148467770Y-101725343D01*
X148638952Y-101669723D01*
X148799325Y-101588009D01*
X148944940Y-101482213D01*
X149072213Y-101354940D01*
X149178009Y-101209325D01*
X149259723Y-101048952D01*
X149315343Y-100877770D01*
X149343500Y-100699995D01*
X149343500Y-100520005D01*
X149315343Y-100342230D01*
X149259723Y-100171048D01*
X149178009Y-100010675D01*
X149072213Y-99865060D01*
X149072211Y-99865057D01*
X148944942Y-99737788D01*
X148799328Y-99631993D01*
X148799327Y-99631992D01*
X148799325Y-99631991D01*
X148638952Y-99550277D01*
X148638949Y-99550276D01*
X148638947Y-99550275D01*
X148467773Y-99494658D01*
X148467777Y-99494658D01*
X148434677Y-99489415D01*
X148289995Y-99466500D01*
X148110005Y-99466500D01*
X147932230Y-99494657D01*
X147932224Y-99494658D01*
X147761052Y-99550275D01*
X147761046Y-99550278D01*
X147600671Y-99631993D01*
X147455057Y-99737788D01*
X147327788Y-99865057D01*
X147221993Y-100010671D01*
X147140278Y-100171046D01*
X147140275Y-100171052D01*
X147084658Y-100342224D01*
X147084657Y-100342229D01*
X147084657Y-100342230D01*
X147056500Y-100520005D01*
X123943500Y-100520005D01*
X123943500Y-99926362D01*
X123939576Y-99889860D01*
X123936990Y-99865803D01*
X123936988Y-99865795D01*
X123898493Y-99762588D01*
X123885889Y-99728796D01*
X123885888Y-99728794D01*
X123885887Y-99728792D01*
X123798261Y-99611738D01*
X123681207Y-99524112D01*
X123681202Y-99524110D01*
X123544204Y-99473011D01*
X123544196Y-99473009D01*
X123483649Y-99466500D01*
X123483638Y-99466500D01*
X122116362Y-99466500D01*
X122116350Y-99466500D01*
X122055803Y-99473009D01*
X122055795Y-99473011D01*
X121918797Y-99524110D01*
X121918792Y-99524112D01*
X121801738Y-99611738D01*
X121714112Y-99728792D01*
X121714110Y-99728797D01*
X121663011Y-99865795D01*
X121663009Y-99865803D01*
X121656500Y-99926350D01*
X117992724Y-99926350D01*
X117966211Y-99889857D01*
X117838942Y-99762588D01*
X117693328Y-99656793D01*
X117693327Y-99656792D01*
X117693325Y-99656791D01*
X117532952Y-99575077D01*
X117532949Y-99575076D01*
X117532947Y-99575075D01*
X117361773Y-99519458D01*
X117361777Y-99519458D01*
X117328677Y-99514215D01*
X117183995Y-99491300D01*
X117004005Y-99491300D01*
X116826230Y-99519457D01*
X116826224Y-99519458D01*
X116655052Y-99575075D01*
X116655046Y-99575078D01*
X116494671Y-99656793D01*
X116349057Y-99762588D01*
X116221788Y-99889857D01*
X116115993Y-100035471D01*
X116034278Y-100195846D01*
X116034275Y-100195852D01*
X115978658Y-100367024D01*
X115978657Y-100367029D01*
X115978657Y-100367030D01*
X115950500Y-100544805D01*
X115263300Y-100544805D01*
X115263300Y-98004805D01*
X115950500Y-98004805D01*
X115950500Y-98184795D01*
X115974729Y-98337770D01*
X115978658Y-98362575D01*
X116026217Y-98508947D01*
X116034277Y-98533752D01*
X116115991Y-98694125D01*
X116115993Y-98694128D01*
X116221788Y-98839742D01*
X116349057Y-98967011D01*
X116349060Y-98967013D01*
X116494675Y-99072809D01*
X116655048Y-99154523D01*
X116826224Y-99210141D01*
X116826225Y-99210141D01*
X116826230Y-99210143D01*
X117004005Y-99238300D01*
X117004008Y-99238300D01*
X117183992Y-99238300D01*
X117183995Y-99238300D01*
X117361770Y-99210143D01*
X117532952Y-99154523D01*
X117693325Y-99072809D01*
X117838940Y-98967013D01*
X117966213Y-98839740D01*
X118072009Y-98694125D01*
X118153723Y-98533752D01*
X118209343Y-98362570D01*
X118237500Y-98184795D01*
X118237500Y-98004805D01*
X118209343Y-97827030D01*
X118153723Y-97655848D01*
X118072009Y-97495475D01*
X117992733Y-97386362D01*
X117992724Y-97386350D01*
X121656500Y-97386350D01*
X121656500Y-98753649D01*
X121663009Y-98814196D01*
X121663011Y-98814204D01*
X121714110Y-98951202D01*
X121714112Y-98951207D01*
X121801738Y-99068261D01*
X121918792Y-99155887D01*
X121918794Y-99155888D01*
X121918796Y-99155889D01*
X121977875Y-99177924D01*
X122055795Y-99206988D01*
X122055803Y-99206990D01*
X122116350Y-99213499D01*
X122116355Y-99213499D01*
X122116362Y-99213500D01*
X122116368Y-99213500D01*
X123483632Y-99213500D01*
X123483638Y-99213500D01*
X123483645Y-99213499D01*
X123483649Y-99213499D01*
X123544196Y-99206990D01*
X123544199Y-99206989D01*
X123544201Y-99206989D01*
X123681204Y-99155889D01*
X123683028Y-99154524D01*
X123798261Y-99068261D01*
X123885887Y-98951207D01*
X123885887Y-98951206D01*
X123885889Y-98951204D01*
X123936989Y-98814201D01*
X123943500Y-98753638D01*
X123943500Y-97980005D01*
X147056500Y-97980005D01*
X147056500Y-98159995D01*
X147084657Y-98337770D01*
X147084658Y-98337775D01*
X147140275Y-98508947D01*
X147140277Y-98508952D01*
X147152914Y-98533753D01*
X147221993Y-98669328D01*
X147327788Y-98814942D01*
X147455057Y-98942211D01*
X147455060Y-98942213D01*
X147600675Y-99048009D01*
X147761048Y-99129723D01*
X147932224Y-99185341D01*
X147932225Y-99185341D01*
X147932230Y-99185343D01*
X148110005Y-99213500D01*
X148110008Y-99213500D01*
X148289992Y-99213500D01*
X148289995Y-99213500D01*
X148467770Y-99185343D01*
X148638952Y-99129723D01*
X148799325Y-99048009D01*
X148944940Y-98942213D01*
X149072213Y-98814940D01*
X149178009Y-98669325D01*
X149259723Y-98508952D01*
X149315343Y-98337770D01*
X149343500Y-98159995D01*
X149343500Y-97980005D01*
X149315343Y-97802230D01*
X149259723Y-97631048D01*
X149178009Y-97470675D01*
X149072213Y-97325060D01*
X149072211Y-97325057D01*
X148944942Y-97197788D01*
X148799328Y-97091993D01*
X148799327Y-97091992D01*
X148799325Y-97091991D01*
X148638952Y-97010277D01*
X148638949Y-97010276D01*
X148638947Y-97010275D01*
X148467773Y-96954658D01*
X148467777Y-96954658D01*
X148434677Y-96949415D01*
X148289995Y-96926500D01*
X148110005Y-96926500D01*
X147932230Y-96954657D01*
X147932224Y-96954658D01*
X147761052Y-97010275D01*
X147761046Y-97010278D01*
X147600671Y-97091993D01*
X147455057Y-97197788D01*
X147327788Y-97325057D01*
X147221993Y-97470671D01*
X147140278Y-97631046D01*
X147140275Y-97631052D01*
X147084658Y-97802224D01*
X147084657Y-97802229D01*
X147084657Y-97802230D01*
X147056500Y-97980005D01*
X123943500Y-97980005D01*
X123943500Y-97386362D01*
X123939576Y-97349860D01*
X123936990Y-97325803D01*
X123936988Y-97325795D01*
X123898493Y-97222588D01*
X123885889Y-97188796D01*
X123885888Y-97188794D01*
X123885887Y-97188792D01*
X123798261Y-97071738D01*
X123681207Y-96984112D01*
X123681202Y-96984110D01*
X123544204Y-96933011D01*
X123544196Y-96933009D01*
X123483649Y-96926500D01*
X123483638Y-96926500D01*
X122116362Y-96926500D01*
X122116350Y-96926500D01*
X122055803Y-96933009D01*
X122055795Y-96933011D01*
X121918797Y-96984110D01*
X121918792Y-96984112D01*
X121801738Y-97071738D01*
X121714112Y-97188792D01*
X121714110Y-97188797D01*
X121663011Y-97325795D01*
X121663009Y-97325803D01*
X121656500Y-97386350D01*
X117992724Y-97386350D01*
X117966211Y-97349857D01*
X117838942Y-97222588D01*
X117693328Y-97116793D01*
X117693327Y-97116792D01*
X117693325Y-97116791D01*
X117532952Y-97035077D01*
X117532949Y-97035076D01*
X117532947Y-97035075D01*
X117361773Y-96979458D01*
X117361777Y-96979458D01*
X117328677Y-96974215D01*
X117183995Y-96951300D01*
X117004005Y-96951300D01*
X116826230Y-96979457D01*
X116826224Y-96979458D01*
X116655052Y-97035075D01*
X116655046Y-97035078D01*
X116494671Y-97116793D01*
X116349057Y-97222588D01*
X116221788Y-97349857D01*
X116115993Y-97495471D01*
X116034278Y-97655846D01*
X116034275Y-97655852D01*
X115978658Y-97827024D01*
X115978657Y-97827029D01*
X115978657Y-97827030D01*
X115950500Y-98004805D01*
X115263300Y-98004805D01*
X115263300Y-95464805D01*
X115950500Y-95464805D01*
X115950500Y-95644795D01*
X115974729Y-95797770D01*
X115978658Y-95822575D01*
X116026217Y-95968947D01*
X116034277Y-95993752D01*
X116115991Y-96154125D01*
X116115993Y-96154128D01*
X116221788Y-96299742D01*
X116349057Y-96427011D01*
X116349060Y-96427013D01*
X116494675Y-96532809D01*
X116655048Y-96614523D01*
X116826224Y-96670141D01*
X116826225Y-96670141D01*
X116826230Y-96670143D01*
X117004005Y-96698300D01*
X117004008Y-96698300D01*
X117183992Y-96698300D01*
X117183995Y-96698300D01*
X117361770Y-96670143D01*
X117532952Y-96614523D01*
X117693325Y-96532809D01*
X117838940Y-96427013D01*
X117966213Y-96299740D01*
X118072009Y-96154125D01*
X118153723Y-95993752D01*
X118209343Y-95822570D01*
X118237500Y-95644795D01*
X118237500Y-95464805D01*
X118209343Y-95287030D01*
X118153723Y-95115848D01*
X118072009Y-94955475D01*
X117992733Y-94846362D01*
X117992724Y-94846350D01*
X121656500Y-94846350D01*
X121656500Y-96213649D01*
X121663009Y-96274196D01*
X121663011Y-96274204D01*
X121714110Y-96411202D01*
X121714112Y-96411207D01*
X121801738Y-96528261D01*
X121918792Y-96615887D01*
X121918794Y-96615888D01*
X121918796Y-96615889D01*
X121977875Y-96637924D01*
X122055795Y-96666988D01*
X122055803Y-96666990D01*
X122116350Y-96673499D01*
X122116355Y-96673499D01*
X122116362Y-96673500D01*
X122116368Y-96673500D01*
X123483632Y-96673500D01*
X123483638Y-96673500D01*
X123483645Y-96673499D01*
X123483649Y-96673499D01*
X123544196Y-96666990D01*
X123544199Y-96666989D01*
X123544201Y-96666989D01*
X123681204Y-96615889D01*
X123683028Y-96614524D01*
X123798261Y-96528261D01*
X123885887Y-96411207D01*
X123885887Y-96411206D01*
X123885889Y-96411204D01*
X123936989Y-96274201D01*
X123943500Y-96213638D01*
X123943500Y-95440005D01*
X147056500Y-95440005D01*
X147056500Y-95619995D01*
X147084657Y-95797770D01*
X147084658Y-95797775D01*
X147140275Y-95968947D01*
X147140277Y-95968952D01*
X147152914Y-95993753D01*
X147221993Y-96129328D01*
X147327788Y-96274942D01*
X147455057Y-96402211D01*
X147455060Y-96402213D01*
X147600675Y-96508009D01*
X147761048Y-96589723D01*
X147932224Y-96645341D01*
X147932225Y-96645341D01*
X147932230Y-96645343D01*
X148110005Y-96673500D01*
X148110008Y-96673500D01*
X148289992Y-96673500D01*
X148289995Y-96673500D01*
X148467770Y-96645343D01*
X148638952Y-96589723D01*
X148799325Y-96508009D01*
X148944940Y-96402213D01*
X149072213Y-96274940D01*
X149178009Y-96129325D01*
X149259723Y-95968952D01*
X149315343Y-95797770D01*
X149343500Y-95619995D01*
X149343500Y-95440005D01*
X149315343Y-95262230D01*
X149259723Y-95091048D01*
X149178009Y-94930675D01*
X149072213Y-94785060D01*
X149072211Y-94785057D01*
X148944942Y-94657788D01*
X148799328Y-94551993D01*
X148799327Y-94551992D01*
X148799325Y-94551991D01*
X148638952Y-94470277D01*
X148638949Y-94470276D01*
X148638947Y-94470275D01*
X148467773Y-94414658D01*
X148467777Y-94414658D01*
X148434677Y-94409415D01*
X148289995Y-94386500D01*
X148110005Y-94386500D01*
X147932230Y-94414657D01*
X147932224Y-94414658D01*
X147761052Y-94470275D01*
X147761046Y-94470278D01*
X147600671Y-94551993D01*
X147455057Y-94657788D01*
X147327788Y-94785057D01*
X147221993Y-94930671D01*
X147140278Y-95091046D01*
X147140275Y-95091052D01*
X147084658Y-95262224D01*
X147084657Y-95262229D01*
X147084657Y-95262230D01*
X147056500Y-95440005D01*
X123943500Y-95440005D01*
X123943500Y-94846362D01*
X123939576Y-94809860D01*
X123936990Y-94785803D01*
X123936988Y-94785795D01*
X123898493Y-94682588D01*
X123885889Y-94648796D01*
X123885888Y-94648794D01*
X123885887Y-94648792D01*
X123798261Y-94531738D01*
X123681207Y-94444112D01*
X123681202Y-94444110D01*
X123544204Y-94393011D01*
X123544196Y-94393009D01*
X123483649Y-94386500D01*
X123483638Y-94386500D01*
X122116362Y-94386500D01*
X122116350Y-94386500D01*
X122055803Y-94393009D01*
X122055795Y-94393011D01*
X121918797Y-94444110D01*
X121918792Y-94444112D01*
X121801738Y-94531738D01*
X121714112Y-94648792D01*
X121714110Y-94648797D01*
X121663011Y-94785795D01*
X121663009Y-94785803D01*
X121656500Y-94846350D01*
X117992724Y-94846350D01*
X117966211Y-94809857D01*
X117838942Y-94682588D01*
X117693328Y-94576793D01*
X117693327Y-94576792D01*
X117693325Y-94576791D01*
X117532952Y-94495077D01*
X117532949Y-94495076D01*
X117532947Y-94495075D01*
X117361773Y-94439458D01*
X117361777Y-94439458D01*
X117328677Y-94434215D01*
X117183995Y-94411300D01*
X117004005Y-94411300D01*
X116826230Y-94439457D01*
X116826224Y-94439458D01*
X116655052Y-94495075D01*
X116655046Y-94495078D01*
X116494671Y-94576793D01*
X116349057Y-94682588D01*
X116221788Y-94809857D01*
X116115993Y-94955471D01*
X116034278Y-95115846D01*
X116034275Y-95115852D01*
X115978658Y-95287024D01*
X115978657Y-95287029D01*
X115978657Y-95287030D01*
X115950500Y-95464805D01*
X115263300Y-95464805D01*
X115263300Y-90748949D01*
X115283302Y-90680828D01*
X115300199Y-90659859D01*
X115746914Y-90213144D01*
X115809223Y-90179122D01*
X115880038Y-90184186D01*
X115936874Y-90226733D01*
X115961685Y-90293253D01*
X115960454Y-90321952D01*
X115950500Y-90384805D01*
X115950500Y-90564795D01*
X115974405Y-90715722D01*
X115978658Y-90742575D01*
X116026217Y-90888947D01*
X116034277Y-90913752D01*
X116115991Y-91074125D01*
X116115993Y-91074128D01*
X116221788Y-91219742D01*
X116349057Y-91347011D01*
X116349060Y-91347013D01*
X116494675Y-91452809D01*
X116655048Y-91534523D01*
X116826224Y-91590141D01*
X116826225Y-91590141D01*
X116826230Y-91590143D01*
X117004005Y-91618300D01*
X117004008Y-91618300D01*
X117183992Y-91618300D01*
X117183995Y-91618300D01*
X117226116Y-91611628D01*
X117296527Y-91620727D01*
X117334922Y-91646982D01*
X117355651Y-91667711D01*
X117389677Y-91730023D01*
X117384612Y-91800838D01*
X117342065Y-91857674D01*
X117275545Y-91882485D01*
X117246849Y-91881255D01*
X117183995Y-91871300D01*
X117004005Y-91871300D01*
X116826230Y-91899457D01*
X116826224Y-91899458D01*
X116655052Y-91955075D01*
X116655046Y-91955078D01*
X116494671Y-92036793D01*
X116349057Y-92142588D01*
X116221788Y-92269857D01*
X116115993Y-92415471D01*
X116034278Y-92575846D01*
X116034275Y-92575852D01*
X115978658Y-92747024D01*
X115978657Y-92747029D01*
X115978657Y-92747030D01*
X115950500Y-92924805D01*
X115950500Y-93104795D01*
X115974729Y-93257770D01*
X115978658Y-93282575D01*
X116026217Y-93428947D01*
X116034277Y-93453752D01*
X116115991Y-93614125D01*
X116115993Y-93614128D01*
X116221788Y-93759742D01*
X116349057Y-93887011D01*
X116349060Y-93887013D01*
X116494675Y-93992809D01*
X116655048Y-94074523D01*
X116826224Y-94130141D01*
X116826225Y-94130141D01*
X116826230Y-94130143D01*
X117004005Y-94158300D01*
X117004008Y-94158300D01*
X117183992Y-94158300D01*
X117183995Y-94158300D01*
X117361770Y-94130143D01*
X117532952Y-94074523D01*
X117693325Y-93992809D01*
X117838940Y-93887013D01*
X117966213Y-93759740D01*
X118072009Y-93614125D01*
X118153723Y-93453752D01*
X118209343Y-93282570D01*
X118237500Y-93104795D01*
X118237500Y-92924805D01*
X118227545Y-92861953D01*
X118236643Y-92791544D01*
X118282364Y-92737229D01*
X118350192Y-92716256D01*
X118418592Y-92735282D01*
X118441088Y-92753148D01*
X119189431Y-93501491D01*
X119297283Y-93573555D01*
X119417123Y-93623194D01*
X119544343Y-93648500D01*
X121543563Y-93648500D01*
X121611684Y-93668502D01*
X121658177Y-93722158D01*
X121661618Y-93730467D01*
X121714110Y-93871203D01*
X121714112Y-93871207D01*
X121801738Y-93988261D01*
X121918792Y-94075887D01*
X121918794Y-94075888D01*
X121918796Y-94075889D01*
X121977875Y-94097924D01*
X122055795Y-94126988D01*
X122055803Y-94126990D01*
X122116350Y-94133499D01*
X122116355Y-94133499D01*
X122116362Y-94133500D01*
X122116368Y-94133500D01*
X123483632Y-94133500D01*
X123483638Y-94133500D01*
X123483645Y-94133499D01*
X123483649Y-94133499D01*
X123544196Y-94126990D01*
X123544199Y-94126989D01*
X123544201Y-94126989D01*
X123681204Y-94075889D01*
X123683028Y-94074524D01*
X123798261Y-93988261D01*
X123885887Y-93871207D01*
X123885887Y-93871206D01*
X123885889Y-93871204D01*
X123936989Y-93734201D01*
X123937391Y-93730467D01*
X123943499Y-93673649D01*
X123943500Y-93673632D01*
X123943500Y-92900005D01*
X147056500Y-92900005D01*
X147056500Y-93079995D01*
X147084657Y-93257770D01*
X147084658Y-93257775D01*
X147140275Y-93428947D01*
X147140277Y-93428952D01*
X147213956Y-93573555D01*
X147221993Y-93589328D01*
X147327788Y-93734942D01*
X147455057Y-93862211D01*
X147467435Y-93871204D01*
X147600675Y-93968009D01*
X147761048Y-94049723D01*
X147932224Y-94105341D01*
X147932225Y-94105341D01*
X147932230Y-94105343D01*
X148110005Y-94133500D01*
X148110008Y-94133500D01*
X148289992Y-94133500D01*
X148289995Y-94133500D01*
X148467770Y-94105343D01*
X148638952Y-94049723D01*
X148799325Y-93968009D01*
X148944940Y-93862213D01*
X149072213Y-93734940D01*
X149178009Y-93589325D01*
X149259723Y-93428952D01*
X149315343Y-93257770D01*
X149343500Y-93079995D01*
X149343500Y-92900005D01*
X149315343Y-92722230D01*
X149259723Y-92551048D01*
X149178009Y-92390675D01*
X149112584Y-92300625D01*
X149072211Y-92245057D01*
X148944942Y-92117788D01*
X148799328Y-92011993D01*
X148799327Y-92011992D01*
X148799325Y-92011991D01*
X148638952Y-91930277D01*
X148638949Y-91930276D01*
X148638947Y-91930275D01*
X148467773Y-91874658D01*
X148467777Y-91874658D01*
X148434677Y-91869415D01*
X148289995Y-91846500D01*
X148110005Y-91846500D01*
X147932230Y-91874657D01*
X147932224Y-91874658D01*
X147761052Y-91930275D01*
X147761046Y-91930278D01*
X147600671Y-92011993D01*
X147455057Y-92117788D01*
X147327788Y-92245057D01*
X147221993Y-92390671D01*
X147140278Y-92551046D01*
X147140275Y-92551052D01*
X147084658Y-92722224D01*
X147084657Y-92722229D01*
X147084657Y-92722230D01*
X147056500Y-92900005D01*
X123943500Y-92900005D01*
X123943500Y-92306367D01*
X123943499Y-92306350D01*
X123936990Y-92245803D01*
X123936988Y-92245795D01*
X123898493Y-92142588D01*
X123885889Y-92108796D01*
X123885888Y-92108794D01*
X123885887Y-92108792D01*
X123798261Y-91991738D01*
X123681207Y-91904112D01*
X123681202Y-91904110D01*
X123544204Y-91853011D01*
X123544196Y-91853009D01*
X123483649Y-91846500D01*
X123483638Y-91846500D01*
X122116362Y-91846500D01*
X122116350Y-91846500D01*
X122055803Y-91853009D01*
X122055795Y-91853011D01*
X121918797Y-91904110D01*
X121918792Y-91904112D01*
X121801738Y-91991738D01*
X121714112Y-92108792D01*
X121714110Y-92108796D01*
X121661618Y-92249533D01*
X121619072Y-92306369D01*
X121552551Y-92331179D01*
X121543563Y-92331500D01*
X119934150Y-92331500D01*
X119866029Y-92311498D01*
X119845055Y-92294595D01*
X118266182Y-90715722D01*
X118232156Y-90653410D01*
X118230828Y-90606918D01*
X118237500Y-90564795D01*
X118237500Y-90384805D01*
X118209343Y-90207030D01*
X118153723Y-90035848D01*
X118072009Y-89875475D01*
X117992733Y-89766362D01*
X117992724Y-89766350D01*
X121656500Y-89766350D01*
X121656500Y-91133649D01*
X121663009Y-91194196D01*
X121663011Y-91194204D01*
X121714110Y-91331202D01*
X121714112Y-91331207D01*
X121801738Y-91448261D01*
X121918792Y-91535887D01*
X121918794Y-91535888D01*
X121918796Y-91535889D01*
X121977875Y-91557924D01*
X122055795Y-91586988D01*
X122055803Y-91586990D01*
X122116350Y-91593499D01*
X122116355Y-91593499D01*
X122116362Y-91593500D01*
X122116368Y-91593500D01*
X123483632Y-91593500D01*
X123483638Y-91593500D01*
X123483645Y-91593499D01*
X123483649Y-91593499D01*
X123544196Y-91586990D01*
X123544199Y-91586989D01*
X123544201Y-91586989D01*
X123681204Y-91535889D01*
X123683028Y-91534524D01*
X123798261Y-91448261D01*
X123885887Y-91331207D01*
X123885887Y-91331206D01*
X123885889Y-91331204D01*
X123936989Y-91194201D01*
X123943500Y-91133638D01*
X123943500Y-90360005D01*
X147056500Y-90360005D01*
X147056500Y-90539995D01*
X147078806Y-90680828D01*
X147084658Y-90717775D01*
X147140275Y-90888947D01*
X147140277Y-90888952D01*
X147152914Y-90913753D01*
X147221993Y-91049328D01*
X147327788Y-91194942D01*
X147455057Y-91322211D01*
X147455060Y-91322213D01*
X147600675Y-91428009D01*
X147761048Y-91509723D01*
X147932224Y-91565341D01*
X147932225Y-91565341D01*
X147932230Y-91565343D01*
X148110005Y-91593500D01*
X148110008Y-91593500D01*
X148289992Y-91593500D01*
X148289995Y-91593500D01*
X148467770Y-91565343D01*
X148638952Y-91509723D01*
X148799325Y-91428009D01*
X148944940Y-91322213D01*
X149072213Y-91194940D01*
X149178009Y-91049325D01*
X149259723Y-90888952D01*
X149315343Y-90717770D01*
X149343500Y-90539995D01*
X149343500Y-90360005D01*
X149315343Y-90182230D01*
X149259723Y-90011048D01*
X149178009Y-89850675D01*
X149072213Y-89705060D01*
X149072211Y-89705057D01*
X148944942Y-89577788D01*
X148799328Y-89471993D01*
X148799327Y-89471992D01*
X148799325Y-89471991D01*
X148638952Y-89390277D01*
X148638949Y-89390276D01*
X148638947Y-89390275D01*
X148467773Y-89334658D01*
X148467777Y-89334658D01*
X148434677Y-89329415D01*
X148289995Y-89306500D01*
X148110005Y-89306500D01*
X147948027Y-89332155D01*
X147932224Y-89334658D01*
X147761052Y-89390275D01*
X147761046Y-89390278D01*
X147600671Y-89471993D01*
X147455057Y-89577788D01*
X147327788Y-89705057D01*
X147221993Y-89850671D01*
X147140278Y-90011046D01*
X147140275Y-90011052D01*
X147084658Y-90182224D01*
X147084657Y-90182229D01*
X147084657Y-90182230D01*
X147056500Y-90360005D01*
X123943500Y-90360005D01*
X123943500Y-89766362D01*
X123939576Y-89729860D01*
X123936990Y-89705803D01*
X123936988Y-89705795D01*
X123898493Y-89602588D01*
X123885889Y-89568796D01*
X123885888Y-89568794D01*
X123885887Y-89568792D01*
X123798261Y-89451738D01*
X123681207Y-89364112D01*
X123681202Y-89364110D01*
X123544204Y-89313011D01*
X123544196Y-89313009D01*
X123483649Y-89306500D01*
X123483638Y-89306500D01*
X122116362Y-89306500D01*
X122116350Y-89306500D01*
X122055803Y-89313009D01*
X122055795Y-89313011D01*
X121918797Y-89364110D01*
X121918792Y-89364112D01*
X121801738Y-89451738D01*
X121714112Y-89568792D01*
X121714110Y-89568797D01*
X121663011Y-89705795D01*
X121663009Y-89705803D01*
X121656500Y-89766350D01*
X117992724Y-89766350D01*
X117966211Y-89729857D01*
X117838942Y-89602588D01*
X117693328Y-89496793D01*
X117693327Y-89496792D01*
X117693325Y-89496791D01*
X117532952Y-89415077D01*
X117532949Y-89415076D01*
X117532947Y-89415075D01*
X117361773Y-89359458D01*
X117361777Y-89359458D01*
X117328677Y-89354215D01*
X117183995Y-89331300D01*
X117004005Y-89331300D01*
X116962975Y-89337798D01*
X116941151Y-89341255D01*
X116870740Y-89332155D01*
X116816426Y-89286433D01*
X116795454Y-89218604D01*
X116814482Y-89150205D01*
X116832342Y-89127715D01*
X116853078Y-89106979D01*
X116915388Y-89072955D01*
X116961881Y-89071628D01*
X116994451Y-89076786D01*
X117004004Y-89078300D01*
X117004005Y-89078300D01*
X117183992Y-89078300D01*
X117183995Y-89078300D01*
X117361770Y-89050143D01*
X117532952Y-88994523D01*
X117693325Y-88912809D01*
X117838940Y-88807013D01*
X117966213Y-88679740D01*
X118072009Y-88534125D01*
X118153723Y-88373752D01*
X118209343Y-88202570D01*
X118237500Y-88024795D01*
X118237500Y-87844805D01*
X118209343Y-87667030D01*
X118153723Y-87495848D01*
X118072009Y-87335475D01*
X117992733Y-87226362D01*
X117992724Y-87226350D01*
X121656500Y-87226350D01*
X121656500Y-88593649D01*
X121663009Y-88654196D01*
X121663011Y-88654204D01*
X121714110Y-88791202D01*
X121714112Y-88791207D01*
X121801738Y-88908261D01*
X121918792Y-88995887D01*
X121918794Y-88995888D01*
X121918796Y-88995889D01*
X121977875Y-89017924D01*
X122055795Y-89046988D01*
X122055803Y-89046990D01*
X122116350Y-89053499D01*
X122116355Y-89053499D01*
X122116362Y-89053500D01*
X122116368Y-89053500D01*
X123483632Y-89053500D01*
X123483638Y-89053500D01*
X123483645Y-89053499D01*
X123483649Y-89053499D01*
X123544196Y-89046990D01*
X123544199Y-89046989D01*
X123544201Y-89046989D01*
X123681204Y-88995889D01*
X123683028Y-88994524D01*
X123798261Y-88908261D01*
X123885887Y-88791207D01*
X123885887Y-88791206D01*
X123885889Y-88791204D01*
X123936989Y-88654201D01*
X123943500Y-88593638D01*
X123943500Y-87820005D01*
X147056500Y-87820005D01*
X147056500Y-87999995D01*
X147067100Y-88066918D01*
X147084658Y-88177775D01*
X147140275Y-88348947D01*
X147140277Y-88348952D01*
X147152914Y-88373753D01*
X147221993Y-88509328D01*
X147327788Y-88654942D01*
X147455057Y-88782211D01*
X147455060Y-88782213D01*
X147600675Y-88888009D01*
X147761048Y-88969723D01*
X147932224Y-89025341D01*
X147932225Y-89025341D01*
X147932230Y-89025343D01*
X148110005Y-89053500D01*
X148110008Y-89053500D01*
X148289992Y-89053500D01*
X148289995Y-89053500D01*
X148467770Y-89025343D01*
X148638952Y-88969723D01*
X148799325Y-88888009D01*
X148944940Y-88782213D01*
X149072213Y-88654940D01*
X149178009Y-88509325D01*
X149259723Y-88348952D01*
X149315343Y-88177770D01*
X149343500Y-87999995D01*
X149343500Y-87820005D01*
X149315343Y-87642230D01*
X149259723Y-87471048D01*
X149178009Y-87310675D01*
X149072213Y-87165060D01*
X149072211Y-87165057D01*
X148944942Y-87037788D01*
X148799328Y-86931993D01*
X148799327Y-86931992D01*
X148799325Y-86931991D01*
X148638952Y-86850277D01*
X148638949Y-86850276D01*
X148638947Y-86850275D01*
X148467773Y-86794658D01*
X148467777Y-86794658D01*
X148434677Y-86789415D01*
X148289995Y-86766500D01*
X148110005Y-86766500D01*
X147932230Y-86794657D01*
X147932224Y-86794658D01*
X147761052Y-86850275D01*
X147761046Y-86850278D01*
X147600671Y-86931993D01*
X147455057Y-87037788D01*
X147327788Y-87165057D01*
X147221993Y-87310671D01*
X147140278Y-87471046D01*
X147140275Y-87471052D01*
X147084658Y-87642224D01*
X147084657Y-87642229D01*
X147084657Y-87642230D01*
X147056500Y-87820005D01*
X123943500Y-87820005D01*
X123943500Y-87226362D01*
X123939576Y-87189860D01*
X123936990Y-87165803D01*
X123936988Y-87165795D01*
X123898493Y-87062588D01*
X123885889Y-87028796D01*
X123885888Y-87028794D01*
X123885887Y-87028792D01*
X123798261Y-86911738D01*
X123681207Y-86824112D01*
X123681202Y-86824110D01*
X123544204Y-86773011D01*
X123544196Y-86773009D01*
X123483649Y-86766500D01*
X123483638Y-86766500D01*
X122116362Y-86766500D01*
X122116350Y-86766500D01*
X122055803Y-86773009D01*
X122055795Y-86773011D01*
X121918797Y-86824110D01*
X121918792Y-86824112D01*
X121801738Y-86911738D01*
X121714112Y-87028792D01*
X121714110Y-87028797D01*
X121663011Y-87165795D01*
X121663009Y-87165803D01*
X121656500Y-87226350D01*
X117992724Y-87226350D01*
X117966211Y-87189857D01*
X117838942Y-87062588D01*
X117693328Y-86956793D01*
X117693327Y-86956792D01*
X117693325Y-86956791D01*
X117532952Y-86875077D01*
X117532949Y-86875076D01*
X117532947Y-86875075D01*
X117361773Y-86819458D01*
X117361777Y-86819458D01*
X117328677Y-86814215D01*
X117183995Y-86791300D01*
X117004005Y-86791300D01*
X116826230Y-86819457D01*
X116826224Y-86819458D01*
X116655052Y-86875075D01*
X116655046Y-86875078D01*
X116494671Y-86956793D01*
X116349057Y-87062588D01*
X116221788Y-87189857D01*
X116115993Y-87335471D01*
X116034278Y-87495846D01*
X116034275Y-87495852D01*
X115978658Y-87667024D01*
X115978657Y-87667029D01*
X115978657Y-87667030D01*
X115954428Y-87820008D01*
X115950500Y-87844808D01*
X115950500Y-88024794D01*
X115957171Y-88066918D01*
X115948071Y-88137329D01*
X115921817Y-88175722D01*
X114093312Y-90004226D01*
X114093309Y-90004230D01*
X114059367Y-90055030D01*
X114059366Y-90055031D01*
X114021245Y-90112082D01*
X113971607Y-90231919D01*
X113971606Y-90231922D01*
X113946300Y-90359139D01*
X112999466Y-90359139D01*
X112999466Y-90352949D01*
X112999643Y-85280005D01*
X121656500Y-85280005D01*
X121656500Y-85459995D01*
X121684657Y-85637770D01*
X121684658Y-85637775D01*
X121740275Y-85808947D01*
X121740277Y-85808952D01*
X121740278Y-85808953D01*
X121821993Y-85969328D01*
X121927788Y-86114942D01*
X122055057Y-86242211D01*
X122055060Y-86242213D01*
X122200675Y-86348009D01*
X122361048Y-86429723D01*
X122532224Y-86485341D01*
X122532225Y-86485341D01*
X122532230Y-86485343D01*
X122710005Y-86513500D01*
X122710008Y-86513500D01*
X122889992Y-86513500D01*
X122889995Y-86513500D01*
X123067770Y-86485343D01*
X123238952Y-86429723D01*
X123399325Y-86348009D01*
X123544940Y-86242213D01*
X123672213Y-86114940D01*
X123778009Y-85969325D01*
X123859723Y-85808952D01*
X123915343Y-85637770D01*
X123943500Y-85459995D01*
X123943500Y-85280005D01*
X147056500Y-85280005D01*
X147056500Y-85459995D01*
X147084657Y-85637770D01*
X147084658Y-85637775D01*
X147140275Y-85808947D01*
X147140277Y-85808952D01*
X147140278Y-85808953D01*
X147221993Y-85969328D01*
X147327788Y-86114942D01*
X147455057Y-86242211D01*
X147455060Y-86242213D01*
X147600675Y-86348009D01*
X147761048Y-86429723D01*
X147932224Y-86485341D01*
X147932225Y-86485341D01*
X147932230Y-86485343D01*
X148110005Y-86513500D01*
X148110008Y-86513500D01*
X148289992Y-86513500D01*
X148289995Y-86513500D01*
X148467770Y-86485343D01*
X148638952Y-86429723D01*
X148799325Y-86348009D01*
X148944940Y-86242213D01*
X149072213Y-86114940D01*
X149178009Y-85969325D01*
X149259723Y-85808952D01*
X149315343Y-85637770D01*
X149343500Y-85459995D01*
X149343500Y-85280005D01*
X149315343Y-85102230D01*
X149259723Y-84931048D01*
X149178009Y-84770675D01*
X149072213Y-84625060D01*
X149072211Y-84625057D01*
X148944942Y-84497788D01*
X148799328Y-84391993D01*
X148799327Y-84391992D01*
X148799325Y-84391991D01*
X148638952Y-84310277D01*
X148638949Y-84310276D01*
X148638947Y-84310275D01*
X148467773Y-84254658D01*
X148467777Y-84254658D01*
X148434677Y-84249415D01*
X148289995Y-84226500D01*
X148110005Y-84226500D01*
X147932230Y-84254657D01*
X147932224Y-84254658D01*
X147761052Y-84310275D01*
X147761046Y-84310278D01*
X147600671Y-84391993D01*
X147455057Y-84497788D01*
X147327788Y-84625057D01*
X147221993Y-84770671D01*
X147140278Y-84931046D01*
X147140275Y-84931052D01*
X147084658Y-85102224D01*
X147084657Y-85102229D01*
X147084657Y-85102230D01*
X147056500Y-85280005D01*
X123943500Y-85280005D01*
X123915343Y-85102230D01*
X123859723Y-84931048D01*
X123778009Y-84770675D01*
X123672213Y-84625060D01*
X123672211Y-84625057D01*
X123544942Y-84497788D01*
X123399328Y-84391993D01*
X123399327Y-84391992D01*
X123399325Y-84391991D01*
X123238952Y-84310277D01*
X123238949Y-84310276D01*
X123238947Y-84310275D01*
X123067773Y-84254658D01*
X123067777Y-84254658D01*
X123034677Y-84249415D01*
X122889995Y-84226500D01*
X122710005Y-84226500D01*
X122532230Y-84254657D01*
X122532224Y-84254658D01*
X122361052Y-84310275D01*
X122361046Y-84310278D01*
X122200671Y-84391993D01*
X122055057Y-84497788D01*
X121927788Y-84625057D01*
X121821993Y-84770671D01*
X121740278Y-84931046D01*
X121740275Y-84931052D01*
X121684658Y-85102224D01*
X121684657Y-85102229D01*
X121684657Y-85102230D01*
X121656500Y-85280005D01*
X112999643Y-85280005D01*
X112999643Y-85275050D01*
X112999752Y-82146350D01*
X121656500Y-82146350D01*
X121656500Y-83513649D01*
X121663009Y-83574196D01*
X121663011Y-83574204D01*
X121714110Y-83711202D01*
X121714112Y-83711207D01*
X121801738Y-83828261D01*
X121918792Y-83915887D01*
X121918794Y-83915888D01*
X121918796Y-83915889D01*
X121977875Y-83937924D01*
X122055795Y-83966988D01*
X122055803Y-83966990D01*
X122116350Y-83973499D01*
X122116355Y-83973499D01*
X122116362Y-83973500D01*
X122116368Y-83973500D01*
X123483632Y-83973500D01*
X123483638Y-83973500D01*
X123483645Y-83973499D01*
X123483649Y-83973499D01*
X123544196Y-83966990D01*
X123544199Y-83966989D01*
X123544201Y-83966989D01*
X123549537Y-83964999D01*
X123566695Y-83958599D01*
X123681204Y-83915889D01*
X123691273Y-83908352D01*
X123798261Y-83828261D01*
X123885887Y-83711207D01*
X123885887Y-83711206D01*
X123885889Y-83711204D01*
X123936989Y-83574201D01*
X123943500Y-83513638D01*
X123943500Y-82147159D01*
X147065000Y-82147159D01*
X147065000Y-82580000D01*
X147766988Y-82580000D01*
X147734075Y-82637007D01*
X147700000Y-82764174D01*
X147700000Y-82895826D01*
X147734075Y-83022993D01*
X147766988Y-83080000D01*
X147065000Y-83080000D01*
X147065000Y-83512840D01*
X147071400Y-83572371D01*
X147121647Y-83707089D01*
X147207810Y-83822189D01*
X147322910Y-83908352D01*
X147457628Y-83958599D01*
X147517159Y-83964999D01*
X147517176Y-83965000D01*
X147950000Y-83965000D01*
X147950000Y-83263012D01*
X148007007Y-83295925D01*
X148134174Y-83330000D01*
X148265826Y-83330000D01*
X148392993Y-83295925D01*
X148450000Y-83263012D01*
X148450000Y-83965000D01*
X148882824Y-83965000D01*
X148882840Y-83964999D01*
X148942371Y-83958599D01*
X149077089Y-83908352D01*
X149192189Y-83822189D01*
X149278352Y-83707089D01*
X149328599Y-83572371D01*
X149334999Y-83512840D01*
X149335000Y-83512823D01*
X149335000Y-83080000D01*
X148633012Y-83080000D01*
X148665925Y-83022993D01*
X148700000Y-82895826D01*
X148700000Y-82764174D01*
X148665925Y-82637007D01*
X148633012Y-82580000D01*
X149335000Y-82580000D01*
X149335000Y-82147176D01*
X149334999Y-82147159D01*
X149328599Y-82087628D01*
X149278352Y-81952910D01*
X149192189Y-81837810D01*
X149077089Y-81751647D01*
X148942371Y-81701400D01*
X148882840Y-81695000D01*
X148450000Y-81695000D01*
X148450000Y-82396988D01*
X148392993Y-82364075D01*
X148265826Y-82330000D01*
X148134174Y-82330000D01*
X148007007Y-82364075D01*
X147950000Y-82396988D01*
X147950000Y-81695000D01*
X147517159Y-81695000D01*
X147457628Y-81701400D01*
X147322910Y-81751647D01*
X147207810Y-81837810D01*
X147121647Y-81952910D01*
X147071400Y-82087628D01*
X147065000Y-82147159D01*
X123943500Y-82147159D01*
X123943500Y-82146362D01*
X123937186Y-82087628D01*
X123936990Y-82085803D01*
X123936988Y-82085795D01*
X123885889Y-81948797D01*
X123885887Y-81948792D01*
X123798261Y-81831738D01*
X123681207Y-81744112D01*
X123681202Y-81744110D01*
X123544204Y-81693011D01*
X123544196Y-81693009D01*
X123483649Y-81686500D01*
X123483638Y-81686500D01*
X122116362Y-81686500D01*
X122116350Y-81686500D01*
X122055803Y-81693009D01*
X122055795Y-81693011D01*
X121918797Y-81744110D01*
X121918792Y-81744112D01*
X121801738Y-81831738D01*
X121714112Y-81948792D01*
X121714110Y-81948797D01*
X121663011Y-82085795D01*
X121663009Y-82085803D01*
X121656500Y-82146350D01*
X112999752Y-82146350D01*
X112999752Y-82142984D01*
X112999869Y-78778709D01*
X115149500Y-78778709D01*
X115149500Y-79021290D01*
X115181160Y-79261782D01*
X115243944Y-79496095D01*
X115243945Y-79496097D01*
X115243946Y-79496100D01*
X115336776Y-79720212D01*
X115336777Y-79720213D01*
X115336782Y-79720224D01*
X115458061Y-79930285D01*
X115458063Y-79930288D01*
X115458064Y-79930289D01*
X115605735Y-80122738D01*
X115605739Y-80122742D01*
X115605744Y-80122748D01*
X115777251Y-80294255D01*
X115777256Y-80294259D01*
X115777262Y-80294265D01*
X115969711Y-80441936D01*
X115969714Y-80441938D01*
X116179775Y-80563217D01*
X116179779Y-80563218D01*
X116179788Y-80563224D01*
X116403900Y-80656054D01*
X116638211Y-80718838D01*
X116638215Y-80718838D01*
X116638217Y-80718839D01*
X116700202Y-80726999D01*
X116878712Y-80750500D01*
X116878719Y-80750500D01*
X117121281Y-80750500D01*
X117121288Y-80750500D01*
X117338637Y-80721885D01*
X117361782Y-80718839D01*
X117361782Y-80718838D01*
X117361789Y-80718838D01*
X117596100Y-80656054D01*
X117820212Y-80563224D01*
X118030289Y-80441936D01*
X118222738Y-80294265D01*
X118394265Y-80122738D01*
X118541936Y-79930289D01*
X118663224Y-79720212D01*
X118756054Y-79496100D01*
X118818838Y-79261789D01*
X118850500Y-79021288D01*
X118850500Y-78778712D01*
X118850500Y-78778709D01*
X152149500Y-78778709D01*
X152149500Y-79021290D01*
X152181160Y-79261782D01*
X152243944Y-79496095D01*
X152243945Y-79496097D01*
X152243946Y-79496100D01*
X152336776Y-79720212D01*
X152336777Y-79720213D01*
X152336782Y-79720224D01*
X152458061Y-79930285D01*
X152458063Y-79930288D01*
X152458064Y-79930289D01*
X152605735Y-80122738D01*
X152605739Y-80122742D01*
X152605744Y-80122748D01*
X152777251Y-80294255D01*
X152777256Y-80294259D01*
X152777262Y-80294265D01*
X152969711Y-80441936D01*
X152969714Y-80441938D01*
X153179775Y-80563217D01*
X153179779Y-80563218D01*
X153179788Y-80563224D01*
X153403900Y-80656054D01*
X153638211Y-80718838D01*
X153638215Y-80718838D01*
X153638217Y-80718839D01*
X153700202Y-80726999D01*
X153878712Y-80750500D01*
X153878719Y-80750500D01*
X154121281Y-80750500D01*
X154121288Y-80750500D01*
X154338637Y-80721885D01*
X154361782Y-80718839D01*
X154361782Y-80718838D01*
X154361789Y-80718838D01*
X154596100Y-80656054D01*
X154820212Y-80563224D01*
X155030289Y-80441936D01*
X155222738Y-80294265D01*
X155394265Y-80122738D01*
X155541936Y-79930289D01*
X155663224Y-79720212D01*
X155756054Y-79496100D01*
X155818838Y-79261789D01*
X155850500Y-79021288D01*
X155850500Y-78778712D01*
X155818838Y-78538211D01*
X155756054Y-78303900D01*
X155663224Y-78079788D01*
X155663218Y-78079779D01*
X155663217Y-78079775D01*
X155541938Y-77869714D01*
X155541936Y-77869711D01*
X155394265Y-77677262D01*
X155394259Y-77677256D01*
X155394255Y-77677251D01*
X155222748Y-77505744D01*
X155222742Y-77505739D01*
X155222738Y-77505735D01*
X155030289Y-77358064D01*
X155030288Y-77358063D01*
X155030285Y-77358061D01*
X154820224Y-77236782D01*
X154820216Y-77236778D01*
X154820212Y-77236776D01*
X154596100Y-77143946D01*
X154596097Y-77143945D01*
X154596095Y-77143944D01*
X154361782Y-77081160D01*
X154121290Y-77049500D01*
X154121288Y-77049500D01*
X153878712Y-77049500D01*
X153878709Y-77049500D01*
X153638217Y-77081160D01*
X153403904Y-77143944D01*
X153403900Y-77143946D01*
X153179786Y-77236777D01*
X153179775Y-77236782D01*
X152969714Y-77358061D01*
X152777262Y-77505735D01*
X152777251Y-77505744D01*
X152605744Y-77677251D01*
X152605735Y-77677262D01*
X152458061Y-77869714D01*
X152336782Y-78079775D01*
X152336777Y-78079786D01*
X152243946Y-78303900D01*
X152243944Y-78303904D01*
X152181160Y-78538217D01*
X152149500Y-78778709D01*
X118850500Y-78778709D01*
X118818838Y-78538211D01*
X118756054Y-78303900D01*
X118663224Y-78079788D01*
X118663218Y-78079779D01*
X118663217Y-78079775D01*
X118541938Y-77869714D01*
X118541936Y-77869711D01*
X118394265Y-77677262D01*
X118394259Y-77677256D01*
X118394255Y-77677251D01*
X118222748Y-77505744D01*
X118222742Y-77505739D01*
X118222738Y-77505735D01*
X118030289Y-77358064D01*
X118030288Y-77358063D01*
X118030285Y-77358061D01*
X117820224Y-77236782D01*
X117820216Y-77236778D01*
X117820212Y-77236776D01*
X117596100Y-77143946D01*
X117596097Y-77143945D01*
X117596095Y-77143944D01*
X117361782Y-77081160D01*
X117121290Y-77049500D01*
X117121288Y-77049500D01*
X116878712Y-77049500D01*
X116878709Y-77049500D01*
X116638217Y-77081160D01*
X116403904Y-77143944D01*
X116403900Y-77143946D01*
X116179786Y-77236777D01*
X116179775Y-77236782D01*
X115969714Y-77358061D01*
X115777262Y-77505735D01*
X115777251Y-77505744D01*
X115605744Y-77677251D01*
X115605735Y-77677262D01*
X115458061Y-77869714D01*
X115336782Y-78079775D01*
X115336777Y-78079786D01*
X115243946Y-78303900D01*
X115243944Y-78303904D01*
X115181160Y-78538217D01*
X115149500Y-78778709D01*
X112999869Y-78778709D01*
X112999869Y-78774583D01*
X112999996Y-75125996D01*
X113020000Y-75057876D01*
X113073658Y-75011385D01*
X113125996Y-75000000D01*
X157874000Y-75000000D01*
X157942121Y-75020002D01*
G37*
%TD.AperFunction*%
%TD*%
M02*
