%TF.GenerationSoftware,KiCad,Pcbnew,10.0.6-1.fc44*%
%TF.CreationDate,2026-09-07T13:57:25+07:00*%
%TF.ProjectId,LuckFox RAP Shield,4c75636b-466f-4782-9052-415020536869,rev?*%
%TF.SameCoordinates,Original*%
%TF.FileFunction,Legend,Top*%
%TF.FilePolarity,Positive*%
%FSLAX46Y46*%
G04 Gerber Fmt 4.6, Leading zero omitted, Abs format (unit mm)*
G04 Created by KiCad (PCBNEW 10.0.6-1.fc44) date 2026-09-07 13:57:25*
%MOMM*%
%LPD*%
G01*
G04 APERTURE LIST*
%ADD10C,0.150000*%
%ADD11C,0.080000*%
%ADD12C,0.120000*%
%ADD13C,0.000000*%
%ADD14C,0.050000*%
G04 APERTURE END LIST*
D10*
X133086647Y-101012619D02*
X132753314Y-100536428D01*
X132515219Y-101012619D02*
X132515219Y-100012619D01*
X132515219Y-100012619D02*
X132896171Y-100012619D01*
X132896171Y-100012619D02*
X132991409Y-100060238D01*
X132991409Y-100060238D02*
X133039028Y-100107857D01*
X133039028Y-100107857D02*
X133086647Y-100203095D01*
X133086647Y-100203095D02*
X133086647Y-100345952D01*
X133086647Y-100345952D02*
X133039028Y-100441190D01*
X133039028Y-100441190D02*
X132991409Y-100488809D01*
X132991409Y-100488809D02*
X132896171Y-100536428D01*
X132896171Y-100536428D02*
X132515219Y-100536428D01*
X133515219Y-100488809D02*
X133848552Y-100488809D01*
X133991409Y-101012619D02*
X133515219Y-101012619D01*
X133515219Y-101012619D02*
X133515219Y-100012619D01*
X133515219Y-100012619D02*
X133991409Y-100012619D01*
X134277124Y-100012619D02*
X134610457Y-101012619D01*
X134610457Y-101012619D02*
X134943790Y-100012619D01*
X135991410Y-100726904D02*
X136467600Y-100726904D01*
X135896172Y-101012619D02*
X136229505Y-100012619D01*
X136229505Y-100012619D02*
X136562838Y-101012619D01*
X123125238Y-80911009D02*
X123268095Y-80958628D01*
X123268095Y-80958628D02*
X123315714Y-81006247D01*
X123315714Y-81006247D02*
X123363333Y-81101485D01*
X123363333Y-81101485D02*
X123363333Y-81244342D01*
X123363333Y-81244342D02*
X123315714Y-81339580D01*
X123315714Y-81339580D02*
X123268095Y-81387200D01*
X123268095Y-81387200D02*
X123172857Y-81434819D01*
X123172857Y-81434819D02*
X122791905Y-81434819D01*
X122791905Y-81434819D02*
X122791905Y-80434819D01*
X122791905Y-80434819D02*
X123125238Y-80434819D01*
X123125238Y-80434819D02*
X123220476Y-80482438D01*
X123220476Y-80482438D02*
X123268095Y-80530057D01*
X123268095Y-80530057D02*
X123315714Y-80625295D01*
X123315714Y-80625295D02*
X123315714Y-80720533D01*
X123315714Y-80720533D02*
X123268095Y-80815771D01*
X123268095Y-80815771D02*
X123220476Y-80863390D01*
X123220476Y-80863390D02*
X123125238Y-80911009D01*
X123125238Y-80911009D02*
X122791905Y-80911009D01*
X123744286Y-80530057D02*
X123791905Y-80482438D01*
X123791905Y-80482438D02*
X123887143Y-80434819D01*
X123887143Y-80434819D02*
X124125238Y-80434819D01*
X124125238Y-80434819D02*
X124220476Y-80482438D01*
X124220476Y-80482438D02*
X124268095Y-80530057D01*
X124268095Y-80530057D02*
X124315714Y-80625295D01*
X124315714Y-80625295D02*
X124315714Y-80720533D01*
X124315714Y-80720533D02*
X124268095Y-80863390D01*
X124268095Y-80863390D02*
X123696667Y-81434819D01*
X123696667Y-81434819D02*
X124315714Y-81434819D01*
D11*
X123724064Y-110193082D02*
X123724064Y-109735939D01*
X123724064Y-109964511D02*
X124524064Y-109964511D01*
X124524064Y-109964511D02*
X124409779Y-109888320D01*
X124409779Y-109888320D02*
X124333588Y-109812130D01*
X124333588Y-109812130D02*
X124295493Y-109735939D01*
X124257398Y-110878797D02*
X123724064Y-110878797D01*
X124562160Y-110688321D02*
X123990731Y-110497844D01*
X123990731Y-110497844D02*
X123990731Y-110993083D01*
X123724064Y-112733082D02*
X123724064Y-112275939D01*
X123724064Y-112504511D02*
X124524064Y-112504511D01*
X124524064Y-112504511D02*
X124409779Y-112428320D01*
X124409779Y-112428320D02*
X124333588Y-112352130D01*
X124333588Y-112352130D02*
X124295493Y-112275939D01*
X124447874Y-113037844D02*
X124485969Y-113075940D01*
X124485969Y-113075940D02*
X124524064Y-113152130D01*
X124524064Y-113152130D02*
X124524064Y-113342606D01*
X124524064Y-113342606D02*
X124485969Y-113418797D01*
X124485969Y-113418797D02*
X124447874Y-113456892D01*
X124447874Y-113456892D02*
X124371683Y-113494987D01*
X124371683Y-113494987D02*
X124295493Y-113494987D01*
X124295493Y-113494987D02*
X124181207Y-113456892D01*
X124181207Y-113456892D02*
X123724064Y-112999749D01*
X123724064Y-112999749D02*
X123724064Y-113494987D01*
X124485969Y-115645476D02*
X124524064Y-115569286D01*
X124524064Y-115569286D02*
X124524064Y-115455000D01*
X124524064Y-115455000D02*
X124485969Y-115340714D01*
X124485969Y-115340714D02*
X124409779Y-115264524D01*
X124409779Y-115264524D02*
X124333588Y-115226429D01*
X124333588Y-115226429D02*
X124181207Y-115188333D01*
X124181207Y-115188333D02*
X124066921Y-115188333D01*
X124066921Y-115188333D02*
X123914540Y-115226429D01*
X123914540Y-115226429D02*
X123838350Y-115264524D01*
X123838350Y-115264524D02*
X123762160Y-115340714D01*
X123762160Y-115340714D02*
X123724064Y-115455000D01*
X123724064Y-115455000D02*
X123724064Y-115531191D01*
X123724064Y-115531191D02*
X123762160Y-115645476D01*
X123762160Y-115645476D02*
X123800255Y-115683572D01*
X123800255Y-115683572D02*
X124066921Y-115683572D01*
X124066921Y-115683572D02*
X124066921Y-115531191D01*
X123724064Y-116026429D02*
X124524064Y-116026429D01*
X124524064Y-116026429D02*
X123724064Y-116483572D01*
X123724064Y-116483572D02*
X124524064Y-116483572D01*
X123724064Y-116864524D02*
X124524064Y-116864524D01*
X124524064Y-116864524D02*
X124524064Y-117055000D01*
X124524064Y-117055000D02*
X124485969Y-117169286D01*
X124485969Y-117169286D02*
X124409779Y-117245476D01*
X124409779Y-117245476D02*
X124333588Y-117283571D01*
X124333588Y-117283571D02*
X124181207Y-117321667D01*
X124181207Y-117321667D02*
X124066921Y-117321667D01*
X124066921Y-117321667D02*
X123914540Y-117283571D01*
X123914540Y-117283571D02*
X123838350Y-117245476D01*
X123838350Y-117245476D02*
X123762160Y-117169286D01*
X123762160Y-117169286D02*
X123724064Y-117055000D01*
X123724064Y-117055000D02*
X123724064Y-116864524D01*
X123724064Y-118443082D02*
X123724064Y-117985939D01*
X123724064Y-118214511D02*
X124524064Y-118214511D01*
X124524064Y-118214511D02*
X124409779Y-118138320D01*
X124409779Y-118138320D02*
X124333588Y-118062130D01*
X124333588Y-118062130D02*
X124295493Y-117985939D01*
X124524064Y-118709749D02*
X124524064Y-119204987D01*
X124524064Y-119204987D02*
X124219302Y-118938321D01*
X124219302Y-118938321D02*
X124219302Y-119052606D01*
X124219302Y-119052606D02*
X124181207Y-119128797D01*
X124181207Y-119128797D02*
X124143112Y-119166892D01*
X124143112Y-119166892D02*
X124066921Y-119204987D01*
X124066921Y-119204987D02*
X123876445Y-119204987D01*
X123876445Y-119204987D02*
X123800255Y-119166892D01*
X123800255Y-119166892D02*
X123762160Y-119128797D01*
X123762160Y-119128797D02*
X123724064Y-119052606D01*
X123724064Y-119052606D02*
X123724064Y-118824035D01*
X123724064Y-118824035D02*
X123762160Y-118747844D01*
X123762160Y-118747844D02*
X123800255Y-118709749D01*
X123724064Y-120764035D02*
X123724064Y-120916416D01*
X123724064Y-120916416D02*
X123762160Y-120992606D01*
X123762160Y-120992606D02*
X123800255Y-121030702D01*
X123800255Y-121030702D02*
X123914540Y-121106892D01*
X123914540Y-121106892D02*
X124066921Y-121144987D01*
X124066921Y-121144987D02*
X124371683Y-121144987D01*
X124371683Y-121144987D02*
X124447874Y-121106892D01*
X124447874Y-121106892D02*
X124485969Y-121068797D01*
X124485969Y-121068797D02*
X124524064Y-120992606D01*
X124524064Y-120992606D02*
X124524064Y-120840225D01*
X124524064Y-120840225D02*
X124485969Y-120764035D01*
X124485969Y-120764035D02*
X124447874Y-120725940D01*
X124447874Y-120725940D02*
X124371683Y-120687844D01*
X124371683Y-120687844D02*
X124181207Y-120687844D01*
X124181207Y-120687844D02*
X124105017Y-120725940D01*
X124105017Y-120725940D02*
X124066921Y-120764035D01*
X124066921Y-120764035D02*
X124028826Y-120840225D01*
X124028826Y-120840225D02*
X124028826Y-120992606D01*
X124028826Y-120992606D02*
X124066921Y-121068797D01*
X124066921Y-121068797D02*
X124105017Y-121106892D01*
X124105017Y-121106892D02*
X124181207Y-121144987D01*
X123724064Y-122923082D02*
X123724064Y-122465939D01*
X123724064Y-122694511D02*
X124524064Y-122694511D01*
X124524064Y-122694511D02*
X124409779Y-122618320D01*
X124409779Y-122618320D02*
X124333588Y-122542130D01*
X124333588Y-122542130D02*
X124295493Y-122465939D01*
X124524064Y-123418321D02*
X124524064Y-123494511D01*
X124524064Y-123494511D02*
X124485969Y-123570702D01*
X124485969Y-123570702D02*
X124447874Y-123608797D01*
X124447874Y-123608797D02*
X124371683Y-123646892D01*
X124371683Y-123646892D02*
X124219302Y-123684987D01*
X124219302Y-123684987D02*
X124028826Y-123684987D01*
X124028826Y-123684987D02*
X123876445Y-123646892D01*
X123876445Y-123646892D02*
X123800255Y-123608797D01*
X123800255Y-123608797D02*
X123762160Y-123570702D01*
X123762160Y-123570702D02*
X123724064Y-123494511D01*
X123724064Y-123494511D02*
X123724064Y-123418321D01*
X123724064Y-123418321D02*
X123762160Y-123342130D01*
X123762160Y-123342130D02*
X123800255Y-123304035D01*
X123800255Y-123304035D02*
X123876445Y-123265940D01*
X123876445Y-123265940D02*
X124028826Y-123227844D01*
X124028826Y-123227844D02*
X124219302Y-123227844D01*
X124219302Y-123227844D02*
X124371683Y-123265940D01*
X124371683Y-123265940D02*
X124447874Y-123304035D01*
X124447874Y-123304035D02*
X124485969Y-123342130D01*
X124485969Y-123342130D02*
X124524064Y-123418321D01*
X123724064Y-125463082D02*
X123724064Y-125005939D01*
X123724064Y-125234511D02*
X124524064Y-125234511D01*
X124524064Y-125234511D02*
X124409779Y-125158320D01*
X124409779Y-125158320D02*
X124333588Y-125082130D01*
X124333588Y-125082130D02*
X124295493Y-125005939D01*
X123724064Y-126224987D02*
X123724064Y-125767844D01*
X123724064Y-125996416D02*
X124524064Y-125996416D01*
X124524064Y-125996416D02*
X124409779Y-125920225D01*
X124409779Y-125920225D02*
X124333588Y-125844035D01*
X124333588Y-125844035D02*
X124295493Y-125767844D01*
X124524064Y-129895238D02*
X123724064Y-130161905D01*
X123724064Y-130161905D02*
X124524064Y-130428571D01*
X123724064Y-130695238D02*
X124524064Y-130695238D01*
X123724064Y-131076190D02*
X124524064Y-131076190D01*
X124524064Y-131076190D02*
X123724064Y-131533333D01*
X123724064Y-131533333D02*
X124524064Y-131533333D01*
X123647874Y-131723809D02*
X123647874Y-132333332D01*
X124524064Y-132904761D02*
X124524064Y-132523809D01*
X124524064Y-132523809D02*
X124143112Y-132485713D01*
X124143112Y-132485713D02*
X124181207Y-132523809D01*
X124181207Y-132523809D02*
X124219302Y-132599999D01*
X124219302Y-132599999D02*
X124219302Y-132790475D01*
X124219302Y-132790475D02*
X124181207Y-132866666D01*
X124181207Y-132866666D02*
X124143112Y-132904761D01*
X124143112Y-132904761D02*
X124066921Y-132942856D01*
X124066921Y-132942856D02*
X123876445Y-132942856D01*
X123876445Y-132942856D02*
X123800255Y-132904761D01*
X123800255Y-132904761D02*
X123762160Y-132866666D01*
X123762160Y-132866666D02*
X123724064Y-132790475D01*
X123724064Y-132790475D02*
X123724064Y-132599999D01*
X123724064Y-132599999D02*
X123762160Y-132523809D01*
X123762160Y-132523809D02*
X123800255Y-132485713D01*
X124524064Y-133171428D02*
X123724064Y-133438095D01*
X123724064Y-133438095D02*
X124524064Y-133704761D01*
D10*
X124541905Y-85711009D02*
X124875238Y-85711009D01*
X125018095Y-86234819D02*
X124541905Y-86234819D01*
X124541905Y-86234819D02*
X124541905Y-85234819D01*
X124541905Y-85234819D02*
X125018095Y-85234819D01*
X125446667Y-86234819D02*
X125446667Y-85234819D01*
X125446667Y-85234819D02*
X126018095Y-86234819D01*
X126018095Y-86234819D02*
X126018095Y-85234819D01*
X124521499Y-87754819D02*
X125140546Y-87754819D01*
X125140546Y-87754819D02*
X124807213Y-88135771D01*
X124807213Y-88135771D02*
X124950070Y-88135771D01*
X124950070Y-88135771D02*
X125045308Y-88183390D01*
X125045308Y-88183390D02*
X125092927Y-88231009D01*
X125092927Y-88231009D02*
X125140546Y-88326247D01*
X125140546Y-88326247D02*
X125140546Y-88564342D01*
X125140546Y-88564342D02*
X125092927Y-88659580D01*
X125092927Y-88659580D02*
X125045308Y-88707200D01*
X125045308Y-88707200D02*
X124950070Y-88754819D01*
X124950070Y-88754819D02*
X124664356Y-88754819D01*
X124664356Y-88754819D02*
X124569118Y-88707200D01*
X124569118Y-88707200D02*
X124521499Y-88659580D01*
X125997689Y-87754819D02*
X125807213Y-87754819D01*
X125807213Y-87754819D02*
X125711975Y-87802438D01*
X125711975Y-87802438D02*
X125664356Y-87850057D01*
X125664356Y-87850057D02*
X125569118Y-87992914D01*
X125569118Y-87992914D02*
X125521499Y-88183390D01*
X125521499Y-88183390D02*
X125521499Y-88564342D01*
X125521499Y-88564342D02*
X125569118Y-88659580D01*
X125569118Y-88659580D02*
X125616737Y-88707200D01*
X125616737Y-88707200D02*
X125711975Y-88754819D01*
X125711975Y-88754819D02*
X125902451Y-88754819D01*
X125902451Y-88754819D02*
X125997689Y-88707200D01*
X125997689Y-88707200D02*
X126045308Y-88659580D01*
X126045308Y-88659580D02*
X126092927Y-88564342D01*
X126092927Y-88564342D02*
X126092927Y-88326247D01*
X126092927Y-88326247D02*
X126045308Y-88231009D01*
X126045308Y-88231009D02*
X125997689Y-88183390D01*
X125997689Y-88183390D02*
X125902451Y-88135771D01*
X125902451Y-88135771D02*
X125711975Y-88135771D01*
X125711975Y-88135771D02*
X125616737Y-88183390D01*
X125616737Y-88183390D02*
X125569118Y-88231009D01*
X125569118Y-88231009D02*
X125521499Y-88326247D01*
X124521499Y-90294819D02*
X125140546Y-90294819D01*
X125140546Y-90294819D02*
X124807213Y-90675771D01*
X124807213Y-90675771D02*
X124950070Y-90675771D01*
X124950070Y-90675771D02*
X125045308Y-90723390D01*
X125045308Y-90723390D02*
X125092927Y-90771009D01*
X125092927Y-90771009D02*
X125140546Y-90866247D01*
X125140546Y-90866247D02*
X125140546Y-91104342D01*
X125140546Y-91104342D02*
X125092927Y-91199580D01*
X125092927Y-91199580D02*
X125045308Y-91247200D01*
X125045308Y-91247200D02*
X124950070Y-91294819D01*
X124950070Y-91294819D02*
X124664356Y-91294819D01*
X124664356Y-91294819D02*
X124569118Y-91247200D01*
X124569118Y-91247200D02*
X124521499Y-91199580D01*
X125616737Y-91294819D02*
X125807213Y-91294819D01*
X125807213Y-91294819D02*
X125902451Y-91247200D01*
X125902451Y-91247200D02*
X125950070Y-91199580D01*
X125950070Y-91199580D02*
X126045308Y-91056723D01*
X126045308Y-91056723D02*
X126092927Y-90866247D01*
X126092927Y-90866247D02*
X126092927Y-90485295D01*
X126092927Y-90485295D02*
X126045308Y-90390057D01*
X126045308Y-90390057D02*
X125997689Y-90342438D01*
X125997689Y-90342438D02*
X125902451Y-90294819D01*
X125902451Y-90294819D02*
X125711975Y-90294819D01*
X125711975Y-90294819D02*
X125616737Y-90342438D01*
X125616737Y-90342438D02*
X125569118Y-90390057D01*
X125569118Y-90390057D02*
X125521499Y-90485295D01*
X125521499Y-90485295D02*
X125521499Y-90723390D01*
X125521499Y-90723390D02*
X125569118Y-90818628D01*
X125569118Y-90818628D02*
X125616737Y-90866247D01*
X125616737Y-90866247D02*
X125711975Y-90913866D01*
X125711975Y-90913866D02*
X125902451Y-90913866D01*
X125902451Y-90913866D02*
X125997689Y-90866247D01*
X125997689Y-90866247D02*
X126045308Y-90818628D01*
X126045308Y-90818628D02*
X126092927Y-90723390D01*
X124521499Y-92834819D02*
X125140546Y-92834819D01*
X125140546Y-92834819D02*
X124807213Y-93215771D01*
X124807213Y-93215771D02*
X124950070Y-93215771D01*
X124950070Y-93215771D02*
X125045308Y-93263390D01*
X125045308Y-93263390D02*
X125092927Y-93311009D01*
X125092927Y-93311009D02*
X125140546Y-93406247D01*
X125140546Y-93406247D02*
X125140546Y-93644342D01*
X125140546Y-93644342D02*
X125092927Y-93739580D01*
X125092927Y-93739580D02*
X125045308Y-93787200D01*
X125045308Y-93787200D02*
X124950070Y-93834819D01*
X124950070Y-93834819D02*
X124664356Y-93834819D01*
X124664356Y-93834819D02*
X124569118Y-93787200D01*
X124569118Y-93787200D02*
X124521499Y-93739580D01*
X125997689Y-93168152D02*
X125997689Y-93834819D01*
X125759594Y-92787200D02*
X125521499Y-93501485D01*
X125521499Y-93501485D02*
X126140546Y-93501485D01*
X124521499Y-95374819D02*
X125140546Y-95374819D01*
X125140546Y-95374819D02*
X124807213Y-95755771D01*
X124807213Y-95755771D02*
X124950070Y-95755771D01*
X124950070Y-95755771D02*
X125045308Y-95803390D01*
X125045308Y-95803390D02*
X125092927Y-95851009D01*
X125092927Y-95851009D02*
X125140546Y-95946247D01*
X125140546Y-95946247D02*
X125140546Y-96184342D01*
X125140546Y-96184342D02*
X125092927Y-96279580D01*
X125092927Y-96279580D02*
X125045308Y-96327200D01*
X125045308Y-96327200D02*
X124950070Y-96374819D01*
X124950070Y-96374819D02*
X124664356Y-96374819D01*
X124664356Y-96374819D02*
X124569118Y-96327200D01*
X124569118Y-96327200D02*
X124521499Y-96279580D01*
X126045308Y-95374819D02*
X125569118Y-95374819D01*
X125569118Y-95374819D02*
X125521499Y-95851009D01*
X125521499Y-95851009D02*
X125569118Y-95803390D01*
X125569118Y-95803390D02*
X125664356Y-95755771D01*
X125664356Y-95755771D02*
X125902451Y-95755771D01*
X125902451Y-95755771D02*
X125997689Y-95803390D01*
X125997689Y-95803390D02*
X126045308Y-95851009D01*
X126045308Y-95851009D02*
X126092927Y-95946247D01*
X126092927Y-95946247D02*
X126092927Y-96184342D01*
X126092927Y-96184342D02*
X126045308Y-96279580D01*
X126045308Y-96279580D02*
X125997689Y-96327200D01*
X125997689Y-96327200D02*
X125902451Y-96374819D01*
X125902451Y-96374819D02*
X125664356Y-96374819D01*
X125664356Y-96374819D02*
X125569118Y-96327200D01*
X125569118Y-96327200D02*
X125521499Y-96279580D01*
X124521499Y-97914819D02*
X125140546Y-97914819D01*
X125140546Y-97914819D02*
X124807213Y-98295771D01*
X124807213Y-98295771D02*
X124950070Y-98295771D01*
X124950070Y-98295771D02*
X125045308Y-98343390D01*
X125045308Y-98343390D02*
X125092927Y-98391009D01*
X125092927Y-98391009D02*
X125140546Y-98486247D01*
X125140546Y-98486247D02*
X125140546Y-98724342D01*
X125140546Y-98724342D02*
X125092927Y-98819580D01*
X125092927Y-98819580D02*
X125045308Y-98867200D01*
X125045308Y-98867200D02*
X124950070Y-98914819D01*
X124950070Y-98914819D02*
X124664356Y-98914819D01*
X124664356Y-98914819D02*
X124569118Y-98867200D01*
X124569118Y-98867200D02*
X124521499Y-98819580D01*
X125521499Y-98010057D02*
X125569118Y-97962438D01*
X125569118Y-97962438D02*
X125664356Y-97914819D01*
X125664356Y-97914819D02*
X125902451Y-97914819D01*
X125902451Y-97914819D02*
X125997689Y-97962438D01*
X125997689Y-97962438D02*
X126045308Y-98010057D01*
X126045308Y-98010057D02*
X126092927Y-98105295D01*
X126092927Y-98105295D02*
X126092927Y-98200533D01*
X126092927Y-98200533D02*
X126045308Y-98343390D01*
X126045308Y-98343390D02*
X125473880Y-98914819D01*
X125473880Y-98914819D02*
X126092927Y-98914819D01*
X124521499Y-100454819D02*
X125140546Y-100454819D01*
X125140546Y-100454819D02*
X124807213Y-100835771D01*
X124807213Y-100835771D02*
X124950070Y-100835771D01*
X124950070Y-100835771D02*
X125045308Y-100883390D01*
X125045308Y-100883390D02*
X125092927Y-100931009D01*
X125092927Y-100931009D02*
X125140546Y-101026247D01*
X125140546Y-101026247D02*
X125140546Y-101264342D01*
X125140546Y-101264342D02*
X125092927Y-101359580D01*
X125092927Y-101359580D02*
X125045308Y-101407200D01*
X125045308Y-101407200D02*
X124950070Y-101454819D01*
X124950070Y-101454819D02*
X124664356Y-101454819D01*
X124664356Y-101454819D02*
X124569118Y-101407200D01*
X124569118Y-101407200D02*
X124521499Y-101359580D01*
X125473880Y-100454819D02*
X126092927Y-100454819D01*
X126092927Y-100454819D02*
X125759594Y-100835771D01*
X125759594Y-100835771D02*
X125902451Y-100835771D01*
X125902451Y-100835771D02*
X125997689Y-100883390D01*
X125997689Y-100883390D02*
X126045308Y-100931009D01*
X126045308Y-100931009D02*
X126092927Y-101026247D01*
X126092927Y-101026247D02*
X126092927Y-101264342D01*
X126092927Y-101264342D02*
X126045308Y-101359580D01*
X126045308Y-101359580D02*
X125997689Y-101407200D01*
X125997689Y-101407200D02*
X125902451Y-101454819D01*
X125902451Y-101454819D02*
X125616737Y-101454819D01*
X125616737Y-101454819D02*
X125521499Y-101407200D01*
X125521499Y-101407200D02*
X125473880Y-101359580D01*
X124569118Y-103090057D02*
X124616737Y-103042438D01*
X124616737Y-103042438D02*
X124711975Y-102994819D01*
X124711975Y-102994819D02*
X124950070Y-102994819D01*
X124950070Y-102994819D02*
X125045308Y-103042438D01*
X125045308Y-103042438D02*
X125092927Y-103090057D01*
X125092927Y-103090057D02*
X125140546Y-103185295D01*
X125140546Y-103185295D02*
X125140546Y-103280533D01*
X125140546Y-103280533D02*
X125092927Y-103423390D01*
X125092927Y-103423390D02*
X124521499Y-103994819D01*
X124521499Y-103994819D02*
X125140546Y-103994819D01*
X126045308Y-102994819D02*
X125569118Y-102994819D01*
X125569118Y-102994819D02*
X125521499Y-103471009D01*
X125521499Y-103471009D02*
X125569118Y-103423390D01*
X125569118Y-103423390D02*
X125664356Y-103375771D01*
X125664356Y-103375771D02*
X125902451Y-103375771D01*
X125902451Y-103375771D02*
X125997689Y-103423390D01*
X125997689Y-103423390D02*
X126045308Y-103471009D01*
X126045308Y-103471009D02*
X126092927Y-103566247D01*
X126092927Y-103566247D02*
X126092927Y-103804342D01*
X126092927Y-103804342D02*
X126045308Y-103899580D01*
X126045308Y-103899580D02*
X125997689Y-103947200D01*
X125997689Y-103947200D02*
X125902451Y-103994819D01*
X125902451Y-103994819D02*
X125664356Y-103994819D01*
X125664356Y-103994819D02*
X125569118Y-103947200D01*
X125569118Y-103947200D02*
X125521499Y-103899580D01*
X124569118Y-105630057D02*
X124616737Y-105582438D01*
X124616737Y-105582438D02*
X124711975Y-105534819D01*
X124711975Y-105534819D02*
X124950070Y-105534819D01*
X124950070Y-105534819D02*
X125045308Y-105582438D01*
X125045308Y-105582438D02*
X125092927Y-105630057D01*
X125092927Y-105630057D02*
X125140546Y-105725295D01*
X125140546Y-105725295D02*
X125140546Y-105820533D01*
X125140546Y-105820533D02*
X125092927Y-105963390D01*
X125092927Y-105963390D02*
X124521499Y-106534819D01*
X124521499Y-106534819D02*
X125140546Y-106534819D01*
X125997689Y-105534819D02*
X125807213Y-105534819D01*
X125807213Y-105534819D02*
X125711975Y-105582438D01*
X125711975Y-105582438D02*
X125664356Y-105630057D01*
X125664356Y-105630057D02*
X125569118Y-105772914D01*
X125569118Y-105772914D02*
X125521499Y-105963390D01*
X125521499Y-105963390D02*
X125521499Y-106344342D01*
X125521499Y-106344342D02*
X125569118Y-106439580D01*
X125569118Y-106439580D02*
X125616737Y-106487200D01*
X125616737Y-106487200D02*
X125711975Y-106534819D01*
X125711975Y-106534819D02*
X125902451Y-106534819D01*
X125902451Y-106534819D02*
X125997689Y-106487200D01*
X125997689Y-106487200D02*
X126045308Y-106439580D01*
X126045308Y-106439580D02*
X126092927Y-106344342D01*
X126092927Y-106344342D02*
X126092927Y-106106247D01*
X126092927Y-106106247D02*
X126045308Y-106011009D01*
X126045308Y-106011009D02*
X125997689Y-105963390D01*
X125997689Y-105963390D02*
X125902451Y-105915771D01*
X125902451Y-105915771D02*
X125711975Y-105915771D01*
X125711975Y-105915771D02*
X125616737Y-105963390D01*
X125616737Y-105963390D02*
X125569118Y-106011009D01*
X125569118Y-106011009D02*
X125521499Y-106106247D01*
X124569118Y-108170057D02*
X124616737Y-108122438D01*
X124616737Y-108122438D02*
X124711975Y-108074819D01*
X124711975Y-108074819D02*
X124950070Y-108074819D01*
X124950070Y-108074819D02*
X125045308Y-108122438D01*
X125045308Y-108122438D02*
X125092927Y-108170057D01*
X125092927Y-108170057D02*
X125140546Y-108265295D01*
X125140546Y-108265295D02*
X125140546Y-108360533D01*
X125140546Y-108360533D02*
X125092927Y-108503390D01*
X125092927Y-108503390D02*
X124521499Y-109074819D01*
X124521499Y-109074819D02*
X125140546Y-109074819D01*
X125473880Y-108074819D02*
X126140546Y-108074819D01*
X126140546Y-108074819D02*
X125711975Y-109074819D01*
D12*
X124961905Y-92423855D02*
X124695238Y-92042902D01*
X124504762Y-92423855D02*
X124504762Y-91623855D01*
X124504762Y-91623855D02*
X124809524Y-91623855D01*
X124809524Y-91623855D02*
X124885714Y-91661950D01*
X124885714Y-91661950D02*
X124923809Y-91700045D01*
X124923809Y-91700045D02*
X124961905Y-91776236D01*
X124961905Y-91776236D02*
X124961905Y-91890521D01*
X124961905Y-91890521D02*
X124923809Y-91966712D01*
X124923809Y-91966712D02*
X124885714Y-92004807D01*
X124885714Y-92004807D02*
X124809524Y-92042902D01*
X124809524Y-92042902D02*
X124504762Y-92042902D01*
X125266666Y-92385760D02*
X125380952Y-92423855D01*
X125380952Y-92423855D02*
X125571428Y-92423855D01*
X125571428Y-92423855D02*
X125647619Y-92385760D01*
X125647619Y-92385760D02*
X125685714Y-92347664D01*
X125685714Y-92347664D02*
X125723809Y-92271474D01*
X125723809Y-92271474D02*
X125723809Y-92195283D01*
X125723809Y-92195283D02*
X125685714Y-92119093D01*
X125685714Y-92119093D02*
X125647619Y-92080998D01*
X125647619Y-92080998D02*
X125571428Y-92042902D01*
X125571428Y-92042902D02*
X125419047Y-92004807D01*
X125419047Y-92004807D02*
X125342857Y-91966712D01*
X125342857Y-91966712D02*
X125304762Y-91928617D01*
X125304762Y-91928617D02*
X125266666Y-91852426D01*
X125266666Y-91852426D02*
X125266666Y-91776236D01*
X125266666Y-91776236D02*
X125304762Y-91700045D01*
X125304762Y-91700045D02*
X125342857Y-91661950D01*
X125342857Y-91661950D02*
X125419047Y-91623855D01*
X125419047Y-91623855D02*
X125609524Y-91623855D01*
X125609524Y-91623855D02*
X125723809Y-91661950D01*
X125952381Y-91623855D02*
X126409524Y-91623855D01*
X126180952Y-92423855D02*
X126180952Y-91623855D01*
D10*
X124514762Y-82704819D02*
X124848095Y-83704819D01*
X124848095Y-83704819D02*
X125181428Y-82704819D01*
X125514762Y-83704819D02*
X125514762Y-82704819D01*
X125990952Y-83704819D02*
X125990952Y-82704819D01*
X125990952Y-82704819D02*
X126562380Y-83704819D01*
X126562380Y-83704819D02*
X126562380Y-82704819D01*
X126800476Y-83800057D02*
X127562380Y-83800057D01*
X127705238Y-82704819D02*
X128324285Y-82704819D01*
X128324285Y-82704819D02*
X127990952Y-83085771D01*
X127990952Y-83085771D02*
X128133809Y-83085771D01*
X128133809Y-83085771D02*
X128229047Y-83133390D01*
X128229047Y-83133390D02*
X128276666Y-83181009D01*
X128276666Y-83181009D02*
X128324285Y-83276247D01*
X128324285Y-83276247D02*
X128324285Y-83514342D01*
X128324285Y-83514342D02*
X128276666Y-83609580D01*
X128276666Y-83609580D02*
X128229047Y-83657200D01*
X128229047Y-83657200D02*
X128133809Y-83704819D01*
X128133809Y-83704819D02*
X127848095Y-83704819D01*
X127848095Y-83704819D02*
X127752857Y-83657200D01*
X127752857Y-83657200D02*
X127705238Y-83609580D01*
X128752857Y-83609580D02*
X128800476Y-83657200D01*
X128800476Y-83657200D02*
X128752857Y-83704819D01*
X128752857Y-83704819D02*
X128705238Y-83657200D01*
X128705238Y-83657200D02*
X128752857Y-83609580D01*
X128752857Y-83609580D02*
X128752857Y-83704819D01*
X129133809Y-82704819D02*
X129752856Y-82704819D01*
X129752856Y-82704819D02*
X129419523Y-83085771D01*
X129419523Y-83085771D02*
X129562380Y-83085771D01*
X129562380Y-83085771D02*
X129657618Y-83133390D01*
X129657618Y-83133390D02*
X129705237Y-83181009D01*
X129705237Y-83181009D02*
X129752856Y-83276247D01*
X129752856Y-83276247D02*
X129752856Y-83514342D01*
X129752856Y-83514342D02*
X129705237Y-83609580D01*
X129705237Y-83609580D02*
X129657618Y-83657200D01*
X129657618Y-83657200D02*
X129562380Y-83704819D01*
X129562380Y-83704819D02*
X129276666Y-83704819D01*
X129276666Y-83704819D02*
X129181428Y-83657200D01*
X129181428Y-83657200D02*
X129133809Y-83609580D01*
X130038571Y-82704819D02*
X130371904Y-83704819D01*
X130371904Y-83704819D02*
X130705237Y-82704819D01*
X142068095Y-82682438D02*
X141972857Y-82634819D01*
X141972857Y-82634819D02*
X141830000Y-82634819D01*
X141830000Y-82634819D02*
X141687143Y-82682438D01*
X141687143Y-82682438D02*
X141591905Y-82777676D01*
X141591905Y-82777676D02*
X141544286Y-82872914D01*
X141544286Y-82872914D02*
X141496667Y-83063390D01*
X141496667Y-83063390D02*
X141496667Y-83206247D01*
X141496667Y-83206247D02*
X141544286Y-83396723D01*
X141544286Y-83396723D02*
X141591905Y-83491961D01*
X141591905Y-83491961D02*
X141687143Y-83587200D01*
X141687143Y-83587200D02*
X141830000Y-83634819D01*
X141830000Y-83634819D02*
X141925238Y-83634819D01*
X141925238Y-83634819D02*
X142068095Y-83587200D01*
X142068095Y-83587200D02*
X142115714Y-83539580D01*
X142115714Y-83539580D02*
X142115714Y-83206247D01*
X142115714Y-83206247D02*
X141925238Y-83206247D01*
X142544286Y-83634819D02*
X142544286Y-82634819D01*
X142544286Y-82634819D02*
X143115714Y-83634819D01*
X143115714Y-83634819D02*
X143115714Y-82634819D01*
X143591905Y-83634819D02*
X143591905Y-82634819D01*
X143591905Y-82634819D02*
X143830000Y-82634819D01*
X143830000Y-82634819D02*
X143972857Y-82682438D01*
X143972857Y-82682438D02*
X144068095Y-82777676D01*
X144068095Y-82777676D02*
X144115714Y-82872914D01*
X144115714Y-82872914D02*
X144163333Y-83063390D01*
X144163333Y-83063390D02*
X144163333Y-83206247D01*
X144163333Y-83206247D02*
X144115714Y-83396723D01*
X144115714Y-83396723D02*
X144068095Y-83491961D01*
X144068095Y-83491961D02*
X143972857Y-83587200D01*
X143972857Y-83587200D02*
X143830000Y-83634819D01*
X143830000Y-83634819D02*
X143591905Y-83634819D01*
X142268095Y-97957438D02*
X142172857Y-97909819D01*
X142172857Y-97909819D02*
X142030000Y-97909819D01*
X142030000Y-97909819D02*
X141887143Y-97957438D01*
X141887143Y-97957438D02*
X141791905Y-98052676D01*
X141791905Y-98052676D02*
X141744286Y-98147914D01*
X141744286Y-98147914D02*
X141696667Y-98338390D01*
X141696667Y-98338390D02*
X141696667Y-98481247D01*
X141696667Y-98481247D02*
X141744286Y-98671723D01*
X141744286Y-98671723D02*
X141791905Y-98766961D01*
X141791905Y-98766961D02*
X141887143Y-98862200D01*
X141887143Y-98862200D02*
X142030000Y-98909819D01*
X142030000Y-98909819D02*
X142125238Y-98909819D01*
X142125238Y-98909819D02*
X142268095Y-98862200D01*
X142268095Y-98862200D02*
X142315714Y-98814580D01*
X142315714Y-98814580D02*
X142315714Y-98481247D01*
X142315714Y-98481247D02*
X142125238Y-98481247D01*
X142744286Y-98909819D02*
X142744286Y-97909819D01*
X142744286Y-97909819D02*
X143315714Y-98909819D01*
X143315714Y-98909819D02*
X143315714Y-97909819D01*
X143791905Y-98909819D02*
X143791905Y-97909819D01*
X143791905Y-97909819D02*
X144030000Y-97909819D01*
X144030000Y-97909819D02*
X144172857Y-97957438D01*
X144172857Y-97957438D02*
X144268095Y-98052676D01*
X144268095Y-98052676D02*
X144315714Y-98147914D01*
X144315714Y-98147914D02*
X144363333Y-98338390D01*
X144363333Y-98338390D02*
X144363333Y-98481247D01*
X144363333Y-98481247D02*
X144315714Y-98671723D01*
X144315714Y-98671723D02*
X144268095Y-98766961D01*
X144268095Y-98766961D02*
X144172857Y-98862200D01*
X144172857Y-98862200D02*
X144030000Y-98909819D01*
X144030000Y-98909819D02*
X143791905Y-98909819D01*
X142593095Y-85270057D02*
X142640714Y-85222438D01*
X142640714Y-85222438D02*
X142735952Y-85174819D01*
X142735952Y-85174819D02*
X142974047Y-85174819D01*
X142974047Y-85174819D02*
X143069285Y-85222438D01*
X143069285Y-85222438D02*
X143116904Y-85270057D01*
X143116904Y-85270057D02*
X143164523Y-85365295D01*
X143164523Y-85365295D02*
X143164523Y-85460533D01*
X143164523Y-85460533D02*
X143116904Y-85603390D01*
X143116904Y-85603390D02*
X142545476Y-86174819D01*
X142545476Y-86174819D02*
X143164523Y-86174819D01*
X143497857Y-85174819D02*
X144116904Y-85174819D01*
X144116904Y-85174819D02*
X143783571Y-85555771D01*
X143783571Y-85555771D02*
X143926428Y-85555771D01*
X143926428Y-85555771D02*
X144021666Y-85603390D01*
X144021666Y-85603390D02*
X144069285Y-85651009D01*
X144069285Y-85651009D02*
X144116904Y-85746247D01*
X144116904Y-85746247D02*
X144116904Y-85984342D01*
X144116904Y-85984342D02*
X144069285Y-86079580D01*
X144069285Y-86079580D02*
X144021666Y-86127200D01*
X144021666Y-86127200D02*
X143926428Y-86174819D01*
X143926428Y-86174819D02*
X143640714Y-86174819D01*
X143640714Y-86174819D02*
X143545476Y-86127200D01*
X143545476Y-86127200D02*
X143497857Y-86079580D01*
X142593095Y-87810057D02*
X142640714Y-87762438D01*
X142640714Y-87762438D02*
X142735952Y-87714819D01*
X142735952Y-87714819D02*
X142974047Y-87714819D01*
X142974047Y-87714819D02*
X143069285Y-87762438D01*
X143069285Y-87762438D02*
X143116904Y-87810057D01*
X143116904Y-87810057D02*
X143164523Y-87905295D01*
X143164523Y-87905295D02*
X143164523Y-88000533D01*
X143164523Y-88000533D02*
X143116904Y-88143390D01*
X143116904Y-88143390D02*
X142545476Y-88714819D01*
X142545476Y-88714819D02*
X143164523Y-88714819D01*
X143545476Y-87810057D02*
X143593095Y-87762438D01*
X143593095Y-87762438D02*
X143688333Y-87714819D01*
X143688333Y-87714819D02*
X143926428Y-87714819D01*
X143926428Y-87714819D02*
X144021666Y-87762438D01*
X144021666Y-87762438D02*
X144069285Y-87810057D01*
X144069285Y-87810057D02*
X144116904Y-87905295D01*
X144116904Y-87905295D02*
X144116904Y-88000533D01*
X144116904Y-88000533D02*
X144069285Y-88143390D01*
X144069285Y-88143390D02*
X143497857Y-88714819D01*
X143497857Y-88714819D02*
X144116904Y-88714819D01*
X143314523Y-109059819D02*
X142743095Y-109059819D01*
X143028809Y-109059819D02*
X143028809Y-108059819D01*
X143028809Y-108059819D02*
X142933571Y-108202676D01*
X142933571Y-108202676D02*
X142838333Y-108297914D01*
X142838333Y-108297914D02*
X142743095Y-108345533D01*
X143647857Y-108059819D02*
X144314523Y-108059819D01*
X144314523Y-108059819D02*
X143885952Y-109059819D01*
X143314523Y-111599819D02*
X142743095Y-111599819D01*
X143028809Y-111599819D02*
X143028809Y-110599819D01*
X143028809Y-110599819D02*
X142933571Y-110742676D01*
X142933571Y-110742676D02*
X142838333Y-110837914D01*
X142838333Y-110837914D02*
X142743095Y-110885533D01*
X144171666Y-110599819D02*
X143981190Y-110599819D01*
X143981190Y-110599819D02*
X143885952Y-110647438D01*
X143885952Y-110647438D02*
X143838333Y-110695057D01*
X143838333Y-110695057D02*
X143743095Y-110837914D01*
X143743095Y-110837914D02*
X143695476Y-111028390D01*
X143695476Y-111028390D02*
X143695476Y-111409342D01*
X143695476Y-111409342D02*
X143743095Y-111504580D01*
X143743095Y-111504580D02*
X143790714Y-111552200D01*
X143790714Y-111552200D02*
X143885952Y-111599819D01*
X143885952Y-111599819D02*
X144076428Y-111599819D01*
X144076428Y-111599819D02*
X144171666Y-111552200D01*
X144171666Y-111552200D02*
X144219285Y-111504580D01*
X144219285Y-111504580D02*
X144266904Y-111409342D01*
X144266904Y-111409342D02*
X144266904Y-111171247D01*
X144266904Y-111171247D02*
X144219285Y-111076009D01*
X144219285Y-111076009D02*
X144171666Y-111028390D01*
X144171666Y-111028390D02*
X144076428Y-110980771D01*
X144076428Y-110980771D02*
X143885952Y-110980771D01*
X143885952Y-110980771D02*
X143790714Y-111028390D01*
X143790714Y-111028390D02*
X143743095Y-111076009D01*
X143743095Y-111076009D02*
X143695476Y-111171247D01*
X143314523Y-121759819D02*
X142743095Y-121759819D01*
X143028809Y-121759819D02*
X143028809Y-120759819D01*
X143028809Y-120759819D02*
X142933571Y-120902676D01*
X142933571Y-120902676D02*
X142838333Y-120997914D01*
X142838333Y-120997914D02*
X142743095Y-121045533D01*
X144219285Y-120759819D02*
X143743095Y-120759819D01*
X143743095Y-120759819D02*
X143695476Y-121236009D01*
X143695476Y-121236009D02*
X143743095Y-121188390D01*
X143743095Y-121188390D02*
X143838333Y-121140771D01*
X143838333Y-121140771D02*
X144076428Y-121140771D01*
X144076428Y-121140771D02*
X144171666Y-121188390D01*
X144171666Y-121188390D02*
X144219285Y-121236009D01*
X144219285Y-121236009D02*
X144266904Y-121331247D01*
X144266904Y-121331247D02*
X144266904Y-121569342D01*
X144266904Y-121569342D02*
X144219285Y-121664580D01*
X144219285Y-121664580D02*
X144171666Y-121712200D01*
X144171666Y-121712200D02*
X144076428Y-121759819D01*
X144076428Y-121759819D02*
X143838333Y-121759819D01*
X143838333Y-121759819D02*
X143743095Y-121712200D01*
X143743095Y-121712200D02*
X143695476Y-121664580D01*
X142793095Y-95430057D02*
X142840714Y-95382438D01*
X142840714Y-95382438D02*
X142935952Y-95334819D01*
X142935952Y-95334819D02*
X143174047Y-95334819D01*
X143174047Y-95334819D02*
X143269285Y-95382438D01*
X143269285Y-95382438D02*
X143316904Y-95430057D01*
X143316904Y-95430057D02*
X143364523Y-95525295D01*
X143364523Y-95525295D02*
X143364523Y-95620533D01*
X143364523Y-95620533D02*
X143316904Y-95763390D01*
X143316904Y-95763390D02*
X142745476Y-96334819D01*
X142745476Y-96334819D02*
X143364523Y-96334819D01*
X144316904Y-96334819D02*
X143745476Y-96334819D01*
X144031190Y-96334819D02*
X144031190Y-95334819D01*
X144031190Y-95334819D02*
X143935952Y-95477676D01*
X143935952Y-95477676D02*
X143840714Y-95572914D01*
X143840714Y-95572914D02*
X143745476Y-95620533D01*
X143414523Y-101429819D02*
X142843095Y-101429819D01*
X143128809Y-101429819D02*
X143128809Y-100429819D01*
X143128809Y-100429819D02*
X143033571Y-100572676D01*
X143033571Y-100572676D02*
X142938333Y-100667914D01*
X142938333Y-100667914D02*
X142843095Y-100715533D01*
X143890714Y-101429819D02*
X144081190Y-101429819D01*
X144081190Y-101429819D02*
X144176428Y-101382200D01*
X144176428Y-101382200D02*
X144224047Y-101334580D01*
X144224047Y-101334580D02*
X144319285Y-101191723D01*
X144319285Y-101191723D02*
X144366904Y-101001247D01*
X144366904Y-101001247D02*
X144366904Y-100620295D01*
X144366904Y-100620295D02*
X144319285Y-100525057D01*
X144319285Y-100525057D02*
X144271666Y-100477438D01*
X144271666Y-100477438D02*
X144176428Y-100429819D01*
X144176428Y-100429819D02*
X143985952Y-100429819D01*
X143985952Y-100429819D02*
X143890714Y-100477438D01*
X143890714Y-100477438D02*
X143843095Y-100525057D01*
X143843095Y-100525057D02*
X143795476Y-100620295D01*
X143795476Y-100620295D02*
X143795476Y-100858390D01*
X143795476Y-100858390D02*
X143843095Y-100953628D01*
X143843095Y-100953628D02*
X143890714Y-101001247D01*
X143890714Y-101001247D02*
X143985952Y-101048866D01*
X143985952Y-101048866D02*
X144176428Y-101048866D01*
X144176428Y-101048866D02*
X144271666Y-101001247D01*
X144271666Y-101001247D02*
X144319285Y-100953628D01*
X144319285Y-100953628D02*
X144366904Y-100858390D01*
X143414523Y-103969819D02*
X142843095Y-103969819D01*
X143128809Y-103969819D02*
X143128809Y-102969819D01*
X143128809Y-102969819D02*
X143033571Y-103112676D01*
X143033571Y-103112676D02*
X142938333Y-103207914D01*
X142938333Y-103207914D02*
X142843095Y-103255533D01*
X143985952Y-103398390D02*
X143890714Y-103350771D01*
X143890714Y-103350771D02*
X143843095Y-103303152D01*
X143843095Y-103303152D02*
X143795476Y-103207914D01*
X143795476Y-103207914D02*
X143795476Y-103160295D01*
X143795476Y-103160295D02*
X143843095Y-103065057D01*
X143843095Y-103065057D02*
X143890714Y-103017438D01*
X143890714Y-103017438D02*
X143985952Y-102969819D01*
X143985952Y-102969819D02*
X144176428Y-102969819D01*
X144176428Y-102969819D02*
X144271666Y-103017438D01*
X144271666Y-103017438D02*
X144319285Y-103065057D01*
X144319285Y-103065057D02*
X144366904Y-103160295D01*
X144366904Y-103160295D02*
X144366904Y-103207914D01*
X144366904Y-103207914D02*
X144319285Y-103303152D01*
X144319285Y-103303152D02*
X144271666Y-103350771D01*
X144271666Y-103350771D02*
X144176428Y-103398390D01*
X144176428Y-103398390D02*
X143985952Y-103398390D01*
X143985952Y-103398390D02*
X143890714Y-103446009D01*
X143890714Y-103446009D02*
X143843095Y-103493628D01*
X143843095Y-103493628D02*
X143795476Y-103588866D01*
X143795476Y-103588866D02*
X143795476Y-103779342D01*
X143795476Y-103779342D02*
X143843095Y-103874580D01*
X143843095Y-103874580D02*
X143890714Y-103922200D01*
X143890714Y-103922200D02*
X143985952Y-103969819D01*
X143985952Y-103969819D02*
X144176428Y-103969819D01*
X144176428Y-103969819D02*
X144271666Y-103922200D01*
X144271666Y-103922200D02*
X144319285Y-103874580D01*
X144319285Y-103874580D02*
X144366904Y-103779342D01*
X144366904Y-103779342D02*
X144366904Y-103588866D01*
X144366904Y-103588866D02*
X144319285Y-103493628D01*
X144319285Y-103493628D02*
X144271666Y-103446009D01*
X144271666Y-103446009D02*
X144176428Y-103398390D01*
X144115714Y-91219819D02*
X143544286Y-91219819D01*
X143830000Y-91219819D02*
X143830000Y-90219819D01*
X143830000Y-90219819D02*
X143734762Y-90362676D01*
X143734762Y-90362676D02*
X143639524Y-90457914D01*
X143639524Y-90457914D02*
X143544286Y-90505533D01*
X143496667Y-92759819D02*
X144115714Y-92759819D01*
X144115714Y-92759819D02*
X143782381Y-93140771D01*
X143782381Y-93140771D02*
X143925238Y-93140771D01*
X143925238Y-93140771D02*
X144020476Y-93188390D01*
X144020476Y-93188390D02*
X144068095Y-93236009D01*
X144068095Y-93236009D02*
X144115714Y-93331247D01*
X144115714Y-93331247D02*
X144115714Y-93569342D01*
X144115714Y-93569342D02*
X144068095Y-93664580D01*
X144068095Y-93664580D02*
X144020476Y-93712200D01*
X144020476Y-93712200D02*
X143925238Y-93759819D01*
X143925238Y-93759819D02*
X143639524Y-93759819D01*
X143639524Y-93759819D02*
X143544286Y-93712200D01*
X143544286Y-93712200D02*
X143496667Y-93664580D01*
X144118095Y-105509819D02*
X143641905Y-105509819D01*
X143641905Y-105509819D02*
X143594286Y-105986009D01*
X143594286Y-105986009D02*
X143641905Y-105938390D01*
X143641905Y-105938390D02*
X143737143Y-105890771D01*
X143737143Y-105890771D02*
X143975238Y-105890771D01*
X143975238Y-105890771D02*
X144070476Y-105938390D01*
X144070476Y-105938390D02*
X144118095Y-105986009D01*
X144118095Y-105986009D02*
X144165714Y-106081247D01*
X144165714Y-106081247D02*
X144165714Y-106319342D01*
X144165714Y-106319342D02*
X144118095Y-106414580D01*
X144118095Y-106414580D02*
X144070476Y-106462200D01*
X144070476Y-106462200D02*
X143975238Y-106509819D01*
X143975238Y-106509819D02*
X143737143Y-106509819D01*
X143737143Y-106509819D02*
X143641905Y-106462200D01*
X143641905Y-106462200D02*
X143594286Y-106414580D01*
X143784762Y-123673390D02*
X143689524Y-123625771D01*
X143689524Y-123625771D02*
X143641905Y-123578152D01*
X143641905Y-123578152D02*
X143594286Y-123482914D01*
X143594286Y-123482914D02*
X143594286Y-123435295D01*
X143594286Y-123435295D02*
X143641905Y-123340057D01*
X143641905Y-123340057D02*
X143689524Y-123292438D01*
X143689524Y-123292438D02*
X143784762Y-123244819D01*
X143784762Y-123244819D02*
X143975238Y-123244819D01*
X143975238Y-123244819D02*
X144070476Y-123292438D01*
X144070476Y-123292438D02*
X144118095Y-123340057D01*
X144118095Y-123340057D02*
X144165714Y-123435295D01*
X144165714Y-123435295D02*
X144165714Y-123482914D01*
X144165714Y-123482914D02*
X144118095Y-123578152D01*
X144118095Y-123578152D02*
X144070476Y-123625771D01*
X144070476Y-123625771D02*
X143975238Y-123673390D01*
X143975238Y-123673390D02*
X143784762Y-123673390D01*
X143784762Y-123673390D02*
X143689524Y-123721009D01*
X143689524Y-123721009D02*
X143641905Y-123768628D01*
X143641905Y-123768628D02*
X143594286Y-123863866D01*
X143594286Y-123863866D02*
X143594286Y-124054342D01*
X143594286Y-124054342D02*
X143641905Y-124149580D01*
X143641905Y-124149580D02*
X143689524Y-124197200D01*
X143689524Y-124197200D02*
X143784762Y-124244819D01*
X143784762Y-124244819D02*
X143975238Y-124244819D01*
X143975238Y-124244819D02*
X144070476Y-124197200D01*
X144070476Y-124197200D02*
X144118095Y-124149580D01*
X144118095Y-124149580D02*
X144165714Y-124054342D01*
X144165714Y-124054342D02*
X144165714Y-123863866D01*
X144165714Y-123863866D02*
X144118095Y-123768628D01*
X144118095Y-123768628D02*
X144070476Y-123721009D01*
X144070476Y-123721009D02*
X143975238Y-123673390D01*
X143546667Y-125784819D02*
X144213333Y-125784819D01*
X144213333Y-125784819D02*
X143784762Y-126784819D01*
X144070476Y-128359819D02*
X143880000Y-128359819D01*
X143880000Y-128359819D02*
X143784762Y-128407438D01*
X143784762Y-128407438D02*
X143737143Y-128455057D01*
X143737143Y-128455057D02*
X143641905Y-128597914D01*
X143641905Y-128597914D02*
X143594286Y-128788390D01*
X143594286Y-128788390D02*
X143594286Y-129169342D01*
X143594286Y-129169342D02*
X143641905Y-129264580D01*
X143641905Y-129264580D02*
X143689524Y-129312200D01*
X143689524Y-129312200D02*
X143784762Y-129359819D01*
X143784762Y-129359819D02*
X143975238Y-129359819D01*
X143975238Y-129359819D02*
X144070476Y-129312200D01*
X144070476Y-129312200D02*
X144118095Y-129264580D01*
X144118095Y-129264580D02*
X144165714Y-129169342D01*
X144165714Y-129169342D02*
X144165714Y-128931247D01*
X144165714Y-128931247D02*
X144118095Y-128836009D01*
X144118095Y-128836009D02*
X144070476Y-128788390D01*
X144070476Y-128788390D02*
X143975238Y-128740771D01*
X143975238Y-128740771D02*
X143784762Y-128740771D01*
X143784762Y-128740771D02*
X143689524Y-128788390D01*
X143689524Y-128788390D02*
X143641905Y-128836009D01*
X143641905Y-128836009D02*
X143594286Y-128931247D01*
X144120476Y-113438152D02*
X144120476Y-114104819D01*
X143882381Y-113057200D02*
X143644286Y-113771485D01*
X143644286Y-113771485D02*
X144263333Y-113771485D01*
X143882381Y-115644819D02*
X143977619Y-115644819D01*
X143977619Y-115644819D02*
X144072857Y-115692438D01*
X144072857Y-115692438D02*
X144120476Y-115740057D01*
X144120476Y-115740057D02*
X144168095Y-115835295D01*
X144168095Y-115835295D02*
X144215714Y-116025771D01*
X144215714Y-116025771D02*
X144215714Y-116263866D01*
X144215714Y-116263866D02*
X144168095Y-116454342D01*
X144168095Y-116454342D02*
X144120476Y-116549580D01*
X144120476Y-116549580D02*
X144072857Y-116597200D01*
X144072857Y-116597200D02*
X143977619Y-116644819D01*
X143977619Y-116644819D02*
X143882381Y-116644819D01*
X143882381Y-116644819D02*
X143787143Y-116597200D01*
X143787143Y-116597200D02*
X143739524Y-116549580D01*
X143739524Y-116549580D02*
X143691905Y-116454342D01*
X143691905Y-116454342D02*
X143644286Y-116263866D01*
X143644286Y-116263866D02*
X143644286Y-116025771D01*
X143644286Y-116025771D02*
X143691905Y-115835295D01*
X143691905Y-115835295D02*
X143739524Y-115740057D01*
X143739524Y-115740057D02*
X143787143Y-115692438D01*
X143787143Y-115692438D02*
X143882381Y-115644819D01*
X143644286Y-118280057D02*
X143691905Y-118232438D01*
X143691905Y-118232438D02*
X143787143Y-118184819D01*
X143787143Y-118184819D02*
X144025238Y-118184819D01*
X144025238Y-118184819D02*
X144120476Y-118232438D01*
X144120476Y-118232438D02*
X144168095Y-118280057D01*
X144168095Y-118280057D02*
X144215714Y-118375295D01*
X144215714Y-118375295D02*
X144215714Y-118470533D01*
X144215714Y-118470533D02*
X144168095Y-118613390D01*
X144168095Y-118613390D02*
X143596667Y-119184819D01*
X143596667Y-119184819D02*
X144215714Y-119184819D01*
D12*
X146028049Y-90498095D02*
X146066144Y-90421905D01*
X146066144Y-90421905D02*
X146066144Y-90307619D01*
X146066144Y-90307619D02*
X146028049Y-90193333D01*
X146028049Y-90193333D02*
X145951859Y-90117143D01*
X145951859Y-90117143D02*
X145875668Y-90079048D01*
X145875668Y-90079048D02*
X145723287Y-90040952D01*
X145723287Y-90040952D02*
X145609001Y-90040952D01*
X145609001Y-90040952D02*
X145456620Y-90079048D01*
X145456620Y-90079048D02*
X145380430Y-90117143D01*
X145380430Y-90117143D02*
X145304240Y-90193333D01*
X145304240Y-90193333D02*
X145266144Y-90307619D01*
X145266144Y-90307619D02*
X145266144Y-90383810D01*
X145266144Y-90383810D02*
X145304240Y-90498095D01*
X145304240Y-90498095D02*
X145342335Y-90536191D01*
X145342335Y-90536191D02*
X145609001Y-90536191D01*
X145609001Y-90536191D02*
X145609001Y-90383810D01*
X145266144Y-90879048D02*
X146066144Y-90879048D01*
X146066144Y-90879048D02*
X146066144Y-91183810D01*
X146066144Y-91183810D02*
X146028049Y-91260000D01*
X146028049Y-91260000D02*
X145989954Y-91298095D01*
X145989954Y-91298095D02*
X145913763Y-91336191D01*
X145913763Y-91336191D02*
X145799478Y-91336191D01*
X145799478Y-91336191D02*
X145723287Y-91298095D01*
X145723287Y-91298095D02*
X145685192Y-91260000D01*
X145685192Y-91260000D02*
X145647097Y-91183810D01*
X145647097Y-91183810D02*
X145647097Y-90879048D01*
X145266144Y-91679048D02*
X146066144Y-91679048D01*
X146066144Y-92212381D02*
X146066144Y-92364762D01*
X146066144Y-92364762D02*
X146028049Y-92440952D01*
X146028049Y-92440952D02*
X145951859Y-92517143D01*
X145951859Y-92517143D02*
X145799478Y-92555238D01*
X145799478Y-92555238D02*
X145532811Y-92555238D01*
X145532811Y-92555238D02*
X145380430Y-92517143D01*
X145380430Y-92517143D02*
X145304240Y-92440952D01*
X145304240Y-92440952D02*
X145266144Y-92364762D01*
X145266144Y-92364762D02*
X145266144Y-92212381D01*
X145266144Y-92212381D02*
X145304240Y-92136190D01*
X145304240Y-92136190D02*
X145380430Y-92060000D01*
X145380430Y-92060000D02*
X145532811Y-92021904D01*
X145532811Y-92021904D02*
X145799478Y-92021904D01*
X145799478Y-92021904D02*
X145951859Y-92060000D01*
X145951859Y-92060000D02*
X146028049Y-92136190D01*
X146028049Y-92136190D02*
X146066144Y-92212381D01*
X145799478Y-93240952D02*
X145266144Y-93240952D01*
X146104240Y-93050476D02*
X145532811Y-92859999D01*
X145532811Y-92859999D02*
X145532811Y-93355238D01*
X145799478Y-94002857D02*
X145266144Y-94002857D01*
X146104240Y-93812381D02*
X145532811Y-93621904D01*
X145532811Y-93621904D02*
X145532811Y-94117143D01*
X145799478Y-101991428D02*
X145266144Y-101991428D01*
X146104240Y-101800952D02*
X145532811Y-101610475D01*
X145532811Y-101610475D02*
X145532811Y-102105714D01*
X145266144Y-102829523D02*
X145266144Y-102372380D01*
X145266144Y-102600952D02*
X146066144Y-102600952D01*
X146066144Y-102600952D02*
X145951859Y-102524761D01*
X145951859Y-102524761D02*
X145875668Y-102448571D01*
X145875668Y-102448571D02*
X145837573Y-102372380D01*
X145799478Y-104531428D02*
X145266144Y-104531428D01*
X146104240Y-104340952D02*
X145532811Y-104150475D01*
X145532811Y-104150475D02*
X145532811Y-104645714D01*
X146066144Y-105102857D02*
X146066144Y-105179047D01*
X146066144Y-105179047D02*
X146028049Y-105255238D01*
X146028049Y-105255238D02*
X145989954Y-105293333D01*
X145989954Y-105293333D02*
X145913763Y-105331428D01*
X145913763Y-105331428D02*
X145761382Y-105369523D01*
X145761382Y-105369523D02*
X145570906Y-105369523D01*
X145570906Y-105369523D02*
X145418525Y-105331428D01*
X145418525Y-105331428D02*
X145342335Y-105293333D01*
X145342335Y-105293333D02*
X145304240Y-105255238D01*
X145304240Y-105255238D02*
X145266144Y-105179047D01*
X145266144Y-105179047D02*
X145266144Y-105102857D01*
X145266144Y-105102857D02*
X145304240Y-105026666D01*
X145304240Y-105026666D02*
X145342335Y-104988571D01*
X145342335Y-104988571D02*
X145418525Y-104950476D01*
X145418525Y-104950476D02*
X145570906Y-104912380D01*
X145570906Y-104912380D02*
X145761382Y-104912380D01*
X145761382Y-104912380D02*
X145913763Y-104950476D01*
X145913763Y-104950476D02*
X145989954Y-104988571D01*
X145989954Y-104988571D02*
X146028049Y-105026666D01*
X146028049Y-105026666D02*
X146066144Y-105102857D01*
X146028049Y-131138095D02*
X146066144Y-131061905D01*
X146066144Y-131061905D02*
X146066144Y-130947619D01*
X146066144Y-130947619D02*
X146028049Y-130833333D01*
X146028049Y-130833333D02*
X145951859Y-130757143D01*
X145951859Y-130757143D02*
X145875668Y-130719048D01*
X145875668Y-130719048D02*
X145723287Y-130680952D01*
X145723287Y-130680952D02*
X145609001Y-130680952D01*
X145609001Y-130680952D02*
X145456620Y-130719048D01*
X145456620Y-130719048D02*
X145380430Y-130757143D01*
X145380430Y-130757143D02*
X145304240Y-130833333D01*
X145304240Y-130833333D02*
X145266144Y-130947619D01*
X145266144Y-130947619D02*
X145266144Y-131023810D01*
X145266144Y-131023810D02*
X145304240Y-131138095D01*
X145304240Y-131138095D02*
X145342335Y-131176191D01*
X145342335Y-131176191D02*
X145609001Y-131176191D01*
X145609001Y-131176191D02*
X145609001Y-131023810D01*
X145266144Y-131519048D02*
X146066144Y-131519048D01*
X146066144Y-131519048D02*
X146066144Y-131823810D01*
X146066144Y-131823810D02*
X146028049Y-131900000D01*
X146028049Y-131900000D02*
X145989954Y-131938095D01*
X145989954Y-131938095D02*
X145913763Y-131976191D01*
X145913763Y-131976191D02*
X145799478Y-131976191D01*
X145799478Y-131976191D02*
X145723287Y-131938095D01*
X145723287Y-131938095D02*
X145685192Y-131900000D01*
X145685192Y-131900000D02*
X145647097Y-131823810D01*
X145647097Y-131823810D02*
X145647097Y-131519048D01*
X145266144Y-132319048D02*
X146066144Y-132319048D01*
X146066144Y-132852381D02*
X146066144Y-133004762D01*
X146066144Y-133004762D02*
X146028049Y-133080952D01*
X146028049Y-133080952D02*
X145951859Y-133157143D01*
X145951859Y-133157143D02*
X145799478Y-133195238D01*
X145799478Y-133195238D02*
X145532811Y-133195238D01*
X145532811Y-133195238D02*
X145380430Y-133157143D01*
X145380430Y-133157143D02*
X145304240Y-133080952D01*
X145304240Y-133080952D02*
X145266144Y-133004762D01*
X145266144Y-133004762D02*
X145266144Y-132852381D01*
X145266144Y-132852381D02*
X145304240Y-132776190D01*
X145304240Y-132776190D02*
X145380430Y-132700000D01*
X145380430Y-132700000D02*
X145532811Y-132661904D01*
X145532811Y-132661904D02*
X145799478Y-132661904D01*
X145799478Y-132661904D02*
X145951859Y-132700000D01*
X145951859Y-132700000D02*
X146028049Y-132776190D01*
X146028049Y-132776190D02*
X146066144Y-132852381D01*
X145989954Y-133499999D02*
X146028049Y-133538095D01*
X146028049Y-133538095D02*
X146066144Y-133614285D01*
X146066144Y-133614285D02*
X146066144Y-133804761D01*
X146066144Y-133804761D02*
X146028049Y-133880952D01*
X146028049Y-133880952D02*
X145989954Y-133919047D01*
X145989954Y-133919047D02*
X145913763Y-133957142D01*
X145913763Y-133957142D02*
X145837573Y-133957142D01*
X145837573Y-133957142D02*
X145723287Y-133919047D01*
X145723287Y-133919047D02*
X145266144Y-133461904D01*
X145266144Y-133461904D02*
X145266144Y-133957142D01*
X146066144Y-134452381D02*
X146066144Y-134528571D01*
X146066144Y-134528571D02*
X146028049Y-134604762D01*
X146028049Y-134604762D02*
X145989954Y-134642857D01*
X145989954Y-134642857D02*
X145913763Y-134680952D01*
X145913763Y-134680952D02*
X145761382Y-134719047D01*
X145761382Y-134719047D02*
X145570906Y-134719047D01*
X145570906Y-134719047D02*
X145418525Y-134680952D01*
X145418525Y-134680952D02*
X145342335Y-134642857D01*
X145342335Y-134642857D02*
X145304240Y-134604762D01*
X145304240Y-134604762D02*
X145266144Y-134528571D01*
X145266144Y-134528571D02*
X145266144Y-134452381D01*
X145266144Y-134452381D02*
X145304240Y-134376190D01*
X145304240Y-134376190D02*
X145342335Y-134338095D01*
X145342335Y-134338095D02*
X145418525Y-134300000D01*
X145418525Y-134300000D02*
X145570906Y-134261904D01*
X145570906Y-134261904D02*
X145761382Y-134261904D01*
X145761382Y-134261904D02*
X145913763Y-134300000D01*
X145913763Y-134300000D02*
X145989954Y-134338095D01*
X145989954Y-134338095D02*
X146028049Y-134376190D01*
X146028049Y-134376190D02*
X146066144Y-134452381D01*
X147148049Y-106288095D02*
X147186144Y-106211905D01*
X147186144Y-106211905D02*
X147186144Y-106097619D01*
X147186144Y-106097619D02*
X147148049Y-105983333D01*
X147148049Y-105983333D02*
X147071859Y-105907143D01*
X147071859Y-105907143D02*
X146995668Y-105869048D01*
X146995668Y-105869048D02*
X146843287Y-105830952D01*
X146843287Y-105830952D02*
X146729001Y-105830952D01*
X146729001Y-105830952D02*
X146576620Y-105869048D01*
X146576620Y-105869048D02*
X146500430Y-105907143D01*
X146500430Y-105907143D02*
X146424240Y-105983333D01*
X146424240Y-105983333D02*
X146386144Y-106097619D01*
X146386144Y-106097619D02*
X146386144Y-106173810D01*
X146386144Y-106173810D02*
X146424240Y-106288095D01*
X146424240Y-106288095D02*
X146462335Y-106326191D01*
X146462335Y-106326191D02*
X146729001Y-106326191D01*
X146729001Y-106326191D02*
X146729001Y-106173810D01*
X146386144Y-106669048D02*
X147186144Y-106669048D01*
X147186144Y-106669048D02*
X147186144Y-106973810D01*
X147186144Y-106973810D02*
X147148049Y-107050000D01*
X147148049Y-107050000D02*
X147109954Y-107088095D01*
X147109954Y-107088095D02*
X147033763Y-107126191D01*
X147033763Y-107126191D02*
X146919478Y-107126191D01*
X146919478Y-107126191D02*
X146843287Y-107088095D01*
X146843287Y-107088095D02*
X146805192Y-107050000D01*
X146805192Y-107050000D02*
X146767097Y-106973810D01*
X146767097Y-106973810D02*
X146767097Y-106669048D01*
X146386144Y-107469048D02*
X147186144Y-107469048D01*
X147186144Y-108002381D02*
X147186144Y-108154762D01*
X147186144Y-108154762D02*
X147148049Y-108230952D01*
X147148049Y-108230952D02*
X147071859Y-108307143D01*
X147071859Y-108307143D02*
X146919478Y-108345238D01*
X146919478Y-108345238D02*
X146652811Y-108345238D01*
X146652811Y-108345238D02*
X146500430Y-108307143D01*
X146500430Y-108307143D02*
X146424240Y-108230952D01*
X146424240Y-108230952D02*
X146386144Y-108154762D01*
X146386144Y-108154762D02*
X146386144Y-108002381D01*
X146386144Y-108002381D02*
X146424240Y-107926190D01*
X146424240Y-107926190D02*
X146500430Y-107850000D01*
X146500430Y-107850000D02*
X146652811Y-107811904D01*
X146652811Y-107811904D02*
X146919478Y-107811904D01*
X146919478Y-107811904D02*
X147071859Y-107850000D01*
X147071859Y-107850000D02*
X147148049Y-107926190D01*
X147148049Y-107926190D02*
X147186144Y-108002381D01*
X147186144Y-108611904D02*
X147186144Y-109107142D01*
X147186144Y-109107142D02*
X146881382Y-108840476D01*
X146881382Y-108840476D02*
X146881382Y-108954761D01*
X146881382Y-108954761D02*
X146843287Y-109030952D01*
X146843287Y-109030952D02*
X146805192Y-109069047D01*
X146805192Y-109069047D02*
X146729001Y-109107142D01*
X146729001Y-109107142D02*
X146538525Y-109107142D01*
X146538525Y-109107142D02*
X146462335Y-109069047D01*
X146462335Y-109069047D02*
X146424240Y-109030952D01*
X146424240Y-109030952D02*
X146386144Y-108954761D01*
X146386144Y-108954761D02*
X146386144Y-108726190D01*
X146386144Y-108726190D02*
X146424240Y-108649999D01*
X146424240Y-108649999D02*
X146462335Y-108611904D01*
X146843287Y-109564285D02*
X146881382Y-109488095D01*
X146881382Y-109488095D02*
X146919478Y-109450000D01*
X146919478Y-109450000D02*
X146995668Y-109411904D01*
X146995668Y-109411904D02*
X147033763Y-109411904D01*
X147033763Y-109411904D02*
X147109954Y-109450000D01*
X147109954Y-109450000D02*
X147148049Y-109488095D01*
X147148049Y-109488095D02*
X147186144Y-109564285D01*
X147186144Y-109564285D02*
X147186144Y-109716666D01*
X147186144Y-109716666D02*
X147148049Y-109792857D01*
X147148049Y-109792857D02*
X147109954Y-109830952D01*
X147109954Y-109830952D02*
X147033763Y-109869047D01*
X147033763Y-109869047D02*
X146995668Y-109869047D01*
X146995668Y-109869047D02*
X146919478Y-109830952D01*
X146919478Y-109830952D02*
X146881382Y-109792857D01*
X146881382Y-109792857D02*
X146843287Y-109716666D01*
X146843287Y-109716666D02*
X146843287Y-109564285D01*
X146843287Y-109564285D02*
X146805192Y-109488095D01*
X146805192Y-109488095D02*
X146767097Y-109450000D01*
X146767097Y-109450000D02*
X146690906Y-109411904D01*
X146690906Y-109411904D02*
X146538525Y-109411904D01*
X146538525Y-109411904D02*
X146462335Y-109450000D01*
X146462335Y-109450000D02*
X146424240Y-109488095D01*
X146424240Y-109488095D02*
X146386144Y-109564285D01*
X146386144Y-109564285D02*
X146386144Y-109716666D01*
X146386144Y-109716666D02*
X146424240Y-109792857D01*
X146424240Y-109792857D02*
X146462335Y-109830952D01*
X146462335Y-109830952D02*
X146538525Y-109869047D01*
X146538525Y-109869047D02*
X146690906Y-109869047D01*
X146690906Y-109869047D02*
X146767097Y-109830952D01*
X146767097Y-109830952D02*
X146805192Y-109792857D01*
X146805192Y-109792857D02*
X146843287Y-109716666D01*
X146919478Y-124851428D02*
X146386144Y-124851428D01*
X147224240Y-124660952D02*
X146652811Y-124470475D01*
X146652811Y-124470475D02*
X146652811Y-124965714D01*
X146843287Y-125384761D02*
X146881382Y-125308571D01*
X146881382Y-125308571D02*
X146919478Y-125270476D01*
X146919478Y-125270476D02*
X146995668Y-125232380D01*
X146995668Y-125232380D02*
X147033763Y-125232380D01*
X147033763Y-125232380D02*
X147109954Y-125270476D01*
X147109954Y-125270476D02*
X147148049Y-125308571D01*
X147148049Y-125308571D02*
X147186144Y-125384761D01*
X147186144Y-125384761D02*
X147186144Y-125537142D01*
X147186144Y-125537142D02*
X147148049Y-125613333D01*
X147148049Y-125613333D02*
X147109954Y-125651428D01*
X147109954Y-125651428D02*
X147033763Y-125689523D01*
X147033763Y-125689523D02*
X146995668Y-125689523D01*
X146995668Y-125689523D02*
X146919478Y-125651428D01*
X146919478Y-125651428D02*
X146881382Y-125613333D01*
X146881382Y-125613333D02*
X146843287Y-125537142D01*
X146843287Y-125537142D02*
X146843287Y-125384761D01*
X146843287Y-125384761D02*
X146805192Y-125308571D01*
X146805192Y-125308571D02*
X146767097Y-125270476D01*
X146767097Y-125270476D02*
X146690906Y-125232380D01*
X146690906Y-125232380D02*
X146538525Y-125232380D01*
X146538525Y-125232380D02*
X146462335Y-125270476D01*
X146462335Y-125270476D02*
X146424240Y-125308571D01*
X146424240Y-125308571D02*
X146386144Y-125384761D01*
X146386144Y-125384761D02*
X146386144Y-125537142D01*
X146386144Y-125537142D02*
X146424240Y-125613333D01*
X146424240Y-125613333D02*
X146462335Y-125651428D01*
X146462335Y-125651428D02*
X146538525Y-125689523D01*
X146538525Y-125689523D02*
X146690906Y-125689523D01*
X146690906Y-125689523D02*
X146767097Y-125651428D01*
X146767097Y-125651428D02*
X146805192Y-125613333D01*
X146805192Y-125613333D02*
X146843287Y-125537142D01*
X146919478Y-127391428D02*
X146386144Y-127391428D01*
X147224240Y-127200952D02*
X146652811Y-127010475D01*
X146652811Y-127010475D02*
X146652811Y-127505714D01*
X147186144Y-127734285D02*
X147186144Y-128267619D01*
X147186144Y-128267619D02*
X146386144Y-127924761D01*
D13*
%TO.C,G\u002A\u002A\u002A*%
G36*
X134936998Y-89958019D02*
G01*
X135362912Y-90008170D01*
X135777747Y-90094314D01*
X136179390Y-90215471D01*
X136565729Y-90370658D01*
X136934648Y-90558896D01*
X137284036Y-90779202D01*
X137611778Y-91030595D01*
X137915762Y-91312093D01*
X137966933Y-91364981D01*
X138246794Y-91686453D01*
X138493600Y-92026715D01*
X138706958Y-92383485D01*
X138886473Y-92754481D01*
X139031754Y-93137422D01*
X139142405Y-93530024D01*
X139218034Y-93930006D01*
X139258247Y-94335085D01*
X139262650Y-94742980D01*
X139230851Y-95151409D01*
X139162455Y-95558089D01*
X139057070Y-95960738D01*
X138914301Y-96357074D01*
X138852424Y-96500549D01*
X138661025Y-96878410D01*
X138437469Y-97234250D01*
X138181235Y-97568824D01*
X137912230Y-97862480D01*
X137597372Y-98152566D01*
X137263738Y-98408622D01*
X136909652Y-98631754D01*
X136533440Y-98823067D01*
X136319846Y-98913794D01*
X135935799Y-99045897D01*
X135536977Y-99143902D01*
X135128985Y-99207053D01*
X134717429Y-99234592D01*
X134307914Y-99225762D01*
X134127161Y-99209871D01*
X133731865Y-99149001D01*
X133339640Y-99053961D01*
X132956804Y-98926932D01*
X132589675Y-98770097D01*
X132244571Y-98585637D01*
X132148384Y-98526573D01*
X131849596Y-98318194D01*
X131558711Y-98078376D01*
X131282544Y-97813922D01*
X131027908Y-97531635D01*
X130801616Y-97238319D01*
X130686946Y-97067258D01*
X130480874Y-96705791D01*
X130310071Y-96330154D01*
X130174518Y-95942965D01*
X130074198Y-95546841D01*
X130009091Y-95144400D01*
X129979179Y-94738259D01*
X129980924Y-94603262D01*
X130105079Y-94603262D01*
X130110110Y-94835347D01*
X130124141Y-95053743D01*
X130143971Y-95224600D01*
X130224908Y-95641257D01*
X130341777Y-96044089D01*
X130493515Y-96431302D01*
X130679060Y-96801101D01*
X130897349Y-97151689D01*
X131147319Y-97481272D01*
X131427909Y-97788053D01*
X131738056Y-98070239D01*
X131906984Y-98203889D01*
X132195946Y-98402237D01*
X132512009Y-98583646D01*
X132845083Y-98743169D01*
X133185080Y-98875857D01*
X133438286Y-98954714D01*
X133593430Y-98992887D01*
X133766776Y-99027648D01*
X133949791Y-99057926D01*
X134133939Y-99082646D01*
X134310688Y-99100734D01*
X134471502Y-99111117D01*
X134607847Y-99112722D01*
X134668846Y-99109514D01*
X134711876Y-99106645D01*
X134783325Y-99102710D01*
X134872571Y-99098268D01*
X134952154Y-99094614D01*
X135220522Y-99070742D01*
X135507546Y-99023120D01*
X135802635Y-98953910D01*
X136095197Y-98865274D01*
X136124461Y-98855233D01*
X136234299Y-98812796D01*
X136368128Y-98754332D01*
X136516755Y-98684445D01*
X136670984Y-98607742D01*
X136821620Y-98528826D01*
X136959469Y-98452302D01*
X137075337Y-98382775D01*
X137101384Y-98365980D01*
X137439992Y-98120437D01*
X137751770Y-97847326D01*
X138035490Y-97548600D01*
X138289927Y-97226213D01*
X138513852Y-96882118D01*
X138706040Y-96518267D01*
X138865263Y-96136614D01*
X138990295Y-95739112D01*
X139079908Y-95327714D01*
X139102794Y-95179966D01*
X139119937Y-95014436D01*
X139130269Y-94822252D01*
X139133856Y-94615229D01*
X139130767Y-94405177D01*
X139121069Y-94203913D01*
X139104828Y-94023247D01*
X139095815Y-93954600D01*
X139029974Y-93597140D01*
X138939122Y-93258106D01*
X138819595Y-92925635D01*
X138683989Y-92621213D01*
X138484038Y-92251610D01*
X138254098Y-91906163D01*
X137995837Y-91586118D01*
X137710924Y-91292723D01*
X137401027Y-91027223D01*
X137067815Y-90790867D01*
X136712955Y-90584899D01*
X136338117Y-90410568D01*
X135944968Y-90269120D01*
X135535176Y-90161801D01*
X135342923Y-90124478D01*
X135154486Y-90099177D01*
X134939281Y-90082672D01*
X134708578Y-90074963D01*
X134473645Y-90076050D01*
X134245752Y-90085932D01*
X134036166Y-90104610D01*
X133897077Y-90124510D01*
X133477963Y-90216137D01*
X133075212Y-90342381D01*
X132690242Y-90502511D01*
X132324475Y-90695799D01*
X131979328Y-90921514D01*
X131656222Y-91178926D01*
X131427717Y-91393855D01*
X131139072Y-91711776D01*
X130884903Y-92047998D01*
X130665435Y-92402069D01*
X130480896Y-92773537D01*
X130331513Y-93161947D01*
X130217513Y-93566847D01*
X130143985Y-93954163D01*
X130122017Y-94149741D01*
X130109048Y-94370417D01*
X130105079Y-94603262D01*
X129980924Y-94603262D01*
X129984443Y-94331035D01*
X130024866Y-93925347D01*
X130100428Y-93523810D01*
X130211111Y-93129044D01*
X130356897Y-92743665D01*
X130537767Y-92370291D01*
X130722279Y-92059369D01*
X130965844Y-91718626D01*
X131236832Y-91404120D01*
X131532905Y-91117014D01*
X131851728Y-90858476D01*
X132190965Y-90629667D01*
X132548279Y-90431755D01*
X132921334Y-90265903D01*
X133307795Y-90133276D01*
X133705324Y-90035039D01*
X134111587Y-89972356D01*
X134524245Y-89946393D01*
X134936998Y-89958019D01*
G37*
G36*
X135001344Y-90777139D02*
G01*
X135365143Y-90826931D01*
X135715661Y-90911133D01*
X136057167Y-91030739D01*
X136348242Y-91163347D01*
X136562529Y-91277777D01*
X136751867Y-91393858D01*
X136927596Y-91519683D01*
X137101058Y-91663342D01*
X137274713Y-91824321D01*
X137544173Y-92109579D01*
X137778083Y-92410212D01*
X137977106Y-92727516D01*
X138141905Y-93062785D01*
X138273142Y-93417316D01*
X138371482Y-93792403D01*
X138420111Y-94061267D01*
X138434834Y-94194004D01*
X138444366Y-94353861D01*
X138448706Y-94529229D01*
X138447854Y-94708497D01*
X138441811Y-94880056D01*
X138430576Y-95032296D01*
X138420111Y-95117932D01*
X138343208Y-95507627D01*
X138232340Y-95881023D01*
X138088292Y-96236214D01*
X137911847Y-96571295D01*
X137703789Y-96884361D01*
X137681074Y-96914649D01*
X137559778Y-97061643D01*
X137412731Y-97218923D01*
X137248663Y-97378395D01*
X137076305Y-97531963D01*
X136904391Y-97671532D01*
X136741650Y-97789006D01*
X136728816Y-97797518D01*
X136508032Y-97929810D01*
X136265080Y-98052306D01*
X136008958Y-98161631D01*
X135748665Y-98254411D01*
X135493198Y-98327271D01*
X135251557Y-98376835D01*
X135146371Y-98391010D01*
X135076097Y-98400486D01*
X135018918Y-98411434D01*
X134990469Y-98420189D01*
X134970224Y-98441423D01*
X134933913Y-98489984D01*
X134885769Y-98559811D01*
X134830025Y-98644838D01*
X134795085Y-98700003D01*
X134738506Y-98789608D01*
X134689022Y-98866328D01*
X134650333Y-98924556D01*
X134626139Y-98958686D01*
X134620000Y-98965291D01*
X134606639Y-98950063D01*
X134576116Y-98907421D01*
X134532240Y-98842923D01*
X134478821Y-98762128D01*
X134444154Y-98708731D01*
X134385512Y-98618593D01*
X134332911Y-98539185D01*
X134290569Y-98476771D01*
X134262709Y-98437611D01*
X134255105Y-98428271D01*
X134224774Y-98414544D01*
X134168168Y-98401300D01*
X134103375Y-98392102D01*
X134031841Y-98382030D01*
X133935743Y-98364742D01*
X133828356Y-98342778D01*
X133735578Y-98321723D01*
X133371875Y-98215663D01*
X133020067Y-98075158D01*
X132684953Y-97902569D01*
X132371328Y-97700259D01*
X132189517Y-97560722D01*
X132108074Y-97489745D01*
X132011111Y-97398683D01*
X131906153Y-97295247D01*
X131800723Y-97187145D01*
X131702348Y-97082087D01*
X131618551Y-96987782D01*
X131558925Y-96914677D01*
X131346097Y-96601994D01*
X131166652Y-96270868D01*
X131021167Y-95924083D01*
X130910215Y-95564422D01*
X130834371Y-95194669D01*
X130794211Y-94817608D01*
X130793247Y-94723330D01*
X130965983Y-94723330D01*
X130996446Y-95087481D01*
X131063242Y-95445014D01*
X131073646Y-95486969D01*
X131183400Y-95841221D01*
X131327446Y-96180642D01*
X131503695Y-96502680D01*
X131710056Y-96804784D01*
X131944439Y-97084402D01*
X132204754Y-97338985D01*
X132488910Y-97565979D01*
X132794818Y-97762835D01*
X133044492Y-97892560D01*
X133168659Y-97946799D01*
X133308216Y-98001143D01*
X133455850Y-98053351D01*
X133604251Y-98101180D01*
X133746106Y-98142388D01*
X133874104Y-98174733D01*
X133980933Y-98195971D01*
X134059282Y-98203861D01*
X134059583Y-98203864D01*
X134080090Y-98202988D01*
X134090714Y-98196844D01*
X134089256Y-98180626D01*
X134073516Y-98149529D01*
X134041295Y-98098748D01*
X133990393Y-98023479D01*
X133950180Y-97964869D01*
X133770995Y-97702604D01*
X133613188Y-97468301D01*
X133474703Y-97258653D01*
X133353484Y-97070350D01*
X133247476Y-96900085D01*
X133154623Y-96744549D01*
X133072870Y-96600434D01*
X133000160Y-96464430D01*
X132934438Y-96333231D01*
X132927752Y-96319375D01*
X132787951Y-95995547D01*
X132677756Y-95668885D01*
X132597608Y-95343027D01*
X132547947Y-95021611D01*
X132529213Y-94708274D01*
X132533026Y-94617243D01*
X133217239Y-94617243D01*
X133244394Y-94675363D01*
X133282066Y-94703481D01*
X133321541Y-94712461D01*
X133389615Y-94719270D01*
X133476862Y-94723828D01*
X133573859Y-94726057D01*
X133671179Y-94725876D01*
X133759398Y-94723207D01*
X133829089Y-94717969D01*
X133870829Y-94710083D01*
X133874470Y-94708472D01*
X133900966Y-94684351D01*
X133940782Y-94636728D01*
X133986170Y-94575010D01*
X133995146Y-94561934D01*
X134037206Y-94501801D01*
X134071195Y-94456695D01*
X134091177Y-94434395D01*
X134093361Y-94433292D01*
X134102236Y-94451042D01*
X134121290Y-94500897D01*
X134148729Y-94577763D01*
X134182759Y-94676546D01*
X134221588Y-94792154D01*
X134249823Y-94877792D01*
X134296985Y-95020648D01*
X134334470Y-95130659D01*
X134364138Y-95212312D01*
X134387853Y-95270096D01*
X134407475Y-95308501D01*
X134424867Y-95332013D01*
X134441890Y-95345123D01*
X134444154Y-95346287D01*
X134512774Y-95360397D01*
X134577579Y-95338687D01*
X134595575Y-95324383D01*
X134605763Y-95300186D01*
X134622972Y-95242635D01*
X134645968Y-95156571D01*
X134673517Y-95046837D01*
X134704386Y-94918274D01*
X134737339Y-94775723D01*
X134751883Y-94711149D01*
X134784768Y-94565434D01*
X134815327Y-94432787D01*
X134842452Y-94317806D01*
X134865034Y-94225086D01*
X134881965Y-94159222D01*
X134892137Y-94124810D01*
X134894245Y-94120808D01*
X134904316Y-94138072D01*
X134924819Y-94185586D01*
X134953094Y-94256783D01*
X134986476Y-94345094D01*
X134999141Y-94379561D01*
X135036477Y-94477323D01*
X135073019Y-94564879D01*
X135105126Y-94634037D01*
X135129157Y-94676605D01*
X135133724Y-94682407D01*
X135149281Y-94697774D01*
X135167633Y-94709068D01*
X135194581Y-94716915D01*
X135235923Y-94721942D01*
X135297455Y-94724775D01*
X135384978Y-94726039D01*
X135504289Y-94726362D01*
X135540794Y-94726369D01*
X135688410Y-94725464D01*
X135801707Y-94722150D01*
X135885411Y-94715525D01*
X135944251Y-94704688D01*
X135982953Y-94688737D01*
X136006246Y-94666771D01*
X136018858Y-94637889D01*
X136019586Y-94635096D01*
X136022761Y-94561957D01*
X135995605Y-94503836D01*
X135957933Y-94475719D01*
X135915078Y-94465922D01*
X135837541Y-94458655D01*
X135729650Y-94454201D01*
X135607944Y-94452830D01*
X135308189Y-94452830D01*
X135176511Y-94096254D01*
X135132697Y-93977622D01*
X135090847Y-93864331D01*
X135053884Y-93764292D01*
X135024730Y-93685418D01*
X135006829Y-93637020D01*
X134979368Y-93576356D01*
X134949545Y-93530516D01*
X134932466Y-93514904D01*
X134866699Y-93496491D01*
X134804037Y-93506926D01*
X134769634Y-93531102D01*
X134755437Y-93561390D01*
X134734604Y-93626613D01*
X134708041Y-93723364D01*
X134676659Y-93848236D01*
X134641364Y-93997823D01*
X134619845Y-94092833D01*
X134588352Y-94232543D01*
X134558824Y-94361152D01*
X134532532Y-94473302D01*
X134510752Y-94563633D01*
X134494755Y-94626787D01*
X134485815Y-94657403D01*
X134485576Y-94657984D01*
X134476783Y-94664788D01*
X134463756Y-94649438D01*
X134445013Y-94608475D01*
X134419072Y-94538442D01*
X134384452Y-94435881D01*
X134365605Y-94378068D01*
X134329520Y-94269973D01*
X134294976Y-94172690D01*
X134264654Y-94093317D01*
X134241236Y-94038951D01*
X134229972Y-94019049D01*
X134182083Y-93987331D01*
X134121498Y-93980451D01*
X134067130Y-94000270D01*
X134064030Y-94002718D01*
X134042885Y-94027423D01*
X134005587Y-94077932D01*
X133957154Y-94147206D01*
X133902607Y-94228208D01*
X133895071Y-94239622D01*
X133754664Y-94452830D01*
X133543482Y-94452830D01*
X133421334Y-94455659D01*
X133332898Y-94465091D01*
X133273157Y-94482543D01*
X133237092Y-94509434D01*
X133220413Y-94544103D01*
X133217239Y-94617243D01*
X132533026Y-94617243D01*
X132541848Y-94406655D01*
X132586292Y-94120390D01*
X132637946Y-93926736D01*
X132738556Y-93673495D01*
X132871533Y-93438847D01*
X133033746Y-93225047D01*
X133222064Y-93034352D01*
X133433357Y-92869015D01*
X133664492Y-92731294D01*
X133912341Y-92623441D01*
X134173772Y-92547714D01*
X134445654Y-92506366D01*
X134620000Y-92498984D01*
X134897277Y-92518051D01*
X135169462Y-92573945D01*
X135432009Y-92664707D01*
X135680369Y-92788380D01*
X135909995Y-92943003D01*
X136116341Y-93126618D01*
X136144000Y-93155470D01*
X136323613Y-93373485D01*
X136468884Y-93608713D01*
X136579939Y-93861612D01*
X136656904Y-94132639D01*
X136699906Y-94422251D01*
X136709072Y-94730905D01*
X136684528Y-95059059D01*
X136680422Y-95091464D01*
X136640829Y-95336085D01*
X136585965Y-95576323D01*
X136514144Y-95815929D01*
X136423684Y-96058651D01*
X136312900Y-96308238D01*
X136180108Y-96568440D01*
X136023624Y-96843005D01*
X135841763Y-97135682D01*
X135632843Y-97450221D01*
X135598165Y-97500830D01*
X135524022Y-97608799D01*
X135443230Y-97726730D01*
X135365108Y-97841004D01*
X135298978Y-97938000D01*
X135293746Y-97945691D01*
X135238960Y-98026192D01*
X135190332Y-98097533D01*
X135153109Y-98152025D01*
X135132538Y-98181977D01*
X135132416Y-98182152D01*
X135120950Y-98202036D01*
X135127528Y-98210541D01*
X135159199Y-98209282D01*
X135215155Y-98201106D01*
X135289599Y-98187706D01*
X135382108Y-98168669D01*
X135472896Y-98148071D01*
X135474508Y-98147684D01*
X135834651Y-98041120D01*
X136179471Y-97899238D01*
X136506924Y-97723471D01*
X136814969Y-97515251D01*
X137101564Y-97276011D01*
X137364668Y-97007184D01*
X137602238Y-96710201D01*
X137677509Y-96602061D01*
X137799257Y-96401307D01*
X137915330Y-96173027D01*
X138020711Y-95928767D01*
X138110384Y-95680072D01*
X138174438Y-95458317D01*
X138238639Y-95128741D01*
X138271149Y-94783975D01*
X138271966Y-94431697D01*
X138241090Y-94079581D01*
X138178519Y-93735302D01*
X138174747Y-93719229D01*
X138072062Y-93369319D01*
X137934576Y-93034307D01*
X137764406Y-92716278D01*
X137563669Y-92417319D01*
X137334482Y-92139517D01*
X137078961Y-91884957D01*
X136799224Y-91655727D01*
X136497387Y-91453913D01*
X136175566Y-91281601D01*
X135835879Y-91140878D01*
X135480442Y-91033831D01*
X135440615Y-91024234D01*
X135113388Y-90965056D01*
X134771770Y-90936406D01*
X134425764Y-90938284D01*
X134085372Y-90970690D01*
X133799384Y-91024233D01*
X133437415Y-91128945D01*
X133090915Y-91268445D01*
X132762158Y-91440945D01*
X132453418Y-91644652D01*
X132166968Y-91877776D01*
X131905083Y-92138527D01*
X131670037Y-92425113D01*
X131464103Y-92735744D01*
X131342078Y-92959355D01*
X131197982Y-93289718D01*
X131087852Y-93635755D01*
X131012160Y-93993008D01*
X130971379Y-94357019D01*
X130965983Y-94723330D01*
X130793247Y-94723330D01*
X130790310Y-94436023D01*
X130823242Y-94052697D01*
X130891103Y-93681061D01*
X130941233Y-93496945D01*
X131009196Y-93295195D01*
X131089840Y-93089781D01*
X131178015Y-92894673D01*
X131190050Y-92870215D01*
X131307967Y-92648792D01*
X131432620Y-92448166D01*
X131571405Y-92258015D01*
X131731723Y-92068016D01*
X131874428Y-91915396D01*
X132081695Y-91713507D01*
X132286118Y-91540445D01*
X132498324Y-91388351D01*
X132728939Y-91249371D01*
X132891757Y-91163347D01*
X133228912Y-91012353D01*
X133571393Y-90897621D01*
X133923467Y-90818158D01*
X134289401Y-90772970D01*
X134620000Y-90760762D01*
X135001344Y-90777139D01*
G37*
D14*
%TO.C,B2*%
X121380000Y-81830000D02*
X149620000Y-81830000D01*
X149620000Y-137170000D01*
X146280000Y-137170000D01*
X146280000Y-109840000D01*
X124720000Y-109840000D01*
X124720000Y-137170000D01*
X121380000Y-137170000D01*
X121380000Y-81830000D01*
%TO.C,U2*%
D12*
X115714000Y-104444800D02*
X115714000Y-86554800D01*
X118474000Y-86554800D02*
X115714000Y-86554800D01*
X118474000Y-104444800D02*
X115714000Y-104444800D01*
X118474000Y-104444800D02*
X118474000Y-86554800D01*
X118474000Y-105714800D02*
X118474000Y-107094800D01*
X118474000Y-107094800D02*
X117094000Y-107094800D01*
%TO.C,J2*%
X115714000Y-117805200D02*
X115714000Y-115155200D01*
X118474000Y-115155200D02*
X115714000Y-115155200D01*
X118474000Y-117805200D02*
X115714000Y-117805200D01*
X118474000Y-117805200D02*
X118474000Y-115155200D01*
X118474000Y-119075200D02*
X118474000Y-120455200D01*
X118474000Y-120455200D02*
X117094000Y-120455200D01*
%TD*%
M02*
