%TF.GenerationSoftware,KiCad,Pcbnew,10.0.6-1.fc44*%
%TF.CreationDate,2026-09-09T16:00:58+07:00*%
%TF.ProjectId,LuckFox RAP Shield,4c75636b-466f-4782-9052-415020536869,rev?*%
%TF.SameCoordinates,Original*%
%TF.FileFunction,Copper,L2,Bot*%
%TF.FilePolarity,Positive*%
%FSLAX46Y46*%
G04 Gerber Fmt 4.6, Leading zero omitted, Abs format (unit mm)*
G04 Created by KiCad (PCBNEW 10.0.6-1.fc44) date 2026-09-09 16:00:58*
%MOMM*%
%LPD*%
G01*
G04 APERTURE LIST*
%TA.AperFunction,ComponentPad*%
%ADD10R,1.700000X1.700000*%
%TD*%
%TA.AperFunction,ComponentPad*%
%ADD11C,1.700000*%
%TD*%
%TA.AperFunction,SMDPad,CuDef*%
%ADD12R,1.400000X1.800000*%
%TD*%
%TA.AperFunction,ViaPad*%
%ADD13C,1.370000*%
%TD*%
%TA.AperFunction,ViaPad*%
%ADD14C,1.470000*%
%TD*%
%TA.AperFunction,Conductor*%
%ADD15C,0.254000*%
%TD*%
G04 APERTURE END LIST*
D10*
%TO.P,B2,1,5V_1*%
%TO.N,+5V_RAIL*%
X122800000Y-133630000D03*
%TO.P,B2,2,3V3_2*%
%TO.N,+3V3_RAIL*%
X122800000Y-82830000D03*
%TO.P,B2,3,GND_3*%
%TO.N,GND*%
X122800000Y-136170000D03*
%TO.P,B2,4,EN_4*%
%TO.N,unconnected-(B2-EN-Pad4)*%
X122800000Y-87910000D03*
%TO.P,B2,5,GPIO4_MOSI_ETH_5*%
%TO.N,Net-(B2-GPIO4_MOSI_ETH)*%
X122800000Y-90450000D03*
%TO.P,B2,6,GPIO5_MISO_ETH_6*%
%TO.N,Net-(B2-GPIO5_MISO_ETH)*%
X122800000Y-92990000D03*
%TO.P,B2,7,GPIO6_SCK_ETH_7*%
%TO.N,Net-(B2-GPIO6_SCK_ETH)*%
X122800000Y-95530000D03*
%TO.P,B2,8,GPIO7_CS_ETH_8*%
%TO.N,Net-(B2-GPIO7_CS_ETH)*%
X122800000Y-98070000D03*
%TO.P,B2,9,GPIO9_INT_ETH_9*%
%TO.N,Net-(B2-GPIO9_INT_ETH)*%
X122800000Y-118390000D03*
%TO.P,B2,10,GPIO10_CS_LF_10*%
%TO.N,Net-(B2-GPIO10_CS_LF)*%
X122800000Y-120930000D03*
%TO.P,B2,11,GPIO11_MOSI_LF_11*%
%TO.N,Net-(B2-GPIO11_MOSI_LF)*%
X122800000Y-123470000D03*
%TO.P,B2,12,GPIO12_SCK_LF_12*%
%TO.N,Net-(B2-GPIO12_SCK_LF)*%
X122800000Y-126010000D03*
%TO.P,B2,13,GPIO13_MISO_LF_13*%
%TO.N,Net-(B2-GPIO13_MISO_LF)*%
X122800000Y-128550000D03*
%TO.P,B2,14,GPIO15_DATA_RDY_IN_14*%
%TO.N,Net-(B2-GPIO15_DATA_RDY_IN)*%
X122800000Y-100610000D03*
%TO.P,B2,15,GPIO16_SLAVE_RDY_OUT_15*%
%TO.N,Net-(B2-GPIO16_SLAVE_RDY_OUT)*%
X122800000Y-103150000D03*
%TO.P,B2,16,GND_16*%
%TO.N,GND*%
X148200000Y-82830000D03*
D11*
%TO.P,B2,17,3V3_17*%
%TO.N,unconnected-(B2-3V3-Pad17)*%
X122800000Y-85370000D03*
%TO.P,B2,18,GPIO17_18*%
%TO.N,Net-(B2-GPIO17)*%
X122800000Y-105690000D03*
%TO.P,B2,19,GPIO18_19*%
%TO.N,unconnected-(B2-GPIO18-Pad19)*%
X122800000Y-108230000D03*
%TO.P,B2,20,GPIO8_20*%
%TO.N,unconnected-(B2-GPIO8-Pad20)*%
X122800000Y-110770000D03*
%TO.P,B2,21,GPIO3_21*%
%TO.N,unconnected-(B2-GPIO3-Pad21)*%
X122800000Y-113310000D03*
%TO.P,B2,22,GPIO46_22*%
%TO.N,unconnected-(B2-GPIO46-Pad22)*%
X122800000Y-115850000D03*
%TO.P,B2,23,GPIO14_23*%
%TO.N,unconnected-(B2-GPIO14-Pad23)*%
X122800000Y-131090000D03*
%TO.P,B2,24,GPIO43_24*%
%TO.N,unconnected-(B2-GPIO43-Pad24)*%
X148200000Y-85370000D03*
%TO.P,B2,25,GPIO44_25*%
%TO.N,unconnected-(B2-GPIO44-Pad25)*%
X148200000Y-87910000D03*
%TO.P,B2,26,GPIO1_26*%
%TO.N,unconnected-(B2-GPIO1-Pad26)*%
X148200000Y-90450000D03*
%TO.P,B2,27,GPIO2_27*%
%TO.N,unconnected-(B2-GPIO2-Pad27)*%
X148200000Y-92990000D03*
%TO.P,B2,28,GPIO42_28*%
%TO.N,unconnected-(B2-GPIO42-Pad28)*%
X148200000Y-95530000D03*
%TO.P,B2,29,GPIO41_29*%
%TO.N,unconnected-(B2-GPIO41-Pad29)*%
X148200000Y-98070000D03*
%TO.P,B2,30,GPIO40_30*%
%TO.N,unconnected-(B2-GPIO40-Pad30)*%
X148200000Y-100610000D03*
%TO.P,B2,31,GPIO39_31*%
%TO.N,unconnected-(B2-GPIO39-Pad31)*%
X148200000Y-103150000D03*
%TO.P,B2,32,GPIO38_32*%
%TO.N,unconnected-(B2-GPIO38-Pad32)*%
X148200000Y-105690000D03*
%TO.P,B2,33,GPIO37_33*%
%TO.N,unconnected-(B2-GPIO37-Pad33)*%
X148200000Y-108230000D03*
%TO.P,B2,34,GPIO36_34*%
%TO.N,unconnected-(B2-GPIO36-Pad34)*%
X148200000Y-110770000D03*
%TO.P,B2,35,GPIO35_35*%
%TO.N,unconnected-(B2-GPIO35-Pad35)*%
X148200000Y-113310000D03*
%TO.P,B2,36,GPIO0_36*%
%TO.N,unconnected-(B2-GPIO0-Pad36)*%
X148200000Y-115850000D03*
%TO.P,B2,37,GPIO45_37*%
%TO.N,unconnected-(B2-GPIO45-Pad37)*%
X148200000Y-118390000D03*
%TO.P,B2,38,GPIO48_38*%
%TO.N,unconnected-(B2-GPIO48-Pad38)*%
X148200000Y-120930000D03*
%TO.P,B2,39,GPIO47_39*%
%TO.N,unconnected-(B2-GPIO47-Pad39)*%
X148200000Y-123470000D03*
%TO.P,B2,40,GPIO21_40*%
%TO.N,unconnected-(B2-GPIO21-Pad40)*%
X148200000Y-126010000D03*
%TO.P,B2,41,GPIO20_41*%
%TO.N,unconnected-(B2-GPIO20-Pad41)*%
X148200000Y-128550000D03*
%TO.P,B2,42,GPIO19_42*%
%TO.N,unconnected-(B2-GPIO19-Pad42)*%
X148200000Y-131090000D03*
%TO.P,B2,43,GND_43*%
%TO.N,GND*%
X148200000Y-133630000D03*
%TO.P,B2,44,GND_44*%
X148200000Y-136170000D03*
%TD*%
D10*
%TO.P,U2,1,VCC_3V3_1*%
%TO.N,+3V3_RAIL*%
X117094000Y-105714800D03*
D11*
%TO.P,U2,2,GND_2*%
%TO.N,GND*%
X117094000Y-103174800D03*
%TO.P,U2,3,RST_3*%
%TO.N,Net-(B2-GPIO17)*%
X117094000Y-100634800D03*
%TO.P,U2,4,CS_4*%
%TO.N,Net-(B2-GPIO7_CS_ETH)*%
X117094000Y-98094800D03*
%TO.P,U2,5,SCK_5*%
%TO.N,Net-(B2-GPIO6_SCK_ETH)*%
X117094000Y-95554800D03*
%TO.P,U2,6,MOSI_6*%
%TO.N,Net-(B2-GPIO4_MOSI_ETH)*%
X117094000Y-93014800D03*
%TO.P,U2,7,MISO_7*%
%TO.N,Net-(B2-GPIO5_MISO_ETH)*%
X117094000Y-90474800D03*
%TO.P,U2,8,INT_8*%
%TO.N,Net-(B2-GPIO9_INT_ETH)*%
X117094000Y-87934800D03*
%TD*%
D10*
%TO.P,J2,1,5V_IN_1*%
%TO.N,+5V_RAIL*%
X117094000Y-119075200D03*
D11*
%TO.P,J2,2,GND_IN_2*%
%TO.N,GND*%
X117094000Y-116535200D03*
%TD*%
D12*
%TO.P,J1,1,VBUS_1*%
%TO.N,+5V_RAIL*%
X125000000Y-136240000D03*
%TO.P,J1,2,GND_2*%
%TO.N,GND*%
X125000000Y-133700000D03*
%TO.P,J1,3,3V3_OUT_3*%
%TO.N,unconnected-(J1-3V3_OUT-Pad3)*%
X125000000Y-131160000D03*
%TO.P,J1,4,GPIO1_B2_d_4*%
%TO.N,unconnected-(J1-GPIO1_B2_d-Pad4)*%
X125000000Y-128620000D03*
%TO.P,J1,5,GPIO1_B3_u_5*%
%TO.N,unconnected-(J1-GPIO1_B3_u-Pad5)*%
X125000000Y-126080000D03*
%TO.P,J1,6,GPIO1_C0_d_SPI0_CS0_6*%
%TO.N,Net-(B2-GPIO10_CS_LF)*%
X125000000Y-123540000D03*
%TO.P,J1,7,GPIO1_C1_d_SPI0_CLK_7*%
%TO.N,Net-(B2-GPIO12_SCK_LF)*%
X125000000Y-121000000D03*
%TO.P,J1,8,GPIO1_C2_d_SPI0_MOSI_8*%
%TO.N,Net-(B2-GPIO11_MOSI_LF)*%
X125000000Y-118460000D03*
%TO.P,J1,9,GPIO1_C3_d_SPI0_MISO_9*%
%TO.N,Net-(B2-GPIO13_MISO_LF)*%
X125000000Y-115920000D03*
%TO.P,J1,10,GPIO1_C4_d_DATA_RDY_10*%
%TO.N,Net-(B2-GPIO15_DATA_RDY_IN)*%
X125000000Y-113380000D03*
%TO.P,J1,11,GPIO1_C5_d_11*%
%TO.N,unconnected-(J1-GPIO1_C5_d-Pad11)*%
X125000000Y-110840000D03*
%TO.P,J1,12,GPIO1_D0_d_12*%
%TO.N,unconnected-(J1-GPIO1_D0_d-Pad12)*%
X146000000Y-110840000D03*
%TO.P,J1,13,GPIO1_D1_d_13*%
%TO.N,unconnected-(J1-GPIO1_D1_d-Pad13)*%
X146000000Y-113380000D03*
%TO.P,J1,14,GPIO1_D2_d_14*%
%TO.N,unconnected-(J1-GPIO1_D2_d-Pad14)*%
X146000000Y-115920000D03*
%TO.P,J1,15,GPIO1_D3_d_15*%
%TO.N,unconnected-(J1-GPIO1_D3_d-Pad15)*%
X146000000Y-118460000D03*
%TO.P,J1,16,GPIO1_C6_d_16*%
%TO.N,unconnected-(J1-GPIO1_C6_d-Pad16)*%
X146000000Y-121000000D03*
%TO.P,J1,17,GPIO1_C7_d_17*%
%TO.N,unconnected-(J1-GPIO1_C7_d-Pad17)*%
X146000000Y-123540000D03*
%TO.P,J1,18,GPIO0_A4_d_SLAVE_RDY_18*%
%TO.N,Net-(B2-GPIO16_SLAVE_RDY_OUT)*%
X146000000Y-126080000D03*
%TO.P,J1,19,GPIO4_C0_z_19*%
%TO.N,unconnected-(J1-GPIO4_C0_z-Pad19)*%
X146000000Y-128620000D03*
%TO.P,J1,20,GPIO4_C1_z_20*%
%TO.N,unconnected-(J1-GPIO4_C1_z-Pad20)*%
X146000000Y-131160000D03*
%TO.P,J1,21,GND_21*%
%TO.N,GND*%
X146000000Y-133700000D03*
%TO.P,J1,22,1V8_OUT_22*%
%TO.N,unconnected-(J1-1V8_OUT-Pad22)*%
X146000000Y-136240000D03*
%TD*%
D13*
%TO.N,GND*%
X146000000Y-133700000D03*
X125000000Y-133700000D03*
D14*
%TO.N,Net-(B2-GPIO10_CS_LF)*%
X125000000Y-123540000D03*
D13*
%TO.N,Net-(B2-GPIO11_MOSI_LF)*%
X125000000Y-118460000D03*
%TO.N,Net-(B2-GPIO13_MISO_LF)*%
X125000000Y-115920000D03*
%TO.N,Net-(B2-GPIO15_DATA_RDY_IN)*%
X125000000Y-113380000D03*
%TO.N,Net-(B2-GPIO16_SLAVE_RDY_OUT)*%
X146000000Y-126080000D03*
%TD*%
%TO.N,+5V_RAIL*%
D15*
X121158000Y-137718800D02*
X124155200Y-137718800D01*
X124749020Y-137124980D02*
X124750000Y-136240008D01*
X124155200Y-137718800D02*
X124749020Y-137124980D01*
X121158000Y-133654800D02*
X121158000Y-137718800D01*
X122800000Y-133630000D02*
X121182800Y-133630000D01*
X121182800Y-133630000D02*
X121158000Y-133654800D01*
%TO.N,Net-(B2-GPIO5_MISO_ETH)*%
X117094000Y-90474800D02*
X119609200Y-92990000D01*
X119609200Y-92990000D02*
X122800000Y-92990000D01*
%TO.N,Net-(B2-GPIO9_INT_ETH)*%
X114604800Y-110194800D02*
X122800000Y-118390000D01*
X114604800Y-90424000D02*
X114604800Y-110194800D01*
X117094000Y-87934800D02*
X114604800Y-90424000D01*
%TO.N,Net-(B2-GPIO12_SCK_LF)*%
X121158000Y-122224800D02*
X123901200Y-122224800D01*
X123901200Y-122224800D02*
X124750000Y-121376000D01*
X121158000Y-122224800D02*
X121158000Y-125984000D01*
X121184000Y-126010000D02*
X122800000Y-126010000D01*
X121158000Y-125984000D02*
X121184000Y-126010000D01*
%TO.N,Net-(B2-GPIO17)*%
X117094000Y-100634800D02*
X122149200Y-105690000D01*
X122149200Y-105690000D02*
X122800000Y-105690000D01*
%TD*%
%TA.AperFunction,Conductor*%
%TO.N,GND*%
G36*
X157942121Y-75020002D02*
G01*
X157988614Y-75073658D01*
X158000000Y-75126000D01*
X158000000Y-138050000D01*
X157979998Y-138118121D01*
X157926342Y-138164614D01*
X157874000Y-138176000D01*
X146276000Y-138176000D01*
X146207879Y-138155998D01*
X146161386Y-138102342D01*
X146150000Y-138050000D01*
X146150000Y-137774500D01*
X146170002Y-137706379D01*
X146223658Y-137659886D01*
X146276000Y-137648500D01*
X146748632Y-137648500D01*
X146748638Y-137648500D01*
X146748645Y-137648499D01*
X146748649Y-137648499D01*
X146809196Y-137641990D01*
X146809199Y-137641989D01*
X146809201Y-137641989D01*
X146946204Y-137590889D01*
X147063261Y-137503261D01*
X147150889Y-137386204D01*
X147183831Y-137297881D01*
X147226377Y-137241049D01*
X147292898Y-137216238D01*
X147362272Y-137231330D01*
X147375947Y-137239981D01*
X147492443Y-137324621D01*
X147681778Y-137421092D01*
X147681784Y-137421095D01*
X147883870Y-137486756D01*
X147883866Y-137486756D01*
X148093756Y-137520000D01*
X148306244Y-137520000D01*
X148516131Y-137486756D01*
X148718215Y-137421095D01*
X148718221Y-137421092D01*
X148907555Y-137324621D01*
X148907557Y-137324620D01*
X148961716Y-137285270D01*
X148329408Y-136652962D01*
X148392993Y-136635925D01*
X148507007Y-136570099D01*
X148600099Y-136477007D01*
X148665925Y-136362993D01*
X148682962Y-136299410D01*
X149315269Y-136931717D01*
X149315270Y-136931716D01*
X149354620Y-136877557D01*
X149354621Y-136877555D01*
X149451092Y-136688221D01*
X149451095Y-136688215D01*
X149516756Y-136486131D01*
X149550000Y-136276243D01*
X149550000Y-136063756D01*
X149516756Y-135853868D01*
X149451095Y-135651784D01*
X149451092Y-135651778D01*
X149354622Y-135462446D01*
X149315269Y-135408282D01*
X148682962Y-136040589D01*
X148665925Y-135977007D01*
X148600099Y-135862993D01*
X148507007Y-135769901D01*
X148392993Y-135704075D01*
X148329407Y-135687036D01*
X148961716Y-135054729D01*
X148907553Y-135015377D01*
X148901451Y-135012268D01*
X148849835Y-134963520D01*
X148832768Y-134894605D01*
X148855668Y-134827404D01*
X148901451Y-134787732D01*
X148907556Y-134784621D01*
X148907557Y-134784620D01*
X148961716Y-134745270D01*
X148329408Y-134112962D01*
X148392993Y-134095925D01*
X148507007Y-134030099D01*
X148600099Y-133937007D01*
X148665925Y-133822993D01*
X148682962Y-133759410D01*
X149315269Y-134391717D01*
X149315270Y-134391716D01*
X149354620Y-134337557D01*
X149354621Y-134337555D01*
X149435558Y-134178709D01*
X152149500Y-134178709D01*
X152149500Y-134421290D01*
X152181160Y-134661782D01*
X152243944Y-134896095D01*
X152243945Y-134896097D01*
X152243946Y-134896100D01*
X152336776Y-135120212D01*
X152336777Y-135120213D01*
X152336782Y-135120224D01*
X152458061Y-135330285D01*
X152458063Y-135330288D01*
X152458064Y-135330289D01*
X152605735Y-135522738D01*
X152605739Y-135522742D01*
X152605744Y-135522748D01*
X152777251Y-135694255D01*
X152777256Y-135694259D01*
X152777262Y-135694265D01*
X152969711Y-135841936D01*
X152969714Y-135841938D01*
X153179775Y-135963217D01*
X153179779Y-135963218D01*
X153179788Y-135963224D01*
X153403900Y-136056054D01*
X153638211Y-136118838D01*
X153638215Y-136118838D01*
X153638217Y-136118839D01*
X153700202Y-136126999D01*
X153878712Y-136150500D01*
X153878719Y-136150500D01*
X154121281Y-136150500D01*
X154121288Y-136150500D01*
X154338637Y-136121885D01*
X154361782Y-136118839D01*
X154361782Y-136118838D01*
X154361789Y-136118838D01*
X154596100Y-136056054D01*
X154820212Y-135963224D01*
X155030289Y-135841936D01*
X155222738Y-135694265D01*
X155394265Y-135522738D01*
X155541936Y-135330289D01*
X155663224Y-135120212D01*
X155756054Y-134896100D01*
X155818838Y-134661789D01*
X155850500Y-134421288D01*
X155850500Y-134178712D01*
X155818838Y-133938211D01*
X155756054Y-133703900D01*
X155663224Y-133479788D01*
X155663218Y-133479779D01*
X155663217Y-133479775D01*
X155541938Y-133269714D01*
X155526575Y-133249692D01*
X155394265Y-133077262D01*
X155394259Y-133077256D01*
X155394255Y-133077251D01*
X155222748Y-132905744D01*
X155222742Y-132905739D01*
X155222738Y-132905735D01*
X155030289Y-132758064D01*
X155030288Y-132758063D01*
X155030285Y-132758061D01*
X154820224Y-132636782D01*
X154820216Y-132636778D01*
X154820212Y-132636776D01*
X154596100Y-132543946D01*
X154596097Y-132543945D01*
X154596095Y-132543944D01*
X154361782Y-132481160D01*
X154121290Y-132449500D01*
X154121288Y-132449500D01*
X153878712Y-132449500D01*
X153878709Y-132449500D01*
X153638217Y-132481160D01*
X153403904Y-132543944D01*
X153403900Y-132543946D01*
X153179786Y-132636777D01*
X153179775Y-132636782D01*
X152969714Y-132758061D01*
X152777262Y-132905735D01*
X152777251Y-132905744D01*
X152605744Y-133077251D01*
X152605735Y-133077262D01*
X152458061Y-133269714D01*
X152336782Y-133479775D01*
X152336777Y-133479786D01*
X152243946Y-133703900D01*
X152243944Y-133703904D01*
X152181160Y-133938217D01*
X152149500Y-134178709D01*
X149435558Y-134178709D01*
X149451092Y-134148221D01*
X149451097Y-134148210D01*
X149455179Y-134135649D01*
X149516756Y-133946131D01*
X149550000Y-133736243D01*
X149550000Y-133523756D01*
X149516756Y-133313868D01*
X149451095Y-133111784D01*
X149451092Y-133111778D01*
X149354622Y-132922446D01*
X149315269Y-132868282D01*
X148682962Y-133500589D01*
X148665925Y-133437007D01*
X148600099Y-133322993D01*
X148507007Y-133229901D01*
X148392993Y-133164075D01*
X148329407Y-133147036D01*
X148961716Y-132514729D01*
X148907546Y-132475371D01*
X148903336Y-132472792D01*
X148904428Y-132471008D01*
X148859196Y-132428288D01*
X148842130Y-132359373D01*
X148865031Y-132292172D01*
X148908049Y-132254901D01*
X148907791Y-132254479D01*
X148910340Y-132252917D01*
X148910823Y-132252497D01*
X148912009Y-132251894D01*
X149085004Y-132126206D01*
X149236206Y-131975004D01*
X149361894Y-131802009D01*
X149458972Y-131611483D01*
X149525049Y-131408116D01*
X149558500Y-131196916D01*
X149558500Y-130983084D01*
X149525049Y-130771884D01*
X149458972Y-130568517D01*
X149361894Y-130377991D01*
X149236206Y-130204996D01*
X149236203Y-130204993D01*
X149236201Y-130204990D01*
X149085009Y-130053798D01*
X149085006Y-130053796D01*
X149085004Y-130053794D01*
X148954781Y-129959182D01*
X148912012Y-129928108D01*
X148910920Y-129927439D01*
X148910591Y-129927075D01*
X148908004Y-129925196D01*
X148908398Y-129924652D01*
X148863283Y-129874796D01*
X148851670Y-129804756D01*
X148879766Y-129739555D01*
X148908130Y-129714978D01*
X148908004Y-129714804D01*
X148910030Y-129713331D01*
X148910920Y-129712561D01*
X148911997Y-129711899D01*
X148912009Y-129711894D01*
X149085004Y-129586206D01*
X149236206Y-129435004D01*
X149361894Y-129262009D01*
X149458972Y-129071483D01*
X149525049Y-128868116D01*
X149558500Y-128656916D01*
X149558500Y-128443084D01*
X149525049Y-128231884D01*
X149458972Y-128028517D01*
X149361894Y-127837991D01*
X149236206Y-127664996D01*
X149236203Y-127664993D01*
X149236201Y-127664990D01*
X149085009Y-127513798D01*
X149085006Y-127513796D01*
X149085004Y-127513794D01*
X148912009Y-127388106D01*
X148912007Y-127388105D01*
X148910920Y-127387439D01*
X148910591Y-127387075D01*
X148908004Y-127385196D01*
X148908398Y-127384652D01*
X148863283Y-127334796D01*
X148851670Y-127264756D01*
X148879766Y-127199555D01*
X148908130Y-127174978D01*
X148908004Y-127174804D01*
X148910030Y-127173331D01*
X148910920Y-127172561D01*
X148911997Y-127171899D01*
X148912009Y-127171894D01*
X149085004Y-127046206D01*
X149236206Y-126895004D01*
X149361894Y-126722009D01*
X149458972Y-126531483D01*
X149525049Y-126328116D01*
X149558500Y-126116916D01*
X149558500Y-125903084D01*
X149525049Y-125691884D01*
X149458972Y-125488517D01*
X149361894Y-125297991D01*
X149236206Y-125124996D01*
X149236203Y-125124993D01*
X149236201Y-125124990D01*
X149085009Y-124973798D01*
X149085006Y-124973796D01*
X149085004Y-124973794D01*
X148912009Y-124848106D01*
X148912007Y-124848105D01*
X148910920Y-124847439D01*
X148910591Y-124847075D01*
X148908004Y-124845196D01*
X148908398Y-124844652D01*
X148863283Y-124794796D01*
X148851670Y-124724756D01*
X148879766Y-124659555D01*
X148908130Y-124634978D01*
X148908004Y-124634804D01*
X148910030Y-124633331D01*
X148910920Y-124632561D01*
X148911997Y-124631899D01*
X148912009Y-124631894D01*
X149085004Y-124506206D01*
X149236206Y-124355004D01*
X149361894Y-124182009D01*
X149458972Y-123991483D01*
X149525049Y-123788116D01*
X149558500Y-123576916D01*
X149558500Y-123363084D01*
X149525049Y-123151884D01*
X149458972Y-122948517D01*
X149361894Y-122757991D01*
X149236206Y-122584996D01*
X149236203Y-122584993D01*
X149236201Y-122584990D01*
X149085009Y-122433798D01*
X149085006Y-122433796D01*
X149085004Y-122433794D01*
X148912009Y-122308106D01*
X148912007Y-122308105D01*
X148910920Y-122307439D01*
X148910591Y-122307075D01*
X148908004Y-122305196D01*
X148908398Y-122304652D01*
X148863283Y-122254796D01*
X148851670Y-122184756D01*
X148879766Y-122119555D01*
X148908130Y-122094978D01*
X148908004Y-122094804D01*
X148910030Y-122093331D01*
X148910920Y-122092561D01*
X148911997Y-122091899D01*
X148912009Y-122091894D01*
X149085004Y-121966206D01*
X149236206Y-121815004D01*
X149361894Y-121642009D01*
X149458972Y-121451483D01*
X149525049Y-121248116D01*
X149558500Y-121036916D01*
X149558500Y-120823084D01*
X149525049Y-120611884D01*
X149458972Y-120408517D01*
X149361894Y-120217991D01*
X149236206Y-120044996D01*
X149236203Y-120044993D01*
X149236201Y-120044990D01*
X149085009Y-119893798D01*
X149085006Y-119893796D01*
X149085004Y-119893794D01*
X148912009Y-119768106D01*
X148912007Y-119768105D01*
X148910920Y-119767439D01*
X148910591Y-119767075D01*
X148908004Y-119765196D01*
X148908398Y-119764652D01*
X148863283Y-119714796D01*
X148851670Y-119644756D01*
X148879766Y-119579555D01*
X148908130Y-119554978D01*
X148908004Y-119554804D01*
X148910030Y-119553331D01*
X148910920Y-119552561D01*
X148911997Y-119551899D01*
X148912009Y-119551894D01*
X149085004Y-119426206D01*
X149236206Y-119275004D01*
X149361894Y-119102009D01*
X149458972Y-118911483D01*
X149525049Y-118708116D01*
X149558500Y-118496916D01*
X149558500Y-118283084D01*
X149525049Y-118071884D01*
X149458972Y-117868517D01*
X149361894Y-117677991D01*
X149236206Y-117504996D01*
X149236203Y-117504993D01*
X149236201Y-117504990D01*
X149085009Y-117353798D01*
X149085006Y-117353796D01*
X149085004Y-117353794D01*
X148954781Y-117259182D01*
X148912012Y-117228108D01*
X148910920Y-117227439D01*
X148910591Y-117227075D01*
X148908004Y-117225196D01*
X148908398Y-117224652D01*
X148863283Y-117174796D01*
X148851670Y-117104756D01*
X148879766Y-117039555D01*
X148908130Y-117014978D01*
X148908004Y-117014804D01*
X148910030Y-117013331D01*
X148910920Y-117012561D01*
X148911997Y-117011899D01*
X148912009Y-117011894D01*
X149085004Y-116886206D01*
X149236206Y-116735004D01*
X149361894Y-116562009D01*
X149458972Y-116371483D01*
X149525049Y-116168116D01*
X149558500Y-115956916D01*
X149558500Y-115743084D01*
X149525049Y-115531884D01*
X149458972Y-115328517D01*
X149361894Y-115137991D01*
X149236206Y-114964996D01*
X149236203Y-114964993D01*
X149236201Y-114964990D01*
X149085009Y-114813798D01*
X149085006Y-114813796D01*
X149085004Y-114813794D01*
X148912009Y-114688106D01*
X148912007Y-114688105D01*
X148910920Y-114687439D01*
X148910591Y-114687075D01*
X148908004Y-114685196D01*
X148908398Y-114684652D01*
X148863283Y-114634796D01*
X148851670Y-114564756D01*
X148879766Y-114499555D01*
X148908130Y-114474978D01*
X148908004Y-114474804D01*
X148910030Y-114473331D01*
X148910920Y-114472561D01*
X148911997Y-114471899D01*
X148912009Y-114471894D01*
X149085004Y-114346206D01*
X149236206Y-114195004D01*
X149361894Y-114022009D01*
X149458972Y-113831483D01*
X149525049Y-113628116D01*
X149558500Y-113416916D01*
X149558500Y-113203084D01*
X149525049Y-112991884D01*
X149458972Y-112788517D01*
X149361894Y-112597991D01*
X149236206Y-112424996D01*
X149236203Y-112424993D01*
X149236201Y-112424990D01*
X149085009Y-112273798D01*
X149085006Y-112273796D01*
X149085004Y-112273794D01*
X148912009Y-112148106D01*
X148912007Y-112148105D01*
X148910920Y-112147439D01*
X148910591Y-112147075D01*
X148908004Y-112145196D01*
X148908398Y-112144652D01*
X148863283Y-112094796D01*
X148851670Y-112024756D01*
X148879766Y-111959555D01*
X148908130Y-111934978D01*
X148908004Y-111934804D01*
X148910030Y-111933331D01*
X148910920Y-111932561D01*
X148911997Y-111931899D01*
X148912009Y-111931894D01*
X149085004Y-111806206D01*
X149236206Y-111655004D01*
X149361894Y-111482009D01*
X149458972Y-111291483D01*
X149525049Y-111088116D01*
X149558500Y-110876916D01*
X149558500Y-110663084D01*
X149525049Y-110451884D01*
X149458972Y-110248517D01*
X149361894Y-110057991D01*
X149236206Y-109884996D01*
X149236203Y-109884993D01*
X149236201Y-109884990D01*
X149085009Y-109733798D01*
X149085006Y-109733796D01*
X149085004Y-109733794D01*
X148912009Y-109608106D01*
X148912007Y-109608105D01*
X148910920Y-109607439D01*
X148910591Y-109607075D01*
X148908004Y-109605196D01*
X148908398Y-109604652D01*
X148863283Y-109554796D01*
X148851670Y-109484756D01*
X148879766Y-109419555D01*
X148908130Y-109394978D01*
X148908004Y-109394804D01*
X148910030Y-109393331D01*
X148910920Y-109392561D01*
X148911997Y-109391899D01*
X148912009Y-109391894D01*
X149085004Y-109266206D01*
X149236206Y-109115004D01*
X149361894Y-108942009D01*
X149458972Y-108751483D01*
X149525049Y-108548116D01*
X149558500Y-108336916D01*
X149558500Y-108123084D01*
X149525049Y-107911884D01*
X149458972Y-107708517D01*
X149361894Y-107517991D01*
X149236206Y-107344996D01*
X149236203Y-107344993D01*
X149236201Y-107344990D01*
X149085009Y-107193798D01*
X149085006Y-107193796D01*
X149085004Y-107193794D01*
X148912009Y-107068106D01*
X148912007Y-107068105D01*
X148910920Y-107067439D01*
X148910591Y-107067075D01*
X148908004Y-107065196D01*
X148908398Y-107064652D01*
X148863283Y-107014796D01*
X148851670Y-106944756D01*
X148879766Y-106879555D01*
X148908130Y-106854978D01*
X148908004Y-106854804D01*
X148910030Y-106853331D01*
X148910920Y-106852561D01*
X148911997Y-106851899D01*
X148912009Y-106851894D01*
X149085004Y-106726206D01*
X149236206Y-106575004D01*
X149361894Y-106402009D01*
X149458972Y-106211483D01*
X149525049Y-106008116D01*
X149558500Y-105796916D01*
X149558500Y-105583084D01*
X149525049Y-105371884D01*
X149458972Y-105168517D01*
X149361894Y-104977991D01*
X149236206Y-104804996D01*
X149236203Y-104804993D01*
X149236201Y-104804990D01*
X149085009Y-104653798D01*
X149085006Y-104653796D01*
X149085004Y-104653794D01*
X148912009Y-104528106D01*
X148912007Y-104528105D01*
X148910920Y-104527439D01*
X148910591Y-104527075D01*
X148908004Y-104525196D01*
X148908398Y-104524652D01*
X148863283Y-104474796D01*
X148851670Y-104404756D01*
X148879766Y-104339555D01*
X148908130Y-104314978D01*
X148908004Y-104314804D01*
X148910030Y-104313331D01*
X148910920Y-104312561D01*
X148911997Y-104311899D01*
X148912009Y-104311894D01*
X149085004Y-104186206D01*
X149236206Y-104035004D01*
X149361894Y-103862009D01*
X149458972Y-103671483D01*
X149525049Y-103468116D01*
X149558500Y-103256916D01*
X149558500Y-103043084D01*
X149525049Y-102831884D01*
X149458972Y-102628517D01*
X149361894Y-102437991D01*
X149236206Y-102264996D01*
X149236203Y-102264993D01*
X149236201Y-102264990D01*
X149085009Y-102113798D01*
X149085006Y-102113796D01*
X149085004Y-102113794D01*
X148912009Y-101988106D01*
X148912007Y-101988105D01*
X148910920Y-101987439D01*
X148910591Y-101987075D01*
X148908004Y-101985196D01*
X148908398Y-101984652D01*
X148863283Y-101934796D01*
X148851670Y-101864756D01*
X148879766Y-101799555D01*
X148908130Y-101774978D01*
X148908004Y-101774804D01*
X148910030Y-101773331D01*
X148910920Y-101772561D01*
X148911997Y-101771899D01*
X148912009Y-101771894D01*
X149085004Y-101646206D01*
X149236206Y-101495004D01*
X149361894Y-101322009D01*
X149458972Y-101131483D01*
X149525049Y-100928116D01*
X149558500Y-100716916D01*
X149558500Y-100503084D01*
X149525049Y-100291884D01*
X149458972Y-100088517D01*
X149361894Y-99897991D01*
X149236206Y-99724996D01*
X149236203Y-99724993D01*
X149236201Y-99724990D01*
X149085009Y-99573798D01*
X149085006Y-99573796D01*
X149085004Y-99573794D01*
X148912009Y-99448106D01*
X148912007Y-99448105D01*
X148910920Y-99447439D01*
X148910591Y-99447075D01*
X148908004Y-99445196D01*
X148908398Y-99444652D01*
X148863283Y-99394796D01*
X148851670Y-99324756D01*
X148879766Y-99259555D01*
X148908130Y-99234978D01*
X148908004Y-99234804D01*
X148910030Y-99233331D01*
X148910920Y-99232561D01*
X148911997Y-99231899D01*
X148912009Y-99231894D01*
X149085004Y-99106206D01*
X149236206Y-98955004D01*
X149361894Y-98782009D01*
X149458972Y-98591483D01*
X149525049Y-98388116D01*
X149558500Y-98176916D01*
X149558500Y-97963084D01*
X149525049Y-97751884D01*
X149458972Y-97548517D01*
X149361894Y-97357991D01*
X149236206Y-97184996D01*
X149236203Y-97184993D01*
X149236201Y-97184990D01*
X149085009Y-97033798D01*
X149085006Y-97033796D01*
X149085004Y-97033794D01*
X148912009Y-96908106D01*
X148912007Y-96908105D01*
X148910920Y-96907439D01*
X148910591Y-96907075D01*
X148908004Y-96905196D01*
X148908398Y-96904652D01*
X148863283Y-96854796D01*
X148851670Y-96784756D01*
X148879766Y-96719555D01*
X148908130Y-96694978D01*
X148908004Y-96694804D01*
X148910030Y-96693331D01*
X148910920Y-96692561D01*
X148911997Y-96691899D01*
X148912009Y-96691894D01*
X149085004Y-96566206D01*
X149236206Y-96415004D01*
X149361894Y-96242009D01*
X149458972Y-96051483D01*
X149525049Y-95848116D01*
X149558500Y-95636916D01*
X149558500Y-95423084D01*
X149525049Y-95211884D01*
X149458972Y-95008517D01*
X149361894Y-94817991D01*
X149236206Y-94644996D01*
X149236203Y-94644993D01*
X149236201Y-94644990D01*
X149085009Y-94493798D01*
X149085006Y-94493796D01*
X149085004Y-94493794D01*
X148912009Y-94368106D01*
X148912007Y-94368105D01*
X148910920Y-94367439D01*
X148910591Y-94367075D01*
X148908004Y-94365196D01*
X148908398Y-94364652D01*
X148863283Y-94314796D01*
X148851670Y-94244756D01*
X148879766Y-94179555D01*
X148908130Y-94154978D01*
X148908004Y-94154804D01*
X148910030Y-94153331D01*
X148910920Y-94152561D01*
X148911997Y-94151899D01*
X148912009Y-94151894D01*
X149085004Y-94026206D01*
X149236206Y-93875004D01*
X149361894Y-93702009D01*
X149458972Y-93511483D01*
X149525049Y-93308116D01*
X149558500Y-93096916D01*
X149558500Y-92883084D01*
X149525049Y-92671884D01*
X149458972Y-92468517D01*
X149361894Y-92277991D01*
X149236206Y-92104996D01*
X149236203Y-92104993D01*
X149236201Y-92104990D01*
X149085009Y-91953798D01*
X149085006Y-91953796D01*
X149085004Y-91953794D01*
X148912009Y-91828106D01*
X148912007Y-91828105D01*
X148910920Y-91827439D01*
X148910591Y-91827075D01*
X148908004Y-91825196D01*
X148908398Y-91824652D01*
X148863283Y-91774796D01*
X148851670Y-91704756D01*
X148879766Y-91639555D01*
X148908130Y-91614978D01*
X148908004Y-91614804D01*
X148910030Y-91613331D01*
X148910920Y-91612561D01*
X148911997Y-91611899D01*
X148912009Y-91611894D01*
X149085004Y-91486206D01*
X149236206Y-91335004D01*
X149361894Y-91162009D01*
X149458972Y-90971483D01*
X149525049Y-90768116D01*
X149558500Y-90556916D01*
X149558500Y-90343084D01*
X149525049Y-90131884D01*
X149458972Y-89928517D01*
X149361894Y-89737991D01*
X149236206Y-89564996D01*
X149236203Y-89564993D01*
X149236201Y-89564990D01*
X149085009Y-89413798D01*
X149085006Y-89413796D01*
X149085004Y-89413794D01*
X148912009Y-89288106D01*
X148912007Y-89288105D01*
X148910920Y-89287439D01*
X148910591Y-89287075D01*
X148908004Y-89285196D01*
X148908398Y-89284652D01*
X148863283Y-89234796D01*
X148851670Y-89164756D01*
X148879766Y-89099555D01*
X148908130Y-89074978D01*
X148908004Y-89074804D01*
X148910030Y-89073331D01*
X148910920Y-89072561D01*
X148911997Y-89071899D01*
X148912009Y-89071894D01*
X149085004Y-88946206D01*
X149236206Y-88795004D01*
X149361894Y-88622009D01*
X149458972Y-88431483D01*
X149525049Y-88228116D01*
X149558500Y-88016916D01*
X149558500Y-87803084D01*
X149525049Y-87591884D01*
X149458972Y-87388517D01*
X149361894Y-87197991D01*
X149236206Y-87024996D01*
X149236203Y-87024993D01*
X149236201Y-87024990D01*
X149085009Y-86873798D01*
X149085006Y-86873796D01*
X149085004Y-86873794D01*
X148912009Y-86748106D01*
X148912007Y-86748105D01*
X148910920Y-86747439D01*
X148910591Y-86747075D01*
X148908004Y-86745196D01*
X148908398Y-86744652D01*
X148863283Y-86694796D01*
X148851670Y-86624756D01*
X148879766Y-86559555D01*
X148908130Y-86534978D01*
X148908004Y-86534804D01*
X148910030Y-86533331D01*
X148910920Y-86532561D01*
X148911997Y-86531899D01*
X148912009Y-86531894D01*
X149085004Y-86406206D01*
X149236206Y-86255004D01*
X149361894Y-86082009D01*
X149458972Y-85891483D01*
X149525049Y-85688116D01*
X149558500Y-85476916D01*
X149558500Y-85263084D01*
X149525049Y-85051884D01*
X149458972Y-84848517D01*
X149361894Y-84657991D01*
X149236206Y-84484996D01*
X149236203Y-84484993D01*
X149236201Y-84484990D01*
X149126622Y-84375411D01*
X149092596Y-84313099D01*
X149097661Y-84242284D01*
X149140208Y-84185448D01*
X149171685Y-84168260D01*
X149292089Y-84123352D01*
X149407189Y-84037189D01*
X149493352Y-83922089D01*
X149543599Y-83787371D01*
X149549999Y-83727840D01*
X149550000Y-83727823D01*
X149550000Y-83080000D01*
X148633012Y-83080000D01*
X148665925Y-83022993D01*
X148700000Y-82895826D01*
X148700000Y-82764174D01*
X148665925Y-82637007D01*
X148633012Y-82580000D01*
X149550000Y-82580000D01*
X149550000Y-81932176D01*
X149549999Y-81932159D01*
X149543599Y-81872628D01*
X149493352Y-81737910D01*
X149407189Y-81622810D01*
X149292089Y-81536647D01*
X149157371Y-81486400D01*
X149097840Y-81480000D01*
X148450000Y-81480000D01*
X148450000Y-82396988D01*
X148392993Y-82364075D01*
X148265826Y-82330000D01*
X148134174Y-82330000D01*
X148007007Y-82364075D01*
X147950000Y-82396988D01*
X147950000Y-81480000D01*
X147302159Y-81480000D01*
X147242628Y-81486400D01*
X147107910Y-81536647D01*
X146992810Y-81622810D01*
X146906647Y-81737910D01*
X146856400Y-81872628D01*
X146850000Y-81932159D01*
X146850000Y-82580000D01*
X147766988Y-82580000D01*
X147734075Y-82637007D01*
X147700000Y-82764174D01*
X147700000Y-82895826D01*
X147734075Y-83022993D01*
X147766988Y-83080000D01*
X146850000Y-83080000D01*
X146850000Y-83727840D01*
X146856400Y-83787371D01*
X146906647Y-83922089D01*
X146992810Y-84037189D01*
X147107910Y-84123352D01*
X147228314Y-84168260D01*
X147285150Y-84210807D01*
X147309961Y-84277327D01*
X147294870Y-84346701D01*
X147273378Y-84375411D01*
X147163794Y-84484995D01*
X147038108Y-84657987D01*
X146941029Y-84848515D01*
X146941026Y-84848521D01*
X146874952Y-85051878D01*
X146874951Y-85051883D01*
X146874951Y-85051884D01*
X146841500Y-85263084D01*
X146841500Y-85476916D01*
X146874951Y-85688116D01*
X146874952Y-85688121D01*
X146941026Y-85891478D01*
X146941028Y-85891483D01*
X147038106Y-86082009D01*
X147163794Y-86255004D01*
X147163796Y-86255006D01*
X147163798Y-86255009D01*
X147314990Y-86406201D01*
X147314993Y-86406203D01*
X147314996Y-86406206D01*
X147487991Y-86531894D01*
X147487996Y-86531896D01*
X147489088Y-86532566D01*
X147489418Y-86532931D01*
X147491996Y-86534804D01*
X147491602Y-86535345D01*
X147536721Y-86585213D01*
X147548328Y-86655255D01*
X147520226Y-86720453D01*
X147491870Y-86745023D01*
X147491996Y-86745196D01*
X147489982Y-86746658D01*
X147489088Y-86747434D01*
X147487987Y-86748108D01*
X147314993Y-86873796D01*
X147314990Y-86873798D01*
X147163798Y-87024990D01*
X147163796Y-87024993D01*
X147038108Y-87197987D01*
X146941029Y-87388515D01*
X146941026Y-87388521D01*
X146874952Y-87591878D01*
X146874951Y-87591883D01*
X146874951Y-87591884D01*
X146841500Y-87803084D01*
X146841500Y-88016916D01*
X146874951Y-88228116D01*
X146874952Y-88228121D01*
X146909543Y-88334581D01*
X146941028Y-88431483D01*
X147038106Y-88622009D01*
X147163794Y-88795004D01*
X147163796Y-88795006D01*
X147163798Y-88795009D01*
X147314990Y-88946201D01*
X147314993Y-88946203D01*
X147314996Y-88946206D01*
X147487991Y-89071894D01*
X147487996Y-89071896D01*
X147489088Y-89072566D01*
X147489418Y-89072931D01*
X147491996Y-89074804D01*
X147491602Y-89075345D01*
X147536721Y-89125213D01*
X147548328Y-89195255D01*
X147520226Y-89260453D01*
X147491870Y-89285023D01*
X147491996Y-89285196D01*
X147489982Y-89286658D01*
X147489088Y-89287434D01*
X147487987Y-89288108D01*
X147314993Y-89413796D01*
X147314990Y-89413798D01*
X147163798Y-89564990D01*
X147163796Y-89564993D01*
X147038108Y-89737987D01*
X146941029Y-89928515D01*
X146941026Y-89928521D01*
X146874952Y-90131878D01*
X146874951Y-90131883D01*
X146874951Y-90131884D01*
X146841500Y-90343084D01*
X146841500Y-90556916D01*
X146874951Y-90768116D01*
X146874952Y-90768121D01*
X146941026Y-90971478D01*
X146941028Y-90971483D01*
X147038106Y-91162009D01*
X147163794Y-91335004D01*
X147163796Y-91335006D01*
X147163798Y-91335009D01*
X147314990Y-91486201D01*
X147314993Y-91486203D01*
X147314996Y-91486206D01*
X147487991Y-91611894D01*
X147487996Y-91611896D01*
X147489088Y-91612566D01*
X147489418Y-91612931D01*
X147491996Y-91614804D01*
X147491602Y-91615345D01*
X147536721Y-91665213D01*
X147548328Y-91735255D01*
X147520226Y-91800453D01*
X147491870Y-91825023D01*
X147491996Y-91825196D01*
X147489982Y-91826658D01*
X147489088Y-91827434D01*
X147487987Y-91828108D01*
X147314993Y-91953796D01*
X147314990Y-91953798D01*
X147163798Y-92104990D01*
X147163796Y-92104993D01*
X147038108Y-92277987D01*
X146941029Y-92468515D01*
X146941026Y-92468521D01*
X146874952Y-92671878D01*
X146874951Y-92671883D01*
X146874951Y-92671884D01*
X146841500Y-92883084D01*
X146841500Y-93096916D01*
X146874951Y-93308116D01*
X146874952Y-93308121D01*
X146931977Y-93483627D01*
X146941028Y-93511483D01*
X147038106Y-93702009D01*
X147163794Y-93875004D01*
X147163796Y-93875006D01*
X147163798Y-93875009D01*
X147314990Y-94026201D01*
X147314993Y-94026203D01*
X147314996Y-94026206D01*
X147487991Y-94151894D01*
X147487996Y-94151896D01*
X147489088Y-94152566D01*
X147489418Y-94152931D01*
X147491996Y-94154804D01*
X147491602Y-94155345D01*
X147536721Y-94205213D01*
X147548328Y-94275255D01*
X147520226Y-94340453D01*
X147491870Y-94365023D01*
X147491996Y-94365196D01*
X147489982Y-94366658D01*
X147489088Y-94367434D01*
X147487987Y-94368108D01*
X147314993Y-94493796D01*
X147314990Y-94493798D01*
X147163798Y-94644990D01*
X147163796Y-94644993D01*
X147038108Y-94817987D01*
X146941029Y-95008515D01*
X146941026Y-95008521D01*
X146874952Y-95211878D01*
X146874951Y-95211883D01*
X146874951Y-95211884D01*
X146841500Y-95423084D01*
X146841500Y-95636916D01*
X146874951Y-95848116D01*
X146874952Y-95848121D01*
X146941026Y-96051478D01*
X146941028Y-96051483D01*
X147038106Y-96242009D01*
X147163794Y-96415004D01*
X147163796Y-96415006D01*
X147163798Y-96415009D01*
X147314990Y-96566201D01*
X147314993Y-96566203D01*
X147314996Y-96566206D01*
X147487991Y-96691894D01*
X147487996Y-96691896D01*
X147489088Y-96692566D01*
X147489418Y-96692931D01*
X147491996Y-96694804D01*
X147491602Y-96695345D01*
X147536721Y-96745213D01*
X147548328Y-96815255D01*
X147520226Y-96880453D01*
X147491870Y-96905023D01*
X147491996Y-96905196D01*
X147489982Y-96906658D01*
X147489088Y-96907434D01*
X147487987Y-96908108D01*
X147314993Y-97033796D01*
X147314990Y-97033798D01*
X147163798Y-97184990D01*
X147163796Y-97184993D01*
X147038108Y-97357987D01*
X146941029Y-97548515D01*
X146941026Y-97548521D01*
X146874952Y-97751878D01*
X146874951Y-97751883D01*
X146874951Y-97751884D01*
X146841500Y-97963084D01*
X146841500Y-98176916D01*
X146874951Y-98388116D01*
X146874952Y-98388121D01*
X146941026Y-98591478D01*
X146941028Y-98591483D01*
X147038106Y-98782009D01*
X147163794Y-98955004D01*
X147163796Y-98955006D01*
X147163798Y-98955009D01*
X147314990Y-99106201D01*
X147314993Y-99106203D01*
X147314996Y-99106206D01*
X147487991Y-99231894D01*
X147487996Y-99231896D01*
X147489088Y-99232566D01*
X147489418Y-99232931D01*
X147491996Y-99234804D01*
X147491602Y-99235345D01*
X147536721Y-99285213D01*
X147548328Y-99355255D01*
X147520226Y-99420453D01*
X147491870Y-99445023D01*
X147491996Y-99445196D01*
X147489982Y-99446658D01*
X147489088Y-99447434D01*
X147487987Y-99448108D01*
X147314993Y-99573796D01*
X147314990Y-99573798D01*
X147163798Y-99724990D01*
X147163796Y-99724993D01*
X147038108Y-99897987D01*
X146941029Y-100088515D01*
X146941026Y-100088521D01*
X146874952Y-100291878D01*
X146874951Y-100291883D01*
X146874951Y-100291884D01*
X146841500Y-100503084D01*
X146841500Y-100716916D01*
X146874951Y-100928116D01*
X146874952Y-100928121D01*
X146941026Y-101131478D01*
X146941028Y-101131483D01*
X147038106Y-101322009D01*
X147163794Y-101495004D01*
X147163796Y-101495006D01*
X147163798Y-101495009D01*
X147314990Y-101646201D01*
X147314993Y-101646203D01*
X147314996Y-101646206D01*
X147487991Y-101771894D01*
X147487996Y-101771896D01*
X147489088Y-101772566D01*
X147489418Y-101772931D01*
X147491996Y-101774804D01*
X147491602Y-101775345D01*
X147536721Y-101825213D01*
X147548328Y-101895255D01*
X147520226Y-101960453D01*
X147491870Y-101985023D01*
X147491996Y-101985196D01*
X147489982Y-101986658D01*
X147489088Y-101987434D01*
X147487987Y-101988108D01*
X147314993Y-102113796D01*
X147314990Y-102113798D01*
X147163798Y-102264990D01*
X147163796Y-102264993D01*
X147038108Y-102437987D01*
X146941029Y-102628515D01*
X146941026Y-102628521D01*
X146874952Y-102831878D01*
X146874951Y-102831883D01*
X146874951Y-102831884D01*
X146841500Y-103043084D01*
X146841500Y-103256916D01*
X146874951Y-103468116D01*
X146874952Y-103468121D01*
X146909646Y-103574899D01*
X146941028Y-103671483D01*
X147038106Y-103862009D01*
X147038108Y-103862012D01*
X147052887Y-103882353D01*
X147163794Y-104035004D01*
X147163796Y-104035006D01*
X147163798Y-104035009D01*
X147314990Y-104186201D01*
X147314993Y-104186203D01*
X147314996Y-104186206D01*
X147487991Y-104311894D01*
X147487996Y-104311896D01*
X147489088Y-104312566D01*
X147489418Y-104312931D01*
X147491996Y-104314804D01*
X147491602Y-104315345D01*
X147536721Y-104365213D01*
X147548328Y-104435255D01*
X147520226Y-104500453D01*
X147491870Y-104525023D01*
X147491996Y-104525196D01*
X147489982Y-104526658D01*
X147489088Y-104527434D01*
X147487987Y-104528108D01*
X147314993Y-104653796D01*
X147314990Y-104653798D01*
X147163798Y-104804990D01*
X147163796Y-104804993D01*
X147038108Y-104977987D01*
X146941029Y-105168515D01*
X146941026Y-105168521D01*
X146874952Y-105371878D01*
X146874951Y-105371883D01*
X146874951Y-105371884D01*
X146841500Y-105583084D01*
X146841500Y-105796916D01*
X146874951Y-106008116D01*
X146874952Y-106008121D01*
X146941026Y-106211478D01*
X146941028Y-106211483D01*
X147038106Y-106402009D01*
X147163794Y-106575004D01*
X147163796Y-106575006D01*
X147163798Y-106575009D01*
X147314990Y-106726201D01*
X147314993Y-106726203D01*
X147314996Y-106726206D01*
X147487991Y-106851894D01*
X147487996Y-106851896D01*
X147489088Y-106852566D01*
X147489418Y-106852931D01*
X147491996Y-106854804D01*
X147491602Y-106855345D01*
X147536721Y-106905213D01*
X147548328Y-106975255D01*
X147520226Y-107040453D01*
X147491870Y-107065023D01*
X147491996Y-107065196D01*
X147489982Y-107066658D01*
X147489088Y-107067434D01*
X147487987Y-107068108D01*
X147314993Y-107193796D01*
X147314990Y-107193798D01*
X147163798Y-107344990D01*
X147163796Y-107344993D01*
X147038108Y-107517987D01*
X146941029Y-107708515D01*
X146941026Y-107708521D01*
X146874952Y-107911878D01*
X146874951Y-107911883D01*
X146874951Y-107911884D01*
X146841500Y-108123084D01*
X146841500Y-108336916D01*
X146874951Y-108548116D01*
X146874952Y-108548121D01*
X146941026Y-108751478D01*
X146941028Y-108751483D01*
X147038106Y-108942009D01*
X147163794Y-109115004D01*
X147163796Y-109115006D01*
X147163798Y-109115009D01*
X147314990Y-109266201D01*
X147314993Y-109266203D01*
X147314996Y-109266206D01*
X147487991Y-109391894D01*
X147487996Y-109391896D01*
X147489088Y-109392566D01*
X147489418Y-109392931D01*
X147491996Y-109394804D01*
X147491602Y-109395345D01*
X147536721Y-109445213D01*
X147548328Y-109515255D01*
X147520226Y-109580453D01*
X147491870Y-109605023D01*
X147491996Y-109605196D01*
X147489982Y-109606658D01*
X147489088Y-109607434D01*
X147487987Y-109608108D01*
X147328586Y-109723920D01*
X147261718Y-109747779D01*
X147192567Y-109731698D01*
X147153657Y-109697493D01*
X147063261Y-109576738D01*
X146946207Y-109489112D01*
X146946202Y-109489110D01*
X146809204Y-109438011D01*
X146809196Y-109438009D01*
X146748649Y-109431500D01*
X146748638Y-109431500D01*
X145251362Y-109431500D01*
X145251350Y-109431500D01*
X145190803Y-109438009D01*
X145190795Y-109438011D01*
X145053797Y-109489110D01*
X145053792Y-109489112D01*
X144936738Y-109576738D01*
X144849112Y-109693792D01*
X144849110Y-109693797D01*
X144798011Y-109830795D01*
X144798010Y-109830802D01*
X144792993Y-109877469D01*
X144765824Y-109943061D01*
X144707506Y-109983552D01*
X144667715Y-109990000D01*
X126332285Y-109990000D01*
X126264164Y-109969998D01*
X126217671Y-109916342D01*
X126207007Y-109877469D01*
X126201989Y-109830802D01*
X126201988Y-109830795D01*
X126150889Y-109693797D01*
X126150887Y-109693792D01*
X126063261Y-109576738D01*
X125946207Y-109489112D01*
X125946202Y-109489110D01*
X125809204Y-109438011D01*
X125809196Y-109438009D01*
X125748649Y-109431500D01*
X125748638Y-109431500D01*
X124251362Y-109431500D01*
X124251350Y-109431500D01*
X124190803Y-109438009D01*
X124190795Y-109438011D01*
X124053797Y-109489110D01*
X124053792Y-109489112D01*
X123936740Y-109576737D01*
X123846342Y-109697494D01*
X123789506Y-109740040D01*
X123718690Y-109745104D01*
X123671414Y-109723920D01*
X123512009Y-109608106D01*
X123512007Y-109608105D01*
X123510920Y-109607439D01*
X123510591Y-109607075D01*
X123508004Y-109605196D01*
X123508398Y-109604652D01*
X123463283Y-109554796D01*
X123451670Y-109484756D01*
X123479766Y-109419555D01*
X123508130Y-109394978D01*
X123508004Y-109394804D01*
X123510030Y-109393331D01*
X123510920Y-109392561D01*
X123511997Y-109391899D01*
X123512009Y-109391894D01*
X123685004Y-109266206D01*
X123836206Y-109115004D01*
X123961894Y-108942009D01*
X124058972Y-108751483D01*
X124125049Y-108548116D01*
X124158500Y-108336916D01*
X124158500Y-108123084D01*
X124125049Y-107911884D01*
X124058972Y-107708517D01*
X123961894Y-107517991D01*
X123836206Y-107344996D01*
X123836203Y-107344993D01*
X123836201Y-107344990D01*
X123685009Y-107193798D01*
X123685006Y-107193796D01*
X123685004Y-107193794D01*
X123512009Y-107068106D01*
X123512007Y-107068105D01*
X123510920Y-107067439D01*
X123510591Y-107067075D01*
X123508004Y-107065196D01*
X123508398Y-107064652D01*
X123463283Y-107014796D01*
X123451670Y-106944756D01*
X123479766Y-106879555D01*
X123508130Y-106854978D01*
X123508004Y-106854804D01*
X123510030Y-106853331D01*
X123510920Y-106852561D01*
X123511997Y-106851899D01*
X123512009Y-106851894D01*
X123685004Y-106726206D01*
X123836206Y-106575004D01*
X123961894Y-106402009D01*
X124058972Y-106211483D01*
X124125049Y-106008116D01*
X124158500Y-105796916D01*
X124158500Y-105583084D01*
X124125049Y-105371884D01*
X124058972Y-105168517D01*
X123961894Y-104977991D01*
X123836206Y-104804996D01*
X123836203Y-104804993D01*
X123836201Y-104804990D01*
X123733229Y-104702018D01*
X123699203Y-104639706D01*
X123704268Y-104568891D01*
X123746815Y-104512055D01*
X123778284Y-104494871D01*
X123896204Y-104450889D01*
X123945600Y-104413912D01*
X124013261Y-104363261D01*
X124100887Y-104246207D01*
X124100887Y-104246206D01*
X124100889Y-104246204D01*
X124151989Y-104109201D01*
X124158500Y-104048638D01*
X124158500Y-102251362D01*
X124158499Y-102251350D01*
X124151990Y-102190803D01*
X124151988Y-102190795D01*
X124122924Y-102112875D01*
X124100889Y-102053796D01*
X124027311Y-101955507D01*
X124002501Y-101888989D01*
X124017592Y-101819615D01*
X124027306Y-101804497D01*
X124100889Y-101706204D01*
X124151989Y-101569201D01*
X124157300Y-101519806D01*
X124158499Y-101508649D01*
X124158500Y-101508632D01*
X124158500Y-99711367D01*
X124158499Y-99711350D01*
X124151990Y-99650803D01*
X124151988Y-99650795D01*
X124100889Y-99513797D01*
X124100889Y-99513796D01*
X124100886Y-99513792D01*
X124027311Y-99415507D01*
X124002501Y-99348989D01*
X124017592Y-99279615D01*
X124027306Y-99264497D01*
X124100889Y-99166204D01*
X124151989Y-99029201D01*
X124157300Y-98979806D01*
X124158499Y-98968649D01*
X124158500Y-98968632D01*
X124158500Y-97171367D01*
X124158499Y-97171350D01*
X124151990Y-97110803D01*
X124151988Y-97110795D01*
X124100889Y-96973797D01*
X124100889Y-96973796D01*
X124100886Y-96973792D01*
X124027311Y-96875507D01*
X124002501Y-96808989D01*
X124017592Y-96739615D01*
X124027306Y-96724497D01*
X124100889Y-96626204D01*
X124151989Y-96489201D01*
X124157300Y-96439806D01*
X124158499Y-96428649D01*
X124158500Y-96428632D01*
X124158500Y-94631367D01*
X124158499Y-94631350D01*
X124151990Y-94570803D01*
X124151988Y-94570795D01*
X124100889Y-94433797D01*
X124100889Y-94433796D01*
X124100886Y-94433792D01*
X124027311Y-94335507D01*
X124002501Y-94268989D01*
X124017592Y-94199615D01*
X124027306Y-94184497D01*
X124100889Y-94086204D01*
X124151989Y-93949201D01*
X124157300Y-93899806D01*
X124158499Y-93888649D01*
X124158500Y-93888632D01*
X124158500Y-92091367D01*
X124158499Y-92091350D01*
X124151990Y-92030803D01*
X124151988Y-92030795D01*
X124100889Y-91893797D01*
X124100889Y-91893796D01*
X124100886Y-91893792D01*
X124027311Y-91795507D01*
X124002501Y-91728989D01*
X124017592Y-91659615D01*
X124027306Y-91644497D01*
X124100889Y-91546204D01*
X124151989Y-91409201D01*
X124157300Y-91359806D01*
X124158499Y-91348649D01*
X124158500Y-91348632D01*
X124158500Y-89551367D01*
X124158499Y-89551350D01*
X124151990Y-89490803D01*
X124151988Y-89490795D01*
X124100889Y-89353797D01*
X124100889Y-89353796D01*
X124100886Y-89353792D01*
X124027311Y-89255507D01*
X124002501Y-89188989D01*
X124017592Y-89119615D01*
X124027306Y-89104497D01*
X124100889Y-89006204D01*
X124151989Y-88869201D01*
X124157300Y-88819806D01*
X124158499Y-88808649D01*
X124158500Y-88808632D01*
X124158500Y-87011367D01*
X124158499Y-87011350D01*
X124151990Y-86950803D01*
X124151988Y-86950795D01*
X124100889Y-86813797D01*
X124100887Y-86813792D01*
X124013261Y-86696738D01*
X123896207Y-86609112D01*
X123896203Y-86609110D01*
X123778291Y-86565131D01*
X123721455Y-86522585D01*
X123696645Y-86456064D01*
X123711737Y-86386690D01*
X123733226Y-86357983D01*
X123836206Y-86255004D01*
X123961894Y-86082009D01*
X124058972Y-85891483D01*
X124125049Y-85688116D01*
X124158500Y-85476916D01*
X124158500Y-85263084D01*
X124125049Y-85051884D01*
X124058972Y-84848517D01*
X123961894Y-84657991D01*
X123836206Y-84484996D01*
X123836203Y-84484993D01*
X123836201Y-84484990D01*
X123733229Y-84382018D01*
X123699203Y-84319706D01*
X123704268Y-84248891D01*
X123746815Y-84192055D01*
X123778284Y-84174871D01*
X123896204Y-84130889D01*
X123906273Y-84123352D01*
X124013261Y-84043261D01*
X124100887Y-83926207D01*
X124100887Y-83926206D01*
X124100889Y-83926204D01*
X124151989Y-83789201D01*
X124158500Y-83728638D01*
X124158500Y-81931362D01*
X124152186Y-81872628D01*
X124151990Y-81870803D01*
X124151988Y-81870795D01*
X124100889Y-81733797D01*
X124100887Y-81733792D01*
X124013261Y-81616738D01*
X123896207Y-81529112D01*
X123896202Y-81529110D01*
X123759204Y-81478011D01*
X123759196Y-81478009D01*
X123698649Y-81471500D01*
X123698638Y-81471500D01*
X121901362Y-81471500D01*
X121901350Y-81471500D01*
X121840803Y-81478009D01*
X121840795Y-81478011D01*
X121703797Y-81529110D01*
X121703792Y-81529112D01*
X121586738Y-81616738D01*
X121499112Y-81733792D01*
X121499110Y-81733797D01*
X121448011Y-81870795D01*
X121448009Y-81870803D01*
X121441500Y-81931350D01*
X121441500Y-83728649D01*
X121448009Y-83789196D01*
X121448011Y-83789204D01*
X121499110Y-83926202D01*
X121499112Y-83926207D01*
X121586738Y-84043261D01*
X121703791Y-84130886D01*
X121703792Y-84130886D01*
X121703796Y-84130889D01*
X121821711Y-84174869D01*
X121878543Y-84217414D01*
X121903354Y-84283934D01*
X121888263Y-84353308D01*
X121866771Y-84382018D01*
X121763794Y-84484995D01*
X121638108Y-84657987D01*
X121541029Y-84848515D01*
X121541026Y-84848521D01*
X121474952Y-85051878D01*
X121474951Y-85051883D01*
X121474951Y-85051884D01*
X121441500Y-85263084D01*
X121441500Y-85476916D01*
X121474951Y-85688116D01*
X121474952Y-85688121D01*
X121541026Y-85891478D01*
X121541028Y-85891483D01*
X121638106Y-86082009D01*
X121763794Y-86255004D01*
X121763796Y-86255006D01*
X121763798Y-86255009D01*
X121866770Y-86357981D01*
X121900796Y-86420293D01*
X121895731Y-86491108D01*
X121853184Y-86547944D01*
X121821708Y-86565131D01*
X121703797Y-86609110D01*
X121703792Y-86609112D01*
X121586738Y-86696738D01*
X121499112Y-86813792D01*
X121499110Y-86813797D01*
X121448011Y-86950795D01*
X121448009Y-86950803D01*
X121441500Y-87011350D01*
X121441500Y-88808649D01*
X121448009Y-88869196D01*
X121448011Y-88869204D01*
X121499110Y-89006202D01*
X121499112Y-89006207D01*
X121572687Y-89104491D01*
X121597498Y-89171011D01*
X121582407Y-89240385D01*
X121572687Y-89255509D01*
X121499112Y-89353792D01*
X121499110Y-89353797D01*
X121448011Y-89490795D01*
X121448009Y-89490803D01*
X121441500Y-89551350D01*
X121441500Y-91348649D01*
X121448009Y-91409196D01*
X121448011Y-91409204D01*
X121499110Y-91546202D01*
X121499112Y-91546207D01*
X121572687Y-91644491D01*
X121597498Y-91711011D01*
X121582407Y-91780385D01*
X121572687Y-91795509D01*
X121499112Y-91893792D01*
X121499110Y-91893797D01*
X121448011Y-92030795D01*
X121448009Y-92030803D01*
X121441500Y-92091350D01*
X121441500Y-92228500D01*
X121421498Y-92296621D01*
X121367842Y-92343114D01*
X121315500Y-92354500D01*
X119924623Y-92354500D01*
X119856502Y-92334498D01*
X119835528Y-92317595D01*
X118447112Y-90929179D01*
X118413086Y-90866867D01*
X118416374Y-90801146D01*
X118419049Y-90792916D01*
X118452500Y-90581716D01*
X118452500Y-90367884D01*
X118419049Y-90156684D01*
X118352972Y-89953317D01*
X118255894Y-89762791D01*
X118130206Y-89589796D01*
X118130203Y-89589793D01*
X118130201Y-89589790D01*
X117979009Y-89438598D01*
X117979006Y-89438596D01*
X117979004Y-89438594D01*
X117806009Y-89312906D01*
X117806007Y-89312905D01*
X117804920Y-89312239D01*
X117804591Y-89311875D01*
X117802004Y-89309996D01*
X117802398Y-89309452D01*
X117757283Y-89259596D01*
X117745670Y-89189556D01*
X117773766Y-89124355D01*
X117802130Y-89099778D01*
X117802004Y-89099604D01*
X117804030Y-89098131D01*
X117804920Y-89097361D01*
X117805997Y-89096699D01*
X117806009Y-89096694D01*
X117979004Y-88971006D01*
X118130206Y-88819804D01*
X118255894Y-88646809D01*
X118352972Y-88456283D01*
X118419049Y-88252916D01*
X118452500Y-88041716D01*
X118452500Y-87827884D01*
X118419049Y-87616684D01*
X118352972Y-87413317D01*
X118255894Y-87222791D01*
X118130206Y-87049796D01*
X118130203Y-87049793D01*
X118130201Y-87049790D01*
X117979009Y-86898598D01*
X117979006Y-86898596D01*
X117979004Y-86898594D01*
X117806009Y-86772906D01*
X117615483Y-86675828D01*
X117615480Y-86675827D01*
X117615478Y-86675826D01*
X117412120Y-86609752D01*
X117412123Y-86609752D01*
X117372801Y-86603524D01*
X117200916Y-86576300D01*
X116987084Y-86576300D01*
X116775884Y-86609751D01*
X116775878Y-86609752D01*
X116572521Y-86675826D01*
X116572515Y-86675829D01*
X116381987Y-86772908D01*
X116208993Y-86898596D01*
X116208990Y-86898598D01*
X116057798Y-87049790D01*
X116057796Y-87049793D01*
X115932108Y-87222787D01*
X115835029Y-87413315D01*
X115835026Y-87413321D01*
X115768952Y-87616678D01*
X115768951Y-87616683D01*
X115768951Y-87616684D01*
X115735500Y-87827884D01*
X115735500Y-88041716D01*
X115765023Y-88228116D01*
X115768952Y-88252922D01*
X115771626Y-88261151D01*
X115773651Y-88332118D01*
X115740887Y-88389178D01*
X114199692Y-89930375D01*
X114111177Y-90018889D01*
X114111172Y-90018896D01*
X114041627Y-90122977D01*
X113993724Y-90238625D01*
X113993722Y-90238630D01*
X113969300Y-90361406D01*
X113969300Y-90361409D01*
X113969300Y-110132209D01*
X113969300Y-110257391D01*
X113993722Y-110380169D01*
X114041627Y-110495822D01*
X114111175Y-110599908D01*
X114111177Y-110599910D01*
X121404595Y-117893328D01*
X121438621Y-117955640D01*
X121441500Y-117982423D01*
X121441500Y-119288649D01*
X121448009Y-119349196D01*
X121448011Y-119349204D01*
X121499110Y-119486202D01*
X121499112Y-119486207D01*
X121572687Y-119584491D01*
X121597498Y-119651011D01*
X121582407Y-119720385D01*
X121572687Y-119735509D01*
X121499112Y-119833792D01*
X121499110Y-119833797D01*
X121448011Y-119970795D01*
X121448009Y-119970803D01*
X121441500Y-120031350D01*
X121441500Y-121463300D01*
X121421498Y-121531421D01*
X121367842Y-121577914D01*
X121315500Y-121589300D01*
X121095406Y-121589300D01*
X120972630Y-121613722D01*
X120972625Y-121613724D01*
X120856977Y-121661627D01*
X120752896Y-121731172D01*
X120752889Y-121731177D01*
X120664377Y-121819689D01*
X120664372Y-121819696D01*
X120594827Y-121923777D01*
X120546924Y-122039425D01*
X120546922Y-122039430D01*
X120522500Y-122162206D01*
X120522500Y-122162209D01*
X120522500Y-125921409D01*
X120522500Y-126046591D01*
X120546922Y-126169369D01*
X120594827Y-126285022D01*
X120664375Y-126389108D01*
X120690375Y-126415108D01*
X120778892Y-126503625D01*
X120882978Y-126573173D01*
X120998631Y-126621078D01*
X120998635Y-126621078D01*
X120998636Y-126621079D01*
X121019000Y-126625130D01*
X121019001Y-126625130D01*
X121121409Y-126645501D01*
X121121414Y-126645501D01*
X121252804Y-126645501D01*
X121252824Y-126645500D01*
X121315500Y-126645500D01*
X121383621Y-126665502D01*
X121430114Y-126719158D01*
X121441500Y-126771500D01*
X121441500Y-126908649D01*
X121448009Y-126969196D01*
X121448011Y-126969204D01*
X121499110Y-127106202D01*
X121499112Y-127106207D01*
X121572687Y-127204491D01*
X121597498Y-127271011D01*
X121582407Y-127340385D01*
X121572687Y-127355509D01*
X121499112Y-127453792D01*
X121499110Y-127453797D01*
X121448011Y-127590795D01*
X121448009Y-127590803D01*
X121441500Y-127651350D01*
X121441500Y-129448649D01*
X121448009Y-129509196D01*
X121448011Y-129509204D01*
X121499110Y-129646202D01*
X121499112Y-129646207D01*
X121586738Y-129763261D01*
X121703791Y-129850886D01*
X121703792Y-129850886D01*
X121703796Y-129850889D01*
X121821711Y-129894869D01*
X121878543Y-129937414D01*
X121903354Y-130003934D01*
X121888263Y-130073308D01*
X121866771Y-130102018D01*
X121763794Y-130204995D01*
X121638108Y-130377987D01*
X121541029Y-130568515D01*
X121541026Y-130568521D01*
X121474952Y-130771878D01*
X121474951Y-130771883D01*
X121474951Y-130771884D01*
X121441500Y-130983084D01*
X121441500Y-131196916D01*
X121474951Y-131408116D01*
X121474952Y-131408121D01*
X121541026Y-131611478D01*
X121541028Y-131611483D01*
X121638106Y-131802009D01*
X121763794Y-131975004D01*
X121763796Y-131975006D01*
X121763798Y-131975009D01*
X121866770Y-132077981D01*
X121900796Y-132140293D01*
X121895731Y-132211108D01*
X121853184Y-132267944D01*
X121821708Y-132285131D01*
X121703797Y-132329110D01*
X121703792Y-132329112D01*
X121586738Y-132416738D01*
X121499112Y-132533792D01*
X121499110Y-132533797D01*
X121448011Y-132670795D01*
X121448009Y-132670803D01*
X121441500Y-132731350D01*
X121441500Y-132868500D01*
X121421498Y-132936621D01*
X121367842Y-132983114D01*
X121315500Y-132994500D01*
X121120206Y-132994500D01*
X120997430Y-133018922D01*
X120997425Y-133018924D01*
X120881777Y-133066827D01*
X120777696Y-133136372D01*
X120777689Y-133136377D01*
X120664377Y-133249689D01*
X120664372Y-133249696D01*
X120594827Y-133353777D01*
X120546924Y-133469425D01*
X120546922Y-133469430D01*
X120522500Y-133592206D01*
X120522500Y-137781393D01*
X120546922Y-137904169D01*
X120546924Y-137904174D01*
X120594827Y-138019822D01*
X120602161Y-138030798D01*
X120623376Y-138098551D01*
X120604593Y-138167018D01*
X120551775Y-138214461D01*
X120497396Y-138226800D01*
X113123804Y-138226800D01*
X113055683Y-138206798D01*
X113009190Y-138153142D01*
X112997804Y-138100796D01*
X112997807Y-138030798D01*
X112997941Y-134178709D01*
X115149500Y-134178709D01*
X115149500Y-134421290D01*
X115181160Y-134661782D01*
X115243944Y-134896095D01*
X115243945Y-134896097D01*
X115243946Y-134896100D01*
X115336776Y-135120212D01*
X115336777Y-135120213D01*
X115336782Y-135120224D01*
X115458061Y-135330285D01*
X115458063Y-135330288D01*
X115458064Y-135330289D01*
X115605735Y-135522738D01*
X115605739Y-135522742D01*
X115605744Y-135522748D01*
X115777251Y-135694255D01*
X115777256Y-135694259D01*
X115777262Y-135694265D01*
X115969711Y-135841936D01*
X115969714Y-135841938D01*
X116179775Y-135963217D01*
X116179779Y-135963218D01*
X116179788Y-135963224D01*
X116403900Y-136056054D01*
X116638211Y-136118838D01*
X116638215Y-136118838D01*
X116638217Y-136118839D01*
X116700202Y-136126999D01*
X116878712Y-136150500D01*
X116878719Y-136150500D01*
X117121281Y-136150500D01*
X117121288Y-136150500D01*
X117338637Y-136121885D01*
X117361782Y-136118839D01*
X117361782Y-136118838D01*
X117361789Y-136118838D01*
X117596100Y-136056054D01*
X117820212Y-135963224D01*
X118030289Y-135841936D01*
X118222738Y-135694265D01*
X118394265Y-135522738D01*
X118541936Y-135330289D01*
X118663224Y-135120212D01*
X118756054Y-134896100D01*
X118818838Y-134661789D01*
X118850500Y-134421288D01*
X118850500Y-134178712D01*
X118818838Y-133938211D01*
X118756054Y-133703900D01*
X118663224Y-133479788D01*
X118663218Y-133479779D01*
X118663217Y-133479775D01*
X118541938Y-133269714D01*
X118526575Y-133249692D01*
X118394265Y-133077262D01*
X118394259Y-133077256D01*
X118394255Y-133077251D01*
X118222748Y-132905744D01*
X118222742Y-132905739D01*
X118222738Y-132905735D01*
X118030289Y-132758064D01*
X118030288Y-132758063D01*
X118030285Y-132758061D01*
X117820224Y-132636782D01*
X117820216Y-132636778D01*
X117820212Y-132636776D01*
X117596100Y-132543946D01*
X117596097Y-132543945D01*
X117596095Y-132543944D01*
X117361782Y-132481160D01*
X117121290Y-132449500D01*
X117121288Y-132449500D01*
X116878712Y-132449500D01*
X116878709Y-132449500D01*
X116638217Y-132481160D01*
X116403904Y-132543944D01*
X116403900Y-132543946D01*
X116179786Y-132636777D01*
X116179775Y-132636782D01*
X115969714Y-132758061D01*
X115777262Y-132905735D01*
X115777251Y-132905744D01*
X115605744Y-133077251D01*
X115605735Y-133077262D01*
X115458061Y-133269714D01*
X115336782Y-133479775D01*
X115336777Y-133479786D01*
X115243946Y-133703900D01*
X115243944Y-133703904D01*
X115181160Y-133938217D01*
X115149500Y-134178709D01*
X112997941Y-134178709D01*
X112998005Y-132329110D01*
X112998498Y-118176550D01*
X115735500Y-118176550D01*
X115735500Y-119973849D01*
X115742009Y-120034396D01*
X115742011Y-120034404D01*
X115793110Y-120171402D01*
X115793112Y-120171407D01*
X115880738Y-120288461D01*
X115997792Y-120376087D01*
X115997794Y-120376088D01*
X115997796Y-120376089D01*
X116056875Y-120398124D01*
X116134795Y-120427188D01*
X116134803Y-120427190D01*
X116195350Y-120433699D01*
X116195355Y-120433699D01*
X116195362Y-120433700D01*
X116195368Y-120433700D01*
X117992632Y-120433700D01*
X117992638Y-120433700D01*
X117992645Y-120433699D01*
X117992649Y-120433699D01*
X118053196Y-120427190D01*
X118053199Y-120427189D01*
X118053201Y-120427189D01*
X118190204Y-120376089D01*
X118307261Y-120288461D01*
X118394889Y-120171404D01*
X118442038Y-120044993D01*
X118445988Y-120034404D01*
X118445990Y-120034396D01*
X118452499Y-119973849D01*
X118452500Y-119973832D01*
X118452500Y-118176567D01*
X118452499Y-118176550D01*
X118445990Y-118116003D01*
X118445988Y-118115995D01*
X118394889Y-117978997D01*
X118394887Y-117978992D01*
X118307261Y-117861938D01*
X118190207Y-117774312D01*
X118190202Y-117774310D01*
X118053204Y-117723211D01*
X118053196Y-117723209D01*
X117992649Y-117716700D01*
X117992638Y-117716700D01*
X117974138Y-117716700D01*
X117906017Y-117696698D01*
X117885043Y-117679795D01*
X117223410Y-117018162D01*
X117286993Y-117001125D01*
X117401007Y-116935299D01*
X117494099Y-116842207D01*
X117559925Y-116728193D01*
X117576962Y-116664610D01*
X118209269Y-117296917D01*
X118209270Y-117296916D01*
X118248620Y-117242757D01*
X118248621Y-117242755D01*
X118345092Y-117053421D01*
X118345095Y-117053415D01*
X118410756Y-116851331D01*
X118444000Y-116641443D01*
X118444000Y-116428956D01*
X118410756Y-116219068D01*
X118345095Y-116016984D01*
X118345092Y-116016978D01*
X118248622Y-115827646D01*
X118209269Y-115773482D01*
X117576962Y-116405789D01*
X117559925Y-116342207D01*
X117494099Y-116228193D01*
X117401007Y-116135101D01*
X117286993Y-116069275D01*
X117223409Y-116052237D01*
X117855716Y-115419930D01*
X117855716Y-115419929D01*
X117801553Y-115380577D01*
X117612221Y-115284107D01*
X117612215Y-115284104D01*
X117410129Y-115218443D01*
X117410133Y-115218443D01*
X117200244Y-115185200D01*
X116987756Y-115185200D01*
X116777868Y-115218443D01*
X116575784Y-115284104D01*
X116575778Y-115284107D01*
X116386447Y-115380576D01*
X116386446Y-115380577D01*
X116332282Y-115419929D01*
X116964591Y-116052237D01*
X116901007Y-116069275D01*
X116786993Y-116135101D01*
X116693901Y-116228193D01*
X116628075Y-116342207D01*
X116611037Y-116405790D01*
X115978729Y-115773482D01*
X115939377Y-115827646D01*
X115939376Y-115827647D01*
X115842907Y-116016978D01*
X115842904Y-116016984D01*
X115777243Y-116219068D01*
X115744000Y-116428956D01*
X115744000Y-116641443D01*
X115777243Y-116851331D01*
X115842904Y-117053415D01*
X115842907Y-117053421D01*
X115939377Y-117242753D01*
X115978729Y-117296916D01*
X115978730Y-117296916D01*
X116611037Y-116664609D01*
X116628075Y-116728193D01*
X116693901Y-116842207D01*
X116786993Y-116935299D01*
X116901007Y-117001125D01*
X116964590Y-117018162D01*
X116302956Y-117679796D01*
X116240644Y-117713821D01*
X116213861Y-117716700D01*
X116195350Y-117716700D01*
X116134803Y-117723209D01*
X116134795Y-117723211D01*
X115997797Y-117774310D01*
X115997792Y-117774312D01*
X115880738Y-117861938D01*
X115793112Y-117978992D01*
X115793110Y-117978997D01*
X115742011Y-118115995D01*
X115742009Y-118116003D01*
X115735500Y-118176550D01*
X112998498Y-118176550D01*
X112998498Y-118173184D01*
X112998559Y-116423998D01*
X112998592Y-115467947D01*
X112999869Y-78778709D01*
X115149500Y-78778709D01*
X115149500Y-79021290D01*
X115181160Y-79261782D01*
X115243944Y-79496095D01*
X115243945Y-79496097D01*
X115243946Y-79496100D01*
X115336776Y-79720212D01*
X115336777Y-79720213D01*
X115336782Y-79720224D01*
X115458061Y-79930285D01*
X115458063Y-79930288D01*
X115458064Y-79930289D01*
X115605735Y-80122738D01*
X115605739Y-80122742D01*
X115605744Y-80122748D01*
X115777251Y-80294255D01*
X115777256Y-80294259D01*
X115777262Y-80294265D01*
X115969711Y-80441936D01*
X115969714Y-80441938D01*
X116179775Y-80563217D01*
X116179779Y-80563218D01*
X116179788Y-80563224D01*
X116403900Y-80656054D01*
X116638211Y-80718838D01*
X116638215Y-80718838D01*
X116638217Y-80718839D01*
X116700202Y-80726999D01*
X116878712Y-80750500D01*
X116878719Y-80750500D01*
X117121281Y-80750500D01*
X117121288Y-80750500D01*
X117338637Y-80721885D01*
X117361782Y-80718839D01*
X117361782Y-80718838D01*
X117361789Y-80718838D01*
X117596100Y-80656054D01*
X117820212Y-80563224D01*
X118030289Y-80441936D01*
X118222738Y-80294265D01*
X118394265Y-80122738D01*
X118541936Y-79930289D01*
X118663224Y-79720212D01*
X118756054Y-79496100D01*
X118818838Y-79261789D01*
X118850500Y-79021288D01*
X118850500Y-78778712D01*
X118850500Y-78778709D01*
X152149500Y-78778709D01*
X152149500Y-79021290D01*
X152181160Y-79261782D01*
X152243944Y-79496095D01*
X152243945Y-79496097D01*
X152243946Y-79496100D01*
X152336776Y-79720212D01*
X152336777Y-79720213D01*
X152336782Y-79720224D01*
X152458061Y-79930285D01*
X152458063Y-79930288D01*
X152458064Y-79930289D01*
X152605735Y-80122738D01*
X152605739Y-80122742D01*
X152605744Y-80122748D01*
X152777251Y-80294255D01*
X152777256Y-80294259D01*
X152777262Y-80294265D01*
X152969711Y-80441936D01*
X152969714Y-80441938D01*
X153179775Y-80563217D01*
X153179779Y-80563218D01*
X153179788Y-80563224D01*
X153403900Y-80656054D01*
X153638211Y-80718838D01*
X153638215Y-80718838D01*
X153638217Y-80718839D01*
X153700202Y-80726999D01*
X153878712Y-80750500D01*
X153878719Y-80750500D01*
X154121281Y-80750500D01*
X154121288Y-80750500D01*
X154338637Y-80721885D01*
X154361782Y-80718839D01*
X154361782Y-80718838D01*
X154361789Y-80718838D01*
X154596100Y-80656054D01*
X154820212Y-80563224D01*
X155030289Y-80441936D01*
X155222738Y-80294265D01*
X155394265Y-80122738D01*
X155541936Y-79930289D01*
X155663224Y-79720212D01*
X155756054Y-79496100D01*
X155818838Y-79261789D01*
X155850500Y-79021288D01*
X155850500Y-78778712D01*
X155818838Y-78538211D01*
X155756054Y-78303900D01*
X155663224Y-78079788D01*
X155663218Y-78079779D01*
X155663217Y-78079775D01*
X155541938Y-77869714D01*
X155541936Y-77869711D01*
X155394265Y-77677262D01*
X155394259Y-77677256D01*
X155394255Y-77677251D01*
X155222748Y-77505744D01*
X155222742Y-77505739D01*
X155222738Y-77505735D01*
X155030289Y-77358064D01*
X155030288Y-77358063D01*
X155030285Y-77358061D01*
X154820224Y-77236782D01*
X154820216Y-77236778D01*
X154820212Y-77236776D01*
X154596100Y-77143946D01*
X154596097Y-77143945D01*
X154596095Y-77143944D01*
X154361782Y-77081160D01*
X154121290Y-77049500D01*
X154121288Y-77049500D01*
X153878712Y-77049500D01*
X153878709Y-77049500D01*
X153638217Y-77081160D01*
X153403904Y-77143944D01*
X153403900Y-77143946D01*
X153179786Y-77236777D01*
X153179775Y-77236782D01*
X152969714Y-77358061D01*
X152777262Y-77505735D01*
X152777251Y-77505744D01*
X152605744Y-77677251D01*
X152605735Y-77677262D01*
X152458061Y-77869714D01*
X152336782Y-78079775D01*
X152336777Y-78079786D01*
X152243946Y-78303900D01*
X152243944Y-78303904D01*
X152181160Y-78538217D01*
X152149500Y-78778709D01*
X118850500Y-78778709D01*
X118818838Y-78538211D01*
X118756054Y-78303900D01*
X118663224Y-78079788D01*
X118663218Y-78079779D01*
X118663217Y-78079775D01*
X118541938Y-77869714D01*
X118541936Y-77869711D01*
X118394265Y-77677262D01*
X118394259Y-77677256D01*
X118394255Y-77677251D01*
X118222748Y-77505744D01*
X118222742Y-77505739D01*
X118222738Y-77505735D01*
X118030289Y-77358064D01*
X118030288Y-77358063D01*
X118030285Y-77358061D01*
X117820224Y-77236782D01*
X117820216Y-77236778D01*
X117820212Y-77236776D01*
X117596100Y-77143946D01*
X117596097Y-77143945D01*
X117596095Y-77143944D01*
X117361782Y-77081160D01*
X117121290Y-77049500D01*
X117121288Y-77049500D01*
X116878712Y-77049500D01*
X116878709Y-77049500D01*
X116638217Y-77081160D01*
X116403904Y-77143944D01*
X116403900Y-77143946D01*
X116179786Y-77236777D01*
X116179775Y-77236782D01*
X115969714Y-77358061D01*
X115777262Y-77505735D01*
X115777251Y-77505744D01*
X115605744Y-77677251D01*
X115605735Y-77677262D01*
X115458061Y-77869714D01*
X115336782Y-78079775D01*
X115336777Y-78079786D01*
X115243946Y-78303900D01*
X115243944Y-78303904D01*
X115181160Y-78538217D01*
X115149500Y-78778709D01*
X112999869Y-78778709D01*
X112999869Y-78774583D01*
X112999996Y-75125996D01*
X113020000Y-75057876D01*
X113073658Y-75011385D01*
X113125996Y-75000000D01*
X157874000Y-75000000D01*
X157942121Y-75020002D01*
G37*
%TD.AperFunction*%
%TA.AperFunction,Conductor*%
G36*
X115653532Y-90378167D02*
G01*
X115710368Y-90420714D01*
X115735179Y-90487234D01*
X115735500Y-90496223D01*
X115735500Y-90581716D01*
X115765023Y-90768116D01*
X115768952Y-90792921D01*
X115826968Y-90971478D01*
X115835028Y-90996283D01*
X115932106Y-91186809D01*
X116057794Y-91359804D01*
X116057796Y-91359806D01*
X116057798Y-91359809D01*
X116208990Y-91511001D01*
X116208993Y-91511003D01*
X116208996Y-91511006D01*
X116381991Y-91636694D01*
X116381996Y-91636696D01*
X116383088Y-91637366D01*
X116383418Y-91637731D01*
X116385996Y-91639604D01*
X116385602Y-91640145D01*
X116430721Y-91690013D01*
X116442328Y-91760055D01*
X116414226Y-91825253D01*
X116385870Y-91849823D01*
X116385996Y-91849996D01*
X116383982Y-91851458D01*
X116383088Y-91852234D01*
X116381987Y-91852908D01*
X116208993Y-91978596D01*
X116208990Y-91978598D01*
X116057798Y-92129790D01*
X116057796Y-92129793D01*
X115932108Y-92302787D01*
X115835029Y-92493315D01*
X115835026Y-92493321D01*
X115768952Y-92696678D01*
X115768951Y-92696683D01*
X115768951Y-92696684D01*
X115735500Y-92907884D01*
X115735500Y-93121716D01*
X115765023Y-93308116D01*
X115768952Y-93332921D01*
X115817919Y-93483627D01*
X115835028Y-93536283D01*
X115932106Y-93726809D01*
X116057794Y-93899804D01*
X116057796Y-93899806D01*
X116057798Y-93899809D01*
X116208990Y-94051001D01*
X116208993Y-94051003D01*
X116208996Y-94051006D01*
X116381991Y-94176694D01*
X116381996Y-94176696D01*
X116383088Y-94177366D01*
X116383418Y-94177731D01*
X116385996Y-94179604D01*
X116385602Y-94180145D01*
X116430721Y-94230013D01*
X116442328Y-94300055D01*
X116414226Y-94365253D01*
X116385870Y-94389823D01*
X116385996Y-94389996D01*
X116383982Y-94391458D01*
X116383088Y-94392234D01*
X116381987Y-94392908D01*
X116208993Y-94518596D01*
X116208990Y-94518598D01*
X116057798Y-94669790D01*
X116057796Y-94669793D01*
X115932108Y-94842787D01*
X115835029Y-95033315D01*
X115835026Y-95033321D01*
X115768952Y-95236678D01*
X115768951Y-95236683D01*
X115768951Y-95236684D01*
X115735500Y-95447884D01*
X115735500Y-95661716D01*
X115765023Y-95848116D01*
X115768952Y-95872921D01*
X115826968Y-96051478D01*
X115835028Y-96076283D01*
X115932106Y-96266809D01*
X116057794Y-96439804D01*
X116057796Y-96439806D01*
X116057798Y-96439809D01*
X116208990Y-96591001D01*
X116208993Y-96591003D01*
X116208996Y-96591006D01*
X116381991Y-96716694D01*
X116381996Y-96716696D01*
X116383088Y-96717366D01*
X116383418Y-96717731D01*
X116385996Y-96719604D01*
X116385602Y-96720145D01*
X116430721Y-96770013D01*
X116442328Y-96840055D01*
X116414226Y-96905253D01*
X116385870Y-96929823D01*
X116385996Y-96929996D01*
X116383982Y-96931458D01*
X116383088Y-96932234D01*
X116381987Y-96932908D01*
X116208993Y-97058596D01*
X116208990Y-97058598D01*
X116057798Y-97209790D01*
X116057796Y-97209793D01*
X115932108Y-97382787D01*
X115835029Y-97573315D01*
X115835026Y-97573321D01*
X115768952Y-97776678D01*
X115768951Y-97776683D01*
X115768951Y-97776684D01*
X115735500Y-97987884D01*
X115735500Y-98201716D01*
X115765023Y-98388116D01*
X115768952Y-98412921D01*
X115826968Y-98591478D01*
X115835028Y-98616283D01*
X115932106Y-98806809D01*
X116057794Y-98979804D01*
X116057796Y-98979806D01*
X116057798Y-98979809D01*
X116208990Y-99131001D01*
X116208993Y-99131003D01*
X116208996Y-99131006D01*
X116381991Y-99256694D01*
X116381996Y-99256696D01*
X116383088Y-99257366D01*
X116383418Y-99257731D01*
X116385996Y-99259604D01*
X116385602Y-99260145D01*
X116430721Y-99310013D01*
X116442328Y-99380055D01*
X116414226Y-99445253D01*
X116385870Y-99469823D01*
X116385996Y-99469996D01*
X116383982Y-99471458D01*
X116383088Y-99472234D01*
X116381987Y-99472908D01*
X116208993Y-99598596D01*
X116208990Y-99598598D01*
X116057798Y-99749790D01*
X116057796Y-99749793D01*
X115932108Y-99922787D01*
X115835029Y-100113315D01*
X115835026Y-100113321D01*
X115768952Y-100316678D01*
X115768951Y-100316683D01*
X115768951Y-100316684D01*
X115735500Y-100527884D01*
X115735500Y-100741716D01*
X115765023Y-100928116D01*
X115768952Y-100952921D01*
X115826968Y-101131478D01*
X115835028Y-101156283D01*
X115932106Y-101346809D01*
X116057794Y-101519804D01*
X116057796Y-101519806D01*
X116057798Y-101519809D01*
X116208990Y-101671001D01*
X116208993Y-101671003D01*
X116208996Y-101671006D01*
X116381991Y-101796694D01*
X116383181Y-101797300D01*
X116383553Y-101797651D01*
X116386209Y-101799279D01*
X116385867Y-101799836D01*
X116434799Y-101846045D01*
X116451870Y-101914959D01*
X116428973Y-101982162D01*
X116389779Y-102016136D01*
X116390670Y-102017589D01*
X116386446Y-102020177D01*
X116332282Y-102059529D01*
X116332282Y-102059530D01*
X116964590Y-102691837D01*
X116901007Y-102708875D01*
X116786993Y-102774701D01*
X116693901Y-102867793D01*
X116628075Y-102981807D01*
X116611037Y-103045390D01*
X115978729Y-102413082D01*
X115939377Y-102467246D01*
X115939376Y-102467247D01*
X115842907Y-102656578D01*
X115842904Y-102656584D01*
X115777243Y-102858668D01*
X115744000Y-103068556D01*
X115744000Y-103281043D01*
X115777243Y-103490931D01*
X115842904Y-103693015D01*
X115842907Y-103693021D01*
X115939377Y-103882353D01*
X115978729Y-103936516D01*
X115978730Y-103936516D01*
X116611037Y-103304209D01*
X116628075Y-103367793D01*
X116693901Y-103481807D01*
X116786993Y-103574899D01*
X116901007Y-103640725D01*
X116964590Y-103657762D01*
X116302956Y-104319396D01*
X116240644Y-104353421D01*
X116213861Y-104356300D01*
X116195350Y-104356300D01*
X116134803Y-104362809D01*
X116134795Y-104362811D01*
X115997797Y-104413910D01*
X115997792Y-104413912D01*
X115880738Y-104501538D01*
X115793112Y-104618592D01*
X115793110Y-104618597D01*
X115742011Y-104755595D01*
X115742009Y-104755603D01*
X115735500Y-104816150D01*
X115735500Y-106613449D01*
X115742009Y-106673996D01*
X115742011Y-106674004D01*
X115793110Y-106811002D01*
X115793112Y-106811007D01*
X115880738Y-106928061D01*
X115997792Y-107015687D01*
X115997794Y-107015688D01*
X115997796Y-107015689D01*
X116056875Y-107037724D01*
X116134795Y-107066788D01*
X116134803Y-107066790D01*
X116195350Y-107073299D01*
X116195355Y-107073299D01*
X116195362Y-107073300D01*
X116195368Y-107073300D01*
X117992632Y-107073300D01*
X117992638Y-107073300D01*
X117992645Y-107073299D01*
X117992649Y-107073299D01*
X118053196Y-107066790D01*
X118053199Y-107066789D01*
X118053201Y-107066789D01*
X118053553Y-107066658D01*
X118072045Y-107059760D01*
X118190204Y-107015689D01*
X118244218Y-106975255D01*
X118307261Y-106928061D01*
X118394887Y-106811007D01*
X118394887Y-106811006D01*
X118394889Y-106811004D01*
X118445989Y-106674001D01*
X118452500Y-106613438D01*
X118452500Y-104816162D01*
X118451300Y-104804996D01*
X118445990Y-104755603D01*
X118445988Y-104755595D01*
X118408017Y-104653794D01*
X118394889Y-104618596D01*
X118394888Y-104618594D01*
X118394887Y-104618592D01*
X118307261Y-104501538D01*
X118190207Y-104413912D01*
X118190202Y-104413910D01*
X118053204Y-104362811D01*
X118053196Y-104362809D01*
X117992649Y-104356300D01*
X117992638Y-104356300D01*
X117974138Y-104356300D01*
X117906017Y-104336298D01*
X117885043Y-104319395D01*
X117223410Y-103657762D01*
X117286993Y-103640725D01*
X117401007Y-103574899D01*
X117494099Y-103481807D01*
X117559925Y-103367793D01*
X117576962Y-103304209D01*
X118209269Y-103936517D01*
X118209270Y-103936516D01*
X118248620Y-103882357D01*
X118248621Y-103882355D01*
X118345092Y-103693021D01*
X118345095Y-103693015D01*
X118410756Y-103490931D01*
X118444000Y-103281043D01*
X118444000Y-103187723D01*
X118464002Y-103119602D01*
X118517658Y-103073109D01*
X118587932Y-103063005D01*
X118652512Y-103092499D01*
X118659095Y-103098628D01*
X121428380Y-105867913D01*
X121462406Y-105930225D01*
X121463733Y-105937296D01*
X121474950Y-106008112D01*
X121474952Y-106008120D01*
X121474952Y-106008121D01*
X121541028Y-106211483D01*
X121638106Y-106402009D01*
X121763794Y-106575004D01*
X121763796Y-106575006D01*
X121763798Y-106575009D01*
X121914990Y-106726201D01*
X121914993Y-106726203D01*
X121914996Y-106726206D01*
X122087991Y-106851894D01*
X122087996Y-106851896D01*
X122089088Y-106852566D01*
X122089418Y-106852931D01*
X122091996Y-106854804D01*
X122091602Y-106855345D01*
X122136721Y-106905213D01*
X122148328Y-106975255D01*
X122120226Y-107040453D01*
X122091870Y-107065023D01*
X122091996Y-107065196D01*
X122089982Y-107066658D01*
X122089088Y-107067434D01*
X122087987Y-107068108D01*
X121914993Y-107193796D01*
X121914990Y-107193798D01*
X121763798Y-107344990D01*
X121763796Y-107344993D01*
X121638108Y-107517987D01*
X121541029Y-107708515D01*
X121541026Y-107708521D01*
X121474952Y-107911878D01*
X121474951Y-107911883D01*
X121474951Y-107911884D01*
X121441500Y-108123084D01*
X121441500Y-108336916D01*
X121474951Y-108548116D01*
X121474952Y-108548121D01*
X121541026Y-108751478D01*
X121541028Y-108751483D01*
X121638106Y-108942009D01*
X121763794Y-109115004D01*
X121763796Y-109115006D01*
X121763798Y-109115009D01*
X121914990Y-109266201D01*
X121914993Y-109266203D01*
X121914996Y-109266206D01*
X122087991Y-109391894D01*
X122087996Y-109391896D01*
X122089088Y-109392566D01*
X122089418Y-109392931D01*
X122091996Y-109394804D01*
X122091602Y-109395345D01*
X122136721Y-109445213D01*
X122148328Y-109515255D01*
X122120226Y-109580453D01*
X122091870Y-109605023D01*
X122091996Y-109605196D01*
X122089982Y-109606658D01*
X122089088Y-109607434D01*
X122087987Y-109608108D01*
X121914993Y-109733796D01*
X121914990Y-109733798D01*
X121763798Y-109884990D01*
X121763796Y-109884993D01*
X121638108Y-110057987D01*
X121541029Y-110248515D01*
X121541026Y-110248521D01*
X121474952Y-110451878D01*
X121474951Y-110451883D01*
X121474951Y-110451884D01*
X121441500Y-110663084D01*
X121441500Y-110876916D01*
X121474951Y-111088116D01*
X121474952Y-111088121D01*
X121541026Y-111291478D01*
X121541028Y-111291483D01*
X121638106Y-111482009D01*
X121763794Y-111655004D01*
X121763796Y-111655006D01*
X121763798Y-111655009D01*
X121914990Y-111806201D01*
X121914993Y-111806203D01*
X121914996Y-111806206D01*
X122087991Y-111931894D01*
X122087996Y-111931896D01*
X122089088Y-111932566D01*
X122089418Y-111932931D01*
X122091996Y-111934804D01*
X122091602Y-111935345D01*
X122136721Y-111985213D01*
X122148328Y-112055255D01*
X122120226Y-112120453D01*
X122091870Y-112145023D01*
X122091996Y-112145196D01*
X122089982Y-112146658D01*
X122089088Y-112147434D01*
X122087987Y-112148108D01*
X121914993Y-112273796D01*
X121914990Y-112273798D01*
X121763798Y-112424990D01*
X121763796Y-112424993D01*
X121638108Y-112597987D01*
X121541029Y-112788515D01*
X121541026Y-112788521D01*
X121474952Y-112991878D01*
X121474951Y-112991883D01*
X121474951Y-112991884D01*
X121441500Y-113203084D01*
X121441500Y-113416916D01*
X121474951Y-113628116D01*
X121474952Y-113628121D01*
X121541026Y-113831478D01*
X121541028Y-113831483D01*
X121638106Y-114022009D01*
X121763794Y-114195004D01*
X121763796Y-114195006D01*
X121763798Y-114195009D01*
X121914990Y-114346201D01*
X121914993Y-114346203D01*
X121914996Y-114346206D01*
X122087991Y-114471894D01*
X122087996Y-114471896D01*
X122089088Y-114472566D01*
X122089418Y-114472931D01*
X122091996Y-114474804D01*
X122091602Y-114475345D01*
X122136721Y-114525213D01*
X122148328Y-114595255D01*
X122120226Y-114660453D01*
X122091870Y-114685023D01*
X122091996Y-114685196D01*
X122089982Y-114686658D01*
X122089088Y-114687434D01*
X122087987Y-114688108D01*
X121914993Y-114813796D01*
X121914990Y-114813798D01*
X121763798Y-114964990D01*
X121763796Y-114964993D01*
X121638108Y-115137987D01*
X121541029Y-115328515D01*
X121541026Y-115328521D01*
X121474952Y-115531878D01*
X121441500Y-115743087D01*
X121441500Y-115828577D01*
X121421498Y-115896698D01*
X121367842Y-115943191D01*
X121297568Y-115953295D01*
X121232988Y-115923801D01*
X121226405Y-115917672D01*
X115277205Y-109968472D01*
X115243179Y-109906160D01*
X115240300Y-109879377D01*
X115240300Y-90739423D01*
X115260302Y-90671302D01*
X115277205Y-90650328D01*
X115520405Y-90407128D01*
X115582717Y-90373102D01*
X115653532Y-90378167D01*
G37*
%TD.AperFunction*%
%TD*%
M02*
