%TF.GenerationSoftware,KiCad,Pcbnew,10.0.6-1.fc44*%
%TF.CreationDate,2026-09-09T16:00:58+07:00*%
%TF.ProjectId,LuckFox RAP Shield,4c75636b-466f-4782-9052-415020536869,rev?*%
%TF.SameCoordinates,Original*%
%TF.FileFunction,Legend,Bot*%
%TF.FilePolarity,Positive*%
%FSLAX46Y46*%
G04 Gerber Fmt 4.6, Leading zero omitted, Abs format (unit mm)*
G04 Created by KiCad (PCBNEW 10.0.6-1.fc44) date 2026-09-09 16:00:58*
%MOMM*%
%LPD*%
G01*
G04 APERTURE LIST*
%ADD10C,0.203000*%
%ADD11C,0.200000*%
%ADD12C,0.120000*%
G04 APERTURE END LIST*
D10*
X135816933Y-108011663D02*
X135816933Y-108725948D01*
X135816933Y-108725948D02*
X135864552Y-108868805D01*
X135864552Y-108868805D02*
X135959790Y-108964044D01*
X135959790Y-108964044D02*
X136102647Y-109011663D01*
X136102647Y-109011663D02*
X136197885Y-109011663D01*
X134816933Y-109011663D02*
X135388361Y-109011663D01*
X135102647Y-109011663D02*
X135102647Y-108011663D01*
X135102647Y-108011663D02*
X135197885Y-108154520D01*
X135197885Y-108154520D02*
X135293123Y-108249758D01*
X135293123Y-108249758D02*
X135388361Y-108297377D01*
D11*
X120071428Y-137259695D02*
X120528571Y-137259695D01*
X120299999Y-137259695D02*
X120299999Y-136459695D01*
X120299999Y-136459695D02*
X120376190Y-136573980D01*
X120376190Y-136573980D02*
X120452380Y-136650171D01*
X120452380Y-136650171D02*
X120528571Y-136688266D01*
D12*
X121052381Y-111873855D02*
X121509524Y-111873855D01*
X121280952Y-111873855D02*
X121280952Y-111073855D01*
X121280952Y-111073855D02*
X121357143Y-111188140D01*
X121357143Y-111188140D02*
X121433333Y-111264331D01*
X121433333Y-111264331D02*
X121509524Y-111302426D01*
X120290476Y-111873855D02*
X120747619Y-111873855D01*
X120519047Y-111873855D02*
X120519047Y-111073855D01*
X120519047Y-111073855D02*
X120595238Y-111188140D01*
X120595238Y-111188140D02*
X120671428Y-111264331D01*
X120671428Y-111264331D02*
X120747619Y-111302426D01*
D11*
X150652381Y-111199695D02*
X151109524Y-111199695D01*
X150880952Y-111199695D02*
X150880952Y-110399695D01*
X150880952Y-110399695D02*
X150957143Y-110513980D01*
X150957143Y-110513980D02*
X151033333Y-110590171D01*
X151033333Y-110590171D02*
X151109524Y-110628266D01*
X150347619Y-110475885D02*
X150309523Y-110437790D01*
X150309523Y-110437790D02*
X150233333Y-110399695D01*
X150233333Y-110399695D02*
X150042857Y-110399695D01*
X150042857Y-110399695D02*
X149966666Y-110437790D01*
X149966666Y-110437790D02*
X149928571Y-110475885D01*
X149928571Y-110475885D02*
X149890476Y-110552076D01*
X149890476Y-110552076D02*
X149890476Y-110628266D01*
X149890476Y-110628266D02*
X149928571Y-110742552D01*
X149928571Y-110742552D02*
X150385714Y-111199695D01*
X150385714Y-111199695D02*
X149890476Y-111199695D01*
X151109524Y-135875885D02*
X151071428Y-135837790D01*
X151071428Y-135837790D02*
X150995238Y-135799695D01*
X150995238Y-135799695D02*
X150804762Y-135799695D01*
X150804762Y-135799695D02*
X150728571Y-135837790D01*
X150728571Y-135837790D02*
X150690476Y-135875885D01*
X150690476Y-135875885D02*
X150652381Y-135952076D01*
X150652381Y-135952076D02*
X150652381Y-136028266D01*
X150652381Y-136028266D02*
X150690476Y-136142552D01*
X150690476Y-136142552D02*
X151147619Y-136599695D01*
X151147619Y-136599695D02*
X150652381Y-136599695D01*
X150347619Y-135875885D02*
X150309523Y-135837790D01*
X150309523Y-135837790D02*
X150233333Y-135799695D01*
X150233333Y-135799695D02*
X150042857Y-135799695D01*
X150042857Y-135799695D02*
X149966666Y-135837790D01*
X149966666Y-135837790D02*
X149928571Y-135875885D01*
X149928571Y-135875885D02*
X149890476Y-135952076D01*
X149890476Y-135952076D02*
X149890476Y-136028266D01*
X149890476Y-136028266D02*
X149928571Y-136142552D01*
X149928571Y-136142552D02*
X150385714Y-136599695D01*
X150385714Y-136599695D02*
X149890476Y-136599695D01*
M02*
