%TF.GenerationSoftware,KiCad,Pcbnew,10.0.6-1.fc44*%
%TF.CreationDate,2026-09-11T11:05:05+07:00*%
%TF.ProjectId,LuckFox RAP Shield,4c75636b-466f-4782-9052-415020536869,rev?*%
%TF.SameCoordinates,Original*%
%TF.FileFunction,Legend,Bot*%
%TF.FilePolarity,Positive*%
%FSLAX46Y46*%
G04 Gerber Fmt 4.6, Leading zero omitted, Abs format (unit mm)*
G04 Created by KiCad (PCBNEW 10.0.6-1.fc44) date 2026-09-11 11:05:05*
%MOMM*%
%LPD*%
G01*
G04 APERTURE LIST*
%ADD10C,0.200000*%
%ADD11C,0.203000*%
G04 APERTURE END LIST*
D10*
X146600285Y-126441275D02*
X146562190Y-126479371D01*
X146562190Y-126479371D02*
X146524095Y-126555561D01*
X146524095Y-126555561D02*
X146524095Y-126746037D01*
X146524095Y-126746037D02*
X146562190Y-126822228D01*
X146562190Y-126822228D02*
X146600285Y-126860323D01*
X146600285Y-126860323D02*
X146676476Y-126898418D01*
X146676476Y-126898418D02*
X146752666Y-126898418D01*
X146752666Y-126898418D02*
X146866952Y-126860323D01*
X146866952Y-126860323D02*
X147324095Y-126403180D01*
X147324095Y-126403180D02*
X147324095Y-126898418D01*
X147324095Y-127660323D02*
X147324095Y-127203180D01*
X147324095Y-127431752D02*
X146524095Y-127431752D01*
X146524095Y-127431752D02*
X146638380Y-127355561D01*
X146638380Y-127355561D02*
X146714571Y-127279371D01*
X146714571Y-127279371D02*
X146752666Y-127203180D01*
X146600285Y-128981275D02*
X146562190Y-129019371D01*
X146562190Y-129019371D02*
X146524095Y-129095561D01*
X146524095Y-129095561D02*
X146524095Y-129286037D01*
X146524095Y-129286037D02*
X146562190Y-129362228D01*
X146562190Y-129362228D02*
X146600285Y-129400323D01*
X146600285Y-129400323D02*
X146676476Y-129438418D01*
X146676476Y-129438418D02*
X146752666Y-129438418D01*
X146752666Y-129438418D02*
X146866952Y-129400323D01*
X146866952Y-129400323D02*
X147324095Y-128943180D01*
X147324095Y-128943180D02*
X147324095Y-129438418D01*
X146524095Y-129933657D02*
X146524095Y-130009847D01*
X146524095Y-130009847D02*
X146562190Y-130086038D01*
X146562190Y-130086038D02*
X146600285Y-130124133D01*
X146600285Y-130124133D02*
X146676476Y-130162228D01*
X146676476Y-130162228D02*
X146828857Y-130200323D01*
X146828857Y-130200323D02*
X147019333Y-130200323D01*
X147019333Y-130200323D02*
X147171714Y-130162228D01*
X147171714Y-130162228D02*
X147247904Y-130124133D01*
X147247904Y-130124133D02*
X147286000Y-130086038D01*
X147286000Y-130086038D02*
X147324095Y-130009847D01*
X147324095Y-130009847D02*
X147324095Y-129933657D01*
X147324095Y-129933657D02*
X147286000Y-129857466D01*
X147286000Y-129857466D02*
X147247904Y-129819371D01*
X147247904Y-129819371D02*
X147171714Y-129781276D01*
X147171714Y-129781276D02*
X147019333Y-129743180D01*
X147019333Y-129743180D02*
X146828857Y-129743180D01*
X146828857Y-129743180D02*
X146676476Y-129781276D01*
X146676476Y-129781276D02*
X146600285Y-129819371D01*
X146600285Y-129819371D02*
X146562190Y-129857466D01*
X146562190Y-129857466D02*
X146524095Y-129933657D01*
D11*
X135816933Y-107915663D02*
X135816933Y-108629948D01*
X135816933Y-108629948D02*
X135864552Y-108772805D01*
X135864552Y-108772805D02*
X135959790Y-108868044D01*
X135959790Y-108868044D02*
X136102647Y-108915663D01*
X136102647Y-108915663D02*
X136197885Y-108915663D01*
X134816933Y-108915663D02*
X135388361Y-108915663D01*
X135102647Y-108915663D02*
X135102647Y-107915663D01*
X135102647Y-107915663D02*
X135197885Y-108058520D01*
X135197885Y-108058520D02*
X135293123Y-108153758D01*
X135293123Y-108153758D02*
X135388361Y-108201377D01*
D10*
X120071428Y-137163695D02*
X120528571Y-137163695D01*
X120299999Y-137163695D02*
X120299999Y-136363695D01*
X120299999Y-136363695D02*
X120376190Y-136477980D01*
X120376190Y-136477980D02*
X120452380Y-136554171D01*
X120452380Y-136554171D02*
X120528571Y-136592266D01*
X150652381Y-111103695D02*
X151109524Y-111103695D01*
X150880952Y-111103695D02*
X150880952Y-110303695D01*
X150880952Y-110303695D02*
X150957143Y-110417980D01*
X150957143Y-110417980D02*
X151033333Y-110494171D01*
X151033333Y-110494171D02*
X151109524Y-110532266D01*
X150347619Y-110379885D02*
X150309523Y-110341790D01*
X150309523Y-110341790D02*
X150233333Y-110303695D01*
X150233333Y-110303695D02*
X150042857Y-110303695D01*
X150042857Y-110303695D02*
X149966666Y-110341790D01*
X149966666Y-110341790D02*
X149928571Y-110379885D01*
X149928571Y-110379885D02*
X149890476Y-110456076D01*
X149890476Y-110456076D02*
X149890476Y-110532266D01*
X149890476Y-110532266D02*
X149928571Y-110646552D01*
X149928571Y-110646552D02*
X150385714Y-111103695D01*
X150385714Y-111103695D02*
X149890476Y-111103695D01*
X151109524Y-135779885D02*
X151071428Y-135741790D01*
X151071428Y-135741790D02*
X150995238Y-135703695D01*
X150995238Y-135703695D02*
X150804762Y-135703695D01*
X150804762Y-135703695D02*
X150728571Y-135741790D01*
X150728571Y-135741790D02*
X150690476Y-135779885D01*
X150690476Y-135779885D02*
X150652381Y-135856076D01*
X150652381Y-135856076D02*
X150652381Y-135932266D01*
X150652381Y-135932266D02*
X150690476Y-136046552D01*
X150690476Y-136046552D02*
X151147619Y-136503695D01*
X151147619Y-136503695D02*
X150652381Y-136503695D01*
X150347619Y-135779885D02*
X150309523Y-135741790D01*
X150309523Y-135741790D02*
X150233333Y-135703695D01*
X150233333Y-135703695D02*
X150042857Y-135703695D01*
X150042857Y-135703695D02*
X149966666Y-135741790D01*
X149966666Y-135741790D02*
X149928571Y-135779885D01*
X149928571Y-135779885D02*
X149890476Y-135856076D01*
X149890476Y-135856076D02*
X149890476Y-135932266D01*
X149890476Y-135932266D02*
X149928571Y-136046552D01*
X149928571Y-136046552D02*
X150385714Y-136503695D01*
X150385714Y-136503695D02*
X149890476Y-136503695D01*
M02*
