%TF.GenerationSoftware,KiCad,Pcbnew,10.0.6-1.fc44*%
%TF.CreationDate,2026-09-07T12:32:39+07:00*%
%TF.ProjectId,LuckFox RAP Shield,4c75636b-466f-4782-9052-415020536869,rev?*%
%TF.SameCoordinates,Original*%
%TF.FileFunction,Legend,Bot*%
%TF.FilePolarity,Positive*%
%FSLAX46Y46*%
G04 Gerber Fmt 4.6, Leading zero omitted, Abs format (unit mm)*
G04 Created by KiCad (PCBNEW 10.0.6-1.fc44) date 2026-09-07 12:32:39*
%MOMM*%
%LPD*%
G01*
G04 APERTURE LIST*
%ADD10C,0.150000*%
%ADD11C,0.120000*%
G04 APERTURE END LIST*
D10*
X127333333Y-108094819D02*
X127333333Y-108809104D01*
X127333333Y-108809104D02*
X127380952Y-108951961D01*
X127380952Y-108951961D02*
X127476190Y-109047200D01*
X127476190Y-109047200D02*
X127619047Y-109094819D01*
X127619047Y-109094819D02*
X127714285Y-109094819D01*
X126333333Y-109094819D02*
X126904761Y-109094819D01*
X126619047Y-109094819D02*
X126619047Y-108094819D01*
X126619047Y-108094819D02*
X126714285Y-108237676D01*
X126714285Y-108237676D02*
X126809523Y-108332914D01*
X126809523Y-108332914D02*
X126904761Y-108380533D01*
D11*
X120452381Y-137263855D02*
X120909524Y-137263855D01*
X120680952Y-137263855D02*
X120680952Y-136463855D01*
X120680952Y-136463855D02*
X120757143Y-136578140D01*
X120757143Y-136578140D02*
X120833333Y-136654331D01*
X120833333Y-136654331D02*
X120909524Y-136692426D01*
X119690476Y-137263855D02*
X120147619Y-137263855D01*
X119919047Y-137263855D02*
X119919047Y-136463855D01*
X119919047Y-136463855D02*
X119995238Y-136578140D01*
X119995238Y-136578140D02*
X120071428Y-136654331D01*
X120071428Y-136654331D02*
X120147619Y-136692426D01*
X120671428Y-111873855D02*
X121128571Y-111873855D01*
X120899999Y-111873855D02*
X120899999Y-111073855D01*
X120899999Y-111073855D02*
X120976190Y-111188140D01*
X120976190Y-111188140D02*
X121052380Y-111264331D01*
X121052380Y-111264331D02*
X121128571Y-111302426D01*
X150652381Y-111203855D02*
X151109524Y-111203855D01*
X150880952Y-111203855D02*
X150880952Y-110403855D01*
X150880952Y-110403855D02*
X150957143Y-110518140D01*
X150957143Y-110518140D02*
X151033333Y-110594331D01*
X151033333Y-110594331D02*
X151109524Y-110632426D01*
X150347619Y-110480045D02*
X150309523Y-110441950D01*
X150309523Y-110441950D02*
X150233333Y-110403855D01*
X150233333Y-110403855D02*
X150042857Y-110403855D01*
X150042857Y-110403855D02*
X149966666Y-110441950D01*
X149966666Y-110441950D02*
X149928571Y-110480045D01*
X149928571Y-110480045D02*
X149890476Y-110556236D01*
X149890476Y-110556236D02*
X149890476Y-110632426D01*
X149890476Y-110632426D02*
X149928571Y-110746712D01*
X149928571Y-110746712D02*
X150385714Y-111203855D01*
X150385714Y-111203855D02*
X149890476Y-111203855D01*
X151109524Y-135880045D02*
X151071428Y-135841950D01*
X151071428Y-135841950D02*
X150995238Y-135803855D01*
X150995238Y-135803855D02*
X150804762Y-135803855D01*
X150804762Y-135803855D02*
X150728571Y-135841950D01*
X150728571Y-135841950D02*
X150690476Y-135880045D01*
X150690476Y-135880045D02*
X150652381Y-135956236D01*
X150652381Y-135956236D02*
X150652381Y-136032426D01*
X150652381Y-136032426D02*
X150690476Y-136146712D01*
X150690476Y-136146712D02*
X151147619Y-136603855D01*
X151147619Y-136603855D02*
X150652381Y-136603855D01*
X150347619Y-135880045D02*
X150309523Y-135841950D01*
X150309523Y-135841950D02*
X150233333Y-135803855D01*
X150233333Y-135803855D02*
X150042857Y-135803855D01*
X150042857Y-135803855D02*
X149966666Y-135841950D01*
X149966666Y-135841950D02*
X149928571Y-135880045D01*
X149928571Y-135880045D02*
X149890476Y-135956236D01*
X149890476Y-135956236D02*
X149890476Y-136032426D01*
X149890476Y-136032426D02*
X149928571Y-136146712D01*
X149928571Y-136146712D02*
X150385714Y-136603855D01*
X150385714Y-136603855D02*
X149890476Y-136603855D01*
M02*
