%TF.GenerationSoftware,KiCad,Pcbnew,10.0.6-1.fc44*%
%TF.CreationDate,2026-09-07T13:57:24+07:00*%
%TF.ProjectId,LuckFox RAP Shield,4c75636b-466f-4782-9052-415020536869,rev?*%
%TF.SameCoordinates,Original*%
%TF.FileFunction,Copper,L1,Top*%
%TF.FilePolarity,Positive*%
%FSLAX46Y46*%
G04 Gerber Fmt 4.6, Leading zero omitted, Abs format (unit mm)*
G04 Created by KiCad (PCBNEW 10.0.6-1.fc44) date 2026-09-07 13:57:24*
%MOMM*%
%LPD*%
G01*
G04 APERTURE LIST*
%TA.AperFunction,ComponentPad*%
%ADD10C,1.700000*%
%TD*%
%TA.AperFunction,ComponentPad*%
%ADD11R,1.700000X1.700000*%
%TD*%
%TA.AperFunction,ViaPad*%
%ADD12C,0.800000*%
%TD*%
%TA.AperFunction,Conductor*%
%ADD13C,0.200000*%
%TD*%
G04 APERTURE END LIST*
D10*
%TO.P,B2,*%
%TO.N,*%
X122800000Y-85370000D03*
X122800000Y-105690000D03*
X122800000Y-108230000D03*
X122800000Y-110770000D03*
X122800000Y-113310000D03*
X122800000Y-115850000D03*
X122800000Y-131090000D03*
X148200000Y-85370000D03*
X148200000Y-87910000D03*
X148200000Y-90450000D03*
X148200000Y-92990000D03*
X148200000Y-95530000D03*
X148200000Y-98070000D03*
X148200000Y-100610000D03*
X148200000Y-103150000D03*
X148200000Y-105690000D03*
X148200000Y-108230000D03*
X148200000Y-110770000D03*
X148200000Y-113310000D03*
X148200000Y-115850000D03*
X148200000Y-118390000D03*
X148200000Y-120930000D03*
X148200000Y-123470000D03*
X148200000Y-126010000D03*
X148200000Y-128550000D03*
X148200000Y-131090000D03*
X148200000Y-133630000D03*
X148200000Y-136170000D03*
D11*
%TO.P,B2,1,5V_1*%
%TO.N,+5V_RAIL*%
X122800000Y-133630000D03*
%TO.P,B2,2,3V3_2*%
%TO.N,+3V3_RAIL*%
X122800000Y-82830000D03*
%TO.P,B2,3,GND_3*%
%TO.N,GND*%
X122800000Y-136170000D03*
%TO.P,B2,4,EN_4*%
%TO.N,unconnected-(B2-EN-Pad4)*%
X122800000Y-87910000D03*
%TO.P,B2,5,GPIO4_MOSI_ETH_5*%
%TO.N,Net-(B2-GPIO4_MOSI_ETH)*%
X122800000Y-90450000D03*
%TO.P,B2,6,GPIO5_MISO_ETH_6*%
%TO.N,Net-(B2-GPIO5_MISO_ETH)*%
X122800000Y-92990000D03*
%TO.P,B2,7,GPIO6_SCK_ETH_7*%
%TO.N,Net-(B2-GPIO6_SCK_ETH)*%
X122800000Y-95530000D03*
%TO.P,B2,8,GPIO7_CS_ETH_8*%
%TO.N,Net-(B2-GPIO7_CS_ETH)*%
X122800000Y-98070000D03*
%TO.P,B2,9,GPIO9_INT_ETH_9*%
%TO.N,Net-(B2-GPIO9_INT_ETH)*%
X122800000Y-118390000D03*
%TO.P,B2,10,GPIO10_CS_LF_10*%
%TO.N,Net-(B2-GPIO10_CS_LF)*%
X122800000Y-120930000D03*
%TO.P,B2,11,GPIO11_MOSI_LF_11*%
%TO.N,Net-(B2-GPIO11_MOSI_LF)*%
X122800000Y-123470000D03*
%TO.P,B2,12,GPIO12_SCK_LF_12*%
%TO.N,Net-(B2-GPIO12_SCK_LF)*%
X122800000Y-126010000D03*
%TO.P,B2,13,GPIO13_MISO_LF_13*%
%TO.N,Net-(B2-GPIO13_MISO_LF)*%
X122800000Y-128550000D03*
%TO.P,B2,14,GPIO15_DATA_RDY_IN_14*%
%TO.N,Net-(B2-GPIO15_DATA_RDY_IN)*%
X122800000Y-100610000D03*
%TO.P,B2,15,GPIO16_SLAVE_RDY_OUT_15*%
%TO.N,Net-(B2-GPIO16_SLAVE_RDY_OUT)*%
X122800000Y-103150000D03*
%TO.P,B2,16,GND_16*%
%TO.N,GND*%
X148200000Y-82830000D03*
%TD*%
%TO.P,U2,1,VCC_3V3_1*%
%TO.N,+3V3_RAIL*%
X117094000Y-105714800D03*
D10*
%TO.P,U2,2,GND_2*%
%TO.N,GND*%
X117094000Y-103174800D03*
%TO.P,U2,3,RST_3*%
%TO.N,+3V3_RAIL*%
X117094000Y-100634800D03*
%TO.P,U2,4,CS_4*%
%TO.N,Net-(B2-GPIO7_CS_ETH)*%
X117094000Y-98094800D03*
%TO.P,U2,5,SCK_5*%
%TO.N,Net-(B2-GPIO6_SCK_ETH)*%
X117094000Y-95554800D03*
%TO.P,U2,6,MOSI_6*%
%TO.N,Net-(B2-GPIO4_MOSI_ETH)*%
X117094000Y-93014800D03*
%TO.P,U2,7,MISO_7*%
%TO.N,Net-(B2-GPIO5_MISO_ETH)*%
X117094000Y-90474800D03*
%TO.P,U2,8,INT_8*%
%TO.N,Net-(B2-GPIO9_INT_ETH)*%
X117094000Y-87934800D03*
%TD*%
D11*
%TO.P,J2,1,5V_IN_1*%
%TO.N,+5V_RAIL*%
X117094000Y-119075200D03*
D10*
%TO.P,J2,2,GND_IN_2*%
%TO.N,GND*%
X117094000Y-116535200D03*
%TD*%
D12*
%TO.N,GND*%
X146558000Y-134670800D03*
X124358400Y-134739998D03*
%TO.N,Net-(B2-GPIO11_MOSI_LF)*%
X124256800Y-118567200D03*
%TO.N,Net-(B2-GPIO12_SCK_LF)*%
X124250002Y-121005600D03*
%TO.N,Net-(B2-GPIO13_MISO_LF)*%
X124249695Y-115879891D03*
%TO.N,Net-(B2-GPIO15_DATA_RDY_IN)*%
X124256800Y-112776000D03*
%TO.N,Net-(B2-GPIO16_SLAVE_RDY_OUT)*%
X147125343Y-127296816D03*
%TD*%
%TO.N,+5V_RAIL*%
D13*
X122800000Y-133630000D02*
X117094000Y-127924000D01*
X117094000Y-127924000D02*
X117094000Y-119075200D01*
%TO.N,+3V3_RAIL*%
X117094000Y-105714800D02*
X119176800Y-105714800D01*
X118033200Y-82830000D02*
X122800000Y-82830000D01*
X117094000Y-100634800D02*
X115062000Y-98602800D01*
X115062000Y-98602800D02*
X115062000Y-85801200D01*
X119227600Y-105664000D02*
X119227600Y-102768400D01*
X115062000Y-85801200D02*
X118033200Y-82830000D01*
X119176800Y-105714800D02*
X119227600Y-105664000D01*
X119227600Y-102768400D02*
X117094000Y-100634800D01*
%TO.N,Net-(B2-GPIO4_MOSI_ETH)*%
X119658800Y-90450000D02*
X117094000Y-93014800D01*
X122800000Y-90450000D02*
X119658800Y-90450000D01*
%TO.N,Net-(B2-GPIO6_SCK_ETH)*%
X122800000Y-95530000D02*
X117118800Y-95530000D01*
X117118800Y-95530000D02*
X117094000Y-95554800D01*
%TO.N,Net-(B2-GPIO7_CS_ETH)*%
X117118800Y-98070000D02*
X117094000Y-98094800D01*
X122800000Y-98070000D02*
X117118800Y-98070000D01*
%TO.N,Net-(B2-GPIO11_MOSI_LF)*%
X120802400Y-119684800D02*
X123805200Y-119684800D01*
X120828400Y-123470000D02*
X120802400Y-123444000D01*
X122800000Y-123470000D02*
X120828400Y-123470000D01*
X120802400Y-123444000D02*
X120802400Y-119684800D01*
X124256800Y-119233200D02*
X124256800Y-118567200D01*
X123805200Y-119684800D02*
X124256800Y-119233200D01*
%TO.N,Net-(B2-GPIO12_SCK_LF)*%
X124250002Y-124559998D02*
X124250002Y-121005600D01*
X122800000Y-126010000D02*
X124250002Y-124559998D01*
%TO.N,Net-(B2-GPIO13_MISO_LF)*%
X120396000Y-117094000D02*
X123850400Y-117094000D01*
X124249695Y-115879891D02*
X124206000Y-115836196D01*
X120396000Y-126146000D02*
X120396000Y-117094000D01*
X122800000Y-128550000D02*
X120396000Y-126146000D01*
X124249695Y-116694705D02*
X124249695Y-115879891D01*
X123850400Y-117094000D02*
X124249695Y-116694705D01*
%TO.N,Net-(B2-GPIO15_DATA_RDY_IN)*%
X120751600Y-102658400D02*
X120751600Y-112064800D01*
X122800000Y-100610000D02*
X120751600Y-102658400D01*
X120751600Y-112064800D02*
X123545600Y-112064800D01*
X123545600Y-112064800D02*
X124256800Y-112776000D01*
%TO.N,Net-(B2-GPIO16_SLAVE_RDY_OUT)*%
X147128527Y-127300000D02*
X147125343Y-127296816D01*
X149902816Y-108081115D02*
X148686701Y-106865000D01*
X126515000Y-106865000D02*
X122800000Y-103150000D01*
X149902816Y-127296816D02*
X149902816Y-108081115D01*
X148686701Y-106865000D02*
X126515000Y-106865000D01*
X147125343Y-127296816D02*
X149902816Y-127296816D01*
%TD*%
%TA.AperFunction,Conductor*%
%TO.N,GND*%
G36*
X157942539Y-75020185D02*
G01*
X157988294Y-75072989D01*
X157999500Y-75124500D01*
X157999500Y-138051500D01*
X157979815Y-138118539D01*
X157927011Y-138164294D01*
X157875500Y-138175500D01*
X146274500Y-138175500D01*
X146207461Y-138155815D01*
X146161706Y-138103011D01*
X146150500Y-138051500D01*
X146150500Y-127881890D01*
X146170185Y-127814851D01*
X146222989Y-127769096D01*
X146292147Y-127759152D01*
X146355703Y-127788177D01*
X146377601Y-127812998D01*
X146398243Y-127843890D01*
X146419666Y-127875953D01*
X146546204Y-128002491D01*
X146546208Y-128002494D01*
X146695000Y-128101914D01*
X146695013Y-128101921D01*
X146792876Y-128142457D01*
X146847280Y-128186298D01*
X146869345Y-128252592D01*
X146867897Y-128276415D01*
X146841500Y-128443083D01*
X146841500Y-128656915D01*
X146874951Y-128868117D01*
X146941026Y-129071480D01*
X146941027Y-129071483D01*
X147038106Y-129262009D01*
X147163794Y-129435004D01*
X147314996Y-129586206D01*
X147487991Y-129711894D01*
X147491873Y-129714273D01*
X147538748Y-129766086D01*
X147550169Y-129835016D01*
X147522512Y-129899178D01*
X147491873Y-129925727D01*
X147487991Y-129928105D01*
X147314993Y-130053796D01*
X147163796Y-130204993D01*
X147038106Y-130377990D01*
X146941027Y-130568516D01*
X146941026Y-130568519D01*
X146874951Y-130771882D01*
X146841500Y-130983084D01*
X146841500Y-131196915D01*
X146874951Y-131408117D01*
X146941026Y-131611480D01*
X146941027Y-131611483D01*
X147038106Y-131802009D01*
X147163794Y-131975004D01*
X147314996Y-132126206D01*
X147477053Y-132243947D01*
X147487991Y-132251894D01*
X147491873Y-132254273D01*
X147538748Y-132306086D01*
X147550169Y-132375016D01*
X147522512Y-132439178D01*
X147491873Y-132465727D01*
X147487991Y-132468105D01*
X147314993Y-132593796D01*
X147163796Y-132744993D01*
X147038106Y-132917990D01*
X146941027Y-133108516D01*
X146941026Y-133108519D01*
X146874951Y-133311882D01*
X146841500Y-133523084D01*
X146841500Y-133736915D01*
X146874951Y-133948117D01*
X146941026Y-134151480D01*
X146941027Y-134151483D01*
X147038106Y-134342009D01*
X147163794Y-134515004D01*
X147314996Y-134666206D01*
X147487991Y-134791894D01*
X147491873Y-134794273D01*
X147538748Y-134846086D01*
X147550169Y-134915016D01*
X147522512Y-134979178D01*
X147491873Y-135005727D01*
X147487991Y-135008105D01*
X147314993Y-135133796D01*
X147163796Y-135284993D01*
X147038106Y-135457990D01*
X146941027Y-135648516D01*
X146941026Y-135648519D01*
X146874951Y-135851882D01*
X146841500Y-136063084D01*
X146841500Y-136276915D01*
X146874951Y-136488117D01*
X146941026Y-136691480D01*
X146941027Y-136691483D01*
X147038106Y-136882009D01*
X147163794Y-137055004D01*
X147314996Y-137206206D01*
X147487991Y-137331894D01*
X147576883Y-137377187D01*
X147678516Y-137428972D01*
X147678519Y-137428973D01*
X147780200Y-137462010D01*
X147881884Y-137495049D01*
X148093084Y-137528500D01*
X148093085Y-137528500D01*
X148306915Y-137528500D01*
X148306916Y-137528500D01*
X148518116Y-137495049D01*
X148721483Y-137428972D01*
X148912009Y-137331894D01*
X149085004Y-137206206D01*
X149236206Y-137055004D01*
X149361894Y-136882009D01*
X149458972Y-136691483D01*
X149525049Y-136488116D01*
X149558500Y-136276916D01*
X149558500Y-136063084D01*
X149525049Y-135851884D01*
X149458972Y-135648517D01*
X149458972Y-135648516D01*
X149361893Y-135457990D01*
X149315594Y-135394265D01*
X149236206Y-135284996D01*
X149085004Y-135133794D01*
X148912009Y-135008106D01*
X148912005Y-135008103D01*
X148908132Y-135005730D01*
X148861254Y-134953920D01*
X148849829Y-134884991D01*
X148877483Y-134820827D01*
X148908132Y-134794270D01*
X148912005Y-134791896D01*
X148912004Y-134791896D01*
X148912009Y-134791894D01*
X149085004Y-134666206D01*
X149236206Y-134515004D01*
X149361894Y-134342009D01*
X149458972Y-134151483D01*
X149525049Y-133948116D01*
X149536042Y-133878711D01*
X152149500Y-133878711D01*
X152149500Y-134121288D01*
X152181161Y-134361785D01*
X152243947Y-134596104D01*
X152325046Y-134791894D01*
X152336776Y-134820212D01*
X152458064Y-135030289D01*
X152458066Y-135030292D01*
X152458067Y-135030293D01*
X152605733Y-135222736D01*
X152605739Y-135222743D01*
X152777256Y-135394260D01*
X152777263Y-135394266D01*
X152890321Y-135481018D01*
X152969711Y-135541936D01*
X153179788Y-135663224D01*
X153403900Y-135756054D01*
X153638211Y-135818838D01*
X153818586Y-135842584D01*
X153878711Y-135850500D01*
X153878712Y-135850500D01*
X154121289Y-135850500D01*
X154169388Y-135844167D01*
X154361789Y-135818838D01*
X154596100Y-135756054D01*
X154820212Y-135663224D01*
X155030289Y-135541936D01*
X155222738Y-135394265D01*
X155394265Y-135222738D01*
X155541936Y-135030289D01*
X155663224Y-134820212D01*
X155756054Y-134596100D01*
X155818838Y-134361789D01*
X155850500Y-134121288D01*
X155850500Y-133878712D01*
X155818838Y-133638211D01*
X155756054Y-133403900D01*
X155663224Y-133179788D01*
X155541936Y-132969711D01*
X155394265Y-132777262D01*
X155394260Y-132777256D01*
X155222743Y-132605739D01*
X155222736Y-132605733D01*
X155030293Y-132458067D01*
X155030292Y-132458066D01*
X155030289Y-132458064D01*
X154820212Y-132336776D01*
X154746120Y-132306086D01*
X154596104Y-132243947D01*
X154361785Y-132181161D01*
X154121289Y-132149500D01*
X154121288Y-132149500D01*
X153878712Y-132149500D01*
X153878711Y-132149500D01*
X153638214Y-132181161D01*
X153403895Y-132243947D01*
X153179794Y-132336773D01*
X153179785Y-132336777D01*
X152969706Y-132458067D01*
X152777263Y-132605733D01*
X152777256Y-132605739D01*
X152605739Y-132777256D01*
X152605733Y-132777263D01*
X152458067Y-132969706D01*
X152336777Y-133179785D01*
X152336773Y-133179794D01*
X152243947Y-133403895D01*
X152181161Y-133638214D01*
X152149500Y-133878711D01*
X149536042Y-133878711D01*
X149558500Y-133736916D01*
X149558500Y-133523084D01*
X149525049Y-133311884D01*
X149458972Y-133108517D01*
X149458972Y-133108516D01*
X149409507Y-133011438D01*
X149361894Y-132917991D01*
X149236206Y-132744996D01*
X149085004Y-132593794D01*
X148912009Y-132468106D01*
X148912005Y-132468103D01*
X148908132Y-132465730D01*
X148861254Y-132413920D01*
X148849829Y-132344991D01*
X148877483Y-132280827D01*
X148908132Y-132254270D01*
X148912005Y-132251896D01*
X148912004Y-132251896D01*
X148912009Y-132251894D01*
X149085004Y-132126206D01*
X149236206Y-131975004D01*
X149361894Y-131802009D01*
X149458972Y-131611483D01*
X149525049Y-131408116D01*
X149558500Y-131196916D01*
X149558500Y-130983084D01*
X149525049Y-130771884D01*
X149458972Y-130568517D01*
X149458972Y-130568516D01*
X149361893Y-130377990D01*
X149236206Y-130204996D01*
X149085004Y-130053794D01*
X148912009Y-129928106D01*
X148912005Y-129928103D01*
X148908132Y-129925730D01*
X148861254Y-129873920D01*
X148849829Y-129804991D01*
X148877483Y-129740827D01*
X148908132Y-129714270D01*
X148912005Y-129711896D01*
X148912004Y-129711896D01*
X148912009Y-129711894D01*
X149085004Y-129586206D01*
X149236206Y-129435004D01*
X149361894Y-129262009D01*
X149458972Y-129071483D01*
X149525049Y-128868116D01*
X149558500Y-128656916D01*
X149558500Y-128443084D01*
X149525049Y-128231884D01*
X149471682Y-128067634D01*
X149469687Y-127997792D01*
X149505768Y-127937960D01*
X149568469Y-127907132D01*
X149589613Y-127905316D01*
X149982925Y-127905316D01*
X149982927Y-127905316D01*
X150137688Y-127863848D01*
X150276444Y-127783737D01*
X150389737Y-127670444D01*
X150469848Y-127531688D01*
X150511316Y-127376927D01*
X150511316Y-108001004D01*
X150469848Y-107846243D01*
X150469848Y-107846242D01*
X150389737Y-107707487D01*
X149319949Y-106637699D01*
X149286464Y-106576376D01*
X149291448Y-106506684D01*
X149307308Y-106477139D01*
X149361894Y-106402009D01*
X149458972Y-106211483D01*
X149525049Y-106008116D01*
X149558500Y-105796916D01*
X149558500Y-105583084D01*
X149525049Y-105371884D01*
X149458972Y-105168517D01*
X149458972Y-105168516D01*
X149361893Y-104977990D01*
X149236206Y-104804996D01*
X149085004Y-104653794D01*
X148912009Y-104528106D01*
X148912005Y-104528103D01*
X148908132Y-104525730D01*
X148861254Y-104473920D01*
X148849829Y-104404991D01*
X148877483Y-104340827D01*
X148908132Y-104314270D01*
X148912005Y-104311896D01*
X148912004Y-104311896D01*
X148912009Y-104311894D01*
X149085004Y-104186206D01*
X149236206Y-104035004D01*
X149361894Y-103862009D01*
X149458972Y-103671483D01*
X149525049Y-103468116D01*
X149558500Y-103256916D01*
X149558500Y-103043084D01*
X149525049Y-102831884D01*
X149485082Y-102708875D01*
X149458973Y-102628519D01*
X149458972Y-102628516D01*
X149393952Y-102500908D01*
X149361894Y-102437991D01*
X149236206Y-102264996D01*
X149085004Y-102113794D01*
X148912009Y-101988106D01*
X148912005Y-101988103D01*
X148908132Y-101985730D01*
X148861254Y-101933920D01*
X148849829Y-101864991D01*
X148877483Y-101800827D01*
X148908132Y-101774270D01*
X148912005Y-101771896D01*
X148912004Y-101771896D01*
X148912009Y-101771894D01*
X149085004Y-101646206D01*
X149236206Y-101495004D01*
X149361894Y-101322009D01*
X149458972Y-101131483D01*
X149525049Y-100928116D01*
X149558500Y-100716916D01*
X149558500Y-100503084D01*
X149525049Y-100291884D01*
X149458972Y-100088517D01*
X149458972Y-100088516D01*
X149374530Y-99922791D01*
X149361894Y-99897991D01*
X149236206Y-99724996D01*
X149085004Y-99573794D01*
X148912009Y-99448106D01*
X148912005Y-99448103D01*
X148908132Y-99445730D01*
X148861254Y-99393920D01*
X148849829Y-99324991D01*
X148877483Y-99260827D01*
X148908132Y-99234270D01*
X148912005Y-99231896D01*
X148912004Y-99231896D01*
X148912009Y-99231894D01*
X149085004Y-99106206D01*
X149236206Y-98955004D01*
X149361894Y-98782009D01*
X149458972Y-98591483D01*
X149525049Y-98388116D01*
X149558500Y-98176916D01*
X149558500Y-97963084D01*
X149525049Y-97751884D01*
X149458972Y-97548517D01*
X149458972Y-97548516D01*
X149408925Y-97450294D01*
X149361894Y-97357991D01*
X149236206Y-97184996D01*
X149085004Y-97033794D01*
X148912009Y-96908106D01*
X148912005Y-96908103D01*
X148908132Y-96905730D01*
X148861254Y-96853920D01*
X148849829Y-96784991D01*
X148877483Y-96720827D01*
X148908132Y-96694270D01*
X148912005Y-96691896D01*
X148912004Y-96691896D01*
X148912009Y-96691894D01*
X149085004Y-96566206D01*
X149236206Y-96415004D01*
X149361894Y-96242009D01*
X149458972Y-96051483D01*
X149525049Y-95848116D01*
X149558500Y-95636916D01*
X149558500Y-95423084D01*
X149525049Y-95211884D01*
X149458972Y-95008517D01*
X149458972Y-95008516D01*
X149408925Y-94910294D01*
X149361894Y-94817991D01*
X149236206Y-94644996D01*
X149085004Y-94493794D01*
X148912009Y-94368106D01*
X148912005Y-94368103D01*
X148908132Y-94365730D01*
X148861254Y-94313920D01*
X148849829Y-94244991D01*
X148877483Y-94180827D01*
X148908132Y-94154270D01*
X148912005Y-94151896D01*
X148912004Y-94151896D01*
X148912009Y-94151894D01*
X149085004Y-94026206D01*
X149236206Y-93875004D01*
X149361894Y-93702009D01*
X149458972Y-93511483D01*
X149525049Y-93308116D01*
X149558500Y-93096916D01*
X149558500Y-92883084D01*
X149525049Y-92671884D01*
X149458972Y-92468517D01*
X149458972Y-92468516D01*
X149396728Y-92346356D01*
X149361894Y-92277991D01*
X149236206Y-92104996D01*
X149085004Y-91953794D01*
X148912009Y-91828106D01*
X148912005Y-91828103D01*
X148908132Y-91825730D01*
X148861254Y-91773920D01*
X148849829Y-91704991D01*
X148877483Y-91640827D01*
X148908132Y-91614270D01*
X148912005Y-91611896D01*
X148912004Y-91611896D01*
X148912009Y-91611894D01*
X149085004Y-91486206D01*
X149236206Y-91335004D01*
X149361894Y-91162009D01*
X149458972Y-90971483D01*
X149525049Y-90768116D01*
X149558500Y-90556916D01*
X149558500Y-90343084D01*
X149525049Y-90131884D01*
X149470202Y-89963080D01*
X149458973Y-89928519D01*
X149458972Y-89928516D01*
X149385611Y-89784539D01*
X149361894Y-89737991D01*
X149236206Y-89564996D01*
X149085004Y-89413794D01*
X148912009Y-89288106D01*
X148912005Y-89288103D01*
X148908132Y-89285730D01*
X148861254Y-89233920D01*
X148849829Y-89164991D01*
X148877483Y-89100827D01*
X148908132Y-89074270D01*
X148912005Y-89071896D01*
X148912004Y-89071896D01*
X148912009Y-89071894D01*
X149085004Y-88946206D01*
X149236206Y-88795004D01*
X149361894Y-88622009D01*
X149458972Y-88431483D01*
X149525049Y-88228116D01*
X149558500Y-88016916D01*
X149558500Y-87803084D01*
X149525049Y-87591884D01*
X149458972Y-87388517D01*
X149458972Y-87388516D01*
X149396728Y-87266356D01*
X149361894Y-87197991D01*
X149236206Y-87024996D01*
X149085004Y-86873794D01*
X148912009Y-86748106D01*
X148912005Y-86748103D01*
X148908132Y-86745730D01*
X148861254Y-86693920D01*
X148849829Y-86624991D01*
X148877483Y-86560827D01*
X148908132Y-86534270D01*
X148912005Y-86531896D01*
X148912004Y-86531896D01*
X148912009Y-86531894D01*
X149085004Y-86406206D01*
X149236206Y-86255004D01*
X149361894Y-86082009D01*
X149458972Y-85891483D01*
X149525049Y-85688116D01*
X149558500Y-85476916D01*
X149558500Y-85263084D01*
X149525049Y-85051884D01*
X149458972Y-84848517D01*
X149458972Y-84848516D01*
X149361893Y-84657990D01*
X149236206Y-84484996D01*
X149124421Y-84373211D01*
X149090936Y-84311888D01*
X149095920Y-84242196D01*
X149137792Y-84186263D01*
X149168770Y-84169348D01*
X149292084Y-84123355D01*
X149292093Y-84123350D01*
X149407187Y-84037190D01*
X149407190Y-84037187D01*
X149493350Y-83922093D01*
X149493354Y-83922086D01*
X149543596Y-83787379D01*
X149543598Y-83787372D01*
X149549999Y-83727844D01*
X149550000Y-83727827D01*
X149550000Y-83080000D01*
X148633012Y-83080000D01*
X148665925Y-83022993D01*
X148700000Y-82895826D01*
X148700000Y-82764174D01*
X148665925Y-82637007D01*
X148633012Y-82580000D01*
X149550000Y-82580000D01*
X149550000Y-81932172D01*
X149549999Y-81932155D01*
X149543598Y-81872627D01*
X149543596Y-81872620D01*
X149493354Y-81737913D01*
X149493350Y-81737906D01*
X149407190Y-81622812D01*
X149407187Y-81622809D01*
X149292093Y-81536649D01*
X149292086Y-81536645D01*
X149157379Y-81486403D01*
X149157372Y-81486401D01*
X149097844Y-81480000D01*
X148450000Y-81480000D01*
X148450000Y-82396988D01*
X148392993Y-82364075D01*
X148265826Y-82330000D01*
X148134174Y-82330000D01*
X148007007Y-82364075D01*
X147950000Y-82396988D01*
X147950000Y-81480000D01*
X147302155Y-81480000D01*
X147242627Y-81486401D01*
X147242620Y-81486403D01*
X147107913Y-81536645D01*
X147107906Y-81536649D01*
X146992812Y-81622809D01*
X146992809Y-81622812D01*
X146906649Y-81737906D01*
X146906645Y-81737913D01*
X146856403Y-81872620D01*
X146856401Y-81872627D01*
X146850000Y-81932155D01*
X146850000Y-82580000D01*
X147766988Y-82580000D01*
X147734075Y-82637007D01*
X147700000Y-82764174D01*
X147700000Y-82895826D01*
X147734075Y-83022993D01*
X147766988Y-83080000D01*
X146850000Y-83080000D01*
X146850000Y-83727844D01*
X146856401Y-83787372D01*
X146856403Y-83787379D01*
X146906645Y-83922086D01*
X146906649Y-83922093D01*
X146992809Y-84037187D01*
X146992812Y-84037190D01*
X147107906Y-84123350D01*
X147107913Y-84123354D01*
X147231230Y-84169348D01*
X147287164Y-84211219D01*
X147311581Y-84276683D01*
X147296730Y-84344956D01*
X147275579Y-84373211D01*
X147163793Y-84484997D01*
X147038106Y-84657990D01*
X146941027Y-84848516D01*
X146941026Y-84848519D01*
X146874951Y-85051882D01*
X146841500Y-85263084D01*
X146841500Y-85476915D01*
X146874951Y-85688117D01*
X146941026Y-85891480D01*
X146941027Y-85891483D01*
X147015464Y-86037572D01*
X147038106Y-86082009D01*
X147163794Y-86255004D01*
X147314996Y-86406206D01*
X147384505Y-86456707D01*
X147487991Y-86531894D01*
X147491873Y-86534273D01*
X147538748Y-86586086D01*
X147550169Y-86655016D01*
X147522512Y-86719178D01*
X147491873Y-86745727D01*
X147487991Y-86748105D01*
X147314993Y-86873796D01*
X147163796Y-87024993D01*
X147038106Y-87197990D01*
X146941027Y-87388516D01*
X146941026Y-87388519D01*
X146874951Y-87591882D01*
X146841500Y-87803084D01*
X146841500Y-88016915D01*
X146874951Y-88228117D01*
X146941026Y-88431480D01*
X146941027Y-88431483D01*
X147018147Y-88582837D01*
X147038106Y-88622009D01*
X147163794Y-88795004D01*
X147314996Y-88946206D01*
X147487991Y-89071894D01*
X147491873Y-89074273D01*
X147538748Y-89126086D01*
X147550169Y-89195016D01*
X147522512Y-89259178D01*
X147491873Y-89285727D01*
X147487991Y-89288105D01*
X147314993Y-89413796D01*
X147163796Y-89564993D01*
X147038106Y-89737990D01*
X146941027Y-89928516D01*
X146941026Y-89928519D01*
X146874951Y-90131882D01*
X146841500Y-90343084D01*
X146841500Y-90556915D01*
X146874951Y-90768117D01*
X146941026Y-90971480D01*
X146941027Y-90971483D01*
X147018147Y-91122837D01*
X147038106Y-91162009D01*
X147163794Y-91335004D01*
X147314996Y-91486206D01*
X147487991Y-91611894D01*
X147491873Y-91614273D01*
X147538748Y-91666086D01*
X147550169Y-91735016D01*
X147522512Y-91799178D01*
X147491873Y-91825727D01*
X147487991Y-91828105D01*
X147314993Y-91953796D01*
X147163796Y-92104993D01*
X147038106Y-92277990D01*
X146941027Y-92468516D01*
X146941026Y-92468519D01*
X146874951Y-92671882D01*
X146841500Y-92883084D01*
X146841500Y-93096915D01*
X146874951Y-93308117D01*
X146941026Y-93511480D01*
X146941027Y-93511483D01*
X147018147Y-93662837D01*
X147038106Y-93702009D01*
X147163794Y-93875004D01*
X147314996Y-94026206D01*
X147487991Y-94151894D01*
X147491873Y-94154273D01*
X147538748Y-94206086D01*
X147550169Y-94275016D01*
X147522512Y-94339178D01*
X147491873Y-94365727D01*
X147487991Y-94368105D01*
X147314993Y-94493796D01*
X147163796Y-94644993D01*
X147038106Y-94817990D01*
X146941027Y-95008516D01*
X146941026Y-95008519D01*
X146874951Y-95211882D01*
X146841500Y-95423084D01*
X146841500Y-95636915D01*
X146874951Y-95848117D01*
X146941026Y-96051480D01*
X146941027Y-96051483D01*
X147018147Y-96202837D01*
X147038106Y-96242009D01*
X147163794Y-96415004D01*
X147314996Y-96566206D01*
X147487991Y-96691894D01*
X147491873Y-96694273D01*
X147538748Y-96746086D01*
X147550169Y-96815016D01*
X147522512Y-96879178D01*
X147491873Y-96905727D01*
X147487991Y-96908105D01*
X147314993Y-97033796D01*
X147163796Y-97184993D01*
X147038106Y-97357990D01*
X146941027Y-97548516D01*
X146941026Y-97548519D01*
X146874951Y-97751882D01*
X146841500Y-97963084D01*
X146841500Y-98176915D01*
X146874951Y-98388117D01*
X146941026Y-98591480D01*
X146941027Y-98591483D01*
X147019863Y-98746205D01*
X147038106Y-98782009D01*
X147163794Y-98955004D01*
X147314996Y-99106206D01*
X147487991Y-99231894D01*
X147491873Y-99234273D01*
X147538748Y-99286086D01*
X147550169Y-99355016D01*
X147522512Y-99419178D01*
X147491873Y-99445727D01*
X147487991Y-99448105D01*
X147314993Y-99573796D01*
X147163796Y-99724993D01*
X147038106Y-99897990D01*
X146941027Y-100088516D01*
X146941026Y-100088519D01*
X146874951Y-100291882D01*
X146841500Y-100503084D01*
X146841500Y-100716915D01*
X146874951Y-100928117D01*
X146941026Y-101131480D01*
X146941027Y-101131483D01*
X147038106Y-101322009D01*
X147163794Y-101495004D01*
X147314996Y-101646206D01*
X147487991Y-101771894D01*
X147491873Y-101774273D01*
X147538748Y-101826086D01*
X147550169Y-101895016D01*
X147522512Y-101959178D01*
X147491873Y-101985727D01*
X147487991Y-101988105D01*
X147314993Y-102113796D01*
X147163796Y-102264993D01*
X147038106Y-102437990D01*
X146941027Y-102628516D01*
X146941026Y-102628519D01*
X146874951Y-102831882D01*
X146841500Y-103043084D01*
X146841500Y-103256915D01*
X146874951Y-103468117D01*
X146941026Y-103671480D01*
X146941027Y-103671483D01*
X147038106Y-103862009D01*
X147163794Y-104035004D01*
X147314996Y-104186206D01*
X147485836Y-104310328D01*
X147487991Y-104311894D01*
X147491873Y-104314273D01*
X147538748Y-104366086D01*
X147550169Y-104435016D01*
X147522512Y-104499178D01*
X147491873Y-104525727D01*
X147487991Y-104528105D01*
X147314993Y-104653796D01*
X147163796Y-104804993D01*
X147038106Y-104977990D01*
X146941027Y-105168516D01*
X146941026Y-105168519D01*
X146874951Y-105371882D01*
X146841500Y-105583084D01*
X146841500Y-105796915D01*
X146874951Y-106008117D01*
X146902915Y-106094182D01*
X146904910Y-106164023D01*
X146868829Y-106223856D01*
X146806128Y-106254684D01*
X146784984Y-106256500D01*
X126818411Y-106256500D01*
X126751372Y-106236815D01*
X126730730Y-106220181D01*
X124194819Y-103684270D01*
X124161334Y-103622947D01*
X124158500Y-103596589D01*
X124158500Y-102251362D01*
X124158499Y-102251345D01*
X124155157Y-102220270D01*
X124151989Y-102190799D01*
X124123267Y-102113794D01*
X124100888Y-102053793D01*
X124100887Y-102053792D01*
X124030561Y-101959849D01*
X124026414Y-101954310D01*
X124001997Y-101888847D01*
X124016848Y-101820574D01*
X124026415Y-101805689D01*
X124100887Y-101706207D01*
X124100888Y-101706206D01*
X124151988Y-101569204D01*
X124151988Y-101569203D01*
X124151989Y-101569201D01*
X124155591Y-101535692D01*
X124158499Y-101508654D01*
X124158500Y-101508637D01*
X124158500Y-99711362D01*
X124158499Y-99711345D01*
X124155157Y-99680270D01*
X124151989Y-99650799D01*
X124132517Y-99598594D01*
X124100888Y-99513793D01*
X124100887Y-99513792D01*
X124042251Y-99435466D01*
X124026414Y-99414310D01*
X124001997Y-99348847D01*
X124016848Y-99280574D01*
X124026415Y-99265689D01*
X124100887Y-99166207D01*
X124100888Y-99166206D01*
X124151988Y-99029204D01*
X124151988Y-99029203D01*
X124151989Y-99029201D01*
X124155591Y-98995692D01*
X124158499Y-98968654D01*
X124158500Y-98968637D01*
X124158500Y-97171362D01*
X124158499Y-97171345D01*
X124155157Y-97140270D01*
X124151989Y-97110799D01*
X124132517Y-97058594D01*
X124100888Y-96973793D01*
X124100887Y-96973792D01*
X124042251Y-96895466D01*
X124026414Y-96874310D01*
X124001997Y-96808847D01*
X124016848Y-96740574D01*
X124026415Y-96725689D01*
X124100887Y-96626207D01*
X124100888Y-96626206D01*
X124151988Y-96489204D01*
X124151988Y-96489203D01*
X124151989Y-96489201D01*
X124155591Y-96455692D01*
X124158499Y-96428654D01*
X124158500Y-96428637D01*
X124158500Y-94631362D01*
X124158499Y-94631345D01*
X124155157Y-94600270D01*
X124151989Y-94570799D01*
X124132517Y-94518594D01*
X124100888Y-94433793D01*
X124100887Y-94433792D01*
X124042251Y-94355466D01*
X124026414Y-94334310D01*
X124001997Y-94268847D01*
X124016848Y-94200574D01*
X124026415Y-94185689D01*
X124100887Y-94086207D01*
X124100888Y-94086206D01*
X124151988Y-93949204D01*
X124151988Y-93949203D01*
X124151989Y-93949201D01*
X124155591Y-93915692D01*
X124158499Y-93888654D01*
X124158500Y-93888637D01*
X124158500Y-92091362D01*
X124158499Y-92091345D01*
X124155157Y-92060270D01*
X124151989Y-92030799D01*
X124132517Y-91978594D01*
X124100888Y-91893793D01*
X124100887Y-91893792D01*
X124042251Y-91815466D01*
X124026414Y-91794310D01*
X124001997Y-91728847D01*
X124016848Y-91660574D01*
X124026415Y-91645689D01*
X124100887Y-91546207D01*
X124100888Y-91546206D01*
X124151988Y-91409204D01*
X124151988Y-91409203D01*
X124151989Y-91409201D01*
X124155591Y-91375692D01*
X124158499Y-91348654D01*
X124158500Y-91348637D01*
X124158500Y-89551362D01*
X124158499Y-89551345D01*
X124155157Y-89520270D01*
X124151989Y-89490799D01*
X124132517Y-89438594D01*
X124100888Y-89353793D01*
X124100887Y-89353792D01*
X124042251Y-89275466D01*
X124026414Y-89254310D01*
X124001997Y-89188847D01*
X124016848Y-89120574D01*
X124026415Y-89105689D01*
X124100887Y-89006207D01*
X124100888Y-89006206D01*
X124151988Y-88869204D01*
X124151988Y-88869203D01*
X124151989Y-88869201D01*
X124155591Y-88835692D01*
X124158499Y-88808654D01*
X124158500Y-88808637D01*
X124158500Y-87011362D01*
X124158499Y-87011345D01*
X124155157Y-86980270D01*
X124151989Y-86950799D01*
X124100889Y-86813796D01*
X124013261Y-86696739D01*
X123896204Y-86609111D01*
X123896202Y-86609110D01*
X123896204Y-86609110D01*
X123775375Y-86564043D01*
X123719441Y-86522172D01*
X123695025Y-86456707D01*
X123709877Y-86388434D01*
X123731022Y-86360187D01*
X123836206Y-86255004D01*
X123961894Y-86082009D01*
X124058972Y-85891483D01*
X124125049Y-85688116D01*
X124158500Y-85476916D01*
X124158500Y-85263084D01*
X124125049Y-85051884D01*
X124058972Y-84848517D01*
X124058972Y-84848516D01*
X123961893Y-84657990D01*
X123836206Y-84484996D01*
X123731028Y-84379818D01*
X123697543Y-84318495D01*
X123702527Y-84248803D01*
X123744399Y-84192870D01*
X123775367Y-84175959D01*
X123896204Y-84130889D01*
X124013261Y-84043261D01*
X124100889Y-83926204D01*
X124151989Y-83789201D01*
X124155591Y-83755692D01*
X124158499Y-83728654D01*
X124158500Y-83728637D01*
X124158500Y-81931362D01*
X124158499Y-81931345D01*
X124155157Y-81900270D01*
X124151989Y-81870799D01*
X124100889Y-81733796D01*
X124013261Y-81616739D01*
X123896204Y-81529111D01*
X123759203Y-81478011D01*
X123698654Y-81471500D01*
X123698638Y-81471500D01*
X121901362Y-81471500D01*
X121901345Y-81471500D01*
X121840797Y-81478011D01*
X121840795Y-81478011D01*
X121703795Y-81529111D01*
X121586739Y-81616739D01*
X121499111Y-81733795D01*
X121448011Y-81870795D01*
X121448011Y-81870797D01*
X121441500Y-81931345D01*
X121441500Y-82097500D01*
X121421815Y-82164539D01*
X121369011Y-82210294D01*
X121317500Y-82221500D01*
X117953089Y-82221500D01*
X117875708Y-82242233D01*
X117875708Y-82242234D01*
X117798327Y-82262968D01*
X117798325Y-82262968D01*
X117798325Y-82262969D01*
X117659572Y-82343079D01*
X117659569Y-82343081D01*
X114575080Y-85427570D01*
X114575076Y-85427576D01*
X114494967Y-85566326D01*
X114494968Y-85566326D01*
X114494968Y-85566327D01*
X114494968Y-85566328D01*
X114453500Y-85721089D01*
X114453500Y-98682911D01*
X114468176Y-98737681D01*
X114494968Y-98837673D01*
X114575078Y-98976427D01*
X114575080Y-98976429D01*
X115751118Y-100152467D01*
X115784603Y-100213790D01*
X115781368Y-100278465D01*
X115768951Y-100316680D01*
X115735500Y-100527884D01*
X115735500Y-100741715D01*
X115768951Y-100952917D01*
X115835026Y-101156280D01*
X115835027Y-101156283D01*
X115919470Y-101322009D01*
X115932106Y-101346809D01*
X116057794Y-101519804D01*
X116208996Y-101671006D01*
X116381991Y-101796694D01*
X116386680Y-101799083D01*
X116437478Y-101847054D01*
X116454276Y-101914874D01*
X116431742Y-101981010D01*
X116390205Y-102017009D01*
X116390590Y-102017638D01*
X116386804Y-102019957D01*
X116386702Y-102020046D01*
X116386449Y-102020174D01*
X116386440Y-102020180D01*
X116332282Y-102059527D01*
X116332282Y-102059528D01*
X116964591Y-102691837D01*
X116901007Y-102708875D01*
X116786993Y-102774701D01*
X116693901Y-102867793D01*
X116628075Y-102981807D01*
X116611037Y-103045391D01*
X115978728Y-102413082D01*
X115978727Y-102413082D01*
X115939380Y-102467239D01*
X115842904Y-102656582D01*
X115777242Y-102858669D01*
X115777242Y-102858672D01*
X115744000Y-103068553D01*
X115744000Y-103281046D01*
X115777242Y-103490927D01*
X115777242Y-103490930D01*
X115842904Y-103693017D01*
X115939375Y-103882350D01*
X115978728Y-103936516D01*
X116611037Y-103304208D01*
X116628075Y-103367793D01*
X116693901Y-103481807D01*
X116786993Y-103574899D01*
X116901007Y-103640725D01*
X116964591Y-103657762D01*
X116302371Y-104319981D01*
X116241048Y-104353466D01*
X116214690Y-104356300D01*
X116195345Y-104356300D01*
X116134797Y-104362811D01*
X116134795Y-104362811D01*
X115997795Y-104413911D01*
X115880739Y-104501539D01*
X115793111Y-104618595D01*
X115742011Y-104755595D01*
X115742011Y-104755597D01*
X115735500Y-104816145D01*
X115735500Y-106613454D01*
X115742011Y-106674002D01*
X115742011Y-106674004D01*
X115793111Y-106811004D01*
X115880739Y-106928061D01*
X115997796Y-107015689D01*
X116112949Y-107058639D01*
X116131959Y-107065730D01*
X116134799Y-107066789D01*
X116162050Y-107069718D01*
X116195345Y-107073299D01*
X116195362Y-107073300D01*
X117992638Y-107073300D01*
X117992654Y-107073299D01*
X118019692Y-107070391D01*
X118053201Y-107066789D01*
X118056041Y-107065730D01*
X118067768Y-107061355D01*
X118190204Y-107015689D01*
X118307261Y-106928061D01*
X118394889Y-106811004D01*
X118445989Y-106674001D01*
X118449892Y-106637699D01*
X118452499Y-106613454D01*
X118452500Y-106613437D01*
X118452500Y-106447300D01*
X118472185Y-106380261D01*
X118524989Y-106334506D01*
X118576500Y-106323300D01*
X119256909Y-106323300D01*
X119256910Y-106323300D01*
X119256911Y-106323300D01*
X119351452Y-106297968D01*
X119411673Y-106281832D01*
X119550427Y-106201722D01*
X119601228Y-106150921D01*
X119663721Y-106088428D01*
X119663722Y-106088427D01*
X119714521Y-106037628D01*
X119765303Y-105949672D01*
X119794632Y-105898873D01*
X119836100Y-105744110D01*
X119836100Y-105583890D01*
X119836100Y-102688289D01*
X119794632Y-102533528D01*
X119794632Y-102533527D01*
X119754576Y-102464150D01*
X119714521Y-102394772D01*
X119601228Y-102281479D01*
X119601227Y-102281478D01*
X119596897Y-102277148D01*
X119596886Y-102277138D01*
X118436881Y-101117132D01*
X118403396Y-101055809D01*
X118406630Y-100991134D01*
X118419049Y-100952916D01*
X118452500Y-100741716D01*
X118452500Y-100527884D01*
X118419049Y-100316684D01*
X118383150Y-100206198D01*
X118352973Y-100113319D01*
X118352972Y-100113316D01*
X118255893Y-99922790D01*
X118130206Y-99749796D01*
X117979004Y-99598594D01*
X117806009Y-99472906D01*
X117806005Y-99472903D01*
X117802132Y-99470530D01*
X117755254Y-99418720D01*
X117743829Y-99349791D01*
X117771483Y-99285627D01*
X117802132Y-99259070D01*
X117806005Y-99256696D01*
X117806004Y-99256696D01*
X117806009Y-99256694D01*
X117979004Y-99131006D01*
X118130206Y-98979804D01*
X118255894Y-98806809D01*
X118286773Y-98746204D01*
X118334747Y-98695409D01*
X118397258Y-98678500D01*
X121317500Y-98678500D01*
X121384539Y-98698185D01*
X121430294Y-98750989D01*
X121441500Y-98802500D01*
X121441500Y-98968654D01*
X121448011Y-99029202D01*
X121448011Y-99029204D01*
X121499111Y-99166204D01*
X121573585Y-99265689D01*
X121598002Y-99331154D01*
X121583150Y-99399427D01*
X121573586Y-99414308D01*
X121553921Y-99440578D01*
X121499111Y-99513795D01*
X121448011Y-99650795D01*
X121448011Y-99650797D01*
X121441500Y-99711345D01*
X121441500Y-101056589D01*
X121421815Y-101123628D01*
X121405181Y-101144270D01*
X120264680Y-102284770D01*
X120264678Y-102284773D01*
X120184568Y-102423527D01*
X120163834Y-102500908D01*
X120143100Y-102578289D01*
X120143100Y-111984689D01*
X120143100Y-112144911D01*
X120183728Y-112296538D01*
X120184569Y-112299674D01*
X120184569Y-112299675D01*
X120264676Y-112438424D01*
X120264678Y-112438426D01*
X120264679Y-112438428D01*
X120377972Y-112551721D01*
X120516728Y-112631832D01*
X120671489Y-112673300D01*
X121407793Y-112673300D01*
X121474832Y-112692985D01*
X121520587Y-112745789D01*
X121530531Y-112814947D01*
X121525724Y-112835618D01*
X121474951Y-112991882D01*
X121441500Y-113203084D01*
X121441500Y-113416916D01*
X121449609Y-113468113D01*
X121474951Y-113628117D01*
X121541026Y-113831480D01*
X121541027Y-113831483D01*
X121638106Y-114022009D01*
X121763794Y-114195004D01*
X121914996Y-114346206D01*
X122087991Y-114471894D01*
X122091873Y-114474273D01*
X122138748Y-114526086D01*
X122150169Y-114595016D01*
X122122512Y-114659178D01*
X122091873Y-114685727D01*
X122087991Y-114688105D01*
X121914993Y-114813796D01*
X121763796Y-114964993D01*
X121638106Y-115137990D01*
X121541027Y-115328516D01*
X121541026Y-115328519D01*
X121474951Y-115531882D01*
X121441500Y-115743084D01*
X121441500Y-115956915D01*
X121474951Y-116168117D01*
X121525334Y-116323182D01*
X121527329Y-116393024D01*
X121491248Y-116452856D01*
X121428547Y-116483684D01*
X121407403Y-116485500D01*
X120476111Y-116485500D01*
X120315889Y-116485500D01*
X120161128Y-116526968D01*
X120161127Y-116526968D01*
X120161125Y-116526969D01*
X120161124Y-116526969D01*
X120022375Y-116607076D01*
X120022369Y-116607081D01*
X119909081Y-116720369D01*
X119909076Y-116720375D01*
X119828969Y-116859124D01*
X119828969Y-116859125D01*
X119828968Y-116859127D01*
X119828968Y-116859128D01*
X119821030Y-116888754D01*
X119787500Y-117013889D01*
X119787500Y-126226109D01*
X119828968Y-126380874D01*
X119853422Y-126423229D01*
X119909078Y-126519627D01*
X119909080Y-126519629D01*
X121405181Y-128015730D01*
X121438666Y-128077053D01*
X121441500Y-128103411D01*
X121441500Y-129448654D01*
X121448011Y-129509202D01*
X121448011Y-129509204D01*
X121499111Y-129646204D01*
X121586739Y-129763261D01*
X121703796Y-129850889D01*
X121824626Y-129895956D01*
X121880557Y-129937827D01*
X121904974Y-130003291D01*
X121890122Y-130071564D01*
X121868972Y-130099818D01*
X121763793Y-130204997D01*
X121638106Y-130377990D01*
X121541027Y-130568516D01*
X121541026Y-130568519D01*
X121474951Y-130771882D01*
X121441500Y-130983084D01*
X121441500Y-131111589D01*
X121421815Y-131178628D01*
X121369011Y-131224383D01*
X121299853Y-131234327D01*
X121236297Y-131205302D01*
X121229819Y-131199270D01*
X117738819Y-127708270D01*
X117705334Y-127646947D01*
X117702500Y-127620589D01*
X117702500Y-120557700D01*
X117722185Y-120490661D01*
X117774989Y-120444906D01*
X117826500Y-120433700D01*
X117992638Y-120433700D01*
X117992654Y-120433699D01*
X118019692Y-120430791D01*
X118053201Y-120427189D01*
X118190204Y-120376089D01*
X118307261Y-120288461D01*
X118394889Y-120171404D01*
X118445989Y-120034401D01*
X118449591Y-120000892D01*
X118452499Y-119973854D01*
X118452500Y-119973837D01*
X118452500Y-118176562D01*
X118452499Y-118176545D01*
X118448232Y-118136864D01*
X118445989Y-118115999D01*
X118394889Y-117978996D01*
X118307261Y-117861939D01*
X118190204Y-117774311D01*
X118157460Y-117762098D01*
X118053203Y-117723211D01*
X117992654Y-117716700D01*
X117992638Y-117716700D01*
X117973309Y-117716700D01*
X117906270Y-117697015D01*
X117885628Y-117680381D01*
X117223408Y-117018162D01*
X117286993Y-117001125D01*
X117401007Y-116935299D01*
X117494099Y-116842207D01*
X117559925Y-116728193D01*
X117576962Y-116664608D01*
X118209270Y-117296917D01*
X118209270Y-117296916D01*
X118248622Y-117242754D01*
X118345095Y-117053417D01*
X118410757Y-116851330D01*
X118410757Y-116851327D01*
X118444000Y-116641446D01*
X118444000Y-116428953D01*
X118410757Y-116219072D01*
X118410757Y-116219069D01*
X118345095Y-116016982D01*
X118248624Y-115827649D01*
X118209270Y-115773482D01*
X118209269Y-115773482D01*
X117576962Y-116405790D01*
X117559925Y-116342207D01*
X117494099Y-116228193D01*
X117401007Y-116135101D01*
X117286993Y-116069275D01*
X117223409Y-116052237D01*
X117855716Y-115419928D01*
X117801550Y-115380575D01*
X117612217Y-115284104D01*
X117410129Y-115218442D01*
X117200246Y-115185200D01*
X116987754Y-115185200D01*
X116777872Y-115218442D01*
X116777869Y-115218442D01*
X116575782Y-115284104D01*
X116386439Y-115380580D01*
X116332282Y-115419927D01*
X116332282Y-115419928D01*
X116964591Y-116052237D01*
X116901007Y-116069275D01*
X116786993Y-116135101D01*
X116693901Y-116228193D01*
X116628075Y-116342207D01*
X116611037Y-116405791D01*
X115978728Y-115773482D01*
X115978727Y-115773482D01*
X115939380Y-115827639D01*
X115842904Y-116016982D01*
X115777242Y-116219069D01*
X115777242Y-116219072D01*
X115744000Y-116428953D01*
X115744000Y-116641446D01*
X115777242Y-116851327D01*
X115777242Y-116851330D01*
X115842904Y-117053417D01*
X115939375Y-117242750D01*
X115978728Y-117296916D01*
X116611037Y-116664608D01*
X116628075Y-116728193D01*
X116693901Y-116842207D01*
X116786993Y-116935299D01*
X116901007Y-117001125D01*
X116964591Y-117018162D01*
X116302371Y-117680381D01*
X116241048Y-117713866D01*
X116214690Y-117716700D01*
X116195345Y-117716700D01*
X116134797Y-117723211D01*
X116134795Y-117723211D01*
X115997795Y-117774311D01*
X115880739Y-117861939D01*
X115793111Y-117978995D01*
X115742011Y-118115995D01*
X115742011Y-118115997D01*
X115735500Y-118176545D01*
X115735500Y-119973854D01*
X115742011Y-120034402D01*
X115742011Y-120034404D01*
X115778419Y-120132014D01*
X115793111Y-120171404D01*
X115880739Y-120288461D01*
X115997796Y-120376089D01*
X116134799Y-120427189D01*
X116162050Y-120430118D01*
X116195345Y-120433699D01*
X116195362Y-120433700D01*
X116361500Y-120433700D01*
X116428539Y-120453385D01*
X116474294Y-120506189D01*
X116485500Y-120557700D01*
X116485500Y-128004109D01*
X116526968Y-128158874D01*
X116537355Y-128176864D01*
X116607078Y-128297627D01*
X116607080Y-128297629D01*
X121405181Y-133095730D01*
X121438666Y-133157053D01*
X121441500Y-133183411D01*
X121441500Y-134528654D01*
X121448011Y-134589202D01*
X121448011Y-134589204D01*
X121499111Y-134726204D01*
X121578893Y-134832780D01*
X121603310Y-134898245D01*
X121588458Y-134966518D01*
X121578893Y-134981402D01*
X121506647Y-135077910D01*
X121506645Y-135077913D01*
X121456403Y-135212620D01*
X121456401Y-135212627D01*
X121450000Y-135272155D01*
X121450000Y-135920000D01*
X122366988Y-135920000D01*
X122334075Y-135977007D01*
X122300000Y-136104174D01*
X122300000Y-136235826D01*
X122334075Y-136362993D01*
X122366988Y-136420000D01*
X121450000Y-136420000D01*
X121450000Y-137067844D01*
X121456401Y-137127372D01*
X121456403Y-137127379D01*
X121506645Y-137262086D01*
X121506649Y-137262093D01*
X121592809Y-137377187D01*
X121592812Y-137377190D01*
X121707906Y-137463350D01*
X121707913Y-137463354D01*
X121842620Y-137513596D01*
X121842627Y-137513598D01*
X121902155Y-137519999D01*
X121902172Y-137520000D01*
X122550000Y-137520000D01*
X122550000Y-136603012D01*
X122607007Y-136635925D01*
X122734174Y-136670000D01*
X122865826Y-136670000D01*
X122992993Y-136635925D01*
X123050000Y-136603012D01*
X123050000Y-137520000D01*
X123697828Y-137520000D01*
X123697844Y-137519999D01*
X123757372Y-137513598D01*
X123757379Y-137513596D01*
X123892086Y-137463354D01*
X123892093Y-137463350D01*
X124007187Y-137377190D01*
X124007190Y-137377187D01*
X124093350Y-137262093D01*
X124093354Y-137262086D01*
X124143596Y-137127379D01*
X124143598Y-137127372D01*
X124149999Y-137067844D01*
X124150000Y-137067827D01*
X124150000Y-136420000D01*
X123233012Y-136420000D01*
X123265925Y-136362993D01*
X123300000Y-136235826D01*
X123300000Y-136104174D01*
X123265925Y-135977007D01*
X123233012Y-135920000D01*
X124150000Y-135920000D01*
X124150000Y-135272172D01*
X124149999Y-135272155D01*
X124143598Y-135212627D01*
X124143596Y-135212620D01*
X124093354Y-135077913D01*
X124093353Y-135077911D01*
X124021106Y-134981402D01*
X123996689Y-134915938D01*
X124011540Y-134847665D01*
X124021099Y-134832789D01*
X124100889Y-134726204D01*
X124151989Y-134589201D01*
X124155591Y-134555692D01*
X124158499Y-134528654D01*
X124158500Y-134528637D01*
X124158500Y-132731362D01*
X124158499Y-132731345D01*
X124155157Y-132700270D01*
X124151989Y-132670799D01*
X124100889Y-132533796D01*
X124013261Y-132416739D01*
X123896204Y-132329111D01*
X123896202Y-132329110D01*
X123896204Y-132329110D01*
X123775375Y-132284043D01*
X123719441Y-132242172D01*
X123695025Y-132176707D01*
X123709877Y-132108434D01*
X123731022Y-132080187D01*
X123836206Y-131975004D01*
X123961894Y-131802009D01*
X124058972Y-131611483D01*
X124125049Y-131408116D01*
X124158500Y-131196916D01*
X124158500Y-130983084D01*
X124125049Y-130771884D01*
X124058972Y-130568517D01*
X124058972Y-130568516D01*
X123961893Y-130377990D01*
X123836206Y-130204996D01*
X123731028Y-130099818D01*
X123697543Y-130038495D01*
X123702527Y-129968803D01*
X123744399Y-129912870D01*
X123775367Y-129895959D01*
X123896204Y-129850889D01*
X124013261Y-129763261D01*
X124100889Y-129646204D01*
X124151989Y-129509201D01*
X124155591Y-129475692D01*
X124158499Y-129448654D01*
X124158500Y-129448637D01*
X124158500Y-127651362D01*
X124158499Y-127651345D01*
X124155157Y-127620270D01*
X124151989Y-127590799D01*
X124129942Y-127531690D01*
X124100888Y-127453793D01*
X124100887Y-127453792D01*
X124026415Y-127354311D01*
X124001997Y-127288847D01*
X124016848Y-127220574D01*
X124026415Y-127205689D01*
X124100887Y-127106207D01*
X124100888Y-127106206D01*
X124151988Y-126969204D01*
X124151988Y-126969203D01*
X124151989Y-126969201D01*
X124155591Y-126935692D01*
X124158499Y-126908654D01*
X124158500Y-126908637D01*
X124158500Y-125563411D01*
X124178185Y-125496372D01*
X124194819Y-125475730D01*
X124637819Y-125032730D01*
X124699142Y-124999245D01*
X124768834Y-125004229D01*
X124824767Y-125046101D01*
X124849184Y-125111565D01*
X124849500Y-125120411D01*
X124849500Y-136239793D01*
X124848517Y-137127379D01*
X124847438Y-138102437D01*
X124827679Y-138169455D01*
X124774825Y-138215151D01*
X124723438Y-138226300D01*
X113122304Y-138226300D01*
X113055265Y-138206615D01*
X113009510Y-138153811D01*
X112998304Y-138102296D01*
X112998324Y-137528500D01*
X112998451Y-133878711D01*
X115149500Y-133878711D01*
X115149500Y-134121288D01*
X115181161Y-134361785D01*
X115243947Y-134596104D01*
X115325046Y-134791894D01*
X115336776Y-134820212D01*
X115458064Y-135030289D01*
X115458066Y-135030292D01*
X115458067Y-135030293D01*
X115605733Y-135222736D01*
X115605739Y-135222743D01*
X115777256Y-135394260D01*
X115777263Y-135394266D01*
X115890321Y-135481018D01*
X115969711Y-135541936D01*
X116179788Y-135663224D01*
X116403900Y-135756054D01*
X116638211Y-135818838D01*
X116818586Y-135842584D01*
X116878711Y-135850500D01*
X116878712Y-135850500D01*
X117121289Y-135850500D01*
X117169388Y-135844167D01*
X117361789Y-135818838D01*
X117596100Y-135756054D01*
X117820212Y-135663224D01*
X118030289Y-135541936D01*
X118222738Y-135394265D01*
X118394265Y-135222738D01*
X118541936Y-135030289D01*
X118663224Y-134820212D01*
X118756054Y-134596100D01*
X118818838Y-134361789D01*
X118850500Y-134121288D01*
X118850500Y-133878712D01*
X118818838Y-133638211D01*
X118756054Y-133403900D01*
X118663224Y-133179788D01*
X118541936Y-132969711D01*
X118394265Y-132777262D01*
X118394260Y-132777256D01*
X118222743Y-132605739D01*
X118222736Y-132605733D01*
X118030293Y-132458067D01*
X118030292Y-132458066D01*
X118030289Y-132458064D01*
X117820212Y-132336776D01*
X117746120Y-132306086D01*
X117596104Y-132243947D01*
X117361785Y-132181161D01*
X117121289Y-132149500D01*
X117121288Y-132149500D01*
X116878712Y-132149500D01*
X116878711Y-132149500D01*
X116638214Y-132181161D01*
X116403895Y-132243947D01*
X116179794Y-132336773D01*
X116179785Y-132336777D01*
X115969706Y-132458067D01*
X115777263Y-132605733D01*
X115777256Y-132605739D01*
X115605739Y-132777256D01*
X115605733Y-132777263D01*
X115458067Y-132969706D01*
X115336777Y-133179785D01*
X115336773Y-133179794D01*
X115243947Y-133403895D01*
X115181161Y-133638214D01*
X115149500Y-133878711D01*
X112998451Y-133878711D01*
X112998838Y-122757990D01*
X112999059Y-116424077D01*
X112999092Y-115467183D01*
X112999524Y-103063677D01*
X113000383Y-78378711D01*
X115149500Y-78378711D01*
X115149500Y-78621288D01*
X115181161Y-78861785D01*
X115243947Y-79096104D01*
X115336773Y-79320205D01*
X115336776Y-79320212D01*
X115458064Y-79530289D01*
X115458066Y-79530292D01*
X115458067Y-79530293D01*
X115605733Y-79722736D01*
X115605739Y-79722743D01*
X115777256Y-79894260D01*
X115777262Y-79894265D01*
X115969711Y-80041936D01*
X116179788Y-80163224D01*
X116403900Y-80256054D01*
X116638211Y-80318838D01*
X116818586Y-80342584D01*
X116878711Y-80350500D01*
X116878712Y-80350500D01*
X117121289Y-80350500D01*
X117169388Y-80344167D01*
X117361789Y-80318838D01*
X117596100Y-80256054D01*
X117820212Y-80163224D01*
X118030289Y-80041936D01*
X118222738Y-79894265D01*
X118394265Y-79722738D01*
X118541936Y-79530289D01*
X118663224Y-79320212D01*
X118756054Y-79096100D01*
X118818838Y-78861789D01*
X118850500Y-78621288D01*
X118850500Y-78378712D01*
X118850500Y-78378711D01*
X152149500Y-78378711D01*
X152149500Y-78621288D01*
X152181161Y-78861785D01*
X152243947Y-79096104D01*
X152336773Y-79320205D01*
X152336776Y-79320212D01*
X152458064Y-79530289D01*
X152458066Y-79530292D01*
X152458067Y-79530293D01*
X152605733Y-79722736D01*
X152605739Y-79722743D01*
X152777256Y-79894260D01*
X152777262Y-79894265D01*
X152969711Y-80041936D01*
X153179788Y-80163224D01*
X153403900Y-80256054D01*
X153638211Y-80318838D01*
X153818586Y-80342584D01*
X153878711Y-80350500D01*
X153878712Y-80350500D01*
X154121289Y-80350500D01*
X154169388Y-80344167D01*
X154361789Y-80318838D01*
X154596100Y-80256054D01*
X154820212Y-80163224D01*
X155030289Y-80041936D01*
X155222738Y-79894265D01*
X155394265Y-79722738D01*
X155541936Y-79530289D01*
X155663224Y-79320212D01*
X155756054Y-79096100D01*
X155818838Y-78861789D01*
X155850500Y-78621288D01*
X155850500Y-78378712D01*
X155818838Y-78138211D01*
X155756054Y-77903900D01*
X155663224Y-77679788D01*
X155541936Y-77469711D01*
X155394265Y-77277262D01*
X155394260Y-77277256D01*
X155222743Y-77105739D01*
X155222736Y-77105733D01*
X155030293Y-76958067D01*
X155030292Y-76958066D01*
X155030289Y-76958064D01*
X154820212Y-76836776D01*
X154820205Y-76836773D01*
X154596104Y-76743947D01*
X154361785Y-76681161D01*
X154121289Y-76649500D01*
X154121288Y-76649500D01*
X153878712Y-76649500D01*
X153878711Y-76649500D01*
X153638214Y-76681161D01*
X153403895Y-76743947D01*
X153179794Y-76836773D01*
X153179785Y-76836777D01*
X152969706Y-76958067D01*
X152777263Y-77105733D01*
X152777256Y-77105739D01*
X152605739Y-77277256D01*
X152605733Y-77277263D01*
X152458067Y-77469706D01*
X152336777Y-77679785D01*
X152336773Y-77679794D01*
X152243947Y-77903895D01*
X152181161Y-78138214D01*
X152149500Y-78378711D01*
X118850500Y-78378711D01*
X118818838Y-78138211D01*
X118756054Y-77903900D01*
X118663224Y-77679788D01*
X118541936Y-77469711D01*
X118394265Y-77277262D01*
X118394260Y-77277256D01*
X118222743Y-77105739D01*
X118222736Y-77105733D01*
X118030293Y-76958067D01*
X118030292Y-76958066D01*
X118030289Y-76958064D01*
X117820212Y-76836776D01*
X117820205Y-76836773D01*
X117596104Y-76743947D01*
X117361785Y-76681161D01*
X117121289Y-76649500D01*
X117121288Y-76649500D01*
X116878712Y-76649500D01*
X116878711Y-76649500D01*
X116638214Y-76681161D01*
X116403895Y-76743947D01*
X116179794Y-76836773D01*
X116179785Y-76836777D01*
X115969706Y-76958067D01*
X115777263Y-77105733D01*
X115777256Y-77105739D01*
X115605739Y-77277256D01*
X115605733Y-77277263D01*
X115458067Y-77469706D01*
X115336777Y-77679785D01*
X115336773Y-77679794D01*
X115243947Y-77903895D01*
X115181161Y-78138214D01*
X115149500Y-78378711D01*
X113000383Y-78378711D01*
X113000383Y-78374649D01*
X113000496Y-75124496D01*
X113020183Y-75057457D01*
X113072988Y-75011704D01*
X113124496Y-75000500D01*
X157875500Y-75000500D01*
X157942539Y-75020185D01*
G37*
%TD.AperFunction*%
%TA.AperFunction,Conductor*%
G36*
X118209270Y-103936517D02*
G01*
X118209270Y-103936516D01*
X118248622Y-103882354D01*
X118345095Y-103693017D01*
X118377169Y-103594304D01*
X118416606Y-103536629D01*
X118480965Y-103509430D01*
X118549811Y-103521344D01*
X118601287Y-103568588D01*
X118619100Y-103632622D01*
X118619100Y-104545546D01*
X118599415Y-104612585D01*
X118546611Y-104658340D01*
X118477453Y-104668284D01*
X118413897Y-104639259D01*
X118395833Y-104619857D01*
X118340204Y-104545546D01*
X118307261Y-104501539D01*
X118190204Y-104413911D01*
X118166289Y-104404991D01*
X118053203Y-104362811D01*
X117992654Y-104356300D01*
X117992638Y-104356300D01*
X117973309Y-104356300D01*
X117906270Y-104336615D01*
X117885628Y-104319981D01*
X117223408Y-103657762D01*
X117286993Y-103640725D01*
X117401007Y-103574899D01*
X117494099Y-103481807D01*
X117559925Y-103367793D01*
X117576962Y-103304208D01*
X118209270Y-103936517D01*
G37*
%TD.AperFunction*%
%TD*%
M02*
