M48
; DRILL file KiCad 10.0.6-1.fc44 date 2026-09-11T09:22:43
; FORMAT={-:-/ absolute / metric / decimal}
; #@! TF.CreationDate,2026-09-11T09:22:43+07:00
; #@! TF.GenerationSoftware,Kicad,Pcbnew,10.0.6-1.fc44
; #@! TF.FileFunction,Plated,1,2,PTH
FMAT,2
METRIC
; #@! TA.AperFunction,Plated,PTH,ComponentDrill
T1C1.000
%
G90
G05
T1
X117.094Y-87.935
X117.094Y-90.475
X117.094Y-93.015
X117.094Y-95.555
X117.094Y-98.095
X117.094Y-100.635
X117.094Y-103.175
X117.094Y-105.715
X117.094Y-116.535
X117.094Y-119.075
X122.8Y-82.83
X122.8Y-85.37
X122.8Y-87.91
X122.8Y-90.45
X122.8Y-92.99
X122.8Y-95.53
X122.8Y-98.07
X122.8Y-100.61
X122.8Y-103.15
X122.8Y-105.69
X122.8Y-108.23
X122.8Y-110.77
X122.8Y-113.31
X122.8Y-115.85
X122.8Y-118.39
X122.8Y-120.93
X122.8Y-123.47
X122.8Y-126.01
X122.8Y-128.55
X122.8Y-131.09
X122.8Y-133.63
X122.8Y-136.17
X148.2Y-82.83
X148.2Y-85.37
X148.2Y-87.91
X148.2Y-90.45
X148.2Y-92.99
X148.2Y-95.53
X148.2Y-98.07
X148.2Y-100.61
X148.2Y-103.15
X148.2Y-105.69
X148.2Y-108.23
X148.2Y-110.77
X148.2Y-113.31
X148.2Y-115.85
X148.2Y-118.39
X148.2Y-120.93
X148.2Y-123.47
X148.2Y-126.01
X148.2Y-128.55
X148.2Y-131.09
X148.2Y-133.63
X148.2Y-136.17
M30
