%TF.GenerationSoftware,KiCad,Pcbnew,10.0.6-1.fc44*%
%TF.CreationDate,2026-09-07T13:57:24+07:00*%
%TF.ProjectId,LuckFox RAP Shield,4c75636b-466f-4782-9052-415020536869,rev?*%
%TF.SameCoordinates,Original*%
%TF.FileFunction,Copper,L2,Bot*%
%TF.FilePolarity,Positive*%
%FSLAX46Y46*%
G04 Gerber Fmt 4.6, Leading zero omitted, Abs format (unit mm)*
G04 Created by KiCad (PCBNEW 10.0.6-1.fc44) date 2026-09-07 13:57:24*
%MOMM*%
%LPD*%
G01*
G04 APERTURE LIST*
%TA.AperFunction,ComponentPad*%
%ADD10C,1.700000*%
%TD*%
%TA.AperFunction,ComponentPad*%
%ADD11R,1.700000X1.700000*%
%TD*%
%TA.AperFunction,SMDPad,CuDef*%
%ADD12R,1.400000X1.800000*%
%TD*%
%TA.AperFunction,ViaPad*%
%ADD13C,0.800000*%
%TD*%
%TA.AperFunction,Conductor*%
%ADD14C,0.200000*%
%TD*%
G04 APERTURE END LIST*
D10*
%TO.P,B2,*%
%TO.N,*%
X122800000Y-85370000D03*
X122800000Y-105690000D03*
X122800000Y-108230000D03*
X122800000Y-110770000D03*
X122800000Y-113310000D03*
X122800000Y-115850000D03*
X122800000Y-131090000D03*
X148200000Y-85370000D03*
X148200000Y-87910000D03*
X148200000Y-90450000D03*
X148200000Y-92990000D03*
X148200000Y-95530000D03*
X148200000Y-98070000D03*
X148200000Y-100610000D03*
X148200000Y-103150000D03*
X148200000Y-105690000D03*
X148200000Y-108230000D03*
X148200000Y-110770000D03*
X148200000Y-113310000D03*
X148200000Y-115850000D03*
X148200000Y-118390000D03*
X148200000Y-120930000D03*
X148200000Y-123470000D03*
X148200000Y-126010000D03*
X148200000Y-128550000D03*
X148200000Y-131090000D03*
X148200000Y-133630000D03*
X148200000Y-136170000D03*
D11*
%TO.P,B2,1,5V_1*%
%TO.N,+5V_RAIL*%
X122800000Y-133630000D03*
%TO.P,B2,2,3V3_2*%
%TO.N,+3V3_RAIL*%
X122800000Y-82830000D03*
%TO.P,B2,3,GND_3*%
%TO.N,GND*%
X122800000Y-136170000D03*
%TO.P,B2,4,EN_4*%
%TO.N,unconnected-(B2-EN-Pad4)*%
X122800000Y-87910000D03*
%TO.P,B2,5,GPIO4_MOSI_ETH_5*%
%TO.N,Net-(B2-GPIO4_MOSI_ETH)*%
X122800000Y-90450000D03*
%TO.P,B2,6,GPIO5_MISO_ETH_6*%
%TO.N,Net-(B2-GPIO5_MISO_ETH)*%
X122800000Y-92990000D03*
%TO.P,B2,7,GPIO6_SCK_ETH_7*%
%TO.N,Net-(B2-GPIO6_SCK_ETH)*%
X122800000Y-95530000D03*
%TO.P,B2,8,GPIO7_CS_ETH_8*%
%TO.N,Net-(B2-GPIO7_CS_ETH)*%
X122800000Y-98070000D03*
%TO.P,B2,9,GPIO9_INT_ETH_9*%
%TO.N,Net-(B2-GPIO9_INT_ETH)*%
X122800000Y-118390000D03*
%TO.P,B2,10,GPIO10_CS_LF_10*%
%TO.N,Net-(B2-GPIO10_CS_LF)*%
X122800000Y-120930000D03*
%TO.P,B2,11,GPIO11_MOSI_LF_11*%
%TO.N,Net-(B2-GPIO11_MOSI_LF)*%
X122800000Y-123470000D03*
%TO.P,B2,12,GPIO12_SCK_LF_12*%
%TO.N,Net-(B2-GPIO12_SCK_LF)*%
X122800000Y-126010000D03*
%TO.P,B2,13,GPIO13_MISO_LF_13*%
%TO.N,Net-(B2-GPIO13_MISO_LF)*%
X122800000Y-128550000D03*
%TO.P,B2,14,GPIO15_DATA_RDY_IN_14*%
%TO.N,Net-(B2-GPIO15_DATA_RDY_IN)*%
X122800000Y-100610000D03*
%TO.P,B2,15,GPIO16_SLAVE_RDY_OUT_15*%
%TO.N,Net-(B2-GPIO16_SLAVE_RDY_OUT)*%
X122800000Y-103150000D03*
%TO.P,B2,16,GND_16*%
%TO.N,GND*%
X148200000Y-82830000D03*
%TD*%
%TO.P,U2,1,VCC_3V3_1*%
%TO.N,+3V3_RAIL*%
X117094000Y-105714800D03*
D10*
%TO.P,U2,2,GND_2*%
%TO.N,GND*%
X117094000Y-103174800D03*
%TO.P,U2,3,RST_3*%
%TO.N,+3V3_RAIL*%
X117094000Y-100634800D03*
%TO.P,U2,4,CS_4*%
%TO.N,Net-(B2-GPIO7_CS_ETH)*%
X117094000Y-98094800D03*
%TO.P,U2,5,SCK_5*%
%TO.N,Net-(B2-GPIO6_SCK_ETH)*%
X117094000Y-95554800D03*
%TO.P,U2,6,MOSI_6*%
%TO.N,Net-(B2-GPIO4_MOSI_ETH)*%
X117094000Y-93014800D03*
%TO.P,U2,7,MISO_7*%
%TO.N,Net-(B2-GPIO5_MISO_ETH)*%
X117094000Y-90474800D03*
%TO.P,U2,8,INT_8*%
%TO.N,Net-(B2-GPIO9_INT_ETH)*%
X117094000Y-87934800D03*
%TD*%
D11*
%TO.P,J2,1,5V_IN_1*%
%TO.N,+5V_RAIL*%
X117094000Y-119075200D03*
D10*
%TO.P,J2,2,GND_IN_2*%
%TO.N,GND*%
X117094000Y-116535200D03*
%TD*%
D12*
%TO.P,J1,1,VBUS_1*%
%TO.N,+5V_RAIL*%
X125000000Y-136240000D03*
%TO.P,J1,2,GND_2*%
%TO.N,GND*%
X125000000Y-133700000D03*
%TO.P,J1,3,3V3_OUT_3*%
%TO.N,unconnected-(J1-3V3_OUT-Pad3)*%
X125000000Y-131160000D03*
%TO.P,J1,4,GPIO1_B2_d_4*%
%TO.N,unconnected-(J1-GPIO1_B2_d-Pad4)*%
X125000000Y-128620000D03*
%TO.P,J1,5,GPIO1_B3_u_5*%
%TO.N,unconnected-(J1-GPIO1_B3_u-Pad5)*%
X125000000Y-126080000D03*
%TO.P,J1,6,GPIO1_C0_d_SPI0_CS0_6*%
%TO.N,Net-(B2-GPIO10_CS_LF)*%
X125000000Y-123540000D03*
%TO.P,J1,7,GPIO1_C1_d_SPI0_CLK_7*%
%TO.N,Net-(B2-GPIO12_SCK_LF)*%
X125000000Y-121000000D03*
%TO.P,J1,8,GPIO1_C2_d_SPI0_MOSI_8*%
%TO.N,Net-(B2-GPIO11_MOSI_LF)*%
X125000000Y-118460000D03*
%TO.P,J1,9,GPIO1_C3_d_SPI0_MISO_9*%
%TO.N,Net-(B2-GPIO13_MISO_LF)*%
X125000000Y-115920000D03*
%TO.P,J1,10,GPIO1_C4_d_DATA_RDY_10*%
%TO.N,Net-(B2-GPIO15_DATA_RDY_IN)*%
X125000000Y-113380000D03*
%TO.P,J1,11,GPIO1_C5_d_11*%
%TO.N,unconnected-(J1-GPIO1_C5_d-Pad11)*%
X125000000Y-110840000D03*
%TO.P,J1,12,GPIO1_D0_d_12*%
%TO.N,unconnected-(J1-GPIO1_D0_d-Pad12)*%
X146000000Y-110840000D03*
%TO.P,J1,13,GPIO1_D1_d_13*%
%TO.N,unconnected-(J1-GPIO1_D1_d-Pad13)*%
X146000000Y-113380000D03*
%TO.P,J1,14,GPIO1_D2_d_14*%
%TO.N,unconnected-(J1-GPIO1_D2_d-Pad14)*%
X146000000Y-115920000D03*
%TO.P,J1,15,GPIO1_D3_d_15*%
%TO.N,unconnected-(J1-GPIO1_D3_d-Pad15)*%
X146000000Y-118460000D03*
%TO.P,J1,16,GPIO1_C6_d_16*%
%TO.N,unconnected-(J1-GPIO1_C6_d-Pad16)*%
X146000000Y-121000000D03*
%TO.P,J1,17,GPIO1_C7_d_17*%
%TO.N,unconnected-(J1-GPIO1_C7_d-Pad17)*%
X146000000Y-123540000D03*
%TO.P,J1,18,GPIO0_A4_d_SLAVE_RDY_18*%
%TO.N,Net-(B2-GPIO16_SLAVE_RDY_OUT)*%
X146000000Y-126080000D03*
%TO.P,J1,19,GPIO4_C0_z_19*%
%TO.N,unconnected-(J1-GPIO4_C0_z-Pad19)*%
X146000000Y-128620000D03*
%TO.P,J1,20,GPIO4_C1_z_20*%
%TO.N,unconnected-(J1-GPIO4_C1_z-Pad20)*%
X146000000Y-131160000D03*
%TO.P,J1,21,GND_21*%
%TO.N,GND*%
X146000000Y-133700000D03*
%TO.P,J1,22,1V8_OUT_22*%
%TO.N,unconnected-(J1-1V8_OUT-Pad22)*%
X146000000Y-136240000D03*
%TD*%
D13*
%TO.N,GND*%
X146558000Y-134670800D03*
X124358400Y-134739998D03*
%TO.N,Net-(B2-GPIO11_MOSI_LF)*%
X124256800Y-118567200D03*
%TO.N,Net-(B2-GPIO12_SCK_LF)*%
X124250002Y-121005600D03*
%TO.N,Net-(B2-GPIO13_MISO_LF)*%
X124249695Y-115879891D03*
%TO.N,Net-(B2-GPIO15_DATA_RDY_IN)*%
X124256800Y-112776000D03*
%TO.N,Net-(B2-GPIO16_SLAVE_RDY_OUT)*%
X147125343Y-127296816D03*
%TD*%
%TO.N,+5V_RAIL*%
D14*
X121208800Y-135221200D02*
X121208800Y-137464800D01*
X124749020Y-137124980D02*
X124750000Y-136240008D01*
X124494626Y-136495400D02*
X124750000Y-136240026D01*
X121208800Y-137464800D02*
X124494626Y-137464800D01*
X124494626Y-137464800D02*
X124494626Y-136495400D01*
X122800000Y-133630000D02*
X121208800Y-135221200D01*
%TO.N,GND*%
X124750000Y-134348398D02*
X124750000Y-133700000D01*
X124358400Y-134739998D02*
X124750000Y-134348398D01*
%TO.N,Net-(B2-GPIO5_MISO_ETH)*%
X117094000Y-90474800D02*
X119609200Y-92990000D01*
X119609200Y-92990000D02*
X122800000Y-92990000D01*
%TO.N,Net-(B2-GPIO9_INT_ETH)*%
X114604800Y-110194800D02*
X122800000Y-118390000D01*
X114604800Y-90424000D02*
X114604800Y-110194800D01*
X117094000Y-87934800D02*
X114604800Y-90424000D01*
%TO.N,Net-(B2-GPIO10_CS_LF)*%
X122800000Y-120930000D02*
X124750000Y-122880000D01*
X124750000Y-122880000D02*
X124750000Y-123540000D01*
%TO.N,Net-(B2-GPIO11_MOSI_LF)*%
X124256800Y-118567200D02*
X124750000Y-118567200D01*
X124750000Y-118567200D02*
X124750000Y-118468765D01*
%TO.N,Net-(B2-GPIO12_SCK_LF)*%
X124750000Y-121005600D02*
X124750000Y-121000000D01*
X124250002Y-121005600D02*
X124750000Y-121005600D01*
%TO.N,Net-(B2-GPIO13_MISO_LF)*%
X124750000Y-115879891D02*
X124750000Y-115920000D01*
X124249695Y-115879891D02*
X124750000Y-115879891D01*
%TO.N,Net-(B2-GPIO15_DATA_RDY_IN)*%
X124256800Y-112776000D02*
X124396000Y-112776000D01*
X124725000Y-113105000D02*
X124725000Y-113380000D01*
X124396000Y-112776000D02*
X124725000Y-113105000D01*
%TO.N,Net-(B2-GPIO16_SLAVE_RDY_OUT)*%
X146275000Y-126446473D02*
X146275000Y-126080000D01*
X147125343Y-127296816D02*
X146275000Y-126446473D01*
%TD*%
%TA.AperFunction,Conductor*%
%TO.N,GND*%
G36*
X157942539Y-75020185D02*
G01*
X157988294Y-75072989D01*
X157999500Y-75124500D01*
X157999500Y-138051500D01*
X157979815Y-138118539D01*
X157927011Y-138164294D01*
X157875500Y-138175500D01*
X146274500Y-138175500D01*
X146207461Y-138155815D01*
X146161706Y-138103011D01*
X146150500Y-138051500D01*
X146150500Y-137772500D01*
X146170185Y-137705461D01*
X146222989Y-137659706D01*
X146274500Y-137648500D01*
X146748638Y-137648500D01*
X146748654Y-137648499D01*
X146775692Y-137645591D01*
X146809201Y-137641989D01*
X146946204Y-137590889D01*
X147063261Y-137503261D01*
X147150889Y-137386204D01*
X147181667Y-137303683D01*
X147223537Y-137247752D01*
X147289002Y-137223335D01*
X147357275Y-137238187D01*
X147370723Y-137246694D01*
X147487991Y-137331894D01*
X147581438Y-137379507D01*
X147678516Y-137428972D01*
X147678519Y-137428973D01*
X147780200Y-137462010D01*
X147881884Y-137495049D01*
X148093084Y-137528500D01*
X148093085Y-137528500D01*
X148306915Y-137528500D01*
X148306916Y-137528500D01*
X148518116Y-137495049D01*
X148721483Y-137428972D01*
X148912009Y-137331894D01*
X149085004Y-137206206D01*
X149236206Y-137055004D01*
X149361894Y-136882009D01*
X149458972Y-136691483D01*
X149525049Y-136488116D01*
X149558500Y-136276916D01*
X149558500Y-136063084D01*
X149525049Y-135851884D01*
X149458972Y-135648517D01*
X149458972Y-135648516D01*
X149361893Y-135457990D01*
X149315594Y-135394265D01*
X149236206Y-135284996D01*
X149085004Y-135133794D01*
X148912009Y-135008106D01*
X148912005Y-135008103D01*
X148908132Y-135005730D01*
X148861254Y-134953920D01*
X148849829Y-134884991D01*
X148877483Y-134820827D01*
X148908132Y-134794270D01*
X148912005Y-134791896D01*
X148912004Y-134791896D01*
X148912009Y-134791894D01*
X149085004Y-134666206D01*
X149236206Y-134515004D01*
X149361894Y-134342009D01*
X149458972Y-134151483D01*
X149525049Y-133948116D01*
X149536042Y-133878711D01*
X152149500Y-133878711D01*
X152149500Y-134121288D01*
X152181161Y-134361785D01*
X152243947Y-134596104D01*
X152325046Y-134791894D01*
X152336776Y-134820212D01*
X152458064Y-135030289D01*
X152458066Y-135030292D01*
X152458067Y-135030293D01*
X152605733Y-135222736D01*
X152605739Y-135222743D01*
X152777256Y-135394260D01*
X152777263Y-135394266D01*
X152880196Y-135473249D01*
X152969711Y-135541936D01*
X153179788Y-135663224D01*
X153403900Y-135756054D01*
X153638211Y-135818838D01*
X153818586Y-135842584D01*
X153878711Y-135850500D01*
X153878712Y-135850500D01*
X154121289Y-135850500D01*
X154169388Y-135844167D01*
X154361789Y-135818838D01*
X154596100Y-135756054D01*
X154820212Y-135663224D01*
X155030289Y-135541936D01*
X155222738Y-135394265D01*
X155394265Y-135222738D01*
X155541936Y-135030289D01*
X155663224Y-134820212D01*
X155756054Y-134596100D01*
X155818838Y-134361789D01*
X155850500Y-134121288D01*
X155850500Y-133878712D01*
X155818838Y-133638211D01*
X155756054Y-133403900D01*
X155663224Y-133179788D01*
X155541936Y-132969711D01*
X155394265Y-132777262D01*
X155394260Y-132777256D01*
X155222743Y-132605739D01*
X155222736Y-132605733D01*
X155030293Y-132458067D01*
X155030292Y-132458066D01*
X155030289Y-132458064D01*
X154820212Y-132336776D01*
X154801707Y-132329111D01*
X154596104Y-132243947D01*
X154361785Y-132181161D01*
X154121289Y-132149500D01*
X154121288Y-132149500D01*
X153878712Y-132149500D01*
X153878711Y-132149500D01*
X153638214Y-132181161D01*
X153403895Y-132243947D01*
X153179794Y-132336773D01*
X153179785Y-132336777D01*
X152969706Y-132458067D01*
X152777263Y-132605733D01*
X152777256Y-132605739D01*
X152605739Y-132777256D01*
X152605733Y-132777263D01*
X152458067Y-132969706D01*
X152336777Y-133179785D01*
X152336773Y-133179794D01*
X152243947Y-133403895D01*
X152181161Y-133638214D01*
X152149500Y-133878711D01*
X149536042Y-133878711D01*
X149558500Y-133736916D01*
X149558500Y-133523084D01*
X149525049Y-133311884D01*
X149458972Y-133108517D01*
X149458972Y-133108516D01*
X149409507Y-133011438D01*
X149361894Y-132917991D01*
X149236206Y-132744996D01*
X149085004Y-132593794D01*
X148912009Y-132468106D01*
X148912005Y-132468103D01*
X148908132Y-132465730D01*
X148861254Y-132413920D01*
X148849829Y-132344991D01*
X148877483Y-132280827D01*
X148908132Y-132254270D01*
X148912005Y-132251896D01*
X148912004Y-132251896D01*
X148912009Y-132251894D01*
X149085004Y-132126206D01*
X149236206Y-131975004D01*
X149361894Y-131802009D01*
X149458972Y-131611483D01*
X149525049Y-131408116D01*
X149558500Y-131196916D01*
X149558500Y-130983084D01*
X149525049Y-130771884D01*
X149458972Y-130568517D01*
X149458972Y-130568516D01*
X149361893Y-130377990D01*
X149236206Y-130204996D01*
X149085004Y-130053794D01*
X148912009Y-129928106D01*
X148912005Y-129928103D01*
X148908132Y-129925730D01*
X148861254Y-129873920D01*
X148849829Y-129804991D01*
X148877483Y-129740827D01*
X148908132Y-129714270D01*
X148912005Y-129711896D01*
X148912004Y-129711896D01*
X148912009Y-129711894D01*
X149085004Y-129586206D01*
X149236206Y-129435004D01*
X149361894Y-129262009D01*
X149458972Y-129071483D01*
X149525049Y-128868116D01*
X149558500Y-128656916D01*
X149558500Y-128443084D01*
X149525049Y-128231884D01*
X149458972Y-128028517D01*
X149458972Y-128028516D01*
X149361893Y-127837990D01*
X149236206Y-127664996D01*
X149085004Y-127513794D01*
X148912009Y-127388106D01*
X148912005Y-127388103D01*
X148908132Y-127385730D01*
X148861254Y-127333920D01*
X148849829Y-127264991D01*
X148877483Y-127200827D01*
X148908132Y-127174270D01*
X148912005Y-127171896D01*
X148912004Y-127171896D01*
X148912009Y-127171894D01*
X149085004Y-127046206D01*
X149236206Y-126895004D01*
X149361894Y-126722009D01*
X149458972Y-126531483D01*
X149525049Y-126328116D01*
X149558500Y-126116916D01*
X149558500Y-125903084D01*
X149525049Y-125691884D01*
X149458972Y-125488517D01*
X149458972Y-125488516D01*
X149361893Y-125297990D01*
X149236206Y-125124996D01*
X149085004Y-124973794D01*
X148912009Y-124848106D01*
X148912005Y-124848103D01*
X148908132Y-124845730D01*
X148861254Y-124793920D01*
X148849829Y-124724991D01*
X148877483Y-124660827D01*
X148908132Y-124634270D01*
X148912005Y-124631896D01*
X148912004Y-124631896D01*
X148912009Y-124631894D01*
X149085004Y-124506206D01*
X149236206Y-124355004D01*
X149361894Y-124182009D01*
X149458972Y-123991483D01*
X149525049Y-123788116D01*
X149558500Y-123576916D01*
X149558500Y-123363084D01*
X149525049Y-123151884D01*
X149458972Y-122948517D01*
X149458972Y-122948516D01*
X149361893Y-122757990D01*
X149236206Y-122584996D01*
X149085004Y-122433794D01*
X148912009Y-122308106D01*
X148912005Y-122308103D01*
X148908132Y-122305730D01*
X148861254Y-122253920D01*
X148849829Y-122184991D01*
X148877483Y-122120827D01*
X148908132Y-122094270D01*
X148912005Y-122091896D01*
X148912004Y-122091896D01*
X148912009Y-122091894D01*
X149085004Y-121966206D01*
X149236206Y-121815004D01*
X149361894Y-121642009D01*
X149458972Y-121451483D01*
X149525049Y-121248116D01*
X149558500Y-121036916D01*
X149558500Y-120823084D01*
X149525049Y-120611884D01*
X149492010Y-120510200D01*
X149458973Y-120408519D01*
X149458972Y-120408516D01*
X149361893Y-120217990D01*
X149236206Y-120044996D01*
X149085004Y-119893794D01*
X148912009Y-119768106D01*
X148912005Y-119768103D01*
X148908132Y-119765730D01*
X148861254Y-119713920D01*
X148849829Y-119644991D01*
X148877483Y-119580827D01*
X148908132Y-119554270D01*
X148912005Y-119551896D01*
X148912004Y-119551896D01*
X148912009Y-119551894D01*
X149085004Y-119426206D01*
X149236206Y-119275004D01*
X149361894Y-119102009D01*
X149458972Y-118911483D01*
X149525049Y-118708116D01*
X149558500Y-118496916D01*
X149558500Y-118283084D01*
X149525049Y-118071884D01*
X149458972Y-117868517D01*
X149458972Y-117868516D01*
X149371587Y-117697015D01*
X149361894Y-117677991D01*
X149236206Y-117504996D01*
X149085004Y-117353794D01*
X148912009Y-117228106D01*
X148912005Y-117228103D01*
X148908132Y-117225730D01*
X148861254Y-117173920D01*
X148849829Y-117104991D01*
X148877483Y-117040827D01*
X148908132Y-117014270D01*
X148912005Y-117011896D01*
X148912004Y-117011896D01*
X148912009Y-117011894D01*
X149085004Y-116886206D01*
X149236206Y-116735004D01*
X149361894Y-116562009D01*
X149458972Y-116371483D01*
X149525049Y-116168116D01*
X149558500Y-115956916D01*
X149558500Y-115743084D01*
X149525049Y-115531884D01*
X149488673Y-115419928D01*
X149458973Y-115328519D01*
X149458972Y-115328516D01*
X149361893Y-115137990D01*
X149236206Y-114964996D01*
X149085004Y-114813794D01*
X148912009Y-114688106D01*
X148912005Y-114688103D01*
X148908132Y-114685730D01*
X148861254Y-114633920D01*
X148849829Y-114564991D01*
X148877483Y-114500827D01*
X148908132Y-114474270D01*
X148912005Y-114471896D01*
X148912004Y-114471896D01*
X148912009Y-114471894D01*
X149085004Y-114346206D01*
X149236206Y-114195004D01*
X149361894Y-114022009D01*
X149458972Y-113831483D01*
X149525049Y-113628116D01*
X149558500Y-113416916D01*
X149558500Y-113203084D01*
X149525049Y-112991884D01*
X149458972Y-112788517D01*
X149458972Y-112788516D01*
X149361893Y-112597990D01*
X149236206Y-112424996D01*
X149085004Y-112273794D01*
X148912009Y-112148106D01*
X148912005Y-112148103D01*
X148908132Y-112145730D01*
X148861254Y-112093920D01*
X148849829Y-112024991D01*
X148877483Y-111960827D01*
X148908132Y-111934270D01*
X148912005Y-111931896D01*
X148912004Y-111931896D01*
X148912009Y-111931894D01*
X149085004Y-111806206D01*
X149236206Y-111655004D01*
X149361894Y-111482009D01*
X149458972Y-111291483D01*
X149525049Y-111088116D01*
X149558500Y-110876916D01*
X149558500Y-110663084D01*
X149525049Y-110451884D01*
X149492010Y-110350200D01*
X149458973Y-110248519D01*
X149458972Y-110248516D01*
X149409507Y-110151438D01*
X149361894Y-110057991D01*
X149236206Y-109884996D01*
X149085004Y-109733794D01*
X148912009Y-109608106D01*
X148912005Y-109608103D01*
X148908132Y-109605730D01*
X148861254Y-109553920D01*
X148849829Y-109484991D01*
X148877483Y-109420827D01*
X148908132Y-109394270D01*
X148912005Y-109391896D01*
X148912004Y-109391896D01*
X148912009Y-109391894D01*
X149085004Y-109266206D01*
X149236206Y-109115004D01*
X149361894Y-108942009D01*
X149458972Y-108751483D01*
X149525049Y-108548116D01*
X149558500Y-108336916D01*
X149558500Y-108123084D01*
X149525049Y-107911884D01*
X149458972Y-107708517D01*
X149458972Y-107708516D01*
X149361893Y-107517990D01*
X149236206Y-107344996D01*
X149085004Y-107193794D01*
X148912009Y-107068106D01*
X148912005Y-107068103D01*
X148908132Y-107065730D01*
X148861254Y-107013920D01*
X148849829Y-106944991D01*
X148877483Y-106880827D01*
X148908132Y-106854270D01*
X148912005Y-106851896D01*
X148912004Y-106851896D01*
X148912009Y-106851894D01*
X149085004Y-106726206D01*
X149236206Y-106575004D01*
X149361894Y-106402009D01*
X149458972Y-106211483D01*
X149525049Y-106008116D01*
X149558500Y-105796916D01*
X149558500Y-105583084D01*
X149525049Y-105371884D01*
X149458972Y-105168517D01*
X149458972Y-105168516D01*
X149361893Y-104977990D01*
X149236206Y-104804996D01*
X149085004Y-104653794D01*
X148912009Y-104528106D01*
X148912005Y-104528103D01*
X148908132Y-104525730D01*
X148861254Y-104473920D01*
X148849829Y-104404991D01*
X148877483Y-104340827D01*
X148908132Y-104314270D01*
X148912005Y-104311896D01*
X148912004Y-104311896D01*
X148912009Y-104311894D01*
X149085004Y-104186206D01*
X149236206Y-104035004D01*
X149361894Y-103862009D01*
X149458972Y-103671483D01*
X149525049Y-103468116D01*
X149558500Y-103256916D01*
X149558500Y-103043084D01*
X149525049Y-102831884D01*
X149458972Y-102628517D01*
X149458972Y-102628516D01*
X149409507Y-102531438D01*
X149361894Y-102437991D01*
X149236206Y-102264996D01*
X149085004Y-102113794D01*
X148912009Y-101988106D01*
X148912005Y-101988103D01*
X148908132Y-101985730D01*
X148861254Y-101933920D01*
X148849829Y-101864991D01*
X148877483Y-101800827D01*
X148908132Y-101774270D01*
X148912005Y-101771896D01*
X148912004Y-101771896D01*
X148912009Y-101771894D01*
X149085004Y-101646206D01*
X149236206Y-101495004D01*
X149361894Y-101322009D01*
X149458972Y-101131483D01*
X149525049Y-100928116D01*
X149558500Y-100716916D01*
X149558500Y-100503084D01*
X149525049Y-100291884D01*
X149458972Y-100088517D01*
X149458972Y-100088516D01*
X149374530Y-99922791D01*
X149361894Y-99897991D01*
X149236206Y-99724996D01*
X149085004Y-99573794D01*
X148912009Y-99448106D01*
X148912005Y-99448103D01*
X148908132Y-99445730D01*
X148861254Y-99393920D01*
X148849829Y-99324991D01*
X148877483Y-99260827D01*
X148908132Y-99234270D01*
X148912005Y-99231896D01*
X148912004Y-99231896D01*
X148912009Y-99231894D01*
X149085004Y-99106206D01*
X149236206Y-98955004D01*
X149361894Y-98782009D01*
X149458972Y-98591483D01*
X149525049Y-98388116D01*
X149558500Y-98176916D01*
X149558500Y-97963084D01*
X149525049Y-97751884D01*
X149458972Y-97548517D01*
X149458972Y-97548516D01*
X149374530Y-97382791D01*
X149361894Y-97357991D01*
X149236206Y-97184996D01*
X149085004Y-97033794D01*
X148912009Y-96908106D01*
X148912005Y-96908103D01*
X148908132Y-96905730D01*
X148861254Y-96853920D01*
X148849829Y-96784991D01*
X148877483Y-96720827D01*
X148908132Y-96694270D01*
X148912005Y-96691896D01*
X148912004Y-96691896D01*
X148912009Y-96691894D01*
X149085004Y-96566206D01*
X149236206Y-96415004D01*
X149361894Y-96242009D01*
X149458972Y-96051483D01*
X149525049Y-95848116D01*
X149558500Y-95636916D01*
X149558500Y-95423084D01*
X149525049Y-95211884D01*
X149458972Y-95008517D01*
X149458972Y-95008516D01*
X149374530Y-94842791D01*
X149361894Y-94817991D01*
X149236206Y-94644996D01*
X149085004Y-94493794D01*
X148912009Y-94368106D01*
X148912005Y-94368103D01*
X148908132Y-94365730D01*
X148861254Y-94313920D01*
X148849829Y-94244991D01*
X148877483Y-94180827D01*
X148908132Y-94154270D01*
X148912005Y-94151896D01*
X148912004Y-94151896D01*
X148912009Y-94151894D01*
X149085004Y-94026206D01*
X149236206Y-93875004D01*
X149361894Y-93702009D01*
X149458972Y-93511483D01*
X149525049Y-93308116D01*
X149558500Y-93096916D01*
X149558500Y-92883084D01*
X149525049Y-92671884D01*
X149458972Y-92468517D01*
X149458972Y-92468516D01*
X149408925Y-92370294D01*
X149361894Y-92277991D01*
X149236206Y-92104996D01*
X149085004Y-91953794D01*
X148912009Y-91828106D01*
X148912005Y-91828103D01*
X148908132Y-91825730D01*
X148861254Y-91773920D01*
X148849829Y-91704991D01*
X148877483Y-91640827D01*
X148908132Y-91614270D01*
X148912005Y-91611896D01*
X148912004Y-91611896D01*
X148912009Y-91611894D01*
X149085004Y-91486206D01*
X149236206Y-91335004D01*
X149361894Y-91162009D01*
X149458972Y-90971483D01*
X149525049Y-90768116D01*
X149558500Y-90556916D01*
X149558500Y-90343084D01*
X149525049Y-90131884D01*
X149458972Y-89928517D01*
X149458972Y-89928516D01*
X149374530Y-89762791D01*
X149361894Y-89737991D01*
X149236206Y-89564996D01*
X149085004Y-89413794D01*
X148912009Y-89288106D01*
X148912005Y-89288103D01*
X148908132Y-89285730D01*
X148861254Y-89233920D01*
X148849829Y-89164991D01*
X148877483Y-89100827D01*
X148908132Y-89074270D01*
X148912005Y-89071896D01*
X148912004Y-89071896D01*
X148912009Y-89071894D01*
X149085004Y-88946206D01*
X149236206Y-88795004D01*
X149361894Y-88622009D01*
X149458972Y-88431483D01*
X149525049Y-88228116D01*
X149558500Y-88016916D01*
X149558500Y-87803084D01*
X149525049Y-87591884D01*
X149458972Y-87388517D01*
X149458972Y-87388516D01*
X149374530Y-87222791D01*
X149361894Y-87197991D01*
X149236206Y-87024996D01*
X149085004Y-86873794D01*
X148912009Y-86748106D01*
X148912005Y-86748103D01*
X148908132Y-86745730D01*
X148861254Y-86693920D01*
X148849829Y-86624991D01*
X148877483Y-86560827D01*
X148908132Y-86534270D01*
X148912005Y-86531896D01*
X148912004Y-86531896D01*
X148912009Y-86531894D01*
X149085004Y-86406206D01*
X149236206Y-86255004D01*
X149361894Y-86082009D01*
X149458972Y-85891483D01*
X149525049Y-85688116D01*
X149558500Y-85476916D01*
X149558500Y-85263084D01*
X149525049Y-85051884D01*
X149458972Y-84848517D01*
X149458972Y-84848516D01*
X149361893Y-84657990D01*
X149236206Y-84484996D01*
X149124421Y-84373211D01*
X149090936Y-84311888D01*
X149095920Y-84242196D01*
X149137792Y-84186263D01*
X149168770Y-84169348D01*
X149292084Y-84123355D01*
X149292093Y-84123350D01*
X149407187Y-84037190D01*
X149407190Y-84037187D01*
X149493350Y-83922093D01*
X149493354Y-83922086D01*
X149543596Y-83787379D01*
X149543598Y-83787372D01*
X149549999Y-83727844D01*
X149550000Y-83727827D01*
X149550000Y-83080000D01*
X148633012Y-83080000D01*
X148665925Y-83022993D01*
X148700000Y-82895826D01*
X148700000Y-82764174D01*
X148665925Y-82637007D01*
X148633012Y-82580000D01*
X149550000Y-82580000D01*
X149550000Y-81932172D01*
X149549999Y-81932155D01*
X149543598Y-81872627D01*
X149543596Y-81872620D01*
X149493354Y-81737913D01*
X149493350Y-81737906D01*
X149407190Y-81622812D01*
X149407187Y-81622809D01*
X149292093Y-81536649D01*
X149292086Y-81536645D01*
X149157379Y-81486403D01*
X149157372Y-81486401D01*
X149097844Y-81480000D01*
X148450000Y-81480000D01*
X148450000Y-82396988D01*
X148392993Y-82364075D01*
X148265826Y-82330000D01*
X148134174Y-82330000D01*
X148007007Y-82364075D01*
X147950000Y-82396988D01*
X147950000Y-81480000D01*
X147302155Y-81480000D01*
X147242627Y-81486401D01*
X147242620Y-81486403D01*
X147107913Y-81536645D01*
X147107906Y-81536649D01*
X146992812Y-81622809D01*
X146992809Y-81622812D01*
X146906649Y-81737906D01*
X146906645Y-81737913D01*
X146856403Y-81872620D01*
X146856401Y-81872627D01*
X146850000Y-81932155D01*
X146850000Y-82580000D01*
X147766988Y-82580000D01*
X147734075Y-82637007D01*
X147700000Y-82764174D01*
X147700000Y-82895826D01*
X147734075Y-83022993D01*
X147766988Y-83080000D01*
X146850000Y-83080000D01*
X146850000Y-83727844D01*
X146856401Y-83787372D01*
X146856403Y-83787379D01*
X146906645Y-83922086D01*
X146906649Y-83922093D01*
X146992809Y-84037187D01*
X146992812Y-84037190D01*
X147107906Y-84123350D01*
X147107913Y-84123354D01*
X147231230Y-84169348D01*
X147287164Y-84211219D01*
X147311581Y-84276683D01*
X147296730Y-84344956D01*
X147275579Y-84373211D01*
X147163793Y-84484997D01*
X147038106Y-84657990D01*
X146941027Y-84848516D01*
X146941026Y-84848519D01*
X146874951Y-85051882D01*
X146841500Y-85263084D01*
X146841500Y-85476915D01*
X146874951Y-85688117D01*
X146941026Y-85891480D01*
X146941027Y-85891483D01*
X147038106Y-86082009D01*
X147163794Y-86255004D01*
X147314996Y-86406206D01*
X147384505Y-86456707D01*
X147487991Y-86531894D01*
X147491873Y-86534273D01*
X147538748Y-86586086D01*
X147550169Y-86655016D01*
X147522512Y-86719178D01*
X147491873Y-86745727D01*
X147487991Y-86748105D01*
X147314993Y-86873796D01*
X147163796Y-87024993D01*
X147038106Y-87197990D01*
X146941027Y-87388516D01*
X146941026Y-87388519D01*
X146874951Y-87591882D01*
X146841500Y-87803084D01*
X146841500Y-88016915D01*
X146874951Y-88228117D01*
X146941026Y-88431480D01*
X146941027Y-88431483D01*
X147038106Y-88622009D01*
X147163794Y-88795004D01*
X147314996Y-88946206D01*
X147487991Y-89071894D01*
X147491873Y-89074273D01*
X147538748Y-89126086D01*
X147550169Y-89195016D01*
X147522512Y-89259178D01*
X147491873Y-89285727D01*
X147487991Y-89288105D01*
X147314993Y-89413796D01*
X147163796Y-89564993D01*
X147038106Y-89737990D01*
X146941027Y-89928516D01*
X146941026Y-89928519D01*
X146874951Y-90131882D01*
X146841500Y-90343084D01*
X146841500Y-90556915D01*
X146874951Y-90768117D01*
X146941026Y-90971480D01*
X146941027Y-90971483D01*
X147038106Y-91162009D01*
X147163794Y-91335004D01*
X147314996Y-91486206D01*
X147487991Y-91611894D01*
X147491873Y-91614273D01*
X147538748Y-91666086D01*
X147550169Y-91735016D01*
X147522512Y-91799178D01*
X147491873Y-91825727D01*
X147487991Y-91828105D01*
X147314993Y-91953796D01*
X147163796Y-92104993D01*
X147038106Y-92277990D01*
X146941027Y-92468516D01*
X146941026Y-92468519D01*
X146874951Y-92671882D01*
X146841500Y-92883084D01*
X146841500Y-93096915D01*
X146874951Y-93308117D01*
X146941026Y-93511480D01*
X146941027Y-93511483D01*
X146985365Y-93598500D01*
X147038106Y-93702009D01*
X147163794Y-93875004D01*
X147314996Y-94026206D01*
X147487991Y-94151894D01*
X147491873Y-94154273D01*
X147538748Y-94206086D01*
X147550169Y-94275016D01*
X147522512Y-94339178D01*
X147491873Y-94365727D01*
X147487991Y-94368105D01*
X147314993Y-94493796D01*
X147163796Y-94644993D01*
X147038106Y-94817990D01*
X146941027Y-95008516D01*
X146941026Y-95008519D01*
X146874951Y-95211882D01*
X146841500Y-95423084D01*
X146841500Y-95636915D01*
X146874951Y-95848117D01*
X146941026Y-96051480D01*
X146941027Y-96051483D01*
X147038106Y-96242009D01*
X147163794Y-96415004D01*
X147314996Y-96566206D01*
X147487991Y-96691894D01*
X147491873Y-96694273D01*
X147538748Y-96746086D01*
X147550169Y-96815016D01*
X147522512Y-96879178D01*
X147491873Y-96905727D01*
X147487991Y-96908105D01*
X147314993Y-97033796D01*
X147163796Y-97184993D01*
X147038106Y-97357990D01*
X146941027Y-97548516D01*
X146941026Y-97548519D01*
X146874951Y-97751882D01*
X146841500Y-97963084D01*
X146841500Y-98176915D01*
X146874951Y-98388117D01*
X146941026Y-98591480D01*
X146941027Y-98591483D01*
X147038106Y-98782009D01*
X147163794Y-98955004D01*
X147314996Y-99106206D01*
X147487991Y-99231894D01*
X147491873Y-99234273D01*
X147538748Y-99286086D01*
X147550169Y-99355016D01*
X147522512Y-99419178D01*
X147491873Y-99445727D01*
X147487991Y-99448105D01*
X147314993Y-99573796D01*
X147163796Y-99724993D01*
X147038106Y-99897990D01*
X146941027Y-100088516D01*
X146941026Y-100088519D01*
X146874951Y-100291882D01*
X146841500Y-100503084D01*
X146841500Y-100716915D01*
X146874951Y-100928117D01*
X146941026Y-101131480D01*
X146941027Y-101131483D01*
X147038106Y-101322009D01*
X147163794Y-101495004D01*
X147314996Y-101646206D01*
X147487991Y-101771894D01*
X147491873Y-101774273D01*
X147538748Y-101826086D01*
X147550169Y-101895016D01*
X147522512Y-101959178D01*
X147491873Y-101985727D01*
X147487991Y-101988105D01*
X147314993Y-102113796D01*
X147163796Y-102264993D01*
X147038106Y-102437990D01*
X146941027Y-102628516D01*
X146941026Y-102628519D01*
X146874951Y-102831882D01*
X146841500Y-103043084D01*
X146841500Y-103256915D01*
X146874951Y-103468117D01*
X146941026Y-103671480D01*
X146941027Y-103671483D01*
X147038106Y-103862009D01*
X147163794Y-104035004D01*
X147314996Y-104186206D01*
X147487991Y-104311894D01*
X147491873Y-104314273D01*
X147538748Y-104366086D01*
X147550169Y-104435016D01*
X147522512Y-104499178D01*
X147491873Y-104525727D01*
X147487991Y-104528105D01*
X147314993Y-104653796D01*
X147163796Y-104804993D01*
X147038106Y-104977990D01*
X146941027Y-105168516D01*
X146941026Y-105168519D01*
X146874951Y-105371882D01*
X146841500Y-105583084D01*
X146841500Y-105796915D01*
X146874951Y-106008117D01*
X146941026Y-106211480D01*
X146941027Y-106211483D01*
X147038106Y-106402009D01*
X147163794Y-106575004D01*
X147314996Y-106726206D01*
X147431711Y-106811004D01*
X147487991Y-106851894D01*
X147491873Y-106854273D01*
X147538748Y-106906086D01*
X147550169Y-106975016D01*
X147522512Y-107039178D01*
X147491873Y-107065727D01*
X147487991Y-107068105D01*
X147314993Y-107193796D01*
X147163796Y-107344993D01*
X147038106Y-107517990D01*
X146941027Y-107708516D01*
X146941026Y-107708519D01*
X146874951Y-107911882D01*
X146841500Y-108123084D01*
X146841500Y-108336915D01*
X146874951Y-108548117D01*
X146941026Y-108751480D01*
X146941027Y-108751483D01*
X147038106Y-108942009D01*
X147163794Y-109115004D01*
X147314996Y-109266206D01*
X147487991Y-109391894D01*
X147491873Y-109394273D01*
X147538748Y-109446086D01*
X147550169Y-109515016D01*
X147522512Y-109579178D01*
X147491873Y-109605727D01*
X147487993Y-109608104D01*
X147326990Y-109725079D01*
X147261183Y-109748558D01*
X147193130Y-109732732D01*
X147154838Y-109699071D01*
X147141250Y-109680921D01*
X147063261Y-109576739D01*
X146946204Y-109489111D01*
X146935158Y-109484991D01*
X146809203Y-109438011D01*
X146748654Y-109431500D01*
X146748638Y-109431500D01*
X145251362Y-109431500D01*
X145251345Y-109431500D01*
X145190797Y-109438011D01*
X145190795Y-109438011D01*
X145053795Y-109489111D01*
X144936739Y-109576739D01*
X144849111Y-109693795D01*
X144798012Y-109830793D01*
X144798011Y-109830797D01*
X144798011Y-109830799D01*
X144792855Y-109878757D01*
X144766117Y-109943306D01*
X144708725Y-109983154D01*
X144669566Y-109989500D01*
X126330434Y-109989500D01*
X126263395Y-109969815D01*
X126217640Y-109917011D01*
X126207145Y-109878758D01*
X126201989Y-109830799D01*
X126150889Y-109693796D01*
X126063261Y-109576739D01*
X125946204Y-109489111D01*
X125935158Y-109484991D01*
X125809203Y-109438011D01*
X125748654Y-109431500D01*
X125748638Y-109431500D01*
X124251362Y-109431500D01*
X124251345Y-109431500D01*
X124190797Y-109438011D01*
X124190795Y-109438011D01*
X124053795Y-109489111D01*
X123936739Y-109576739D01*
X123845161Y-109699072D01*
X123789227Y-109740943D01*
X123719535Y-109745927D01*
X123673010Y-109725079D01*
X123512009Y-109608106D01*
X123512005Y-109608103D01*
X123508132Y-109605730D01*
X123461254Y-109553920D01*
X123449829Y-109484991D01*
X123477483Y-109420827D01*
X123508132Y-109394270D01*
X123512005Y-109391896D01*
X123512004Y-109391896D01*
X123512009Y-109391894D01*
X123685004Y-109266206D01*
X123836206Y-109115004D01*
X123961894Y-108942009D01*
X124058972Y-108751483D01*
X124125049Y-108548116D01*
X124158500Y-108336916D01*
X124158500Y-108123084D01*
X124125049Y-107911884D01*
X124058972Y-107708517D01*
X124058972Y-107708516D01*
X123961893Y-107517990D01*
X123836206Y-107344996D01*
X123685004Y-107193794D01*
X123512009Y-107068106D01*
X123512005Y-107068103D01*
X123508132Y-107065730D01*
X123461254Y-107013920D01*
X123449829Y-106944991D01*
X123477483Y-106880827D01*
X123508132Y-106854270D01*
X123512005Y-106851896D01*
X123512004Y-106851896D01*
X123512009Y-106851894D01*
X123685004Y-106726206D01*
X123836206Y-106575004D01*
X123961894Y-106402009D01*
X124058972Y-106211483D01*
X124125049Y-106008116D01*
X124158500Y-105796916D01*
X124158500Y-105583084D01*
X124125049Y-105371884D01*
X124058972Y-105168517D01*
X124058972Y-105168516D01*
X123961893Y-104977990D01*
X123836206Y-104804996D01*
X123731028Y-104699818D01*
X123697543Y-104638495D01*
X123702527Y-104568803D01*
X123744399Y-104512870D01*
X123775367Y-104495959D01*
X123896204Y-104450889D01*
X124013261Y-104363261D01*
X124100889Y-104246204D01*
X124151989Y-104109201D01*
X124155591Y-104075692D01*
X124158499Y-104048654D01*
X124158500Y-104048637D01*
X124158500Y-102251362D01*
X124158499Y-102251345D01*
X124155157Y-102220270D01*
X124151989Y-102190799D01*
X124123267Y-102113794D01*
X124100888Y-102053793D01*
X124100887Y-102053792D01*
X124042251Y-101975466D01*
X124026414Y-101954310D01*
X124001997Y-101888847D01*
X124016848Y-101820574D01*
X124026415Y-101805689D01*
X124100887Y-101706207D01*
X124100888Y-101706206D01*
X124151988Y-101569204D01*
X124151988Y-101569203D01*
X124151989Y-101569201D01*
X124155591Y-101535692D01*
X124158499Y-101508654D01*
X124158500Y-101508637D01*
X124158500Y-99711362D01*
X124158499Y-99711345D01*
X124155157Y-99680270D01*
X124151989Y-99650799D01*
X124132517Y-99598594D01*
X124100888Y-99513793D01*
X124100887Y-99513792D01*
X124042251Y-99435466D01*
X124026414Y-99414310D01*
X124001997Y-99348847D01*
X124016848Y-99280574D01*
X124026415Y-99265689D01*
X124100887Y-99166207D01*
X124100888Y-99166206D01*
X124151988Y-99029204D01*
X124151988Y-99029203D01*
X124151989Y-99029201D01*
X124155591Y-98995692D01*
X124158499Y-98968654D01*
X124158500Y-98968637D01*
X124158500Y-97171362D01*
X124158499Y-97171345D01*
X124155157Y-97140270D01*
X124151989Y-97110799D01*
X124132517Y-97058594D01*
X124100888Y-96973793D01*
X124100887Y-96973792D01*
X124042251Y-96895466D01*
X124026414Y-96874310D01*
X124001997Y-96808847D01*
X124016848Y-96740574D01*
X124026415Y-96725689D01*
X124100887Y-96626207D01*
X124100888Y-96626206D01*
X124151988Y-96489204D01*
X124151988Y-96489203D01*
X124151989Y-96489201D01*
X124155591Y-96455692D01*
X124158499Y-96428654D01*
X124158500Y-96428637D01*
X124158500Y-94631362D01*
X124158499Y-94631345D01*
X124155157Y-94600270D01*
X124151989Y-94570799D01*
X124132517Y-94518594D01*
X124100888Y-94433793D01*
X124100887Y-94433792D01*
X124042251Y-94355466D01*
X124026414Y-94334310D01*
X124001997Y-94268847D01*
X124016848Y-94200574D01*
X124026415Y-94185689D01*
X124100887Y-94086207D01*
X124100888Y-94086206D01*
X124151988Y-93949204D01*
X124151988Y-93949203D01*
X124151989Y-93949201D01*
X124155591Y-93915692D01*
X124158499Y-93888654D01*
X124158500Y-93888637D01*
X124158500Y-92091362D01*
X124158499Y-92091345D01*
X124155157Y-92060270D01*
X124151989Y-92030799D01*
X124132517Y-91978594D01*
X124100888Y-91893793D01*
X124100887Y-91893792D01*
X124042251Y-91815466D01*
X124026414Y-91794310D01*
X124001997Y-91728847D01*
X124016848Y-91660574D01*
X124026415Y-91645689D01*
X124100887Y-91546207D01*
X124100888Y-91546206D01*
X124151988Y-91409204D01*
X124151988Y-91409203D01*
X124151989Y-91409201D01*
X124155591Y-91375692D01*
X124158499Y-91348654D01*
X124158500Y-91348637D01*
X124158500Y-89551362D01*
X124158499Y-89551345D01*
X124155157Y-89520270D01*
X124151989Y-89490799D01*
X124132517Y-89438594D01*
X124100888Y-89353793D01*
X124100887Y-89353792D01*
X124042251Y-89275466D01*
X124026414Y-89254310D01*
X124001997Y-89188847D01*
X124016848Y-89120574D01*
X124026415Y-89105689D01*
X124100887Y-89006207D01*
X124100888Y-89006206D01*
X124151988Y-88869204D01*
X124151988Y-88869203D01*
X124151989Y-88869201D01*
X124155591Y-88835692D01*
X124158499Y-88808654D01*
X124158500Y-88808637D01*
X124158500Y-87011362D01*
X124158499Y-87011345D01*
X124155157Y-86980270D01*
X124151989Y-86950799D01*
X124100889Y-86813796D01*
X124013261Y-86696739D01*
X123896204Y-86609111D01*
X123896202Y-86609110D01*
X123896204Y-86609110D01*
X123775375Y-86564043D01*
X123719441Y-86522172D01*
X123695025Y-86456707D01*
X123709877Y-86388434D01*
X123731022Y-86360187D01*
X123836206Y-86255004D01*
X123961894Y-86082009D01*
X124058972Y-85891483D01*
X124125049Y-85688116D01*
X124158500Y-85476916D01*
X124158500Y-85263084D01*
X124125049Y-85051884D01*
X124058972Y-84848517D01*
X124058972Y-84848516D01*
X123961893Y-84657990D01*
X123836206Y-84484996D01*
X123731028Y-84379818D01*
X123697543Y-84318495D01*
X123702527Y-84248803D01*
X123744399Y-84192870D01*
X123775367Y-84175959D01*
X123896204Y-84130889D01*
X124013261Y-84043261D01*
X124100889Y-83926204D01*
X124151989Y-83789201D01*
X124155591Y-83755692D01*
X124158499Y-83728654D01*
X124158500Y-83728637D01*
X124158500Y-81931362D01*
X124158499Y-81931345D01*
X124155157Y-81900270D01*
X124151989Y-81870799D01*
X124100889Y-81733796D01*
X124013261Y-81616739D01*
X123896204Y-81529111D01*
X123759203Y-81478011D01*
X123698654Y-81471500D01*
X123698638Y-81471500D01*
X121901362Y-81471500D01*
X121901345Y-81471500D01*
X121840797Y-81478011D01*
X121840795Y-81478011D01*
X121703795Y-81529111D01*
X121586739Y-81616739D01*
X121499111Y-81733795D01*
X121448011Y-81870795D01*
X121448011Y-81870797D01*
X121441500Y-81931345D01*
X121441500Y-83728654D01*
X121448011Y-83789202D01*
X121448011Y-83789204D01*
X121497575Y-83922086D01*
X121499111Y-83926204D01*
X121586739Y-84043261D01*
X121703796Y-84130889D01*
X121824626Y-84175956D01*
X121880557Y-84217827D01*
X121904974Y-84283291D01*
X121890122Y-84351564D01*
X121868972Y-84379818D01*
X121763793Y-84484997D01*
X121638106Y-84657990D01*
X121541027Y-84848516D01*
X121541026Y-84848519D01*
X121474951Y-85051882D01*
X121441500Y-85263084D01*
X121441500Y-85476915D01*
X121474951Y-85688117D01*
X121541026Y-85891480D01*
X121541027Y-85891483D01*
X121638106Y-86082009D01*
X121763794Y-86255004D01*
X121763796Y-86255006D01*
X121868971Y-86360181D01*
X121902456Y-86421504D01*
X121897472Y-86491196D01*
X121855600Y-86547129D01*
X121824625Y-86564043D01*
X121703795Y-86609111D01*
X121586739Y-86696739D01*
X121499111Y-86813795D01*
X121448011Y-86950795D01*
X121448011Y-86950797D01*
X121441500Y-87011345D01*
X121441500Y-88808654D01*
X121448011Y-88869202D01*
X121448011Y-88869204D01*
X121499111Y-89006204D01*
X121573585Y-89105689D01*
X121598002Y-89171154D01*
X121583150Y-89239427D01*
X121573586Y-89254308D01*
X121553921Y-89280578D01*
X121499111Y-89353795D01*
X121448011Y-89490795D01*
X121448011Y-89490797D01*
X121441500Y-89551345D01*
X121441500Y-91348654D01*
X121448011Y-91409202D01*
X121448011Y-91409204D01*
X121499111Y-91546204D01*
X121573585Y-91645689D01*
X121598002Y-91711154D01*
X121583150Y-91779427D01*
X121573586Y-91794308D01*
X121553921Y-91820578D01*
X121499111Y-91893795D01*
X121448011Y-92030795D01*
X121448011Y-92030797D01*
X121441500Y-92091345D01*
X121441500Y-92257500D01*
X121421815Y-92324539D01*
X121369011Y-92370294D01*
X121317500Y-92381500D01*
X119912611Y-92381500D01*
X119845572Y-92361815D01*
X119824930Y-92345181D01*
X118436881Y-90957132D01*
X118403396Y-90895809D01*
X118406630Y-90831134D01*
X118419049Y-90792916D01*
X118452500Y-90581716D01*
X118452500Y-90367884D01*
X118419049Y-90156684D01*
X118352972Y-89953317D01*
X118352972Y-89953316D01*
X118255893Y-89762790D01*
X118130206Y-89589796D01*
X117979004Y-89438594D01*
X117806009Y-89312906D01*
X117806005Y-89312903D01*
X117802132Y-89310530D01*
X117755254Y-89258720D01*
X117743829Y-89189791D01*
X117771483Y-89125627D01*
X117802132Y-89099070D01*
X117806005Y-89096696D01*
X117806004Y-89096696D01*
X117806009Y-89096694D01*
X117979004Y-88971006D01*
X118130206Y-88819804D01*
X118255894Y-88646809D01*
X118352972Y-88456283D01*
X118419049Y-88252916D01*
X118452500Y-88041716D01*
X118452500Y-87827884D01*
X118419049Y-87616684D01*
X118352972Y-87413317D01*
X118352972Y-87413316D01*
X118255893Y-87222790D01*
X118130206Y-87049796D01*
X117979004Y-86898594D01*
X117806009Y-86772906D01*
X117615483Y-86675827D01*
X117615480Y-86675826D01*
X117412117Y-86609751D01*
X117262702Y-86586086D01*
X117200916Y-86576300D01*
X116987084Y-86576300D01*
X116925298Y-86586086D01*
X116775882Y-86609751D01*
X116572519Y-86675826D01*
X116572516Y-86675827D01*
X116381990Y-86772906D01*
X116208993Y-86898596D01*
X116057796Y-87049793D01*
X115932106Y-87222790D01*
X115835027Y-87413316D01*
X115835026Y-87413319D01*
X115768951Y-87616682D01*
X115735500Y-87827884D01*
X115735500Y-88041715D01*
X115768950Y-88252914D01*
X115781368Y-88291131D01*
X115783363Y-88360973D01*
X115751118Y-88417131D01*
X114117880Y-90050370D01*
X114117876Y-90050376D01*
X114037767Y-90189126D01*
X114037768Y-90189126D01*
X114037768Y-90189127D01*
X113996300Y-90343889D01*
X113996300Y-110274909D01*
X114037768Y-110429674D01*
X114077823Y-110499050D01*
X114117878Y-110568427D01*
X114117880Y-110568429D01*
X121405181Y-117855730D01*
X121438666Y-117917053D01*
X121441500Y-117943411D01*
X121441500Y-119288654D01*
X121448011Y-119349202D01*
X121448011Y-119349204D01*
X121499111Y-119486204D01*
X121573585Y-119585689D01*
X121598002Y-119651154D01*
X121583150Y-119719427D01*
X121573585Y-119734311D01*
X121499111Y-119833795D01*
X121448011Y-119970795D01*
X121448011Y-119970797D01*
X121441500Y-120031345D01*
X121441500Y-121828654D01*
X121448011Y-121889202D01*
X121448011Y-121889204D01*
X121499111Y-122026204D01*
X121573585Y-122125689D01*
X121598002Y-122191154D01*
X121583150Y-122259427D01*
X121573585Y-122274311D01*
X121499111Y-122373795D01*
X121448011Y-122510795D01*
X121448011Y-122510797D01*
X121441500Y-122571345D01*
X121441500Y-124368654D01*
X121448011Y-124429202D01*
X121448011Y-124429204D01*
X121499111Y-124566204D01*
X121573585Y-124665689D01*
X121598002Y-124731154D01*
X121583150Y-124799427D01*
X121573585Y-124814311D01*
X121499111Y-124913795D01*
X121448011Y-125050795D01*
X121448011Y-125050797D01*
X121441500Y-125111345D01*
X121441500Y-126908654D01*
X121448011Y-126969202D01*
X121448011Y-126969204D01*
X121499111Y-127106204D01*
X121573585Y-127205689D01*
X121598002Y-127271154D01*
X121583150Y-127339427D01*
X121573585Y-127354311D01*
X121499111Y-127453795D01*
X121448011Y-127590795D01*
X121448011Y-127590797D01*
X121441500Y-127651345D01*
X121441500Y-129448654D01*
X121448011Y-129509202D01*
X121448011Y-129509204D01*
X121492769Y-129629201D01*
X121499111Y-129646204D01*
X121586739Y-129763261D01*
X121703796Y-129850889D01*
X121824626Y-129895956D01*
X121880557Y-129937827D01*
X121904974Y-130003291D01*
X121890122Y-130071564D01*
X121868972Y-130099818D01*
X121763793Y-130204997D01*
X121638106Y-130377990D01*
X121541027Y-130568516D01*
X121541026Y-130568519D01*
X121474951Y-130771882D01*
X121441500Y-130983084D01*
X121441500Y-131196915D01*
X121474951Y-131408117D01*
X121541026Y-131611480D01*
X121541027Y-131611483D01*
X121638106Y-131802009D01*
X121763794Y-131975004D01*
X121763796Y-131975006D01*
X121868971Y-132080181D01*
X121902456Y-132141504D01*
X121897472Y-132211196D01*
X121855600Y-132267129D01*
X121824625Y-132284043D01*
X121703795Y-132329111D01*
X121586739Y-132416739D01*
X121499111Y-132533795D01*
X121448011Y-132670795D01*
X121448011Y-132670797D01*
X121441500Y-132731345D01*
X121441500Y-134076589D01*
X121421815Y-134143628D01*
X121405181Y-134164270D01*
X120721880Y-134847570D01*
X120721876Y-134847576D01*
X120641767Y-134986328D01*
X120641766Y-134986329D01*
X120629989Y-135030287D01*
X120629989Y-135030288D01*
X120629989Y-135030289D01*
X120600300Y-135141089D01*
X120600300Y-137384689D01*
X120600300Y-137544911D01*
X120631059Y-137659706D01*
X120641769Y-137699674D01*
X120641769Y-137699675D01*
X120721876Y-137838424D01*
X120721878Y-137838426D01*
X120721879Y-137838428D01*
X120835172Y-137951721D01*
X120835173Y-137951722D01*
X120835175Y-137951723D01*
X120909982Y-137994913D01*
X120958198Y-138045480D01*
X120971420Y-138114087D01*
X120945452Y-138178952D01*
X120888538Y-138219480D01*
X120847982Y-138226300D01*
X113122304Y-138226300D01*
X113055265Y-138206615D01*
X113009510Y-138153811D01*
X112998304Y-138102296D01*
X112998306Y-138045480D01*
X112998451Y-133878711D01*
X115149500Y-133878711D01*
X115149500Y-134121288D01*
X115181161Y-134361785D01*
X115243947Y-134596104D01*
X115325046Y-134791894D01*
X115336776Y-134820212D01*
X115458064Y-135030289D01*
X115458066Y-135030292D01*
X115458067Y-135030293D01*
X115605733Y-135222736D01*
X115605739Y-135222743D01*
X115777256Y-135394260D01*
X115777263Y-135394266D01*
X115880196Y-135473249D01*
X115969711Y-135541936D01*
X116179788Y-135663224D01*
X116403900Y-135756054D01*
X116638211Y-135818838D01*
X116818586Y-135842584D01*
X116878711Y-135850500D01*
X116878712Y-135850500D01*
X117121289Y-135850500D01*
X117169388Y-135844167D01*
X117361789Y-135818838D01*
X117596100Y-135756054D01*
X117820212Y-135663224D01*
X118030289Y-135541936D01*
X118222738Y-135394265D01*
X118394265Y-135222738D01*
X118541936Y-135030289D01*
X118663224Y-134820212D01*
X118756054Y-134596100D01*
X118818838Y-134361789D01*
X118850500Y-134121288D01*
X118850500Y-133878712D01*
X118818838Y-133638211D01*
X118756054Y-133403900D01*
X118663224Y-133179788D01*
X118541936Y-132969711D01*
X118394265Y-132777262D01*
X118394260Y-132777256D01*
X118222743Y-132605739D01*
X118222736Y-132605733D01*
X118030293Y-132458067D01*
X118030292Y-132458066D01*
X118030289Y-132458064D01*
X117820212Y-132336776D01*
X117801707Y-132329111D01*
X117596104Y-132243947D01*
X117361785Y-132181161D01*
X117121289Y-132149500D01*
X117121288Y-132149500D01*
X116878712Y-132149500D01*
X116878711Y-132149500D01*
X116638214Y-132181161D01*
X116403895Y-132243947D01*
X116179794Y-132336773D01*
X116179785Y-132336777D01*
X115969706Y-132458067D01*
X115777263Y-132605733D01*
X115777256Y-132605739D01*
X115605739Y-132777256D01*
X115605733Y-132777263D01*
X115458067Y-132969706D01*
X115336777Y-133179785D01*
X115336773Y-133179794D01*
X115243947Y-133403895D01*
X115181161Y-133638214D01*
X115149500Y-133878711D01*
X112998451Y-133878711D01*
X112998855Y-122270000D01*
X112998998Y-118176545D01*
X115735500Y-118176545D01*
X115735500Y-119973854D01*
X115742011Y-120034402D01*
X115742011Y-120034404D01*
X115793111Y-120171404D01*
X115880739Y-120288461D01*
X115997796Y-120376089D01*
X116134799Y-120427189D01*
X116162050Y-120430118D01*
X116195345Y-120433699D01*
X116195362Y-120433700D01*
X117992638Y-120433700D01*
X117992654Y-120433699D01*
X118019692Y-120430791D01*
X118053201Y-120427189D01*
X118190204Y-120376089D01*
X118307261Y-120288461D01*
X118394889Y-120171404D01*
X118445989Y-120034401D01*
X118450677Y-119990799D01*
X118452499Y-119973854D01*
X118452500Y-119973837D01*
X118452500Y-118176562D01*
X118452499Y-118176545D01*
X118449157Y-118145470D01*
X118445989Y-118115999D01*
X118394889Y-117978996D01*
X118307261Y-117861939D01*
X118190204Y-117774311D01*
X118053203Y-117723211D01*
X117992654Y-117716700D01*
X117992638Y-117716700D01*
X117973309Y-117716700D01*
X117906270Y-117697015D01*
X117885628Y-117680381D01*
X117223408Y-117018162D01*
X117286993Y-117001125D01*
X117401007Y-116935299D01*
X117494099Y-116842207D01*
X117559925Y-116728193D01*
X117576962Y-116664608D01*
X118209270Y-117296917D01*
X118209270Y-117296916D01*
X118248622Y-117242754D01*
X118345095Y-117053417D01*
X118410757Y-116851330D01*
X118410757Y-116851327D01*
X118444000Y-116641446D01*
X118444000Y-116428953D01*
X118410757Y-116219072D01*
X118410757Y-116219069D01*
X118345095Y-116016982D01*
X118248624Y-115827649D01*
X118209270Y-115773482D01*
X118209269Y-115773482D01*
X117576962Y-116405790D01*
X117559925Y-116342207D01*
X117494099Y-116228193D01*
X117401007Y-116135101D01*
X117286993Y-116069275D01*
X117223409Y-116052237D01*
X117855716Y-115419928D01*
X117801550Y-115380575D01*
X117612217Y-115284104D01*
X117410129Y-115218442D01*
X117200246Y-115185200D01*
X116987754Y-115185200D01*
X116777872Y-115218442D01*
X116777869Y-115218442D01*
X116575782Y-115284104D01*
X116386439Y-115380580D01*
X116332282Y-115419927D01*
X116332282Y-115419928D01*
X116964591Y-116052237D01*
X116901007Y-116069275D01*
X116786993Y-116135101D01*
X116693901Y-116228193D01*
X116628075Y-116342207D01*
X116611037Y-116405791D01*
X115978728Y-115773482D01*
X115978727Y-115773482D01*
X115939380Y-115827639D01*
X115842904Y-116016982D01*
X115777242Y-116219069D01*
X115777242Y-116219072D01*
X115744000Y-116428953D01*
X115744000Y-116641446D01*
X115777242Y-116851327D01*
X115777242Y-116851330D01*
X115842904Y-117053417D01*
X115939375Y-117242750D01*
X115978728Y-117296916D01*
X116611037Y-116664608D01*
X116628075Y-116728193D01*
X116693901Y-116842207D01*
X116786993Y-116935299D01*
X116901007Y-117001125D01*
X116964591Y-117018162D01*
X116302371Y-117680381D01*
X116241048Y-117713866D01*
X116214690Y-117716700D01*
X116195345Y-117716700D01*
X116134797Y-117723211D01*
X116134795Y-117723211D01*
X115997795Y-117774311D01*
X115880739Y-117861939D01*
X115793111Y-117978995D01*
X115742011Y-118115995D01*
X115742011Y-118115997D01*
X115735500Y-118176545D01*
X112998998Y-118176545D01*
X112998998Y-118173237D01*
X112999059Y-116424077D01*
X112999092Y-115467183D01*
X113000383Y-78378711D01*
X115149500Y-78378711D01*
X115149500Y-78621288D01*
X115181161Y-78861785D01*
X115243947Y-79096104D01*
X115336773Y-79320205D01*
X115336776Y-79320212D01*
X115458064Y-79530289D01*
X115458066Y-79530292D01*
X115458067Y-79530293D01*
X115605733Y-79722736D01*
X115605739Y-79722743D01*
X115777256Y-79894260D01*
X115777262Y-79894265D01*
X115969711Y-80041936D01*
X116179788Y-80163224D01*
X116403900Y-80256054D01*
X116638211Y-80318838D01*
X116818586Y-80342584D01*
X116878711Y-80350500D01*
X116878712Y-80350500D01*
X117121289Y-80350500D01*
X117169388Y-80344167D01*
X117361789Y-80318838D01*
X117596100Y-80256054D01*
X117820212Y-80163224D01*
X118030289Y-80041936D01*
X118222738Y-79894265D01*
X118394265Y-79722738D01*
X118541936Y-79530289D01*
X118663224Y-79320212D01*
X118756054Y-79096100D01*
X118818838Y-78861789D01*
X118850500Y-78621288D01*
X118850500Y-78378712D01*
X118850500Y-78378711D01*
X152149500Y-78378711D01*
X152149500Y-78621288D01*
X152181161Y-78861785D01*
X152243947Y-79096104D01*
X152336773Y-79320205D01*
X152336776Y-79320212D01*
X152458064Y-79530289D01*
X152458066Y-79530292D01*
X152458067Y-79530293D01*
X152605733Y-79722736D01*
X152605739Y-79722743D01*
X152777256Y-79894260D01*
X152777262Y-79894265D01*
X152969711Y-80041936D01*
X153179788Y-80163224D01*
X153403900Y-80256054D01*
X153638211Y-80318838D01*
X153818586Y-80342584D01*
X153878711Y-80350500D01*
X153878712Y-80350500D01*
X154121289Y-80350500D01*
X154169388Y-80344167D01*
X154361789Y-80318838D01*
X154596100Y-80256054D01*
X154820212Y-80163224D01*
X155030289Y-80041936D01*
X155222738Y-79894265D01*
X155394265Y-79722738D01*
X155541936Y-79530289D01*
X155663224Y-79320212D01*
X155756054Y-79096100D01*
X155818838Y-78861789D01*
X155850500Y-78621288D01*
X155850500Y-78378712D01*
X155818838Y-78138211D01*
X155756054Y-77903900D01*
X155663224Y-77679788D01*
X155541936Y-77469711D01*
X155394265Y-77277262D01*
X155394260Y-77277256D01*
X155222743Y-77105739D01*
X155222736Y-77105733D01*
X155030293Y-76958067D01*
X155030292Y-76958066D01*
X155030289Y-76958064D01*
X154820212Y-76836776D01*
X154820205Y-76836773D01*
X154596104Y-76743947D01*
X154361785Y-76681161D01*
X154121289Y-76649500D01*
X154121288Y-76649500D01*
X153878712Y-76649500D01*
X153878711Y-76649500D01*
X153638214Y-76681161D01*
X153403895Y-76743947D01*
X153179794Y-76836773D01*
X153179785Y-76836777D01*
X152969706Y-76958067D01*
X152777263Y-77105733D01*
X152777256Y-77105739D01*
X152605739Y-77277256D01*
X152605733Y-77277263D01*
X152458067Y-77469706D01*
X152336777Y-77679785D01*
X152336773Y-77679794D01*
X152243947Y-77903895D01*
X152181161Y-78138214D01*
X152149500Y-78378711D01*
X118850500Y-78378711D01*
X118818838Y-78138211D01*
X118756054Y-77903900D01*
X118663224Y-77679788D01*
X118541936Y-77469711D01*
X118394265Y-77277262D01*
X118394260Y-77277256D01*
X118222743Y-77105739D01*
X118222736Y-77105733D01*
X118030293Y-76958067D01*
X118030292Y-76958066D01*
X118030289Y-76958064D01*
X117820212Y-76836776D01*
X117820205Y-76836773D01*
X117596104Y-76743947D01*
X117361785Y-76681161D01*
X117121289Y-76649500D01*
X117121288Y-76649500D01*
X116878712Y-76649500D01*
X116878711Y-76649500D01*
X116638214Y-76681161D01*
X116403895Y-76743947D01*
X116179794Y-76836773D01*
X116179785Y-76836777D01*
X115969706Y-76958067D01*
X115777263Y-77105733D01*
X115777256Y-77105739D01*
X115605739Y-77277256D01*
X115605733Y-77277263D01*
X115458067Y-77469706D01*
X115336777Y-77679785D01*
X115336773Y-77679794D01*
X115243947Y-77903895D01*
X115181161Y-78138214D01*
X115149500Y-78378711D01*
X113000383Y-78378711D01*
X113000383Y-78374649D01*
X113000496Y-75124496D01*
X113020183Y-75057457D01*
X113072988Y-75011704D01*
X113124496Y-75000500D01*
X157875500Y-75000500D01*
X157942539Y-75020185D01*
G37*
%TD.AperFunction*%
%TA.AperFunction,Conductor*%
G36*
X115654834Y-90337028D02*
G01*
X115710767Y-90378900D01*
X115735184Y-90444364D01*
X115735500Y-90453210D01*
X115735500Y-90581715D01*
X115768951Y-90792917D01*
X115835026Y-90996280D01*
X115835027Y-90996283D01*
X115919470Y-91162009D01*
X115932106Y-91186809D01*
X116057794Y-91359804D01*
X116208996Y-91511006D01*
X116351127Y-91614270D01*
X116381991Y-91636694D01*
X116385873Y-91639073D01*
X116432748Y-91690886D01*
X116444169Y-91759816D01*
X116416512Y-91823978D01*
X116385873Y-91850527D01*
X116381991Y-91852905D01*
X116208993Y-91978596D01*
X116057796Y-92129793D01*
X115932106Y-92302790D01*
X115835027Y-92493316D01*
X115835026Y-92493319D01*
X115768951Y-92696682D01*
X115735500Y-92907884D01*
X115735500Y-93121715D01*
X115768951Y-93332917D01*
X115835026Y-93536280D01*
X115835027Y-93536283D01*
X115866729Y-93598500D01*
X115932106Y-93726809D01*
X116057794Y-93899804D01*
X116208996Y-94051006D01*
X116351127Y-94154270D01*
X116381991Y-94176694D01*
X116385873Y-94179073D01*
X116432748Y-94230886D01*
X116444169Y-94299816D01*
X116416512Y-94363978D01*
X116385873Y-94390527D01*
X116381991Y-94392905D01*
X116208993Y-94518596D01*
X116057796Y-94669793D01*
X115932106Y-94842790D01*
X115835027Y-95033316D01*
X115835026Y-95033319D01*
X115768951Y-95236682D01*
X115735500Y-95447884D01*
X115735500Y-95661715D01*
X115768951Y-95872917D01*
X115835026Y-96076280D01*
X115835027Y-96076283D01*
X115919470Y-96242009D01*
X115932106Y-96266809D01*
X116057794Y-96439804D01*
X116208996Y-96591006D01*
X116351127Y-96694270D01*
X116381991Y-96716694D01*
X116385873Y-96719073D01*
X116432748Y-96770886D01*
X116444169Y-96839816D01*
X116416512Y-96903978D01*
X116385873Y-96930527D01*
X116381991Y-96932905D01*
X116208993Y-97058596D01*
X116057796Y-97209793D01*
X115932106Y-97382790D01*
X115835027Y-97573316D01*
X115835026Y-97573319D01*
X115768951Y-97776682D01*
X115735500Y-97987884D01*
X115735500Y-98201715D01*
X115768951Y-98412917D01*
X115835026Y-98616280D01*
X115835027Y-98616283D01*
X115919470Y-98782009D01*
X115932106Y-98806809D01*
X116057794Y-98979804D01*
X116208996Y-99131006D01*
X116351127Y-99234270D01*
X116381991Y-99256694D01*
X116385873Y-99259073D01*
X116432748Y-99310886D01*
X116444169Y-99379816D01*
X116416512Y-99443978D01*
X116385873Y-99470527D01*
X116381991Y-99472905D01*
X116208993Y-99598596D01*
X116057796Y-99749793D01*
X115932106Y-99922790D01*
X115835027Y-100113316D01*
X115835026Y-100113319D01*
X115768951Y-100316682D01*
X115735500Y-100527884D01*
X115735500Y-100741715D01*
X115768951Y-100952917D01*
X115835026Y-101156280D01*
X115835027Y-101156283D01*
X115919470Y-101322009D01*
X115932106Y-101346809D01*
X116057794Y-101519804D01*
X116208996Y-101671006D01*
X116381991Y-101796694D01*
X116386680Y-101799083D01*
X116437478Y-101847054D01*
X116454276Y-101914874D01*
X116431742Y-101981010D01*
X116390205Y-102017009D01*
X116390590Y-102017638D01*
X116386804Y-102019957D01*
X116386702Y-102020046D01*
X116386449Y-102020174D01*
X116386440Y-102020180D01*
X116332282Y-102059527D01*
X116332282Y-102059528D01*
X116964591Y-102691837D01*
X116901007Y-102708875D01*
X116786993Y-102774701D01*
X116693901Y-102867793D01*
X116628075Y-102981807D01*
X116611037Y-103045391D01*
X115978728Y-102413082D01*
X115978727Y-102413082D01*
X115939380Y-102467239D01*
X115842904Y-102656582D01*
X115777242Y-102858669D01*
X115777242Y-102858672D01*
X115744000Y-103068553D01*
X115744000Y-103281046D01*
X115777242Y-103490927D01*
X115777242Y-103490930D01*
X115842904Y-103693017D01*
X115939375Y-103882350D01*
X115978728Y-103936516D01*
X116611037Y-103304208D01*
X116628075Y-103367793D01*
X116693901Y-103481807D01*
X116786993Y-103574899D01*
X116901007Y-103640725D01*
X116964591Y-103657762D01*
X116302371Y-104319981D01*
X116241048Y-104353466D01*
X116214690Y-104356300D01*
X116195345Y-104356300D01*
X116134797Y-104362811D01*
X116134795Y-104362811D01*
X115997795Y-104413911D01*
X115880739Y-104501539D01*
X115793111Y-104618595D01*
X115742011Y-104755595D01*
X115742011Y-104755597D01*
X115735500Y-104816145D01*
X115735500Y-106613454D01*
X115742011Y-106674002D01*
X115742011Y-106674004D01*
X115793111Y-106811004D01*
X115880739Y-106928061D01*
X115997796Y-107015689D01*
X116112949Y-107058639D01*
X116131959Y-107065730D01*
X116134799Y-107066789D01*
X116162050Y-107069718D01*
X116195345Y-107073299D01*
X116195362Y-107073300D01*
X117992638Y-107073300D01*
X117992654Y-107073299D01*
X118019692Y-107070391D01*
X118053201Y-107066789D01*
X118056041Y-107065730D01*
X118067768Y-107061355D01*
X118190204Y-107015689D01*
X118307261Y-106928061D01*
X118394889Y-106811004D01*
X118445989Y-106674001D01*
X118449591Y-106640492D01*
X118452499Y-106613454D01*
X118452500Y-106613437D01*
X118452500Y-104816162D01*
X118452499Y-104816145D01*
X118449157Y-104785070D01*
X118445989Y-104755599D01*
X118394889Y-104618596D01*
X118307261Y-104501539D01*
X118190204Y-104413911D01*
X118166289Y-104404991D01*
X118053203Y-104362811D01*
X117992654Y-104356300D01*
X117992638Y-104356300D01*
X117973309Y-104356300D01*
X117906270Y-104336615D01*
X117885628Y-104319981D01*
X117223408Y-103657762D01*
X117286993Y-103640725D01*
X117401007Y-103574899D01*
X117494099Y-103481807D01*
X117559925Y-103367793D01*
X117576962Y-103304208D01*
X118209270Y-103936517D01*
X118209270Y-103936516D01*
X118248622Y-103882354D01*
X118345095Y-103693017D01*
X118410757Y-103490930D01*
X118410757Y-103490927D01*
X118444000Y-103281046D01*
X118444000Y-103068553D01*
X118410757Y-102858672D01*
X118410757Y-102858669D01*
X118345095Y-102656582D01*
X118248624Y-102467249D01*
X118209270Y-102413082D01*
X118209269Y-102413082D01*
X117576962Y-103045390D01*
X117559925Y-102981807D01*
X117494099Y-102867793D01*
X117401007Y-102774701D01*
X117286993Y-102708875D01*
X117223409Y-102691837D01*
X117855716Y-102059528D01*
X117801547Y-102020173D01*
X117801545Y-102020171D01*
X117801308Y-102020051D01*
X117801234Y-102019981D01*
X117797396Y-102017629D01*
X117797890Y-102016822D01*
X117750515Y-101972074D01*
X117733724Y-101904251D01*
X117756266Y-101838118D01*
X117801319Y-101799083D01*
X117806009Y-101796694D01*
X117979004Y-101671006D01*
X118130206Y-101519804D01*
X118255894Y-101346809D01*
X118352972Y-101156283D01*
X118419049Y-100952916D01*
X118452500Y-100741716D01*
X118452500Y-100527884D01*
X118419049Y-100316684D01*
X118352972Y-100113317D01*
X118352972Y-100113316D01*
X118255893Y-99922790D01*
X118130206Y-99749796D01*
X117979004Y-99598594D01*
X117806009Y-99472906D01*
X117806005Y-99472903D01*
X117802132Y-99470530D01*
X117755254Y-99418720D01*
X117743829Y-99349791D01*
X117771483Y-99285627D01*
X117802132Y-99259070D01*
X117806005Y-99256696D01*
X117806004Y-99256696D01*
X117806009Y-99256694D01*
X117979004Y-99131006D01*
X118130206Y-98979804D01*
X118255894Y-98806809D01*
X118352972Y-98616283D01*
X118419049Y-98412916D01*
X118452500Y-98201716D01*
X118452500Y-97987884D01*
X118419049Y-97776684D01*
X118352972Y-97573317D01*
X118352972Y-97573316D01*
X118255893Y-97382790D01*
X118130206Y-97209796D01*
X117979004Y-97058594D01*
X117806009Y-96932906D01*
X117806005Y-96932903D01*
X117802132Y-96930530D01*
X117755254Y-96878720D01*
X117743829Y-96809791D01*
X117771483Y-96745627D01*
X117802132Y-96719070D01*
X117806005Y-96716696D01*
X117806004Y-96716696D01*
X117806009Y-96716694D01*
X117979004Y-96591006D01*
X118130206Y-96439804D01*
X118255894Y-96266809D01*
X118352972Y-96076283D01*
X118419049Y-95872916D01*
X118452500Y-95661716D01*
X118452500Y-95447884D01*
X118419049Y-95236684D01*
X118352972Y-95033317D01*
X118352972Y-95033316D01*
X118255893Y-94842790D01*
X118130206Y-94669796D01*
X117979004Y-94518594D01*
X117806009Y-94392906D01*
X117806005Y-94392903D01*
X117802132Y-94390530D01*
X117755254Y-94338720D01*
X117743829Y-94269791D01*
X117771483Y-94205627D01*
X117802132Y-94179070D01*
X117806005Y-94176696D01*
X117806004Y-94176696D01*
X117806009Y-94176694D01*
X117979004Y-94051006D01*
X118130206Y-93899804D01*
X118255894Y-93726809D01*
X118352972Y-93536283D01*
X118419049Y-93332916D01*
X118452500Y-93121716D01*
X118452500Y-92993211D01*
X118472185Y-92926172D01*
X118524989Y-92880417D01*
X118594147Y-92870473D01*
X118657703Y-92899498D01*
X118664181Y-92905530D01*
X119235573Y-93476922D01*
X119374327Y-93557032D01*
X119451708Y-93577766D01*
X119529089Y-93598500D01*
X119529090Y-93598500D01*
X119689310Y-93598500D01*
X121317500Y-93598500D01*
X121384539Y-93618185D01*
X121430294Y-93670989D01*
X121441500Y-93722500D01*
X121441500Y-93888654D01*
X121448011Y-93949202D01*
X121448011Y-93949204D01*
X121499111Y-94086204D01*
X121573585Y-94185689D01*
X121598002Y-94251154D01*
X121583150Y-94319427D01*
X121573586Y-94334308D01*
X121553921Y-94360578D01*
X121499111Y-94433795D01*
X121448011Y-94570795D01*
X121448011Y-94570797D01*
X121441500Y-94631345D01*
X121441500Y-96428654D01*
X121448011Y-96489202D01*
X121448011Y-96489204D01*
X121499111Y-96626204D01*
X121573585Y-96725689D01*
X121598002Y-96791154D01*
X121583150Y-96859427D01*
X121573586Y-96874308D01*
X121553921Y-96900578D01*
X121499111Y-96973795D01*
X121448011Y-97110795D01*
X121448011Y-97110797D01*
X121441500Y-97171345D01*
X121441500Y-98968654D01*
X121448011Y-99029202D01*
X121448011Y-99029204D01*
X121499111Y-99166204D01*
X121573585Y-99265689D01*
X121598002Y-99331154D01*
X121583150Y-99399427D01*
X121573586Y-99414308D01*
X121553921Y-99440578D01*
X121499111Y-99513795D01*
X121448011Y-99650795D01*
X121448011Y-99650797D01*
X121441500Y-99711345D01*
X121441500Y-101508654D01*
X121448011Y-101569202D01*
X121448011Y-101569204D01*
X121499111Y-101706204D01*
X121573585Y-101805689D01*
X121598002Y-101871154D01*
X121583150Y-101939427D01*
X121573586Y-101954308D01*
X121553921Y-101980578D01*
X121499111Y-102053795D01*
X121448011Y-102190795D01*
X121448011Y-102190797D01*
X121441500Y-102251345D01*
X121441500Y-104048654D01*
X121448011Y-104109202D01*
X121448011Y-104109204D01*
X121499111Y-104246204D01*
X121586739Y-104363261D01*
X121703796Y-104450889D01*
X121824626Y-104495956D01*
X121880557Y-104537827D01*
X121904974Y-104603291D01*
X121890122Y-104671564D01*
X121868972Y-104699818D01*
X121763793Y-104804997D01*
X121638106Y-104977990D01*
X121541027Y-105168516D01*
X121541026Y-105168519D01*
X121474951Y-105371882D01*
X121441500Y-105583084D01*
X121441500Y-105796915D01*
X121474951Y-106008117D01*
X121541026Y-106211480D01*
X121541027Y-106211483D01*
X121638106Y-106402009D01*
X121763794Y-106575004D01*
X121914996Y-106726206D01*
X122031711Y-106811004D01*
X122087991Y-106851894D01*
X122091873Y-106854273D01*
X122138748Y-106906086D01*
X122150169Y-106975016D01*
X122122512Y-107039178D01*
X122091873Y-107065727D01*
X122087991Y-107068105D01*
X121914993Y-107193796D01*
X121763796Y-107344993D01*
X121638106Y-107517990D01*
X121541027Y-107708516D01*
X121541026Y-107708519D01*
X121474951Y-107911882D01*
X121441500Y-108123084D01*
X121441500Y-108336915D01*
X121474951Y-108548117D01*
X121541026Y-108751480D01*
X121541027Y-108751483D01*
X121638106Y-108942009D01*
X121763794Y-109115004D01*
X121914996Y-109266206D01*
X122087991Y-109391894D01*
X122091873Y-109394273D01*
X122138748Y-109446086D01*
X122150169Y-109515016D01*
X122122512Y-109579178D01*
X122091873Y-109605727D01*
X122087991Y-109608105D01*
X121914993Y-109733796D01*
X121763796Y-109884993D01*
X121638106Y-110057990D01*
X121541027Y-110248516D01*
X121541026Y-110248519D01*
X121474951Y-110451882D01*
X121441500Y-110663084D01*
X121441500Y-110876915D01*
X121474951Y-111088117D01*
X121541026Y-111291480D01*
X121541027Y-111291483D01*
X121638106Y-111482009D01*
X121763794Y-111655004D01*
X121914996Y-111806206D01*
X121974174Y-111849201D01*
X122087991Y-111931894D01*
X122091873Y-111934273D01*
X122138748Y-111986086D01*
X122150169Y-112055016D01*
X122122512Y-112119178D01*
X122091873Y-112145727D01*
X122087991Y-112148105D01*
X121914993Y-112273796D01*
X121763796Y-112424993D01*
X121638106Y-112597990D01*
X121541027Y-112788516D01*
X121541026Y-112788519D01*
X121474951Y-112991882D01*
X121441500Y-113203084D01*
X121441500Y-113416915D01*
X121474951Y-113628117D01*
X121541026Y-113831480D01*
X121541027Y-113831483D01*
X121638106Y-114022009D01*
X121763794Y-114195004D01*
X121914996Y-114346206D01*
X121974174Y-114389201D01*
X122087991Y-114471894D01*
X122091873Y-114474273D01*
X122138748Y-114526086D01*
X122150169Y-114595016D01*
X122122512Y-114659178D01*
X122091873Y-114685727D01*
X122087991Y-114688105D01*
X121914993Y-114813796D01*
X121763796Y-114964993D01*
X121638106Y-115137990D01*
X121541027Y-115328516D01*
X121541026Y-115328519D01*
X121474951Y-115531882D01*
X121441500Y-115743084D01*
X121441500Y-115871589D01*
X121421815Y-115938628D01*
X121369011Y-115984383D01*
X121299853Y-115994327D01*
X121236297Y-115965302D01*
X121229819Y-115959270D01*
X115249619Y-109979070D01*
X115216134Y-109917747D01*
X115213300Y-109891389D01*
X115213300Y-90727410D01*
X115232985Y-90660371D01*
X115249615Y-90639733D01*
X115523820Y-90365528D01*
X115585142Y-90332044D01*
X115654834Y-90337028D01*
G37*
%TD.AperFunction*%
%TD*%
M02*
