%TF.GenerationSoftware,KiCad,Pcbnew,10.0.6-1.fc44*%
%TF.CreationDate,2026-09-11T09:22:30+07:00*%
%TF.ProjectId,LuckFox RAP Shield,4c75636b-466f-4782-9052-415020536869,rev?*%
%TF.SameCoordinates,Original*%
%TF.FileFunction,Legend,Top*%
%TF.FilePolarity,Positive*%
%FSLAX46Y46*%
G04 Gerber Fmt 4.6, Leading zero omitted, Abs format (unit mm)*
G04 Created by KiCad (PCBNEW 10.0.6-1.fc44) date 2026-09-11 09:22:30*
%MOMM*%
%LPD*%
G01*
G04 APERTURE LIST*
%ADD10C,0.203000*%
%ADD11C,0.200000*%
%ADD12C,0.205000*%
G04 APERTURE END LIST*
D10*
X133086647Y-101009863D02*
X132753314Y-100533672D01*
X132515219Y-101009863D02*
X132515219Y-100009863D01*
X132515219Y-100009863D02*
X132896171Y-100009863D01*
X132896171Y-100009863D02*
X132991409Y-100057482D01*
X132991409Y-100057482D02*
X133039028Y-100105101D01*
X133039028Y-100105101D02*
X133086647Y-100200339D01*
X133086647Y-100200339D02*
X133086647Y-100343196D01*
X133086647Y-100343196D02*
X133039028Y-100438434D01*
X133039028Y-100438434D02*
X132991409Y-100486053D01*
X132991409Y-100486053D02*
X132896171Y-100533672D01*
X132896171Y-100533672D02*
X132515219Y-100533672D01*
X133515219Y-100486053D02*
X133848552Y-100486053D01*
X133991409Y-101009863D02*
X133515219Y-101009863D01*
X133515219Y-101009863D02*
X133515219Y-100009863D01*
X133515219Y-100009863D02*
X133991409Y-100009863D01*
X134277124Y-100009863D02*
X134610457Y-101009863D01*
X134610457Y-101009863D02*
X134943790Y-100009863D01*
X135991410Y-100724148D02*
X136467600Y-100724148D01*
X135896172Y-101009863D02*
X136229505Y-100009863D01*
X136229505Y-100009863D02*
X136562838Y-101009863D01*
X129135238Y-80954253D02*
X129278095Y-81001872D01*
X129278095Y-81001872D02*
X129325714Y-81049491D01*
X129325714Y-81049491D02*
X129373333Y-81144729D01*
X129373333Y-81144729D02*
X129373333Y-81287586D01*
X129373333Y-81287586D02*
X129325714Y-81382824D01*
X129325714Y-81382824D02*
X129278095Y-81430444D01*
X129278095Y-81430444D02*
X129182857Y-81478063D01*
X129182857Y-81478063D02*
X128801905Y-81478063D01*
X128801905Y-81478063D02*
X128801905Y-80478063D01*
X128801905Y-80478063D02*
X129135238Y-80478063D01*
X129135238Y-80478063D02*
X129230476Y-80525682D01*
X129230476Y-80525682D02*
X129278095Y-80573301D01*
X129278095Y-80573301D02*
X129325714Y-80668539D01*
X129325714Y-80668539D02*
X129325714Y-80763777D01*
X129325714Y-80763777D02*
X129278095Y-80859015D01*
X129278095Y-80859015D02*
X129230476Y-80906634D01*
X129230476Y-80906634D02*
X129135238Y-80954253D01*
X129135238Y-80954253D02*
X128801905Y-80954253D01*
X129754286Y-80573301D02*
X129801905Y-80525682D01*
X129801905Y-80525682D02*
X129897143Y-80478063D01*
X129897143Y-80478063D02*
X130135238Y-80478063D01*
X130135238Y-80478063D02*
X130230476Y-80525682D01*
X130230476Y-80525682D02*
X130278095Y-80573301D01*
X130278095Y-80573301D02*
X130325714Y-80668539D01*
X130325714Y-80668539D02*
X130325714Y-80763777D01*
X130325714Y-80763777D02*
X130278095Y-80906634D01*
X130278095Y-80906634D02*
X129706667Y-81478063D01*
X129706667Y-81478063D02*
X130325714Y-81478063D01*
X124041905Y-85232063D02*
X124660952Y-85232063D01*
X124660952Y-85232063D02*
X124327619Y-85613015D01*
X124327619Y-85613015D02*
X124470476Y-85613015D01*
X124470476Y-85613015D02*
X124565714Y-85660634D01*
X124565714Y-85660634D02*
X124613333Y-85708253D01*
X124613333Y-85708253D02*
X124660952Y-85803491D01*
X124660952Y-85803491D02*
X124660952Y-86041586D01*
X124660952Y-86041586D02*
X124613333Y-86136824D01*
X124613333Y-86136824D02*
X124565714Y-86184444D01*
X124565714Y-86184444D02*
X124470476Y-86232063D01*
X124470476Y-86232063D02*
X124184762Y-86232063D01*
X124184762Y-86232063D02*
X124089524Y-86184444D01*
X124089524Y-86184444D02*
X124041905Y-86136824D01*
X124946667Y-85232063D02*
X125280000Y-86232063D01*
X125280000Y-86232063D02*
X125613333Y-85232063D01*
X125851429Y-85232063D02*
X126470476Y-85232063D01*
X126470476Y-85232063D02*
X126137143Y-85613015D01*
X126137143Y-85613015D02*
X126280000Y-85613015D01*
X126280000Y-85613015D02*
X126375238Y-85660634D01*
X126375238Y-85660634D02*
X126422857Y-85708253D01*
X126422857Y-85708253D02*
X126470476Y-85803491D01*
X126470476Y-85803491D02*
X126470476Y-86041586D01*
X126470476Y-86041586D02*
X126422857Y-86136824D01*
X126422857Y-86136824D02*
X126375238Y-86184444D01*
X126375238Y-86184444D02*
X126280000Y-86232063D01*
X126280000Y-86232063D02*
X125994286Y-86232063D01*
X125994286Y-86232063D02*
X125899048Y-86184444D01*
X125899048Y-86184444D02*
X125851429Y-86136824D01*
X124133124Y-82713263D02*
X124752171Y-82713263D01*
X124752171Y-82713263D02*
X124418838Y-83094215D01*
X124418838Y-83094215D02*
X124561695Y-83094215D01*
X124561695Y-83094215D02*
X124656933Y-83141834D01*
X124656933Y-83141834D02*
X124704552Y-83189453D01*
X124704552Y-83189453D02*
X124752171Y-83284691D01*
X124752171Y-83284691D02*
X124752171Y-83522786D01*
X124752171Y-83522786D02*
X124704552Y-83618024D01*
X124704552Y-83618024D02*
X124656933Y-83665644D01*
X124656933Y-83665644D02*
X124561695Y-83713263D01*
X124561695Y-83713263D02*
X124275981Y-83713263D01*
X124275981Y-83713263D02*
X124180743Y-83665644D01*
X124180743Y-83665644D02*
X124133124Y-83618024D01*
X125085505Y-83046596D02*
X125323600Y-83713263D01*
X125323600Y-83713263D02*
X125561695Y-83046596D01*
X125847410Y-82713263D02*
X126466457Y-82713263D01*
X126466457Y-82713263D02*
X126133124Y-83094215D01*
X126133124Y-83094215D02*
X126275981Y-83094215D01*
X126275981Y-83094215D02*
X126371219Y-83141834D01*
X126371219Y-83141834D02*
X126418838Y-83189453D01*
X126418838Y-83189453D02*
X126466457Y-83284691D01*
X126466457Y-83284691D02*
X126466457Y-83522786D01*
X126466457Y-83522786D02*
X126418838Y-83618024D01*
X126418838Y-83618024D02*
X126371219Y-83665644D01*
X126371219Y-83665644D02*
X126275981Y-83713263D01*
X126275981Y-83713263D02*
X125990267Y-83713263D01*
X125990267Y-83713263D02*
X125895029Y-83665644D01*
X125895029Y-83665644D02*
X125847410Y-83618024D01*
X124783403Y-88752063D02*
X124450070Y-88275872D01*
X124211975Y-88752063D02*
X124211975Y-87752063D01*
X124211975Y-87752063D02*
X124592927Y-87752063D01*
X124592927Y-87752063D02*
X124688165Y-87799682D01*
X124688165Y-87799682D02*
X124735784Y-87847301D01*
X124735784Y-87847301D02*
X124783403Y-87942539D01*
X124783403Y-87942539D02*
X124783403Y-88085396D01*
X124783403Y-88085396D02*
X124735784Y-88180634D01*
X124735784Y-88180634D02*
X124688165Y-88228253D01*
X124688165Y-88228253D02*
X124592927Y-88275872D01*
X124592927Y-88275872D02*
X124211975Y-88275872D01*
X125164356Y-88704444D02*
X125307213Y-88752063D01*
X125307213Y-88752063D02*
X125545308Y-88752063D01*
X125545308Y-88752063D02*
X125640546Y-88704444D01*
X125640546Y-88704444D02*
X125688165Y-88656824D01*
X125688165Y-88656824D02*
X125735784Y-88561586D01*
X125735784Y-88561586D02*
X125735784Y-88466348D01*
X125735784Y-88466348D02*
X125688165Y-88371110D01*
X125688165Y-88371110D02*
X125640546Y-88323491D01*
X125640546Y-88323491D02*
X125545308Y-88275872D01*
X125545308Y-88275872D02*
X125354832Y-88228253D01*
X125354832Y-88228253D02*
X125259594Y-88180634D01*
X125259594Y-88180634D02*
X125211975Y-88133015D01*
X125211975Y-88133015D02*
X125164356Y-88037777D01*
X125164356Y-88037777D02*
X125164356Y-87942539D01*
X125164356Y-87942539D02*
X125211975Y-87847301D01*
X125211975Y-87847301D02*
X125259594Y-87799682D01*
X125259594Y-87799682D02*
X125354832Y-87752063D01*
X125354832Y-87752063D02*
X125592927Y-87752063D01*
X125592927Y-87752063D02*
X125735784Y-87799682D01*
X126021499Y-87752063D02*
X126592927Y-87752063D01*
X126307213Y-88752063D02*
X126307213Y-87752063D01*
X125521499Y-90625396D02*
X125521499Y-91292063D01*
X125283404Y-90244444D02*
X125045309Y-90958729D01*
X125045309Y-90958729D02*
X125664356Y-90958729D01*
X125569118Y-92832063D02*
X125092928Y-92832063D01*
X125092928Y-92832063D02*
X125045309Y-93308253D01*
X125045309Y-93308253D02*
X125092928Y-93260634D01*
X125092928Y-93260634D02*
X125188166Y-93213015D01*
X125188166Y-93213015D02*
X125426261Y-93213015D01*
X125426261Y-93213015D02*
X125521499Y-93260634D01*
X125521499Y-93260634D02*
X125569118Y-93308253D01*
X125569118Y-93308253D02*
X125616737Y-93403491D01*
X125616737Y-93403491D02*
X125616737Y-93641586D01*
X125616737Y-93641586D02*
X125569118Y-93736824D01*
X125569118Y-93736824D02*
X125521499Y-93784444D01*
X125521499Y-93784444D02*
X125426261Y-93832063D01*
X125426261Y-93832063D02*
X125188166Y-93832063D01*
X125188166Y-93832063D02*
X125092928Y-93784444D01*
X125092928Y-93784444D02*
X125045309Y-93736824D01*
X125521499Y-95372063D02*
X125331023Y-95372063D01*
X125331023Y-95372063D02*
X125235785Y-95419682D01*
X125235785Y-95419682D02*
X125188166Y-95467301D01*
X125188166Y-95467301D02*
X125092928Y-95610158D01*
X125092928Y-95610158D02*
X125045309Y-95800634D01*
X125045309Y-95800634D02*
X125045309Y-96181586D01*
X125045309Y-96181586D02*
X125092928Y-96276824D01*
X125092928Y-96276824D02*
X125140547Y-96324444D01*
X125140547Y-96324444D02*
X125235785Y-96372063D01*
X125235785Y-96372063D02*
X125426261Y-96372063D01*
X125426261Y-96372063D02*
X125521499Y-96324444D01*
X125521499Y-96324444D02*
X125569118Y-96276824D01*
X125569118Y-96276824D02*
X125616737Y-96181586D01*
X125616737Y-96181586D02*
X125616737Y-95943491D01*
X125616737Y-95943491D02*
X125569118Y-95848253D01*
X125569118Y-95848253D02*
X125521499Y-95800634D01*
X125521499Y-95800634D02*
X125426261Y-95753015D01*
X125426261Y-95753015D02*
X125235785Y-95753015D01*
X125235785Y-95753015D02*
X125140547Y-95800634D01*
X125140547Y-95800634D02*
X125092928Y-95848253D01*
X125092928Y-95848253D02*
X125045309Y-95943491D01*
X124997690Y-97912063D02*
X125664356Y-97912063D01*
X125664356Y-97912063D02*
X125235785Y-98912063D01*
X125140546Y-101452063D02*
X124569118Y-101452063D01*
X124854832Y-101452063D02*
X124854832Y-100452063D01*
X124854832Y-100452063D02*
X124759594Y-100594920D01*
X124759594Y-100594920D02*
X124664356Y-100690158D01*
X124664356Y-100690158D02*
X124569118Y-100737777D01*
X126045308Y-100452063D02*
X125569118Y-100452063D01*
X125569118Y-100452063D02*
X125521499Y-100928253D01*
X125521499Y-100928253D02*
X125569118Y-100880634D01*
X125569118Y-100880634D02*
X125664356Y-100833015D01*
X125664356Y-100833015D02*
X125902451Y-100833015D01*
X125902451Y-100833015D02*
X125997689Y-100880634D01*
X125997689Y-100880634D02*
X126045308Y-100928253D01*
X126045308Y-100928253D02*
X126092927Y-101023491D01*
X126092927Y-101023491D02*
X126092927Y-101261586D01*
X126092927Y-101261586D02*
X126045308Y-101356824D01*
X126045308Y-101356824D02*
X125997689Y-101404444D01*
X125997689Y-101404444D02*
X125902451Y-101452063D01*
X125902451Y-101452063D02*
X125664356Y-101452063D01*
X125664356Y-101452063D02*
X125569118Y-101404444D01*
X125569118Y-101404444D02*
X125521499Y-101356824D01*
X125140546Y-103992063D02*
X124569118Y-103992063D01*
X124854832Y-103992063D02*
X124854832Y-102992063D01*
X124854832Y-102992063D02*
X124759594Y-103134920D01*
X124759594Y-103134920D02*
X124664356Y-103230158D01*
X124664356Y-103230158D02*
X124569118Y-103277777D01*
X125997689Y-102992063D02*
X125807213Y-102992063D01*
X125807213Y-102992063D02*
X125711975Y-103039682D01*
X125711975Y-103039682D02*
X125664356Y-103087301D01*
X125664356Y-103087301D02*
X125569118Y-103230158D01*
X125569118Y-103230158D02*
X125521499Y-103420634D01*
X125521499Y-103420634D02*
X125521499Y-103801586D01*
X125521499Y-103801586D02*
X125569118Y-103896824D01*
X125569118Y-103896824D02*
X125616737Y-103944444D01*
X125616737Y-103944444D02*
X125711975Y-103992063D01*
X125711975Y-103992063D02*
X125902451Y-103992063D01*
X125902451Y-103992063D02*
X125997689Y-103944444D01*
X125997689Y-103944444D02*
X126045308Y-103896824D01*
X126045308Y-103896824D02*
X126092927Y-103801586D01*
X126092927Y-103801586D02*
X126092927Y-103563491D01*
X126092927Y-103563491D02*
X126045308Y-103468253D01*
X126045308Y-103468253D02*
X125997689Y-103420634D01*
X125997689Y-103420634D02*
X125902451Y-103373015D01*
X125902451Y-103373015D02*
X125711975Y-103373015D01*
X125711975Y-103373015D02*
X125616737Y-103420634D01*
X125616737Y-103420634D02*
X125569118Y-103468253D01*
X125569118Y-103468253D02*
X125521499Y-103563491D01*
X125140546Y-106532063D02*
X124569118Y-106532063D01*
X124854832Y-106532063D02*
X124854832Y-105532063D01*
X124854832Y-105532063D02*
X124759594Y-105674920D01*
X124759594Y-105674920D02*
X124664356Y-105770158D01*
X124664356Y-105770158D02*
X124569118Y-105817777D01*
X125473880Y-105532063D02*
X126140546Y-105532063D01*
X126140546Y-105532063D02*
X125711975Y-106532063D01*
X125140546Y-109072063D02*
X124569118Y-109072063D01*
X124854832Y-109072063D02*
X124854832Y-108072063D01*
X124854832Y-108072063D02*
X124759594Y-108214920D01*
X124759594Y-108214920D02*
X124664356Y-108310158D01*
X124664356Y-108310158D02*
X124569118Y-108357777D01*
X125711975Y-108500634D02*
X125616737Y-108453015D01*
X125616737Y-108453015D02*
X125569118Y-108405396D01*
X125569118Y-108405396D02*
X125521499Y-108310158D01*
X125521499Y-108310158D02*
X125521499Y-108262539D01*
X125521499Y-108262539D02*
X125569118Y-108167301D01*
X125569118Y-108167301D02*
X125616737Y-108119682D01*
X125616737Y-108119682D02*
X125711975Y-108072063D01*
X125711975Y-108072063D02*
X125902451Y-108072063D01*
X125902451Y-108072063D02*
X125997689Y-108119682D01*
X125997689Y-108119682D02*
X126045308Y-108167301D01*
X126045308Y-108167301D02*
X126092927Y-108262539D01*
X126092927Y-108262539D02*
X126092927Y-108310158D01*
X126092927Y-108310158D02*
X126045308Y-108405396D01*
X126045308Y-108405396D02*
X125997689Y-108453015D01*
X125997689Y-108453015D02*
X125902451Y-108500634D01*
X125902451Y-108500634D02*
X125711975Y-108500634D01*
X125711975Y-108500634D02*
X125616737Y-108548253D01*
X125616737Y-108548253D02*
X125569118Y-108595872D01*
X125569118Y-108595872D02*
X125521499Y-108691110D01*
X125521499Y-108691110D02*
X125521499Y-108881586D01*
X125521499Y-108881586D02*
X125569118Y-108976824D01*
X125569118Y-108976824D02*
X125616737Y-109024444D01*
X125616737Y-109024444D02*
X125711975Y-109072063D01*
X125711975Y-109072063D02*
X125902451Y-109072063D01*
X125902451Y-109072063D02*
X125997689Y-109024444D01*
X125997689Y-109024444D02*
X126045308Y-108976824D01*
X126045308Y-108976824D02*
X126092927Y-108881586D01*
X126092927Y-108881586D02*
X126092927Y-108691110D01*
X126092927Y-108691110D02*
X126045308Y-108595872D01*
X126045308Y-108595872D02*
X125997689Y-108548253D01*
X125997689Y-108548253D02*
X125902451Y-108500634D01*
X142068095Y-82679682D02*
X141972857Y-82632063D01*
X141972857Y-82632063D02*
X141830000Y-82632063D01*
X141830000Y-82632063D02*
X141687143Y-82679682D01*
X141687143Y-82679682D02*
X141591905Y-82774920D01*
X141591905Y-82774920D02*
X141544286Y-82870158D01*
X141544286Y-82870158D02*
X141496667Y-83060634D01*
X141496667Y-83060634D02*
X141496667Y-83203491D01*
X141496667Y-83203491D02*
X141544286Y-83393967D01*
X141544286Y-83393967D02*
X141591905Y-83489205D01*
X141591905Y-83489205D02*
X141687143Y-83584444D01*
X141687143Y-83584444D02*
X141830000Y-83632063D01*
X141830000Y-83632063D02*
X141925238Y-83632063D01*
X141925238Y-83632063D02*
X142068095Y-83584444D01*
X142068095Y-83584444D02*
X142115714Y-83536824D01*
X142115714Y-83536824D02*
X142115714Y-83203491D01*
X142115714Y-83203491D02*
X141925238Y-83203491D01*
X142544286Y-83632063D02*
X142544286Y-82632063D01*
X142544286Y-82632063D02*
X143115714Y-83632063D01*
X143115714Y-83632063D02*
X143115714Y-82632063D01*
X143591905Y-83632063D02*
X143591905Y-82632063D01*
X143591905Y-82632063D02*
X143830000Y-82632063D01*
X143830000Y-82632063D02*
X143972857Y-82679682D01*
X143972857Y-82679682D02*
X144068095Y-82774920D01*
X144068095Y-82774920D02*
X144115714Y-82870158D01*
X144115714Y-82870158D02*
X144163333Y-83060634D01*
X144163333Y-83060634D02*
X144163333Y-83203491D01*
X144163333Y-83203491D02*
X144115714Y-83393967D01*
X144115714Y-83393967D02*
X144068095Y-83489205D01*
X144068095Y-83489205D02*
X143972857Y-83584444D01*
X143972857Y-83584444D02*
X143830000Y-83632063D01*
X143830000Y-83632063D02*
X143591905Y-83632063D01*
X142593095Y-85172063D02*
X143164523Y-85172063D01*
X142878809Y-86172063D02*
X142878809Y-85172063D01*
X143402619Y-85172063D02*
X144069285Y-86172063D01*
X144069285Y-85172063D02*
X143402619Y-86172063D01*
X143188333Y-88712063D02*
X142855000Y-88235872D01*
X142616905Y-88712063D02*
X142616905Y-87712063D01*
X142616905Y-87712063D02*
X142997857Y-87712063D01*
X142997857Y-87712063D02*
X143093095Y-87759682D01*
X143093095Y-87759682D02*
X143140714Y-87807301D01*
X143140714Y-87807301D02*
X143188333Y-87902539D01*
X143188333Y-87902539D02*
X143188333Y-88045396D01*
X143188333Y-88045396D02*
X143140714Y-88140634D01*
X143140714Y-88140634D02*
X143093095Y-88188253D01*
X143093095Y-88188253D02*
X142997857Y-88235872D01*
X142997857Y-88235872D02*
X142616905Y-88235872D01*
X143521667Y-87712063D02*
X144188333Y-88712063D01*
X144188333Y-87712063D02*
X143521667Y-88712063D01*
X142695476Y-108057063D02*
X143314523Y-108057063D01*
X143314523Y-108057063D02*
X142981190Y-108438015D01*
X142981190Y-108438015D02*
X143124047Y-108438015D01*
X143124047Y-108438015D02*
X143219285Y-108485634D01*
X143219285Y-108485634D02*
X143266904Y-108533253D01*
X143266904Y-108533253D02*
X143314523Y-108628491D01*
X143314523Y-108628491D02*
X143314523Y-108866586D01*
X143314523Y-108866586D02*
X143266904Y-108961824D01*
X143266904Y-108961824D02*
X143219285Y-109009444D01*
X143219285Y-109009444D02*
X143124047Y-109057063D01*
X143124047Y-109057063D02*
X142838333Y-109057063D01*
X142838333Y-109057063D02*
X142743095Y-109009444D01*
X142743095Y-109009444D02*
X142695476Y-108961824D01*
X143647857Y-108057063D02*
X144314523Y-108057063D01*
X144314523Y-108057063D02*
X143885952Y-109057063D01*
X143269285Y-95665396D02*
X143269285Y-96332063D01*
X143031190Y-95284444D02*
X142793095Y-95998729D01*
X142793095Y-95998729D02*
X143412142Y-95998729D01*
X143745476Y-95427301D02*
X143793095Y-95379682D01*
X143793095Y-95379682D02*
X143888333Y-95332063D01*
X143888333Y-95332063D02*
X144126428Y-95332063D01*
X144126428Y-95332063D02*
X144221666Y-95379682D01*
X144221666Y-95379682D02*
X144269285Y-95427301D01*
X144269285Y-95427301D02*
X144316904Y-95522539D01*
X144316904Y-95522539D02*
X144316904Y-95617777D01*
X144316904Y-95617777D02*
X144269285Y-95760634D01*
X144269285Y-95760634D02*
X143697857Y-96332063D01*
X143697857Y-96332063D02*
X144316904Y-96332063D01*
X143319285Y-100760396D02*
X143319285Y-101427063D01*
X143081190Y-100379444D02*
X142843095Y-101093729D01*
X142843095Y-101093729D02*
X143462142Y-101093729D01*
X144033571Y-100427063D02*
X144128809Y-100427063D01*
X144128809Y-100427063D02*
X144224047Y-100474682D01*
X144224047Y-100474682D02*
X144271666Y-100522301D01*
X144271666Y-100522301D02*
X144319285Y-100617539D01*
X144319285Y-100617539D02*
X144366904Y-100808015D01*
X144366904Y-100808015D02*
X144366904Y-101046110D01*
X144366904Y-101046110D02*
X144319285Y-101236586D01*
X144319285Y-101236586D02*
X144271666Y-101331824D01*
X144271666Y-101331824D02*
X144224047Y-101379444D01*
X144224047Y-101379444D02*
X144128809Y-101427063D01*
X144128809Y-101427063D02*
X144033571Y-101427063D01*
X144033571Y-101427063D02*
X143938333Y-101379444D01*
X143938333Y-101379444D02*
X143890714Y-101331824D01*
X143890714Y-101331824D02*
X143843095Y-101236586D01*
X143843095Y-101236586D02*
X143795476Y-101046110D01*
X143795476Y-101046110D02*
X143795476Y-100808015D01*
X143795476Y-100808015D02*
X143843095Y-100617539D01*
X143843095Y-100617539D02*
X143890714Y-100522301D01*
X143890714Y-100522301D02*
X143938333Y-100474682D01*
X143938333Y-100474682D02*
X144033571Y-100427063D01*
X142795476Y-102967063D02*
X143414523Y-102967063D01*
X143414523Y-102967063D02*
X143081190Y-103348015D01*
X143081190Y-103348015D02*
X143224047Y-103348015D01*
X143224047Y-103348015D02*
X143319285Y-103395634D01*
X143319285Y-103395634D02*
X143366904Y-103443253D01*
X143366904Y-103443253D02*
X143414523Y-103538491D01*
X143414523Y-103538491D02*
X143414523Y-103776586D01*
X143414523Y-103776586D02*
X143366904Y-103871824D01*
X143366904Y-103871824D02*
X143319285Y-103919444D01*
X143319285Y-103919444D02*
X143224047Y-103967063D01*
X143224047Y-103967063D02*
X142938333Y-103967063D01*
X142938333Y-103967063D02*
X142843095Y-103919444D01*
X142843095Y-103919444D02*
X142795476Y-103871824D01*
X143890714Y-103967063D02*
X144081190Y-103967063D01*
X144081190Y-103967063D02*
X144176428Y-103919444D01*
X144176428Y-103919444D02*
X144224047Y-103871824D01*
X144224047Y-103871824D02*
X144319285Y-103728967D01*
X144319285Y-103728967D02*
X144366904Y-103538491D01*
X144366904Y-103538491D02*
X144366904Y-103157539D01*
X144366904Y-103157539D02*
X144319285Y-103062301D01*
X144319285Y-103062301D02*
X144271666Y-103014682D01*
X144271666Y-103014682D02*
X144176428Y-102967063D01*
X144176428Y-102967063D02*
X143985952Y-102967063D01*
X143985952Y-102967063D02*
X143890714Y-103014682D01*
X143890714Y-103014682D02*
X143843095Y-103062301D01*
X143843095Y-103062301D02*
X143795476Y-103157539D01*
X143795476Y-103157539D02*
X143795476Y-103395634D01*
X143795476Y-103395634D02*
X143843095Y-103490872D01*
X143843095Y-103490872D02*
X143890714Y-103538491D01*
X143890714Y-103538491D02*
X143985952Y-103586110D01*
X143985952Y-103586110D02*
X144176428Y-103586110D01*
X144176428Y-103586110D02*
X144271666Y-103538491D01*
X144271666Y-103538491D02*
X144319285Y-103490872D01*
X144319285Y-103490872D02*
X144366904Y-103395634D01*
X143325885Y-98240396D02*
X143325885Y-98907063D01*
X143087790Y-97859444D02*
X142849695Y-98573729D01*
X142849695Y-98573729D02*
X143468742Y-98573729D01*
X144373504Y-98907063D02*
X143802076Y-98907063D01*
X144087790Y-98907063D02*
X144087790Y-97907063D01*
X144087790Y-97907063D02*
X143992552Y-98049920D01*
X143992552Y-98049920D02*
X143897314Y-98145158D01*
X143897314Y-98145158D02*
X143802076Y-98192777D01*
X142802076Y-105522463D02*
X143421123Y-105522463D01*
X143421123Y-105522463D02*
X143087790Y-105903415D01*
X143087790Y-105903415D02*
X143230647Y-105903415D01*
X143230647Y-105903415D02*
X143325885Y-105951034D01*
X143325885Y-105951034D02*
X143373504Y-105998653D01*
X143373504Y-105998653D02*
X143421123Y-106093891D01*
X143421123Y-106093891D02*
X143421123Y-106331986D01*
X143421123Y-106331986D02*
X143373504Y-106427224D01*
X143373504Y-106427224D02*
X143325885Y-106474844D01*
X143325885Y-106474844D02*
X143230647Y-106522463D01*
X143230647Y-106522463D02*
X142944933Y-106522463D01*
X142944933Y-106522463D02*
X142849695Y-106474844D01*
X142849695Y-106474844D02*
X142802076Y-106427224D01*
X143992552Y-105951034D02*
X143897314Y-105903415D01*
X143897314Y-105903415D02*
X143849695Y-105855796D01*
X143849695Y-105855796D02*
X143802076Y-105760558D01*
X143802076Y-105760558D02*
X143802076Y-105712939D01*
X143802076Y-105712939D02*
X143849695Y-105617701D01*
X143849695Y-105617701D02*
X143897314Y-105570082D01*
X143897314Y-105570082D02*
X143992552Y-105522463D01*
X143992552Y-105522463D02*
X144183028Y-105522463D01*
X144183028Y-105522463D02*
X144278266Y-105570082D01*
X144278266Y-105570082D02*
X144325885Y-105617701D01*
X144325885Y-105617701D02*
X144373504Y-105712939D01*
X144373504Y-105712939D02*
X144373504Y-105760558D01*
X144373504Y-105760558D02*
X144325885Y-105855796D01*
X144325885Y-105855796D02*
X144278266Y-105903415D01*
X144278266Y-105903415D02*
X144183028Y-105951034D01*
X144183028Y-105951034D02*
X143992552Y-105951034D01*
X143992552Y-105951034D02*
X143897314Y-105998653D01*
X143897314Y-105998653D02*
X143849695Y-106046272D01*
X143849695Y-106046272D02*
X143802076Y-106141510D01*
X143802076Y-106141510D02*
X143802076Y-106331986D01*
X143802076Y-106331986D02*
X143849695Y-106427224D01*
X143849695Y-106427224D02*
X143897314Y-106474844D01*
X143897314Y-106474844D02*
X143992552Y-106522463D01*
X143992552Y-106522463D02*
X144183028Y-106522463D01*
X144183028Y-106522463D02*
X144278266Y-106474844D01*
X144278266Y-106474844D02*
X144325885Y-106427224D01*
X144325885Y-106427224D02*
X144373504Y-106331986D01*
X144373504Y-106331986D02*
X144373504Y-106141510D01*
X144373504Y-106141510D02*
X144325885Y-106046272D01*
X144325885Y-106046272D02*
X144278266Y-105998653D01*
X144278266Y-105998653D02*
X144183028Y-105951034D01*
X144115714Y-91217063D02*
X143544286Y-91217063D01*
X143830000Y-91217063D02*
X143830000Y-90217063D01*
X143830000Y-90217063D02*
X143734762Y-90359920D01*
X143734762Y-90359920D02*
X143639524Y-90455158D01*
X143639524Y-90455158D02*
X143544286Y-90502777D01*
X143544286Y-92852301D02*
X143591905Y-92804682D01*
X143591905Y-92804682D02*
X143687143Y-92757063D01*
X143687143Y-92757063D02*
X143925238Y-92757063D01*
X143925238Y-92757063D02*
X144020476Y-92804682D01*
X144020476Y-92804682D02*
X144068095Y-92852301D01*
X144068095Y-92852301D02*
X144115714Y-92947539D01*
X144115714Y-92947539D02*
X144115714Y-93042777D01*
X144115714Y-93042777D02*
X144068095Y-93185634D01*
X144068095Y-93185634D02*
X143496667Y-93757063D01*
X143496667Y-93757063D02*
X144115714Y-93757063D01*
D11*
X146032209Y-90879047D02*
X146070304Y-90802857D01*
X146070304Y-90802857D02*
X146070304Y-90688571D01*
X146070304Y-90688571D02*
X146032209Y-90574285D01*
X146032209Y-90574285D02*
X145956019Y-90498095D01*
X145956019Y-90498095D02*
X145879828Y-90460000D01*
X145879828Y-90460000D02*
X145727447Y-90421904D01*
X145727447Y-90421904D02*
X145613161Y-90421904D01*
X145613161Y-90421904D02*
X145460780Y-90460000D01*
X145460780Y-90460000D02*
X145384590Y-90498095D01*
X145384590Y-90498095D02*
X145308400Y-90574285D01*
X145308400Y-90574285D02*
X145270304Y-90688571D01*
X145270304Y-90688571D02*
X145270304Y-90764762D01*
X145270304Y-90764762D02*
X145308400Y-90879047D01*
X145308400Y-90879047D02*
X145346495Y-90917143D01*
X145346495Y-90917143D02*
X145613161Y-90917143D01*
X145613161Y-90917143D02*
X145613161Y-90764762D01*
X145270304Y-91260000D02*
X146070304Y-91260000D01*
X146070304Y-91260000D02*
X146070304Y-91564762D01*
X146070304Y-91564762D02*
X146032209Y-91640952D01*
X146032209Y-91640952D02*
X145994114Y-91679047D01*
X145994114Y-91679047D02*
X145917923Y-91717143D01*
X145917923Y-91717143D02*
X145803638Y-91717143D01*
X145803638Y-91717143D02*
X145727447Y-91679047D01*
X145727447Y-91679047D02*
X145689352Y-91640952D01*
X145689352Y-91640952D02*
X145651257Y-91564762D01*
X145651257Y-91564762D02*
X145651257Y-91260000D01*
X145270304Y-92060000D02*
X146070304Y-92060000D01*
X146070304Y-92593333D02*
X146070304Y-92745714D01*
X146070304Y-92745714D02*
X146032209Y-92821904D01*
X146032209Y-92821904D02*
X145956019Y-92898095D01*
X145956019Y-92898095D02*
X145803638Y-92936190D01*
X145803638Y-92936190D02*
X145536971Y-92936190D01*
X145536971Y-92936190D02*
X145384590Y-92898095D01*
X145384590Y-92898095D02*
X145308400Y-92821904D01*
X145308400Y-92821904D02*
X145270304Y-92745714D01*
X145270304Y-92745714D02*
X145270304Y-92593333D01*
X145270304Y-92593333D02*
X145308400Y-92517142D01*
X145308400Y-92517142D02*
X145384590Y-92440952D01*
X145384590Y-92440952D02*
X145536971Y-92402856D01*
X145536971Y-92402856D02*
X145803638Y-92402856D01*
X145803638Y-92402856D02*
X145956019Y-92440952D01*
X145956019Y-92440952D02*
X146032209Y-92517142D01*
X146032209Y-92517142D02*
X146070304Y-92593333D01*
X145270304Y-93698094D02*
X145270304Y-93240951D01*
X145270304Y-93469523D02*
X146070304Y-93469523D01*
X146070304Y-93469523D02*
X145956019Y-93393332D01*
X145956019Y-93393332D02*
X145879828Y-93317142D01*
X145879828Y-93317142D02*
X145841733Y-93240951D01*
X146147409Y-105727695D02*
X146185504Y-105651505D01*
X146185504Y-105651505D02*
X146185504Y-105537219D01*
X146185504Y-105537219D02*
X146147409Y-105422933D01*
X146147409Y-105422933D02*
X146071219Y-105346743D01*
X146071219Y-105346743D02*
X145995028Y-105308648D01*
X145995028Y-105308648D02*
X145842647Y-105270552D01*
X145842647Y-105270552D02*
X145728361Y-105270552D01*
X145728361Y-105270552D02*
X145575980Y-105308648D01*
X145575980Y-105308648D02*
X145499790Y-105346743D01*
X145499790Y-105346743D02*
X145423600Y-105422933D01*
X145423600Y-105422933D02*
X145385504Y-105537219D01*
X145385504Y-105537219D02*
X145385504Y-105613410D01*
X145385504Y-105613410D02*
X145423600Y-105727695D01*
X145423600Y-105727695D02*
X145461695Y-105765791D01*
X145461695Y-105765791D02*
X145728361Y-105765791D01*
X145728361Y-105765791D02*
X145728361Y-105613410D01*
X145385504Y-106108648D02*
X146185504Y-106108648D01*
X146185504Y-106108648D02*
X146185504Y-106413410D01*
X146185504Y-106413410D02*
X146147409Y-106489600D01*
X146147409Y-106489600D02*
X146109314Y-106527695D01*
X146109314Y-106527695D02*
X146033123Y-106565791D01*
X146033123Y-106565791D02*
X145918838Y-106565791D01*
X145918838Y-106565791D02*
X145842647Y-106527695D01*
X145842647Y-106527695D02*
X145804552Y-106489600D01*
X145804552Y-106489600D02*
X145766457Y-106413410D01*
X145766457Y-106413410D02*
X145766457Y-106108648D01*
X145385504Y-106908648D02*
X146185504Y-106908648D01*
X146185504Y-107441981D02*
X146185504Y-107594362D01*
X146185504Y-107594362D02*
X146147409Y-107670552D01*
X146147409Y-107670552D02*
X146071219Y-107746743D01*
X146071219Y-107746743D02*
X145918838Y-107784838D01*
X145918838Y-107784838D02*
X145652171Y-107784838D01*
X145652171Y-107784838D02*
X145499790Y-107746743D01*
X145499790Y-107746743D02*
X145423600Y-107670552D01*
X145423600Y-107670552D02*
X145385504Y-107594362D01*
X145385504Y-107594362D02*
X145385504Y-107441981D01*
X145385504Y-107441981D02*
X145423600Y-107365790D01*
X145423600Y-107365790D02*
X145499790Y-107289600D01*
X145499790Y-107289600D02*
X145652171Y-107251504D01*
X145652171Y-107251504D02*
X145918838Y-107251504D01*
X145918838Y-107251504D02*
X146071219Y-107289600D01*
X146071219Y-107289600D02*
X146147409Y-107365790D01*
X146147409Y-107365790D02*
X146185504Y-107441981D01*
X146185504Y-108051504D02*
X146185504Y-108546742D01*
X146185504Y-108546742D02*
X145880742Y-108280076D01*
X145880742Y-108280076D02*
X145880742Y-108394361D01*
X145880742Y-108394361D02*
X145842647Y-108470552D01*
X145842647Y-108470552D02*
X145804552Y-108508647D01*
X145804552Y-108508647D02*
X145728361Y-108546742D01*
X145728361Y-108546742D02*
X145537885Y-108546742D01*
X145537885Y-108546742D02*
X145461695Y-108508647D01*
X145461695Y-108508647D02*
X145423600Y-108470552D01*
X145423600Y-108470552D02*
X145385504Y-108394361D01*
X145385504Y-108394361D02*
X145385504Y-108165790D01*
X145385504Y-108165790D02*
X145423600Y-108089599D01*
X145423600Y-108089599D02*
X145461695Y-108051504D01*
X145842647Y-109003885D02*
X145880742Y-108927695D01*
X145880742Y-108927695D02*
X145918838Y-108889600D01*
X145918838Y-108889600D02*
X145995028Y-108851504D01*
X145995028Y-108851504D02*
X146033123Y-108851504D01*
X146033123Y-108851504D02*
X146109314Y-108889600D01*
X146109314Y-108889600D02*
X146147409Y-108927695D01*
X146147409Y-108927695D02*
X146185504Y-109003885D01*
X146185504Y-109003885D02*
X146185504Y-109156266D01*
X146185504Y-109156266D02*
X146147409Y-109232457D01*
X146147409Y-109232457D02*
X146109314Y-109270552D01*
X146109314Y-109270552D02*
X146033123Y-109308647D01*
X146033123Y-109308647D02*
X145995028Y-109308647D01*
X145995028Y-109308647D02*
X145918838Y-109270552D01*
X145918838Y-109270552D02*
X145880742Y-109232457D01*
X145880742Y-109232457D02*
X145842647Y-109156266D01*
X145842647Y-109156266D02*
X145842647Y-109003885D01*
X145842647Y-109003885D02*
X145804552Y-108927695D01*
X145804552Y-108927695D02*
X145766457Y-108889600D01*
X145766457Y-108889600D02*
X145690266Y-108851504D01*
X145690266Y-108851504D02*
X145537885Y-108851504D01*
X145537885Y-108851504D02*
X145461695Y-108889600D01*
X145461695Y-108889600D02*
X145423600Y-108927695D01*
X145423600Y-108927695D02*
X145385504Y-109003885D01*
X145385504Y-109003885D02*
X145385504Y-109156266D01*
X145385504Y-109156266D02*
X145423600Y-109232457D01*
X145423600Y-109232457D02*
X145461695Y-109270552D01*
X145461695Y-109270552D02*
X145537885Y-109308647D01*
X145537885Y-109308647D02*
X145690266Y-109308647D01*
X145690266Y-109308647D02*
X145766457Y-109270552D01*
X145766457Y-109270552D02*
X145804552Y-109232457D01*
X145804552Y-109232457D02*
X145842647Y-109156266D01*
D12*
X120743809Y-111878688D02*
X120275238Y-111878688D01*
X120509524Y-111878688D02*
X120509524Y-111058688D01*
X120509524Y-111058688D02*
X120431428Y-111175831D01*
X120431428Y-111175831D02*
X120353333Y-111253926D01*
X120353333Y-111253926D02*
X120275238Y-111292974D01*
X121524761Y-111878688D02*
X121056190Y-111878688D01*
X121290476Y-111878688D02*
X121290476Y-111058688D01*
X121290476Y-111058688D02*
X121212380Y-111175831D01*
X121212380Y-111175831D02*
X121134285Y-111253926D01*
X121134285Y-111253926D02*
X121056190Y-111292974D01*
D10*
%TO.C,G\u002A\u002A\u002A*%
X135051198Y-88371303D02*
X135562294Y-88431484D01*
X136060096Y-88534857D01*
X136542068Y-88680245D01*
X137005675Y-88866470D01*
X137448378Y-89092355D01*
X137867643Y-89356722D01*
X138260934Y-89658394D01*
X138625714Y-89996192D01*
X138687120Y-90059657D01*
X139022953Y-90445424D01*
X139319120Y-90853738D01*
X139575150Y-91281862D01*
X139790568Y-91727057D01*
X139964905Y-92186586D01*
X140097686Y-92657709D01*
X140188441Y-93137687D01*
X140236696Y-93623782D01*
X140241980Y-94113256D01*
X140203821Y-94603371D01*
X140121746Y-95091387D01*
X139995284Y-95574566D01*
X139823961Y-96050169D01*
X139749709Y-96222339D01*
X139520030Y-96675772D01*
X139251763Y-97102780D01*
X138944282Y-97504269D01*
X138621476Y-97856656D01*
X138243646Y-98204759D01*
X137843286Y-98512026D01*
X137418382Y-98779785D01*
X136966928Y-99009360D01*
X136710615Y-99118233D01*
X136249759Y-99276756D01*
X135771172Y-99394362D01*
X135281582Y-99470144D01*
X134787715Y-99503190D01*
X134296297Y-99492594D01*
X134079393Y-99473525D01*
X133605038Y-99400481D01*
X133134368Y-99286433D01*
X132674965Y-99133998D01*
X132234410Y-98945796D01*
X131820285Y-98724444D01*
X131704861Y-98653568D01*
X131346315Y-98403513D01*
X130997253Y-98115731D01*
X130665853Y-97798386D01*
X130360290Y-97459642D01*
X130088739Y-97107663D01*
X129951135Y-96902390D01*
X129703849Y-96468629D01*
X129498885Y-96017865D01*
X129336222Y-95553238D01*
X129215838Y-95077889D01*
X129137709Y-94594960D01*
X129101815Y-94107591D01*
X129103909Y-93945594D01*
X129252895Y-93945594D01*
X129258932Y-94224096D01*
X129275769Y-94486172D01*
X129299565Y-94691200D01*
X129396690Y-95191188D01*
X129536932Y-95674587D01*
X129719018Y-96139242D01*
X129941672Y-96583001D01*
X130203619Y-97003707D01*
X130503583Y-97399206D01*
X130840291Y-97767344D01*
X131212467Y-98105967D01*
X131415181Y-98266347D01*
X131761935Y-98504364D01*
X132141211Y-98722055D01*
X132540900Y-98913483D01*
X132948896Y-99072708D01*
X133252743Y-99167337D01*
X133438916Y-99213144D01*
X133646931Y-99254858D01*
X133866549Y-99291191D01*
X134087527Y-99320855D01*
X134299626Y-99342561D01*
X134492602Y-99355020D01*
X134656216Y-99356946D01*
X134729415Y-99353097D01*
X134781051Y-99349654D01*
X134866790Y-99344932D01*
X134973885Y-99339602D01*
X135069385Y-99335217D01*
X135391426Y-99306570D01*
X135735855Y-99249424D01*
X136089962Y-99166372D01*
X136441036Y-99060009D01*
X136476153Y-99047960D01*
X136607959Y-98997035D01*
X136768554Y-98926878D01*
X136946906Y-98843014D01*
X137131981Y-98750970D01*
X137312744Y-98656271D01*
X137478163Y-98564442D01*
X137617204Y-98481010D01*
X137648461Y-98460856D01*
X138054790Y-98166204D01*
X138428924Y-97838471D01*
X138769388Y-97480000D01*
X139074712Y-97093136D01*
X139343422Y-96680222D01*
X139574048Y-96243600D01*
X139765116Y-95785617D01*
X139915154Y-95308614D01*
X140022690Y-94814937D01*
X140050153Y-94637639D01*
X140070724Y-94439003D01*
X140083123Y-94208382D01*
X140087427Y-93959955D01*
X140083720Y-93707892D01*
X140072083Y-93466376D01*
X140052594Y-93249576D01*
X140041778Y-93167200D01*
X139962769Y-92738248D01*
X139853746Y-92331407D01*
X139710314Y-91932442D01*
X139547587Y-91567136D01*
X139307646Y-91123612D01*
X139031718Y-90709076D01*
X138721804Y-90325022D01*
X138379909Y-89972948D01*
X138008032Y-89654348D01*
X137608178Y-89370720D01*
X137182346Y-89123559D01*
X136732540Y-88914362D01*
X136260762Y-88744624D01*
X135769011Y-88615841D01*
X135538308Y-88571054D01*
X135312183Y-88540692D01*
X135053937Y-88520886D01*
X134777094Y-88511636D01*
X134495174Y-88512940D01*
X134221702Y-88524798D01*
X133970199Y-88547212D01*
X133803292Y-88571092D01*
X133300356Y-88681044D01*
X132817054Y-88832537D01*
X132355090Y-89024693D01*
X131916170Y-89256639D01*
X131501994Y-89527497D01*
X131114266Y-89836391D01*
X130840060Y-90094306D01*
X130493686Y-90475811D01*
X130188684Y-90879278D01*
X129925322Y-91304163D01*
X129703875Y-91749924D01*
X129524616Y-92216016D01*
X129387816Y-92701896D01*
X129299582Y-93166676D01*
X129273220Y-93401369D01*
X129257658Y-93666180D01*
X129252895Y-93945594D01*
X129103909Y-93945594D01*
X129108132Y-93618922D01*
X129156639Y-93132096D01*
X129247314Y-92650252D01*
X129380133Y-92176533D01*
X129555076Y-91714078D01*
X129772120Y-91266029D01*
X129993535Y-90892923D01*
X130285813Y-90484031D01*
X130610998Y-90106624D01*
X130966286Y-89762097D01*
X131348874Y-89451851D01*
X131755958Y-89177280D01*
X132184735Y-88939786D01*
X132632401Y-88740764D01*
X133096154Y-88581611D01*
X133573189Y-88463727D01*
X134060704Y-88388507D01*
X134555894Y-88357352D01*
X135051198Y-88371303D01*
G36*
X135051198Y-88371303D02*
G01*
X135562294Y-88431484D01*
X136060096Y-88534857D01*
X136542068Y-88680245D01*
X137005675Y-88866470D01*
X137448378Y-89092355D01*
X137867643Y-89356722D01*
X138260934Y-89658394D01*
X138625714Y-89996192D01*
X138687120Y-90059657D01*
X139022953Y-90445424D01*
X139319120Y-90853738D01*
X139575150Y-91281862D01*
X139790568Y-91727057D01*
X139964905Y-92186586D01*
X140097686Y-92657709D01*
X140188441Y-93137687D01*
X140236696Y-93623782D01*
X140241980Y-94113256D01*
X140203821Y-94603371D01*
X140121746Y-95091387D01*
X139995284Y-95574566D01*
X139823961Y-96050169D01*
X139749709Y-96222339D01*
X139520030Y-96675772D01*
X139251763Y-97102780D01*
X138944282Y-97504269D01*
X138621476Y-97856656D01*
X138243646Y-98204759D01*
X137843286Y-98512026D01*
X137418382Y-98779785D01*
X136966928Y-99009360D01*
X136710615Y-99118233D01*
X136249759Y-99276756D01*
X135771172Y-99394362D01*
X135281582Y-99470144D01*
X134787715Y-99503190D01*
X134296297Y-99492594D01*
X134079393Y-99473525D01*
X133605038Y-99400481D01*
X133134368Y-99286433D01*
X132674965Y-99133998D01*
X132234410Y-98945796D01*
X131820285Y-98724444D01*
X131704861Y-98653568D01*
X131346315Y-98403513D01*
X130997253Y-98115731D01*
X130665853Y-97798386D01*
X130360290Y-97459642D01*
X130088739Y-97107663D01*
X129951135Y-96902390D01*
X129703849Y-96468629D01*
X129498885Y-96017865D01*
X129336222Y-95553238D01*
X129215838Y-95077889D01*
X129137709Y-94594960D01*
X129101815Y-94107591D01*
X129103909Y-93945594D01*
X129252895Y-93945594D01*
X129258932Y-94224096D01*
X129275769Y-94486172D01*
X129299565Y-94691200D01*
X129396690Y-95191188D01*
X129536932Y-95674587D01*
X129719018Y-96139242D01*
X129941672Y-96583001D01*
X130203619Y-97003707D01*
X130503583Y-97399206D01*
X130840291Y-97767344D01*
X131212467Y-98105967D01*
X131415181Y-98266347D01*
X131761935Y-98504364D01*
X132141211Y-98722055D01*
X132540900Y-98913483D01*
X132948896Y-99072708D01*
X133252743Y-99167337D01*
X133438916Y-99213144D01*
X133646931Y-99254858D01*
X133866549Y-99291191D01*
X134087527Y-99320855D01*
X134299626Y-99342561D01*
X134492602Y-99355020D01*
X134656216Y-99356946D01*
X134729415Y-99353097D01*
X134781051Y-99349654D01*
X134866790Y-99344932D01*
X134973885Y-99339602D01*
X135069385Y-99335217D01*
X135391426Y-99306570D01*
X135735855Y-99249424D01*
X136089962Y-99166372D01*
X136441036Y-99060009D01*
X136476153Y-99047960D01*
X136607959Y-98997035D01*
X136768554Y-98926878D01*
X136946906Y-98843014D01*
X137131981Y-98750970D01*
X137312744Y-98656271D01*
X137478163Y-98564442D01*
X137617204Y-98481010D01*
X137648461Y-98460856D01*
X138054790Y-98166204D01*
X138428924Y-97838471D01*
X138769388Y-97480000D01*
X139074712Y-97093136D01*
X139343422Y-96680222D01*
X139574048Y-96243600D01*
X139765116Y-95785617D01*
X139915154Y-95308614D01*
X140022690Y-94814937D01*
X140050153Y-94637639D01*
X140070724Y-94439003D01*
X140083123Y-94208382D01*
X140087427Y-93959955D01*
X140083720Y-93707892D01*
X140072083Y-93466376D01*
X140052594Y-93249576D01*
X140041778Y-93167200D01*
X139962769Y-92738248D01*
X139853746Y-92331407D01*
X139710314Y-91932442D01*
X139547587Y-91567136D01*
X139307646Y-91123612D01*
X139031718Y-90709076D01*
X138721804Y-90325022D01*
X138379909Y-89972948D01*
X138008032Y-89654348D01*
X137608178Y-89370720D01*
X137182346Y-89123559D01*
X136732540Y-88914362D01*
X136260762Y-88744624D01*
X135769011Y-88615841D01*
X135538308Y-88571054D01*
X135312183Y-88540692D01*
X135053937Y-88520886D01*
X134777094Y-88511636D01*
X134495174Y-88512940D01*
X134221702Y-88524798D01*
X133970199Y-88547212D01*
X133803292Y-88571092D01*
X133300356Y-88681044D01*
X132817054Y-88832537D01*
X132355090Y-89024693D01*
X131916170Y-89256639D01*
X131501994Y-89527497D01*
X131114266Y-89836391D01*
X130840060Y-90094306D01*
X130493686Y-90475811D01*
X130188684Y-90879278D01*
X129925322Y-91304163D01*
X129703875Y-91749924D01*
X129524616Y-92216016D01*
X129387816Y-92701896D01*
X129299582Y-93166676D01*
X129273220Y-93401369D01*
X129257658Y-93666180D01*
X129252895Y-93945594D01*
X129103909Y-93945594D01*
X129108132Y-93618922D01*
X129156639Y-93132096D01*
X129247314Y-92650252D01*
X129380133Y-92176533D01*
X129555076Y-91714078D01*
X129772120Y-91266029D01*
X129993535Y-90892923D01*
X130285813Y-90484031D01*
X130610998Y-90106624D01*
X130966286Y-89762097D01*
X131348874Y-89451851D01*
X131755958Y-89177280D01*
X132184735Y-88939786D01*
X132632401Y-88740764D01*
X133096154Y-88581611D01*
X133573189Y-88463727D01*
X134060704Y-88388507D01*
X134555894Y-88357352D01*
X135051198Y-88371303D01*
G37*
X135128413Y-89354247D02*
X135564972Y-89413997D01*
X135985593Y-89515040D01*
X136395400Y-89658567D01*
X136744690Y-89817696D01*
X137001835Y-89955012D01*
X137229040Y-90094310D01*
X137439915Y-90245300D01*
X137648070Y-90417690D01*
X137856456Y-90610865D01*
X138179808Y-90953175D01*
X138460500Y-91313934D01*
X138699327Y-91694699D01*
X138897086Y-92097022D01*
X139054570Y-92522459D01*
X139172578Y-92972564D01*
X139230933Y-93295200D01*
X139248601Y-93454485D01*
X139260039Y-93646313D01*
X139265247Y-93856755D01*
X139264225Y-94071876D01*
X139256973Y-94277747D01*
X139243491Y-94460435D01*
X139230933Y-94563198D01*
X139138650Y-95030832D01*
X139005608Y-95478908D01*
X138832750Y-95905137D01*
X138621016Y-96307234D01*
X138371347Y-96682913D01*
X138344089Y-96719259D01*
X138198534Y-96895652D01*
X138022077Y-97084388D01*
X137825196Y-97275754D01*
X137618366Y-97460036D01*
X137412069Y-97627518D01*
X137216780Y-97768487D01*
X137201379Y-97778702D01*
X136936438Y-97937452D01*
X136644896Y-98084447D01*
X136337550Y-98215637D01*
X136025198Y-98326973D01*
X135718638Y-98414405D01*
X135428668Y-98473882D01*
X135302445Y-98490892D01*
X135218116Y-98502263D01*
X135149502Y-98515401D01*
X135115363Y-98525907D01*
X135091069Y-98551388D01*
X135047496Y-98609661D01*
X134989723Y-98693453D01*
X134922830Y-98795486D01*
X134880902Y-98861684D01*
X134813007Y-98969210D01*
X134753626Y-99061274D01*
X134707200Y-99131147D01*
X134678167Y-99172103D01*
X134670800Y-99180029D01*
X134654767Y-99161756D01*
X134618139Y-99110585D01*
X134565488Y-99033188D01*
X134501385Y-98936234D01*
X134459785Y-98872157D01*
X134389414Y-98763992D01*
X134326293Y-98668702D01*
X134275483Y-98593805D01*
X134242051Y-98546813D01*
X134232926Y-98535605D01*
X134196529Y-98519133D01*
X134128602Y-98503240D01*
X134050850Y-98492202D01*
X133965009Y-98480116D01*
X133849692Y-98459370D01*
X133720827Y-98433014D01*
X133609494Y-98407748D01*
X133173050Y-98280476D01*
X132750880Y-98111870D01*
X132348744Y-97904763D01*
X131972394Y-97661991D01*
X131754220Y-97494546D01*
X131656489Y-97409374D01*
X131540133Y-97300100D01*
X131414184Y-97175976D01*
X131287668Y-97046254D01*
X131169618Y-96920184D01*
X131069061Y-96807018D01*
X130997510Y-96719292D01*
X130742116Y-96344073D01*
X130526782Y-95946722D01*
X130352200Y-95530580D01*
X130219058Y-95098986D01*
X130128045Y-94655283D01*
X130079853Y-94202810D01*
X130078696Y-94089676D01*
X130285980Y-94089676D01*
X130322535Y-94526657D01*
X130402690Y-94955697D01*
X130415175Y-95006043D01*
X130546880Y-95431145D01*
X130719735Y-95838450D01*
X130931234Y-96224896D01*
X131178867Y-96587421D01*
X131460127Y-96922962D01*
X131772505Y-97228462D01*
X132113492Y-97500855D01*
X132480582Y-97737082D01*
X132780190Y-97892752D01*
X132929191Y-97957839D01*
X133096659Y-98023052D01*
X133273820Y-98085701D01*
X133451901Y-98143096D01*
X133622127Y-98192546D01*
X133775725Y-98231360D01*
X133903920Y-98256845D01*
X133997938Y-98266313D01*
X133998300Y-98266317D01*
X134022908Y-98265266D01*
X134035657Y-98257893D01*
X134033907Y-98238431D01*
X134015019Y-98201115D01*
X133976354Y-98140178D01*
X133915272Y-98049855D01*
X133867016Y-97979523D01*
X133651994Y-97664805D01*
X133462626Y-97383641D01*
X133296444Y-97132064D01*
X133150981Y-96906100D01*
X133023771Y-96701782D01*
X132912348Y-96515139D01*
X132814244Y-96342201D01*
X132726992Y-96178996D01*
X132648126Y-96021557D01*
X132640102Y-96004930D01*
X132472341Y-95616336D01*
X132340107Y-95224342D01*
X132243930Y-94833312D01*
X132184336Y-94447613D01*
X132161856Y-94071609D01*
X132166431Y-93962372D01*
X132987487Y-93962372D01*
X133020073Y-94032116D01*
X133065279Y-94065857D01*
X133112649Y-94076633D01*
X133194338Y-94084804D01*
X133299034Y-94090274D01*
X133415431Y-94092948D01*
X133532215Y-94092731D01*
X133638078Y-94089528D01*
X133721707Y-94083243D01*
X133771795Y-94073780D01*
X133776164Y-94071846D01*
X133807959Y-94042901D01*
X133855738Y-93985754D01*
X133910204Y-93911692D01*
X133920975Y-93896001D01*
X133971447Y-93823841D01*
X134012234Y-93769714D01*
X134036212Y-93742954D01*
X134038833Y-93741630D01*
X134049483Y-93762930D01*
X134072348Y-93822756D01*
X134105275Y-93914996D01*
X134146111Y-94033535D01*
X134192706Y-94172265D01*
X134226588Y-94275030D01*
X134283182Y-94446458D01*
X134328164Y-94578471D01*
X134363766Y-94676454D01*
X134392224Y-94745795D01*
X134415770Y-94791881D01*
X134436640Y-94820096D01*
X134457068Y-94835828D01*
X134459785Y-94837224D01*
X134542129Y-94854156D01*
X134619895Y-94828104D01*
X134641490Y-94810940D01*
X134653716Y-94781903D01*
X134674366Y-94712842D01*
X134701962Y-94609565D01*
X134735020Y-94477884D01*
X134772063Y-94323609D01*
X134811607Y-94152548D01*
X134829060Y-94075059D01*
X134868522Y-93900201D01*
X134905192Y-93741024D01*
X134937742Y-93603047D01*
X134964841Y-93491783D01*
X134985158Y-93412746D01*
X134997364Y-93371452D01*
X134999894Y-93366650D01*
X135011979Y-93387366D01*
X135036583Y-93444383D01*
X135070513Y-93529820D01*
X135110571Y-93635793D01*
X135125769Y-93677153D01*
X135170572Y-93794468D01*
X135214423Y-93899535D01*
X135252951Y-93982524D01*
X135281788Y-94033606D01*
X135287269Y-94040568D01*
X135305937Y-94059009D01*
X135327960Y-94072562D01*
X135360297Y-94081978D01*
X135409908Y-94088010D01*
X135483746Y-94091410D01*
X135588774Y-94092927D01*
X135731947Y-94093314D01*
X135775753Y-94093323D01*
X135952892Y-94092237D01*
X136088848Y-94088260D01*
X136189293Y-94080310D01*
X136259901Y-94067306D01*
X136306344Y-94048164D01*
X136334295Y-94021805D01*
X136349430Y-93987147D01*
X136350303Y-93983795D01*
X136354113Y-93896028D01*
X136321526Y-93826283D01*
X136276320Y-93792543D01*
X136224894Y-93780786D01*
X136131849Y-93772066D01*
X136002380Y-93766721D01*
X135856333Y-93765076D01*
X135496627Y-93765076D01*
X135338613Y-93337185D01*
X135286036Y-93194826D01*
X135235816Y-93058877D01*
X135191461Y-92938830D01*
X135156476Y-92844182D01*
X135134995Y-92786104D01*
X135102042Y-92713307D01*
X135066254Y-92658299D01*
X135045759Y-92639565D01*
X134966839Y-92617469D01*
X134891644Y-92629991D01*
X134850361Y-92659002D01*
X134833324Y-92695348D01*
X134808325Y-92773616D01*
X134776449Y-92889717D01*
X134738791Y-93039563D01*
X134696437Y-93219068D01*
X134670614Y-93333080D01*
X134632822Y-93500732D01*
X134597389Y-93655062D01*
X134565838Y-93789642D01*
X134539702Y-93898040D01*
X134520506Y-93973824D01*
X134509778Y-94010564D01*
X134509491Y-94011261D01*
X134498940Y-94019426D01*
X134483307Y-94001006D01*
X134460816Y-93951850D01*
X134429686Y-93867810D01*
X134388142Y-93744737D01*
X134365526Y-93675362D01*
X134322224Y-93545648D01*
X134280771Y-93428908D01*
X134244385Y-93333660D01*
X134216283Y-93268421D01*
X134202766Y-93244539D01*
X134145300Y-93206477D01*
X134072598Y-93198221D01*
X134007356Y-93222004D01*
X134003636Y-93224942D01*
X133978262Y-93254588D01*
X133933504Y-93315198D01*
X133875385Y-93398327D01*
X133809928Y-93495530D01*
X133800885Y-93509226D01*
X133632397Y-93765076D01*
X133378978Y-93765076D01*
X133232401Y-93768471D01*
X133126278Y-93779789D01*
X133054588Y-93800732D01*
X133011310Y-93833001D01*
X132991296Y-93874604D01*
X132987487Y-93962372D01*
X132166431Y-93962372D01*
X132177018Y-93709666D01*
X132230350Y-93366148D01*
X132292335Y-93133763D01*
X132413067Y-92829874D01*
X132572640Y-92548296D01*
X132767295Y-92291736D01*
X132993277Y-92062902D01*
X133246828Y-91864498D01*
X133524190Y-91699233D01*
X133821609Y-91569809D01*
X134135326Y-91478937D01*
X134461585Y-91429319D01*
X134670800Y-91420461D01*
X135003532Y-91443341D01*
X135330154Y-91510414D01*
X135645211Y-91619328D01*
X135943243Y-91767736D01*
X136218794Y-91953284D01*
X136466409Y-92173622D01*
X136499600Y-92208244D01*
X136715136Y-92469862D01*
X136889461Y-92752136D01*
X137022727Y-93055614D01*
X137115085Y-93380847D01*
X137166687Y-93728381D01*
X137177686Y-94098766D01*
X137148234Y-94492551D01*
X137143306Y-94531437D01*
X137095795Y-94824982D01*
X137029958Y-95113268D01*
X136943773Y-95400795D01*
X136835221Y-95692061D01*
X136702280Y-95991566D01*
X136542930Y-96303808D01*
X136355149Y-96633286D01*
X136136916Y-96984498D01*
X135886212Y-97361945D01*
X135844598Y-97422676D01*
X135755626Y-97552239D01*
X135658676Y-97693756D01*
X135564930Y-97830885D01*
X135485574Y-97947280D01*
X135479295Y-97956509D01*
X135413552Y-98053110D01*
X135355198Y-98138720D01*
X135310531Y-98204110D01*
X135285846Y-98240052D01*
X135285699Y-98240262D01*
X135271940Y-98264123D01*
X135279834Y-98274329D01*
X135317839Y-98272818D01*
X135384986Y-98263007D01*
X135474319Y-98246927D01*
X135585330Y-98224083D01*
X135694275Y-98199365D01*
X135696210Y-98198901D01*
X136128381Y-98071024D01*
X136542165Y-97900766D01*
X136935109Y-97689845D01*
X137304763Y-97439981D01*
X137648677Y-97152893D01*
X137964402Y-96830301D01*
X138249486Y-96473921D01*
X138339811Y-96344153D01*
X138485908Y-96103248D01*
X138625196Y-95829312D01*
X138751653Y-95536200D01*
X138859261Y-95237766D01*
X138936126Y-94971660D01*
X139013167Y-94576169D01*
X139052179Y-94162450D01*
X139053159Y-93739716D01*
X139016108Y-93317177D01*
X138941023Y-92904042D01*
X138936496Y-92884755D01*
X138813274Y-92464863D01*
X138648291Y-92062848D01*
X138444087Y-91681214D01*
X138203203Y-91322463D01*
X137928178Y-90989100D01*
X137621553Y-90683628D01*
X137285869Y-90408552D01*
X136923664Y-90166376D01*
X136537479Y-89959601D01*
X136129855Y-89790734D01*
X135703330Y-89662277D01*
X135655538Y-89650761D01*
X135262866Y-89579747D01*
X134852924Y-89545367D01*
X134437717Y-89547621D01*
X134029246Y-89586508D01*
X133686061Y-89650760D01*
X133251698Y-89776414D01*
X132835898Y-89943814D01*
X132441390Y-90150814D01*
X132070902Y-90395262D01*
X131727162Y-90675011D01*
X131412900Y-90987912D01*
X131130844Y-91331816D01*
X130883724Y-91704573D01*
X130737294Y-91972906D01*
X130564378Y-92369342D01*
X130432222Y-92784586D01*
X130341392Y-93213290D01*
X130292455Y-93650103D01*
X130285980Y-94089676D01*
X130078696Y-94089676D01*
X130075172Y-93744908D01*
X130114690Y-93284916D01*
X130196124Y-92838953D01*
X130256280Y-92618014D01*
X130337835Y-92375914D01*
X130434608Y-92129417D01*
X130540418Y-91895288D01*
X130554860Y-91865938D01*
X130696360Y-91600230D01*
X130845944Y-91359479D01*
X131012486Y-91131298D01*
X131204868Y-90903299D01*
X131376114Y-90720155D01*
X131624834Y-90477888D01*
X131870142Y-90270214D01*
X132124789Y-90087701D01*
X132401527Y-89920925D01*
X132596908Y-89817696D01*
X133001494Y-89636504D01*
X133412472Y-89498825D01*
X133834960Y-89403470D01*
X134274081Y-89349244D01*
X134670800Y-89334594D01*
X135128413Y-89354247D01*
G36*
X135128413Y-89354247D02*
G01*
X135564972Y-89413997D01*
X135985593Y-89515040D01*
X136395400Y-89658567D01*
X136744690Y-89817696D01*
X137001835Y-89955012D01*
X137229040Y-90094310D01*
X137439915Y-90245300D01*
X137648070Y-90417690D01*
X137856456Y-90610865D01*
X138179808Y-90953175D01*
X138460500Y-91313934D01*
X138699327Y-91694699D01*
X138897086Y-92097022D01*
X139054570Y-92522459D01*
X139172578Y-92972564D01*
X139230933Y-93295200D01*
X139248601Y-93454485D01*
X139260039Y-93646313D01*
X139265247Y-93856755D01*
X139264225Y-94071876D01*
X139256973Y-94277747D01*
X139243491Y-94460435D01*
X139230933Y-94563198D01*
X139138650Y-95030832D01*
X139005608Y-95478908D01*
X138832750Y-95905137D01*
X138621016Y-96307234D01*
X138371347Y-96682913D01*
X138344089Y-96719259D01*
X138198534Y-96895652D01*
X138022077Y-97084388D01*
X137825196Y-97275754D01*
X137618366Y-97460036D01*
X137412069Y-97627518D01*
X137216780Y-97768487D01*
X137201379Y-97778702D01*
X136936438Y-97937452D01*
X136644896Y-98084447D01*
X136337550Y-98215637D01*
X136025198Y-98326973D01*
X135718638Y-98414405D01*
X135428668Y-98473882D01*
X135302445Y-98490892D01*
X135218116Y-98502263D01*
X135149502Y-98515401D01*
X135115363Y-98525907D01*
X135091069Y-98551388D01*
X135047496Y-98609661D01*
X134989723Y-98693453D01*
X134922830Y-98795486D01*
X134880902Y-98861684D01*
X134813007Y-98969210D01*
X134753626Y-99061274D01*
X134707200Y-99131147D01*
X134678167Y-99172103D01*
X134670800Y-99180029D01*
X134654767Y-99161756D01*
X134618139Y-99110585D01*
X134565488Y-99033188D01*
X134501385Y-98936234D01*
X134459785Y-98872157D01*
X134389414Y-98763992D01*
X134326293Y-98668702D01*
X134275483Y-98593805D01*
X134242051Y-98546813D01*
X134232926Y-98535605D01*
X134196529Y-98519133D01*
X134128602Y-98503240D01*
X134050850Y-98492202D01*
X133965009Y-98480116D01*
X133849692Y-98459370D01*
X133720827Y-98433014D01*
X133609494Y-98407748D01*
X133173050Y-98280476D01*
X132750880Y-98111870D01*
X132348744Y-97904763D01*
X131972394Y-97661991D01*
X131754220Y-97494546D01*
X131656489Y-97409374D01*
X131540133Y-97300100D01*
X131414184Y-97175976D01*
X131287668Y-97046254D01*
X131169618Y-96920184D01*
X131069061Y-96807018D01*
X130997510Y-96719292D01*
X130742116Y-96344073D01*
X130526782Y-95946722D01*
X130352200Y-95530580D01*
X130219058Y-95098986D01*
X130128045Y-94655283D01*
X130079853Y-94202810D01*
X130078696Y-94089676D01*
X130285980Y-94089676D01*
X130322535Y-94526657D01*
X130402690Y-94955697D01*
X130415175Y-95006043D01*
X130546880Y-95431145D01*
X130719735Y-95838450D01*
X130931234Y-96224896D01*
X131178867Y-96587421D01*
X131460127Y-96922962D01*
X131772505Y-97228462D01*
X132113492Y-97500855D01*
X132480582Y-97737082D01*
X132780190Y-97892752D01*
X132929191Y-97957839D01*
X133096659Y-98023052D01*
X133273820Y-98085701D01*
X133451901Y-98143096D01*
X133622127Y-98192546D01*
X133775725Y-98231360D01*
X133903920Y-98256845D01*
X133997938Y-98266313D01*
X133998300Y-98266317D01*
X134022908Y-98265266D01*
X134035657Y-98257893D01*
X134033907Y-98238431D01*
X134015019Y-98201115D01*
X133976354Y-98140178D01*
X133915272Y-98049855D01*
X133867016Y-97979523D01*
X133651994Y-97664805D01*
X133462626Y-97383641D01*
X133296444Y-97132064D01*
X133150981Y-96906100D01*
X133023771Y-96701782D01*
X132912348Y-96515139D01*
X132814244Y-96342201D01*
X132726992Y-96178996D01*
X132648126Y-96021557D01*
X132640102Y-96004930D01*
X132472341Y-95616336D01*
X132340107Y-95224342D01*
X132243930Y-94833312D01*
X132184336Y-94447613D01*
X132161856Y-94071609D01*
X132166431Y-93962372D01*
X132987487Y-93962372D01*
X133020073Y-94032116D01*
X133065279Y-94065857D01*
X133112649Y-94076633D01*
X133194338Y-94084804D01*
X133299034Y-94090274D01*
X133415431Y-94092948D01*
X133532215Y-94092731D01*
X133638078Y-94089528D01*
X133721707Y-94083243D01*
X133771795Y-94073780D01*
X133776164Y-94071846D01*
X133807959Y-94042901D01*
X133855738Y-93985754D01*
X133910204Y-93911692D01*
X133920975Y-93896001D01*
X133971447Y-93823841D01*
X134012234Y-93769714D01*
X134036212Y-93742954D01*
X134038833Y-93741630D01*
X134049483Y-93762930D01*
X134072348Y-93822756D01*
X134105275Y-93914996D01*
X134146111Y-94033535D01*
X134192706Y-94172265D01*
X134226588Y-94275030D01*
X134283182Y-94446458D01*
X134328164Y-94578471D01*
X134363766Y-94676454D01*
X134392224Y-94745795D01*
X134415770Y-94791881D01*
X134436640Y-94820096D01*
X134457068Y-94835828D01*
X134459785Y-94837224D01*
X134542129Y-94854156D01*
X134619895Y-94828104D01*
X134641490Y-94810940D01*
X134653716Y-94781903D01*
X134674366Y-94712842D01*
X134701962Y-94609565D01*
X134735020Y-94477884D01*
X134772063Y-94323609D01*
X134811607Y-94152548D01*
X134829060Y-94075059D01*
X134868522Y-93900201D01*
X134905192Y-93741024D01*
X134937742Y-93603047D01*
X134964841Y-93491783D01*
X134985158Y-93412746D01*
X134997364Y-93371452D01*
X134999894Y-93366650D01*
X135011979Y-93387366D01*
X135036583Y-93444383D01*
X135070513Y-93529820D01*
X135110571Y-93635793D01*
X135125769Y-93677153D01*
X135170572Y-93794468D01*
X135214423Y-93899535D01*
X135252951Y-93982524D01*
X135281788Y-94033606D01*
X135287269Y-94040568D01*
X135305937Y-94059009D01*
X135327960Y-94072562D01*
X135360297Y-94081978D01*
X135409908Y-94088010D01*
X135483746Y-94091410D01*
X135588774Y-94092927D01*
X135731947Y-94093314D01*
X135775753Y-94093323D01*
X135952892Y-94092237D01*
X136088848Y-94088260D01*
X136189293Y-94080310D01*
X136259901Y-94067306D01*
X136306344Y-94048164D01*
X136334295Y-94021805D01*
X136349430Y-93987147D01*
X136350303Y-93983795D01*
X136354113Y-93896028D01*
X136321526Y-93826283D01*
X136276320Y-93792543D01*
X136224894Y-93780786D01*
X136131849Y-93772066D01*
X136002380Y-93766721D01*
X135856333Y-93765076D01*
X135496627Y-93765076D01*
X135338613Y-93337185D01*
X135286036Y-93194826D01*
X135235816Y-93058877D01*
X135191461Y-92938830D01*
X135156476Y-92844182D01*
X135134995Y-92786104D01*
X135102042Y-92713307D01*
X135066254Y-92658299D01*
X135045759Y-92639565D01*
X134966839Y-92617469D01*
X134891644Y-92629991D01*
X134850361Y-92659002D01*
X134833324Y-92695348D01*
X134808325Y-92773616D01*
X134776449Y-92889717D01*
X134738791Y-93039563D01*
X134696437Y-93219068D01*
X134670614Y-93333080D01*
X134632822Y-93500732D01*
X134597389Y-93655062D01*
X134565838Y-93789642D01*
X134539702Y-93898040D01*
X134520506Y-93973824D01*
X134509778Y-94010564D01*
X134509491Y-94011261D01*
X134498940Y-94019426D01*
X134483307Y-94001006D01*
X134460816Y-93951850D01*
X134429686Y-93867810D01*
X134388142Y-93744737D01*
X134365526Y-93675362D01*
X134322224Y-93545648D01*
X134280771Y-93428908D01*
X134244385Y-93333660D01*
X134216283Y-93268421D01*
X134202766Y-93244539D01*
X134145300Y-93206477D01*
X134072598Y-93198221D01*
X134007356Y-93222004D01*
X134003636Y-93224942D01*
X133978262Y-93254588D01*
X133933504Y-93315198D01*
X133875385Y-93398327D01*
X133809928Y-93495530D01*
X133800885Y-93509226D01*
X133632397Y-93765076D01*
X133378978Y-93765076D01*
X133232401Y-93768471D01*
X133126278Y-93779789D01*
X133054588Y-93800732D01*
X133011310Y-93833001D01*
X132991296Y-93874604D01*
X132987487Y-93962372D01*
X132166431Y-93962372D01*
X132177018Y-93709666D01*
X132230350Y-93366148D01*
X132292335Y-93133763D01*
X132413067Y-92829874D01*
X132572640Y-92548296D01*
X132767295Y-92291736D01*
X132993277Y-92062902D01*
X133246828Y-91864498D01*
X133524190Y-91699233D01*
X133821609Y-91569809D01*
X134135326Y-91478937D01*
X134461585Y-91429319D01*
X134670800Y-91420461D01*
X135003532Y-91443341D01*
X135330154Y-91510414D01*
X135645211Y-91619328D01*
X135943243Y-91767736D01*
X136218794Y-91953284D01*
X136466409Y-92173622D01*
X136499600Y-92208244D01*
X136715136Y-92469862D01*
X136889461Y-92752136D01*
X137022727Y-93055614D01*
X137115085Y-93380847D01*
X137166687Y-93728381D01*
X137177686Y-94098766D01*
X137148234Y-94492551D01*
X137143306Y-94531437D01*
X137095795Y-94824982D01*
X137029958Y-95113268D01*
X136943773Y-95400795D01*
X136835221Y-95692061D01*
X136702280Y-95991566D01*
X136542930Y-96303808D01*
X136355149Y-96633286D01*
X136136916Y-96984498D01*
X135886212Y-97361945D01*
X135844598Y-97422676D01*
X135755626Y-97552239D01*
X135658676Y-97693756D01*
X135564930Y-97830885D01*
X135485574Y-97947280D01*
X135479295Y-97956509D01*
X135413552Y-98053110D01*
X135355198Y-98138720D01*
X135310531Y-98204110D01*
X135285846Y-98240052D01*
X135285699Y-98240262D01*
X135271940Y-98264123D01*
X135279834Y-98274329D01*
X135317839Y-98272818D01*
X135384986Y-98263007D01*
X135474319Y-98246927D01*
X135585330Y-98224083D01*
X135694275Y-98199365D01*
X135696210Y-98198901D01*
X136128381Y-98071024D01*
X136542165Y-97900766D01*
X136935109Y-97689845D01*
X137304763Y-97439981D01*
X137648677Y-97152893D01*
X137964402Y-96830301D01*
X138249486Y-96473921D01*
X138339811Y-96344153D01*
X138485908Y-96103248D01*
X138625196Y-95829312D01*
X138751653Y-95536200D01*
X138859261Y-95237766D01*
X138936126Y-94971660D01*
X139013167Y-94576169D01*
X139052179Y-94162450D01*
X139053159Y-93739716D01*
X139016108Y-93317177D01*
X138941023Y-92904042D01*
X138936496Y-92884755D01*
X138813274Y-92464863D01*
X138648291Y-92062848D01*
X138444087Y-91681214D01*
X138203203Y-91322463D01*
X137928178Y-90989100D01*
X137621553Y-90683628D01*
X137285869Y-90408552D01*
X136923664Y-90166376D01*
X136537479Y-89959601D01*
X136129855Y-89790734D01*
X135703330Y-89662277D01*
X135655538Y-89650761D01*
X135262866Y-89579747D01*
X134852924Y-89545367D01*
X134437717Y-89547621D01*
X134029246Y-89586508D01*
X133686061Y-89650760D01*
X133251698Y-89776414D01*
X132835898Y-89943814D01*
X132441390Y-90150814D01*
X132070902Y-90395262D01*
X131727162Y-90675011D01*
X131412900Y-90987912D01*
X131130844Y-91331816D01*
X130883724Y-91704573D01*
X130737294Y-91972906D01*
X130564378Y-92369342D01*
X130432222Y-92784586D01*
X130341392Y-93213290D01*
X130292455Y-93650103D01*
X130285980Y-94089676D01*
X130078696Y-94089676D01*
X130075172Y-93744908D01*
X130114690Y-93284916D01*
X130196124Y-92838953D01*
X130256280Y-92618014D01*
X130337835Y-92375914D01*
X130434608Y-92129417D01*
X130540418Y-91895288D01*
X130554860Y-91865938D01*
X130696360Y-91600230D01*
X130845944Y-91359479D01*
X131012486Y-91131298D01*
X131204868Y-90903299D01*
X131376114Y-90720155D01*
X131624834Y-90477888D01*
X131870142Y-90270214D01*
X132124789Y-90087701D01*
X132401527Y-89920925D01*
X132596908Y-89817696D01*
X133001494Y-89636504D01*
X133412472Y-89498825D01*
X133834960Y-89403470D01*
X134274081Y-89349244D01*
X134670800Y-89334594D01*
X135128413Y-89354247D01*
G37*
%TO.C,U2*%
X115714000Y-104444800D02*
X115714000Y-86554800D01*
X118474000Y-86554800D02*
X115714000Y-86554800D01*
X118474000Y-104444800D02*
X115714000Y-104444800D01*
X118474000Y-104444800D02*
X118474000Y-86554800D01*
X118474000Y-105714800D02*
X118474000Y-107094800D01*
X118474000Y-107094800D02*
X117094000Y-107094800D01*
%TO.C,J2*%
X115714000Y-117805200D02*
X115714000Y-115155200D01*
X118474000Y-115155200D02*
X115714000Y-115155200D01*
X118474000Y-117805200D02*
X115714000Y-117805200D01*
X118474000Y-117805200D02*
X118474000Y-115155200D01*
X118474000Y-119075200D02*
X118474000Y-120455200D01*
X118474000Y-120455200D02*
X117094000Y-120455200D01*
%TD*%
M02*
